%TF.GenerationSoftware,KiCad,Pcbnew,8.0.4*%
%TF.CreationDate,2024-10-06T23:42:51+02:00*%
%TF.ProjectId,elrs-sim-panel,656c7273-2d73-4696-9d2d-70616e656c2e,rev?*%
%TF.SameCoordinates,Original*%
%TF.FileFunction,Paste,Top*%
%TF.FilePolarity,Positive*%
%FSLAX46Y46*%
G04 Gerber Fmt 4.6, Leading zero omitted, Abs format (unit mm)*
G04 Created by KiCad (PCBNEW 8.0.4) date 2024-10-06 23:42:51*
%MOMM*%
%LPD*%
G01*
G04 APERTURE LIST*
G04 Aperture macros list*
%AMRoundRect*
0 Rectangle with rounded corners*
0 $1 Rounding radius*
0 $2 $3 $4 $5 $6 $7 $8 $9 X,Y pos of 4 corners*
0 Add a 4 corners polygon primitive as box body*
4,1,4,$2,$3,$4,$5,$6,$7,$8,$9,$2,$3,0*
0 Add four circle primitives for the rounded corners*
1,1,$1+$1,$2,$3*
1,1,$1+$1,$4,$5*
1,1,$1+$1,$6,$7*
1,1,$1+$1,$8,$9*
0 Add four rect primitives between the rounded corners*
20,1,$1+$1,$2,$3,$4,$5,0*
20,1,$1+$1,$4,$5,$6,$7,0*
20,1,$1+$1,$6,$7,$8,$9,0*
20,1,$1+$1,$8,$9,$2,$3,0*%
G04 Aperture macros list end*
%ADD10RoundRect,0.135000X-0.135000X-0.185000X0.135000X-0.185000X0.135000X0.185000X-0.135000X0.185000X0*%
%ADD11RoundRect,0.140000X-0.140000X-0.170000X0.140000X-0.170000X0.140000X0.170000X-0.140000X0.170000X0*%
%ADD12RoundRect,0.135000X0.185000X-0.135000X0.185000X0.135000X-0.185000X0.135000X-0.185000X-0.135000X0*%
%ADD13RoundRect,0.140000X0.140000X0.170000X-0.140000X0.170000X-0.140000X-0.170000X0.140000X-0.170000X0*%
%ADD14R,0.900000X1.700000*%
%ADD15RoundRect,0.500000X3.500000X-0.500000X3.500000X0.500000X-3.500000X0.500000X-3.500000X-0.500000X0*%
%ADD16RoundRect,0.500000X3.000000X-0.250000X3.000000X0.250000X-3.000000X0.250000X-3.000000X-0.250000X0*%
%ADD17RoundRect,0.140000X-0.170000X0.140000X-0.170000X-0.140000X0.170000X-0.140000X0.170000X0.140000X0*%
%ADD18RoundRect,0.140000X0.170000X-0.140000X0.170000X0.140000X-0.170000X0.140000X-0.170000X-0.140000X0*%
%ADD19RoundRect,0.135000X0.135000X0.185000X-0.135000X0.185000X-0.135000X-0.185000X0.135000X-0.185000X0*%
%ADD20RoundRect,0.150000X0.150000X-0.512500X0.150000X0.512500X-0.150000X0.512500X-0.150000X-0.512500X0*%
%ADD21RoundRect,0.249999X0.395001X-0.395001X0.395001X0.395001X-0.395001X0.395001X-0.395001X-0.395001X0*%
%ADD22RoundRect,0.050000X0.050000X-0.387500X0.050000X0.387500X-0.050000X0.387500X-0.050000X-0.387500X0*%
%ADD23RoundRect,0.050000X0.387500X-0.050000X0.387500X0.050000X-0.387500X0.050000X-0.387500X-0.050000X0*%
%ADD24RoundRect,0.102000X-0.373000X-0.323000X0.373000X-0.323000X0.373000X0.323000X-0.373000X0.323000X0*%
%ADD25RoundRect,0.040000X-0.605000X0.040000X-0.605000X-0.040000X0.605000X-0.040000X0.605000X0.040000X0*%
%ADD26RoundRect,0.062500X-0.062500X0.387500X-0.062500X-0.387500X0.062500X-0.387500X0.062500X0.387500X0*%
%ADD27RoundRect,0.102000X0.323000X-0.373000X0.323000X0.373000X-0.323000X0.373000X-0.323000X-0.373000X0*%
%ADD28RoundRect,0.135000X-0.185000X0.135000X-0.185000X-0.135000X0.185000X-0.135000X0.185000X0.135000X0*%
%ADD29R,2.300000X1.000000*%
%ADD30R,0.600000X0.600000*%
%ADD31R,1.450000X0.300000*%
%ADD32RoundRect,0.050000X-0.350000X-0.050000X0.350000X-0.050000X0.350000X0.050000X-0.350000X0.050000X0*%
%ADD33RoundRect,0.050000X-0.050000X-0.325000X0.050000X-0.325000X0.050000X0.325000X-0.050000X0.325000X0*%
%ADD34RoundRect,0.218750X-0.218750X-0.256250X0.218750X-0.256250X0.218750X0.256250X-0.218750X0.256250X0*%
%ADD35R,1.000000X2.300000*%
%ADD36R,0.300000X0.800000*%
%ADD37R,0.800000X0.300000*%
%ADD38R,3.750000X3.750000*%
%ADD39RoundRect,0.102000X0.373000X0.323000X-0.373000X0.323000X-0.373000X-0.323000X0.373000X-0.323000X0*%
%ADD40R,0.300000X0.850000*%
%ADD41R,0.850000X0.300000*%
%ADD42R,2.650000X2.650000*%
G04 APERTURE END LIST*
D10*
%TO.C,R13*%
X21090000Y-11400000D03*
X22110000Y-11400000D03*
%TD*%
%TO.C,R13*%
X21090000Y-79400000D03*
X22110000Y-79400000D03*
%TD*%
D11*
%TO.C,C10*%
X110145000Y-69225000D03*
X111105000Y-69225000D03*
%TD*%
D12*
%TO.C,R4*%
X100900000Y-88510000D03*
X100900000Y-87490000D03*
%TD*%
D13*
%TO.C,C16*%
X88580000Y-47300000D03*
X87620000Y-47300000D03*
%TD*%
D10*
%TO.C,R5*%
X105715000Y-68225000D03*
X106735000Y-68225000D03*
%TD*%
D14*
%TO.C,SW1*%
X42800000Y-26700000D03*
X39400000Y-26700000D03*
%TD*%
%TO.C,SW2*%
X23300000Y-26700000D03*
X26700000Y-26700000D03*
%TD*%
D11*
%TO.C,C14*%
X94240000Y-21200000D03*
X95200000Y-21200000D03*
%TD*%
%TO.C,C14*%
X27740000Y-38200000D03*
X28700000Y-38200000D03*
%TD*%
D15*
%TO.C,J1*%
X13500000Y-52525000D03*
D16*
X14000000Y-50075000D03*
X14000000Y-48025000D03*
D15*
X13500000Y-45575000D03*
%TD*%
D10*
%TO.C,R13*%
X87590000Y-45400000D03*
X88610000Y-45400000D03*
%TD*%
D13*
%TO.C,C21*%
X22100000Y-63350000D03*
X21140000Y-63350000D03*
%TD*%
%TO.C,C16*%
X22080000Y-30300000D03*
X21120000Y-30300000D03*
%TD*%
%TO.C,C3*%
X27600000Y-79900000D03*
X26640000Y-79900000D03*
%TD*%
D17*
%TO.C,C7*%
X118925000Y-28220000D03*
X118925000Y-29180000D03*
%TD*%
D18*
%TO.C,C18*%
X31350000Y-28930000D03*
X31350000Y-27970000D03*
%TD*%
D12*
%TO.C,R16*%
X100900000Y-52610000D03*
X100900000Y-51590000D03*
%TD*%
D19*
%TO.C,R3*%
X106700000Y-47100000D03*
X105680000Y-47100000D03*
%TD*%
D17*
%TO.C,C20*%
X86700000Y-49470000D03*
X86700000Y-50430000D03*
%TD*%
D10*
%TO.C,R14*%
X21140000Y-44400000D03*
X22160000Y-44400000D03*
%TD*%
D17*
%TO.C,C7*%
X52425000Y-11220000D03*
X52425000Y-12180000D03*
%TD*%
D19*
%TO.C,R15*%
X106760000Y-46150000D03*
X105740000Y-46150000D03*
%TD*%
D10*
%TO.C,R1*%
X112015000Y-18225000D03*
X113035000Y-18225000D03*
%TD*%
D17*
%TO.C,C12*%
X39300000Y-35200000D03*
X39300000Y-36160000D03*
%TD*%
D13*
%TO.C,C3*%
X94100000Y-28900000D03*
X93140000Y-28900000D03*
%TD*%
D20*
%TO.C,PS1*%
X19900000Y-71087500D03*
X20850000Y-71087500D03*
X21800000Y-71087500D03*
X21800000Y-68812500D03*
X19900000Y-68812500D03*
%TD*%
D13*
%TO.C,C16*%
X22080000Y-64300000D03*
X21120000Y-64300000D03*
%TD*%
D21*
%TO.C,U1*%
X25900000Y-85350000D03*
X27500000Y-85350000D03*
X25900000Y-83750000D03*
X27500000Y-83750000D03*
D22*
X24100000Y-87987500D03*
X24500000Y-87987500D03*
X24900000Y-87987500D03*
X25300000Y-87987500D03*
X25700000Y-87987500D03*
X26100000Y-87987500D03*
X26500000Y-87987500D03*
X26900000Y-87987500D03*
X27300000Y-87987500D03*
X27700000Y-87987500D03*
X28100000Y-87987500D03*
X28500000Y-87987500D03*
X28900000Y-87987500D03*
X29300000Y-87987500D03*
D23*
X30137500Y-87150000D03*
X30137500Y-86750000D03*
X30137500Y-86350000D03*
X30137500Y-85950000D03*
X30137500Y-85550000D03*
X30137500Y-85150000D03*
X30137500Y-84750000D03*
X30137500Y-84350000D03*
X30137500Y-83950000D03*
X30137500Y-83550000D03*
X30137500Y-83150000D03*
X30137500Y-82750000D03*
X30137500Y-82350000D03*
X30137500Y-81950000D03*
D22*
X29300000Y-81112500D03*
X28900000Y-81112500D03*
X28500000Y-81112500D03*
X28100000Y-81112500D03*
X27700000Y-81112500D03*
X27300000Y-81112500D03*
X26900000Y-81112500D03*
X26500000Y-81112500D03*
X26100000Y-81112500D03*
X25700000Y-81112500D03*
X25300000Y-81112500D03*
X24900000Y-81112500D03*
X24500000Y-81112500D03*
X24100000Y-81112500D03*
D23*
X23262500Y-81950000D03*
X23262500Y-82350000D03*
X23262500Y-82750000D03*
X23262500Y-83150000D03*
X23262500Y-83550000D03*
X23262500Y-83950000D03*
X23262500Y-84350000D03*
X23262500Y-84750000D03*
X23262500Y-85150000D03*
X23262500Y-85550000D03*
X23262500Y-85950000D03*
X23262500Y-86350000D03*
X23262500Y-86750000D03*
X23262500Y-87150000D03*
%TD*%
D24*
%TO.C,X3*%
X114775000Y-28975000D03*
X116225000Y-28975000D03*
X116225000Y-27825000D03*
X114775000Y-27825000D03*
%TD*%
D17*
%TO.C,C20*%
X86700000Y-15470000D03*
X86700000Y-16430000D03*
%TD*%
D12*
%TO.C,R6*%
X106800000Y-19220000D03*
X106800000Y-18200000D03*
%TD*%
D13*
%TO.C,C2*%
X88580000Y-14300000D03*
X87620000Y-14300000D03*
%TD*%
D17*
%TO.C,C15*%
X97850000Y-33070000D03*
X97850000Y-34030000D03*
%TD*%
D25*
%TO.C,U2*%
X99600000Y-48975000D03*
D26*
X100350000Y-47550000D03*
X99850000Y-47550000D03*
X99350000Y-47550000D03*
X98850000Y-47550000D03*
X98850000Y-50400000D03*
X99350000Y-50400000D03*
X99850000Y-50400000D03*
X100350000Y-50400000D03*
%TD*%
D17*
%TO.C,C9*%
X48125000Y-67725000D03*
X48125000Y-68685000D03*
%TD*%
D27*
%TO.C,X2*%
X106475000Y-32925000D03*
X106475000Y-31475000D03*
X105325000Y-31475000D03*
X105325000Y-32925000D03*
%TD*%
D10*
%TO.C,R14*%
X87640000Y-44400000D03*
X88660000Y-44400000D03*
%TD*%
D28*
%TO.C,R2*%
X119300000Y-69390000D03*
X119300000Y-70410000D03*
%TD*%
D13*
%TO.C,C21*%
X22100000Y-46350000D03*
X21140000Y-46350000D03*
%TD*%
%TO.C,C5*%
X33230000Y-17600000D03*
X32270000Y-17600000D03*
%TD*%
D17*
%TO.C,C8*%
X120025000Y-45220000D03*
X120025000Y-46180000D03*
%TD*%
D21*
%TO.C,U1*%
X92400000Y-51350000D03*
X94000000Y-51350000D03*
X92400000Y-49750000D03*
X94000000Y-49750000D03*
D22*
X90600000Y-53987500D03*
X91000000Y-53987500D03*
X91400000Y-53987500D03*
X91800000Y-53987500D03*
X92200000Y-53987500D03*
X92600000Y-53987500D03*
X93000000Y-53987500D03*
X93400000Y-53987500D03*
X93800000Y-53987500D03*
X94200000Y-53987500D03*
X94600000Y-53987500D03*
X95000000Y-53987500D03*
X95400000Y-53987500D03*
X95800000Y-53987500D03*
D23*
X96637500Y-53150000D03*
X96637500Y-52750000D03*
X96637500Y-52350000D03*
X96637500Y-51950000D03*
X96637500Y-51550000D03*
X96637500Y-51150000D03*
X96637500Y-50750000D03*
X96637500Y-50350000D03*
X96637500Y-49950000D03*
X96637500Y-49550000D03*
X96637500Y-49150000D03*
X96637500Y-48750000D03*
X96637500Y-48350000D03*
X96637500Y-47950000D03*
D22*
X95800000Y-47112500D03*
X95400000Y-47112500D03*
X95000000Y-47112500D03*
X94600000Y-47112500D03*
X94200000Y-47112500D03*
X93800000Y-47112500D03*
X93400000Y-47112500D03*
X93000000Y-47112500D03*
X92600000Y-47112500D03*
X92200000Y-47112500D03*
X91800000Y-47112500D03*
X91400000Y-47112500D03*
X91000000Y-47112500D03*
X90600000Y-47112500D03*
D23*
X89762500Y-47950000D03*
X89762500Y-48350000D03*
X89762500Y-48750000D03*
X89762500Y-49150000D03*
X89762500Y-49550000D03*
X89762500Y-49950000D03*
X89762500Y-50350000D03*
X89762500Y-50750000D03*
X89762500Y-51150000D03*
X89762500Y-51550000D03*
X89762500Y-51950000D03*
X89762500Y-52350000D03*
X89762500Y-52750000D03*
X89762500Y-53150000D03*
%TD*%
D12*
%TO.C,R6*%
X106800000Y-70220000D03*
X106800000Y-69200000D03*
%TD*%
%TO.C,R16*%
X100900000Y-69610000D03*
X100900000Y-68590000D03*
%TD*%
D29*
%TO.C,L1*%
X58500000Y-68540000D03*
X58500000Y-63460000D03*
%TD*%
D12*
%TO.C,R6*%
X106800000Y-36220000D03*
X106800000Y-35200000D03*
%TD*%
D18*
%TO.C,C18*%
X31350000Y-79930000D03*
X31350000Y-78970000D03*
%TD*%
D30*
%TO.C,ANT1*%
X55300000Y-15100000D03*
D31*
X55300000Y-15713000D03*
D30*
X55300000Y-16326000D03*
%TD*%
D15*
%TO.C,J1*%
X80000000Y-86525000D03*
D16*
X80500000Y-84075000D03*
X80500000Y-82025000D03*
D15*
X80000000Y-79575000D03*
%TD*%
D13*
%TO.C,C5*%
X33230000Y-34600000D03*
X32270000Y-34600000D03*
%TD*%
D21*
%TO.C,U1*%
X25900000Y-34350000D03*
X27500000Y-34350000D03*
X25900000Y-32750000D03*
X27500000Y-32750000D03*
D22*
X24100000Y-36987500D03*
X24500000Y-36987500D03*
X24900000Y-36987500D03*
X25300000Y-36987500D03*
X25700000Y-36987500D03*
X26100000Y-36987500D03*
X26500000Y-36987500D03*
X26900000Y-36987500D03*
X27300000Y-36987500D03*
X27700000Y-36987500D03*
X28100000Y-36987500D03*
X28500000Y-36987500D03*
X28900000Y-36987500D03*
X29300000Y-36987500D03*
D23*
X30137500Y-36150000D03*
X30137500Y-35750000D03*
X30137500Y-35350000D03*
X30137500Y-34950000D03*
X30137500Y-34550000D03*
X30137500Y-34150000D03*
X30137500Y-33750000D03*
X30137500Y-33350000D03*
X30137500Y-32950000D03*
X30137500Y-32550000D03*
X30137500Y-32150000D03*
X30137500Y-31750000D03*
X30137500Y-31350000D03*
X30137500Y-30950000D03*
D22*
X29300000Y-30112500D03*
X28900000Y-30112500D03*
X28500000Y-30112500D03*
X28100000Y-30112500D03*
X27700000Y-30112500D03*
X27300000Y-30112500D03*
X26900000Y-30112500D03*
X26500000Y-30112500D03*
X26100000Y-30112500D03*
X25700000Y-30112500D03*
X25300000Y-30112500D03*
X24900000Y-30112500D03*
X24500000Y-30112500D03*
X24100000Y-30112500D03*
D23*
X23262500Y-30950000D03*
X23262500Y-31350000D03*
X23262500Y-31750000D03*
X23262500Y-32150000D03*
X23262500Y-32550000D03*
X23262500Y-32950000D03*
X23262500Y-33350000D03*
X23262500Y-33750000D03*
X23262500Y-34150000D03*
X23262500Y-34550000D03*
X23262500Y-34950000D03*
X23262500Y-35350000D03*
X23262500Y-35750000D03*
X23262500Y-36150000D03*
%TD*%
D13*
%TO.C,C1*%
X90500000Y-55200000D03*
X89540000Y-55200000D03*
%TD*%
%TO.C,C17*%
X24060000Y-79900000D03*
X23100000Y-79900000D03*
%TD*%
D24*
%TO.C,X3*%
X48275000Y-62975000D03*
X49725000Y-62975000D03*
X49725000Y-61825000D03*
X48275000Y-61825000D03*
%TD*%
D17*
%TO.C,C8*%
X53525000Y-79220000D03*
X53525000Y-80180000D03*
%TD*%
D10*
%TO.C,R13*%
X21090000Y-62400000D03*
X22110000Y-62400000D03*
%TD*%
D20*
%TO.C,PS1*%
X86400000Y-37087500D03*
X87350000Y-37087500D03*
X88300000Y-37087500D03*
X88300000Y-34812500D03*
X86400000Y-34812500D03*
%TD*%
D32*
%TO.C,S1*%
X32500000Y-61825000D03*
X32500000Y-62225000D03*
D33*
X32700000Y-62900000D03*
X33100000Y-62900000D03*
X33500000Y-62900000D03*
D32*
X33700000Y-62225000D03*
X33700000Y-61825000D03*
D33*
X33500000Y-61150000D03*
X33100000Y-61150000D03*
X32700000Y-61150000D03*
%TD*%
D28*
%TO.C,R2*%
X52800000Y-52390000D03*
X52800000Y-53410000D03*
%TD*%
D12*
%TO.C,R11*%
X96900000Y-45960000D03*
X96900000Y-44940000D03*
%TD*%
D10*
%TO.C,R14*%
X87640000Y-27400000D03*
X88660000Y-27400000D03*
%TD*%
D13*
%TO.C,C13*%
X88580000Y-15300000D03*
X87620000Y-15300000D03*
%TD*%
D24*
%TO.C,X3*%
X48275000Y-45975000D03*
X49725000Y-45975000D03*
X49725000Y-44825000D03*
X48275000Y-44825000D03*
%TD*%
D19*
%TO.C,R7*%
X111535000Y-11025000D03*
X110515000Y-11025000D03*
%TD*%
D14*
%TO.C,SW2*%
X23300000Y-9700000D03*
X26700000Y-9700000D03*
%TD*%
D13*
%TO.C,C17*%
X90560000Y-45900000D03*
X89600000Y-45900000D03*
%TD*%
%TO.C,C3*%
X27600000Y-45900000D03*
X26640000Y-45900000D03*
%TD*%
D24*
%TO.C,X3*%
X48275000Y-28975000D03*
X49725000Y-28975000D03*
X49725000Y-27825000D03*
X48275000Y-27825000D03*
%TD*%
D11*
%TO.C,C10*%
X43645000Y-52225000D03*
X44605000Y-52225000D03*
%TD*%
D19*
%TO.C,R7*%
X45035000Y-79025000D03*
X44015000Y-79025000D03*
%TD*%
D12*
%TO.C,R6*%
X40300000Y-19220000D03*
X40300000Y-18200000D03*
%TD*%
D30*
%TO.C,ANT1*%
X55300000Y-49100000D03*
D31*
X55300000Y-49713000D03*
D30*
X55300000Y-50326000D03*
%TD*%
D17*
%TO.C,C12*%
X105800000Y-18200000D03*
X105800000Y-19160000D03*
%TD*%
D13*
%TO.C,C1*%
X90500000Y-38200000D03*
X89540000Y-38200000D03*
%TD*%
%TO.C,C1*%
X24000000Y-55200000D03*
X23040000Y-55200000D03*
%TD*%
D34*
%TO.C,D2*%
X28212500Y-76800000D03*
X29787500Y-76800000D03*
%TD*%
D17*
%TO.C,C22*%
X31350000Y-14170000D03*
X31350000Y-15130000D03*
%TD*%
D13*
%TO.C,C4*%
X22085000Y-50300000D03*
X21125000Y-50300000D03*
%TD*%
%TO.C,C21*%
X88600000Y-80350000D03*
X87640000Y-80350000D03*
%TD*%
%TO.C,C5*%
X33230000Y-85600000D03*
X32270000Y-85600000D03*
%TD*%
D11*
%TO.C,C10*%
X110145000Y-52225000D03*
X111105000Y-52225000D03*
%TD*%
D30*
%TO.C,ANT1*%
X121800000Y-32100000D03*
D31*
X121800000Y-32713000D03*
D30*
X121800000Y-33326000D03*
%TD*%
D10*
%TO.C,R14*%
X87640000Y-10400000D03*
X88660000Y-10400000D03*
%TD*%
D17*
%TO.C,C7*%
X118925000Y-62220000D03*
X118925000Y-63180000D03*
%TD*%
%TO.C,C6*%
X51000000Y-86420000D03*
X51000000Y-87380000D03*
%TD*%
D35*
%TO.C,L2*%
X42560000Y-20400000D03*
X47640000Y-20400000D03*
%TD*%
D19*
%TO.C,R15*%
X40260000Y-63150000D03*
X39240000Y-63150000D03*
%TD*%
D17*
%TO.C,C9*%
X114625000Y-16725000D03*
X114625000Y-17685000D03*
%TD*%
D18*
%TO.C,C19*%
X86700000Y-14580000D03*
X86700000Y-13620000D03*
%TD*%
D17*
%TO.C,C22*%
X31350000Y-65170000D03*
X31350000Y-66130000D03*
%TD*%
%TO.C,C15*%
X31350000Y-33070000D03*
X31350000Y-34030000D03*
%TD*%
D25*
%TO.C,U2*%
X33100000Y-65975000D03*
D26*
X33850000Y-64550000D03*
X33350000Y-64550000D03*
X32850000Y-64550000D03*
X32350000Y-64550000D03*
X32350000Y-67400000D03*
X32850000Y-67400000D03*
X33350000Y-67400000D03*
X33850000Y-67400000D03*
%TD*%
D17*
%TO.C,C15*%
X31350000Y-50070000D03*
X31350000Y-51030000D03*
%TD*%
D19*
%TO.C,R9*%
X29510000Y-10000000D03*
X28490000Y-10000000D03*
%TD*%
%TO.C,R15*%
X106760000Y-63150000D03*
X105740000Y-63150000D03*
%TD*%
%TO.C,R12*%
X29500000Y-44950000D03*
X28480000Y-44950000D03*
%TD*%
D10*
%TO.C,R14*%
X87640000Y-61400000D03*
X88660000Y-61400000D03*
%TD*%
D11*
%TO.C,C11*%
X112445000Y-11025000D03*
X113405000Y-11025000D03*
%TD*%
D13*
%TO.C,C4*%
X88585000Y-33300000D03*
X87625000Y-33300000D03*
%TD*%
D12*
%TO.C,R4*%
X100900000Y-37510000D03*
X100900000Y-36490000D03*
%TD*%
D17*
%TO.C,C8*%
X53525000Y-62220000D03*
X53525000Y-63180000D03*
%TD*%
D13*
%TO.C,C1*%
X90500000Y-72200000D03*
X89540000Y-72200000D03*
%TD*%
D29*
%TO.C,L1*%
X125000000Y-34540000D03*
X125000000Y-29460000D03*
%TD*%
D13*
%TO.C,C16*%
X88580000Y-64300000D03*
X87620000Y-64300000D03*
%TD*%
D17*
%TO.C,C22*%
X31350000Y-31170000D03*
X31350000Y-32130000D03*
%TD*%
D12*
%TO.C,R6*%
X106800000Y-53220000D03*
X106800000Y-52200000D03*
%TD*%
D10*
%TO.C,R10*%
X28490000Y-79900000D03*
X29510000Y-79900000D03*
%TD*%
D13*
%TO.C,C4*%
X22085000Y-33300000D03*
X21125000Y-33300000D03*
%TD*%
D19*
%TO.C,R7*%
X45035000Y-62025000D03*
X44015000Y-62025000D03*
%TD*%
D10*
%TO.C,R8*%
X43990000Y-10025000D03*
X45010000Y-10025000D03*
%TD*%
D12*
%TO.C,R4*%
X100900000Y-71510000D03*
X100900000Y-70490000D03*
%TD*%
D13*
%TO.C,C3*%
X94100000Y-11900000D03*
X93140000Y-11900000D03*
%TD*%
D11*
%TO.C,C10*%
X43645000Y-69225000D03*
X44605000Y-69225000D03*
%TD*%
D17*
%TO.C,C20*%
X20200000Y-32470000D03*
X20200000Y-33430000D03*
%TD*%
D13*
%TO.C,C17*%
X90560000Y-28900000D03*
X89600000Y-28900000D03*
%TD*%
D10*
%TO.C,R10*%
X94990000Y-28900000D03*
X96010000Y-28900000D03*
%TD*%
D34*
%TO.C,D2*%
X94712500Y-59800000D03*
X96287500Y-59800000D03*
%TD*%
D17*
%TO.C,C20*%
X20200000Y-15470000D03*
X20200000Y-16430000D03*
%TD*%
D34*
%TO.C,D1*%
X44312500Y-25800000D03*
X45887500Y-25800000D03*
%TD*%
D12*
%TO.C,R4*%
X34400000Y-20510000D03*
X34400000Y-19490000D03*
%TD*%
D10*
%TO.C,R8*%
X110490000Y-61025000D03*
X111510000Y-61025000D03*
%TD*%
D19*
%TO.C,R3*%
X106700000Y-64100000D03*
X105680000Y-64100000D03*
%TD*%
%TO.C,R3*%
X106700000Y-13100000D03*
X105680000Y-13100000D03*
%TD*%
%TO.C,R15*%
X106760000Y-12150000D03*
X105740000Y-12150000D03*
%TD*%
D20*
%TO.C,PS1*%
X86400000Y-54087500D03*
X87350000Y-54087500D03*
X88300000Y-54087500D03*
X88300000Y-51812500D03*
X86400000Y-51812500D03*
%TD*%
D18*
%TO.C,C19*%
X20200000Y-14580000D03*
X20200000Y-13620000D03*
%TD*%
D10*
%TO.C,R10*%
X94990000Y-62900000D03*
X96010000Y-62900000D03*
%TD*%
D19*
%TO.C,R15*%
X40260000Y-80150000D03*
X39240000Y-80150000D03*
%TD*%
D36*
%TO.C,IC2*%
X42075000Y-51125000D03*
X42575000Y-51125000D03*
X43075000Y-51125000D03*
X43575000Y-51125000D03*
X44075000Y-51125000D03*
X44575000Y-51125000D03*
X45075000Y-51125000D03*
X45575000Y-51125000D03*
D37*
X46325000Y-50375000D03*
X46325000Y-49875000D03*
X46325000Y-49375000D03*
X46325000Y-48875000D03*
X46325000Y-48375000D03*
X46325000Y-47875000D03*
X46325000Y-47375000D03*
X46325000Y-46875000D03*
D36*
X45575000Y-46125000D03*
X45075000Y-46125000D03*
X44575000Y-46125000D03*
X44075000Y-46125000D03*
X43575000Y-46125000D03*
X43075000Y-46125000D03*
X42575000Y-46125000D03*
X42075000Y-46125000D03*
D37*
X41325000Y-46875000D03*
X41325000Y-47375000D03*
X41325000Y-47875000D03*
X41325000Y-48375000D03*
X41325000Y-48875000D03*
X41325000Y-49375000D03*
X41325000Y-49875000D03*
X41325000Y-50375000D03*
D38*
X43825000Y-48625000D03*
%TD*%
D27*
%TO.C,X2*%
X106475000Y-49925000D03*
X106475000Y-48475000D03*
X105325000Y-48475000D03*
X105325000Y-49925000D03*
%TD*%
D13*
%TO.C,C3*%
X94100000Y-79900000D03*
X93140000Y-79900000D03*
%TD*%
D19*
%TO.C,R12*%
X29500000Y-10950000D03*
X28480000Y-10950000D03*
%TD*%
%TO.C,R3*%
X106700000Y-81100000D03*
X105680000Y-81100000D03*
%TD*%
D35*
%TO.C,L2*%
X42560000Y-88400000D03*
X47640000Y-88400000D03*
%TD*%
D14*
%TO.C,SW2*%
X23300000Y-60700000D03*
X26700000Y-60700000D03*
%TD*%
D12*
%TO.C,R4*%
X34400000Y-54510000D03*
X34400000Y-53490000D03*
%TD*%
D13*
%TO.C,C1*%
X24000000Y-89200000D03*
X23040000Y-89200000D03*
%TD*%
D11*
%TO.C,C11*%
X45945000Y-79025000D03*
X46905000Y-79025000D03*
%TD*%
D20*
%TO.C,PS1*%
X19900000Y-20087500D03*
X20850000Y-20087500D03*
X21800000Y-20087500D03*
X21800000Y-17812500D03*
X19900000Y-17812500D03*
%TD*%
D11*
%TO.C,C14*%
X94240000Y-38200000D03*
X95200000Y-38200000D03*
%TD*%
D17*
%TO.C,C6*%
X117500000Y-35420000D03*
X117500000Y-36380000D03*
%TD*%
%TO.C,C7*%
X118925000Y-79220000D03*
X118925000Y-80180000D03*
%TD*%
D11*
%TO.C,C11*%
X112445000Y-79025000D03*
X113405000Y-79025000D03*
%TD*%
D21*
%TO.C,U1*%
X92400000Y-17350000D03*
X94000000Y-17350000D03*
X92400000Y-15750000D03*
X94000000Y-15750000D03*
D22*
X90600000Y-19987500D03*
X91000000Y-19987500D03*
X91400000Y-19987500D03*
X91800000Y-19987500D03*
X92200000Y-19987500D03*
X92600000Y-19987500D03*
X93000000Y-19987500D03*
X93400000Y-19987500D03*
X93800000Y-19987500D03*
X94200000Y-19987500D03*
X94600000Y-19987500D03*
X95000000Y-19987500D03*
X95400000Y-19987500D03*
X95800000Y-19987500D03*
D23*
X96637500Y-19150000D03*
X96637500Y-18750000D03*
X96637500Y-18350000D03*
X96637500Y-17950000D03*
X96637500Y-17550000D03*
X96637500Y-17150000D03*
X96637500Y-16750000D03*
X96637500Y-16350000D03*
X96637500Y-15950000D03*
X96637500Y-15550000D03*
X96637500Y-15150000D03*
X96637500Y-14750000D03*
X96637500Y-14350000D03*
X96637500Y-13950000D03*
D22*
X95800000Y-13112500D03*
X95400000Y-13112500D03*
X95000000Y-13112500D03*
X94600000Y-13112500D03*
X94200000Y-13112500D03*
X93800000Y-13112500D03*
X93400000Y-13112500D03*
X93000000Y-13112500D03*
X92600000Y-13112500D03*
X92200000Y-13112500D03*
X91800000Y-13112500D03*
X91400000Y-13112500D03*
X91000000Y-13112500D03*
X90600000Y-13112500D03*
D23*
X89762500Y-13950000D03*
X89762500Y-14350000D03*
X89762500Y-14750000D03*
X89762500Y-15150000D03*
X89762500Y-15550000D03*
X89762500Y-15950000D03*
X89762500Y-16350000D03*
X89762500Y-16750000D03*
X89762500Y-17150000D03*
X89762500Y-17550000D03*
X89762500Y-17950000D03*
X89762500Y-18350000D03*
X89762500Y-18750000D03*
X89762500Y-19150000D03*
%TD*%
D28*
%TO.C,R2*%
X52800000Y-35390000D03*
X52800000Y-36410000D03*
%TD*%
%TO.C,R2*%
X119300000Y-35390000D03*
X119300000Y-36410000D03*
%TD*%
D20*
%TO.C,PS1*%
X86400000Y-71087500D03*
X87350000Y-71087500D03*
X88300000Y-71087500D03*
X88300000Y-68812500D03*
X86400000Y-68812500D03*
%TD*%
D13*
%TO.C,C2*%
X88580000Y-82300000D03*
X87620000Y-82300000D03*
%TD*%
D15*
%TO.C,J1*%
X13500000Y-69525000D03*
D16*
X14000000Y-67075000D03*
X14000000Y-65025000D03*
D15*
X13500000Y-62575000D03*
%TD*%
D17*
%TO.C,C15*%
X97850000Y-16070000D03*
X97850000Y-17030000D03*
%TD*%
D34*
%TO.C,D2*%
X94712500Y-25800000D03*
X96287500Y-25800000D03*
%TD*%
D13*
%TO.C,C13*%
X88580000Y-32300000D03*
X87620000Y-32300000D03*
%TD*%
D18*
%TO.C,C19*%
X86700000Y-31580000D03*
X86700000Y-30620000D03*
%TD*%
D25*
%TO.C,U2*%
X33100000Y-82975000D03*
D26*
X33850000Y-81550000D03*
X33350000Y-81550000D03*
X32850000Y-81550000D03*
X32350000Y-81550000D03*
X32350000Y-84400000D03*
X32850000Y-84400000D03*
X33350000Y-84400000D03*
X33850000Y-84400000D03*
%TD*%
D17*
%TO.C,C15*%
X97850000Y-67070000D03*
X97850000Y-68030000D03*
%TD*%
%TO.C,C8*%
X120025000Y-79220000D03*
X120025000Y-80180000D03*
%TD*%
D13*
%TO.C,C13*%
X22080000Y-49300000D03*
X21120000Y-49300000D03*
%TD*%
D10*
%TO.C,R10*%
X28490000Y-45900000D03*
X29510000Y-45900000D03*
%TD*%
D17*
%TO.C,C15*%
X97850000Y-50070000D03*
X97850000Y-51030000D03*
%TD*%
D10*
%TO.C,R5*%
X39215000Y-68225000D03*
X40235000Y-68225000D03*
%TD*%
D15*
%TO.C,J1*%
X13500000Y-86525000D03*
D16*
X14000000Y-84075000D03*
X14000000Y-82025000D03*
D15*
X13500000Y-79575000D03*
%TD*%
D32*
%TO.C,S1*%
X99000000Y-44825000D03*
X99000000Y-45225000D03*
D33*
X99200000Y-45900000D03*
X99600000Y-45900000D03*
X100000000Y-45900000D03*
D32*
X100200000Y-45225000D03*
X100200000Y-44825000D03*
D33*
X100000000Y-44150000D03*
X99600000Y-44150000D03*
X99200000Y-44150000D03*
%TD*%
D13*
%TO.C,C3*%
X94100000Y-45900000D03*
X93140000Y-45900000D03*
%TD*%
D25*
%TO.C,U2*%
X33100000Y-31975000D03*
D26*
X33850000Y-30550000D03*
X33350000Y-30550000D03*
X32850000Y-30550000D03*
X32350000Y-30550000D03*
X32350000Y-33400000D03*
X32850000Y-33400000D03*
X33350000Y-33400000D03*
X33850000Y-33400000D03*
%TD*%
D10*
%TO.C,R10*%
X28490000Y-11900000D03*
X29510000Y-11900000D03*
%TD*%
D17*
%TO.C,C8*%
X53525000Y-28220000D03*
X53525000Y-29180000D03*
%TD*%
%TO.C,C12*%
X39300000Y-69200000D03*
X39300000Y-70160000D03*
%TD*%
D36*
%TO.C,IC2*%
X108575000Y-34125000D03*
X109075000Y-34125000D03*
X109575000Y-34125000D03*
X110075000Y-34125000D03*
X110575000Y-34125000D03*
X111075000Y-34125000D03*
X111575000Y-34125000D03*
X112075000Y-34125000D03*
D37*
X112825000Y-33375000D03*
X112825000Y-32875000D03*
X112825000Y-32375000D03*
X112825000Y-31875000D03*
X112825000Y-31375000D03*
X112825000Y-30875000D03*
X112825000Y-30375000D03*
X112825000Y-29875000D03*
D36*
X112075000Y-29125000D03*
X111575000Y-29125000D03*
X111075000Y-29125000D03*
X110575000Y-29125000D03*
X110075000Y-29125000D03*
X109575000Y-29125000D03*
X109075000Y-29125000D03*
X108575000Y-29125000D03*
D37*
X107825000Y-29875000D03*
X107825000Y-30375000D03*
X107825000Y-30875000D03*
X107825000Y-31375000D03*
X107825000Y-31875000D03*
X107825000Y-32375000D03*
X107825000Y-32875000D03*
X107825000Y-33375000D03*
D38*
X110325000Y-31625000D03*
%TD*%
D39*
%TO.C,X1*%
X99650000Y-18850000D03*
X98200000Y-18850000D03*
X98200000Y-20000000D03*
X99650000Y-20000000D03*
%TD*%
D13*
%TO.C,C1*%
X24000000Y-21200000D03*
X23040000Y-21200000D03*
%TD*%
D19*
%TO.C,R15*%
X40260000Y-46150000D03*
X39240000Y-46150000D03*
%TD*%
D12*
%TO.C,R4*%
X34400000Y-88510000D03*
X34400000Y-87490000D03*
%TD*%
D19*
%TO.C,R15*%
X106760000Y-29150000D03*
X105740000Y-29150000D03*
%TD*%
D29*
%TO.C,L1*%
X125000000Y-68540000D03*
X125000000Y-63460000D03*
%TD*%
D12*
%TO.C,R6*%
X40300000Y-36220000D03*
X40300000Y-35200000D03*
%TD*%
D15*
%TO.C,J1*%
X13500000Y-35525000D03*
D16*
X14000000Y-33075000D03*
X14000000Y-31025000D03*
D15*
X13500000Y-28575000D03*
%TD*%
D27*
%TO.C,X2*%
X39975000Y-83925000D03*
X39975000Y-82475000D03*
X38825000Y-82475000D03*
X38825000Y-83925000D03*
%TD*%
D17*
%TO.C,C20*%
X86700000Y-32470000D03*
X86700000Y-33430000D03*
%TD*%
%TO.C,C12*%
X39300000Y-52200000D03*
X39300000Y-53160000D03*
%TD*%
D13*
%TO.C,C4*%
X22085000Y-84300000D03*
X21125000Y-84300000D03*
%TD*%
D39*
%TO.C,X1*%
X33150000Y-18850000D03*
X31700000Y-18850000D03*
X31700000Y-20000000D03*
X33150000Y-20000000D03*
%TD*%
D34*
%TO.C,D2*%
X94712500Y-8800000D03*
X96287500Y-8800000D03*
%TD*%
D12*
%TO.C,R11*%
X30400000Y-28960000D03*
X30400000Y-27940000D03*
%TD*%
D34*
%TO.C,D1*%
X44312500Y-8800000D03*
X45887500Y-8800000D03*
%TD*%
D20*
%TO.C,PS1*%
X19900000Y-88087500D03*
X20850000Y-88087500D03*
X21800000Y-88087500D03*
X21800000Y-85812500D03*
X19900000Y-85812500D03*
%TD*%
D14*
%TO.C,SW1*%
X42800000Y-60700000D03*
X39400000Y-60700000D03*
%TD*%
D10*
%TO.C,R1*%
X112015000Y-86225000D03*
X113035000Y-86225000D03*
%TD*%
D18*
%TO.C,C23*%
X51050000Y-63200000D03*
X51050000Y-62240000D03*
%TD*%
D32*
%TO.C,S1*%
X99000000Y-78825000D03*
X99000000Y-79225000D03*
D33*
X99200000Y-79900000D03*
X99600000Y-79900000D03*
X100000000Y-79900000D03*
D32*
X100200000Y-79225000D03*
X100200000Y-78825000D03*
D33*
X100000000Y-78150000D03*
X99600000Y-78150000D03*
X99200000Y-78150000D03*
%TD*%
D18*
%TO.C,C18*%
X31350000Y-11930000D03*
X31350000Y-10970000D03*
%TD*%
D32*
%TO.C,S1*%
X32500000Y-10825000D03*
X32500000Y-11225000D03*
D33*
X32700000Y-11900000D03*
X33100000Y-11900000D03*
X33500000Y-11900000D03*
D32*
X33700000Y-11225000D03*
X33700000Y-10825000D03*
D33*
X33500000Y-10150000D03*
X33100000Y-10150000D03*
X32700000Y-10150000D03*
%TD*%
D11*
%TO.C,C11*%
X45945000Y-62025000D03*
X46905000Y-62025000D03*
%TD*%
D17*
%TO.C,C15*%
X31350000Y-84070000D03*
X31350000Y-85030000D03*
%TD*%
D24*
%TO.C,X3*%
X114775000Y-79975000D03*
X116225000Y-79975000D03*
X116225000Y-78825000D03*
X114775000Y-78825000D03*
%TD*%
D10*
%TO.C,R14*%
X21140000Y-78400000D03*
X22160000Y-78400000D03*
%TD*%
D19*
%TO.C,R9*%
X96010000Y-44000000D03*
X94990000Y-44000000D03*
%TD*%
D32*
%TO.C,S1*%
X99000000Y-61825000D03*
X99000000Y-62225000D03*
D33*
X99200000Y-62900000D03*
X99600000Y-62900000D03*
X100000000Y-62900000D03*
D32*
X100200000Y-62225000D03*
X100200000Y-61825000D03*
D33*
X100000000Y-61150000D03*
X99600000Y-61150000D03*
X99200000Y-61150000D03*
%TD*%
D19*
%TO.C,R9*%
X29510000Y-61000000D03*
X28490000Y-61000000D03*
%TD*%
D27*
%TO.C,X2*%
X39975000Y-15925000D03*
X39975000Y-14475000D03*
X38825000Y-14475000D03*
X38825000Y-15925000D03*
%TD*%
D17*
%TO.C,C9*%
X114625000Y-67725000D03*
X114625000Y-68685000D03*
%TD*%
D18*
%TO.C,C19*%
X20200000Y-31580000D03*
X20200000Y-30620000D03*
%TD*%
D13*
%TO.C,C5*%
X33230000Y-51600000D03*
X32270000Y-51600000D03*
%TD*%
D12*
%TO.C,R16*%
X100900000Y-35610000D03*
X100900000Y-34590000D03*
%TD*%
D11*
%TO.C,C14*%
X27740000Y-89200000D03*
X28700000Y-89200000D03*
%TD*%
D13*
%TO.C,C4*%
X88585000Y-67300000D03*
X87625000Y-67300000D03*
%TD*%
D18*
%TO.C,C23*%
X51050000Y-29200000D03*
X51050000Y-28240000D03*
%TD*%
D27*
%TO.C,X2*%
X39975000Y-66925000D03*
X39975000Y-65475000D03*
X38825000Y-65475000D03*
X38825000Y-66925000D03*
%TD*%
D12*
%TO.C,R16*%
X100900000Y-18610000D03*
X100900000Y-17590000D03*
%TD*%
D17*
%TO.C,C6*%
X51000000Y-52420000D03*
X51000000Y-53380000D03*
%TD*%
D12*
%TO.C,R16*%
X100900000Y-86610000D03*
X100900000Y-85590000D03*
%TD*%
D13*
%TO.C,C13*%
X22080000Y-32300000D03*
X21120000Y-32300000D03*
%TD*%
D12*
%TO.C,R6*%
X40300000Y-53220000D03*
X40300000Y-52200000D03*
%TD*%
D34*
%TO.C,D1*%
X44312500Y-59800000D03*
X45887500Y-59800000D03*
%TD*%
%TO.C,D2*%
X94712500Y-76800000D03*
X96287500Y-76800000D03*
%TD*%
D32*
%TO.C,S1*%
X32500000Y-27825000D03*
X32500000Y-28225000D03*
D33*
X32700000Y-28900000D03*
X33100000Y-28900000D03*
X33500000Y-28900000D03*
D32*
X33700000Y-28225000D03*
X33700000Y-27825000D03*
D33*
X33500000Y-27150000D03*
X33100000Y-27150000D03*
X32700000Y-27150000D03*
%TD*%
D17*
%TO.C,C8*%
X53525000Y-45220000D03*
X53525000Y-46180000D03*
%TD*%
D13*
%TO.C,C2*%
X22080000Y-65300000D03*
X21120000Y-65300000D03*
%TD*%
D17*
%TO.C,C9*%
X114625000Y-33725000D03*
X114625000Y-34685000D03*
%TD*%
D25*
%TO.C,U2*%
X33100000Y-14975000D03*
D26*
X33850000Y-13550000D03*
X33350000Y-13550000D03*
X32850000Y-13550000D03*
X32350000Y-13550000D03*
X32350000Y-16400000D03*
X32850000Y-16400000D03*
X33350000Y-16400000D03*
X33850000Y-16400000D03*
%TD*%
D13*
%TO.C,C21*%
X22100000Y-12350000D03*
X21140000Y-12350000D03*
%TD*%
%TO.C,C17*%
X90560000Y-62900000D03*
X89600000Y-62900000D03*
%TD*%
D11*
%TO.C,C10*%
X110145000Y-35225000D03*
X111105000Y-35225000D03*
%TD*%
D35*
%TO.C,L2*%
X109060000Y-54400000D03*
X114140000Y-54400000D03*
%TD*%
D20*
%TO.C,PS1*%
X19900000Y-37087500D03*
X20850000Y-37087500D03*
X21800000Y-37087500D03*
X21800000Y-34812500D03*
X19900000Y-34812500D03*
%TD*%
D39*
%TO.C,X1*%
X33150000Y-35850000D03*
X31700000Y-35850000D03*
X31700000Y-37000000D03*
X33150000Y-37000000D03*
%TD*%
D12*
%TO.C,R6*%
X106800000Y-87220000D03*
X106800000Y-86200000D03*
%TD*%
D10*
%TO.C,R8*%
X43990000Y-61025000D03*
X45010000Y-61025000D03*
%TD*%
D19*
%TO.C,R9*%
X29510000Y-27000000D03*
X28490000Y-27000000D03*
%TD*%
D24*
%TO.C,X3*%
X48275000Y-11975000D03*
X49725000Y-11975000D03*
X49725000Y-10825000D03*
X48275000Y-10825000D03*
%TD*%
D12*
%TO.C,R11*%
X96900000Y-79960000D03*
X96900000Y-78940000D03*
%TD*%
D10*
%TO.C,R10*%
X94990000Y-11900000D03*
X96010000Y-11900000D03*
%TD*%
D15*
%TO.C,J1*%
X80000000Y-35525000D03*
D16*
X80500000Y-33075000D03*
X80500000Y-31025000D03*
D15*
X80000000Y-28575000D03*
%TD*%
D40*
%TO.C,IC1*%
X119075000Y-64375000D03*
X118575000Y-64375000D03*
X118075000Y-64375000D03*
X117575000Y-64375000D03*
X117075000Y-64375000D03*
X116575000Y-64375000D03*
D41*
X115875000Y-65075000D03*
X115875000Y-65575000D03*
X115875000Y-66075000D03*
X115875000Y-66575000D03*
X115875000Y-67075000D03*
X115875000Y-67575000D03*
D40*
X116575000Y-68275000D03*
X117075000Y-68275000D03*
X117575000Y-68275000D03*
X118075000Y-68275000D03*
X118575000Y-68275000D03*
X119075000Y-68275000D03*
D41*
X119775000Y-67575000D03*
X119775000Y-67075000D03*
X119775000Y-66575000D03*
X119775000Y-66075000D03*
X119775000Y-65575000D03*
X119775000Y-65075000D03*
D42*
X117825000Y-66325000D03*
%TD*%
D34*
%TO.C,D1*%
X110812500Y-8800000D03*
X112387500Y-8800000D03*
%TD*%
D10*
%TO.C,R8*%
X110490000Y-44025000D03*
X111510000Y-44025000D03*
%TD*%
D14*
%TO.C,SW1*%
X42800000Y-9700000D03*
X39400000Y-9700000D03*
%TD*%
D18*
%TO.C,C18*%
X97850000Y-11930000D03*
X97850000Y-10970000D03*
%TD*%
D14*
%TO.C,SW2*%
X89800000Y-26700000D03*
X93200000Y-26700000D03*
%TD*%
D18*
%TO.C,C23*%
X117550000Y-80200000D03*
X117550000Y-79240000D03*
%TD*%
D10*
%TO.C,R8*%
X43990000Y-44025000D03*
X45010000Y-44025000D03*
%TD*%
D13*
%TO.C,C2*%
X22080000Y-14300000D03*
X21120000Y-14300000D03*
%TD*%
D27*
%TO.C,X2*%
X106475000Y-66925000D03*
X106475000Y-65475000D03*
X105325000Y-65475000D03*
X105325000Y-66925000D03*
%TD*%
D10*
%TO.C,R5*%
X105715000Y-85225000D03*
X106735000Y-85225000D03*
%TD*%
D18*
%TO.C,C23*%
X51050000Y-46200000D03*
X51050000Y-45240000D03*
%TD*%
D36*
%TO.C,IC2*%
X108575000Y-51125000D03*
X109075000Y-51125000D03*
X109575000Y-51125000D03*
X110075000Y-51125000D03*
X110575000Y-51125000D03*
X111075000Y-51125000D03*
X111575000Y-51125000D03*
X112075000Y-51125000D03*
D37*
X112825000Y-50375000D03*
X112825000Y-49875000D03*
X112825000Y-49375000D03*
X112825000Y-48875000D03*
X112825000Y-48375000D03*
X112825000Y-47875000D03*
X112825000Y-47375000D03*
X112825000Y-46875000D03*
D36*
X112075000Y-46125000D03*
X111575000Y-46125000D03*
X111075000Y-46125000D03*
X110575000Y-46125000D03*
X110075000Y-46125000D03*
X109575000Y-46125000D03*
X109075000Y-46125000D03*
X108575000Y-46125000D03*
D37*
X107825000Y-46875000D03*
X107825000Y-47375000D03*
X107825000Y-47875000D03*
X107825000Y-48375000D03*
X107825000Y-48875000D03*
X107825000Y-49375000D03*
X107825000Y-49875000D03*
X107825000Y-50375000D03*
D38*
X110325000Y-48625000D03*
%TD*%
D29*
%TO.C,L1*%
X58500000Y-51540000D03*
X58500000Y-46460000D03*
%TD*%
D19*
%TO.C,R3*%
X40200000Y-30100000D03*
X39180000Y-30100000D03*
%TD*%
D14*
%TO.C,SW1*%
X42800000Y-43700000D03*
X39400000Y-43700000D03*
%TD*%
D10*
%TO.C,R5*%
X105715000Y-34225000D03*
X106735000Y-34225000D03*
%TD*%
D40*
%TO.C,IC1*%
X119075000Y-47375000D03*
X118575000Y-47375000D03*
X118075000Y-47375000D03*
X117575000Y-47375000D03*
X117075000Y-47375000D03*
X116575000Y-47375000D03*
D41*
X115875000Y-48075000D03*
X115875000Y-48575000D03*
X115875000Y-49075000D03*
X115875000Y-49575000D03*
X115875000Y-50075000D03*
X115875000Y-50575000D03*
D40*
X116575000Y-51275000D03*
X117075000Y-51275000D03*
X117575000Y-51275000D03*
X118075000Y-51275000D03*
X118575000Y-51275000D03*
X119075000Y-51275000D03*
D41*
X119775000Y-50575000D03*
X119775000Y-50075000D03*
X119775000Y-49575000D03*
X119775000Y-49075000D03*
X119775000Y-48575000D03*
X119775000Y-48075000D03*
D42*
X117825000Y-49325000D03*
%TD*%
D19*
%TO.C,R12*%
X96000000Y-27950000D03*
X94980000Y-27950000D03*
%TD*%
D17*
%TO.C,C22*%
X97850000Y-48170000D03*
X97850000Y-49130000D03*
%TD*%
D14*
%TO.C,SW2*%
X89800000Y-43700000D03*
X93200000Y-43700000D03*
%TD*%
D11*
%TO.C,C14*%
X94240000Y-72200000D03*
X95200000Y-72200000D03*
%TD*%
%TO.C,C11*%
X45945000Y-28025000D03*
X46905000Y-28025000D03*
%TD*%
D12*
%TO.C,R16*%
X34400000Y-18610000D03*
X34400000Y-17590000D03*
%TD*%
D32*
%TO.C,S1*%
X99000000Y-27825000D03*
X99000000Y-28225000D03*
D33*
X99200000Y-28900000D03*
X99600000Y-28900000D03*
X100000000Y-28900000D03*
D32*
X100200000Y-28225000D03*
X100200000Y-27825000D03*
D33*
X100000000Y-27150000D03*
X99600000Y-27150000D03*
X99200000Y-27150000D03*
%TD*%
D18*
%TO.C,C23*%
X117550000Y-46200000D03*
X117550000Y-45240000D03*
%TD*%
D32*
%TO.C,S1*%
X99000000Y-10825000D03*
X99000000Y-11225000D03*
D33*
X99200000Y-11900000D03*
X99600000Y-11900000D03*
X100000000Y-11900000D03*
D32*
X100200000Y-11225000D03*
X100200000Y-10825000D03*
D33*
X100000000Y-10150000D03*
X99600000Y-10150000D03*
X99200000Y-10150000D03*
%TD*%
D10*
%TO.C,R13*%
X87590000Y-62400000D03*
X88610000Y-62400000D03*
%TD*%
D40*
%TO.C,IC1*%
X52575000Y-81375000D03*
X52075000Y-81375000D03*
X51575000Y-81375000D03*
X51075000Y-81375000D03*
X50575000Y-81375000D03*
X50075000Y-81375000D03*
D41*
X49375000Y-82075000D03*
X49375000Y-82575000D03*
X49375000Y-83075000D03*
X49375000Y-83575000D03*
X49375000Y-84075000D03*
X49375000Y-84575000D03*
D40*
X50075000Y-85275000D03*
X50575000Y-85275000D03*
X51075000Y-85275000D03*
X51575000Y-85275000D03*
X52075000Y-85275000D03*
X52575000Y-85275000D03*
D41*
X53275000Y-84575000D03*
X53275000Y-84075000D03*
X53275000Y-83575000D03*
X53275000Y-83075000D03*
X53275000Y-82575000D03*
X53275000Y-82075000D03*
D42*
X51325000Y-83325000D03*
%TD*%
D19*
%TO.C,R3*%
X40200000Y-64100000D03*
X39180000Y-64100000D03*
%TD*%
%TO.C,R9*%
X29510000Y-78000000D03*
X28490000Y-78000000D03*
%TD*%
D13*
%TO.C,C16*%
X22080000Y-47300000D03*
X21120000Y-47300000D03*
%TD*%
D24*
%TO.C,X3*%
X114775000Y-11975000D03*
X116225000Y-11975000D03*
X116225000Y-10825000D03*
X114775000Y-10825000D03*
%TD*%
D34*
%TO.C,D1*%
X110812500Y-42800000D03*
X112387500Y-42800000D03*
%TD*%
D10*
%TO.C,R13*%
X87590000Y-28400000D03*
X88610000Y-28400000D03*
%TD*%
D24*
%TO.C,X3*%
X48275000Y-79975000D03*
X49725000Y-79975000D03*
X49725000Y-78825000D03*
X48275000Y-78825000D03*
%TD*%
D19*
%TO.C,R12*%
X96000000Y-78950000D03*
X94980000Y-78950000D03*
%TD*%
D30*
%TO.C,ANT1*%
X121800000Y-83100000D03*
D31*
X121800000Y-83713000D03*
D30*
X121800000Y-84326000D03*
%TD*%
D13*
%TO.C,C1*%
X24000000Y-38200000D03*
X23040000Y-38200000D03*
%TD*%
D17*
%TO.C,C12*%
X105800000Y-52200000D03*
X105800000Y-53160000D03*
%TD*%
D13*
%TO.C,C3*%
X27600000Y-11900000D03*
X26640000Y-11900000D03*
%TD*%
D14*
%TO.C,SW1*%
X109300000Y-26700000D03*
X105900000Y-26700000D03*
%TD*%
D19*
%TO.C,R3*%
X106700000Y-30100000D03*
X105680000Y-30100000D03*
%TD*%
D11*
%TO.C,C11*%
X45945000Y-11025000D03*
X46905000Y-11025000D03*
%TD*%
D20*
%TO.C,PS1*%
X86400000Y-20087500D03*
X87350000Y-20087500D03*
X88300000Y-20087500D03*
X88300000Y-17812500D03*
X86400000Y-17812500D03*
%TD*%
D10*
%TO.C,R1*%
X45515000Y-18225000D03*
X46535000Y-18225000D03*
%TD*%
D18*
%TO.C,C23*%
X117550000Y-29200000D03*
X117550000Y-28240000D03*
%TD*%
%TO.C,C19*%
X20200000Y-48580000D03*
X20200000Y-47620000D03*
%TD*%
D17*
%TO.C,C20*%
X20200000Y-66470000D03*
X20200000Y-67430000D03*
%TD*%
D19*
%TO.C,R7*%
X111535000Y-79025000D03*
X110515000Y-79025000D03*
%TD*%
D12*
%TO.C,R11*%
X96900000Y-11960000D03*
X96900000Y-10940000D03*
%TD*%
D13*
%TO.C,C2*%
X88580000Y-31300000D03*
X87620000Y-31300000D03*
%TD*%
D21*
%TO.C,U1*%
X92400000Y-85350000D03*
X94000000Y-85350000D03*
X92400000Y-83750000D03*
X94000000Y-83750000D03*
D22*
X90600000Y-87987500D03*
X91000000Y-87987500D03*
X91400000Y-87987500D03*
X91800000Y-87987500D03*
X92200000Y-87987500D03*
X92600000Y-87987500D03*
X93000000Y-87987500D03*
X93400000Y-87987500D03*
X93800000Y-87987500D03*
X94200000Y-87987500D03*
X94600000Y-87987500D03*
X95000000Y-87987500D03*
X95400000Y-87987500D03*
X95800000Y-87987500D03*
D23*
X96637500Y-87150000D03*
X96637500Y-86750000D03*
X96637500Y-86350000D03*
X96637500Y-85950000D03*
X96637500Y-85550000D03*
X96637500Y-85150000D03*
X96637500Y-84750000D03*
X96637500Y-84350000D03*
X96637500Y-83950000D03*
X96637500Y-83550000D03*
X96637500Y-83150000D03*
X96637500Y-82750000D03*
X96637500Y-82350000D03*
X96637500Y-81950000D03*
D22*
X95800000Y-81112500D03*
X95400000Y-81112500D03*
X95000000Y-81112500D03*
X94600000Y-81112500D03*
X94200000Y-81112500D03*
X93800000Y-81112500D03*
X93400000Y-81112500D03*
X93000000Y-81112500D03*
X92600000Y-81112500D03*
X92200000Y-81112500D03*
X91800000Y-81112500D03*
X91400000Y-81112500D03*
X91000000Y-81112500D03*
X90600000Y-81112500D03*
D23*
X89762500Y-81950000D03*
X89762500Y-82350000D03*
X89762500Y-82750000D03*
X89762500Y-83150000D03*
X89762500Y-83550000D03*
X89762500Y-83950000D03*
X89762500Y-84350000D03*
X89762500Y-84750000D03*
X89762500Y-85150000D03*
X89762500Y-85550000D03*
X89762500Y-85950000D03*
X89762500Y-86350000D03*
X89762500Y-86750000D03*
X89762500Y-87150000D03*
%TD*%
D11*
%TO.C,C14*%
X27740000Y-21200000D03*
X28700000Y-21200000D03*
%TD*%
D10*
%TO.C,R8*%
X43990000Y-27025000D03*
X45010000Y-27025000D03*
%TD*%
D11*
%TO.C,C10*%
X43645000Y-18225000D03*
X44605000Y-18225000D03*
%TD*%
D17*
%TO.C,C7*%
X52425000Y-28220000D03*
X52425000Y-29180000D03*
%TD*%
D19*
%TO.C,R12*%
X29500000Y-27950000D03*
X28480000Y-27950000D03*
%TD*%
D12*
%TO.C,R11*%
X30400000Y-62960000D03*
X30400000Y-61940000D03*
%TD*%
D35*
%TO.C,L2*%
X109060000Y-20400000D03*
X114140000Y-20400000D03*
%TD*%
D17*
%TO.C,C22*%
X97850000Y-65170000D03*
X97850000Y-66130000D03*
%TD*%
D40*
%TO.C,IC1*%
X52575000Y-30375000D03*
X52075000Y-30375000D03*
X51575000Y-30375000D03*
X51075000Y-30375000D03*
X50575000Y-30375000D03*
X50075000Y-30375000D03*
D41*
X49375000Y-31075000D03*
X49375000Y-31575000D03*
X49375000Y-32075000D03*
X49375000Y-32575000D03*
X49375000Y-33075000D03*
X49375000Y-33575000D03*
D40*
X50075000Y-34275000D03*
X50575000Y-34275000D03*
X51075000Y-34275000D03*
X51575000Y-34275000D03*
X52075000Y-34275000D03*
X52575000Y-34275000D03*
D41*
X53275000Y-33575000D03*
X53275000Y-33075000D03*
X53275000Y-32575000D03*
X53275000Y-32075000D03*
X53275000Y-31575000D03*
X53275000Y-31075000D03*
D42*
X51325000Y-32325000D03*
%TD*%
D10*
%TO.C,R10*%
X28490000Y-28900000D03*
X29510000Y-28900000D03*
%TD*%
D18*
%TO.C,C23*%
X117550000Y-63200000D03*
X117550000Y-62240000D03*
%TD*%
D27*
%TO.C,X2*%
X39975000Y-49925000D03*
X39975000Y-48475000D03*
X38825000Y-48475000D03*
X38825000Y-49925000D03*
%TD*%
D13*
%TO.C,C13*%
X88580000Y-66300000D03*
X87620000Y-66300000D03*
%TD*%
%TO.C,C2*%
X22080000Y-31300000D03*
X21120000Y-31300000D03*
%TD*%
D34*
%TO.C,D1*%
X110812500Y-76800000D03*
X112387500Y-76800000D03*
%TD*%
D19*
%TO.C,R9*%
X29510000Y-44000000D03*
X28490000Y-44000000D03*
%TD*%
D39*
%TO.C,X1*%
X33150000Y-69850000D03*
X31700000Y-69850000D03*
X31700000Y-71000000D03*
X33150000Y-71000000D03*
%TD*%
D21*
%TO.C,U1*%
X92400000Y-34350000D03*
X94000000Y-34350000D03*
X92400000Y-32750000D03*
X94000000Y-32750000D03*
D22*
X90600000Y-36987500D03*
X91000000Y-36987500D03*
X91400000Y-36987500D03*
X91800000Y-36987500D03*
X92200000Y-36987500D03*
X92600000Y-36987500D03*
X93000000Y-36987500D03*
X93400000Y-36987500D03*
X93800000Y-36987500D03*
X94200000Y-36987500D03*
X94600000Y-36987500D03*
X95000000Y-36987500D03*
X95400000Y-36987500D03*
X95800000Y-36987500D03*
D23*
X96637500Y-36150000D03*
X96637500Y-35750000D03*
X96637500Y-35350000D03*
X96637500Y-34950000D03*
X96637500Y-34550000D03*
X96637500Y-34150000D03*
X96637500Y-33750000D03*
X96637500Y-33350000D03*
X96637500Y-32950000D03*
X96637500Y-32550000D03*
X96637500Y-32150000D03*
X96637500Y-31750000D03*
X96637500Y-31350000D03*
X96637500Y-30950000D03*
D22*
X95800000Y-30112500D03*
X95400000Y-30112500D03*
X95000000Y-30112500D03*
X94600000Y-30112500D03*
X94200000Y-30112500D03*
X93800000Y-30112500D03*
X93400000Y-30112500D03*
X93000000Y-30112500D03*
X92600000Y-30112500D03*
X92200000Y-30112500D03*
X91800000Y-30112500D03*
X91400000Y-30112500D03*
X91000000Y-30112500D03*
X90600000Y-30112500D03*
D23*
X89762500Y-30950000D03*
X89762500Y-31350000D03*
X89762500Y-31750000D03*
X89762500Y-32150000D03*
X89762500Y-32550000D03*
X89762500Y-32950000D03*
X89762500Y-33350000D03*
X89762500Y-33750000D03*
X89762500Y-34150000D03*
X89762500Y-34550000D03*
X89762500Y-34950000D03*
X89762500Y-35350000D03*
X89762500Y-35750000D03*
X89762500Y-36150000D03*
%TD*%
D10*
%TO.C,R14*%
X21140000Y-10400000D03*
X22160000Y-10400000D03*
%TD*%
D13*
%TO.C,C21*%
X88600000Y-12350000D03*
X87640000Y-12350000D03*
%TD*%
%TO.C,C17*%
X90560000Y-11900000D03*
X89600000Y-11900000D03*
%TD*%
D25*
%TO.C,U2*%
X99600000Y-14975000D03*
D26*
X100350000Y-13550000D03*
X99850000Y-13550000D03*
X99350000Y-13550000D03*
X98850000Y-13550000D03*
X98850000Y-16400000D03*
X99350000Y-16400000D03*
X99850000Y-16400000D03*
X100350000Y-16400000D03*
%TD*%
D12*
%TO.C,R11*%
X96900000Y-28960000D03*
X96900000Y-27940000D03*
%TD*%
D27*
%TO.C,X2*%
X39975000Y-32925000D03*
X39975000Y-31475000D03*
X38825000Y-31475000D03*
X38825000Y-32925000D03*
%TD*%
D13*
%TO.C,C5*%
X99730000Y-17600000D03*
X98770000Y-17600000D03*
%TD*%
D19*
%TO.C,R3*%
X40200000Y-81100000D03*
X39180000Y-81100000D03*
%TD*%
D13*
%TO.C,C21*%
X88600000Y-46350000D03*
X87640000Y-46350000D03*
%TD*%
D17*
%TO.C,C12*%
X39300000Y-18200000D03*
X39300000Y-19160000D03*
%TD*%
D18*
%TO.C,C18*%
X31350000Y-45930000D03*
X31350000Y-44970000D03*
%TD*%
D27*
%TO.C,X2*%
X106475000Y-83925000D03*
X106475000Y-82475000D03*
X105325000Y-82475000D03*
X105325000Y-83925000D03*
%TD*%
D13*
%TO.C,C16*%
X88580000Y-30300000D03*
X87620000Y-30300000D03*
%TD*%
D17*
%TO.C,C12*%
X105800000Y-86200000D03*
X105800000Y-87160000D03*
%TD*%
D19*
%TO.C,R12*%
X96000000Y-44950000D03*
X94980000Y-44950000D03*
%TD*%
D14*
%TO.C,SW1*%
X109300000Y-77700000D03*
X105900000Y-77700000D03*
%TD*%
%TO.C,SW2*%
X89800000Y-77700000D03*
X93200000Y-77700000D03*
%TD*%
D11*
%TO.C,C10*%
X43645000Y-35225000D03*
X44605000Y-35225000D03*
%TD*%
D19*
%TO.C,R3*%
X40200000Y-13100000D03*
X39180000Y-13100000D03*
%TD*%
D34*
%TO.C,D2*%
X94712500Y-42800000D03*
X96287500Y-42800000D03*
%TD*%
D17*
%TO.C,C8*%
X120025000Y-28220000D03*
X120025000Y-29180000D03*
%TD*%
D14*
%TO.C,SW1*%
X109300000Y-43700000D03*
X105900000Y-43700000D03*
%TD*%
D30*
%TO.C,ANT1*%
X121800000Y-66100000D03*
D31*
X121800000Y-66713000D03*
D30*
X121800000Y-67326000D03*
%TD*%
D12*
%TO.C,R16*%
X34400000Y-52610000D03*
X34400000Y-51590000D03*
%TD*%
D18*
%TO.C,C19*%
X20200000Y-82580000D03*
X20200000Y-81620000D03*
%TD*%
D11*
%TO.C,C11*%
X112445000Y-28025000D03*
X113405000Y-28025000D03*
%TD*%
D12*
%TO.C,R11*%
X30400000Y-79960000D03*
X30400000Y-78940000D03*
%TD*%
D17*
%TO.C,C22*%
X31350000Y-82170000D03*
X31350000Y-83130000D03*
%TD*%
D34*
%TO.C,D2*%
X28212500Y-42800000D03*
X29787500Y-42800000D03*
%TD*%
D10*
%TO.C,R14*%
X21140000Y-27400000D03*
X22160000Y-27400000D03*
%TD*%
%TO.C,R10*%
X94990000Y-45900000D03*
X96010000Y-45900000D03*
%TD*%
D17*
%TO.C,C12*%
X39300000Y-86200000D03*
X39300000Y-87160000D03*
%TD*%
D13*
%TO.C,C4*%
X88585000Y-50300000D03*
X87625000Y-50300000D03*
%TD*%
D21*
%TO.C,U1*%
X25900000Y-51350000D03*
X27500000Y-51350000D03*
X25900000Y-49750000D03*
X27500000Y-49750000D03*
D22*
X24100000Y-53987500D03*
X24500000Y-53987500D03*
X24900000Y-53987500D03*
X25300000Y-53987500D03*
X25700000Y-53987500D03*
X26100000Y-53987500D03*
X26500000Y-53987500D03*
X26900000Y-53987500D03*
X27300000Y-53987500D03*
X27700000Y-53987500D03*
X28100000Y-53987500D03*
X28500000Y-53987500D03*
X28900000Y-53987500D03*
X29300000Y-53987500D03*
D23*
X30137500Y-53150000D03*
X30137500Y-52750000D03*
X30137500Y-52350000D03*
X30137500Y-51950000D03*
X30137500Y-51550000D03*
X30137500Y-51150000D03*
X30137500Y-50750000D03*
X30137500Y-50350000D03*
X30137500Y-49950000D03*
X30137500Y-49550000D03*
X30137500Y-49150000D03*
X30137500Y-48750000D03*
X30137500Y-48350000D03*
X30137500Y-47950000D03*
D22*
X29300000Y-47112500D03*
X28900000Y-47112500D03*
X28500000Y-47112500D03*
X28100000Y-47112500D03*
X27700000Y-47112500D03*
X27300000Y-47112500D03*
X26900000Y-47112500D03*
X26500000Y-47112500D03*
X26100000Y-47112500D03*
X25700000Y-47112500D03*
X25300000Y-47112500D03*
X24900000Y-47112500D03*
X24500000Y-47112500D03*
X24100000Y-47112500D03*
D23*
X23262500Y-47950000D03*
X23262500Y-48350000D03*
X23262500Y-48750000D03*
X23262500Y-49150000D03*
X23262500Y-49550000D03*
X23262500Y-49950000D03*
X23262500Y-50350000D03*
X23262500Y-50750000D03*
X23262500Y-51150000D03*
X23262500Y-51550000D03*
X23262500Y-51950000D03*
X23262500Y-52350000D03*
X23262500Y-52750000D03*
X23262500Y-53150000D03*
%TD*%
D12*
%TO.C,R11*%
X30400000Y-45960000D03*
X30400000Y-44940000D03*
%TD*%
D19*
%TO.C,R15*%
X106760000Y-80150000D03*
X105740000Y-80150000D03*
%TD*%
%TO.C,R9*%
X96010000Y-27000000D03*
X94990000Y-27000000D03*
%TD*%
D29*
%TO.C,L1*%
X58500000Y-85540000D03*
X58500000Y-80460000D03*
%TD*%
D14*
%TO.C,SW1*%
X109300000Y-9700000D03*
X105900000Y-9700000D03*
%TD*%
D35*
%TO.C,L2*%
X42560000Y-54400000D03*
X47640000Y-54400000D03*
%TD*%
D17*
%TO.C,C12*%
X105800000Y-35200000D03*
X105800000Y-36160000D03*
%TD*%
D13*
%TO.C,C16*%
X88580000Y-81300000D03*
X87620000Y-81300000D03*
%TD*%
D20*
%TO.C,PS1*%
X19900000Y-54087500D03*
X20850000Y-54087500D03*
X21800000Y-54087500D03*
X21800000Y-51812500D03*
X19900000Y-51812500D03*
%TD*%
D17*
%TO.C,C7*%
X118925000Y-11220000D03*
X118925000Y-12180000D03*
%TD*%
%TO.C,C8*%
X120025000Y-11220000D03*
X120025000Y-12180000D03*
%TD*%
D10*
%TO.C,R10*%
X94990000Y-79900000D03*
X96010000Y-79900000D03*
%TD*%
D40*
%TO.C,IC1*%
X119075000Y-81375000D03*
X118575000Y-81375000D03*
X118075000Y-81375000D03*
X117575000Y-81375000D03*
X117075000Y-81375000D03*
X116575000Y-81375000D03*
D41*
X115875000Y-82075000D03*
X115875000Y-82575000D03*
X115875000Y-83075000D03*
X115875000Y-83575000D03*
X115875000Y-84075000D03*
X115875000Y-84575000D03*
D40*
X116575000Y-85275000D03*
X117075000Y-85275000D03*
X117575000Y-85275000D03*
X118075000Y-85275000D03*
X118575000Y-85275000D03*
X119075000Y-85275000D03*
D41*
X119775000Y-84575000D03*
X119775000Y-84075000D03*
X119775000Y-83575000D03*
X119775000Y-83075000D03*
X119775000Y-82575000D03*
X119775000Y-82075000D03*
D42*
X117825000Y-83325000D03*
%TD*%
D14*
%TO.C,SW2*%
X89800000Y-60700000D03*
X93200000Y-60700000D03*
%TD*%
D17*
%TO.C,C22*%
X97850000Y-82170000D03*
X97850000Y-83130000D03*
%TD*%
%TO.C,C20*%
X20200000Y-83470000D03*
X20200000Y-84430000D03*
%TD*%
D13*
%TO.C,C5*%
X99730000Y-85600000D03*
X98770000Y-85600000D03*
%TD*%
D28*
%TO.C,R2*%
X52800000Y-86390000D03*
X52800000Y-87410000D03*
%TD*%
D10*
%TO.C,R1*%
X45515000Y-35225000D03*
X46535000Y-35225000D03*
%TD*%
D39*
%TO.C,X1*%
X99650000Y-69850000D03*
X98200000Y-69850000D03*
X98200000Y-71000000D03*
X99650000Y-71000000D03*
%TD*%
D18*
%TO.C,C19*%
X86700000Y-48580000D03*
X86700000Y-47620000D03*
%TD*%
D19*
%TO.C,R7*%
X111535000Y-28025000D03*
X110515000Y-28025000D03*
%TD*%
D17*
%TO.C,C9*%
X48125000Y-84725000D03*
X48125000Y-85685000D03*
%TD*%
D29*
%TO.C,L1*%
X58500000Y-34540000D03*
X58500000Y-29460000D03*
%TD*%
D12*
%TO.C,R6*%
X40300000Y-70220000D03*
X40300000Y-69200000D03*
%TD*%
D17*
%TO.C,C6*%
X51000000Y-18420000D03*
X51000000Y-19380000D03*
%TD*%
D30*
%TO.C,ANT1*%
X121800000Y-15100000D03*
D31*
X121800000Y-15713000D03*
D30*
X121800000Y-16326000D03*
%TD*%
D28*
%TO.C,R2*%
X52800000Y-69390000D03*
X52800000Y-70410000D03*
%TD*%
D34*
%TO.C,D2*%
X28212500Y-25800000D03*
X29787500Y-25800000D03*
%TD*%
D19*
%TO.C,R9*%
X96010000Y-61000000D03*
X94990000Y-61000000D03*
%TD*%
D11*
%TO.C,C10*%
X110145000Y-18225000D03*
X111105000Y-18225000D03*
%TD*%
D18*
%TO.C,C19*%
X20200000Y-65580000D03*
X20200000Y-64620000D03*
%TD*%
D19*
%TO.C,R7*%
X111535000Y-62025000D03*
X110515000Y-62025000D03*
%TD*%
D36*
%TO.C,IC2*%
X42075000Y-34125000D03*
X42575000Y-34125000D03*
X43075000Y-34125000D03*
X43575000Y-34125000D03*
X44075000Y-34125000D03*
X44575000Y-34125000D03*
X45075000Y-34125000D03*
X45575000Y-34125000D03*
D37*
X46325000Y-33375000D03*
X46325000Y-32875000D03*
X46325000Y-32375000D03*
X46325000Y-31875000D03*
X46325000Y-31375000D03*
X46325000Y-30875000D03*
X46325000Y-30375000D03*
X46325000Y-29875000D03*
D36*
X45575000Y-29125000D03*
X45075000Y-29125000D03*
X44575000Y-29125000D03*
X44075000Y-29125000D03*
X43575000Y-29125000D03*
X43075000Y-29125000D03*
X42575000Y-29125000D03*
X42075000Y-29125000D03*
D37*
X41325000Y-29875000D03*
X41325000Y-30375000D03*
X41325000Y-30875000D03*
X41325000Y-31375000D03*
X41325000Y-31875000D03*
X41325000Y-32375000D03*
X41325000Y-32875000D03*
X41325000Y-33375000D03*
D38*
X43825000Y-31625000D03*
%TD*%
D18*
%TO.C,C19*%
X86700000Y-65580000D03*
X86700000Y-64620000D03*
%TD*%
D30*
%TO.C,ANT1*%
X55300000Y-83100000D03*
D31*
X55300000Y-83713000D03*
D30*
X55300000Y-84326000D03*
%TD*%
D40*
%TO.C,IC1*%
X52575000Y-13375000D03*
X52075000Y-13375000D03*
X51575000Y-13375000D03*
X51075000Y-13375000D03*
X50575000Y-13375000D03*
X50075000Y-13375000D03*
D41*
X49375000Y-14075000D03*
X49375000Y-14575000D03*
X49375000Y-15075000D03*
X49375000Y-15575000D03*
X49375000Y-16075000D03*
X49375000Y-16575000D03*
D40*
X50075000Y-17275000D03*
X50575000Y-17275000D03*
X51075000Y-17275000D03*
X51575000Y-17275000D03*
X52075000Y-17275000D03*
X52575000Y-17275000D03*
D41*
X53275000Y-16575000D03*
X53275000Y-16075000D03*
X53275000Y-15575000D03*
X53275000Y-15075000D03*
X53275000Y-14575000D03*
X53275000Y-14075000D03*
D42*
X51325000Y-15325000D03*
%TD*%
D17*
%TO.C,C9*%
X114625000Y-84725000D03*
X114625000Y-85685000D03*
%TD*%
D28*
%TO.C,R2*%
X119300000Y-18390000D03*
X119300000Y-19410000D03*
%TD*%
D11*
%TO.C,C14*%
X27740000Y-55200000D03*
X28700000Y-55200000D03*
%TD*%
D19*
%TO.C,R7*%
X111535000Y-45025000D03*
X110515000Y-45025000D03*
%TD*%
D10*
%TO.C,R8*%
X43990000Y-78025000D03*
X45010000Y-78025000D03*
%TD*%
D13*
%TO.C,C4*%
X88585000Y-84300000D03*
X87625000Y-84300000D03*
%TD*%
D12*
%TO.C,R4*%
X100900000Y-20510000D03*
X100900000Y-19490000D03*
%TD*%
D18*
%TO.C,C18*%
X97850000Y-79930000D03*
X97850000Y-78970000D03*
%TD*%
D40*
%TO.C,IC1*%
X52575000Y-64375000D03*
X52075000Y-64375000D03*
X51575000Y-64375000D03*
X51075000Y-64375000D03*
X50575000Y-64375000D03*
X50075000Y-64375000D03*
D41*
X49375000Y-65075000D03*
X49375000Y-65575000D03*
X49375000Y-66075000D03*
X49375000Y-66575000D03*
X49375000Y-67075000D03*
X49375000Y-67575000D03*
D40*
X50075000Y-68275000D03*
X50575000Y-68275000D03*
X51075000Y-68275000D03*
X51575000Y-68275000D03*
X52075000Y-68275000D03*
X52575000Y-68275000D03*
D41*
X53275000Y-67575000D03*
X53275000Y-67075000D03*
X53275000Y-66575000D03*
X53275000Y-66075000D03*
X53275000Y-65575000D03*
X53275000Y-65075000D03*
D42*
X51325000Y-66325000D03*
%TD*%
D36*
%TO.C,IC2*%
X108575000Y-85125000D03*
X109075000Y-85125000D03*
X109575000Y-85125000D03*
X110075000Y-85125000D03*
X110575000Y-85125000D03*
X111075000Y-85125000D03*
X111575000Y-85125000D03*
X112075000Y-85125000D03*
D37*
X112825000Y-84375000D03*
X112825000Y-83875000D03*
X112825000Y-83375000D03*
X112825000Y-82875000D03*
X112825000Y-82375000D03*
X112825000Y-81875000D03*
X112825000Y-81375000D03*
X112825000Y-80875000D03*
D36*
X112075000Y-80125000D03*
X111575000Y-80125000D03*
X111075000Y-80125000D03*
X110575000Y-80125000D03*
X110075000Y-80125000D03*
X109575000Y-80125000D03*
X109075000Y-80125000D03*
X108575000Y-80125000D03*
D37*
X107825000Y-80875000D03*
X107825000Y-81375000D03*
X107825000Y-81875000D03*
X107825000Y-82375000D03*
X107825000Y-82875000D03*
X107825000Y-83375000D03*
X107825000Y-83875000D03*
X107825000Y-84375000D03*
D38*
X110325000Y-82625000D03*
%TD*%
D17*
%TO.C,C7*%
X118925000Y-45220000D03*
X118925000Y-46180000D03*
%TD*%
D20*
%TO.C,PS1*%
X86400000Y-88087500D03*
X87350000Y-88087500D03*
X88300000Y-88087500D03*
X88300000Y-85812500D03*
X86400000Y-85812500D03*
%TD*%
D17*
%TO.C,C7*%
X52425000Y-62220000D03*
X52425000Y-63180000D03*
%TD*%
D10*
%TO.C,R1*%
X45515000Y-69225000D03*
X46535000Y-69225000D03*
%TD*%
D34*
%TO.C,D1*%
X110812500Y-59800000D03*
X112387500Y-59800000D03*
%TD*%
D15*
%TO.C,J1*%
X80000000Y-18525000D03*
D16*
X80500000Y-16075000D03*
X80500000Y-14025000D03*
D15*
X80000000Y-11575000D03*
%TD*%
D13*
%TO.C,C3*%
X27600000Y-28900000D03*
X26640000Y-28900000D03*
%TD*%
D34*
%TO.C,D1*%
X110812500Y-25800000D03*
X112387500Y-25800000D03*
%TD*%
D13*
%TO.C,C17*%
X24060000Y-11900000D03*
X23100000Y-11900000D03*
%TD*%
%TO.C,C5*%
X99730000Y-51600000D03*
X98770000Y-51600000D03*
%TD*%
D19*
%TO.C,R3*%
X40200000Y-47100000D03*
X39180000Y-47100000D03*
%TD*%
D13*
%TO.C,C2*%
X22080000Y-82300000D03*
X21120000Y-82300000D03*
%TD*%
D28*
%TO.C,R2*%
X119300000Y-52390000D03*
X119300000Y-53410000D03*
%TD*%
D30*
%TO.C,ANT1*%
X121800000Y-49100000D03*
D31*
X121800000Y-49713000D03*
D30*
X121800000Y-50326000D03*
%TD*%
D17*
%TO.C,C20*%
X86700000Y-83470000D03*
X86700000Y-84430000D03*
%TD*%
D11*
%TO.C,C14*%
X27740000Y-72200000D03*
X28700000Y-72200000D03*
%TD*%
D10*
%TO.C,R14*%
X21140000Y-61400000D03*
X22160000Y-61400000D03*
%TD*%
%TO.C,R1*%
X112015000Y-52225000D03*
X113035000Y-52225000D03*
%TD*%
D29*
%TO.C,L1*%
X125000000Y-51540000D03*
X125000000Y-46460000D03*
%TD*%
D13*
%TO.C,C4*%
X22085000Y-16300000D03*
X21125000Y-16300000D03*
%TD*%
D18*
%TO.C,C18*%
X97850000Y-45930000D03*
X97850000Y-44970000D03*
%TD*%
D10*
%TO.C,R5*%
X39215000Y-34225000D03*
X40235000Y-34225000D03*
%TD*%
D17*
%TO.C,C8*%
X120025000Y-62220000D03*
X120025000Y-63180000D03*
%TD*%
D13*
%TO.C,C4*%
X88585000Y-16300000D03*
X87625000Y-16300000D03*
%TD*%
D34*
%TO.C,D1*%
X44312500Y-76800000D03*
X45887500Y-76800000D03*
%TD*%
D19*
%TO.C,R12*%
X29500000Y-78950000D03*
X28480000Y-78950000D03*
%TD*%
D13*
%TO.C,C21*%
X22100000Y-29350000D03*
X21140000Y-29350000D03*
%TD*%
D12*
%TO.C,R16*%
X34400000Y-86610000D03*
X34400000Y-85590000D03*
%TD*%
D10*
%TO.C,R5*%
X39215000Y-51225000D03*
X40235000Y-51225000D03*
%TD*%
D25*
%TO.C,U2*%
X99600000Y-82975000D03*
D26*
X100350000Y-81550000D03*
X99850000Y-81550000D03*
X99350000Y-81550000D03*
X98850000Y-81550000D03*
X98850000Y-84400000D03*
X99350000Y-84400000D03*
X99850000Y-84400000D03*
X100350000Y-84400000D03*
%TD*%
D17*
%TO.C,C9*%
X114625000Y-50725000D03*
X114625000Y-51685000D03*
%TD*%
D39*
%TO.C,X1*%
X33150000Y-86850000D03*
X31700000Y-86850000D03*
X31700000Y-88000000D03*
X33150000Y-88000000D03*
%TD*%
D13*
%TO.C,C21*%
X88600000Y-63350000D03*
X87640000Y-63350000D03*
%TD*%
D35*
%TO.C,L2*%
X42560000Y-37400000D03*
X47640000Y-37400000D03*
%TD*%
D17*
%TO.C,C6*%
X117500000Y-86420000D03*
X117500000Y-87380000D03*
%TD*%
%TO.C,C9*%
X48125000Y-16725000D03*
X48125000Y-17685000D03*
%TD*%
D10*
%TO.C,R8*%
X110490000Y-27025000D03*
X111510000Y-27025000D03*
%TD*%
D25*
%TO.C,U2*%
X99600000Y-65975000D03*
D26*
X100350000Y-64550000D03*
X99850000Y-64550000D03*
X99350000Y-64550000D03*
X98850000Y-64550000D03*
X98850000Y-67400000D03*
X99350000Y-67400000D03*
X99850000Y-67400000D03*
X100350000Y-67400000D03*
%TD*%
D17*
%TO.C,C15*%
X97850000Y-84070000D03*
X97850000Y-85030000D03*
%TD*%
D10*
%TO.C,R13*%
X87590000Y-79400000D03*
X88610000Y-79400000D03*
%TD*%
D15*
%TO.C,J1*%
X80000000Y-52525000D03*
D16*
X80500000Y-50075000D03*
X80500000Y-48025000D03*
D15*
X80000000Y-45575000D03*
%TD*%
D13*
%TO.C,C5*%
X99730000Y-34600000D03*
X98770000Y-34600000D03*
%TD*%
D12*
%TO.C,R11*%
X30400000Y-11960000D03*
X30400000Y-10940000D03*
%TD*%
D35*
%TO.C,L2*%
X109060000Y-37400000D03*
X114140000Y-37400000D03*
%TD*%
D14*
%TO.C,SW2*%
X89800000Y-9700000D03*
X93200000Y-9700000D03*
%TD*%
D19*
%TO.C,R12*%
X96000000Y-61950000D03*
X94980000Y-61950000D03*
%TD*%
D40*
%TO.C,IC1*%
X119075000Y-30375000D03*
X118575000Y-30375000D03*
X118075000Y-30375000D03*
X117575000Y-30375000D03*
X117075000Y-30375000D03*
X116575000Y-30375000D03*
D41*
X115875000Y-31075000D03*
X115875000Y-31575000D03*
X115875000Y-32075000D03*
X115875000Y-32575000D03*
X115875000Y-33075000D03*
X115875000Y-33575000D03*
D40*
X116575000Y-34275000D03*
X117075000Y-34275000D03*
X117575000Y-34275000D03*
X118075000Y-34275000D03*
X118575000Y-34275000D03*
X119075000Y-34275000D03*
D41*
X119775000Y-33575000D03*
X119775000Y-33075000D03*
X119775000Y-32575000D03*
X119775000Y-32075000D03*
X119775000Y-31575000D03*
X119775000Y-31075000D03*
D42*
X117825000Y-32325000D03*
%TD*%
D13*
%TO.C,C21*%
X22100000Y-80350000D03*
X21140000Y-80350000D03*
%TD*%
%TO.C,C13*%
X88580000Y-83300000D03*
X87620000Y-83300000D03*
%TD*%
D19*
%TO.C,R9*%
X96010000Y-78000000D03*
X94990000Y-78000000D03*
%TD*%
D13*
%TO.C,C17*%
X90560000Y-79900000D03*
X89600000Y-79900000D03*
%TD*%
%TO.C,C17*%
X24060000Y-62900000D03*
X23100000Y-62900000D03*
%TD*%
%TO.C,C4*%
X22085000Y-67300000D03*
X21125000Y-67300000D03*
%TD*%
D32*
%TO.C,S1*%
X32500000Y-44825000D03*
X32500000Y-45225000D03*
D33*
X32700000Y-45900000D03*
X33100000Y-45900000D03*
X33500000Y-45900000D03*
D32*
X33700000Y-45225000D03*
X33700000Y-44825000D03*
D33*
X33500000Y-44150000D03*
X33100000Y-44150000D03*
X32700000Y-44150000D03*
%TD*%
D28*
%TO.C,R2*%
X52800000Y-18390000D03*
X52800000Y-19410000D03*
%TD*%
D13*
%TO.C,C17*%
X24060000Y-45900000D03*
X23100000Y-45900000D03*
%TD*%
%TO.C,C13*%
X22080000Y-15300000D03*
X21120000Y-15300000D03*
%TD*%
D17*
%TO.C,C6*%
X117500000Y-18420000D03*
X117500000Y-19380000D03*
%TD*%
D21*
%TO.C,U1*%
X25900000Y-17350000D03*
X27500000Y-17350000D03*
X25900000Y-15750000D03*
X27500000Y-15750000D03*
D22*
X24100000Y-19987500D03*
X24500000Y-19987500D03*
X24900000Y-19987500D03*
X25300000Y-19987500D03*
X25700000Y-19987500D03*
X26100000Y-19987500D03*
X26500000Y-19987500D03*
X26900000Y-19987500D03*
X27300000Y-19987500D03*
X27700000Y-19987500D03*
X28100000Y-19987500D03*
X28500000Y-19987500D03*
X28900000Y-19987500D03*
X29300000Y-19987500D03*
D23*
X30137500Y-19150000D03*
X30137500Y-18750000D03*
X30137500Y-18350000D03*
X30137500Y-17950000D03*
X30137500Y-17550000D03*
X30137500Y-17150000D03*
X30137500Y-16750000D03*
X30137500Y-16350000D03*
X30137500Y-15950000D03*
X30137500Y-15550000D03*
X30137500Y-15150000D03*
X30137500Y-14750000D03*
X30137500Y-14350000D03*
X30137500Y-13950000D03*
D22*
X29300000Y-13112500D03*
X28900000Y-13112500D03*
X28500000Y-13112500D03*
X28100000Y-13112500D03*
X27700000Y-13112500D03*
X27300000Y-13112500D03*
X26900000Y-13112500D03*
X26500000Y-13112500D03*
X26100000Y-13112500D03*
X25700000Y-13112500D03*
X25300000Y-13112500D03*
X24900000Y-13112500D03*
X24500000Y-13112500D03*
X24100000Y-13112500D03*
D23*
X23262500Y-13950000D03*
X23262500Y-14350000D03*
X23262500Y-14750000D03*
X23262500Y-15150000D03*
X23262500Y-15550000D03*
X23262500Y-15950000D03*
X23262500Y-16350000D03*
X23262500Y-16750000D03*
X23262500Y-17150000D03*
X23262500Y-17550000D03*
X23262500Y-17950000D03*
X23262500Y-18350000D03*
X23262500Y-18750000D03*
X23262500Y-19150000D03*
%TD*%
D17*
%TO.C,C22*%
X97850000Y-31170000D03*
X97850000Y-32130000D03*
%TD*%
D18*
%TO.C,C18*%
X97850000Y-28930000D03*
X97850000Y-27970000D03*
%TD*%
D40*
%TO.C,IC1*%
X119075000Y-13375000D03*
X118575000Y-13375000D03*
X118075000Y-13375000D03*
X117575000Y-13375000D03*
X117075000Y-13375000D03*
X116575000Y-13375000D03*
D41*
X115875000Y-14075000D03*
X115875000Y-14575000D03*
X115875000Y-15075000D03*
X115875000Y-15575000D03*
X115875000Y-16075000D03*
X115875000Y-16575000D03*
D40*
X116575000Y-17275000D03*
X117075000Y-17275000D03*
X117575000Y-17275000D03*
X118075000Y-17275000D03*
X118575000Y-17275000D03*
X119075000Y-17275000D03*
D41*
X119775000Y-16575000D03*
X119775000Y-16075000D03*
X119775000Y-15575000D03*
X119775000Y-15075000D03*
X119775000Y-14575000D03*
X119775000Y-14075000D03*
D42*
X117825000Y-15325000D03*
%TD*%
D12*
%TO.C,R4*%
X34400000Y-71510000D03*
X34400000Y-70490000D03*
%TD*%
D13*
%TO.C,C1*%
X90500000Y-21200000D03*
X89540000Y-21200000D03*
%TD*%
%TO.C,C2*%
X88580000Y-65300000D03*
X87620000Y-65300000D03*
%TD*%
D18*
%TO.C,C23*%
X51050000Y-12200000D03*
X51050000Y-11240000D03*
%TD*%
D12*
%TO.C,R6*%
X40300000Y-87220000D03*
X40300000Y-86200000D03*
%TD*%
D39*
%TO.C,X1*%
X33150000Y-52850000D03*
X31700000Y-52850000D03*
X31700000Y-54000000D03*
X33150000Y-54000000D03*
%TD*%
D10*
%TO.C,R13*%
X87590000Y-11400000D03*
X88610000Y-11400000D03*
%TD*%
D13*
%TO.C,C2*%
X22080000Y-48300000D03*
X21120000Y-48300000D03*
%TD*%
D12*
%TO.C,R16*%
X34400000Y-69610000D03*
X34400000Y-68590000D03*
%TD*%
D18*
%TO.C,C23*%
X51050000Y-80200000D03*
X51050000Y-79240000D03*
%TD*%
D13*
%TO.C,C5*%
X99730000Y-68600000D03*
X98770000Y-68600000D03*
%TD*%
%TO.C,C5*%
X33230000Y-68600000D03*
X32270000Y-68600000D03*
%TD*%
D10*
%TO.C,R5*%
X105715000Y-17225000D03*
X106735000Y-17225000D03*
%TD*%
D17*
%TO.C,C9*%
X48125000Y-50725000D03*
X48125000Y-51685000D03*
%TD*%
D19*
%TO.C,R15*%
X40260000Y-12150000D03*
X39240000Y-12150000D03*
%TD*%
%TO.C,R12*%
X29500000Y-61950000D03*
X28480000Y-61950000D03*
%TD*%
D13*
%TO.C,C13*%
X88580000Y-49300000D03*
X87620000Y-49300000D03*
%TD*%
D36*
%TO.C,IC2*%
X108575000Y-17125000D03*
X109075000Y-17125000D03*
X109575000Y-17125000D03*
X110075000Y-17125000D03*
X110575000Y-17125000D03*
X111075000Y-17125000D03*
X111575000Y-17125000D03*
X112075000Y-17125000D03*
D37*
X112825000Y-16375000D03*
X112825000Y-15875000D03*
X112825000Y-15375000D03*
X112825000Y-14875000D03*
X112825000Y-14375000D03*
X112825000Y-13875000D03*
X112825000Y-13375000D03*
X112825000Y-12875000D03*
D36*
X112075000Y-12125000D03*
X111575000Y-12125000D03*
X111075000Y-12125000D03*
X110575000Y-12125000D03*
X110075000Y-12125000D03*
X109575000Y-12125000D03*
X109075000Y-12125000D03*
X108575000Y-12125000D03*
D37*
X107825000Y-12875000D03*
X107825000Y-13375000D03*
X107825000Y-13875000D03*
X107825000Y-14375000D03*
X107825000Y-14875000D03*
X107825000Y-15375000D03*
X107825000Y-15875000D03*
X107825000Y-16375000D03*
D38*
X110325000Y-14625000D03*
%TD*%
D10*
%TO.C,R1*%
X45515000Y-86225000D03*
X46535000Y-86225000D03*
%TD*%
D19*
%TO.C,R15*%
X40260000Y-29150000D03*
X39240000Y-29150000D03*
%TD*%
D10*
%TO.C,R5*%
X39215000Y-17225000D03*
X40235000Y-17225000D03*
%TD*%
D11*
%TO.C,C10*%
X43645000Y-86225000D03*
X44605000Y-86225000D03*
%TD*%
D17*
%TO.C,C22*%
X31350000Y-48170000D03*
X31350000Y-49130000D03*
%TD*%
%TO.C,C20*%
X86700000Y-66470000D03*
X86700000Y-67430000D03*
%TD*%
D40*
%TO.C,IC1*%
X52575000Y-47375000D03*
X52075000Y-47375000D03*
X51575000Y-47375000D03*
X51075000Y-47375000D03*
X50575000Y-47375000D03*
X50075000Y-47375000D03*
D41*
X49375000Y-48075000D03*
X49375000Y-48575000D03*
X49375000Y-49075000D03*
X49375000Y-49575000D03*
X49375000Y-50075000D03*
X49375000Y-50575000D03*
D40*
X50075000Y-51275000D03*
X50575000Y-51275000D03*
X51075000Y-51275000D03*
X51575000Y-51275000D03*
X52075000Y-51275000D03*
X52575000Y-51275000D03*
D41*
X53275000Y-50575000D03*
X53275000Y-50075000D03*
X53275000Y-49575000D03*
X53275000Y-49075000D03*
X53275000Y-48575000D03*
X53275000Y-48075000D03*
D42*
X51325000Y-49325000D03*
%TD*%
D17*
%TO.C,C9*%
X48125000Y-33725000D03*
X48125000Y-34685000D03*
%TD*%
D30*
%TO.C,ANT1*%
X55300000Y-66100000D03*
D31*
X55300000Y-66713000D03*
D30*
X55300000Y-67326000D03*
%TD*%
D36*
%TO.C,IC2*%
X42075000Y-85125000D03*
X42575000Y-85125000D03*
X43075000Y-85125000D03*
X43575000Y-85125000D03*
X44075000Y-85125000D03*
X44575000Y-85125000D03*
X45075000Y-85125000D03*
X45575000Y-85125000D03*
D37*
X46325000Y-84375000D03*
X46325000Y-83875000D03*
X46325000Y-83375000D03*
X46325000Y-82875000D03*
X46325000Y-82375000D03*
X46325000Y-81875000D03*
X46325000Y-81375000D03*
X46325000Y-80875000D03*
D36*
X45575000Y-80125000D03*
X45075000Y-80125000D03*
X44575000Y-80125000D03*
X44075000Y-80125000D03*
X43575000Y-80125000D03*
X43075000Y-80125000D03*
X42575000Y-80125000D03*
X42075000Y-80125000D03*
D37*
X41325000Y-80875000D03*
X41325000Y-81375000D03*
X41325000Y-81875000D03*
X41325000Y-82375000D03*
X41325000Y-82875000D03*
X41325000Y-83375000D03*
X41325000Y-83875000D03*
X41325000Y-84375000D03*
D38*
X43825000Y-82625000D03*
%TD*%
D13*
%TO.C,C13*%
X22080000Y-66300000D03*
X21120000Y-66300000D03*
%TD*%
D17*
%TO.C,C12*%
X105800000Y-69200000D03*
X105800000Y-70160000D03*
%TD*%
%TO.C,C8*%
X53525000Y-11220000D03*
X53525000Y-12180000D03*
%TD*%
D19*
%TO.C,R7*%
X45035000Y-45025000D03*
X44015000Y-45025000D03*
%TD*%
D13*
%TO.C,C3*%
X94100000Y-62900000D03*
X93140000Y-62900000D03*
%TD*%
D19*
%TO.C,R7*%
X45035000Y-11025000D03*
X44015000Y-11025000D03*
%TD*%
D25*
%TO.C,U2*%
X99600000Y-31975000D03*
D26*
X100350000Y-30550000D03*
X99850000Y-30550000D03*
X99350000Y-30550000D03*
X98850000Y-30550000D03*
X98850000Y-33400000D03*
X99350000Y-33400000D03*
X99850000Y-33400000D03*
X100350000Y-33400000D03*
%TD*%
D13*
%TO.C,C17*%
X24060000Y-28900000D03*
X23100000Y-28900000D03*
%TD*%
D35*
%TO.C,L2*%
X109060000Y-88400000D03*
X114140000Y-88400000D03*
%TD*%
D13*
%TO.C,C1*%
X90500000Y-89200000D03*
X89540000Y-89200000D03*
%TD*%
D11*
%TO.C,C14*%
X94240000Y-89200000D03*
X95200000Y-89200000D03*
%TD*%
D39*
%TO.C,X1*%
X99650000Y-35850000D03*
X98200000Y-35850000D03*
X98200000Y-37000000D03*
X99650000Y-37000000D03*
%TD*%
D10*
%TO.C,R10*%
X28490000Y-62900000D03*
X29510000Y-62900000D03*
%TD*%
D14*
%TO.C,SW1*%
X109300000Y-60700000D03*
X105900000Y-60700000D03*
%TD*%
D13*
%TO.C,C16*%
X88580000Y-13300000D03*
X87620000Y-13300000D03*
%TD*%
D14*
%TO.C,SW1*%
X42800000Y-77700000D03*
X39400000Y-77700000D03*
%TD*%
D12*
%TO.C,R4*%
X34400000Y-37510000D03*
X34400000Y-36490000D03*
%TD*%
D11*
%TO.C,C11*%
X45945000Y-45025000D03*
X46905000Y-45025000D03*
%TD*%
D13*
%TO.C,C16*%
X22080000Y-81300000D03*
X21120000Y-81300000D03*
%TD*%
D36*
%TO.C,IC2*%
X42075000Y-68125000D03*
X42575000Y-68125000D03*
X43075000Y-68125000D03*
X43575000Y-68125000D03*
X44075000Y-68125000D03*
X44575000Y-68125000D03*
X45075000Y-68125000D03*
X45575000Y-68125000D03*
D37*
X46325000Y-67375000D03*
X46325000Y-66875000D03*
X46325000Y-66375000D03*
X46325000Y-65875000D03*
X46325000Y-65375000D03*
X46325000Y-64875000D03*
X46325000Y-64375000D03*
X46325000Y-63875000D03*
D36*
X45575000Y-63125000D03*
X45075000Y-63125000D03*
X44575000Y-63125000D03*
X44075000Y-63125000D03*
X43575000Y-63125000D03*
X43075000Y-63125000D03*
X42575000Y-63125000D03*
X42075000Y-63125000D03*
D37*
X41325000Y-63875000D03*
X41325000Y-64375000D03*
X41325000Y-64875000D03*
X41325000Y-65375000D03*
X41325000Y-65875000D03*
X41325000Y-66375000D03*
X41325000Y-66875000D03*
X41325000Y-67375000D03*
D38*
X43825000Y-65625000D03*
%TD*%
D24*
%TO.C,X3*%
X114775000Y-62975000D03*
X116225000Y-62975000D03*
X116225000Y-61825000D03*
X114775000Y-61825000D03*
%TD*%
D19*
%TO.C,R12*%
X96000000Y-10950000D03*
X94980000Y-10950000D03*
%TD*%
D18*
%TO.C,C18*%
X31350000Y-62930000D03*
X31350000Y-61970000D03*
%TD*%
D13*
%TO.C,C1*%
X24000000Y-72200000D03*
X23040000Y-72200000D03*
%TD*%
D10*
%TO.C,R13*%
X21090000Y-28400000D03*
X22110000Y-28400000D03*
%TD*%
D35*
%TO.C,L2*%
X42560000Y-71400000D03*
X47640000Y-71400000D03*
%TD*%
D25*
%TO.C,U2*%
X33100000Y-48975000D03*
D26*
X33850000Y-47550000D03*
X33350000Y-47550000D03*
X32850000Y-47550000D03*
X32350000Y-47550000D03*
X32350000Y-50400000D03*
X32850000Y-50400000D03*
X33350000Y-50400000D03*
X33850000Y-50400000D03*
%TD*%
D17*
%TO.C,C6*%
X117500000Y-69420000D03*
X117500000Y-70380000D03*
%TD*%
D11*
%TO.C,C11*%
X112445000Y-62025000D03*
X113405000Y-62025000D03*
%TD*%
D10*
%TO.C,R5*%
X105715000Y-51225000D03*
X106735000Y-51225000D03*
%TD*%
D11*
%TO.C,C11*%
X112445000Y-45025000D03*
X113405000Y-45025000D03*
%TD*%
D10*
%TO.C,R13*%
X21090000Y-45400000D03*
X22110000Y-45400000D03*
%TD*%
%TO.C,R5*%
X39215000Y-85225000D03*
X40235000Y-85225000D03*
%TD*%
%TO.C,R8*%
X110490000Y-78025000D03*
X111510000Y-78025000D03*
%TD*%
D36*
%TO.C,IC2*%
X108575000Y-68125000D03*
X109075000Y-68125000D03*
X109575000Y-68125000D03*
X110075000Y-68125000D03*
X110575000Y-68125000D03*
X111075000Y-68125000D03*
X111575000Y-68125000D03*
X112075000Y-68125000D03*
D37*
X112825000Y-67375000D03*
X112825000Y-66875000D03*
X112825000Y-66375000D03*
X112825000Y-65875000D03*
X112825000Y-65375000D03*
X112825000Y-64875000D03*
X112825000Y-64375000D03*
X112825000Y-63875000D03*
D36*
X112075000Y-63125000D03*
X111575000Y-63125000D03*
X111075000Y-63125000D03*
X110575000Y-63125000D03*
X110075000Y-63125000D03*
X109575000Y-63125000D03*
X109075000Y-63125000D03*
X108575000Y-63125000D03*
D37*
X107825000Y-63875000D03*
X107825000Y-64375000D03*
X107825000Y-64875000D03*
X107825000Y-65375000D03*
X107825000Y-65875000D03*
X107825000Y-66375000D03*
X107825000Y-66875000D03*
X107825000Y-67375000D03*
D38*
X110325000Y-65625000D03*
%TD*%
D12*
%TO.C,R11*%
X96900000Y-62960000D03*
X96900000Y-61940000D03*
%TD*%
D18*
%TO.C,C23*%
X117550000Y-12200000D03*
X117550000Y-11240000D03*
%TD*%
%TO.C,C18*%
X97850000Y-62930000D03*
X97850000Y-61970000D03*
%TD*%
D10*
%TO.C,R14*%
X87640000Y-78400000D03*
X88660000Y-78400000D03*
%TD*%
D34*
%TO.C,D2*%
X28212500Y-59800000D03*
X29787500Y-59800000D03*
%TD*%
D28*
%TO.C,R2*%
X119300000Y-86390000D03*
X119300000Y-87410000D03*
%TD*%
D34*
%TO.C,D2*%
X28212500Y-8800000D03*
X29787500Y-8800000D03*
%TD*%
D17*
%TO.C,C7*%
X52425000Y-79220000D03*
X52425000Y-80180000D03*
%TD*%
D19*
%TO.C,R9*%
X96010000Y-10000000D03*
X94990000Y-10000000D03*
%TD*%
D10*
%TO.C,R8*%
X110490000Y-10025000D03*
X111510000Y-10025000D03*
%TD*%
D24*
%TO.C,X3*%
X114775000Y-45975000D03*
X116225000Y-45975000D03*
X116225000Y-44825000D03*
X114775000Y-44825000D03*
%TD*%
D13*
%TO.C,C2*%
X88580000Y-48300000D03*
X87620000Y-48300000D03*
%TD*%
D21*
%TO.C,U1*%
X92400000Y-68350000D03*
X94000000Y-68350000D03*
X92400000Y-66750000D03*
X94000000Y-66750000D03*
D22*
X90600000Y-70987500D03*
X91000000Y-70987500D03*
X91400000Y-70987500D03*
X91800000Y-70987500D03*
X92200000Y-70987500D03*
X92600000Y-70987500D03*
X93000000Y-70987500D03*
X93400000Y-70987500D03*
X93800000Y-70987500D03*
X94200000Y-70987500D03*
X94600000Y-70987500D03*
X95000000Y-70987500D03*
X95400000Y-70987500D03*
X95800000Y-70987500D03*
D23*
X96637500Y-70150000D03*
X96637500Y-69750000D03*
X96637500Y-69350000D03*
X96637500Y-68950000D03*
X96637500Y-68550000D03*
X96637500Y-68150000D03*
X96637500Y-67750000D03*
X96637500Y-67350000D03*
X96637500Y-66950000D03*
X96637500Y-66550000D03*
X96637500Y-66150000D03*
X96637500Y-65750000D03*
X96637500Y-65350000D03*
X96637500Y-64950000D03*
D22*
X95800000Y-64112500D03*
X95400000Y-64112500D03*
X95000000Y-64112500D03*
X94600000Y-64112500D03*
X94200000Y-64112500D03*
X93800000Y-64112500D03*
X93400000Y-64112500D03*
X93000000Y-64112500D03*
X92600000Y-64112500D03*
X92200000Y-64112500D03*
X91800000Y-64112500D03*
X91400000Y-64112500D03*
X91000000Y-64112500D03*
X90600000Y-64112500D03*
D23*
X89762500Y-64950000D03*
X89762500Y-65350000D03*
X89762500Y-65750000D03*
X89762500Y-66150000D03*
X89762500Y-66550000D03*
X89762500Y-66950000D03*
X89762500Y-67350000D03*
X89762500Y-67750000D03*
X89762500Y-68150000D03*
X89762500Y-68550000D03*
X89762500Y-68950000D03*
X89762500Y-69350000D03*
X89762500Y-69750000D03*
X89762500Y-70150000D03*
%TD*%
D11*
%TO.C,C14*%
X94240000Y-55200000D03*
X95200000Y-55200000D03*
%TD*%
D17*
%TO.C,C6*%
X117500000Y-52420000D03*
X117500000Y-53380000D03*
%TD*%
%TO.C,C15*%
X31350000Y-16070000D03*
X31350000Y-17030000D03*
%TD*%
D32*
%TO.C,S1*%
X32500000Y-78825000D03*
X32500000Y-79225000D03*
D33*
X32700000Y-79900000D03*
X33100000Y-79900000D03*
X33500000Y-79900000D03*
D32*
X33700000Y-79225000D03*
X33700000Y-78825000D03*
D33*
X33500000Y-78150000D03*
X33100000Y-78150000D03*
X32700000Y-78150000D03*
%TD*%
D19*
%TO.C,R7*%
X45035000Y-28025000D03*
X44015000Y-28025000D03*
%TD*%
D15*
%TO.C,J1*%
X80000000Y-69525000D03*
D16*
X80500000Y-67075000D03*
X80500000Y-65025000D03*
D15*
X80000000Y-62575000D03*
%TD*%
D10*
%TO.C,R1*%
X45515000Y-52225000D03*
X46535000Y-52225000D03*
%TD*%
D17*
%TO.C,C22*%
X97850000Y-14170000D03*
X97850000Y-15130000D03*
%TD*%
D29*
%TO.C,L1*%
X125000000Y-85540000D03*
X125000000Y-80460000D03*
%TD*%
D30*
%TO.C,ANT1*%
X55300000Y-32100000D03*
D31*
X55300000Y-32713000D03*
D30*
X55300000Y-33326000D03*
%TD*%
D13*
%TO.C,C3*%
X27600000Y-62900000D03*
X26640000Y-62900000D03*
%TD*%
D36*
%TO.C,IC2*%
X42075000Y-17125000D03*
X42575000Y-17125000D03*
X43075000Y-17125000D03*
X43575000Y-17125000D03*
X44075000Y-17125000D03*
X44575000Y-17125000D03*
X45075000Y-17125000D03*
X45575000Y-17125000D03*
D37*
X46325000Y-16375000D03*
X46325000Y-15875000D03*
X46325000Y-15375000D03*
X46325000Y-14875000D03*
X46325000Y-14375000D03*
X46325000Y-13875000D03*
X46325000Y-13375000D03*
X46325000Y-12875000D03*
D36*
X45575000Y-12125000D03*
X45075000Y-12125000D03*
X44575000Y-12125000D03*
X44075000Y-12125000D03*
X43575000Y-12125000D03*
X43075000Y-12125000D03*
X42575000Y-12125000D03*
X42075000Y-12125000D03*
D37*
X41325000Y-12875000D03*
X41325000Y-13375000D03*
X41325000Y-13875000D03*
X41325000Y-14375000D03*
X41325000Y-14875000D03*
X41325000Y-15375000D03*
X41325000Y-15875000D03*
X41325000Y-16375000D03*
D38*
X43825000Y-14625000D03*
%TD*%
D29*
%TO.C,L1*%
X125000000Y-17540000D03*
X125000000Y-12460000D03*
%TD*%
D39*
%TO.C,X1*%
X99650000Y-86850000D03*
X98200000Y-86850000D03*
X98200000Y-88000000D03*
X99650000Y-88000000D03*
%TD*%
D12*
%TO.C,R16*%
X34400000Y-35610000D03*
X34400000Y-34590000D03*
%TD*%
D17*
%TO.C,C6*%
X51000000Y-69420000D03*
X51000000Y-70380000D03*
%TD*%
D29*
%TO.C,L1*%
X58500000Y-17540000D03*
X58500000Y-12460000D03*
%TD*%
D13*
%TO.C,C21*%
X88600000Y-29350000D03*
X87640000Y-29350000D03*
%TD*%
D15*
%TO.C,J1*%
X13500000Y-18525000D03*
D16*
X14000000Y-16075000D03*
X14000000Y-14025000D03*
D15*
X13500000Y-11575000D03*
%TD*%
D17*
%TO.C,C7*%
X52425000Y-45220000D03*
X52425000Y-46180000D03*
%TD*%
D14*
%TO.C,SW2*%
X23300000Y-77700000D03*
X26700000Y-77700000D03*
%TD*%
D18*
%TO.C,C19*%
X86700000Y-82580000D03*
X86700000Y-81620000D03*
%TD*%
D17*
%TO.C,C20*%
X20200000Y-49470000D03*
X20200000Y-50430000D03*
%TD*%
%TO.C,C6*%
X51000000Y-35420000D03*
X51000000Y-36380000D03*
%TD*%
D21*
%TO.C,U1*%
X25900000Y-68350000D03*
X27500000Y-68350000D03*
X25900000Y-66750000D03*
X27500000Y-66750000D03*
D22*
X24100000Y-70987500D03*
X24500000Y-70987500D03*
X24900000Y-70987500D03*
X25300000Y-70987500D03*
X25700000Y-70987500D03*
X26100000Y-70987500D03*
X26500000Y-70987500D03*
X26900000Y-70987500D03*
X27300000Y-70987500D03*
X27700000Y-70987500D03*
X28100000Y-70987500D03*
X28500000Y-70987500D03*
X28900000Y-70987500D03*
X29300000Y-70987500D03*
D23*
X30137500Y-70150000D03*
X30137500Y-69750000D03*
X30137500Y-69350000D03*
X30137500Y-68950000D03*
X30137500Y-68550000D03*
X30137500Y-68150000D03*
X30137500Y-67750000D03*
X30137500Y-67350000D03*
X30137500Y-66950000D03*
X30137500Y-66550000D03*
X30137500Y-66150000D03*
X30137500Y-65750000D03*
X30137500Y-65350000D03*
X30137500Y-64950000D03*
D22*
X29300000Y-64112500D03*
X28900000Y-64112500D03*
X28500000Y-64112500D03*
X28100000Y-64112500D03*
X27700000Y-64112500D03*
X27300000Y-64112500D03*
X26900000Y-64112500D03*
X26500000Y-64112500D03*
X26100000Y-64112500D03*
X25700000Y-64112500D03*
X25300000Y-64112500D03*
X24900000Y-64112500D03*
X24500000Y-64112500D03*
X24100000Y-64112500D03*
D23*
X23262500Y-64950000D03*
X23262500Y-65350000D03*
X23262500Y-65750000D03*
X23262500Y-66150000D03*
X23262500Y-66550000D03*
X23262500Y-66950000D03*
X23262500Y-67350000D03*
X23262500Y-67750000D03*
X23262500Y-68150000D03*
X23262500Y-68550000D03*
X23262500Y-68950000D03*
X23262500Y-69350000D03*
X23262500Y-69750000D03*
X23262500Y-70150000D03*
%TD*%
D13*
%TO.C,C13*%
X22080000Y-83300000D03*
X21120000Y-83300000D03*
%TD*%
D27*
%TO.C,X2*%
X106475000Y-15925000D03*
X106475000Y-14475000D03*
X105325000Y-14475000D03*
X105325000Y-15925000D03*
%TD*%
D14*
%TO.C,SW2*%
X23300000Y-43700000D03*
X26700000Y-43700000D03*
%TD*%
D39*
%TO.C,X1*%
X99650000Y-52850000D03*
X98200000Y-52850000D03*
X98200000Y-54000000D03*
X99650000Y-54000000D03*
%TD*%
D10*
%TO.C,R1*%
X112015000Y-69225000D03*
X113035000Y-69225000D03*
%TD*%
D11*
%TO.C,C10*%
X110145000Y-86225000D03*
X111105000Y-86225000D03*
%TD*%
D17*
%TO.C,C15*%
X31350000Y-67070000D03*
X31350000Y-68030000D03*
%TD*%
D35*
%TO.C,L2*%
X109060000Y-71400000D03*
X114140000Y-71400000D03*
%TD*%
D34*
%TO.C,D1*%
X44312500Y-42800000D03*
X45887500Y-42800000D03*
%TD*%
D12*
%TO.C,R4*%
X100900000Y-54510000D03*
X100900000Y-53490000D03*
%TD*%
D13*
%TO.C,C16*%
X22080000Y-13300000D03*
X21120000Y-13300000D03*
%TD*%
D10*
%TO.C,R1*%
X112015000Y-35225000D03*
X113035000Y-35225000D03*
%TD*%
M02*
