M48
; DRILL file {KiCad 8.0.4} date 2024-10-06T23:42:52+0200
; FORMAT={-:-/ absolute / inch / decimal}
; #@! TF.CreationDate,2024-10-06T23:42:52+02:00
; #@! TF.GenerationSoftware,Kicad,Pcbnew,8.0.4
; #@! TF.FileFunction,Plated,1,4,PTH
FMAT,2
INCH
; #@! TA.AperFunction,Plated,PTH,ViaDrill
T1C0.0118
; #@! TA.AperFunction,Plated,PTH,ComponentDrill
T2C0.0197
; #@! TA.AperFunction,Plated,PTH,ComponentDrill
T3C0.0394
%
G90
G05
T1
X0.5315Y-0.7293
X0.5315Y-1.3986
X0.5315Y-2.0679
X0.5315Y-2.7372
X0.5315Y-3.4065
X0.5512Y-0.5522
X0.5512Y-0.6329
X0.5512Y-1.2215
X0.5512Y-1.3022
X0.5512Y-1.8907
X0.5512Y-1.9715
X0.5512Y-2.56
X0.5512Y-2.6407
X0.5512Y-3.2293
X0.5512Y-3.31
X0.748Y-0.5669
X0.748Y-1.2362
X0.748Y-1.9055
X0.748Y-2.5748
X0.748Y-3.2441
X0.8228Y-0.6752
X0.8228Y-0.6988
X0.8228Y-1.3445
X0.8228Y-1.3681
X0.8228Y-2.0138
X0.8228Y-2.0374
X0.8228Y-2.6831
X0.8228Y-2.7067
X0.8228Y-3.3524
X0.8228Y-3.376
X0.8287Y-0.378
X0.8287Y-1.0472
X0.8287Y-1.7165
X0.8287Y-2.3858
X0.8287Y-3.0551
X0.8563Y-0.378
X0.8563Y-1.0472
X0.8563Y-1.7165
X0.8563Y-2.3858
X0.8563Y-3.0551
X0.8839Y-0.378
X0.8839Y-1.0472
X0.8839Y-1.7165
X0.8839Y-2.3858
X0.8839Y-3.0551
X0.8858Y-0.6851
X0.8858Y-1.3543
X0.8858Y-2.0236
X0.8858Y-2.6929
X0.8858Y-3.3622
X0.8858Y-0.7244
X0.8858Y-0.7638
X0.8858Y-0.7874
X0.8858Y-1.3937
X0.8858Y-1.4331
X0.8858Y-1.4567
X0.8858Y-2.063
X0.8858Y-2.1024
X0.8858Y-2.126
X0.8858Y-2.7323
X0.8858Y-2.7717
X0.8858Y-2.7953
X0.8858Y-3.4016
X0.8858Y-3.4409
X0.8858Y-3.4646
X0.8957Y-0.4311
X0.8957Y-1.1004
X0.8957Y-1.7697
X0.8957Y-2.439
X0.8957Y-3.1083
X0.9488Y-0.5728
X0.9488Y-0.5965
X0.9488Y-0.6201
X0.9488Y-0.6437
X0.9488Y-1.2421
X0.9488Y-1.2657
X0.9488Y-1.2894
X0.9488Y-1.313
X0.9488Y-1.9114
X0.9488Y-1.935
X0.9488Y-1.9587
X0.9488Y-1.9823
X0.9488Y-2.5807
X0.9488Y-2.6043
X0.9488Y-2.628
X0.9488Y-2.6516
X0.9488Y-3.25
X0.9488Y-3.2736
X0.9488Y-3.2972
X0.9488Y-3.3209
X0.9528Y-0.6693
X0.9528Y-0.7087
X0.9528Y-0.748
X0.9528Y-1.3386
X0.9528Y-1.378
X0.9528Y-1.4173
X0.9528Y-2.0079
X0.9528Y-2.0472
X0.9528Y-2.0866
X0.9528Y-2.6772
X0.9528Y-2.7165
X0.9528Y-2.7559
X0.9528Y-3.3465
X0.9528Y-3.3858
X0.9528Y-3.4252
X0.9685Y-0.4685
X0.9685Y-0.8346
X0.9685Y-1.1378
X0.9685Y-1.5039
X0.9685Y-1.8071
X0.9685Y-2.1732
X0.9685Y-2.4764
X0.9685Y-2.8425
X0.9685Y-3.1457
X0.9685Y-3.5118
X1.002Y-0.5512
X1.002Y-1.2205
X1.002Y-1.8898
X1.002Y-2.5591
X1.002Y-3.2283
X1.0197Y-0.4685
X1.0197Y-1.1378
X1.0197Y-1.8071
X1.0197Y-2.4764
X1.0197Y-3.1457
X1.0512Y-0.6496
X1.0512Y-1.3189
X1.0512Y-1.9882
X1.0512Y-2.6575
X1.0512Y-3.3268
X1.0748Y-0.8346
X1.0748Y-1.5039
X1.0748Y-2.1732
X1.0748Y-2.8425
X1.0748Y-3.5118
X1.0768Y-0.7343
X1.0768Y-1.4035
X1.0768Y-2.0728
X1.0768Y-2.7421
X1.0768Y-3.4114
X1.0906Y-0.4094
X1.0906Y-1.0787
X1.0906Y-1.748
X1.0906Y-2.4173
X1.0906Y-3.0866
X1.0965Y-0.7539
X1.0965Y-1.4232
X1.0965Y-2.0925
X1.0965Y-2.7618
X1.0965Y-3.4311
X1.1437Y-0.5502
X1.1437Y-1.2195
X1.1437Y-1.8888
X1.1437Y-2.5581
X1.1437Y-3.2274
X1.1555Y-0.6437
X1.1555Y-1.313
X1.1555Y-1.9823
X1.1555Y-2.6516
X1.1555Y-3.3209
X1.1772Y-0.5236
X1.1772Y-1.1929
X1.1772Y-1.8622
X1.1772Y-2.5315
X1.1772Y-3.2008
X1.187Y-0.3937
X1.187Y-1.063
X1.187Y-1.7323
X1.187Y-2.4016
X1.187Y-3.0709
X1.2303Y-0.4055
X1.2303Y-0.5
X1.2303Y-1.0748
X1.2303Y-1.1693
X1.2303Y-1.7441
X1.2303Y-1.8386
X1.2303Y-2.4134
X1.2303Y-2.5079
X1.2303Y-3.0827
X1.2303Y-3.1772
X1.2382Y-0.6988
X1.2382Y-1.3681
X1.2382Y-2.0374
X1.2382Y-2.7067
X1.2382Y-3.376
X1.2559Y-0.5492
X1.2559Y-1.2185
X1.2559Y-1.8878
X1.2559Y-2.5571
X1.2559Y-3.2264
X1.2677Y-0.3898
X1.2677Y-0.4537
X1.2677Y-0.4774
X1.2677Y-0.6181
X1.2677Y-1.0591
X1.2677Y-1.123
X1.2677Y-1.1467
X1.2677Y-1.2874
X1.2677Y-1.7283
X1.2677Y-1.7923
X1.2677Y-1.8159
X1.2677Y-1.9567
X1.2677Y-2.3976
X1.2677Y-2.4616
X1.2677Y-2.4852
X1.2677Y-2.626
X1.2677Y-3.0669
X1.2677Y-3.1309
X1.2677Y-3.1545
X1.2677Y-3.2953
X1.2874Y-0.563
X1.2874Y-1.2323
X1.2874Y-1.9016
X1.2874Y-2.5709
X1.2874Y-3.2402
X1.2913Y-0.6181
X1.2913Y-1.2874
X1.2913Y-1.9567
X1.2913Y-2.626
X1.2913Y-3.2953
X1.3031Y-0.3671
X1.3031Y-1.0364
X1.3031Y-1.7057
X1.3031Y-2.375
X1.3031Y-3.0443
X1.3051Y-0.8169
X1.3051Y-1.4862
X1.3051Y-2.1555
X1.3051Y-2.8248
X1.3051Y-3.4941
X1.311Y-0.563
X1.311Y-1.2323
X1.311Y-1.9016
X1.311Y-2.5709
X1.311Y-3.2402
X1.315Y-0.6181
X1.315Y-1.2874
X1.315Y-1.9567
X1.315Y-2.626
X1.315Y-3.2953
X1.3347Y-0.563
X1.3347Y-1.2323
X1.3347Y-1.9016
X1.3347Y-2.5709
X1.3347Y-3.2402
X1.3366Y-0.4764
X1.3366Y-1.1457
X1.3366Y-1.815
X1.3366Y-2.4843
X1.3366Y-3.1535
X1.3386Y-0.3898
X1.3386Y-1.0591
X1.3386Y-1.7283
X1.3386Y-2.3976
X1.3386Y-3.0669
X1.3543Y-0.4272
X1.3543Y-0.8307
X1.3543Y-1.0965
X1.3543Y-1.5
X1.3543Y-1.7657
X1.3543Y-2.1693
X1.3543Y-2.435
X1.3543Y-2.8386
X1.3543Y-3.1043
X1.3543Y-3.5079
X1.3878Y-0.7382
X1.3878Y-1.4075
X1.3878Y-2.0768
X1.3878Y-2.7461
X1.3878Y-3.4154
X1.4646Y-0.437
X1.4646Y-1.1063
X1.4646Y-1.7756
X1.4646Y-2.4449
X1.4646Y-3.1142
X1.5157Y-0.4783
X1.5157Y-0.5157
X1.5157Y-0.6713
X1.5157Y-1.1476
X1.5157Y-1.185
X1.5157Y-1.3406
X1.5157Y-1.8169
X1.5157Y-1.8543
X1.5157Y-2.0098
X1.5157Y-2.4862
X1.5157Y-2.5236
X1.5157Y-2.6791
X1.5157Y-3.1555
X1.5157Y-3.1929
X1.5157Y-3.3484
X1.5866Y-0.4291
X1.5866Y-1.0984
X1.5866Y-1.7677
X1.5866Y-2.437
X1.5866Y-3.1063
X1.622Y-0.3819
X1.622Y-1.0512
X1.622Y-1.7205
X1.622Y-2.3898
X1.622Y-3.0591
X1.627Y-0.5955
X1.627Y-1.2648
X1.627Y-1.9341
X1.627Y-2.6033
X1.627Y-3.2726
X1.6457Y-0.7047
X1.6457Y-1.374
X1.6457Y-2.0433
X1.6457Y-2.7126
X1.6457Y-3.3819
X1.6585Y-0.4498
X1.6585Y-1.1191
X1.6585Y-1.7884
X1.6585Y-2.4577
X1.6585Y-3.127
X1.7008Y-0.4449
X1.7008Y-1.1142
X1.7008Y-1.7835
X1.7008Y-2.4528
X1.7008Y-3.122
X1.7047Y-0.7008
X1.7047Y-1.3701
X1.7047Y-2.0394
X1.7047Y-2.7087
X1.7047Y-3.378
X1.7254Y-0.5758
X1.7254Y-1.2451
X1.7254Y-1.9144
X1.7254Y-2.5837
X1.7254Y-3.253
X1.7561Y-0.7175
X1.7561Y-1.3868
X1.7561Y-2.0561
X1.7561Y-2.7254
X1.7561Y-3.3947
X1.8091Y-0.3937
X1.8091Y-1.063
X1.8091Y-1.7323
X1.8091Y-2.4016
X1.8091Y-3.0709
X1.8238Y-0.4892
X1.8238Y-0.6663
X1.8238Y-0.69
X1.8238Y-1.1585
X1.8238Y-1.3356
X1.8238Y-1.3593
X1.8238Y-1.8278
X1.8238Y-2.0049
X1.8238Y-2.0285
X1.8238Y-2.497
X1.8238Y-2.6742
X1.8238Y-2.6978
X1.8238Y-3.1663
X1.8238Y-3.3435
X1.8238Y-3.3671
X1.8467Y-0.4341
X1.8467Y-1.1033
X1.8467Y-1.7726
X1.8467Y-2.4419
X1.8467Y-3.1112
X1.8514Y-0.5246
X1.8514Y-0.5482
X1.8514Y-0.5876
X1.8514Y-0.627
X1.8514Y-1.1939
X1.8514Y-1.2175
X1.8514Y-1.2569
X1.8514Y-1.2963
X1.8514Y-1.8632
X1.8514Y-1.8868
X1.8514Y-1.9262
X1.8514Y-1.9656
X1.8514Y-2.5325
X1.8514Y-2.5561
X1.8514Y-2.5955
X1.8514Y-2.6348
X1.8514Y-3.2018
X1.8514Y-3.2254
X1.8514Y-3.2648
X1.8514Y-3.3041
X1.8563Y-0.4931
X1.8563Y-1.1624
X1.8563Y-1.8317
X1.8563Y-2.501
X1.8563Y-3.1703
X1.8583Y-0.7126
X1.8583Y-1.3819
X1.8583Y-2.0512
X1.8583Y-2.7205
X1.8583Y-3.3898
X1.875Y-0.627
X1.875Y-1.2963
X1.875Y-1.9656
X1.875Y-2.6348
X1.875Y-3.3041
X1.9104Y-0.5482
X1.9104Y-0.5719
X1.9104Y-1.2175
X1.9104Y-1.2411
X1.9104Y-1.8868
X1.9104Y-1.9104
X1.9104Y-2.5561
X1.9104Y-2.5797
X1.9104Y-3.2254
X1.9104Y-3.249
X1.9419Y-0.6781
X1.9419Y-1.3474
X1.9419Y-2.0167
X1.9419Y-2.686
X1.9419Y-3.3553
X2.0207Y-0.6033
X2.0207Y-1.2726
X2.0207Y-1.9419
X2.0207Y-2.6112
X2.0207Y-3.2805
X2.0354Y-0.7451
X2.0354Y-1.4143
X2.0354Y-2.0836
X2.0354Y-2.7529
X2.0354Y-3.4222
X2.0364Y-0.4262
X2.0364Y-0.7215
X2.0364Y-1.0955
X2.0364Y-1.3907
X2.0364Y-1.7648
X2.0364Y-2.06
X2.0364Y-2.4341
X2.0364Y-2.7293
X2.0364Y-3.1033
X2.0364Y-3.3986
X2.064Y-0.4795
X2.064Y-1.1488
X2.064Y-1.8181
X2.064Y-2.4874
X2.064Y-3.1567
X2.0866Y-0.6967
X2.0866Y-1.3659
X2.0866Y-2.0352
X2.0866Y-2.7045
X2.0866Y-3.3738
X2.1161Y-0.7244
X2.1161Y-1.3937
X2.1161Y-2.063
X2.1161Y-2.7323
X2.1161Y-3.4016
X3.1496Y-0.7293
X3.1496Y-1.3986
X3.1496Y-2.0679
X3.1496Y-2.7372
X3.1496Y-3.4065
X3.1693Y-0.5522
X3.1693Y-0.6329
X3.1693Y-1.2215
X3.1693Y-1.3022
X3.1693Y-1.8907
X3.1693Y-1.9715
X3.1693Y-2.56
X3.1693Y-2.6407
X3.1693Y-3.2293
X3.1693Y-3.31
X3.3661Y-0.5669
X3.3661Y-1.2362
X3.3661Y-1.9055
X3.3661Y-2.5748
X3.3661Y-3.2441
X3.4409Y-0.6752
X3.4409Y-0.6988
X3.4409Y-1.3445
X3.4409Y-1.3681
X3.4409Y-2.0138
X3.4409Y-2.0374
X3.4409Y-2.6831
X3.4409Y-2.7067
X3.4409Y-3.3524
X3.4409Y-3.376
X3.4469Y-0.378
X3.4469Y-1.0472
X3.4469Y-1.7165
X3.4469Y-2.3858
X3.4469Y-3.0551
X3.4744Y-0.378
X3.4744Y-1.0472
X3.4744Y-1.7165
X3.4744Y-2.3858
X3.4744Y-3.0551
X3.502Y-0.378
X3.502Y-1.0472
X3.502Y-1.7165
X3.502Y-2.3858
X3.502Y-3.0551
X3.5039Y-0.6851
X3.5039Y-1.3543
X3.5039Y-2.0236
X3.5039Y-2.6929
X3.5039Y-3.3622
X3.5039Y-0.7244
X3.5039Y-0.7638
X3.5039Y-0.7874
X3.5039Y-1.3937
X3.5039Y-1.4331
X3.5039Y-1.4567
X3.5039Y-2.063
X3.5039Y-2.1024
X3.5039Y-2.126
X3.5039Y-2.7323
X3.5039Y-2.7717
X3.5039Y-2.7953
X3.5039Y-3.4016
X3.5039Y-3.4409
X3.5039Y-3.4646
X3.5138Y-0.4311
X3.5138Y-1.1004
X3.5138Y-1.7697
X3.5138Y-2.439
X3.5138Y-3.1083
X3.5669Y-0.5728
X3.5669Y-0.5965
X3.5669Y-0.6201
X3.5669Y-0.6437
X3.5669Y-1.2421
X3.5669Y-1.2657
X3.5669Y-1.2894
X3.5669Y-1.313
X3.5669Y-1.9114
X3.5669Y-1.935
X3.5669Y-1.9587
X3.5669Y-1.9823
X3.5669Y-2.5807
X3.5669Y-2.6043
X3.5669Y-2.628
X3.5669Y-2.6516
X3.5669Y-3.25
X3.5669Y-3.2736
X3.5669Y-3.2972
X3.5669Y-3.3209
X3.5709Y-0.6693
X3.5709Y-0.7087
X3.5709Y-0.748
X3.5709Y-1.3386
X3.5709Y-1.378
X3.5709Y-1.4173
X3.5709Y-2.0079
X3.5709Y-2.0472
X3.5709Y-2.0866
X3.5709Y-2.6772
X3.5709Y-2.7165
X3.5709Y-2.7559
X3.5709Y-3.3465
X3.5709Y-3.3858
X3.5709Y-3.4252
X3.5866Y-0.4685
X3.5866Y-0.8346
X3.5866Y-1.1378
X3.5866Y-1.5039
X3.5866Y-1.8071
X3.5866Y-2.1732
X3.5866Y-2.4764
X3.5866Y-2.8425
X3.5866Y-3.1457
X3.5866Y-3.5118
X3.6201Y-0.5512
X3.6201Y-1.2205
X3.6201Y-1.8898
X3.6201Y-2.5591
X3.6201Y-3.2283
X3.6378Y-0.4685
X3.6378Y-1.1378
X3.6378Y-1.8071
X3.6378Y-2.4764
X3.6378Y-3.1457
X3.6693Y-0.6496
X3.6693Y-1.3189
X3.6693Y-1.9882
X3.6693Y-2.6575
X3.6693Y-3.3268
X3.6929Y-0.8346
X3.6929Y-1.5039
X3.6929Y-2.1732
X3.6929Y-2.8425
X3.6929Y-3.5118
X3.6949Y-0.7343
X3.6949Y-1.4035
X3.6949Y-2.0728
X3.6949Y-2.7421
X3.6949Y-3.4114
X3.7087Y-0.4094
X3.7087Y-1.0787
X3.7087Y-1.748
X3.7087Y-2.4173
X3.7087Y-3.0866
X3.7146Y-0.7539
X3.7146Y-1.4232
X3.7146Y-2.0925
X3.7146Y-2.7618
X3.7146Y-3.4311
X3.7618Y-0.5502
X3.7618Y-1.2195
X3.7618Y-1.8888
X3.7618Y-2.5581
X3.7618Y-3.2274
X3.7736Y-0.6437
X3.7736Y-1.313
X3.7736Y-1.9823
X3.7736Y-2.6516
X3.7736Y-3.3209
X3.7953Y-0.5236
X3.7953Y-1.1929
X3.7953Y-1.8622
X3.7953Y-2.5315
X3.7953Y-3.2008
X3.8051Y-0.3937
X3.8051Y-1.063
X3.8051Y-1.7323
X3.8051Y-2.4016
X3.8051Y-3.0709
X3.8484Y-0.4055
X3.8484Y-0.5
X3.8484Y-1.0748
X3.8484Y-1.1693
X3.8484Y-1.7441
X3.8484Y-1.8386
X3.8484Y-2.4134
X3.8484Y-2.5079
X3.8484Y-3.0827
X3.8484Y-3.1772
X3.8563Y-0.6988
X3.8563Y-1.3681
X3.8563Y-2.0374
X3.8563Y-2.7067
X3.8563Y-3.376
X3.874Y-0.5492
X3.874Y-1.2185
X3.874Y-1.8878
X3.874Y-2.5571
X3.874Y-3.2264
X3.8858Y-0.3898
X3.8858Y-0.4537
X3.8858Y-0.4774
X3.8858Y-0.6181
X3.8858Y-1.0591
X3.8858Y-1.123
X3.8858Y-1.1467
X3.8858Y-1.2874
X3.8858Y-1.7283
X3.8858Y-1.7923
X3.8858Y-1.8159
X3.8858Y-1.9567
X3.8858Y-2.3976
X3.8858Y-2.4616
X3.8858Y-2.4852
X3.8858Y-2.626
X3.8858Y-3.0669
X3.8858Y-3.1309
X3.8858Y-3.1545
X3.8858Y-3.2953
X3.9055Y-0.563
X3.9055Y-1.2323
X3.9055Y-1.9016
X3.9055Y-2.5709
X3.9055Y-3.2402
X3.9094Y-0.6181
X3.9094Y-1.2874
X3.9094Y-1.9567
X3.9094Y-2.626
X3.9094Y-3.2953
X3.9213Y-0.3671
X3.9213Y-1.0364
X3.9213Y-1.7057
X3.9213Y-2.375
X3.9213Y-3.0443
X3.9232Y-0.8169
X3.9232Y-1.4862
X3.9232Y-2.1555
X3.9232Y-2.8248
X3.9232Y-3.4941
X3.9291Y-0.563
X3.9291Y-1.2323
X3.9291Y-1.9016
X3.9291Y-2.5709
X3.9291Y-3.2402
X3.9331Y-0.6181
X3.9331Y-1.2874
X3.9331Y-1.9567
X3.9331Y-2.626
X3.9331Y-3.2953
X3.9528Y-0.563
X3.9528Y-1.2323
X3.9528Y-1.9016
X3.9528Y-2.5709
X3.9528Y-3.2402
X3.9547Y-0.4764
X3.9547Y-1.1457
X3.9547Y-1.815
X3.9547Y-2.4843
X3.9547Y-3.1535
X3.9567Y-0.3898
X3.9567Y-1.0591
X3.9567Y-1.7283
X3.9567Y-2.3976
X3.9567Y-3.0669
X3.9724Y-0.4272
X3.9724Y-0.8307
X3.9724Y-1.0965
X3.9724Y-1.5
X3.9724Y-1.7657
X3.9724Y-2.1693
X3.9724Y-2.435
X3.9724Y-2.8386
X3.9724Y-3.1043
X3.9724Y-3.5079
X4.0059Y-0.7382
X4.0059Y-1.4075
X4.0059Y-2.0768
X4.0059Y-2.7461
X4.0059Y-3.4154
X4.0827Y-0.437
X4.0827Y-1.1063
X4.0827Y-1.7756
X4.0827Y-2.4449
X4.0827Y-3.1142
X4.1339Y-0.4783
X4.1339Y-0.5157
X4.1339Y-0.6713
X4.1339Y-1.1476
X4.1339Y-1.185
X4.1339Y-1.3406
X4.1339Y-1.8169
X4.1339Y-1.8543
X4.1339Y-2.0098
X4.1339Y-2.4862
X4.1339Y-2.5236
X4.1339Y-2.6791
X4.1339Y-3.1555
X4.1339Y-3.1929
X4.1339Y-3.3484
X4.2047Y-0.4291
X4.2047Y-1.0984
X4.2047Y-1.7677
X4.2047Y-2.437
X4.2047Y-3.1063
X4.2402Y-0.3819
X4.2402Y-1.0512
X4.2402Y-1.7205
X4.2402Y-2.3898
X4.2402Y-3.0591
X4.2451Y-0.5955
X4.2451Y-1.2648
X4.2451Y-1.9341
X4.2451Y-2.6033
X4.2451Y-3.2726
X4.2638Y-0.7047
X4.2638Y-1.374
X4.2638Y-2.0433
X4.2638Y-2.7126
X4.2638Y-3.3819
X4.2766Y-0.4498
X4.2766Y-1.1191
X4.2766Y-1.7884
X4.2766Y-2.4577
X4.2766Y-3.127
X4.3189Y-0.4449
X4.3189Y-1.1142
X4.3189Y-1.7835
X4.3189Y-2.4528
X4.3189Y-3.122
X4.3228Y-0.7008
X4.3228Y-1.3701
X4.3228Y-2.0394
X4.3228Y-2.7087
X4.3228Y-3.378
X4.3435Y-0.5758
X4.3435Y-1.2451
X4.3435Y-1.9144
X4.3435Y-2.5837
X4.3435Y-3.253
X4.3742Y-0.7175
X4.3742Y-1.3868
X4.3742Y-2.0561
X4.3742Y-2.7254
X4.3742Y-3.3947
X4.4272Y-0.3937
X4.4272Y-1.063
X4.4272Y-1.7323
X4.4272Y-2.4016
X4.4272Y-3.0709
X4.4419Y-0.4892
X4.4419Y-0.6663
X4.4419Y-0.69
X4.4419Y-1.1585
X4.4419Y-1.3356
X4.4419Y-1.3593
X4.4419Y-1.8278
X4.4419Y-2.0049
X4.4419Y-2.0285
X4.4419Y-2.497
X4.4419Y-2.6742
X4.4419Y-2.6978
X4.4419Y-3.1663
X4.4419Y-3.3435
X4.4419Y-3.3671
X4.4648Y-0.4341
X4.4648Y-1.1033
X4.4648Y-1.7726
X4.4648Y-2.4419
X4.4648Y-3.1112
X4.4695Y-0.5246
X4.4695Y-0.5482
X4.4695Y-0.5876
X4.4695Y-0.627
X4.4695Y-1.1939
X4.4695Y-1.2175
X4.4695Y-1.2569
X4.4695Y-1.2963
X4.4695Y-1.8632
X4.4695Y-1.8868
X4.4695Y-1.9262
X4.4695Y-1.9656
X4.4695Y-2.5325
X4.4695Y-2.5561
X4.4695Y-2.5955
X4.4695Y-2.6348
X4.4695Y-3.2018
X4.4695Y-3.2254
X4.4695Y-3.2648
X4.4695Y-3.3041
X4.4744Y-0.4931
X4.4744Y-1.1624
X4.4744Y-1.8317
X4.4744Y-2.501
X4.4744Y-3.1703
X4.4764Y-0.7126
X4.4764Y-1.3819
X4.4764Y-2.0512
X4.4764Y-2.7205
X4.4764Y-3.3898
X4.4931Y-0.627
X4.4931Y-1.2963
X4.4931Y-1.9656
X4.4931Y-2.6348
X4.4931Y-3.3041
X4.5285Y-0.5482
X4.5285Y-0.5719
X4.5285Y-1.2175
X4.5285Y-1.2411
X4.5285Y-1.8868
X4.5285Y-1.9104
X4.5285Y-2.5561
X4.5285Y-2.5797
X4.5285Y-3.2254
X4.5285Y-3.249
X4.56Y-0.6781
X4.56Y-1.3474
X4.56Y-2.0167
X4.56Y-2.686
X4.56Y-3.3553
X4.6388Y-0.6033
X4.6388Y-1.2726
X4.6388Y-1.9419
X4.6388Y-2.6112
X4.6388Y-3.2805
X4.6535Y-0.7451
X4.6535Y-1.4143
X4.6535Y-2.0836
X4.6535Y-2.7529
X4.6535Y-3.4222
X4.6545Y-0.4262
X4.6545Y-0.7215
X4.6545Y-1.0955
X4.6545Y-1.3907
X4.6545Y-1.7648
X4.6545Y-2.06
X4.6545Y-2.4341
X4.6545Y-2.7293
X4.6545Y-3.1033
X4.6545Y-3.3986
X4.6821Y-0.4795
X4.6821Y-1.1488
X4.6821Y-1.8181
X4.6821Y-2.4874
X4.6821Y-3.1567
X4.7047Y-0.6967
X4.7047Y-1.3659
X4.7047Y-2.0352
X4.7047Y-2.7045
X4.7047Y-3.3738
X4.7343Y-0.7244
X4.7343Y-1.3937
X4.7343Y-2.063
X4.7343Y-2.7323
X4.7343Y-3.4016
T2
X2.5787Y-0.5492
X2.5787Y-0.6299
X2.5787Y-1.2185
X2.5787Y-1.2992
X2.5787Y-1.8878
X2.5787Y-1.9685
X2.5787Y-2.5571
X2.5787Y-2.6378
X2.5787Y-3.2264
X2.5787Y-3.3071
X2.5984Y-0.4528
X2.5984Y-0.7264
X2.5984Y-1.122
X2.5984Y-1.3957
X2.5984Y-1.7913
X2.5984Y-2.065
X2.5984Y-2.4606
X2.5984Y-2.7343
X2.5984Y-3.1299
X2.5984Y-3.4035
X5.1969Y-0.5492
X5.1969Y-0.6299
X5.1969Y-1.2185
X5.1969Y-1.2992
X5.1969Y-1.8878
X5.1969Y-1.9685
X5.1969Y-2.5571
X5.1969Y-2.6378
X5.1969Y-3.2264
X5.1969Y-3.3071
X5.2165Y-0.4528
X5.2165Y-0.7264
X5.2165Y-1.122
X5.2165Y-1.3957
X5.2165Y-1.7913
X5.2165Y-2.065
X5.2165Y-2.4606
X5.2165Y-2.7343
X5.2165Y-3.1299
X5.2165Y-3.4035
T3
X1.4291Y-0.5079
X1.4291Y-0.6079
X1.4291Y-0.7079
X1.4291Y-0.8079
X1.4291Y-1.1772
X1.4291Y-1.2772
X1.4291Y-1.3772
X1.4291Y-1.4772
X1.4291Y-1.8465
X1.4291Y-1.9465
X1.4291Y-2.0465
X1.4291Y-2.1465
X1.4291Y-2.5157
X1.4291Y-2.6157
X1.4291Y-2.7157
X1.4291Y-2.8157
X1.4291Y-3.185
X1.4291Y-3.285
X1.4291Y-3.385
X1.4291Y-3.485
X4.0472Y-0.5079
X4.0472Y-0.6079
X4.0472Y-0.7079
X4.0472Y-0.8079
X4.0472Y-1.1772
X4.0472Y-1.2772
X4.0472Y-1.3772
X4.0472Y-1.4772
X4.0472Y-1.8465
X4.0472Y-1.9465
X4.0472Y-2.0465
X4.0472Y-2.1465
X4.0472Y-2.5157
X4.0472Y-2.6157
X4.0472Y-2.7157
X4.0472Y-2.8157
X4.0472Y-3.185
X4.0472Y-3.285
X4.0472Y-3.385
X4.0472Y-3.485
M30
