%TF.GenerationSoftware,KiCad,Pcbnew,8.0.4*%
%TF.CreationDate,2024-10-06T23:42:52+02:00*%
%TF.ProjectId,elrs-sim-panel,656c7273-2d73-4696-9d2d-70616e656c2e,rev?*%
%TF.SameCoordinates,Original*%
%TF.FileFunction,Other,Comment*%
%FSLAX46Y46*%
G04 Gerber Fmt 4.6, Leading zero omitted, Abs format (unit mm)*
G04 Created by KiCad (PCBNEW 8.0.4) date 2024-10-06 23:42:52*
%MOMM*%
%LPD*%
G01*
G04 APERTURE LIST*
%ADD10C,0.300000*%
G04 APERTURE END LIST*
D10*
X-3000000Y-59000000D02*
X149000000Y-59000000D01*
X-3000000Y-90000000D02*
X149000000Y-90000000D01*
X-3000000Y-73000000D02*
X149000000Y-73000000D01*
X-3000000Y-25000000D02*
X149000000Y-25000000D01*
X71500000Y3000000D02*
X71500000Y-101000000D01*
X-3000000Y-8000000D02*
X149000000Y-8000000D01*
X8000000Y3000000D02*
X8000000Y-101000000D01*
X74500000Y3000000D02*
X74500000Y-101000000D01*
X-3000000Y-56000000D02*
X149000000Y-56000000D01*
X138000000Y3000000D02*
X138000000Y-101000000D01*
X-3000000Y-42000000D02*
X149000000Y-42000000D01*
X-3000000Y-22000000D02*
X149000000Y-22000000D01*
X-3000000Y-76000000D02*
X149000000Y-76000000D01*
X-3000000Y-39000000D02*
X149000000Y-39000000D01*
X70409638Y6387845D02*
X72409638Y7054511D01*
X72409638Y7054511D02*
X70409638Y7721178D01*
X71647733Y8387845D02*
X71647733Y9911654D01*
X72219161Y12006892D02*
X72314400Y11911654D01*
X72314400Y11911654D02*
X72409638Y11625940D01*
X72409638Y11625940D02*
X72409638Y11435464D01*
X72409638Y11435464D02*
X72314400Y11149749D01*
X72314400Y11149749D02*
X72123923Y10959273D01*
X72123923Y10959273D02*
X71933447Y10864035D01*
X71933447Y10864035D02*
X71552495Y10768797D01*
X71552495Y10768797D02*
X71266780Y10768797D01*
X71266780Y10768797D02*
X70885828Y10864035D01*
X70885828Y10864035D02*
X70695352Y10959273D01*
X70695352Y10959273D02*
X70504876Y11149749D01*
X70504876Y11149749D02*
X70409638Y11435464D01*
X70409638Y11435464D02*
X70409638Y11625940D01*
X70409638Y11625940D02*
X70504876Y11911654D01*
X70504876Y11911654D02*
X70600114Y12006892D01*
X70409638Y12864035D02*
X72028685Y12864035D01*
X72028685Y12864035D02*
X72219161Y12959273D01*
X72219161Y12959273D02*
X72314400Y13054511D01*
X72314400Y13054511D02*
X72409638Y13244987D01*
X72409638Y13244987D02*
X72409638Y13625940D01*
X72409638Y13625940D02*
X72314400Y13816416D01*
X72314400Y13816416D02*
X72219161Y13911654D01*
X72219161Y13911654D02*
X72028685Y14006892D01*
X72028685Y14006892D02*
X70409638Y14006892D01*
X70409638Y14673559D02*
X70409638Y15816416D01*
X72409638Y15244987D02*
X70409638Y15244987D01*
X152387844Y-71909638D02*
X153054510Y-73909638D01*
X153054510Y-73909638D02*
X153721177Y-71909638D01*
X154387844Y-73147733D02*
X155911654Y-73147733D01*
X158006891Y-73719161D02*
X157911653Y-73814400D01*
X157911653Y-73814400D02*
X157625939Y-73909638D01*
X157625939Y-73909638D02*
X157435463Y-73909638D01*
X157435463Y-73909638D02*
X157149748Y-73814400D01*
X157149748Y-73814400D02*
X156959272Y-73623923D01*
X156959272Y-73623923D02*
X156864034Y-73433447D01*
X156864034Y-73433447D02*
X156768796Y-73052495D01*
X156768796Y-73052495D02*
X156768796Y-72766780D01*
X156768796Y-72766780D02*
X156864034Y-72385828D01*
X156864034Y-72385828D02*
X156959272Y-72195352D01*
X156959272Y-72195352D02*
X157149748Y-72004876D01*
X157149748Y-72004876D02*
X157435463Y-71909638D01*
X157435463Y-71909638D02*
X157625939Y-71909638D01*
X157625939Y-71909638D02*
X157911653Y-72004876D01*
X157911653Y-72004876D02*
X158006891Y-72100114D01*
X158864034Y-71909638D02*
X158864034Y-73528685D01*
X158864034Y-73528685D02*
X158959272Y-73719161D01*
X158959272Y-73719161D02*
X159054510Y-73814400D01*
X159054510Y-73814400D02*
X159244986Y-73909638D01*
X159244986Y-73909638D02*
X159625939Y-73909638D01*
X159625939Y-73909638D02*
X159816415Y-73814400D01*
X159816415Y-73814400D02*
X159911653Y-73719161D01*
X159911653Y-73719161D02*
X160006891Y-73528685D01*
X160006891Y-73528685D02*
X160006891Y-71909638D01*
X160673558Y-71909638D02*
X161816415Y-71909638D01*
X161244986Y-73909638D02*
X161244986Y-71909638D01*
X152387844Y-37909638D02*
X153054510Y-39909638D01*
X153054510Y-39909638D02*
X153721177Y-37909638D01*
X154387844Y-39147733D02*
X155911654Y-39147733D01*
X158006891Y-39719161D02*
X157911653Y-39814400D01*
X157911653Y-39814400D02*
X157625939Y-39909638D01*
X157625939Y-39909638D02*
X157435463Y-39909638D01*
X157435463Y-39909638D02*
X157149748Y-39814400D01*
X157149748Y-39814400D02*
X156959272Y-39623923D01*
X156959272Y-39623923D02*
X156864034Y-39433447D01*
X156864034Y-39433447D02*
X156768796Y-39052495D01*
X156768796Y-39052495D02*
X156768796Y-38766780D01*
X156768796Y-38766780D02*
X156864034Y-38385828D01*
X156864034Y-38385828D02*
X156959272Y-38195352D01*
X156959272Y-38195352D02*
X157149748Y-38004876D01*
X157149748Y-38004876D02*
X157435463Y-37909638D01*
X157435463Y-37909638D02*
X157625939Y-37909638D01*
X157625939Y-37909638D02*
X157911653Y-38004876D01*
X157911653Y-38004876D02*
X158006891Y-38100114D01*
X158864034Y-37909638D02*
X158864034Y-39528685D01*
X158864034Y-39528685D02*
X158959272Y-39719161D01*
X158959272Y-39719161D02*
X159054510Y-39814400D01*
X159054510Y-39814400D02*
X159244986Y-39909638D01*
X159244986Y-39909638D02*
X159625939Y-39909638D01*
X159625939Y-39909638D02*
X159816415Y-39814400D01*
X159816415Y-39814400D02*
X159911653Y-39719161D01*
X159911653Y-39719161D02*
X160006891Y-39528685D01*
X160006891Y-39528685D02*
X160006891Y-37909638D01*
X160673558Y-37909638D02*
X161816415Y-37909638D01*
X161244986Y-39909638D02*
X161244986Y-37909638D01*
X136909638Y6387845D02*
X138909638Y7054511D01*
X138909638Y7054511D02*
X136909638Y7721178D01*
X138147733Y8387845D02*
X138147733Y9911654D01*
X138719161Y12006892D02*
X138814400Y11911654D01*
X138814400Y11911654D02*
X138909638Y11625940D01*
X138909638Y11625940D02*
X138909638Y11435464D01*
X138909638Y11435464D02*
X138814400Y11149749D01*
X138814400Y11149749D02*
X138623923Y10959273D01*
X138623923Y10959273D02*
X138433447Y10864035D01*
X138433447Y10864035D02*
X138052495Y10768797D01*
X138052495Y10768797D02*
X137766780Y10768797D01*
X137766780Y10768797D02*
X137385828Y10864035D01*
X137385828Y10864035D02*
X137195352Y10959273D01*
X137195352Y10959273D02*
X137004876Y11149749D01*
X137004876Y11149749D02*
X136909638Y11435464D01*
X136909638Y11435464D02*
X136909638Y11625940D01*
X136909638Y11625940D02*
X137004876Y11911654D01*
X137004876Y11911654D02*
X137100114Y12006892D01*
X136909638Y12864035D02*
X138528685Y12864035D01*
X138528685Y12864035D02*
X138719161Y12959273D01*
X138719161Y12959273D02*
X138814400Y13054511D01*
X138814400Y13054511D02*
X138909638Y13244987D01*
X138909638Y13244987D02*
X138909638Y13625940D01*
X138909638Y13625940D02*
X138814400Y13816416D01*
X138814400Y13816416D02*
X138719161Y13911654D01*
X138719161Y13911654D02*
X138528685Y14006892D01*
X138528685Y14006892D02*
X136909638Y14006892D01*
X136909638Y14673559D02*
X136909638Y15816416D01*
X138909638Y15244987D02*
X136909638Y15244987D01*
X6909638Y6387845D02*
X8909638Y7054511D01*
X8909638Y7054511D02*
X6909638Y7721178D01*
X8147733Y8387845D02*
X8147733Y9911654D01*
X8719161Y12006892D02*
X8814400Y11911654D01*
X8814400Y11911654D02*
X8909638Y11625940D01*
X8909638Y11625940D02*
X8909638Y11435464D01*
X8909638Y11435464D02*
X8814400Y11149749D01*
X8814400Y11149749D02*
X8623923Y10959273D01*
X8623923Y10959273D02*
X8433447Y10864035D01*
X8433447Y10864035D02*
X8052495Y10768797D01*
X8052495Y10768797D02*
X7766780Y10768797D01*
X7766780Y10768797D02*
X7385828Y10864035D01*
X7385828Y10864035D02*
X7195352Y10959273D01*
X7195352Y10959273D02*
X7004876Y11149749D01*
X7004876Y11149749D02*
X6909638Y11435464D01*
X6909638Y11435464D02*
X6909638Y11625940D01*
X6909638Y11625940D02*
X7004876Y11911654D01*
X7004876Y11911654D02*
X7100114Y12006892D01*
X6909638Y12864035D02*
X8528685Y12864035D01*
X8528685Y12864035D02*
X8719161Y12959273D01*
X8719161Y12959273D02*
X8814400Y13054511D01*
X8814400Y13054511D02*
X8909638Y13244987D01*
X8909638Y13244987D02*
X8909638Y13625940D01*
X8909638Y13625940D02*
X8814400Y13816416D01*
X8814400Y13816416D02*
X8719161Y13911654D01*
X8719161Y13911654D02*
X8528685Y14006892D01*
X8528685Y14006892D02*
X6909638Y14006892D01*
X6909638Y14673559D02*
X6909638Y15816416D01*
X8909638Y15244987D02*
X6909638Y15244987D01*
X152387844Y-88909638D02*
X153054510Y-90909638D01*
X153054510Y-90909638D02*
X153721177Y-88909638D01*
X154387844Y-90147733D02*
X155911654Y-90147733D01*
X158006891Y-90719161D02*
X157911653Y-90814400D01*
X157911653Y-90814400D02*
X157625939Y-90909638D01*
X157625939Y-90909638D02*
X157435463Y-90909638D01*
X157435463Y-90909638D02*
X157149748Y-90814400D01*
X157149748Y-90814400D02*
X156959272Y-90623923D01*
X156959272Y-90623923D02*
X156864034Y-90433447D01*
X156864034Y-90433447D02*
X156768796Y-90052495D01*
X156768796Y-90052495D02*
X156768796Y-89766780D01*
X156768796Y-89766780D02*
X156864034Y-89385828D01*
X156864034Y-89385828D02*
X156959272Y-89195352D01*
X156959272Y-89195352D02*
X157149748Y-89004876D01*
X157149748Y-89004876D02*
X157435463Y-88909638D01*
X157435463Y-88909638D02*
X157625939Y-88909638D01*
X157625939Y-88909638D02*
X157911653Y-89004876D01*
X157911653Y-89004876D02*
X158006891Y-89100114D01*
X158864034Y-88909638D02*
X158864034Y-90528685D01*
X158864034Y-90528685D02*
X158959272Y-90719161D01*
X158959272Y-90719161D02*
X159054510Y-90814400D01*
X159054510Y-90814400D02*
X159244986Y-90909638D01*
X159244986Y-90909638D02*
X159625939Y-90909638D01*
X159625939Y-90909638D02*
X159816415Y-90814400D01*
X159816415Y-90814400D02*
X159911653Y-90719161D01*
X159911653Y-90719161D02*
X160006891Y-90528685D01*
X160006891Y-90528685D02*
X160006891Y-88909638D01*
X160673558Y-88909638D02*
X161816415Y-88909638D01*
X161244986Y-90909638D02*
X161244986Y-88909638D01*
X152387844Y-54909638D02*
X153054510Y-56909638D01*
X153054510Y-56909638D02*
X153721177Y-54909638D01*
X154387844Y-56147733D02*
X155911654Y-56147733D01*
X158006891Y-56719161D02*
X157911653Y-56814400D01*
X157911653Y-56814400D02*
X157625939Y-56909638D01*
X157625939Y-56909638D02*
X157435463Y-56909638D01*
X157435463Y-56909638D02*
X157149748Y-56814400D01*
X157149748Y-56814400D02*
X156959272Y-56623923D01*
X156959272Y-56623923D02*
X156864034Y-56433447D01*
X156864034Y-56433447D02*
X156768796Y-56052495D01*
X156768796Y-56052495D02*
X156768796Y-55766780D01*
X156768796Y-55766780D02*
X156864034Y-55385828D01*
X156864034Y-55385828D02*
X156959272Y-55195352D01*
X156959272Y-55195352D02*
X157149748Y-55004876D01*
X157149748Y-55004876D02*
X157435463Y-54909638D01*
X157435463Y-54909638D02*
X157625939Y-54909638D01*
X157625939Y-54909638D02*
X157911653Y-55004876D01*
X157911653Y-55004876D02*
X158006891Y-55100114D01*
X158864034Y-54909638D02*
X158864034Y-56528685D01*
X158864034Y-56528685D02*
X158959272Y-56719161D01*
X158959272Y-56719161D02*
X159054510Y-56814400D01*
X159054510Y-56814400D02*
X159244986Y-56909638D01*
X159244986Y-56909638D02*
X159625939Y-56909638D01*
X159625939Y-56909638D02*
X159816415Y-56814400D01*
X159816415Y-56814400D02*
X159911653Y-56719161D01*
X159911653Y-56719161D02*
X160006891Y-56528685D01*
X160006891Y-56528685D02*
X160006891Y-54909638D01*
X160673558Y-54909638D02*
X161816415Y-54909638D01*
X161244986Y-56909638D02*
X161244986Y-54909638D01*
X152387844Y-40909638D02*
X153054510Y-42909638D01*
X153054510Y-42909638D02*
X153721177Y-40909638D01*
X154387844Y-42147733D02*
X155911654Y-42147733D01*
X158006891Y-42719161D02*
X157911653Y-42814400D01*
X157911653Y-42814400D02*
X157625939Y-42909638D01*
X157625939Y-42909638D02*
X157435463Y-42909638D01*
X157435463Y-42909638D02*
X157149748Y-42814400D01*
X157149748Y-42814400D02*
X156959272Y-42623923D01*
X156959272Y-42623923D02*
X156864034Y-42433447D01*
X156864034Y-42433447D02*
X156768796Y-42052495D01*
X156768796Y-42052495D02*
X156768796Y-41766780D01*
X156768796Y-41766780D02*
X156864034Y-41385828D01*
X156864034Y-41385828D02*
X156959272Y-41195352D01*
X156959272Y-41195352D02*
X157149748Y-41004876D01*
X157149748Y-41004876D02*
X157435463Y-40909638D01*
X157435463Y-40909638D02*
X157625939Y-40909638D01*
X157625939Y-40909638D02*
X157911653Y-41004876D01*
X157911653Y-41004876D02*
X158006891Y-41100114D01*
X158864034Y-40909638D02*
X158864034Y-42528685D01*
X158864034Y-42528685D02*
X158959272Y-42719161D01*
X158959272Y-42719161D02*
X159054510Y-42814400D01*
X159054510Y-42814400D02*
X159244986Y-42909638D01*
X159244986Y-42909638D02*
X159625939Y-42909638D01*
X159625939Y-42909638D02*
X159816415Y-42814400D01*
X159816415Y-42814400D02*
X159911653Y-42719161D01*
X159911653Y-42719161D02*
X160006891Y-42528685D01*
X160006891Y-42528685D02*
X160006891Y-40909638D01*
X160673558Y-40909638D02*
X161816415Y-40909638D01*
X161244986Y-42909638D02*
X161244986Y-40909638D01*
X152387844Y-20909638D02*
X153054510Y-22909638D01*
X153054510Y-22909638D02*
X153721177Y-20909638D01*
X154387844Y-22147733D02*
X155911654Y-22147733D01*
X158006891Y-22719161D02*
X157911653Y-22814400D01*
X157911653Y-22814400D02*
X157625939Y-22909638D01*
X157625939Y-22909638D02*
X157435463Y-22909638D01*
X157435463Y-22909638D02*
X157149748Y-22814400D01*
X157149748Y-22814400D02*
X156959272Y-22623923D01*
X156959272Y-22623923D02*
X156864034Y-22433447D01*
X156864034Y-22433447D02*
X156768796Y-22052495D01*
X156768796Y-22052495D02*
X156768796Y-21766780D01*
X156768796Y-21766780D02*
X156864034Y-21385828D01*
X156864034Y-21385828D02*
X156959272Y-21195352D01*
X156959272Y-21195352D02*
X157149748Y-21004876D01*
X157149748Y-21004876D02*
X157435463Y-20909638D01*
X157435463Y-20909638D02*
X157625939Y-20909638D01*
X157625939Y-20909638D02*
X157911653Y-21004876D01*
X157911653Y-21004876D02*
X158006891Y-21100114D01*
X158864034Y-20909638D02*
X158864034Y-22528685D01*
X158864034Y-22528685D02*
X158959272Y-22719161D01*
X158959272Y-22719161D02*
X159054510Y-22814400D01*
X159054510Y-22814400D02*
X159244986Y-22909638D01*
X159244986Y-22909638D02*
X159625939Y-22909638D01*
X159625939Y-22909638D02*
X159816415Y-22814400D01*
X159816415Y-22814400D02*
X159911653Y-22719161D01*
X159911653Y-22719161D02*
X160006891Y-22528685D01*
X160006891Y-22528685D02*
X160006891Y-20909638D01*
X160673558Y-20909638D02*
X161816415Y-20909638D01*
X161244986Y-22909638D02*
X161244986Y-20909638D01*
X152387844Y-74909638D02*
X153054510Y-76909638D01*
X153054510Y-76909638D02*
X153721177Y-74909638D01*
X154387844Y-76147733D02*
X155911654Y-76147733D01*
X158006891Y-76719161D02*
X157911653Y-76814400D01*
X157911653Y-76814400D02*
X157625939Y-76909638D01*
X157625939Y-76909638D02*
X157435463Y-76909638D01*
X157435463Y-76909638D02*
X157149748Y-76814400D01*
X157149748Y-76814400D02*
X156959272Y-76623923D01*
X156959272Y-76623923D02*
X156864034Y-76433447D01*
X156864034Y-76433447D02*
X156768796Y-76052495D01*
X156768796Y-76052495D02*
X156768796Y-75766780D01*
X156768796Y-75766780D02*
X156864034Y-75385828D01*
X156864034Y-75385828D02*
X156959272Y-75195352D01*
X156959272Y-75195352D02*
X157149748Y-75004876D01*
X157149748Y-75004876D02*
X157435463Y-74909638D01*
X157435463Y-74909638D02*
X157625939Y-74909638D01*
X157625939Y-74909638D02*
X157911653Y-75004876D01*
X157911653Y-75004876D02*
X158006891Y-75100114D01*
X158864034Y-74909638D02*
X158864034Y-76528685D01*
X158864034Y-76528685D02*
X158959272Y-76719161D01*
X158959272Y-76719161D02*
X159054510Y-76814400D01*
X159054510Y-76814400D02*
X159244986Y-76909638D01*
X159244986Y-76909638D02*
X159625939Y-76909638D01*
X159625939Y-76909638D02*
X159816415Y-76814400D01*
X159816415Y-76814400D02*
X159911653Y-76719161D01*
X159911653Y-76719161D02*
X160006891Y-76528685D01*
X160006891Y-76528685D02*
X160006891Y-74909638D01*
X160673558Y-74909638D02*
X161816415Y-74909638D01*
X161244986Y-76909638D02*
X161244986Y-74909638D01*
X152387844Y-57909638D02*
X153054510Y-59909638D01*
X153054510Y-59909638D02*
X153721177Y-57909638D01*
X154387844Y-59147733D02*
X155911654Y-59147733D01*
X158006891Y-59719161D02*
X157911653Y-59814400D01*
X157911653Y-59814400D02*
X157625939Y-59909638D01*
X157625939Y-59909638D02*
X157435463Y-59909638D01*
X157435463Y-59909638D02*
X157149748Y-59814400D01*
X157149748Y-59814400D02*
X156959272Y-59623923D01*
X156959272Y-59623923D02*
X156864034Y-59433447D01*
X156864034Y-59433447D02*
X156768796Y-59052495D01*
X156768796Y-59052495D02*
X156768796Y-58766780D01*
X156768796Y-58766780D02*
X156864034Y-58385828D01*
X156864034Y-58385828D02*
X156959272Y-58195352D01*
X156959272Y-58195352D02*
X157149748Y-58004876D01*
X157149748Y-58004876D02*
X157435463Y-57909638D01*
X157435463Y-57909638D02*
X157625939Y-57909638D01*
X157625939Y-57909638D02*
X157911653Y-58004876D01*
X157911653Y-58004876D02*
X158006891Y-58100114D01*
X158864034Y-57909638D02*
X158864034Y-59528685D01*
X158864034Y-59528685D02*
X158959272Y-59719161D01*
X158959272Y-59719161D02*
X159054510Y-59814400D01*
X159054510Y-59814400D02*
X159244986Y-59909638D01*
X159244986Y-59909638D02*
X159625939Y-59909638D01*
X159625939Y-59909638D02*
X159816415Y-59814400D01*
X159816415Y-59814400D02*
X159911653Y-59719161D01*
X159911653Y-59719161D02*
X160006891Y-59528685D01*
X160006891Y-59528685D02*
X160006891Y-57909638D01*
X160673558Y-57909638D02*
X161816415Y-57909638D01*
X161244986Y-59909638D02*
X161244986Y-57909638D01*
X152387844Y-23909638D02*
X153054510Y-25909638D01*
X153054510Y-25909638D02*
X153721177Y-23909638D01*
X154387844Y-25147733D02*
X155911654Y-25147733D01*
X158006891Y-25719161D02*
X157911653Y-25814400D01*
X157911653Y-25814400D02*
X157625939Y-25909638D01*
X157625939Y-25909638D02*
X157435463Y-25909638D01*
X157435463Y-25909638D02*
X157149748Y-25814400D01*
X157149748Y-25814400D02*
X156959272Y-25623923D01*
X156959272Y-25623923D02*
X156864034Y-25433447D01*
X156864034Y-25433447D02*
X156768796Y-25052495D01*
X156768796Y-25052495D02*
X156768796Y-24766780D01*
X156768796Y-24766780D02*
X156864034Y-24385828D01*
X156864034Y-24385828D02*
X156959272Y-24195352D01*
X156959272Y-24195352D02*
X157149748Y-24004876D01*
X157149748Y-24004876D02*
X157435463Y-23909638D01*
X157435463Y-23909638D02*
X157625939Y-23909638D01*
X157625939Y-23909638D02*
X157911653Y-24004876D01*
X157911653Y-24004876D02*
X158006891Y-24100114D01*
X158864034Y-23909638D02*
X158864034Y-25528685D01*
X158864034Y-25528685D02*
X158959272Y-25719161D01*
X158959272Y-25719161D02*
X159054510Y-25814400D01*
X159054510Y-25814400D02*
X159244986Y-25909638D01*
X159244986Y-25909638D02*
X159625939Y-25909638D01*
X159625939Y-25909638D02*
X159816415Y-25814400D01*
X159816415Y-25814400D02*
X159911653Y-25719161D01*
X159911653Y-25719161D02*
X160006891Y-25528685D01*
X160006891Y-25528685D02*
X160006891Y-23909638D01*
X160673558Y-23909638D02*
X161816415Y-23909638D01*
X161244986Y-25909638D02*
X161244986Y-23909638D01*
X73409638Y6387845D02*
X75409638Y7054511D01*
X75409638Y7054511D02*
X73409638Y7721178D01*
X74647733Y8387845D02*
X74647733Y9911654D01*
X75219161Y12006892D02*
X75314400Y11911654D01*
X75314400Y11911654D02*
X75409638Y11625940D01*
X75409638Y11625940D02*
X75409638Y11435464D01*
X75409638Y11435464D02*
X75314400Y11149749D01*
X75314400Y11149749D02*
X75123923Y10959273D01*
X75123923Y10959273D02*
X74933447Y10864035D01*
X74933447Y10864035D02*
X74552495Y10768797D01*
X74552495Y10768797D02*
X74266780Y10768797D01*
X74266780Y10768797D02*
X73885828Y10864035D01*
X73885828Y10864035D02*
X73695352Y10959273D01*
X73695352Y10959273D02*
X73504876Y11149749D01*
X73504876Y11149749D02*
X73409638Y11435464D01*
X73409638Y11435464D02*
X73409638Y11625940D01*
X73409638Y11625940D02*
X73504876Y11911654D01*
X73504876Y11911654D02*
X73600114Y12006892D01*
X73409638Y12864035D02*
X75028685Y12864035D01*
X75028685Y12864035D02*
X75219161Y12959273D01*
X75219161Y12959273D02*
X75314400Y13054511D01*
X75314400Y13054511D02*
X75409638Y13244987D01*
X75409638Y13244987D02*
X75409638Y13625940D01*
X75409638Y13625940D02*
X75314400Y13816416D01*
X75314400Y13816416D02*
X75219161Y13911654D01*
X75219161Y13911654D02*
X75028685Y14006892D01*
X75028685Y14006892D02*
X73409638Y14006892D01*
X73409638Y14673559D02*
X73409638Y15816416D01*
X75409638Y15244987D02*
X73409638Y15244987D01*
X152387844Y-6909638D02*
X153054510Y-8909638D01*
X153054510Y-8909638D02*
X153721177Y-6909638D01*
X154387844Y-8147733D02*
X155911654Y-8147733D01*
X158006891Y-8719161D02*
X157911653Y-8814400D01*
X157911653Y-8814400D02*
X157625939Y-8909638D01*
X157625939Y-8909638D02*
X157435463Y-8909638D01*
X157435463Y-8909638D02*
X157149748Y-8814400D01*
X157149748Y-8814400D02*
X156959272Y-8623923D01*
X156959272Y-8623923D02*
X156864034Y-8433447D01*
X156864034Y-8433447D02*
X156768796Y-8052495D01*
X156768796Y-8052495D02*
X156768796Y-7766780D01*
X156768796Y-7766780D02*
X156864034Y-7385828D01*
X156864034Y-7385828D02*
X156959272Y-7195352D01*
X156959272Y-7195352D02*
X157149748Y-7004876D01*
X157149748Y-7004876D02*
X157435463Y-6909638D01*
X157435463Y-6909638D02*
X157625939Y-6909638D01*
X157625939Y-6909638D02*
X157911653Y-7004876D01*
X157911653Y-7004876D02*
X158006891Y-7100114D01*
X158864034Y-6909638D02*
X158864034Y-8528685D01*
X158864034Y-8528685D02*
X158959272Y-8719161D01*
X158959272Y-8719161D02*
X159054510Y-8814400D01*
X159054510Y-8814400D02*
X159244986Y-8909638D01*
X159244986Y-8909638D02*
X159625939Y-8909638D01*
X159625939Y-8909638D02*
X159816415Y-8814400D01*
X159816415Y-8814400D02*
X159911653Y-8719161D01*
X159911653Y-8719161D02*
X160006891Y-8528685D01*
X160006891Y-8528685D02*
X160006891Y-6909638D01*
X160673558Y-6909638D02*
X161816415Y-6909638D01*
X161244986Y-8909638D02*
X161244986Y-6909638D01*
M02*
