M48
; DRILL file {KiCad 8.0.4} date 2024-09-02T22:56:13+0200
; FORMAT={-:-/ absolute / inch / decimal}
; #@! TF.CreationDate,2024-09-02T22:56:13+02:00
; #@! TF.GenerationSoftware,Kicad,Pcbnew,8.0.4
; #@! TF.FileFunction,Plated,1,4,PTH
FMAT,2
INCH
; #@! TA.AperFunction,Plated,PTH,ViaDrill
T1C0.0079
; #@! TA.AperFunction,Plated,PTH,ComponentDrill
T2C0.0197
; #@! TA.AperFunction,Plated,PTH,ComponentDrill
T3C0.0394
%
G90
G05
T1
X4.5866Y-4.4301
X4.6063Y-4.253
X4.6063Y-4.3337
X4.8701Y-4.4646
X4.9055Y-4.5118
X4.9409Y-4.3858
X4.9409Y-4.4252
X4.9409Y-4.4646
X5.0039Y-4.2638
X5.0039Y-4.2874
X5.0079Y-4.3701
X5.0079Y-4.4094
X5.0079Y-4.4488
X5.0236Y-4.1693
X5.0236Y-4.5354
X5.0748Y-4.5236
X5.0827Y-4.252
X5.1063Y-4.3504
X5.1063Y-4.5236
X5.1299Y-4.5354
X5.1457Y-4.251
X5.2283Y-4.5079
X5.2362Y-4.0827
X5.2402Y-4.4843
X5.248Y-4.122
X5.248Y-4.1535
X5.252Y-4.5079
X5.2731Y-4.3351
X5.2756Y-4.0512
X5.2835Y-4.185
X5.3031Y-4.0512
X5.315Y-4.3898
X5.3228Y-4.3189
X5.3346Y-4.1024
X5.3425Y-4.2638
X5.3465Y-4.3189
X5.3661Y-4.185
X5.3662Y-4.2638
X5.3701Y-4.3189
X5.3898Y-4.2638
X5.3937Y-4.185
X5.3937Y-4.4213
X5.4646Y-4.1378
X5.5276Y-4.3386
X5.6339Y-4.1969
X5.6339Y-4.2205
X5.6772Y-4.0827
X5.6821Y-4.2963
X5.6969Y-4.375
X5.7136Y-4.1506
X5.7559Y-4.1457
X5.7726Y-4.4419
X5.7805Y-4.2766
X5.8789Y-4.19
X5.8789Y-4.3671
X5.8789Y-4.3907
X5.8868Y-4.0955
X5.9065Y-4.2254
X5.9065Y-4.249
X5.9065Y-4.2884
X5.9065Y-4.3278
X5.9144Y-4.4183
X5.9301Y-4.3278
X5.9341Y-4.1939
X5.9656Y-4.249
X5.9656Y-4.2726
X5.997Y-4.3789
X6.0758Y-4.3041
X6.0915Y-4.127
X6.0915Y-4.4222
X6.0915Y-4.4459
X6.1152Y-4.4222
X6.1427Y-4.1978
X6.1703Y-4.3711
T2
X6.6339Y-4.25
X6.6339Y-4.3307
X6.6535Y-4.1535
X6.6535Y-4.4272
T3
X5.4764Y-4.2087
X5.4764Y-4.3087
X5.4764Y-4.4087
X5.4764Y-4.5087
M30
