%TF.GenerationSoftware,KiCad,Pcbnew,8.0.4*%
%TF.CreationDate,2024-09-10T21:55:11+02:00*%
%TF.ProjectId,elrs-sim,656c7273-2d73-4696-9d2e-6b696361645f,rev?*%
%TF.SameCoordinates,Original*%
%TF.FileFunction,Copper,L1,Top*%
%TF.FilePolarity,Positive*%
%FSLAX46Y46*%
G04 Gerber Fmt 4.6, Leading zero omitted, Abs format (unit mm)*
G04 Created by KiCad (PCBNEW 8.0.4) date 2024-09-10 21:55:11*
%MOMM*%
%LPD*%
G01*
G04 APERTURE LIST*
G04 Aperture macros list*
%AMRoundRect*
0 Rectangle with rounded corners*
0 $1 Rounding radius*
0 $2 $3 $4 $5 $6 $7 $8 $9 X,Y pos of 4 corners*
0 Add a 4 corners polygon primitive as box body*
4,1,4,$2,$3,$4,$5,$6,$7,$8,$9,$2,$3,0*
0 Add four circle primitives for the rounded corners*
1,1,$1+$1,$2,$3*
1,1,$1+$1,$4,$5*
1,1,$1+$1,$6,$7*
1,1,$1+$1,$8,$9*
0 Add four rect primitives between the rounded corners*
20,1,$1+$1,$2,$3,$4,$5,0*
20,1,$1+$1,$4,$5,$6,$7,0*
20,1,$1+$1,$6,$7,$8,$9,0*
20,1,$1+$1,$8,$9,$2,$3,0*%
%AMFreePoly0*
4,1,6,1.000000,0.000000,0.500000,-0.750000,-0.500000,-0.750000,-0.500000,0.750000,0.500000,0.750000,1.000000,0.000000,1.000000,0.000000,$1*%
%AMFreePoly1*
4,1,6,0.500000,-0.750000,-0.650000,-0.750000,-0.150000,0.000000,-0.650000,0.750000,0.500000,0.750000,0.500000,-0.750000,0.500000,-0.750000,$1*%
G04 Aperture macros list end*
%TA.AperFunction,SMDPad,CuDef*%
%ADD10RoundRect,0.135000X0.185000X-0.135000X0.185000X0.135000X-0.185000X0.135000X-0.185000X-0.135000X0*%
%TD*%
%TA.AperFunction,SMDPad,CuDef*%
%ADD11R,0.600000X0.600000*%
%TD*%
%TA.AperFunction,SMDPad,CuDef*%
%ADD12R,1.450000X0.300000*%
%TD*%
%TA.AperFunction,SMDPad,CuDef*%
%ADD13RoundRect,0.140000X0.170000X-0.140000X0.170000X0.140000X-0.170000X0.140000X-0.170000X-0.140000X0*%
%TD*%
%TA.AperFunction,SMDPad,CuDef*%
%ADD14RoundRect,0.218750X-0.218750X-0.256250X0.218750X-0.256250X0.218750X0.256250X-0.218750X0.256250X0*%
%TD*%
%TA.AperFunction,SMDPad,CuDef*%
%ADD15RoundRect,0.135000X-0.135000X-0.185000X0.135000X-0.185000X0.135000X0.185000X-0.135000X0.185000X0*%
%TD*%
%TA.AperFunction,SMDPad,CuDef*%
%ADD16RoundRect,0.135000X0.135000X0.185000X-0.135000X0.185000X-0.135000X-0.185000X0.135000X-0.185000X0*%
%TD*%
%TA.AperFunction,SMDPad,CuDef*%
%ADD17RoundRect,0.140000X0.140000X0.170000X-0.140000X0.170000X-0.140000X-0.170000X0.140000X-0.170000X0*%
%TD*%
%TA.AperFunction,SMDPad,CuDef*%
%ADD18RoundRect,0.140000X-0.140000X-0.170000X0.140000X-0.170000X0.140000X0.170000X-0.140000X0.170000X0*%
%TD*%
%TA.AperFunction,SMDPad,CuDef*%
%ADD19RoundRect,0.102000X0.373000X0.323000X-0.373000X0.323000X-0.373000X-0.323000X0.373000X-0.323000X0*%
%TD*%
%TA.AperFunction,SMDPad,CuDef*%
%ADD20RoundRect,0.102000X0.323000X-0.373000X0.323000X0.373000X-0.323000X0.373000X-0.323000X-0.373000X0*%
%TD*%
%TA.AperFunction,SMDPad,CuDef*%
%ADD21RoundRect,0.102000X-0.373000X-0.323000X0.373000X-0.323000X0.373000X0.323000X-0.373000X0.323000X0*%
%TD*%
%TA.AperFunction,SMDPad,CuDef*%
%ADD22RoundRect,0.140000X-0.170000X0.140000X-0.170000X-0.140000X0.170000X-0.140000X0.170000X0.140000X0*%
%TD*%
%TA.AperFunction,SMDPad,CuDef*%
%ADD23R,1.000000X2.300000*%
%TD*%
%TA.AperFunction,SMDPad,CuDef*%
%ADD24R,0.300000X0.850000*%
%TD*%
%TA.AperFunction,SMDPad,CuDef*%
%ADD25R,0.850000X0.300000*%
%TD*%
%TA.AperFunction,SMDPad,CuDef*%
%ADD26R,2.650000X2.650000*%
%TD*%
%TA.AperFunction,SMDPad,CuDef*%
%ADD27RoundRect,0.050000X-0.350000X-0.050000X0.350000X-0.050000X0.350000X0.050000X-0.350000X0.050000X0*%
%TD*%
%TA.AperFunction,SMDPad,CuDef*%
%ADD28RoundRect,0.050000X-0.050000X-0.325000X0.050000X-0.325000X0.050000X0.325000X-0.050000X0.325000X0*%
%TD*%
%TA.AperFunction,SMDPad,CuDef*%
%ADD29RoundRect,0.135000X-0.185000X0.135000X-0.185000X-0.135000X0.185000X-0.135000X0.185000X0.135000X0*%
%TD*%
%TA.AperFunction,SMDPad,CuDef*%
%ADD30RoundRect,0.050000X0.050000X-0.387500X0.050000X0.387500X-0.050000X0.387500X-0.050000X-0.387500X0*%
%TD*%
%TA.AperFunction,SMDPad,CuDef*%
%ADD31RoundRect,0.050000X0.387500X-0.050000X0.387500X0.050000X-0.387500X0.050000X-0.387500X-0.050000X0*%
%TD*%
%TA.AperFunction,HeatsinkPad*%
%ADD32R,3.200000X3.200000*%
%TD*%
%TA.AperFunction,SMDPad,CuDef*%
%ADD33RoundRect,0.150000X0.150000X-0.512500X0.150000X0.512500X-0.150000X0.512500X-0.150000X-0.512500X0*%
%TD*%
%TA.AperFunction,SMDPad,CuDef*%
%ADD34RoundRect,0.500000X3.500000X-0.500000X3.500000X0.500000X-3.500000X0.500000X-3.500000X-0.500000X0*%
%TD*%
%TA.AperFunction,SMDPad,CuDef*%
%ADD35RoundRect,0.500000X3.000000X-0.250000X3.000000X0.250000X-3.000000X0.250000X-3.000000X-0.250000X0*%
%TD*%
%TA.AperFunction,SMDPad,CuDef*%
%ADD36FreePoly0,180.000000*%
%TD*%
%TA.AperFunction,SMDPad,CuDef*%
%ADD37FreePoly1,180.000000*%
%TD*%
%TA.AperFunction,SMDPad,CuDef*%
%ADD38R,0.900000X1.700000*%
%TD*%
%TA.AperFunction,SMDPad,CuDef*%
%ADD39RoundRect,0.062500X-0.062500X0.387500X-0.062500X-0.387500X0.062500X-0.387500X0.062500X0.387500X0*%
%TD*%
%TA.AperFunction,HeatsinkPad*%
%ADD40R,1.600000X0.200000*%
%TD*%
%TA.AperFunction,ComponentPad*%
%ADD41R,1.700000X1.700000*%
%TD*%
%TA.AperFunction,ComponentPad*%
%ADD42O,1.700000X1.700000*%
%TD*%
%TA.AperFunction,ComponentPad*%
%ADD43RoundRect,0.500000X-3.500000X0.500000X-3.500000X-0.500000X3.500000X-0.500000X3.500000X0.500000X0*%
%TD*%
%TA.AperFunction,ComponentPad*%
%ADD44RoundRect,0.500000X-3.000000X0.250000X-3.000000X-0.250000X3.000000X-0.250000X3.000000X0.250000X0*%
%TD*%
%TA.AperFunction,SMDPad,CuDef*%
%ADD45R,0.300000X0.800000*%
%TD*%
%TA.AperFunction,SMDPad,CuDef*%
%ADD46R,0.800000X0.300000*%
%TD*%
%TA.AperFunction,SMDPad,CuDef*%
%ADD47R,3.750000X3.750000*%
%TD*%
%TA.AperFunction,SMDPad,CuDef*%
%ADD48R,2.300000X1.000000*%
%TD*%
%TA.AperFunction,ViaPad*%
%ADD49C,0.450000*%
%TD*%
%TA.AperFunction,Conductor*%
%ADD50C,0.300000*%
%TD*%
%TA.AperFunction,Conductor*%
%ADD51C,0.200000*%
%TD*%
G04 APERTURE END LIST*
D10*
%TO.P,R6,1*%
%TO.N,+3.3V_SW*%
X143300000Y-113220000D03*
%TO.P,R6,2*%
%TO.N,Net-(IC2-EXT_RSTB)*%
X143300000Y-112200000D03*
%TD*%
D11*
%TO.P,ANT1,1,IN_(TO_RFIC)*%
%TO.N,Net-(ANT1-IN_(TO_RFIC))*%
X158300000Y-109100000D03*
D12*
%TO.P,ANT1,2,GND*%
%TO.N,GND*%
X158300000Y-109713000D03*
D11*
%TO.P,ANT1,3,OUT_(TO_ANTENNA)*%
%TO.N,Net-(ANT1-OUT_(TO_ANTENNA))*%
X158300000Y-110326000D03*
%TD*%
D13*
%TO.P,C18,1*%
%TO.N,GND*%
X134350000Y-105930000D03*
%TO.P,C18,2*%
%TO.N,+3.3V*%
X134350000Y-104970000D03*
%TD*%
D14*
%TO.P,D2,1,K*%
%TO.N,GND*%
X131212500Y-102800000D03*
%TO.P,D2,2,A*%
%TO.N,Net-(D2-A)*%
X132787500Y-102800000D03*
%TD*%
D15*
%TO.P,R10,1*%
%TO.N,Net-(SW2-B)*%
X131490000Y-105900000D03*
%TO.P,R10,2*%
%TO.N,QSPI_SS*%
X132510000Y-105900000D03*
%TD*%
%TO.P,R14,1*%
%TO.N,USB_DN*%
X124140000Y-104400000D03*
%TO.P,R14,2*%
%TO.N,Net-(U1-USB_DM)*%
X125160000Y-104400000D03*
%TD*%
D16*
%TO.P,R7,1*%
%TO.N,+3.3V_SW*%
X148035000Y-105025000D03*
%TO.P,R7,2*%
%TO.N,ESP_BOOT*%
X147015000Y-105025000D03*
%TD*%
D17*
%TO.P,C1,1*%
%TO.N,+3.3V*%
X127000000Y-115200000D03*
%TO.P,C1,2*%
%TO.N,GND*%
X126040000Y-115200000D03*
%TD*%
%TO.P,C5,1*%
%TO.N,+3.3V*%
X136230000Y-111600000D03*
%TO.P,C5,2*%
%TO.N,GND*%
X135270000Y-111600000D03*
%TD*%
D18*
%TO.P,C10,1*%
%TO.N,+3.3V_SW*%
X146645000Y-112225000D03*
%TO.P,C10,2*%
%TO.N,GND*%
X147605000Y-112225000D03*
%TD*%
D10*
%TO.P,R11,1*%
%TO.N,+3.3V_SW*%
X133400000Y-105960000D03*
%TO.P,R11,2*%
%TO.N,GND*%
X133400000Y-104940000D03*
%TD*%
D18*
%TO.P,C14,1*%
%TO.N,+3.3V*%
X130740000Y-115200000D03*
%TO.P,C14,2*%
%TO.N,GND*%
X131700000Y-115200000D03*
%TD*%
D17*
%TO.P,C13,1*%
%TO.N,+3.3V*%
X125080000Y-109300000D03*
%TO.P,C13,2*%
%TO.N,GND*%
X124120000Y-109300000D03*
%TD*%
D19*
%TO.P,X1,1,EN*%
%TO.N,+3.3V*%
X136150000Y-112850000D03*
%TO.P,X1,2,GND*%
%TO.N,GND*%
X134700000Y-112850000D03*
%TO.P,X1,3,OUT*%
%TO.N,Net-(U1-XIN)*%
X134700000Y-114000000D03*
%TO.P,X1,4,Vdd*%
%TO.N,+3.3V*%
X136150000Y-114000000D03*
%TD*%
D20*
%TO.P,X2,1,EN*%
%TO.N,+3.3V_SW*%
X142975000Y-109925000D03*
%TO.P,X2,2,GND*%
%TO.N,GND*%
X142975000Y-108475000D03*
%TO.P,X2,3,OUT*%
%TO.N,Net-(IC2-XTAL_IN)*%
X141825000Y-108475000D03*
%TO.P,X2,4,Vdd*%
%TO.N,+3.3V_SW*%
X141825000Y-109925000D03*
%TD*%
D13*
%TO.P,C19,1*%
%TO.N,GND*%
X123200000Y-108580000D03*
%TO.P,C19,2*%
%TO.N,Net-(U1-VREG_VOUT)*%
X123200000Y-107620000D03*
%TD*%
D21*
%TO.P,X3,1,GND*%
%TO.N,GND*%
X152225000Y-105975000D03*
%TO.P,X3,2,GND*%
X153675000Y-105975000D03*
%TO.P,X3,3,OUT*%
%TO.N,Net-(IC1-XTA)*%
X153675000Y-104825000D03*
%TO.P,X3,4,Vdd*%
%TO.N,+3.3V_SW*%
X152225000Y-104825000D03*
%TD*%
D22*
%TO.P,C12,1*%
%TO.N,Net-(IC2-EXT_RSTB)*%
X142300000Y-112200000D03*
%TO.P,C12,2*%
%TO.N,GND*%
X142300000Y-113160000D03*
%TD*%
%TO.P,C22,1*%
%TO.N,GND*%
X134350000Y-108170000D03*
%TO.P,C22,2*%
%TO.N,Net-(U1-VREG_VOUT)*%
X134350000Y-109130000D03*
%TD*%
D17*
%TO.P,C21,1*%
%TO.N,+3.3V*%
X125100000Y-106350000D03*
%TO.P,C21,2*%
%TO.N,GND*%
X124140000Y-106350000D03*
%TD*%
D23*
%TO.P,L2,1,ANT*%
%TO.N,LNA*%
X145560000Y-114400000D03*
%TO.P,L2,2,2*%
%TO.N,unconnected-(L2-Pad2)*%
X150640000Y-114400000D03*
%TD*%
D24*
%TO.P,IC1,1,VR_PA*%
%TO.N,Net-(IC1-VR_PA)*%
X155575000Y-107375000D03*
%TO.P,IC1,2,VDD_IN*%
%TO.N,IRS*%
X155075000Y-107375000D03*
%TO.P,IC1,3,NRESET*%
%TO.N,NRST*%
X154575000Y-107375000D03*
%TO.P,IC1,4,XTA*%
%TO.N,Net-(IC1-XTA)*%
X154075000Y-107375000D03*
%TO.P,IC1,5,GND_1*%
%TO.N,GND*%
X153575000Y-107375000D03*
%TO.P,IC1,6,XTB*%
%TO.N,unconnected-(IC1-XTB-Pad6)*%
X153075000Y-107375000D03*
D25*
%TO.P,IC1,7,BUSY*%
%TO.N,BUSY*%
X152375000Y-108075000D03*
%TO.P,IC1,8,DIO1*%
%TO.N,DIO_1*%
X152375000Y-108575000D03*
%TO.P,IC1,9,DIO2*%
%TO.N,unconnected-(IC1-DIO2-Pad9)*%
X152375000Y-109075000D03*
%TO.P,IC1,10,DIO3*%
%TO.N,unconnected-(IC1-DIO3-Pad10)*%
X152375000Y-109575000D03*
%TO.P,IC1,11,VBAT_IO*%
%TO.N,+3.3V_SW*%
X152375000Y-110075000D03*
%TO.P,IC1,12,DCC_FB*%
%TO.N,IRS*%
X152375000Y-110575000D03*
D24*
%TO.P,IC1,13,GND_2*%
%TO.N,GND*%
X153075000Y-111275000D03*
%TO.P,IC1,14,DCC_SW*%
%TO.N,unconnected-(IC1-DCC_SW-Pad14)*%
X153575000Y-111275000D03*
%TO.P,IC1,15,VBAT*%
%TO.N,+3.3V_SW*%
X154075000Y-111275000D03*
%TO.P,IC1,16,MISO_TX*%
%TO.N,ESP_MISO*%
X154575000Y-111275000D03*
%TO.P,IC1,17,MOSI_RX*%
%TO.N,ESP_MOSI*%
X155075000Y-111275000D03*
%TO.P,IC1,18,SCK_RTSN*%
%TO.N,ESP_SCK*%
X155575000Y-111275000D03*
D25*
%TO.P,IC1,19,NSS_CTS*%
%TO.N,NSS*%
X156275000Y-110575000D03*
%TO.P,IC1,20,GND_3*%
%TO.N,GND*%
X156275000Y-110075000D03*
%TO.P,IC1,21,GND_4*%
X156275000Y-109575000D03*
%TO.P,IC1,22,RFIO*%
%TO.N,Net-(ANT1-IN_(TO_RFIC))*%
X156275000Y-109075000D03*
%TO.P,IC1,23,GND_5*%
%TO.N,GND*%
X156275000Y-108575000D03*
%TO.P,IC1,24,GND_6*%
X156275000Y-108075000D03*
D26*
%TO.P,IC1,25,EP*%
X154325000Y-109325000D03*
%TD*%
D22*
%TO.P,C6,1*%
%TO.N,+3.3V_SW*%
X154000000Y-112420000D03*
%TO.P,C6,2*%
%TO.N,GND*%
X154000000Y-113380000D03*
%TD*%
D10*
%TO.P,R4,1*%
%TO.N,RP2040_TX_NC*%
X137400000Y-114510000D03*
%TO.P,R4,2*%
%TO.N,Net-(J2-Pin_4)*%
X137400000Y-113490000D03*
%TD*%
D16*
%TO.P,R15,1*%
%TO.N,Net-(IC2-U0RXD)*%
X143260000Y-106150000D03*
%TO.P,R15,2*%
%TO.N,RP2040_TX_NO*%
X142240000Y-106150000D03*
%TD*%
D27*
%TO.P,S1,1,VCC*%
%TO.N,+3.3V*%
X135500000Y-104825000D03*
%TO.P,S1,2,NO1*%
%TO.N,RP2040_RX_NO*%
X135500000Y-105225000D03*
D28*
%TO.P,S1,3,COM1*%
%TO.N,RP2040_RX*%
X135700000Y-105900000D03*
%TO.P,S1,4,SEL1*%
%TO.N,+3.3V_SW*%
X136100000Y-105900000D03*
%TO.P,S1,5,NC1*%
%TO.N,RP2040_RX_NC*%
X136500000Y-105900000D03*
D27*
%TO.P,S1,6,GND*%
%TO.N,GND*%
X136700000Y-105225000D03*
%TO.P,S1,7,NC2*%
%TO.N,RP2040_TX_NC*%
X136700000Y-104825000D03*
D28*
%TO.P,S1,8,SEL2*%
%TO.N,+3.3V_SW*%
X136500000Y-104150000D03*
%TO.P,S1,9,COM2*%
%TO.N,RP2040_TX*%
X136100000Y-104150000D03*
%TO.P,S1,10,NO2*%
%TO.N,RP2040_TX_NO*%
X135700000Y-104150000D03*
%TD*%
D29*
%TO.P,R2,1*%
%TO.N,NSS*%
X155800000Y-112390000D03*
%TO.P,R2,2*%
%TO.N,GND*%
X155800000Y-113410000D03*
%TD*%
D17*
%TO.P,C4,1*%
%TO.N,+3.3V*%
X125085000Y-110300000D03*
%TO.P,C4,2*%
%TO.N,GND*%
X124125000Y-110300000D03*
%TD*%
D15*
%TO.P,R8,1*%
%TO.N,ESP_LED*%
X146990000Y-104025000D03*
%TO.P,R8,2*%
%TO.N,Net-(D1-A)*%
X148010000Y-104025000D03*
%TD*%
D30*
%TO.P,U1,1,IOVDD*%
%TO.N,+3.3V*%
X127100000Y-113987500D03*
%TO.P,U1,2,GPIO0*%
%TO.N,unconnected-(U1-GPIO0-Pad2)*%
X127500000Y-113987500D03*
%TO.P,U1,3,GPIO1*%
%TO.N,unconnected-(U1-GPIO1-Pad3)*%
X127900000Y-113987500D03*
%TO.P,U1,4,GPIO2*%
%TO.N,unconnected-(U1-GPIO2-Pad4)*%
X128300000Y-113987500D03*
%TO.P,U1,5,GPIO3*%
%TO.N,unconnected-(U1-GPIO3-Pad5)*%
X128700000Y-113987500D03*
%TO.P,U1,6,GPIO4*%
%TO.N,RP2040_TX*%
X129100000Y-113987500D03*
%TO.P,U1,7,GPIO5*%
%TO.N,RP2040_RX*%
X129500000Y-113987500D03*
%TO.P,U1,8,GPIO6*%
%TO.N,unconnected-(U1-GPIO6-Pad8)*%
X129900000Y-113987500D03*
%TO.P,U1,9,GPIO7*%
%TO.N,unconnected-(U1-GPIO7-Pad9)*%
X130300000Y-113987500D03*
%TO.P,U1,10,IOVDD*%
%TO.N,+3.3V*%
X130700000Y-113987500D03*
%TO.P,U1,11,GPIO8*%
%TO.N,unconnected-(U1-GPIO8-Pad11)*%
X131100000Y-113987500D03*
%TO.P,U1,12,GPIO9*%
%TO.N,unconnected-(U1-GPIO9-Pad12)*%
X131500000Y-113987500D03*
%TO.P,U1,13,GPIO10*%
%TO.N,unconnected-(U1-GPIO10-Pad13)*%
X131900000Y-113987500D03*
%TO.P,U1,14,GPIO11*%
%TO.N,unconnected-(U1-GPIO11-Pad14)*%
X132300000Y-113987500D03*
D31*
%TO.P,U1,15,GPIO12*%
%TO.N,unconnected-(U1-GPIO12-Pad15)*%
X133137500Y-113150000D03*
%TO.P,U1,16,GPIO13*%
%TO.N,unconnected-(U1-GPIO13-Pad16)*%
X133137500Y-112750000D03*
%TO.P,U1,17,GPIO14*%
%TO.N,unconnected-(U1-GPIO14-Pad17)*%
X133137500Y-112350000D03*
%TO.P,U1,18,GPIO15*%
%TO.N,unconnected-(U1-GPIO15-Pad18)*%
X133137500Y-111950000D03*
%TO.P,U1,19,TESTEN*%
%TO.N,GND*%
X133137500Y-111550000D03*
%TO.P,U1,20,XIN*%
%TO.N,Net-(U1-XIN)*%
X133137500Y-111150000D03*
%TO.P,U1,21,XOUT*%
%TO.N,unconnected-(U1-XOUT-Pad21)*%
X133137500Y-110750000D03*
%TO.P,U1,22,IOVDD*%
%TO.N,+3.3V*%
X133137500Y-110350000D03*
%TO.P,U1,23,DVDD*%
%TO.N,Net-(U1-VREG_VOUT)*%
X133137500Y-109950000D03*
%TO.P,U1,24,SWCLK*%
%TO.N,unconnected-(U1-SWCLK-Pad24)*%
X133137500Y-109550000D03*
%TO.P,U1,25,SWD*%
%TO.N,unconnected-(U1-SWD-Pad25)*%
X133137500Y-109150000D03*
%TO.P,U1,26,RUN*%
%TO.N,unconnected-(U1-RUN-Pad26)*%
X133137500Y-108750000D03*
%TO.P,U1,27,GPIO16*%
%TO.N,unconnected-(U1-GPIO16-Pad27)*%
X133137500Y-108350000D03*
%TO.P,U1,28,GPIO17*%
%TO.N,unconnected-(U1-GPIO17-Pad28)*%
X133137500Y-107950000D03*
D30*
%TO.P,U1,29,GPIO18*%
%TO.N,unconnected-(U1-GPIO18-Pad29)*%
X132300000Y-107112500D03*
%TO.P,U1,30,GPIO19*%
%TO.N,unconnected-(U1-GPIO19-Pad30)*%
X131900000Y-107112500D03*
%TO.P,U1,31,GPIO20*%
%TO.N,unconnected-(U1-GPIO20-Pad31)*%
X131500000Y-107112500D03*
%TO.P,U1,32,GPIO21*%
%TO.N,unconnected-(U1-GPIO21-Pad32)*%
X131100000Y-107112500D03*
%TO.P,U1,33,IOVDD*%
%TO.N,+3.3V*%
X130700000Y-107112500D03*
%TO.P,U1,34,GPIO22*%
%TO.N,unconnected-(U1-GPIO22-Pad34)*%
X130300000Y-107112500D03*
%TO.P,U1,35,GPIO23*%
%TO.N,unconnected-(U1-GPIO23-Pad35)*%
X129900000Y-107112500D03*
%TO.P,U1,36,GPIO24*%
%TO.N,unconnected-(U1-GPIO24-Pad36)*%
X129500000Y-107112500D03*
%TO.P,U1,37,GPIO25*%
%TO.N,RP2040_LED*%
X129100000Y-107112500D03*
%TO.P,U1,38,GPIO26_ADC0*%
%TO.N,unconnected-(U1-GPIO26_ADC0-Pad38)*%
X128700000Y-107112500D03*
%TO.P,U1,39,GPIO27_ADC1*%
%TO.N,unconnected-(U1-GPIO27_ADC1-Pad39)*%
X128300000Y-107112500D03*
%TO.P,U1,40,GPIO28_ADC2*%
%TO.N,unconnected-(U1-GPIO28_ADC2-Pad40)*%
X127900000Y-107112500D03*
%TO.P,U1,41,GPIO29_ADC3*%
%TO.N,unconnected-(U1-GPIO29_ADC3-Pad41)*%
X127500000Y-107112500D03*
%TO.P,U1,42,IOVDD*%
%TO.N,+3.3V*%
X127100000Y-107112500D03*
D31*
%TO.P,U1,43,ADC_AVDD*%
X126262500Y-107950000D03*
%TO.P,U1,44,VREG_IN*%
X126262500Y-108350000D03*
%TO.P,U1,45,VREG_VOUT*%
%TO.N,Net-(U1-VREG_VOUT)*%
X126262500Y-108750000D03*
%TO.P,U1,46,USB_DM*%
%TO.N,Net-(U1-USB_DM)*%
X126262500Y-109150000D03*
%TO.P,U1,47,USB_DP*%
%TO.N,Net-(U1-USB_DP)*%
X126262500Y-109550000D03*
%TO.P,U1,48,USB_VDD*%
%TO.N,+3.3V*%
X126262500Y-109950000D03*
%TO.P,U1,49,IOVDD*%
X126262500Y-110350000D03*
%TO.P,U1,50,DVDD*%
%TO.N,Net-(U1-VREG_VOUT)*%
X126262500Y-110750000D03*
%TO.P,U1,51,QSPI_SD3*%
%TO.N,QSPI_SD3*%
X126262500Y-111150000D03*
%TO.P,U1,52,QSPI_SCLK*%
%TO.N,QSPI_SCLK*%
X126262500Y-111550000D03*
%TO.P,U1,53,QSPI_SD0*%
%TO.N,QSPI_SD0*%
X126262500Y-111950000D03*
%TO.P,U1,54,QSPI_SD2*%
%TO.N,QSPI_SD2*%
X126262500Y-112350000D03*
%TO.P,U1,55,QSPI_SD1*%
%TO.N,QSPI_SD1*%
X126262500Y-112750000D03*
%TO.P,U1,56,QSPI_SS*%
%TO.N,QSPI_SS*%
X126262500Y-113150000D03*
D32*
%TO.P,U1,57,GND*%
%TO.N,GND*%
X129700000Y-110550000D03*
%TD*%
D33*
%TO.P,PS1,1,VIN*%
%TO.N,USB_VBUS*%
X122900000Y-114087500D03*
%TO.P,PS1,2,GND*%
%TO.N,GND*%
X123850000Y-114087500D03*
%TO.P,PS1,3,EN*%
%TO.N,USB_VBUS*%
X124800000Y-114087500D03*
%TO.P,PS1,4,NC*%
%TO.N,unconnected-(PS1-NC-Pad4)*%
X124800000Y-111812500D03*
%TO.P,PS1,5,VOUT*%
%TO.N,+3.3V*%
X122900000Y-111812500D03*
%TD*%
D10*
%TO.P,R16,1*%
%TO.N,RP2040_RX_NC*%
X137400000Y-112610000D03*
%TO.P,R16,2*%
%TO.N,Net-(J2-Pin_3)*%
X137400000Y-111590000D03*
%TD*%
D17*
%TO.P,C2,1*%
%TO.N,+3.3V*%
X125080000Y-108300000D03*
%TO.P,C2,2*%
%TO.N,GND*%
X124120000Y-108300000D03*
%TD*%
D15*
%TO.P,R13,1*%
%TO.N,USB_DP*%
X124090000Y-105400000D03*
%TO.P,R13,2*%
%TO.N,Net-(U1-USB_DP)*%
X125110000Y-105400000D03*
%TD*%
D34*
%TO.P,J1,1,Pin_1*%
%TO.N,USB_VBUS*%
X116500000Y-112525000D03*
D35*
%TO.P,J1,2,Pin_2*%
%TO.N,USB_DN*%
X117000000Y-110075000D03*
%TO.P,J1,3,Pin_3*%
%TO.N,USB_DP*%
X117000000Y-108025000D03*
D34*
%TO.P,J1,4,Pin_4*%
%TO.N,GND*%
X116500000Y-105575000D03*
%TD*%
D36*
%TO.P,JP1,1,A*%
%TO.N,+3.3V*%
X140225000Y-103700000D03*
D37*
%TO.P,JP1,2,B*%
%TO.N,+3.3V_SW*%
X138775000Y-103700000D03*
%TD*%
D22*
%TO.P,C9,1*%
%TO.N,IRS*%
X151125000Y-110725000D03*
%TO.P,C9,2*%
%TO.N,GND*%
X151125000Y-111685000D03*
%TD*%
%TO.P,C20,1*%
%TO.N,GND*%
X123200000Y-109470000D03*
%TO.P,C20,2*%
%TO.N,Net-(U1-VREG_VOUT)*%
X123200000Y-110430000D03*
%TD*%
D17*
%TO.P,C16,1*%
%TO.N,+3.3V*%
X125080000Y-107300000D03*
%TO.P,C16,2*%
%TO.N,GND*%
X124120000Y-107300000D03*
%TD*%
D16*
%TO.P,R3,1*%
%TO.N,Net-(IC2-U0TXD)*%
X143200000Y-107100000D03*
%TO.P,R3,2*%
%TO.N,RP2040_RX_NO*%
X142180000Y-107100000D03*
%TD*%
D38*
%TO.P,SW2,1,A*%
%TO.N,GND*%
X126300000Y-103700000D03*
%TO.P,SW2,2,B*%
%TO.N,Net-(SW2-B)*%
X129700000Y-103700000D03*
%TD*%
D15*
%TO.P,R5,1*%
%TO.N,GND*%
X142215000Y-111225000D03*
%TO.P,R5,2*%
%TO.N,Net-(IC2-RES12K)*%
X143235000Y-111225000D03*
%TD*%
D39*
%TO.P,U2,1,~{CS}*%
%TO.N,QSPI_SS*%
X136850000Y-107550000D03*
%TO.P,U2,2,DO(IO1)*%
%TO.N,QSPI_SD1*%
X136350000Y-107550000D03*
%TO.P,U2,3,IO2*%
%TO.N,QSPI_SD2*%
X135850000Y-107550000D03*
%TO.P,U2,4,GND*%
%TO.N,GND*%
X135350000Y-107550000D03*
%TO.P,U2,5,DI(IO0)*%
%TO.N,QSPI_SD0*%
X135350000Y-110400000D03*
%TO.P,U2,6,CLK*%
%TO.N,QSPI_SCLK*%
X135850000Y-110400000D03*
%TO.P,U2,7,IO3*%
%TO.N,QSPI_SD3*%
X136350000Y-110400000D03*
%TO.P,U2,8,VCC*%
%TO.N,+3.3V*%
X136850000Y-110400000D03*
D40*
%TO.P,U2,9*%
%TO.N,N/C*%
X136100000Y-108975000D03*
%TD*%
D22*
%TO.P,C15,1*%
%TO.N,+3.3V*%
X134350000Y-110070000D03*
%TO.P,C15,2*%
%TO.N,GND*%
X134350000Y-111030000D03*
%TD*%
%TO.P,C7,1*%
%TO.N,GND*%
X155425000Y-105045000D03*
%TO.P,C7,2*%
%TO.N,IRS*%
X155425000Y-106005000D03*
%TD*%
D14*
%TO.P,D1,1,K*%
%TO.N,GND*%
X147312500Y-102800000D03*
%TO.P,D1,2,A*%
%TO.N,Net-(D1-A)*%
X148887500Y-102800000D03*
%TD*%
D15*
%TO.P,R1,1*%
%TO.N,Net-(IC2-CHIP_EN)*%
X148515000Y-112225000D03*
%TO.P,R1,2*%
%TO.N,+3.3V_SW*%
X149535000Y-112225000D03*
%TD*%
D17*
%TO.P,C17,1*%
%TO.N,+3.3V*%
X127060000Y-105900000D03*
%TO.P,C17,2*%
%TO.N,GND*%
X126100000Y-105900000D03*
%TD*%
D18*
%TO.P,C11,1*%
%TO.N,+3.3V_SW*%
X148945000Y-105025000D03*
%TO.P,C11,2*%
%TO.N,GND*%
X149905000Y-105025000D03*
%TD*%
D41*
%TO.P,J2,1,Pin_1*%
%TO.N,GND*%
X139300000Y-106900000D03*
D42*
%TO.P,J2,2,Pin_2*%
%TO.N,USB_VBUS*%
X139300000Y-109440000D03*
%TO.P,J2,3,Pin_3*%
%TO.N,Net-(J2-Pin_3)*%
X139300000Y-111980000D03*
%TO.P,J2,4,Pin_4*%
%TO.N,Net-(J2-Pin_4)*%
X139300000Y-114520000D03*
%TD*%
D22*
%TO.P,C8,1*%
%TO.N,GND*%
X156525000Y-105045000D03*
%TO.P,C8,2*%
%TO.N,Net-(IC1-VR_PA)*%
X156525000Y-106005000D03*
%TD*%
D43*
%TO.P,J3,1,Pin_1*%
%TO.N,unconnected-(J3-Pin_1-Pad1)*%
X169000000Y-105500000D03*
D44*
%TO.P,J3,2,Pin_2*%
%TO.N,unconnected-(J3-Pin_2-Pad2)*%
X168500000Y-107950000D03*
%TO.P,J3,3,Pin_3*%
%TO.N,unconnected-(J3-Pin_3-Pad3)*%
X168500000Y-110000000D03*
D43*
%TO.P,J3,4,Pin_4*%
%TO.N,unconnected-(J3-Pin_4-Pad4)*%
X169000000Y-112450000D03*
%TD*%
D38*
%TO.P,SW1,1,A*%
%TO.N,ESP_BOOT*%
X145800000Y-103700000D03*
%TO.P,SW1,2,B*%
%TO.N,GND*%
X142400000Y-103700000D03*
%TD*%
D45*
%TO.P,IC2,1,VDDA_1*%
%TO.N,+3.3V_SW*%
X145075000Y-111125000D03*
%TO.P,IC2,2,LNA*%
%TO.N,LNA*%
X145575000Y-111125000D03*
%TO.P,IC2,3,VDD3P3_1*%
%TO.N,+3.3V_SW*%
X146075000Y-111125000D03*
%TO.P,IC2,4,VDD3P3_2*%
X146575000Y-111125000D03*
%TO.P,IC2,5,VDD_RTC*%
%TO.N,unconnected-(IC2-VDD_RTC-Pad5)*%
X147075000Y-111125000D03*
%TO.P,IC2,6,TOUT*%
%TO.N,unconnected-(IC2-TOUT-Pad6)*%
X147575000Y-111125000D03*
%TO.P,IC2,7,CHIP_EN*%
%TO.N,Net-(IC2-CHIP_EN)*%
X148075000Y-111125000D03*
%TO.P,IC2,8,XDP_DCDC*%
%TO.N,ESP_LED*%
X148575000Y-111125000D03*
D46*
%TO.P,IC2,9,MTMS*%
%TO.N,ESP_SCK*%
X149325000Y-110375000D03*
%TO.P,IC2,10,MTDI*%
%TO.N,ESP_MISO*%
X149325000Y-109875000D03*
%TO.P,IC2,11,VDDPST_1*%
%TO.N,+3.3V_SW*%
X149325000Y-109375000D03*
%TO.P,IC2,12,MTCK*%
%TO.N,ESP_MOSI*%
X149325000Y-108875000D03*
%TO.P,IC2,13,MTDO*%
%TO.N,NSS*%
X149325000Y-108375000D03*
%TO.P,IC2,14,GPIO2*%
%TO.N,NRST*%
X149325000Y-107875000D03*
%TO.P,IC2,15,GPIO0*%
%TO.N,ESP_BOOT*%
X149325000Y-107375000D03*
%TO.P,IC2,16,GPIO4*%
%TO.N,DIO_1*%
X149325000Y-106875000D03*
D45*
%TO.P,IC2,17,VDDPST_2*%
%TO.N,+3.3V_SW*%
X148575000Y-106125000D03*
%TO.P,IC2,18,SD_DATA_2*%
%TO.N,unconnected-(IC2-SD_DATA_2-Pad18)*%
X148075000Y-106125000D03*
%TO.P,IC2,19,SD_DATA_3*%
%TO.N,unconnected-(IC2-SD_DATA_3-Pad19)*%
X147575000Y-106125000D03*
%TO.P,IC2,20,SD_CMD*%
%TO.N,unconnected-(IC2-SD_CMD-Pad20)*%
X147075000Y-106125000D03*
%TO.P,IC2,21,SD_CLK*%
%TO.N,unconnected-(IC2-SD_CLK-Pad21)*%
X146575000Y-106125000D03*
%TO.P,IC2,22,SD_DATA_0*%
%TO.N,unconnected-(IC2-SD_DATA_0-Pad22)*%
X146075000Y-106125000D03*
%TO.P,IC2,23,SD_DATA_1*%
%TO.N,unconnected-(IC2-SD_DATA_1-Pad23)*%
X145575000Y-106125000D03*
%TO.P,IC2,24,GPIO5*%
%TO.N,BUSY*%
X145075000Y-106125000D03*
D46*
%TO.P,IC2,25,U0RXD*%
%TO.N,Net-(IC2-U0RXD)*%
X144325000Y-106875000D03*
%TO.P,IC2,26,U0TXD*%
%TO.N,Net-(IC2-U0TXD)*%
X144325000Y-107375000D03*
%TO.P,IC2,27,XTAL_OUT*%
%TO.N,unconnected-(IC2-XTAL_OUT-Pad27)*%
X144325000Y-107875000D03*
%TO.P,IC2,28,XTAL_IN*%
%TO.N,Net-(IC2-XTAL_IN)*%
X144325000Y-108375000D03*
%TO.P,IC2,29,VDDD*%
%TO.N,+3.3V_SW*%
X144325000Y-108875000D03*
%TO.P,IC2,30,VDDA_2*%
X144325000Y-109375000D03*
%TO.P,IC2,31,RES12K*%
%TO.N,Net-(IC2-RES12K)*%
X144325000Y-109875000D03*
%TO.P,IC2,32,EXT_RSTB*%
%TO.N,Net-(IC2-EXT_RSTB)*%
X144325000Y-110375000D03*
D47*
%TO.P,IC2,33,EP*%
%TO.N,GND*%
X146825000Y-108625000D03*
%TD*%
D48*
%TO.P,L1,1,ANT*%
%TO.N,Net-(ANT1-OUT_(TO_ANTENNA))*%
X161500000Y-111540000D03*
%TO.P,L1,2,2*%
%TO.N,unconnected-(L1-Pad2)*%
X161500000Y-106460000D03*
%TD*%
D17*
%TO.P,C3,1*%
%TO.N,+3.3V*%
X130600000Y-105900000D03*
%TO.P,C3,2*%
%TO.N,GND*%
X129640000Y-105900000D03*
%TD*%
D16*
%TO.P,R12,1*%
%TO.N,QSPI_SS*%
X132500000Y-104950000D03*
%TO.P,R12,2*%
%TO.N,+3.3V*%
X131480000Y-104950000D03*
%TD*%
%TO.P,R9,1*%
%TO.N,RP2040_LED*%
X132510000Y-104000000D03*
%TO.P,R9,2*%
%TO.N,Net-(D2-A)*%
X131490000Y-104000000D03*
%TD*%
D49*
%TO.N,GND*%
X146825000Y-108625000D03*
X129700000Y-110500000D03*
X150750000Y-104700000D03*
X134450000Y-111750000D03*
X154325000Y-109325000D03*
X147605000Y-112225000D03*
X134900000Y-107950000D03*
%TO.N,+3.3V*%
X127600000Y-115200000D03*
X134250000Y-104300000D03*
X132350000Y-110350000D03*
X130300000Y-115200000D03*
X128900000Y-105900000D03*
X140200000Y-105100000D03*
X136150000Y-114750000D03*
X130700000Y-104400000D03*
X127600000Y-105900000D03*
X123900000Y-111750000D03*
%TO.N,IRS*%
X156025000Y-106625000D03*
X152325000Y-111225000D03*
%TO.N,BUSY*%
X150725000Y-106525000D03*
X145125000Y-105425000D03*
%TO.N,NRST*%
X150025000Y-107925000D03*
X154725000Y-104825000D03*
%TO.N,ESP_SCK*%
X156200000Y-111450000D03*
X149325000Y-110925000D03*
%TO.N,ESP_MOSI*%
X154698938Y-112924436D03*
X150025000Y-108925000D03*
%TO.N,ESP_MISO*%
X154725000Y-112325000D03*
X150025000Y-109925000D03*
%TO.N,DIO_1*%
X149325000Y-106425000D03*
X151525000Y-108525000D03*
%TO.N,+3.3V_SW*%
X134250000Y-106700000D03*
X144800000Y-111900000D03*
X150200000Y-112100000D03*
X149525000Y-104025000D03*
X144325000Y-109125000D03*
X137000000Y-103900000D03*
X143300000Y-104900000D03*
X146300000Y-111800000D03*
X150625003Y-109925000D03*
X141500000Y-111050000D03*
%TO.N,NSS*%
X156725000Y-111025000D03*
X151525000Y-107925000D03*
%TO.N,ESP_LED*%
X144200000Y-103700000D03*
X149325000Y-111525000D03*
%TO.N,ESP_BOOT*%
X146200000Y-105300000D03*
X150025000Y-107325000D03*
%TO.N,USB_DN*%
X124750000Y-103600000D03*
X117000000Y-110075000D03*
%TO.N,USB_DP*%
X117000000Y-108025000D03*
X124050000Y-103600000D03*
%TO.N,USB_VBUS*%
X116500000Y-112525000D03*
X125500000Y-114000000D03*
%TO.N,RP2040_RX*%
X135200000Y-106125003D03*
X130850000Y-113150000D03*
%TO.N,RP2040_TX*%
X136100000Y-103325000D03*
X130350000Y-112650000D03*
%TO.N,Net-(U1-VREG_VOUT)*%
X127100000Y-110350003D03*
X127100000Y-108549997D03*
X123900000Y-111149997D03*
X132050000Y-107975000D03*
X122000000Y-108400000D03*
%TO.N,RP2040_LED*%
X128450000Y-108000000D03*
X133150000Y-104000000D03*
%TO.N,QSPI_SS*%
X125500000Y-113400000D03*
X136900247Y-108300000D03*
X132900000Y-107300000D03*
%TO.N,QSPI_SD2*%
X125500000Y-112400000D03*
X135700241Y-108300000D03*
%TO.N,QSPI_SD3*%
X127200000Y-111000000D03*
X136400003Y-109700000D03*
%TO.N,QSPI_SD1*%
X136300244Y-108300000D03*
X127200000Y-113000000D03*
%TO.N,QSPI_SD0*%
X135200000Y-109700000D03*
X127200000Y-112000000D03*
%TO.N,QSPI_SCLK*%
X135800000Y-109700000D03*
X125499381Y-111400341D03*
%TO.N,RP2040_RX_NO*%
X135200000Y-105525000D03*
X141500000Y-107100000D03*
%TO.N,RP2040_TX_NC*%
X137400000Y-115100000D03*
X137400000Y-104850000D03*
%TO.N,Net-(U1-USB_DP)*%
X125750000Y-104950000D03*
X127100000Y-109750000D03*
%TO.N,Net-(U1-USB_DM)*%
X125450000Y-103600000D03*
X127100000Y-109150000D03*
%TO.N,RP2040_TX_NO*%
X141500000Y-106150000D03*
X135200000Y-103900000D03*
%TO.N,RP2040_RX_NC*%
X136950000Y-106100000D03*
X138250000Y-112750000D03*
%TD*%
D50*
%TO.N,Net-(ANT1-OUT_(TO_ANTENNA))*%
X159300000Y-111540000D02*
X161500000Y-111540000D01*
X158300000Y-110326000D02*
X158300000Y-110540000D01*
X158300000Y-110540000D02*
G75*
G03*
X159300000Y-111540000I1000000J0D01*
G01*
D51*
%TO.N,GND*%
X129700000Y-110550000D02*
X129700000Y-110500000D01*
X134450000Y-111750000D02*
X134450000Y-111130000D01*
X134350000Y-108170000D02*
X134680000Y-108170000D01*
X134680000Y-108170000D02*
X134900000Y-107950000D01*
X150425000Y-105025000D02*
X150750000Y-104700000D01*
X149905000Y-105025000D02*
X150425000Y-105025000D01*
X134450000Y-111750000D02*
X134600000Y-111600000D01*
X134450000Y-111130000D02*
X134350000Y-111030000D01*
X134600000Y-111600000D02*
X135270000Y-111600000D01*
%TO.N,Net-(ANT1-IN_(TO_RFIC))*%
X158275000Y-109075000D02*
X158300000Y-109100000D01*
D50*
X156275000Y-109075000D02*
X158275000Y-109075000D01*
D51*
%TO.N,+3.3V*%
X126262500Y-108350000D02*
X125130000Y-108350000D01*
X140225000Y-105075000D02*
X140200000Y-105100000D01*
X128900000Y-105774576D02*
X129334576Y-105340000D01*
X125135000Y-110350000D02*
X125085000Y-110300000D01*
X125085000Y-110300000D02*
X125085000Y-108305000D01*
X125080000Y-108300000D02*
X125080000Y-107300000D01*
X125730000Y-109950000D02*
X125080000Y-109300000D01*
X126262500Y-107950000D02*
X125730000Y-107950000D01*
X125085000Y-110300000D02*
X125085000Y-109305000D01*
X125080000Y-107300000D02*
X125080000Y-106370000D01*
X130740000Y-115200000D02*
X130300000Y-115200000D01*
X134070000Y-110350000D02*
X134350000Y-110070000D01*
X133137500Y-110350000D02*
X134070000Y-110350000D01*
X125080000Y-106370000D02*
X125100000Y-106350000D01*
X125130000Y-108350000D02*
X125080000Y-108300000D01*
X136230000Y-111600000D02*
X136850000Y-110980000D01*
X133137500Y-110350000D02*
X132350000Y-110350000D01*
X136850000Y-110980000D02*
X136850000Y-110400000D01*
X122900000Y-111812500D02*
X123837500Y-111812500D01*
X127100000Y-113987500D02*
X127100000Y-115100000D01*
X127100000Y-115100000D02*
X127000000Y-115200000D01*
X125085000Y-109305000D02*
X125080000Y-109300000D01*
X127100000Y-107112500D02*
X127100000Y-105940000D01*
X140225000Y-103700000D02*
X140225000Y-105075000D01*
X136150000Y-112850000D02*
X136150000Y-111680000D01*
X123837500Y-111812500D02*
X123900000Y-111750000D01*
X134495000Y-104825000D02*
X135500000Y-104825000D01*
X136150000Y-114000000D02*
X136150000Y-114750000D01*
X127100000Y-105940000D02*
X127060000Y-105900000D01*
X127000000Y-115200000D02*
X127600000Y-115200000D01*
X126262500Y-109950000D02*
X125730000Y-109950000D01*
X134350000Y-104970000D02*
X134350000Y-104400000D01*
X136150000Y-111680000D02*
X136230000Y-111600000D01*
X125730000Y-107950000D02*
X125080000Y-107300000D01*
X128900000Y-105900000D02*
X128900000Y-105774576D01*
X125085000Y-108305000D02*
X125080000Y-108300000D01*
X136150000Y-112850000D02*
X136150000Y-114000000D01*
X130700000Y-107112500D02*
X130700000Y-106000000D01*
X134350000Y-104400000D02*
X134250000Y-104300000D01*
X126262500Y-107950000D02*
X127100000Y-107112500D01*
X131250000Y-104950000D02*
X130700000Y-104400000D01*
X130040000Y-105340000D02*
X130700000Y-106000000D01*
X126262500Y-110350000D02*
X125135000Y-110350000D01*
X131480000Y-104950000D02*
X131250000Y-104950000D01*
X130700000Y-115160000D02*
X130740000Y-115200000D01*
X130700000Y-113987500D02*
X130700000Y-115160000D01*
X130700000Y-106000000D02*
X130600000Y-105900000D01*
X129334576Y-105340000D02*
X130040000Y-105340000D01*
X134350000Y-104970000D02*
X134495000Y-104825000D01*
X127060000Y-105900000D02*
X127600000Y-105900000D01*
%TO.N,IRS*%
X155075000Y-106800000D02*
X155250000Y-106625000D01*
X155850000Y-106450000D02*
X155425000Y-106450000D01*
X152375000Y-110575000D02*
X151275000Y-110575000D01*
X152375000Y-111175000D02*
X152325000Y-111225000D01*
X155075000Y-107375000D02*
X155075000Y-106800000D01*
X156025000Y-106625000D02*
X155850000Y-106450000D01*
X155425000Y-106005000D02*
X155425000Y-106450000D01*
X151275000Y-110575000D02*
X151125000Y-110725000D01*
X155425000Y-106450000D02*
X155250000Y-106625000D01*
X152375000Y-110575000D02*
X152375000Y-111175000D01*
%TO.N,Net-(IC1-VR_PA)*%
X156525000Y-106925000D02*
X156525000Y-106005000D01*
X155575000Y-107375000D02*
X156075000Y-107375000D01*
X156075000Y-107375000D02*
X156525000Y-106925000D01*
%TO.N,Net-(IC2-EXT_RSTB)*%
X142300000Y-112200000D02*
X143300000Y-112200000D01*
X144325000Y-111175000D02*
X144325000Y-110375000D01*
X143300000Y-112200000D02*
X144325000Y-111175000D01*
%TO.N,Net-(D1-A)*%
X148010000Y-104025000D02*
X148010000Y-103677500D01*
X148010000Y-103677500D02*
X148887500Y-102800000D01*
%TO.N,Net-(D2-A)*%
X131587500Y-104000000D02*
X132787500Y-102800000D01*
X131490000Y-104000000D02*
X131587500Y-104000000D01*
%TO.N,BUSY*%
X151325000Y-106525000D02*
X152375000Y-107575000D01*
X152375000Y-107575000D02*
X152375000Y-108075000D01*
X150725000Y-106525000D02*
X151325000Y-106525000D01*
X145075000Y-106125000D02*
X145075000Y-105475000D01*
X145075000Y-105475000D02*
X145125000Y-105425000D01*
%TO.N,NRST*%
X154775000Y-106575001D02*
X154575000Y-106775001D01*
X154775000Y-104875000D02*
X154775000Y-106575001D01*
X149325000Y-107875000D02*
X149975000Y-107875000D01*
X154575000Y-106775001D02*
X154575000Y-107375000D01*
X154725000Y-104825000D02*
X154775000Y-104875000D01*
X149975000Y-107875000D02*
X150025000Y-107925000D01*
%TO.N,Net-(IC1-XTA)*%
X154075000Y-107375000D02*
X154075000Y-106771630D01*
X154400000Y-105503370D02*
X153721630Y-104825000D01*
X153721630Y-104825000D02*
X153675000Y-104825000D01*
X154075000Y-106771630D02*
X154400000Y-106446630D01*
X154400000Y-106446630D02*
X154400000Y-105503370D01*
%TO.N,ESP_SCK*%
X149325000Y-110375000D02*
X149325000Y-110925000D01*
X156200000Y-111450000D02*
X156150000Y-111500000D01*
X155800000Y-111500000D02*
X155575000Y-111275000D01*
X156150000Y-111500000D02*
X155800000Y-111500000D01*
%TO.N,ESP_MOSI*%
X155075000Y-111850000D02*
X155075000Y-111275000D01*
X155200000Y-112521752D02*
X155200000Y-111975000D01*
X149325000Y-108875000D02*
X149975000Y-108875000D01*
X154698938Y-112924436D02*
X154797316Y-112924436D01*
X155200000Y-111975000D02*
X155075000Y-111850000D01*
X149975000Y-108875000D02*
X150025000Y-108925000D01*
X154797316Y-112924436D02*
X155200000Y-112521752D01*
%TO.N,ESP_MISO*%
X149975000Y-109875000D02*
X150025000Y-109925000D01*
X154575000Y-111275000D02*
X154575000Y-112175000D01*
X154575000Y-112175000D02*
X154725000Y-112325000D01*
X149325000Y-109875000D02*
X149975000Y-109875000D01*
%TO.N,DIO_1*%
X152375000Y-108575000D02*
X151575000Y-108575000D01*
X151575000Y-108575000D02*
X151525000Y-108525000D01*
X149325000Y-106875000D02*
X149325000Y-106425000D01*
%TO.N,+3.3V_SW*%
X144000000Y-112400000D02*
X144500000Y-111900000D01*
X136750000Y-103900000D02*
X136500000Y-104150000D01*
X152375000Y-110075000D02*
X150775003Y-110075000D01*
X152225000Y-104825000D02*
X151425000Y-104025000D01*
X145075000Y-111625000D02*
X144800000Y-111900000D01*
X150075000Y-112225000D02*
X149535000Y-112225000D01*
X154075000Y-112345000D02*
X154000000Y-112420000D01*
X144325000Y-109375000D02*
X144325000Y-109125000D01*
X137200000Y-103700000D02*
X137000000Y-103900000D01*
X140003248Y-105575000D02*
X142625000Y-105575000D01*
X144325000Y-108875000D02*
X144325000Y-109375000D01*
X137000000Y-103900000D02*
X136750000Y-103900000D01*
X151425000Y-104025000D02*
X149525000Y-104025000D01*
X150520000Y-112420000D02*
X154000000Y-112420000D01*
X142625000Y-105575000D02*
X143300000Y-104900000D01*
X135700650Y-106700000D02*
X134250000Y-106700000D01*
X142975000Y-109925000D02*
X143525000Y-109375000D01*
X143300000Y-113220000D02*
X143780000Y-113220000D01*
X150775003Y-110075000D02*
X150625003Y-109925000D01*
X144500000Y-111900000D02*
X144800000Y-111900000D01*
X138775000Y-103700000D02*
X138775000Y-104346752D01*
X146075000Y-111125000D02*
X146075000Y-111575000D01*
X150206021Y-109400000D02*
X150625003Y-109818982D01*
X146645000Y-112145000D02*
X146300000Y-111800000D01*
X150200000Y-112100000D02*
X150520000Y-112420000D01*
X149325000Y-109375000D02*
X149350000Y-109400000D01*
X143780000Y-113220000D02*
X144000000Y-113000000D01*
X146075000Y-111575000D02*
X146300000Y-111800000D01*
X150200000Y-112100000D02*
X150075000Y-112225000D01*
X148035000Y-105025000D02*
X148945000Y-105025000D01*
X148945000Y-105025000D02*
X149525000Y-104445000D01*
X134140000Y-106700000D02*
X134250000Y-106700000D01*
X136100000Y-106300650D02*
X135700650Y-106700000D01*
X154075000Y-111275000D02*
X154075000Y-112345000D01*
X138775000Y-103700000D02*
X137200000Y-103700000D01*
X148575000Y-106125000D02*
X148575000Y-105395000D01*
X146645000Y-112225000D02*
X146645000Y-112145000D01*
X149525000Y-104445000D02*
X149525000Y-104025000D01*
X146575000Y-111125000D02*
X146075000Y-111125000D01*
X145075000Y-111125000D02*
X145075000Y-111625000D01*
X148575000Y-105395000D02*
X148945000Y-105025000D01*
X143525000Y-109375000D02*
X144325000Y-109375000D01*
X138775000Y-104346752D02*
X140003248Y-105575000D01*
X141500000Y-111050000D02*
X141500000Y-110250000D01*
X150625003Y-109818982D02*
X150625003Y-109925000D01*
X149350000Y-109400000D02*
X150206021Y-109400000D01*
X141500000Y-110250000D02*
X141825000Y-109925000D01*
X136100000Y-105900000D02*
X136100000Y-106300650D01*
X133400000Y-105960000D02*
X134140000Y-106700000D01*
X144000000Y-113000000D02*
X144000000Y-112400000D01*
X141825000Y-109925000D02*
X142975000Y-109925000D01*
%TO.N,NSS*%
X151125000Y-107925000D02*
X150725000Y-108325000D01*
X151525000Y-107925000D02*
X151125000Y-107925000D01*
X156725000Y-111784999D02*
X156725000Y-111025000D01*
X156119999Y-112390000D02*
X156725000Y-111784999D01*
X156725000Y-111025000D02*
X156275000Y-110575000D01*
X150650000Y-108400000D02*
X150725000Y-108325000D01*
X149325000Y-108375000D02*
X149350000Y-108400000D01*
X149350000Y-108400000D02*
X150650000Y-108400000D01*
X155800000Y-112390000D02*
X156119999Y-112390000D01*
%TO.N,LNA*%
X145575000Y-114385000D02*
X145560000Y-114400000D01*
D50*
X145575000Y-111125000D02*
X145575000Y-114385000D01*
D51*
%TO.N,Net-(IC2-CHIP_EN)*%
X148075000Y-111785000D02*
X148515000Y-112225000D01*
X148075000Y-111125000D02*
X148075000Y-111785000D01*
%TO.N,ESP_LED*%
X146200000Y-102400000D02*
X144800000Y-102400000D01*
X146500000Y-102700000D02*
X146200000Y-102400000D01*
X144800000Y-102400000D02*
X144200000Y-103000000D01*
X146990000Y-104025000D02*
X146500000Y-103535000D01*
X148575000Y-111125000D02*
X148575000Y-111275000D01*
X148575000Y-111275000D02*
X148825000Y-111525000D01*
X148825000Y-111525000D02*
X149325000Y-111525000D01*
X144200000Y-103000000D02*
X144200000Y-103700000D01*
X146500000Y-103535000D02*
X146500000Y-102700000D01*
%TO.N,Net-(IC2-XTAL_IN)*%
X143675000Y-108175000D02*
X143875000Y-108375000D01*
X143875000Y-108375000D02*
X144325000Y-108375000D01*
X141825000Y-108000001D02*
X142100001Y-107725000D01*
X141825000Y-108475000D02*
X141825000Y-108000001D01*
X143675000Y-107900000D02*
X143675000Y-108175000D01*
X142100001Y-107725000D02*
X143500000Y-107725000D01*
X143500000Y-107725000D02*
X143675000Y-107900000D01*
%TO.N,Net-(IC2-RES12K)*%
X143475000Y-111225000D02*
X143675000Y-111025000D01*
X143850000Y-109875000D02*
X144325000Y-109875000D01*
X143675000Y-110050000D02*
X143850000Y-109875000D01*
X143235000Y-111225000D02*
X143475000Y-111225000D01*
X143675000Y-111025000D02*
X143675000Y-110050000D01*
%TO.N,ESP_BOOT*%
X149975000Y-107375000D02*
X150025000Y-107325000D01*
X146475000Y-105025000D02*
X147015000Y-105025000D01*
X149325000Y-107375000D02*
X149975000Y-107375000D01*
X146200000Y-105300000D02*
X146475000Y-105025000D01*
X146200000Y-105300000D02*
X145800000Y-104900000D01*
X145800000Y-104900000D02*
X145800000Y-103700000D01*
%TO.N,USB_DN*%
X124140000Y-104210000D02*
X124750000Y-103600000D01*
X124140000Y-104400000D02*
X124140000Y-104210000D01*
%TO.N,USB_DP*%
X123580000Y-104070000D02*
X123580000Y-104890000D01*
X123580000Y-104890000D02*
X124090000Y-105400000D01*
X124050000Y-103600000D02*
X123580000Y-104070000D01*
%TO.N,USB_VBUS*%
X124800000Y-114087500D02*
X124962500Y-114087500D01*
X122900000Y-113425001D02*
X123175001Y-113150000D01*
X124800000Y-113425001D02*
X124800000Y-114087500D01*
X125050000Y-114000000D02*
X125500000Y-114000000D01*
X124962500Y-114087500D02*
X125050000Y-114000000D01*
X122900000Y-114087500D02*
X122900000Y-113425001D01*
X124524999Y-113150000D02*
X124800000Y-113425001D01*
X123175001Y-113150000D02*
X124524999Y-113150000D01*
%TO.N,RP2040_RX*%
X135200000Y-106125003D02*
X135474997Y-106125003D01*
X129874350Y-113150000D02*
X129500000Y-113524350D01*
X135474997Y-106125003D02*
X135700000Y-105900000D01*
X129500000Y-113524350D02*
X129500000Y-113987500D01*
X130850000Y-113150000D02*
X129874350Y-113150000D01*
%TO.N,RP2040_TX*%
X136100000Y-104150000D02*
X136100000Y-103325000D01*
X130350000Y-112650000D02*
X129879375Y-112650000D01*
X129100000Y-113429375D02*
X129100000Y-113987500D01*
X129879375Y-112650000D02*
X129100000Y-113429375D01*
%TO.N,Net-(U1-VREG_VOUT)*%
X133600650Y-109950000D02*
X134350000Y-109200650D01*
X133137500Y-109950000D02*
X132674350Y-109950000D01*
X132674350Y-109950000D02*
X132050000Y-109325650D01*
X122780000Y-107620000D02*
X122000000Y-108400000D01*
X127100000Y-110375650D02*
X127100000Y-110350003D01*
X127028251Y-108549997D02*
X127100000Y-108549997D01*
X123200000Y-110449997D02*
X123900000Y-111149997D01*
X126828248Y-108750000D02*
X127028251Y-108549997D01*
X126262500Y-110750000D02*
X126725650Y-110750000D01*
X123200000Y-110430000D02*
X123200000Y-110449997D01*
X132050000Y-109325650D02*
X132050000Y-107975000D01*
X123200000Y-107620000D02*
X122780000Y-107620000D01*
X134350000Y-109200650D02*
X134350000Y-109130000D01*
X126262500Y-108750000D02*
X126828248Y-108750000D01*
X133137500Y-109950000D02*
X133600650Y-109950000D01*
X126725650Y-110750000D02*
X127100000Y-110375650D01*
%TO.N,RP2040_LED*%
X129100000Y-107575650D02*
X128675650Y-108000000D01*
X132510000Y-104000000D02*
X133150000Y-104000000D01*
X129100000Y-107112500D02*
X129100000Y-107575650D01*
X128675650Y-108000000D02*
X128450000Y-108000000D01*
%TO.N,Net-(SW2-B)*%
X129700000Y-104125000D02*
X131475000Y-105900000D01*
X131475000Y-105900000D02*
X131490000Y-105900000D01*
X129700000Y-103700000D02*
X129700000Y-104125000D01*
%TO.N,QSPI_SS*%
X125750000Y-113150000D02*
X126262500Y-113150000D01*
X136900247Y-107600247D02*
X136850000Y-107550000D01*
X132510000Y-104960000D02*
X132500000Y-104950000D01*
X136900247Y-108300000D02*
X136900247Y-107600247D01*
X132700000Y-107100000D02*
X132900000Y-107300000D01*
X132510000Y-105900000D02*
X132510000Y-104960000D01*
X125500000Y-113400000D02*
X125750000Y-113150000D01*
X132510000Y-105900000D02*
X132700000Y-106090000D01*
X132700000Y-106090000D02*
X132700000Y-107100000D01*
%TO.N,QSPI_SD2*%
X135725000Y-108275241D02*
X135725000Y-107675000D01*
X135700241Y-108300000D02*
X135725000Y-108275241D01*
X125550000Y-112350000D02*
X125500000Y-112400000D01*
X135725000Y-107675000D02*
X135850000Y-107550000D01*
X126262500Y-112350000D02*
X125550000Y-112350000D01*
%TO.N,QSPI_SD3*%
X127050000Y-111150000D02*
X126262500Y-111150000D01*
X136400003Y-109700000D02*
X136400003Y-110349997D01*
X127200000Y-111000000D02*
X127050000Y-111150000D01*
X136400003Y-110349997D02*
X136350000Y-110400000D01*
%TO.N,QSPI_SD1*%
X136300244Y-108300000D02*
X136300244Y-107599756D01*
X126950000Y-112750000D02*
X127200000Y-113000000D01*
X136300244Y-107599756D02*
X136350000Y-107550000D01*
X126262500Y-112750000D02*
X126950000Y-112750000D01*
%TO.N,QSPI_SD0*%
X135200000Y-110250000D02*
X135350000Y-110400000D01*
X127150000Y-111950000D02*
X126262500Y-111950000D01*
X127200000Y-112000000D02*
X127150000Y-111950000D01*
X135200000Y-109700000D02*
X135200000Y-110250000D01*
%TO.N,Net-(U1-XIN)*%
X133850000Y-113624999D02*
X133850000Y-111399350D01*
X134225001Y-114000000D02*
X133850000Y-113624999D01*
X134700000Y-114000000D02*
X134225001Y-114000000D01*
X133600650Y-111150000D02*
X133137500Y-111150000D01*
X133850000Y-111399350D02*
X133600650Y-111150000D01*
%TO.N,QSPI_SCLK*%
X125649040Y-111550000D02*
X125499381Y-111400341D01*
X135800000Y-109700000D02*
X135800000Y-110350000D01*
X126262500Y-111550000D02*
X125649040Y-111550000D01*
X135800000Y-110350000D02*
X135850000Y-110400000D01*
%TO.N,Net-(IC2-U0TXD)*%
X143475000Y-107375000D02*
X143200000Y-107100000D01*
X144325000Y-107375000D02*
X143475000Y-107375000D01*
%TO.N,Net-(IC2-U0RXD)*%
X144325000Y-106875000D02*
X143985000Y-106875000D01*
X143985000Y-106875000D02*
X143260000Y-106150000D01*
%TO.N,Net-(J2-Pin_4)*%
X138270000Y-113490000D02*
X139300000Y-114520000D01*
X137400000Y-113490000D02*
X138270000Y-113490000D01*
%TO.N,Net-(J2-Pin_3)*%
X137790000Y-111980000D02*
X139300000Y-111980000D01*
X137400000Y-111590000D02*
X137790000Y-111980000D01*
%TO.N,RP2040_RX_NO*%
X135200000Y-105525000D02*
X135500000Y-105225000D01*
X141500000Y-107100000D02*
X142180000Y-107100000D01*
%TO.N,RP2040_TX_NC*%
X137400000Y-115100000D02*
X137400000Y-114510000D01*
X137375000Y-104825000D02*
X137400000Y-104850000D01*
X136700000Y-104825000D02*
X137375000Y-104825000D01*
%TO.N,Net-(U1-USB_DP)*%
X125750000Y-104950000D02*
X125560000Y-104950000D01*
X126262500Y-109550000D02*
X126750000Y-109550000D01*
X126750000Y-109550000D02*
X126950000Y-109750000D01*
X126950000Y-109750000D02*
X127100000Y-109750000D01*
X125560000Y-104950000D02*
X125110000Y-105400000D01*
%TO.N,Net-(U1-USB_DM)*%
X127100000Y-109150000D02*
X126262500Y-109150000D01*
X125450000Y-104110000D02*
X125160000Y-104400000D01*
X125450000Y-103600000D02*
X125450000Y-104110000D01*
%TO.N,RP2040_TX_NO*%
X141500000Y-106150000D02*
X142240000Y-106150000D01*
X135200000Y-103900000D02*
X135450000Y-103900000D01*
X135450000Y-103900000D02*
X135700000Y-104150000D01*
%TO.N,RP2040_RX_NC*%
X136700000Y-106100000D02*
X136500000Y-105900000D01*
X137540000Y-112750000D02*
X137400000Y-112610000D01*
X138250000Y-112750000D02*
X137540000Y-112750000D01*
X136950000Y-106100000D02*
X136700000Y-106100000D01*
%TD*%
%TA.AperFunction,Conductor*%
%TO.N,GND*%
G36*
X159285648Y-102014352D02*
G01*
X159300000Y-102049000D01*
X159300000Y-111185436D01*
X159285648Y-111220084D01*
X159251000Y-111234436D01*
X159246198Y-111234200D01*
X159168337Y-111226532D01*
X159158915Y-111224658D01*
X159154982Y-111223465D01*
X159080737Y-111200943D01*
X159036932Y-111187655D01*
X159028057Y-111183979D01*
X158915635Y-111123887D01*
X158907649Y-111118550D01*
X158809110Y-111037681D01*
X158802318Y-111030889D01*
X158721449Y-110932350D01*
X158716112Y-110924364D01*
X158667681Y-110833758D01*
X158660267Y-110819888D01*
X158656592Y-110782566D01*
X158676257Y-110756050D01*
X158708504Y-110734504D01*
X158741767Y-110684722D01*
X158750500Y-110640820D01*
X158750500Y-110011180D01*
X158741767Y-109967278D01*
X158738897Y-109962982D01*
X158708504Y-109917495D01*
X158658721Y-109884232D01*
X158614823Y-109875500D01*
X158614820Y-109875500D01*
X157985180Y-109875500D01*
X157985176Y-109875500D01*
X157941278Y-109884232D01*
X157891495Y-109917495D01*
X157858232Y-109967278D01*
X157849500Y-110011176D01*
X157849500Y-110640823D01*
X157858232Y-110684721D01*
X157891495Y-110734504D01*
X157941278Y-110767767D01*
X157987541Y-110776970D01*
X157987277Y-110778295D01*
X158016708Y-110794022D01*
X158027232Y-110817446D01*
X158031522Y-110844532D01*
X158031523Y-110844534D01*
X158094779Y-111039217D01*
X158187714Y-111221612D01*
X158187716Y-111221615D01*
X158266034Y-111329410D01*
X158307605Y-111386629D01*
X158308035Y-111387220D01*
X158308039Y-111387225D01*
X158452775Y-111531961D01*
X158452779Y-111531964D01*
X158452781Y-111531966D01*
X158539916Y-111595273D01*
X158615218Y-111649983D01*
X158618390Y-111652287D01*
X158800781Y-111745220D01*
X158995466Y-111808477D01*
X159197648Y-111840500D01*
X159251000Y-111840500D01*
X159285648Y-111854852D01*
X159300000Y-111889500D01*
X159300000Y-115951000D01*
X159285648Y-115985648D01*
X159251000Y-116000000D01*
X151949000Y-116000000D01*
X151914352Y-115985648D01*
X151900000Y-115951000D01*
X151900000Y-112719500D01*
X151914352Y-112684852D01*
X151949000Y-112670500D01*
X153529304Y-112670500D01*
X153563952Y-112684852D01*
X153574129Y-112699708D01*
X153586187Y-112727017D01*
X153662982Y-112803812D01*
X153662983Y-112803812D01*
X153662984Y-112803813D01*
X153677411Y-112810183D01*
X153762335Y-112847681D01*
X153762341Y-112847683D01*
X153786609Y-112850498D01*
X153786610Y-112850498D01*
X153786627Y-112850500D01*
X154213372Y-112850499D01*
X154237662Y-112847682D01*
X154255669Y-112839730D01*
X154293161Y-112838863D01*
X154320286Y-112864761D01*
X154323859Y-112892219D01*
X154319020Y-112922777D01*
X154318757Y-112924436D01*
X154337364Y-113041918D01*
X154337364Y-113041919D01*
X154337365Y-113041920D01*
X154391360Y-113147894D01*
X154391365Y-113147901D01*
X154475472Y-113232008D01*
X154475479Y-113232013D01*
X154545093Y-113267482D01*
X154581456Y-113286010D01*
X154698938Y-113304617D01*
X154816420Y-113286010D01*
X154893749Y-113246609D01*
X154922396Y-113232013D01*
X154922398Y-113232011D01*
X154922403Y-113232009D01*
X155006511Y-113147901D01*
X155009571Y-113141897D01*
X155035659Y-113090694D01*
X155060512Y-113041918D01*
X155062992Y-113026254D01*
X155076739Y-112999272D01*
X155346480Y-112729532D01*
X155381127Y-112715181D01*
X155415775Y-112729533D01*
X155450857Y-112764615D01*
X155548499Y-112807729D01*
X155548505Y-112807731D01*
X155572359Y-112810498D01*
X155572360Y-112810498D01*
X155572377Y-112810500D01*
X156027622Y-112810499D01*
X156051498Y-112807730D01*
X156149141Y-112764616D01*
X156224616Y-112689141D01*
X156260053Y-112608882D01*
X156270225Y-112594033D01*
X156860004Y-112004253D01*
X156860007Y-112004252D01*
X156866896Y-111997363D01*
X156866897Y-111997363D01*
X156937364Y-111926896D01*
X156955746Y-111882518D01*
X156975501Y-111834826D01*
X156975501Y-111735171D01*
X156975501Y-111731228D01*
X156975500Y-111731214D01*
X156975500Y-111325834D01*
X156989852Y-111291186D01*
X157007580Y-111273458D01*
X157032573Y-111248465D01*
X157038230Y-111237364D01*
X157052010Y-111210317D01*
X157086574Y-111142482D01*
X157105181Y-111025000D01*
X157086574Y-110907518D01*
X157061182Y-110857683D01*
X157032577Y-110801541D01*
X157032572Y-110801534D01*
X156948465Y-110717427D01*
X156948460Y-110717423D01*
X156877254Y-110681142D01*
X156852898Y-110652625D01*
X156850500Y-110637483D01*
X156850500Y-110410180D01*
X156850499Y-110410176D01*
X156846863Y-110391899D01*
X156841767Y-110366278D01*
X156832376Y-110352223D01*
X156808504Y-110316495D01*
X156758721Y-110283232D01*
X156714823Y-110274500D01*
X156714820Y-110274500D01*
X155835180Y-110274500D01*
X155835176Y-110274500D01*
X155791278Y-110283232D01*
X155741495Y-110316495D01*
X155708232Y-110366278D01*
X155699500Y-110410176D01*
X155699500Y-110650500D01*
X155685148Y-110685148D01*
X155650500Y-110699500D01*
X155410176Y-110699500D01*
X155366279Y-110708232D01*
X155352220Y-110717625D01*
X155315438Y-110724939D01*
X155297780Y-110717625D01*
X155286636Y-110710180D01*
X155283722Y-110708233D01*
X155283721Y-110708232D01*
X155283720Y-110708232D01*
X155239823Y-110699500D01*
X155239820Y-110699500D01*
X154910180Y-110699500D01*
X154910176Y-110699500D01*
X154866279Y-110708232D01*
X154852220Y-110717625D01*
X154815438Y-110724939D01*
X154797780Y-110717625D01*
X154786636Y-110710180D01*
X154783722Y-110708233D01*
X154783721Y-110708232D01*
X154783720Y-110708232D01*
X154739823Y-110699500D01*
X154739820Y-110699500D01*
X154410180Y-110699500D01*
X154410176Y-110699500D01*
X154366279Y-110708232D01*
X154352220Y-110717625D01*
X154315438Y-110724939D01*
X154297780Y-110717625D01*
X154286636Y-110710180D01*
X154283722Y-110708233D01*
X154283721Y-110708232D01*
X154283720Y-110708232D01*
X154239823Y-110699500D01*
X154239820Y-110699500D01*
X153910180Y-110699500D01*
X153910176Y-110699500D01*
X153866279Y-110708232D01*
X153852220Y-110717625D01*
X153815438Y-110724939D01*
X153797780Y-110717625D01*
X153786636Y-110710180D01*
X153783722Y-110708233D01*
X153783721Y-110708232D01*
X153783720Y-110708232D01*
X153739823Y-110699500D01*
X153739820Y-110699500D01*
X153410180Y-110699500D01*
X153410176Y-110699500D01*
X153366278Y-110708232D01*
X153316495Y-110741495D01*
X153283232Y-110791278D01*
X153274500Y-110835176D01*
X153274500Y-111714823D01*
X153283232Y-111758721D01*
X153316495Y-111808504D01*
X153353087Y-111832953D01*
X153366278Y-111841767D01*
X153410180Y-111850500D01*
X153739820Y-111850500D01*
X153765940Y-111845304D01*
X153802722Y-111852619D01*
X153823558Y-111883801D01*
X153824500Y-111893362D01*
X153824500Y-111941462D01*
X153810148Y-111976110D01*
X153781148Y-111990135D01*
X153762340Y-111992317D01*
X153762337Y-111992318D01*
X153662982Y-112036187D01*
X153586187Y-112112982D01*
X153574129Y-112140292D01*
X153547005Y-112166191D01*
X153529304Y-112169500D01*
X150644057Y-112169500D01*
X150609409Y-112155148D01*
X150594291Y-112140030D01*
X150579939Y-112105382D01*
X150580181Y-112102312D01*
X150580181Y-112100001D01*
X150580181Y-112100000D01*
X150561574Y-111982518D01*
X150533233Y-111926896D01*
X150507577Y-111876541D01*
X150507572Y-111876534D01*
X150423465Y-111792427D01*
X150423458Y-111792422D01*
X150317484Y-111738427D01*
X150317483Y-111738426D01*
X150317482Y-111738426D01*
X150200000Y-111719819D01*
X150082518Y-111738426D01*
X150082516Y-111738426D01*
X150082515Y-111738427D01*
X149976541Y-111792422D01*
X149976533Y-111792428D01*
X149936006Y-111832954D01*
X149901358Y-111847305D01*
X149866711Y-111832953D01*
X149834142Y-111800384D01*
X149736500Y-111757270D01*
X149736494Y-111757268D01*
X149712640Y-111754501D01*
X149712625Y-111754500D01*
X149712623Y-111754500D01*
X149712620Y-111754500D01*
X149709458Y-111754500D01*
X149674810Y-111740148D01*
X149660458Y-111705500D01*
X149665798Y-111683256D01*
X149686574Y-111642482D01*
X149705181Y-111525000D01*
X149686574Y-111407518D01*
X149663552Y-111362335D01*
X149632577Y-111301541D01*
X149632572Y-111301534D01*
X149590686Y-111259648D01*
X149576334Y-111225000D01*
X149590686Y-111190352D01*
X149611538Y-111169500D01*
X149632573Y-111148465D01*
X149634536Y-111144614D01*
X149652189Y-111109966D01*
X149686574Y-111042482D01*
X149705181Y-110925000D01*
X149686574Y-110807518D01*
X149667184Y-110769462D01*
X149655609Y-110746745D01*
X149652666Y-110709358D01*
X149677023Y-110680841D01*
X149699268Y-110675500D01*
X149739820Y-110675500D01*
X149783722Y-110666767D01*
X149833504Y-110633504D01*
X149866767Y-110583722D01*
X149875500Y-110539820D01*
X149875500Y-110338874D01*
X149889852Y-110304226D01*
X149924500Y-110289874D01*
X149932157Y-110290476D01*
X150025000Y-110305181D01*
X150142482Y-110286574D01*
X150220879Y-110246629D01*
X150248460Y-110232576D01*
X150248462Y-110232574D01*
X150248465Y-110232573D01*
X150290352Y-110190684D01*
X150325000Y-110176332D01*
X150359648Y-110190683D01*
X150401537Y-110232572D01*
X150401544Y-110232577D01*
X150472193Y-110268573D01*
X150507521Y-110286574D01*
X150625003Y-110305181D01*
X150625004Y-110305180D01*
X150625005Y-110305181D01*
X150625006Y-110305181D01*
X150641371Y-110302588D01*
X150648330Y-110301486D01*
X150674746Y-110304611D01*
X150703438Y-110316496D01*
X150712928Y-110320427D01*
X150739446Y-110346946D01*
X150739446Y-110384449D01*
X150728825Y-110400344D01*
X150711187Y-110417982D01*
X150667318Y-110517335D01*
X150667316Y-110517341D01*
X150664501Y-110541609D01*
X150664500Y-110541629D01*
X150664500Y-110908367D01*
X150664501Y-110908374D01*
X150667318Y-110932663D01*
X150711187Y-111032017D01*
X150787982Y-111108812D01*
X150787983Y-111108812D01*
X150787984Y-111108813D01*
X150807622Y-111117484D01*
X150887335Y-111152681D01*
X150887341Y-111152683D01*
X150911609Y-111155498D01*
X150911610Y-111155498D01*
X150911627Y-111155500D01*
X151338372Y-111155499D01*
X151362662Y-111152682D01*
X151462016Y-111108813D01*
X151538813Y-111032016D01*
X151582682Y-110932662D01*
X151582682Y-110932660D01*
X151582683Y-110932658D01*
X151585498Y-110908390D01*
X151585500Y-110908370D01*
X151585500Y-110874500D01*
X151599852Y-110839852D01*
X151634500Y-110825500D01*
X151814653Y-110825500D01*
X151841876Y-110833758D01*
X151891278Y-110866767D01*
X151935180Y-110875500D01*
X152025165Y-110875500D01*
X152059813Y-110889852D01*
X152074165Y-110924500D01*
X152059814Y-110959148D01*
X152017425Y-111001537D01*
X152017422Y-111001541D01*
X151963427Y-111107515D01*
X151963426Y-111107516D01*
X151963426Y-111107518D01*
X151944819Y-111225000D01*
X151963426Y-111342482D01*
X151963426Y-111342483D01*
X151963427Y-111342484D01*
X152017422Y-111448458D01*
X152017427Y-111448465D01*
X152101534Y-111532572D01*
X152101541Y-111532577D01*
X152172190Y-111568573D01*
X152207518Y-111586574D01*
X152325000Y-111605181D01*
X152442482Y-111586574D01*
X152518879Y-111547648D01*
X152548458Y-111532577D01*
X152548460Y-111532575D01*
X152548465Y-111532573D01*
X152632573Y-111448465D01*
X152645917Y-111422277D01*
X152651371Y-111411572D01*
X152686574Y-111342482D01*
X152705181Y-111225000D01*
X152686574Y-111107518D01*
X152646989Y-111029828D01*
X152630840Y-110998133D01*
X152625500Y-110975888D01*
X152625500Y-110924500D01*
X152639852Y-110889852D01*
X152674500Y-110875500D01*
X152814820Y-110875500D01*
X152858722Y-110866767D01*
X152908504Y-110833504D01*
X152941767Y-110783722D01*
X152950500Y-110739820D01*
X152950500Y-110410180D01*
X152941767Y-110366278D01*
X152932374Y-110352221D01*
X152925058Y-110315441D01*
X152932373Y-110297780D01*
X152941767Y-110283722D01*
X152950500Y-110239820D01*
X152950500Y-109910180D01*
X152941767Y-109866278D01*
X152932374Y-109852221D01*
X152925058Y-109815441D01*
X152932373Y-109797780D01*
X152941767Y-109783722D01*
X152950500Y-109739820D01*
X152950500Y-109410180D01*
X152941767Y-109366278D01*
X152932374Y-109352220D01*
X152925058Y-109315441D01*
X152932373Y-109297780D01*
X152941767Y-109283722D01*
X152950500Y-109239820D01*
X152950500Y-108910180D01*
X152950499Y-108910176D01*
X155699500Y-108910176D01*
X155699500Y-109239823D01*
X155708232Y-109283721D01*
X155741495Y-109333504D01*
X155775077Y-109355942D01*
X155791278Y-109366767D01*
X155835180Y-109375500D01*
X156235438Y-109375500D01*
X157801466Y-109375500D01*
X157836114Y-109389852D01*
X157849523Y-109414938D01*
X157854509Y-109439999D01*
X157858233Y-109458723D01*
X157891495Y-109508504D01*
X157918490Y-109526541D01*
X157941278Y-109541767D01*
X157985180Y-109550500D01*
X158614820Y-109550500D01*
X158658722Y-109541767D01*
X158708504Y-109508504D01*
X158741767Y-109458722D01*
X158750500Y-109414820D01*
X158750500Y-108785180D01*
X158741767Y-108741278D01*
X158738614Y-108736559D01*
X158708504Y-108691495D01*
X158658721Y-108658232D01*
X158614823Y-108649500D01*
X158614820Y-108649500D01*
X157985180Y-108649500D01*
X157985176Y-108649500D01*
X157941278Y-108658232D01*
X157891495Y-108691495D01*
X157858233Y-108741276D01*
X157857000Y-108744254D01*
X157830480Y-108770771D01*
X157811731Y-108774500D01*
X155835176Y-108774500D01*
X155791278Y-108783232D01*
X155741495Y-108816495D01*
X155708232Y-108866278D01*
X155699500Y-108910176D01*
X152950499Y-108910176D01*
X152941767Y-108866278D01*
X152932374Y-108852221D01*
X152925058Y-108815441D01*
X152932373Y-108797780D01*
X152941767Y-108783722D01*
X152950500Y-108739820D01*
X152950500Y-108410180D01*
X152941767Y-108366278D01*
X152932374Y-108352221D01*
X152925058Y-108315441D01*
X152932373Y-108297780D01*
X152941767Y-108283722D01*
X152950500Y-108239820D01*
X152950500Y-107999500D01*
X152964852Y-107964852D01*
X152999500Y-107950500D01*
X153239820Y-107950500D01*
X153283722Y-107941767D01*
X153333504Y-107908504D01*
X153366767Y-107858722D01*
X153375500Y-107814820D01*
X153375500Y-106935180D01*
X153366767Y-106891278D01*
X153356916Y-106876535D01*
X153333504Y-106841495D01*
X153283721Y-106808232D01*
X153239823Y-106799500D01*
X153239820Y-106799500D01*
X152910180Y-106799500D01*
X152910176Y-106799500D01*
X152866278Y-106808232D01*
X152816495Y-106841495D01*
X152783232Y-106891278D01*
X152774500Y-106935176D01*
X152774500Y-107725500D01*
X152760148Y-107760148D01*
X152725500Y-107774500D01*
X152674500Y-107774500D01*
X152639852Y-107760148D01*
X152625500Y-107725500D01*
X152625500Y-107525174D01*
X152625499Y-107525170D01*
X152624790Y-107523458D01*
X152587364Y-107433103D01*
X152587362Y-107433101D01*
X152587362Y-107433100D01*
X152516897Y-107362636D01*
X151466899Y-106312637D01*
X151465402Y-106312017D01*
X151414965Y-106291125D01*
X151374829Y-106274500D01*
X151374828Y-106274500D01*
X151025834Y-106274500D01*
X150991186Y-106260148D01*
X150948465Y-106217427D01*
X150948458Y-106217422D01*
X150842484Y-106163427D01*
X150842483Y-106163426D01*
X150842482Y-106163426D01*
X150725000Y-106144819D01*
X150607518Y-106163426D01*
X150607516Y-106163426D01*
X150607515Y-106163427D01*
X150501541Y-106217422D01*
X150501534Y-106217427D01*
X150417427Y-106301534D01*
X150417422Y-106301541D01*
X150363427Y-106407515D01*
X150363426Y-106407516D01*
X150363426Y-106407518D01*
X150344819Y-106525000D01*
X150363426Y-106642482D01*
X150363426Y-106642483D01*
X150363427Y-106642484D01*
X150417422Y-106748458D01*
X150417427Y-106748465D01*
X150501534Y-106832572D01*
X150501541Y-106832577D01*
X150557781Y-106861232D01*
X150607518Y-106886574D01*
X150725000Y-106905181D01*
X150842482Y-106886574D01*
X150917203Y-106848502D01*
X150948458Y-106832577D01*
X150948460Y-106832575D01*
X150948465Y-106832573D01*
X150991186Y-106789852D01*
X151025834Y-106775500D01*
X151200943Y-106775500D01*
X151235591Y-106789852D01*
X152110148Y-107664409D01*
X152124500Y-107699057D01*
X152124500Y-107725500D01*
X152110148Y-107760148D01*
X152075500Y-107774500D01*
X151935180Y-107774500D01*
X151924920Y-107776541D01*
X151912150Y-107779081D01*
X151875367Y-107771764D01*
X151858932Y-107753268D01*
X151832573Y-107701535D01*
X151748465Y-107617427D01*
X151748458Y-107617422D01*
X151642484Y-107563427D01*
X151642483Y-107563426D01*
X151642482Y-107563426D01*
X151525000Y-107544819D01*
X151407518Y-107563426D01*
X151407516Y-107563426D01*
X151407515Y-107563427D01*
X151301541Y-107617422D01*
X151301534Y-107617427D01*
X151258814Y-107660148D01*
X151224166Y-107674500D01*
X151075170Y-107674500D01*
X151009889Y-107701541D01*
X150988888Y-107710240D01*
X150983101Y-107712637D01*
X150983100Y-107712637D01*
X150583103Y-108112636D01*
X150560591Y-108135148D01*
X150525943Y-108149500D01*
X150412006Y-108149500D01*
X150377358Y-108135148D01*
X150363006Y-108100500D01*
X150368347Y-108078254D01*
X150369223Y-108076535D01*
X150386574Y-108042482D01*
X150405181Y-107925000D01*
X150386574Y-107807518D01*
X150358052Y-107751540D01*
X150332577Y-107701541D01*
X150332572Y-107701534D01*
X150290686Y-107659648D01*
X150276334Y-107625000D01*
X150290686Y-107590352D01*
X150307267Y-107573771D01*
X150332573Y-107548465D01*
X150334540Y-107544606D01*
X150367365Y-107480181D01*
X150386574Y-107442482D01*
X150405181Y-107325000D01*
X150386574Y-107207518D01*
X150358400Y-107152223D01*
X150332577Y-107101541D01*
X150332572Y-107101534D01*
X150248465Y-107017427D01*
X150248458Y-107017422D01*
X150142484Y-106963427D01*
X150142483Y-106963426D01*
X150142482Y-106963426D01*
X150025000Y-106944819D01*
X150024999Y-106944819D01*
X149932165Y-106959522D01*
X149895698Y-106950767D01*
X149876103Y-106918790D01*
X149875500Y-106911125D01*
X149875500Y-106710180D01*
X149875499Y-106710176D01*
X149866767Y-106666278D01*
X149833504Y-106616495D01*
X149783721Y-106583232D01*
X149739823Y-106574500D01*
X149739820Y-106574500D01*
X149738874Y-106574500D01*
X149738578Y-106574377D01*
X149737424Y-106574264D01*
X149737458Y-106573913D01*
X149704226Y-106560148D01*
X149689874Y-106525500D01*
X149690476Y-106517842D01*
X149705181Y-106425000D01*
X149686574Y-106307518D01*
X149665110Y-106265393D01*
X149632577Y-106201541D01*
X149632572Y-106201534D01*
X149548465Y-106117427D01*
X149548458Y-106117422D01*
X149442484Y-106063427D01*
X149442483Y-106063426D01*
X149442482Y-106063426D01*
X149325000Y-106044819D01*
X149207518Y-106063426D01*
X149207516Y-106063426D01*
X149207515Y-106063427D01*
X149101541Y-106117422D01*
X149101534Y-106117427D01*
X149017427Y-106201534D01*
X149017422Y-106201541D01*
X148968159Y-106298228D01*
X148939642Y-106322585D01*
X148902255Y-106319642D01*
X148877898Y-106291125D01*
X148875500Y-106275983D01*
X148875500Y-105710180D01*
X148875499Y-105710176D01*
X148873073Y-105697982D01*
X148866767Y-105666278D01*
X148833758Y-105616876D01*
X148825500Y-105589653D01*
X148825500Y-105534499D01*
X148839852Y-105499851D01*
X148874500Y-105485499D01*
X149128368Y-105485499D01*
X149128372Y-105485499D01*
X149152662Y-105482682D01*
X149252016Y-105438813D01*
X149328813Y-105362016D01*
X149372682Y-105262662D01*
X149372682Y-105262660D01*
X149372683Y-105262658D01*
X149375498Y-105238390D01*
X149375497Y-105238390D01*
X149375500Y-105238373D01*
X149375499Y-104969055D01*
X149389850Y-104934409D01*
X149660004Y-104664254D01*
X149660007Y-104664253D01*
X149666896Y-104657364D01*
X149666897Y-104657364D01*
X149737364Y-104586897D01*
X149775500Y-104494828D01*
X149775500Y-104325834D01*
X149789852Y-104291186D01*
X149791186Y-104289852D01*
X149825834Y-104275500D01*
X151300943Y-104275500D01*
X151335591Y-104289852D01*
X151585148Y-104539408D01*
X151599500Y-104574056D01*
X151599500Y-105172870D01*
X151610900Y-105230180D01*
X151614150Y-105246521D01*
X151669956Y-105330043D01*
X151717810Y-105362017D01*
X151753479Y-105385850D01*
X151827130Y-105400500D01*
X151827133Y-105400500D01*
X152622867Y-105400500D01*
X152622870Y-105400500D01*
X152696521Y-105385850D01*
X152780043Y-105330043D01*
X152835850Y-105246521D01*
X152850500Y-105172870D01*
X152850500Y-104477130D01*
X153049500Y-104477130D01*
X153049500Y-105172870D01*
X153060900Y-105230180D01*
X153064150Y-105246521D01*
X153119956Y-105330043D01*
X153167810Y-105362017D01*
X153203479Y-105385850D01*
X153277130Y-105400500D01*
X153922573Y-105400500D01*
X153957221Y-105414852D01*
X154135148Y-105592779D01*
X154149500Y-105627427D01*
X154149500Y-106322573D01*
X154135148Y-106357221D01*
X153933103Y-106559266D01*
X153862637Y-106629730D01*
X153862637Y-106629731D01*
X153862636Y-106629732D01*
X153862636Y-106629733D01*
X153858470Y-106639791D01*
X153824500Y-106721800D01*
X153824500Y-106814653D01*
X153816242Y-106841876D01*
X153783232Y-106891279D01*
X153774500Y-106935176D01*
X153774500Y-107814823D01*
X153783232Y-107858721D01*
X153816495Y-107908504D01*
X153866278Y-107941767D01*
X153910180Y-107950500D01*
X154239820Y-107950500D01*
X154283722Y-107941767D01*
X154297778Y-107932374D01*
X154334559Y-107925058D01*
X154352219Y-107932373D01*
X154366278Y-107941767D01*
X154410180Y-107950500D01*
X154739820Y-107950500D01*
X154783722Y-107941767D01*
X154797778Y-107932374D01*
X154834559Y-107925058D01*
X154852219Y-107932373D01*
X154866278Y-107941767D01*
X154910180Y-107950500D01*
X155239820Y-107950500D01*
X155283722Y-107941767D01*
X155297778Y-107932374D01*
X155334559Y-107925058D01*
X155352219Y-107932373D01*
X155366278Y-107941767D01*
X155410180Y-107950500D01*
X155739820Y-107950500D01*
X155783722Y-107941767D01*
X155833504Y-107908504D01*
X155866767Y-107858722D01*
X155875500Y-107814820D01*
X155875500Y-107674500D01*
X155889852Y-107639852D01*
X155924500Y-107625500D01*
X156124826Y-107625500D01*
X156124828Y-107625500D01*
X156216897Y-107587364D01*
X156216899Y-107587362D01*
X156216900Y-107587362D01*
X156737362Y-107066900D01*
X156737362Y-107066899D01*
X156737364Y-107066897D01*
X156775500Y-106974828D01*
X156775500Y-106875172D01*
X156775500Y-106458941D01*
X156789852Y-106424293D01*
X156804709Y-106414116D01*
X156805276Y-106413866D01*
X156862016Y-106388813D01*
X156862017Y-106388813D01*
X156938812Y-106312017D01*
X156938813Y-106312016D01*
X156982682Y-106212662D01*
X156982682Y-106212660D01*
X156982683Y-106212658D01*
X156985498Y-106188390D01*
X156985497Y-106188390D01*
X156985500Y-106188373D01*
X156985499Y-105821628D01*
X156982682Y-105797338D01*
X156938813Y-105697984D01*
X156938812Y-105697983D01*
X156938812Y-105697982D01*
X156862017Y-105621187D01*
X156862018Y-105621187D01*
X156762664Y-105577318D01*
X156762658Y-105577316D01*
X156738390Y-105574501D01*
X156738375Y-105574500D01*
X156738373Y-105574500D01*
X156738370Y-105574500D01*
X156311632Y-105574500D01*
X156311625Y-105574501D01*
X156287336Y-105577318D01*
X156187982Y-105621187D01*
X156111187Y-105697982D01*
X156067318Y-105797335D01*
X156067316Y-105797341D01*
X156064501Y-105821609D01*
X156064500Y-105821629D01*
X156064500Y-106188367D01*
X156064501Y-106188374D01*
X156064586Y-106189104D01*
X156064550Y-106189228D01*
X156064583Y-106189789D01*
X156064387Y-106189800D01*
X156054322Y-106225175D01*
X156021558Y-106243424D01*
X155997157Y-106237545D01*
X155996355Y-106239483D01*
X155991897Y-106237636D01*
X155915746Y-106206093D01*
X155889229Y-106179575D01*
X155885499Y-106160828D01*
X155885499Y-105821628D01*
X155882682Y-105797338D01*
X155838813Y-105697984D01*
X155838812Y-105697983D01*
X155838812Y-105697982D01*
X155762017Y-105621187D01*
X155762018Y-105621187D01*
X155662664Y-105577318D01*
X155662658Y-105577316D01*
X155638390Y-105574501D01*
X155638375Y-105574500D01*
X155638373Y-105574500D01*
X155638370Y-105574500D01*
X155211632Y-105574500D01*
X155211625Y-105574501D01*
X155187336Y-105577318D01*
X155094292Y-105618401D01*
X155056799Y-105619267D01*
X155029675Y-105593368D01*
X155025500Y-105573576D01*
X155025500Y-105074111D01*
X155030841Y-105051866D01*
X155061107Y-104992463D01*
X155086574Y-104942482D01*
X155105181Y-104825000D01*
X155086574Y-104707518D01*
X155067751Y-104670576D01*
X155032577Y-104601541D01*
X155032572Y-104601534D01*
X154948465Y-104517427D01*
X154948458Y-104517422D01*
X154842484Y-104463427D01*
X154842483Y-104463426D01*
X154842482Y-104463426D01*
X154725000Y-104444819D01*
X154607518Y-104463426D01*
X154607516Y-104463426D01*
X154607515Y-104463427D01*
X154501541Y-104517422D01*
X154501534Y-104517427D01*
X154417427Y-104601534D01*
X154417422Y-104601541D01*
X154393159Y-104649162D01*
X154364642Y-104673519D01*
X154327255Y-104670576D01*
X154302898Y-104642059D01*
X154300500Y-104626917D01*
X154300500Y-104477133D01*
X154300500Y-104477130D01*
X154285850Y-104403479D01*
X154257849Y-104361572D01*
X154230043Y-104319956D01*
X154146521Y-104264150D01*
X154133560Y-104261572D01*
X154072870Y-104249500D01*
X153277130Y-104249500D01*
X153221891Y-104260487D01*
X153203478Y-104264150D01*
X153119956Y-104319956D01*
X153064150Y-104403478D01*
X153064150Y-104403479D01*
X153049500Y-104477130D01*
X152850500Y-104477130D01*
X152835850Y-104403479D01*
X152807849Y-104361572D01*
X152780043Y-104319956D01*
X152696521Y-104264150D01*
X152683560Y-104261572D01*
X152622870Y-104249500D01*
X152622867Y-104249500D01*
X152024056Y-104249500D01*
X151989408Y-104235148D01*
X151566899Y-103812637D01*
X151474829Y-103774500D01*
X151474828Y-103774500D01*
X149825834Y-103774500D01*
X149791186Y-103760148D01*
X149748465Y-103717427D01*
X149748458Y-103717422D01*
X149642484Y-103663427D01*
X149642483Y-103663426D01*
X149642482Y-103663426D01*
X149525000Y-103644819D01*
X149407518Y-103663426D01*
X149407516Y-103663426D01*
X149407515Y-103663427D01*
X149301541Y-103717422D01*
X149301534Y-103717427D01*
X149217427Y-103801534D01*
X149217422Y-103801541D01*
X149163427Y-103907515D01*
X149163426Y-103907516D01*
X149163426Y-103907518D01*
X149144819Y-104025000D01*
X149163426Y-104142482D01*
X149163426Y-104142483D01*
X149163427Y-104142484D01*
X149217422Y-104248458D01*
X149217427Y-104248465D01*
X149257702Y-104288740D01*
X149272054Y-104323388D01*
X149257702Y-104358036D01*
X149065590Y-104550148D01*
X149030942Y-104564500D01*
X148761632Y-104564500D01*
X148761625Y-104564501D01*
X148737336Y-104567318D01*
X148637982Y-104611187D01*
X148561187Y-104687982D01*
X148535883Y-104745292D01*
X148508759Y-104771191D01*
X148491058Y-104774500D01*
X148485099Y-104774500D01*
X148450451Y-104760148D01*
X148440274Y-104745292D01*
X148416640Y-104691767D01*
X148409616Y-104675859D01*
X148409615Y-104675858D01*
X148409615Y-104675857D01*
X148334142Y-104600384D01*
X148252432Y-104564305D01*
X148226533Y-104537180D01*
X148227399Y-104499688D01*
X148252430Y-104474656D01*
X148309141Y-104449616D01*
X148384616Y-104374141D01*
X148427730Y-104276498D01*
X148427730Y-104276496D01*
X148427731Y-104276494D01*
X148430498Y-104252640D01*
X148430497Y-104252640D01*
X148430500Y-104252623D01*
X148430499Y-103797378D01*
X148427730Y-103773502D01*
X148392440Y-103693580D01*
X148391575Y-103656090D01*
X148402616Y-103639144D01*
X148601909Y-103439850D01*
X148636553Y-103425499D01*
X149141294Y-103425499D01*
X149141296Y-103425499D01*
X149189142Y-103418528D01*
X149213067Y-103415043D01*
X149323780Y-103360919D01*
X149410919Y-103273780D01*
X149465043Y-103163067D01*
X149475500Y-103091295D01*
X149475499Y-102508706D01*
X149472429Y-102487636D01*
X149465043Y-102436933D01*
X149465043Y-102436932D01*
X149447001Y-102400028D01*
X149410919Y-102326220D01*
X149323780Y-102239081D01*
X149268423Y-102212019D01*
X149213070Y-102184958D01*
X149213068Y-102184957D01*
X149141296Y-102174500D01*
X148633703Y-102174500D01*
X148561933Y-102184956D01*
X148561932Y-102184956D01*
X148451222Y-102239080D01*
X148451218Y-102239082D01*
X148364082Y-102326218D01*
X148364080Y-102326222D01*
X148309958Y-102436929D01*
X148309957Y-102436931D01*
X148299500Y-102508703D01*
X148299500Y-103013442D01*
X148285148Y-103048090D01*
X147868103Y-103465136D01*
X147797635Y-103535602D01*
X147791733Y-103549851D01*
X147766257Y-103575921D01*
X147710859Y-103600382D01*
X147710858Y-103600384D01*
X147635384Y-103675857D01*
X147592270Y-103773499D01*
X147592268Y-103773505D01*
X147589501Y-103797359D01*
X147589500Y-103797379D01*
X147589500Y-104252617D01*
X147589501Y-104252626D01*
X147592270Y-104276499D01*
X147635384Y-104374142D01*
X147710857Y-104449615D01*
X147710858Y-104449615D01*
X147710859Y-104449616D01*
X147742135Y-104463426D01*
X147792567Y-104485694D01*
X147818466Y-104512818D01*
X147817600Y-104550311D01*
X147792568Y-104575344D01*
X147735856Y-104600385D01*
X147660384Y-104675857D01*
X147617270Y-104773499D01*
X147617268Y-104773505D01*
X147614501Y-104797359D01*
X147614500Y-104797378D01*
X147614500Y-105252617D01*
X147614501Y-105252626D01*
X147617270Y-105276499D01*
X147660384Y-105374142D01*
X147735857Y-105449615D01*
X147833499Y-105492729D01*
X147833502Y-105492730D01*
X147844430Y-105493997D01*
X147877193Y-105512245D01*
X147887458Y-105548316D01*
X147869210Y-105581080D01*
X147866007Y-105583413D01*
X147852223Y-105592623D01*
X147815440Y-105599939D01*
X147797780Y-105592625D01*
X147783991Y-105583413D01*
X147783722Y-105583233D01*
X147783721Y-105583232D01*
X147783720Y-105583232D01*
X147739823Y-105574500D01*
X147739820Y-105574500D01*
X147410180Y-105574500D01*
X147410176Y-105574500D01*
X147366279Y-105583232D01*
X147352220Y-105592625D01*
X147315438Y-105599939D01*
X147297780Y-105592625D01*
X147283991Y-105583413D01*
X147283722Y-105583233D01*
X147283721Y-105583232D01*
X147283720Y-105583232D01*
X147248147Y-105576156D01*
X147216965Y-105555321D01*
X147209649Y-105518538D01*
X147230484Y-105487356D01*
X147237911Y-105483274D01*
X147314141Y-105449616D01*
X147389616Y-105374141D01*
X147432730Y-105276498D01*
X147432730Y-105276496D01*
X147432731Y-105276494D01*
X147435498Y-105252640D01*
X147435497Y-105252640D01*
X147435500Y-105252623D01*
X147435499Y-104797378D01*
X147432730Y-104773502D01*
X147389616Y-104675859D01*
X147389615Y-104675858D01*
X147389615Y-104675857D01*
X147314142Y-104600384D01*
X147232432Y-104564305D01*
X147206533Y-104537180D01*
X147207399Y-104499688D01*
X147232430Y-104474656D01*
X147289141Y-104449616D01*
X147364616Y-104374141D01*
X147407730Y-104276498D01*
X147407730Y-104276496D01*
X147407731Y-104276494D01*
X147410498Y-104252640D01*
X147410497Y-104252640D01*
X147410500Y-104252623D01*
X147410499Y-103797378D01*
X147407730Y-103773502D01*
X147364616Y-103675859D01*
X147364615Y-103675858D01*
X147364615Y-103675857D01*
X147289142Y-103600384D01*
X147191500Y-103557270D01*
X147191494Y-103557268D01*
X147167640Y-103554501D01*
X147167625Y-103554500D01*
X147167623Y-103554500D01*
X147167620Y-103554500D01*
X146894057Y-103554500D01*
X146859409Y-103540148D01*
X146764852Y-103445591D01*
X146750500Y-103410943D01*
X146750500Y-102650174D01*
X146750499Y-102650170D01*
X146712364Y-102558103D01*
X146712362Y-102558101D01*
X146712362Y-102558100D01*
X146641897Y-102487636D01*
X146341899Y-102187637D01*
X146335431Y-102184958D01*
X146295112Y-102168257D01*
X146249829Y-102149500D01*
X146249828Y-102149500D01*
X144849828Y-102149500D01*
X144750172Y-102149500D01*
X144750170Y-102149500D01*
X144673898Y-102181093D01*
X144664569Y-102184958D01*
X144658101Y-102187637D01*
X144658100Y-102187637D01*
X144058103Y-102787636D01*
X143987637Y-102858100D01*
X143987637Y-102858101D01*
X143987636Y-102858102D01*
X143987636Y-102858103D01*
X143984240Y-102866301D01*
X143949500Y-102950170D01*
X143949500Y-103399166D01*
X143935148Y-103433814D01*
X143892427Y-103476534D01*
X143892422Y-103476541D01*
X143838427Y-103582515D01*
X143838426Y-103582516D01*
X143838426Y-103582518D01*
X143819819Y-103700000D01*
X143838426Y-103817482D01*
X143838426Y-103817483D01*
X143838427Y-103817484D01*
X143892422Y-103923458D01*
X143892427Y-103923465D01*
X143976534Y-104007572D01*
X143976541Y-104007577D01*
X144023025Y-104031261D01*
X144082518Y-104061574D01*
X144200000Y-104080181D01*
X144317482Y-104061574D01*
X144404014Y-104017484D01*
X144423458Y-104007577D01*
X144423460Y-104007575D01*
X144423465Y-104007573D01*
X144507573Y-103923465D01*
X144508547Y-103921555D01*
X144524120Y-103890988D01*
X144561574Y-103817482D01*
X144580181Y-103700000D01*
X144561574Y-103582518D01*
X144543573Y-103547190D01*
X144507577Y-103476541D01*
X144507572Y-103476534D01*
X144464852Y-103433814D01*
X144450500Y-103399166D01*
X144450500Y-103124057D01*
X144464852Y-103089409D01*
X144889409Y-102664852D01*
X144924057Y-102650500D01*
X145216149Y-102650500D01*
X145250797Y-102664852D01*
X145265149Y-102699500D01*
X145250797Y-102734148D01*
X145243372Y-102740242D01*
X145241494Y-102741496D01*
X145208232Y-102791278D01*
X145199500Y-102835176D01*
X145199500Y-104564823D01*
X145208232Y-104608721D01*
X145241495Y-104658504D01*
X145268490Y-104676541D01*
X145291278Y-104691767D01*
X145335180Y-104700500D01*
X145500500Y-104700500D01*
X145535148Y-104714852D01*
X145549500Y-104749500D01*
X145549500Y-104949829D01*
X145560086Y-104975385D01*
X145587636Y-105041897D01*
X145587637Y-105041898D01*
X145587637Y-105041899D01*
X145805708Y-105259969D01*
X145820060Y-105294617D01*
X145819819Y-105297693D01*
X145819819Y-105299999D01*
X145819819Y-105300000D01*
X145838426Y-105417482D01*
X145838426Y-105417483D01*
X145838427Y-105417484D01*
X145888950Y-105516643D01*
X145891893Y-105554030D01*
X145869827Y-105579864D01*
X145870288Y-105580554D01*
X145867843Y-105582187D01*
X145867536Y-105582547D01*
X145866789Y-105582891D01*
X145852220Y-105592625D01*
X145815438Y-105599939D01*
X145797780Y-105592625D01*
X145783991Y-105583413D01*
X145783722Y-105583233D01*
X145783721Y-105583232D01*
X145783720Y-105583232D01*
X145739823Y-105574500D01*
X145739820Y-105574500D01*
X145538874Y-105574500D01*
X145504226Y-105560148D01*
X145489874Y-105525500D01*
X145490476Y-105517842D01*
X145505181Y-105425000D01*
X145486574Y-105307518D01*
X145463717Y-105262658D01*
X145432577Y-105201541D01*
X145432572Y-105201534D01*
X145348465Y-105117427D01*
X145348458Y-105117422D01*
X145242484Y-105063427D01*
X145242483Y-105063426D01*
X145242482Y-105063426D01*
X145125000Y-105044819D01*
X145007518Y-105063426D01*
X145007516Y-105063426D01*
X145007515Y-105063427D01*
X144901541Y-105117422D01*
X144901534Y-105117427D01*
X144817427Y-105201534D01*
X144817422Y-105201541D01*
X144763427Y-105307515D01*
X144763426Y-105307516D01*
X144763426Y-105307518D01*
X144744819Y-105425000D01*
X144763426Y-105542482D01*
X144789053Y-105592779D01*
X144794744Y-105603947D01*
X144797686Y-105641334D01*
X144791827Y-105653413D01*
X144783233Y-105666275D01*
X144783232Y-105666277D01*
X144774500Y-105710176D01*
X144774500Y-106525500D01*
X144760148Y-106560148D01*
X144725500Y-106574500D01*
X144059056Y-106574500D01*
X144024408Y-106560148D01*
X143694851Y-106230590D01*
X143680499Y-106195942D01*
X143680499Y-105922382D01*
X143680498Y-105922377D01*
X143677730Y-105898502D01*
X143634616Y-105800859D01*
X143634615Y-105800858D01*
X143634615Y-105800857D01*
X143559142Y-105725384D01*
X143461500Y-105682270D01*
X143461494Y-105682268D01*
X143437640Y-105679501D01*
X143437625Y-105679500D01*
X143437623Y-105679500D01*
X143437620Y-105679500D01*
X143082382Y-105679500D01*
X143082373Y-105679501D01*
X143058500Y-105682270D01*
X142964317Y-105723856D01*
X142926824Y-105724722D01*
X142899700Y-105698823D01*
X142898834Y-105661330D01*
X142909875Y-105644385D01*
X143259969Y-105294290D01*
X143294616Y-105279939D01*
X143297692Y-105280181D01*
X143299998Y-105280181D01*
X143299998Y-105280180D01*
X143300000Y-105280181D01*
X143417482Y-105261574D01*
X143504016Y-105217483D01*
X143523458Y-105207577D01*
X143523460Y-105207575D01*
X143523465Y-105207573D01*
X143607573Y-105123465D01*
X143612518Y-105113761D01*
X143633053Y-105073458D01*
X143661574Y-105017482D01*
X143680181Y-104900000D01*
X143661574Y-104782518D01*
X143636096Y-104732515D01*
X143607577Y-104676541D01*
X143607572Y-104676534D01*
X143523465Y-104592427D01*
X143523458Y-104592422D01*
X143417484Y-104538427D01*
X143417483Y-104538426D01*
X143417482Y-104538426D01*
X143300000Y-104519819D01*
X143182518Y-104538426D01*
X143182516Y-104538426D01*
X143182515Y-104538427D01*
X143076541Y-104592422D01*
X143076534Y-104592427D01*
X142992427Y-104676534D01*
X142992422Y-104676541D01*
X142938427Y-104782515D01*
X142938426Y-104782516D01*
X142938426Y-104782518D01*
X142922495Y-104883103D01*
X142919819Y-104900000D01*
X142919819Y-104903855D01*
X142917988Y-104903855D01*
X142910689Y-104934200D01*
X142905708Y-104940029D01*
X142535591Y-105310148D01*
X142500943Y-105324500D01*
X140587006Y-105324500D01*
X140552358Y-105310148D01*
X140538006Y-105275500D01*
X140543347Y-105253254D01*
X140547827Y-105244462D01*
X140561574Y-105217482D01*
X140580181Y-105100000D01*
X140561574Y-104982518D01*
X140536744Y-104933786D01*
X140507577Y-104876541D01*
X140507572Y-104876534D01*
X140489852Y-104858814D01*
X140475500Y-104824166D01*
X140475500Y-104654500D01*
X140489852Y-104619852D01*
X140524500Y-104605500D01*
X140725003Y-104605500D01*
X140725003Y-104605499D01*
X140748100Y-104599310D01*
X140802748Y-104584668D01*
X140802748Y-104584667D01*
X140802750Y-104584667D01*
X140859667Y-104527750D01*
X140860139Y-104525991D01*
X140875007Y-104470499D01*
X140880499Y-104450003D01*
X140880500Y-104450003D01*
X140880500Y-102949997D01*
X140880499Y-102949996D01*
X140859668Y-102872251D01*
X140859665Y-102872247D01*
X140802752Y-102815334D01*
X140802748Y-102815331D01*
X140725003Y-102794500D01*
X140725000Y-102794500D01*
X139725000Y-102794500D01*
X139724999Y-102794500D01*
X139656078Y-102810608D01*
X139606463Y-102854210D01*
X139570963Y-102866301D01*
X139539469Y-102852051D01*
X139502752Y-102815334D01*
X139502748Y-102815331D01*
X139425003Y-102794500D01*
X139425000Y-102794500D01*
X138275000Y-102794500D01*
X138274997Y-102794500D01*
X138197251Y-102815331D01*
X138197247Y-102815334D01*
X138140334Y-102872247D01*
X138140331Y-102872251D01*
X138119500Y-102949996D01*
X138119500Y-103400500D01*
X138105148Y-103435148D01*
X138070500Y-103449500D01*
X137255537Y-103449500D01*
X137255529Y-103449499D01*
X137249828Y-103449499D01*
X137150173Y-103449499D01*
X137150171Y-103449499D01*
X137112423Y-103465136D01*
X137058103Y-103487636D01*
X137040028Y-103505710D01*
X137005379Y-103520060D01*
X137002309Y-103519819D01*
X137000001Y-103519819D01*
X137000000Y-103519819D01*
X136882518Y-103538426D01*
X136882516Y-103538426D01*
X136882515Y-103538427D01*
X136776541Y-103592422D01*
X136776534Y-103592427D01*
X136733814Y-103635148D01*
X136704642Y-103647231D01*
X136704906Y-103648558D01*
X136700172Y-103649499D01*
X136692305Y-103652758D01*
X136654802Y-103652756D01*
X136646332Y-103648228D01*
X136628232Y-103636133D01*
X136613610Y-103633224D01*
X136569748Y-103624500D01*
X136448499Y-103624500D01*
X136413851Y-103610148D01*
X136399499Y-103575500D01*
X136406975Y-103552489D01*
X136405823Y-103551902D01*
X136438567Y-103487636D01*
X136461574Y-103442482D01*
X136480181Y-103325000D01*
X136461574Y-103207518D01*
X136419049Y-103124057D01*
X136407577Y-103101541D01*
X136407572Y-103101534D01*
X136323465Y-103017427D01*
X136323458Y-103017422D01*
X136217484Y-102963427D01*
X136217483Y-102963426D01*
X136217482Y-102963426D01*
X136100000Y-102944819D01*
X135982518Y-102963426D01*
X135982516Y-102963426D01*
X135982515Y-102963427D01*
X135876541Y-103017422D01*
X135876534Y-103017427D01*
X135792427Y-103101534D01*
X135792422Y-103101541D01*
X135738427Y-103207515D01*
X135738426Y-103207516D01*
X135738426Y-103207518D01*
X135719819Y-103325000D01*
X135738426Y-103442482D01*
X135738426Y-103442483D01*
X135738427Y-103442484D01*
X135794177Y-103551902D01*
X135792586Y-103552712D01*
X135799898Y-103583166D01*
X135780302Y-103615142D01*
X135751501Y-103624500D01*
X135630252Y-103624500D01*
X135595162Y-103631479D01*
X135571767Y-103636133D01*
X135553665Y-103648229D01*
X135516883Y-103655545D01*
X135507691Y-103652757D01*
X135499829Y-103649500D01*
X135495095Y-103648559D01*
X135495358Y-103647232D01*
X135466186Y-103635148D01*
X135423465Y-103592427D01*
X135423458Y-103592422D01*
X135317484Y-103538427D01*
X135317483Y-103538426D01*
X135317482Y-103538426D01*
X135200000Y-103519819D01*
X135082518Y-103538426D01*
X135082516Y-103538426D01*
X135082515Y-103538427D01*
X134976541Y-103592422D01*
X134976534Y-103592427D01*
X134892427Y-103676534D01*
X134892422Y-103676541D01*
X134838427Y-103782515D01*
X134838426Y-103782516D01*
X134838426Y-103782518D01*
X134819819Y-103900000D01*
X134838426Y-104017482D01*
X134838426Y-104017483D01*
X134838427Y-104017484D01*
X134892422Y-104123458D01*
X134892427Y-104123465D01*
X134976534Y-104207572D01*
X134976541Y-104207577D01*
X135030654Y-104235148D01*
X135082518Y-104261574D01*
X135200000Y-104280181D01*
X135317482Y-104261574D01*
X135378255Y-104230607D01*
X135415641Y-104227665D01*
X135444159Y-104252021D01*
X135449500Y-104274267D01*
X135449500Y-104494748D01*
X135453716Y-104515941D01*
X135446399Y-104552723D01*
X135415216Y-104573559D01*
X135405657Y-104574500D01*
X134670885Y-104574500D01*
X134651092Y-104570324D01*
X134629707Y-104560881D01*
X134603808Y-104533757D01*
X134600500Y-104516057D01*
X134600500Y-104450979D01*
X134605840Y-104428734D01*
X134611574Y-104417482D01*
X134630181Y-104300000D01*
X134611574Y-104182518D01*
X134581485Y-104123465D01*
X134557577Y-104076541D01*
X134557572Y-104076534D01*
X134473465Y-103992427D01*
X134473458Y-103992422D01*
X134367484Y-103938427D01*
X134367483Y-103938426D01*
X134367482Y-103938426D01*
X134250000Y-103919819D01*
X134132518Y-103938426D01*
X134132516Y-103938426D01*
X134132515Y-103938427D01*
X134026541Y-103992422D01*
X134026534Y-103992427D01*
X133942427Y-104076534D01*
X133942422Y-104076541D01*
X133888427Y-104182515D01*
X133888426Y-104182516D01*
X133888426Y-104182518D01*
X133869819Y-104300000D01*
X133888426Y-104417482D01*
X133888426Y-104417483D01*
X133888427Y-104417484D01*
X133942422Y-104523458D01*
X133942427Y-104523465D01*
X133974418Y-104555456D01*
X133988770Y-104590104D01*
X133974419Y-104624751D01*
X133972254Y-104626917D01*
X133936187Y-104662984D01*
X133936185Y-104662987D01*
X133892318Y-104762335D01*
X133892316Y-104762341D01*
X133889501Y-104786609D01*
X133889500Y-104786629D01*
X133889500Y-105153367D01*
X133889501Y-105153374D01*
X133892318Y-105177663D01*
X133936187Y-105277017D01*
X134012982Y-105353812D01*
X134012983Y-105353812D01*
X134012984Y-105353813D01*
X134031562Y-105362016D01*
X134112335Y-105397681D01*
X134112341Y-105397683D01*
X134136609Y-105400498D01*
X134136610Y-105400498D01*
X134136627Y-105400500D01*
X134563372Y-105400499D01*
X134587662Y-105397682D01*
X134687016Y-105353813D01*
X134763813Y-105277016D01*
X134807682Y-105177662D01*
X134807682Y-105177660D01*
X134807683Y-105177658D01*
X134810498Y-105153390D01*
X134810500Y-105153370D01*
X134810500Y-105124500D01*
X134824852Y-105089852D01*
X134859500Y-105075500D01*
X134905657Y-105075500D01*
X134940305Y-105089852D01*
X134954657Y-105124500D01*
X134953716Y-105134054D01*
X134949500Y-105155252D01*
X134949500Y-105155255D01*
X134949500Y-105224166D01*
X134935148Y-105258814D01*
X134892427Y-105301534D01*
X134892422Y-105301541D01*
X134838427Y-105407515D01*
X134838426Y-105407516D01*
X134838426Y-105407518D01*
X134819819Y-105525000D01*
X134838426Y-105642482D01*
X134838426Y-105642483D01*
X134838427Y-105642484D01*
X134892422Y-105748458D01*
X134892427Y-105748465D01*
X134934315Y-105790353D01*
X134948667Y-105825001D01*
X134934316Y-105859648D01*
X134926236Y-105867729D01*
X134892425Y-105901540D01*
X134892422Y-105901544D01*
X134838427Y-106007518D01*
X134838426Y-106007519D01*
X134838426Y-106007521D01*
X134819819Y-106125003D01*
X134838426Y-106242485D01*
X134838426Y-106242486D01*
X134838427Y-106242487D01*
X134892422Y-106348461D01*
X134892427Y-106348468D01*
X134909811Y-106365852D01*
X134924163Y-106400500D01*
X134909811Y-106435148D01*
X134875163Y-106449500D01*
X134550834Y-106449500D01*
X134516186Y-106435148D01*
X134473465Y-106392427D01*
X134473458Y-106392422D01*
X134367484Y-106338427D01*
X134367483Y-106338426D01*
X134367482Y-106338426D01*
X134250000Y-106319819D01*
X134249999Y-106319819D01*
X134157320Y-106334496D01*
X134120854Y-106325740D01*
X134115008Y-106320747D01*
X133884851Y-106090590D01*
X133870499Y-106055942D01*
X133870499Y-105782382D01*
X133870498Y-105782373D01*
X133870248Y-105780216D01*
X133867730Y-105758502D01*
X133824616Y-105660859D01*
X133824615Y-105660858D01*
X133824615Y-105660857D01*
X133749142Y-105585384D01*
X133651500Y-105542270D01*
X133651494Y-105542268D01*
X133627640Y-105539501D01*
X133627625Y-105539500D01*
X133627623Y-105539500D01*
X133627620Y-105539500D01*
X133172382Y-105539500D01*
X133172373Y-105539501D01*
X133148500Y-105542270D01*
X133050859Y-105585383D01*
X132996691Y-105639551D01*
X132962043Y-105653902D01*
X132927394Y-105639550D01*
X132917218Y-105624694D01*
X132889969Y-105562982D01*
X132884616Y-105550859D01*
X132884615Y-105550858D01*
X132884615Y-105550857D01*
X132809141Y-105475383D01*
X132791549Y-105467615D01*
X132765651Y-105440490D01*
X132766519Y-105402997D01*
X132791552Y-105377966D01*
X132799141Y-105374616D01*
X132874616Y-105299141D01*
X132917730Y-105201498D01*
X132917730Y-105201496D01*
X132917731Y-105201494D01*
X132920498Y-105177640D01*
X132920497Y-105177640D01*
X132920500Y-105177623D01*
X132920499Y-104722378D01*
X132917730Y-104698502D01*
X132874616Y-104600859D01*
X132874615Y-104600858D01*
X132874615Y-104600857D01*
X132799141Y-104525383D01*
X132791549Y-104522031D01*
X132765651Y-104494906D01*
X132766519Y-104457413D01*
X132791549Y-104432383D01*
X132809141Y-104424616D01*
X132884616Y-104349141D01*
X132886375Y-104345156D01*
X132913495Y-104319256D01*
X132950988Y-104320118D01*
X132953446Y-104321285D01*
X132962374Y-104325834D01*
X133032518Y-104361574D01*
X133150000Y-104380181D01*
X133267482Y-104361574D01*
X133350536Y-104319256D01*
X133373458Y-104307577D01*
X133373460Y-104307575D01*
X133373465Y-104307573D01*
X133457573Y-104223465D01*
X133465669Y-104207577D01*
X133474120Y-104190988D01*
X133511574Y-104117482D01*
X133530181Y-104000000D01*
X133511574Y-103882518D01*
X133481485Y-103823465D01*
X133457577Y-103776541D01*
X133457572Y-103776534D01*
X133373465Y-103692427D01*
X133373458Y-103692422D01*
X133267484Y-103638427D01*
X133267483Y-103638426D01*
X133267482Y-103638426D01*
X133150000Y-103619819D01*
X133032518Y-103638426D01*
X133032516Y-103638426D01*
X133032515Y-103638427D01*
X132953447Y-103678714D01*
X132916060Y-103681657D01*
X132887543Y-103657300D01*
X132886377Y-103654847D01*
X132885593Y-103653073D01*
X132884616Y-103650859D01*
X132884615Y-103650858D01*
X132884615Y-103650857D01*
X132809142Y-103575384D01*
X132711500Y-103532270D01*
X132711494Y-103532268D01*
X132687640Y-103529501D01*
X132687625Y-103529500D01*
X132687623Y-103529500D01*
X132687620Y-103529500D01*
X132530556Y-103529500D01*
X132495908Y-103515148D01*
X132481556Y-103480500D01*
X132495905Y-103445855D01*
X132496169Y-103445591D01*
X132501906Y-103439853D01*
X132536549Y-103425499D01*
X133041294Y-103425499D01*
X133041296Y-103425499D01*
X133089142Y-103418528D01*
X133113067Y-103415043D01*
X133223780Y-103360919D01*
X133310919Y-103273780D01*
X133365043Y-103163067D01*
X133375500Y-103091295D01*
X133375499Y-102508706D01*
X133372429Y-102487636D01*
X133365043Y-102436933D01*
X133365043Y-102436932D01*
X133347001Y-102400028D01*
X133310919Y-102326220D01*
X133223780Y-102239081D01*
X133168423Y-102212019D01*
X133113070Y-102184958D01*
X133113068Y-102184957D01*
X133041296Y-102174500D01*
X132533703Y-102174500D01*
X132461933Y-102184956D01*
X132461932Y-102184956D01*
X132351222Y-102239080D01*
X132351218Y-102239082D01*
X132264082Y-102326218D01*
X132264080Y-102326222D01*
X132209958Y-102436929D01*
X132209957Y-102436931D01*
X132199500Y-102508703D01*
X132199500Y-103013442D01*
X132185148Y-103048090D01*
X131716740Y-103516497D01*
X131682092Y-103530849D01*
X131676448Y-103530523D01*
X131667625Y-103529500D01*
X131312382Y-103529500D01*
X131312373Y-103529501D01*
X131288500Y-103532270D01*
X131190857Y-103575384D01*
X131115384Y-103650857D01*
X131072270Y-103748499D01*
X131072268Y-103748505D01*
X131069501Y-103772359D01*
X131069500Y-103772379D01*
X131069500Y-104120166D01*
X131055148Y-104154814D01*
X131020500Y-104169166D01*
X130985852Y-104154814D01*
X130923465Y-104092427D01*
X130923458Y-104092422D01*
X130817484Y-104038427D01*
X130817483Y-104038426D01*
X130817482Y-104038426D01*
X130700000Y-104019819D01*
X130582518Y-104038426D01*
X130582516Y-104038426D01*
X130582515Y-104038427D01*
X130476541Y-104092422D01*
X130476534Y-104092427D01*
X130392427Y-104176534D01*
X130390157Y-104179659D01*
X130388894Y-104178741D01*
X130364633Y-104199455D01*
X130327246Y-104196505D01*
X130302895Y-104167983D01*
X130300500Y-104152850D01*
X130300500Y-102835180D01*
X130300499Y-102835176D01*
X130291767Y-102791278D01*
X130258504Y-102741495D01*
X130208721Y-102708232D01*
X130164823Y-102699500D01*
X130164820Y-102699500D01*
X129235180Y-102699500D01*
X129235176Y-102699500D01*
X129191278Y-102708232D01*
X129141495Y-102741495D01*
X129108232Y-102791278D01*
X129099500Y-102835176D01*
X129099500Y-104564823D01*
X129108232Y-104608721D01*
X129141495Y-104658504D01*
X129168490Y-104676541D01*
X129191278Y-104691767D01*
X129235180Y-104700500D01*
X129900943Y-104700500D01*
X129935591Y-104714852D01*
X130576591Y-105355852D01*
X130590943Y-105390500D01*
X130576591Y-105425148D01*
X130541943Y-105439500D01*
X130514057Y-105439500D01*
X130479409Y-105425148D01*
X130181899Y-105127637D01*
X130089829Y-105089500D01*
X130089828Y-105089500D01*
X129384404Y-105089500D01*
X129284748Y-105089500D01*
X129284746Y-105089500D01*
X129192677Y-105127637D01*
X129192675Y-105127638D01*
X128786723Y-105533590D01*
X128774321Y-105542601D01*
X128676538Y-105592425D01*
X128676531Y-105592430D01*
X128592427Y-105676534D01*
X128592422Y-105676541D01*
X128538427Y-105782515D01*
X128538426Y-105782516D01*
X128538426Y-105782518D01*
X128519819Y-105900000D01*
X128538426Y-106017482D01*
X128538426Y-106017483D01*
X128538427Y-106017484D01*
X128592422Y-106123458D01*
X128592427Y-106123465D01*
X128676534Y-106207572D01*
X128676541Y-106207577D01*
X128721708Y-106230590D01*
X128782518Y-106261574D01*
X128900000Y-106280181D01*
X129017482Y-106261574D01*
X129104014Y-106217484D01*
X129123458Y-106207577D01*
X129123460Y-106207575D01*
X129123465Y-106207573D01*
X129207573Y-106123465D01*
X129213243Y-106112338D01*
X129238164Y-106063426D01*
X129261574Y-106017482D01*
X129280181Y-105900000D01*
X129263393Y-105794004D01*
X129272148Y-105757539D01*
X129277135Y-105751700D01*
X129423985Y-105604852D01*
X129458633Y-105590500D01*
X129915943Y-105590500D01*
X129950591Y-105604852D01*
X130155148Y-105809408D01*
X130169500Y-105844056D01*
X130169500Y-106113367D01*
X130169501Y-106113374D01*
X130172318Y-106137663D01*
X130216187Y-106237017D01*
X130292982Y-106313812D01*
X130292983Y-106313812D01*
X130292984Y-106313813D01*
X130306586Y-106319819D01*
X130392335Y-106357681D01*
X130392338Y-106357682D01*
X130406147Y-106359284D01*
X130438909Y-106377531D01*
X130449500Y-106407957D01*
X130449500Y-106480657D01*
X130435148Y-106515305D01*
X130400500Y-106529657D01*
X130390945Y-106528716D01*
X130369748Y-106524500D01*
X130230252Y-106524500D01*
X130171769Y-106536133D01*
X130127223Y-106565898D01*
X130090441Y-106573214D01*
X130072777Y-106565898D01*
X130049499Y-106550344D01*
X130028231Y-106536133D01*
X129969748Y-106524500D01*
X129830252Y-106524500D01*
X129771769Y-106536133D01*
X129727223Y-106565898D01*
X129690441Y-106573214D01*
X129672777Y-106565898D01*
X129649499Y-106550344D01*
X129628231Y-106536133D01*
X129569748Y-106524500D01*
X129430252Y-106524500D01*
X129371769Y-106536133D01*
X129327223Y-106565898D01*
X129290441Y-106573214D01*
X129272777Y-106565898D01*
X129249499Y-106550344D01*
X129228231Y-106536133D01*
X129169748Y-106524500D01*
X129030252Y-106524500D01*
X128971769Y-106536133D01*
X128927223Y-106565898D01*
X128890441Y-106573214D01*
X128872777Y-106565898D01*
X128849499Y-106550344D01*
X128828231Y-106536133D01*
X128769748Y-106524500D01*
X128630252Y-106524500D01*
X128571769Y-106536133D01*
X128527223Y-106565898D01*
X128490441Y-106573214D01*
X128472777Y-106565898D01*
X128449499Y-106550344D01*
X128428231Y-106536133D01*
X128369748Y-106524500D01*
X128230252Y-106524500D01*
X128171769Y-106536133D01*
X128127223Y-106565898D01*
X128090441Y-106573214D01*
X128072777Y-106565898D01*
X128049499Y-106550344D01*
X128028231Y-106536133D01*
X127969748Y-106524500D01*
X127830252Y-106524500D01*
X127771769Y-106536133D01*
X127727223Y-106565898D01*
X127690441Y-106573214D01*
X127672777Y-106565898D01*
X127649499Y-106550344D01*
X127628231Y-106536133D01*
X127569748Y-106524500D01*
X127430252Y-106524500D01*
X127409057Y-106528715D01*
X127372277Y-106521399D01*
X127351441Y-106490216D01*
X127350500Y-106480657D01*
X127350500Y-106350625D01*
X127364851Y-106315977D01*
X127367014Y-106313813D01*
X127367016Y-106313813D01*
X127415436Y-106265392D01*
X127450083Y-106251041D01*
X127472327Y-106256381D01*
X127482518Y-106261574D01*
X127600000Y-106280181D01*
X127717482Y-106261574D01*
X127804014Y-106217484D01*
X127823458Y-106207577D01*
X127823460Y-106207575D01*
X127823465Y-106207573D01*
X127907573Y-106123465D01*
X127913243Y-106112338D01*
X127938164Y-106063426D01*
X127961574Y-106017482D01*
X127980181Y-105900000D01*
X127961574Y-105782518D01*
X127939108Y-105738426D01*
X127907577Y-105676541D01*
X127907572Y-105676534D01*
X127823465Y-105592427D01*
X127823458Y-105592422D01*
X127717484Y-105538427D01*
X127717483Y-105538426D01*
X127717482Y-105538426D01*
X127600000Y-105519819D01*
X127599999Y-105519819D01*
X127482518Y-105538425D01*
X127472327Y-105543618D01*
X127434939Y-105546559D01*
X127415436Y-105534607D01*
X127367016Y-105486187D01*
X127367015Y-105486186D01*
X127267664Y-105442318D01*
X127267658Y-105442316D01*
X127243390Y-105439501D01*
X127243375Y-105439500D01*
X127243373Y-105439500D01*
X127243370Y-105439500D01*
X126876632Y-105439500D01*
X126876625Y-105439501D01*
X126852336Y-105442318D01*
X126752982Y-105486187D01*
X126676187Y-105562982D01*
X126632318Y-105662335D01*
X126632316Y-105662341D01*
X126629501Y-105686609D01*
X126629500Y-105686629D01*
X126629500Y-106113367D01*
X126629501Y-106113374D01*
X126632318Y-106137663D01*
X126676187Y-106237017D01*
X126752979Y-106313809D01*
X126752983Y-106313812D01*
X126752984Y-106313813D01*
X126820293Y-106343532D01*
X126846191Y-106370655D01*
X126849500Y-106388356D01*
X126849500Y-106988443D01*
X126835148Y-107023091D01*
X126173091Y-107685148D01*
X126138443Y-107699500D01*
X125854056Y-107699500D01*
X125819408Y-107685148D01*
X125524851Y-107390591D01*
X125510499Y-107355943D01*
X125510499Y-107086632D01*
X125510499Y-107086629D01*
X125510499Y-107086628D01*
X125507682Y-107062338D01*
X125463813Y-106962984D01*
X125463812Y-106962983D01*
X125463812Y-106962982D01*
X125387018Y-106886188D01*
X125387016Y-106886187D01*
X125359958Y-106874239D01*
X125334061Y-106847115D01*
X125334927Y-106809622D01*
X125359960Y-106784590D01*
X125407016Y-106763813D01*
X125483813Y-106687016D01*
X125527682Y-106587662D01*
X125527682Y-106587660D01*
X125527683Y-106587658D01*
X125530498Y-106563390D01*
X125530497Y-106563390D01*
X125530500Y-106563373D01*
X125530499Y-106136628D01*
X125527682Y-106112338D01*
X125483813Y-106012984D01*
X125483812Y-106012983D01*
X125483812Y-106012982D01*
X125407018Y-105936188D01*
X125383254Y-105925695D01*
X125357356Y-105898570D01*
X125358222Y-105861077D01*
X125383255Y-105836045D01*
X125409141Y-105824616D01*
X125409142Y-105824616D01*
X125484615Y-105749142D01*
X125484616Y-105749141D01*
X125527730Y-105651498D01*
X125527730Y-105651496D01*
X125527731Y-105651494D01*
X125530498Y-105627640D01*
X125530497Y-105627640D01*
X125530500Y-105627623D01*
X125530499Y-105354055D01*
X125544850Y-105319409D01*
X125554460Y-105309799D01*
X125589107Y-105295448D01*
X125611353Y-105300789D01*
X125632518Y-105311574D01*
X125750000Y-105330181D01*
X125867482Y-105311574D01*
X125941993Y-105273609D01*
X125973458Y-105257577D01*
X125973460Y-105257575D01*
X125973465Y-105257573D01*
X126057573Y-105173465D01*
X126057877Y-105172870D01*
X126077651Y-105134059D01*
X126111574Y-105067482D01*
X126130181Y-104950000D01*
X126111574Y-104832518D01*
X126092184Y-104794462D01*
X126057577Y-104726541D01*
X126057572Y-104726534D01*
X125973465Y-104642427D01*
X125973458Y-104642422D01*
X125867484Y-104588427D01*
X125867483Y-104588426D01*
X125867482Y-104588426D01*
X125750000Y-104569819D01*
X125749999Y-104569819D01*
X125637164Y-104587689D01*
X125600697Y-104578933D01*
X125581102Y-104546957D01*
X125580499Y-104539292D01*
X125580499Y-104354058D01*
X125594851Y-104319410D01*
X125662362Y-104251899D01*
X125662364Y-104251897D01*
X125700500Y-104159828D01*
X125700500Y-103900834D01*
X125714852Y-103866186D01*
X125729544Y-103851494D01*
X125757573Y-103823465D01*
X125760621Y-103817484D01*
X125774747Y-103789760D01*
X125811574Y-103717482D01*
X125830181Y-103600000D01*
X125811574Y-103482518D01*
X125782522Y-103425500D01*
X125757577Y-103376541D01*
X125757572Y-103376534D01*
X125673465Y-103292427D01*
X125673458Y-103292422D01*
X125567484Y-103238427D01*
X125567483Y-103238426D01*
X125567482Y-103238426D01*
X125450000Y-103219819D01*
X125332518Y-103238426D01*
X125332516Y-103238426D01*
X125332515Y-103238427D01*
X125226541Y-103292422D01*
X125226534Y-103292427D01*
X125142430Y-103376531D01*
X125140161Y-103379655D01*
X125138549Y-103378484D01*
X125115131Y-103398476D01*
X125077744Y-103395525D01*
X125061017Y-103378798D01*
X125059839Y-103379655D01*
X125057575Y-103376540D01*
X125057573Y-103376535D01*
X124973465Y-103292427D01*
X124973458Y-103292422D01*
X124867484Y-103238427D01*
X124867483Y-103238426D01*
X124867482Y-103238426D01*
X124750000Y-103219819D01*
X124632518Y-103238426D01*
X124632516Y-103238426D01*
X124632515Y-103238427D01*
X124526541Y-103292422D01*
X124526534Y-103292427D01*
X124442430Y-103376531D01*
X124440161Y-103379655D01*
X124438549Y-103378484D01*
X124415131Y-103398476D01*
X124377744Y-103395525D01*
X124361017Y-103378798D01*
X124359839Y-103379655D01*
X124357575Y-103376540D01*
X124357573Y-103376535D01*
X124273465Y-103292427D01*
X124273458Y-103292422D01*
X124167484Y-103238427D01*
X124167483Y-103238426D01*
X124167482Y-103238426D01*
X124050000Y-103219819D01*
X123932518Y-103238426D01*
X123932516Y-103238426D01*
X123932515Y-103238427D01*
X123826541Y-103292422D01*
X123826534Y-103292427D01*
X123742427Y-103376534D01*
X123742422Y-103376541D01*
X123688427Y-103482515D01*
X123688426Y-103482516D01*
X123688426Y-103482518D01*
X123677025Y-103554501D01*
X123669819Y-103600000D01*
X123669819Y-103603855D01*
X123667988Y-103603855D01*
X123660689Y-103634200D01*
X123655708Y-103640029D01*
X123438103Y-103857636D01*
X123367637Y-103928100D01*
X123367637Y-103928101D01*
X123367636Y-103928102D01*
X123367636Y-103928103D01*
X123363360Y-103938426D01*
X123329500Y-104020170D01*
X123329500Y-104939829D01*
X123342432Y-104971050D01*
X123367636Y-105031897D01*
X123367637Y-105031898D01*
X123367637Y-105031899D01*
X123655148Y-105319408D01*
X123669500Y-105354056D01*
X123669500Y-105627617D01*
X123669501Y-105627626D01*
X123672270Y-105651499D01*
X123715384Y-105749142D01*
X123790857Y-105824615D01*
X123888499Y-105867729D01*
X123888505Y-105867731D01*
X123912359Y-105870498D01*
X123912360Y-105870498D01*
X123912377Y-105870500D01*
X124267622Y-105870499D01*
X124291498Y-105867730D01*
X124389141Y-105824616D01*
X124464616Y-105749141D01*
X124507730Y-105651498D01*
X124507730Y-105651496D01*
X124507731Y-105651494D01*
X124510498Y-105627640D01*
X124510497Y-105627640D01*
X124510500Y-105627623D01*
X124510499Y-105172378D01*
X124507730Y-105148502D01*
X124464616Y-105050859D01*
X124464615Y-105050858D01*
X124464615Y-105050857D01*
X124389143Y-104975385D01*
X124379325Y-104971050D01*
X124344931Y-104955863D01*
X124319033Y-104928738D01*
X124319899Y-104891245D01*
X124344930Y-104866214D01*
X124439141Y-104824616D01*
X124514616Y-104749141D01*
X124557730Y-104651498D01*
X124557730Y-104651496D01*
X124557731Y-104651494D01*
X124560498Y-104627640D01*
X124560497Y-104627640D01*
X124560500Y-104627623D01*
X124560499Y-104172378D01*
X124560256Y-104170282D01*
X124570512Y-104134210D01*
X124574271Y-104129988D01*
X124704385Y-103999874D01*
X124739032Y-103985523D01*
X124773680Y-103999875D01*
X124788032Y-104034523D01*
X124783857Y-104054315D01*
X124742270Y-104148499D01*
X124742268Y-104148505D01*
X124739501Y-104172359D01*
X124739500Y-104172379D01*
X124739500Y-104627617D01*
X124739501Y-104627626D01*
X124742270Y-104651499D01*
X124785384Y-104749142D01*
X124860857Y-104824615D01*
X124905067Y-104844136D01*
X124930966Y-104871260D01*
X124930100Y-104908753D01*
X124905067Y-104933786D01*
X124810857Y-104975384D01*
X124735384Y-105050857D01*
X124692270Y-105148499D01*
X124692268Y-105148505D01*
X124689501Y-105172359D01*
X124689500Y-105172379D01*
X124689500Y-105627617D01*
X124689501Y-105627626D01*
X124692270Y-105651499D01*
X124735384Y-105749142D01*
X124810857Y-105824615D01*
X124826744Y-105831630D01*
X124852643Y-105858754D01*
X124851777Y-105896247D01*
X124826744Y-105921280D01*
X124792982Y-105936187D01*
X124716187Y-106012982D01*
X124672318Y-106112335D01*
X124672316Y-106112341D01*
X124669501Y-106136609D01*
X124669500Y-106136629D01*
X124669500Y-106563367D01*
X124669501Y-106563374D01*
X124672318Y-106587663D01*
X124716187Y-106687017D01*
X124792979Y-106763809D01*
X124792982Y-106763811D01*
X124792984Y-106763813D01*
X124800291Y-106767039D01*
X124826190Y-106794161D01*
X124829500Y-106811864D01*
X124829500Y-106829303D01*
X124815148Y-106863951D01*
X124800294Y-106874127D01*
X124772982Y-106886187D01*
X124696187Y-106962982D01*
X124652318Y-107062335D01*
X124652316Y-107062341D01*
X124649501Y-107086609D01*
X124649500Y-107086629D01*
X124649500Y-107513367D01*
X124649501Y-107513374D01*
X124652318Y-107537663D01*
X124696187Y-107637017D01*
X124772983Y-107713813D01*
X124800291Y-107725870D01*
X124826191Y-107752993D01*
X124829500Y-107770695D01*
X124829500Y-107829303D01*
X124815148Y-107863951D01*
X124800294Y-107874127D01*
X124772982Y-107886187D01*
X124696187Y-107962982D01*
X124652318Y-108062335D01*
X124652316Y-108062341D01*
X124649501Y-108086609D01*
X124649500Y-108086629D01*
X124649500Y-108513367D01*
X124649501Y-108513374D01*
X124652318Y-108537663D01*
X124696187Y-108637017D01*
X124735114Y-108675943D01*
X124772984Y-108713813D01*
X124805291Y-108728077D01*
X124831191Y-108755200D01*
X124834500Y-108772902D01*
X124834500Y-108827096D01*
X124820148Y-108861744D01*
X124805293Y-108871921D01*
X124772981Y-108886188D01*
X124696187Y-108962982D01*
X124652318Y-109062335D01*
X124652316Y-109062341D01*
X124649501Y-109086609D01*
X124649500Y-109086629D01*
X124649500Y-109513367D01*
X124649501Y-109513374D01*
X124652318Y-109537663D01*
X124696187Y-109637017D01*
X124745358Y-109686187D01*
X124772984Y-109713813D01*
X124805291Y-109728077D01*
X124831191Y-109755200D01*
X124834500Y-109772902D01*
X124834500Y-109829303D01*
X124820148Y-109863951D01*
X124805294Y-109874127D01*
X124777982Y-109886187D01*
X124701187Y-109962982D01*
X124657318Y-110062335D01*
X124657316Y-110062341D01*
X124654501Y-110086609D01*
X124654500Y-110086629D01*
X124654500Y-110513367D01*
X124654501Y-110513374D01*
X124657318Y-110537663D01*
X124701187Y-110637017D01*
X124777982Y-110713812D01*
X124777983Y-110713812D01*
X124777984Y-110713813D01*
X124802188Y-110724500D01*
X124877335Y-110757681D01*
X124877341Y-110757683D01*
X124901609Y-110760498D01*
X124901610Y-110760498D01*
X124901627Y-110760500D01*
X125268372Y-110760499D01*
X125292662Y-110757682D01*
X125392016Y-110713813D01*
X125468813Y-110637016D01*
X125472039Y-110629708D01*
X125499161Y-110603810D01*
X125516864Y-110600500D01*
X125630657Y-110600500D01*
X125665305Y-110614852D01*
X125679657Y-110649500D01*
X125678716Y-110659054D01*
X125674500Y-110680252D01*
X125674500Y-110819748D01*
X125682046Y-110857682D01*
X125686133Y-110878231D01*
X125715897Y-110922776D01*
X125723213Y-110959559D01*
X125715897Y-110977221D01*
X125684257Y-111024575D01*
X125653075Y-111045411D01*
X125621271Y-111041013D01*
X125616863Y-111038767D01*
X125499381Y-111020160D01*
X125381899Y-111038767D01*
X125381897Y-111038767D01*
X125381896Y-111038768D01*
X125275922Y-111092763D01*
X125275917Y-111092766D01*
X125256474Y-111112209D01*
X125221825Y-111126559D01*
X125187179Y-111112207D01*
X125122766Y-111047794D01*
X125122767Y-111047794D01*
X125019993Y-111002415D01*
X125007428Y-111000957D01*
X124994865Y-110999500D01*
X124994863Y-110999500D01*
X124605141Y-110999500D01*
X124605131Y-110999501D01*
X124580007Y-111002415D01*
X124477233Y-111047794D01*
X124397795Y-111127232D01*
X124372162Y-111185285D01*
X124345037Y-111211183D01*
X124307544Y-111210317D01*
X124281646Y-111183192D01*
X124278941Y-111157824D01*
X124280181Y-111149997D01*
X124261574Y-111032515D01*
X124237348Y-110984969D01*
X124207577Y-110926538D01*
X124207572Y-110926531D01*
X124123465Y-110842424D01*
X124123458Y-110842419D01*
X124017484Y-110788424D01*
X124017483Y-110788423D01*
X124017482Y-110788423D01*
X123900000Y-110769816D01*
X123899999Y-110769816D01*
X123896145Y-110769816D01*
X123896145Y-110767988D01*
X123865790Y-110760680D01*
X123859969Y-110755705D01*
X123674851Y-110570587D01*
X123660499Y-110535939D01*
X123660499Y-110246632D01*
X123660499Y-110246629D01*
X123660499Y-110246628D01*
X123657682Y-110222338D01*
X123613813Y-110122984D01*
X123613812Y-110122983D01*
X123613812Y-110122982D01*
X123537017Y-110046187D01*
X123537018Y-110046187D01*
X123437664Y-110002318D01*
X123437658Y-110002316D01*
X123413390Y-109999501D01*
X123413375Y-109999500D01*
X123413373Y-109999500D01*
X123413370Y-109999500D01*
X122986632Y-109999500D01*
X122986625Y-109999501D01*
X122962336Y-110002318D01*
X122862982Y-110046187D01*
X122786187Y-110122982D01*
X122742318Y-110222335D01*
X122742316Y-110222341D01*
X122739501Y-110246609D01*
X122739500Y-110246629D01*
X122739500Y-110613367D01*
X122739501Y-110613374D01*
X122742318Y-110637663D01*
X122786187Y-110737017D01*
X122862982Y-110813812D01*
X122862983Y-110813812D01*
X122862984Y-110813813D01*
X122876421Y-110819746D01*
X122962335Y-110857681D01*
X122962341Y-110857683D01*
X122986609Y-110860498D01*
X122986610Y-110860498D01*
X122986627Y-110860500D01*
X123235945Y-110860499D01*
X123270593Y-110874851D01*
X123505708Y-111109966D01*
X123520060Y-111144614D01*
X123519819Y-111147690D01*
X123519819Y-111149996D01*
X123519819Y-111149997D01*
X123538426Y-111267479D01*
X123538426Y-111267480D01*
X123538427Y-111267481D01*
X123592422Y-111373455D01*
X123592427Y-111373462D01*
X123634315Y-111415350D01*
X123648667Y-111449998D01*
X123634316Y-111484645D01*
X123630203Y-111488759D01*
X123592425Y-111526537D01*
X123587990Y-111535244D01*
X123559474Y-111559601D01*
X123544330Y-111562000D01*
X123399499Y-111562000D01*
X123364851Y-111547648D01*
X123350499Y-111513000D01*
X123350499Y-111255141D01*
X123350498Y-111255135D01*
X123347585Y-111230009D01*
X123302206Y-111127235D01*
X123302205Y-111127234D01*
X123302205Y-111127233D01*
X123222766Y-111047794D01*
X123222767Y-111047794D01*
X123119993Y-111002415D01*
X123107428Y-111000957D01*
X123094865Y-110999500D01*
X123094863Y-110999500D01*
X122705141Y-110999500D01*
X122705131Y-110999501D01*
X122680007Y-111002415D01*
X122577233Y-111047794D01*
X122497794Y-111127233D01*
X122452415Y-111230006D01*
X122449500Y-111255134D01*
X122449500Y-112369858D01*
X122449501Y-112369868D01*
X122452415Y-112394992D01*
X122497794Y-112497766D01*
X122577233Y-112577205D01*
X122577234Y-112577205D01*
X122577235Y-112577206D01*
X122604446Y-112589221D01*
X122680006Y-112622584D01*
X122680009Y-112622585D01*
X122705135Y-112625500D01*
X123094864Y-112625499D01*
X123119991Y-112622585D01*
X123222765Y-112577206D01*
X123302206Y-112497765D01*
X123347585Y-112394991D01*
X123350500Y-112369865D01*
X123350500Y-112112000D01*
X123364852Y-112077352D01*
X123399500Y-112063000D01*
X123675422Y-112063000D01*
X123697667Y-112068341D01*
X123744940Y-112092427D01*
X123782518Y-112111574D01*
X123900000Y-112130181D01*
X124017482Y-112111574D01*
X124097910Y-112070594D01*
X124123458Y-112057577D01*
X124123460Y-112057575D01*
X124123465Y-112057573D01*
X124207573Y-111973465D01*
X124256842Y-111876767D01*
X124285358Y-111852413D01*
X124322745Y-111855355D01*
X124347102Y-111883873D01*
X124349500Y-111899015D01*
X124349500Y-112369858D01*
X124349501Y-112369868D01*
X124352415Y-112394992D01*
X124397794Y-112497766D01*
X124477233Y-112577205D01*
X124477234Y-112577205D01*
X124477235Y-112577206D01*
X124504446Y-112589221D01*
X124580006Y-112622584D01*
X124580009Y-112622585D01*
X124605135Y-112625500D01*
X124994864Y-112625499D01*
X125019991Y-112622585D01*
X125117986Y-112579315D01*
X125155478Y-112578450D01*
X125181436Y-112601895D01*
X125192425Y-112623461D01*
X125192428Y-112623466D01*
X125276534Y-112707572D01*
X125276541Y-112707577D01*
X125325498Y-112732521D01*
X125382518Y-112761574D01*
X125500000Y-112780181D01*
X125617482Y-112761574D01*
X125617485Y-112761572D01*
X125617835Y-112761517D01*
X125654301Y-112770272D01*
X125673897Y-112802249D01*
X125674500Y-112809914D01*
X125674500Y-112819748D01*
X125680057Y-112847683D01*
X125683265Y-112863813D01*
X125675948Y-112900596D01*
X125653958Y-112918642D01*
X125608103Y-112937636D01*
X125540029Y-113005709D01*
X125505380Y-113020060D01*
X125502310Y-113019819D01*
X125500001Y-113019819D01*
X125500000Y-113019819D01*
X125382518Y-113038426D01*
X125382516Y-113038426D01*
X125382515Y-113038427D01*
X125276541Y-113092422D01*
X125276534Y-113092427D01*
X125192427Y-113176534D01*
X125192423Y-113176539D01*
X125139841Y-113279738D01*
X125111324Y-113304094D01*
X125076391Y-113302317D01*
X125020494Y-113277637D01*
X125019991Y-113277415D01*
X125019988Y-113277414D01*
X125016430Y-113276446D01*
X125016775Y-113275175D01*
X124992866Y-113263606D01*
X124941897Y-113212637D01*
X124666898Y-112937637D01*
X124574828Y-112899500D01*
X124574827Y-112899500D01*
X123224829Y-112899500D01*
X123125173Y-112899500D01*
X123125171Y-112899500D01*
X123033102Y-112937637D01*
X122758103Y-113212636D01*
X122758103Y-113212637D01*
X122707130Y-113263608D01*
X122683217Y-113275175D01*
X122683564Y-113276448D01*
X122680007Y-113277415D01*
X122577233Y-113322794D01*
X122497794Y-113402233D01*
X122452415Y-113505006D01*
X122449500Y-113530134D01*
X122449500Y-114644858D01*
X122449501Y-114644868D01*
X122452415Y-114669992D01*
X122497794Y-114772766D01*
X122577233Y-114852205D01*
X122680006Y-114897584D01*
X122680009Y-114897585D01*
X122705135Y-114900500D01*
X123094864Y-114900499D01*
X123119991Y-114897585D01*
X123222765Y-114852206D01*
X123302206Y-114772765D01*
X123347585Y-114669991D01*
X123350500Y-114644865D01*
X123350499Y-113530136D01*
X123347585Y-113505009D01*
X123343146Y-113494955D01*
X123331815Y-113469292D01*
X123330949Y-113431799D01*
X123356848Y-113404675D01*
X123376640Y-113400500D01*
X124323360Y-113400500D01*
X124358008Y-113414852D01*
X124372360Y-113449500D01*
X124368185Y-113469292D01*
X124352415Y-113505006D01*
X124349500Y-113530134D01*
X124349500Y-114644858D01*
X124349501Y-114644868D01*
X124352415Y-114669992D01*
X124397794Y-114772766D01*
X124477233Y-114852205D01*
X124580006Y-114897584D01*
X124580009Y-114897585D01*
X124605135Y-114900500D01*
X124994864Y-114900499D01*
X125019991Y-114897585D01*
X125122765Y-114852206D01*
X125202206Y-114772765D01*
X125247585Y-114669991D01*
X125250500Y-114644865D01*
X125250499Y-114374267D01*
X125264851Y-114339620D01*
X125299499Y-114325268D01*
X125321744Y-114330609D01*
X125355622Y-114347870D01*
X125382518Y-114361574D01*
X125500000Y-114380181D01*
X125617482Y-114361574D01*
X125691488Y-114323866D01*
X125723458Y-114307577D01*
X125723460Y-114307575D01*
X125723465Y-114307573D01*
X125807573Y-114223465D01*
X125861574Y-114117482D01*
X125880181Y-114000000D01*
X125861574Y-113882518D01*
X125843573Y-113847190D01*
X125807577Y-113776541D01*
X125807572Y-113776534D01*
X125765686Y-113734648D01*
X125751334Y-113700000D01*
X125765686Y-113665352D01*
X125778908Y-113652130D01*
X125807573Y-113623465D01*
X125824021Y-113591185D01*
X125848530Y-113543082D01*
X125861574Y-113517482D01*
X125873555Y-113441833D01*
X125893151Y-113409858D01*
X125921952Y-113400500D01*
X126669745Y-113400500D01*
X126669748Y-113400500D01*
X126728231Y-113388867D01*
X126794552Y-113344552D01*
X126838867Y-113278231D01*
X126838954Y-113277792D01*
X126839204Y-113277417D01*
X126840715Y-113273771D01*
X126841439Y-113274071D01*
X126859784Y-113246609D01*
X126896566Y-113239287D01*
X126921661Y-113252699D01*
X126976536Y-113307574D01*
X126985928Y-113312359D01*
X126995473Y-113317222D01*
X127019829Y-113345739D01*
X127016888Y-113383127D01*
X126988371Y-113407483D01*
X126982790Y-113408940D01*
X126971770Y-113411132D01*
X126905447Y-113455447D01*
X126862889Y-113519141D01*
X126861133Y-113521769D01*
X126849500Y-113580252D01*
X126849500Y-113580255D01*
X126849500Y-114692042D01*
X126835148Y-114726690D01*
X126806148Y-114740715D01*
X126792340Y-114742317D01*
X126792337Y-114742318D01*
X126692982Y-114786187D01*
X126616187Y-114862982D01*
X126572318Y-114962335D01*
X126572316Y-114962341D01*
X126569501Y-114986609D01*
X126569500Y-114986629D01*
X126569500Y-115413367D01*
X126569501Y-115413374D01*
X126572318Y-115437663D01*
X126616187Y-115537017D01*
X126692982Y-115613812D01*
X126792335Y-115657681D01*
X126792341Y-115657683D01*
X126816609Y-115660498D01*
X126816610Y-115660498D01*
X126816627Y-115660500D01*
X127183372Y-115660499D01*
X127207662Y-115657682D01*
X127307016Y-115613813D01*
X127375688Y-115545141D01*
X127410336Y-115530789D01*
X127432582Y-115536130D01*
X127482518Y-115561574D01*
X127600000Y-115580181D01*
X127717482Y-115561574D01*
X127790988Y-115524120D01*
X127823458Y-115507577D01*
X127823460Y-115507575D01*
X127823465Y-115507573D01*
X127907573Y-115423465D01*
X127912707Y-115413390D01*
X127941995Y-115355907D01*
X127961574Y-115317482D01*
X127980181Y-115200000D01*
X127961574Y-115082518D01*
X127943573Y-115047190D01*
X127907577Y-114976541D01*
X127907572Y-114976534D01*
X127823465Y-114892427D01*
X127823458Y-114892422D01*
X127717484Y-114838427D01*
X127717483Y-114838426D01*
X127717482Y-114838426D01*
X127600000Y-114819819D01*
X127482517Y-114838426D01*
X127432581Y-114863870D01*
X127395194Y-114866812D01*
X127375688Y-114854858D01*
X127364852Y-114844022D01*
X127350500Y-114809374D01*
X127350500Y-114619342D01*
X127364852Y-114584694D01*
X127399500Y-114570342D01*
X127409052Y-114571283D01*
X127430252Y-114575500D01*
X127430253Y-114575500D01*
X127569745Y-114575500D01*
X127569748Y-114575500D01*
X127628231Y-114563867D01*
X127672778Y-114534100D01*
X127709559Y-114526784D01*
X127727219Y-114534099D01*
X127771769Y-114563867D01*
X127830252Y-114575500D01*
X127830255Y-114575500D01*
X127969745Y-114575500D01*
X127969748Y-114575500D01*
X128028231Y-114563867D01*
X128072778Y-114534100D01*
X128109559Y-114526784D01*
X128127219Y-114534099D01*
X128171769Y-114563867D01*
X128230252Y-114575500D01*
X128230255Y-114575500D01*
X128369745Y-114575500D01*
X128369748Y-114575500D01*
X128428231Y-114563867D01*
X128472778Y-114534100D01*
X128509559Y-114526784D01*
X128527219Y-114534099D01*
X128571769Y-114563867D01*
X128630252Y-114575500D01*
X128630255Y-114575500D01*
X128769745Y-114575500D01*
X128769748Y-114575500D01*
X128828231Y-114563867D01*
X128872778Y-114534100D01*
X128909559Y-114526784D01*
X128927219Y-114534099D01*
X128971769Y-114563867D01*
X129030252Y-114575500D01*
X129030255Y-114575500D01*
X129169745Y-114575500D01*
X129169748Y-114575500D01*
X129228231Y-114563867D01*
X129272778Y-114534100D01*
X129309559Y-114526784D01*
X129327219Y-114534099D01*
X129371769Y-114563867D01*
X129430252Y-114575500D01*
X129430255Y-114575500D01*
X129569745Y-114575500D01*
X129569748Y-114575500D01*
X129628231Y-114563867D01*
X129672778Y-114534100D01*
X129709559Y-114526784D01*
X129727219Y-114534099D01*
X129771769Y-114563867D01*
X129830252Y-114575500D01*
X129830255Y-114575500D01*
X129969745Y-114575500D01*
X129969748Y-114575500D01*
X130028231Y-114563867D01*
X130072778Y-114534100D01*
X130109559Y-114526784D01*
X130127219Y-114534099D01*
X130171769Y-114563867D01*
X130230252Y-114575500D01*
X130230255Y-114575500D01*
X130369747Y-114575500D01*
X130369748Y-114575500D01*
X130390941Y-114571284D01*
X130427722Y-114578599D01*
X130448558Y-114609781D01*
X130449500Y-114619342D01*
X130449500Y-114749373D01*
X130435148Y-114784021D01*
X130435148Y-114784022D01*
X130403420Y-114815749D01*
X130368771Y-114830100D01*
X130361107Y-114829497D01*
X130300000Y-114819819D01*
X130182518Y-114838426D01*
X130182516Y-114838426D01*
X130182515Y-114838427D01*
X130076541Y-114892422D01*
X130076534Y-114892427D01*
X129992427Y-114976534D01*
X129992422Y-114976541D01*
X129938427Y-115082515D01*
X129938426Y-115082516D01*
X129938426Y-115082518D01*
X129919819Y-115200000D01*
X129938426Y-115317482D01*
X129938426Y-115317483D01*
X129938427Y-115317484D01*
X129992422Y-115423458D01*
X129992427Y-115423465D01*
X130076534Y-115507572D01*
X130076541Y-115507577D01*
X130132581Y-115536130D01*
X130182518Y-115561574D01*
X130300000Y-115580181D01*
X130361109Y-115570501D01*
X130397574Y-115579256D01*
X130403415Y-115584244D01*
X130432983Y-115613812D01*
X130432984Y-115613813D01*
X130532335Y-115657681D01*
X130532341Y-115657683D01*
X130556609Y-115660498D01*
X130556610Y-115660498D01*
X130556627Y-115660500D01*
X130923372Y-115660499D01*
X130947662Y-115657682D01*
X131047016Y-115613813D01*
X131123813Y-115537016D01*
X131167682Y-115437662D01*
X131167682Y-115437660D01*
X131167683Y-115437658D01*
X131170498Y-115413390D01*
X131170497Y-115413390D01*
X131170500Y-115413373D01*
X131170499Y-114986628D01*
X131167682Y-114962338D01*
X131123813Y-114862984D01*
X131123812Y-114862983D01*
X131123812Y-114862982D01*
X131047017Y-114786187D01*
X131047018Y-114786187D01*
X130979708Y-114756467D01*
X130953809Y-114729343D01*
X130950500Y-114711642D01*
X130950500Y-114619342D01*
X130964852Y-114584694D01*
X130999500Y-114570342D01*
X131009052Y-114571283D01*
X131030252Y-114575500D01*
X131030253Y-114575500D01*
X131169745Y-114575500D01*
X131169748Y-114575500D01*
X131228231Y-114563867D01*
X131272778Y-114534100D01*
X131309559Y-114526784D01*
X131327219Y-114534099D01*
X131371769Y-114563867D01*
X131430252Y-114575500D01*
X131430255Y-114575500D01*
X131569745Y-114575500D01*
X131569748Y-114575500D01*
X131628231Y-114563867D01*
X131672778Y-114534100D01*
X131709559Y-114526784D01*
X131727219Y-114534099D01*
X131771769Y-114563867D01*
X131830252Y-114575500D01*
X131830255Y-114575500D01*
X131969745Y-114575500D01*
X131969748Y-114575500D01*
X132028231Y-114563867D01*
X132072778Y-114534100D01*
X132109559Y-114526784D01*
X132127219Y-114534099D01*
X132171769Y-114563867D01*
X132230252Y-114575500D01*
X132230255Y-114575500D01*
X132369745Y-114575500D01*
X132369748Y-114575500D01*
X132428231Y-114563867D01*
X132494552Y-114519552D01*
X132538867Y-114453231D01*
X132550500Y-114394748D01*
X132550500Y-113580252D01*
X132538867Y-113521769D01*
X132504609Y-113470499D01*
X132494552Y-113455447D01*
X132448236Y-113424500D01*
X132428231Y-113411133D01*
X132369748Y-113399500D01*
X132230252Y-113399500D01*
X132178717Y-113409751D01*
X132171769Y-113411133D01*
X132127223Y-113440898D01*
X132090441Y-113448214D01*
X132072777Y-113440898D01*
X132051775Y-113426865D01*
X132028231Y-113411133D01*
X131969748Y-113399500D01*
X131830252Y-113399500D01*
X131778717Y-113409751D01*
X131771769Y-113411133D01*
X131727223Y-113440898D01*
X131690441Y-113448214D01*
X131672777Y-113440898D01*
X131651775Y-113426865D01*
X131628231Y-113411133D01*
X131569748Y-113399500D01*
X131430252Y-113399500D01*
X131378717Y-113409751D01*
X131371769Y-113411133D01*
X131327223Y-113440898D01*
X131290441Y-113448214D01*
X131272777Y-113440898D01*
X131228228Y-113411131D01*
X131210136Y-113407533D01*
X131178953Y-113386698D01*
X131171637Y-113349916D01*
X131176036Y-113337230D01*
X131191146Y-113307574D01*
X131211574Y-113267482D01*
X131230181Y-113150000D01*
X131211574Y-113032518D01*
X131181485Y-112973465D01*
X131157577Y-112926541D01*
X131157572Y-112926534D01*
X131073465Y-112842427D01*
X131073458Y-112842422D01*
X130967484Y-112788427D01*
X130967483Y-112788426D01*
X130967482Y-112788426D01*
X130850000Y-112769819D01*
X130849999Y-112769819D01*
X130774244Y-112781817D01*
X130737777Y-112773062D01*
X130718182Y-112741085D01*
X130718182Y-112725760D01*
X130730181Y-112650000D01*
X130711574Y-112532518D01*
X130684666Y-112479708D01*
X130657577Y-112426541D01*
X130657572Y-112426534D01*
X130573465Y-112342427D01*
X130573458Y-112342422D01*
X130467484Y-112288427D01*
X130467483Y-112288426D01*
X130467482Y-112288426D01*
X130350000Y-112269819D01*
X130232518Y-112288426D01*
X130232516Y-112288426D01*
X130232515Y-112288427D01*
X130126541Y-112342422D01*
X130126534Y-112342427D01*
X130083814Y-112385148D01*
X130049166Y-112399500D01*
X129934912Y-112399500D01*
X129934904Y-112399499D01*
X129929203Y-112399499D01*
X129829548Y-112399499D01*
X129829546Y-112399499D01*
X129780674Y-112419744D01*
X129780664Y-112419748D01*
X129750163Y-112432382D01*
X129737476Y-112437637D01*
X129737475Y-112437637D01*
X129680823Y-112494291D01*
X129667011Y-112508103D01*
X129667010Y-112508104D01*
X129310353Y-112864761D01*
X128951211Y-113223902D01*
X128887637Y-113287476D01*
X128887636Y-113287477D01*
X128887636Y-113287478D01*
X128880537Y-113304616D01*
X128851182Y-113375485D01*
X128824663Y-113402003D01*
X128796354Y-113404792D01*
X128785689Y-113402671D01*
X128769748Y-113399500D01*
X128630252Y-113399500D01*
X128578717Y-113409751D01*
X128571769Y-113411133D01*
X128527223Y-113440898D01*
X128490441Y-113448214D01*
X128472777Y-113440898D01*
X128451775Y-113426865D01*
X128428231Y-113411133D01*
X128369748Y-113399500D01*
X128230252Y-113399500D01*
X128178717Y-113409751D01*
X128171769Y-113411133D01*
X128127223Y-113440898D01*
X128090441Y-113448214D01*
X128072777Y-113440898D01*
X128051775Y-113426865D01*
X128028231Y-113411133D01*
X127969748Y-113399500D01*
X127830252Y-113399500D01*
X127778717Y-113409751D01*
X127771769Y-113411133D01*
X127727223Y-113440898D01*
X127690441Y-113448214D01*
X127672777Y-113440898D01*
X127651775Y-113426865D01*
X127628231Y-113411133D01*
X127569748Y-113399500D01*
X127447149Y-113399500D01*
X127412501Y-113385148D01*
X127398149Y-113350500D01*
X127412501Y-113315852D01*
X127420489Y-113310047D01*
X127420341Y-113309843D01*
X127423460Y-113307575D01*
X127423465Y-113307573D01*
X127507573Y-113223465D01*
X127510862Y-113217011D01*
X127531485Y-113176535D01*
X127561574Y-113117482D01*
X127580181Y-113000000D01*
X127561574Y-112882518D01*
X127539331Y-112838863D01*
X127507577Y-112776541D01*
X127507572Y-112776534D01*
X127423465Y-112692427D01*
X127423458Y-112692422D01*
X127317484Y-112638427D01*
X127317483Y-112638426D01*
X127317482Y-112638426D01*
X127200000Y-112619819D01*
X127199999Y-112619819D01*
X127196145Y-112619819D01*
X127196145Y-112617991D01*
X127165790Y-112610683D01*
X127159969Y-112605708D01*
X127091899Y-112537637D01*
X126999829Y-112499500D01*
X126999828Y-112499500D01*
X126894343Y-112499500D01*
X126859695Y-112485148D01*
X126845343Y-112450500D01*
X126846284Y-112440941D01*
X126850500Y-112419748D01*
X126850500Y-112299834D01*
X126864852Y-112265186D01*
X126899500Y-112250834D01*
X126934148Y-112265186D01*
X126976534Y-112307572D01*
X126976541Y-112307577D01*
X127044930Y-112342422D01*
X127082518Y-112361574D01*
X127200000Y-112380181D01*
X127317482Y-112361574D01*
X127408143Y-112315380D01*
X127423458Y-112307577D01*
X127423460Y-112307575D01*
X127423465Y-112307573D01*
X127507573Y-112223465D01*
X127508438Y-112221769D01*
X127524120Y-112190988D01*
X127561574Y-112117482D01*
X127580181Y-112000000D01*
X127561574Y-111882518D01*
X127536320Y-111832954D01*
X127507577Y-111776541D01*
X127507572Y-111776534D01*
X127423465Y-111692427D01*
X127423458Y-111692422D01*
X127317484Y-111638427D01*
X127317483Y-111638426D01*
X127317482Y-111638426D01*
X127200000Y-111619819D01*
X127082517Y-111638426D01*
X126973133Y-111694160D01*
X126950888Y-111699500D01*
X126894343Y-111699500D01*
X126859695Y-111685148D01*
X126845343Y-111650500D01*
X126846284Y-111640941D01*
X126846567Y-111639520D01*
X126850500Y-111619748D01*
X126850500Y-111480252D01*
X126846284Y-111459057D01*
X126853601Y-111422277D01*
X126884784Y-111401441D01*
X126894343Y-111400500D01*
X127099826Y-111400500D01*
X127099828Y-111400500D01*
X127150255Y-111379611D01*
X127176667Y-111376485D01*
X127200000Y-111380181D01*
X127317482Y-111361574D01*
X127408775Y-111315058D01*
X127423458Y-111307577D01*
X127423460Y-111307575D01*
X127423465Y-111307573D01*
X127507573Y-111223465D01*
X127508518Y-111221612D01*
X127532692Y-111174166D01*
X127561574Y-111117482D01*
X127580181Y-111000000D01*
X127561574Y-110882518D01*
X127536600Y-110833504D01*
X127507577Y-110776541D01*
X127507572Y-110776534D01*
X127423465Y-110692427D01*
X127423458Y-110692422D01*
X127394224Y-110677527D01*
X127369867Y-110649010D01*
X127372810Y-110611623D01*
X127381819Y-110599221D01*
X127407573Y-110573468D01*
X127407579Y-110573458D01*
X127424716Y-110539823D01*
X127461574Y-110467485D01*
X127480181Y-110350003D01*
X127461574Y-110232521D01*
X127440258Y-110190685D01*
X127407577Y-110126544D01*
X127407572Y-110126537D01*
X127365684Y-110084649D01*
X127351332Y-110050001D01*
X127365684Y-110015353D01*
X127365685Y-110015352D01*
X127369858Y-110011180D01*
X127407573Y-109973465D01*
X127408729Y-109971198D01*
X127433049Y-109923465D01*
X127461574Y-109867482D01*
X127480181Y-109750000D01*
X127461574Y-109632518D01*
X127434920Y-109580207D01*
X127407577Y-109526541D01*
X127407572Y-109526534D01*
X127365686Y-109484648D01*
X127351334Y-109450000D01*
X127365686Y-109415352D01*
X127372495Y-109408543D01*
X127407573Y-109373465D01*
X127409361Y-109369957D01*
X127425426Y-109338426D01*
X127461574Y-109267482D01*
X127480181Y-109150000D01*
X127461574Y-109032518D01*
X127422305Y-108955448D01*
X127407577Y-108926541D01*
X127407572Y-108926534D01*
X127365684Y-108884646D01*
X127351332Y-108849998D01*
X127365684Y-108815350D01*
X127365685Y-108815349D01*
X127373517Y-108807518D01*
X127407573Y-108773462D01*
X127407859Y-108772902D01*
X127433924Y-108721745D01*
X127461574Y-108667479D01*
X127480181Y-108549997D01*
X127461574Y-108432515D01*
X127427825Y-108366278D01*
X127407577Y-108326538D01*
X127407572Y-108326531D01*
X127323465Y-108242424D01*
X127323458Y-108242419D01*
X127217484Y-108188424D01*
X127217483Y-108188423D01*
X127217482Y-108188423D01*
X127100000Y-108169816D01*
X126982518Y-108188423D01*
X126982516Y-108188423D01*
X126982515Y-108188424D01*
X126897525Y-108231728D01*
X126860138Y-108234671D01*
X126834540Y-108215293D01*
X126809100Y-108177221D01*
X126801785Y-108140441D01*
X126809099Y-108122780D01*
X126838867Y-108078231D01*
X126850500Y-108019748D01*
X126850500Y-107880252D01*
X126838867Y-107821769D01*
X126826586Y-107803390D01*
X126823607Y-107798931D01*
X126816289Y-107762148D01*
X126829698Y-107737061D01*
X126887060Y-107679699D01*
X126921707Y-107665348D01*
X126948931Y-107673607D01*
X126971767Y-107688866D01*
X126971769Y-107688867D01*
X127030252Y-107700500D01*
X127030255Y-107700500D01*
X127169745Y-107700500D01*
X127169748Y-107700500D01*
X127228231Y-107688867D01*
X127272778Y-107659100D01*
X127309559Y-107651784D01*
X127327219Y-107659099D01*
X127371769Y-107688867D01*
X127430252Y-107700500D01*
X127430255Y-107700500D01*
X127569745Y-107700500D01*
X127569748Y-107700500D01*
X127628231Y-107688867D01*
X127672778Y-107659100D01*
X127709559Y-107651784D01*
X127727219Y-107659099D01*
X127771769Y-107688867D01*
X127830252Y-107700500D01*
X127830255Y-107700500D01*
X127969745Y-107700500D01*
X127969748Y-107700500D01*
X128028231Y-107688867D01*
X128072778Y-107659100D01*
X128109559Y-107651784D01*
X128127219Y-107659099D01*
X128157090Y-107679058D01*
X128177925Y-107710240D01*
X128170608Y-107747022D01*
X128164515Y-107754447D01*
X128142425Y-107776537D01*
X128142422Y-107776541D01*
X128088427Y-107882515D01*
X128088426Y-107882516D01*
X128088426Y-107882518D01*
X128069819Y-108000000D01*
X128088426Y-108117482D01*
X128088426Y-108117483D01*
X128088427Y-108117484D01*
X128142422Y-108223458D01*
X128142427Y-108223465D01*
X128226534Y-108307572D01*
X128226541Y-108307577D01*
X128296712Y-108343330D01*
X128332518Y-108361574D01*
X128450000Y-108380181D01*
X128567482Y-108361574D01*
X128655166Y-108316897D01*
X128673460Y-108307576D01*
X128673463Y-108307574D01*
X128673462Y-108307574D01*
X128673465Y-108307573D01*
X128727226Y-108253810D01*
X128743118Y-108243192D01*
X128817547Y-108212364D01*
X129235004Y-107794904D01*
X129235007Y-107794903D01*
X129241896Y-107788014D01*
X129241897Y-107788014D01*
X129312364Y-107717547D01*
X129312471Y-107717287D01*
X129312670Y-107717088D01*
X129315043Y-107713537D01*
X129315749Y-107714008D01*
X129338986Y-107690768D01*
X129367302Y-107687978D01*
X129371768Y-107688866D01*
X129371769Y-107688867D01*
X129430252Y-107700500D01*
X129430253Y-107700500D01*
X129569745Y-107700500D01*
X129569748Y-107700500D01*
X129628231Y-107688867D01*
X129672778Y-107659100D01*
X129709559Y-107651784D01*
X129727219Y-107659099D01*
X129771769Y-107688867D01*
X129830252Y-107700500D01*
X129830255Y-107700500D01*
X129969745Y-107700500D01*
X129969748Y-107700500D01*
X130028231Y-107688867D01*
X130072778Y-107659100D01*
X130109559Y-107651784D01*
X130127219Y-107659099D01*
X130171769Y-107688867D01*
X130230252Y-107700500D01*
X130230255Y-107700500D01*
X130369745Y-107700500D01*
X130369748Y-107700500D01*
X130428231Y-107688867D01*
X130472778Y-107659100D01*
X130509559Y-107651784D01*
X130527219Y-107659099D01*
X130571769Y-107688867D01*
X130630252Y-107700500D01*
X130630255Y-107700500D01*
X130769745Y-107700500D01*
X130769748Y-107700500D01*
X130828231Y-107688867D01*
X130872778Y-107659100D01*
X130909559Y-107651784D01*
X130927219Y-107659099D01*
X130971769Y-107688867D01*
X131030252Y-107700500D01*
X131030255Y-107700500D01*
X131169745Y-107700500D01*
X131169748Y-107700500D01*
X131228231Y-107688867D01*
X131272778Y-107659100D01*
X131309559Y-107651784D01*
X131327219Y-107659099D01*
X131371769Y-107688867D01*
X131430252Y-107700500D01*
X131430255Y-107700500D01*
X131569745Y-107700500D01*
X131569748Y-107700500D01*
X131628231Y-107688867D01*
X131672778Y-107659100D01*
X131709559Y-107651784D01*
X131727219Y-107659099D01*
X131742102Y-107669044D01*
X131762938Y-107700226D01*
X131755621Y-107737008D01*
X131749531Y-107744430D01*
X131742427Y-107751534D01*
X131742423Y-107751540D01*
X131688427Y-107857515D01*
X131688426Y-107857516D01*
X131688426Y-107857518D01*
X131669819Y-107975000D01*
X131688426Y-108092482D01*
X131688426Y-108092483D01*
X131688427Y-108092484D01*
X131742422Y-108198458D01*
X131742427Y-108198465D01*
X131785148Y-108241186D01*
X131799500Y-108275834D01*
X131799500Y-109375479D01*
X131806520Y-109392427D01*
X131837636Y-109467547D01*
X131837637Y-109467548D01*
X131837638Y-109467550D01*
X132273286Y-109903198D01*
X132287638Y-109937846D01*
X132273286Y-109972494D01*
X132246305Y-109986242D01*
X132232518Y-109988426D01*
X132232516Y-109988426D01*
X132232514Y-109988427D01*
X132232512Y-109988427D01*
X132126541Y-110042422D01*
X132126534Y-110042427D01*
X132042427Y-110126534D01*
X132042422Y-110126541D01*
X131988427Y-110232515D01*
X131988426Y-110232516D01*
X131988426Y-110232518D01*
X131969819Y-110350000D01*
X131988426Y-110467482D01*
X131988426Y-110467483D01*
X131988427Y-110467484D01*
X132042422Y-110573458D01*
X132042427Y-110573465D01*
X132126534Y-110657572D01*
X132126541Y-110657577D01*
X132180654Y-110685148D01*
X132232518Y-110711574D01*
X132350000Y-110730181D01*
X132467482Y-110711574D01*
X132478254Y-110706084D01*
X132515641Y-110703142D01*
X132544159Y-110727498D01*
X132549500Y-110749744D01*
X132549500Y-110819748D01*
X132561133Y-110878231D01*
X132568898Y-110889852D01*
X132590898Y-110922777D01*
X132598214Y-110959559D01*
X132590898Y-110977223D01*
X132577431Y-110997377D01*
X132561133Y-111021769D01*
X132549500Y-111080252D01*
X132549500Y-111219748D01*
X132561133Y-111278231D01*
X132578882Y-111304795D01*
X132605447Y-111344552D01*
X132624933Y-111357572D01*
X132671769Y-111388867D01*
X132730252Y-111400500D01*
X133087672Y-111400500D01*
X133476593Y-111400500D01*
X133511241Y-111414852D01*
X133585148Y-111488759D01*
X133599500Y-111523407D01*
X133599500Y-111650829D01*
X133585148Y-111685477D01*
X133550500Y-111699829D01*
X133545704Y-111699594D01*
X133544748Y-111699500D01*
X132730252Y-111699500D01*
X132671769Y-111711133D01*
X132605447Y-111755447D01*
X132569996Y-111808505D01*
X132561133Y-111821769D01*
X132549500Y-111880252D01*
X132549500Y-112019748D01*
X132561133Y-112078231D01*
X132579275Y-112105382D01*
X132590898Y-112122777D01*
X132598214Y-112159559D01*
X132590898Y-112177223D01*
X132583941Y-112187635D01*
X132561133Y-112221769D01*
X132549500Y-112280252D01*
X132549500Y-112419748D01*
X132561133Y-112478231D01*
X132574186Y-112497766D01*
X132590898Y-112522777D01*
X132598214Y-112559559D01*
X132590898Y-112577223D01*
X132586495Y-112583812D01*
X132561133Y-112621769D01*
X132549500Y-112680252D01*
X132549500Y-112819748D01*
X132561133Y-112878231D01*
X132563996Y-112882515D01*
X132590898Y-112922777D01*
X132598214Y-112959559D01*
X132590898Y-112977223D01*
X132585958Y-112984616D01*
X132561133Y-113021769D01*
X132549500Y-113080252D01*
X132549500Y-113219748D01*
X132561133Y-113278231D01*
X132567312Y-113287478D01*
X132605447Y-113344552D01*
X132621150Y-113355044D01*
X132671769Y-113388867D01*
X132730252Y-113400500D01*
X132730255Y-113400500D01*
X133544746Y-113400500D01*
X133544748Y-113400500D01*
X133544749Y-113400499D01*
X133545689Y-113400407D01*
X133545996Y-113400500D01*
X133547155Y-113400500D01*
X133547155Y-113400851D01*
X133581579Y-113411287D01*
X133599263Y-113444359D01*
X133599500Y-113449170D01*
X133599500Y-113674828D01*
X133609927Y-113700000D01*
X133637636Y-113766896D01*
X133637637Y-113766897D01*
X133637637Y-113766898D01*
X134009841Y-114139100D01*
X134009844Y-114139104D01*
X134060148Y-114189408D01*
X134074500Y-114224056D01*
X134074500Y-114347870D01*
X134083824Y-114394744D01*
X134089150Y-114421521D01*
X134144956Y-114505043D01*
X134177495Y-114526784D01*
X134228479Y-114560850D01*
X134302130Y-114575500D01*
X134302133Y-114575500D01*
X135097867Y-114575500D01*
X135097870Y-114575500D01*
X135171521Y-114560850D01*
X135255043Y-114505043D01*
X135310850Y-114421521D01*
X135325500Y-114347870D01*
X135325500Y-113652130D01*
X135310850Y-113578479D01*
X135283376Y-113537361D01*
X135255043Y-113494956D01*
X135171521Y-113439150D01*
X135097870Y-113424500D01*
X134302130Y-113424500D01*
X134259448Y-113432990D01*
X134228478Y-113439150D01*
X134176723Y-113473732D01*
X134139940Y-113481048D01*
X134108758Y-113460213D01*
X134100500Y-113432990D01*
X134100500Y-111349524D01*
X134100499Y-111349520D01*
X134086987Y-111316899D01*
X134062364Y-111257453D01*
X134062362Y-111257451D01*
X134062362Y-111257450D01*
X133991897Y-111186986D01*
X133742549Y-110937637D01*
X133742545Y-110937635D01*
X133742280Y-110937525D01*
X133742077Y-110937322D01*
X133738537Y-110934957D01*
X133739007Y-110934252D01*
X133715764Y-110911004D01*
X133712978Y-110882697D01*
X133713866Y-110878232D01*
X133713867Y-110878231D01*
X133725500Y-110819748D01*
X133725500Y-110680252D01*
X133721284Y-110659057D01*
X133728601Y-110622277D01*
X133759784Y-110601441D01*
X133769343Y-110600500D01*
X134119826Y-110600500D01*
X134119828Y-110600500D01*
X134211897Y-110562364D01*
X134259409Y-110514850D01*
X134294058Y-110500499D01*
X134563368Y-110500499D01*
X134563372Y-110500499D01*
X134587662Y-110497682D01*
X134687016Y-110453813D01*
X134763813Y-110377016D01*
X134807682Y-110277662D01*
X134807682Y-110277660D01*
X134807683Y-110277658D01*
X134810498Y-110253390D01*
X134810497Y-110253390D01*
X134810500Y-110253373D01*
X134810499Y-109959832D01*
X134824851Y-109925185D01*
X134859499Y-109910833D01*
X134894147Y-109925185D01*
X134935148Y-109966186D01*
X134949500Y-110000834D01*
X134949500Y-110299829D01*
X134965296Y-110337965D01*
X134987636Y-110391897D01*
X134987637Y-110391898D01*
X134987637Y-110391899D01*
X135060148Y-110464409D01*
X135074500Y-110499057D01*
X135074500Y-110808480D01*
X135084287Y-110857681D01*
X135086858Y-110870609D01*
X135133934Y-110941065D01*
X135160998Y-110959148D01*
X135204391Y-110988142D01*
X135266520Y-111000500D01*
X135266523Y-111000500D01*
X135433477Y-111000500D01*
X135433480Y-111000500D01*
X135495609Y-110988142D01*
X135552693Y-110950000D01*
X135570078Y-110938384D01*
X135570830Y-110939509D01*
X135600000Y-110927427D01*
X135629169Y-110939509D01*
X135629922Y-110938384D01*
X135647307Y-110950000D01*
X135704391Y-110988142D01*
X135766520Y-111000500D01*
X135766523Y-111000500D01*
X135933477Y-111000500D01*
X135933480Y-111000500D01*
X135995609Y-110988142D01*
X136052693Y-110950000D01*
X136070078Y-110938384D01*
X136070830Y-110939509D01*
X136100000Y-110927427D01*
X136129169Y-110939509D01*
X136129922Y-110938384D01*
X136147307Y-110950000D01*
X136204391Y-110988142D01*
X136266520Y-111000500D01*
X136266523Y-111000500D01*
X136356942Y-111000500D01*
X136391590Y-111014852D01*
X136405942Y-111049500D01*
X136391590Y-111084148D01*
X136368223Y-111107515D01*
X136350589Y-111125149D01*
X136315941Y-111139500D01*
X136046632Y-111139500D01*
X136046625Y-111139501D01*
X136022336Y-111142318D01*
X135922982Y-111186187D01*
X135846187Y-111262982D01*
X135802318Y-111362335D01*
X135802316Y-111362341D01*
X135799501Y-111386609D01*
X135799500Y-111386629D01*
X135799500Y-111813367D01*
X135799501Y-111813374D01*
X135802318Y-111837663D01*
X135846186Y-111937015D01*
X135846187Y-111937016D01*
X135885148Y-111975977D01*
X135899500Y-112010624D01*
X135899500Y-112225500D01*
X135885148Y-112260148D01*
X135850500Y-112274500D01*
X135752130Y-112274500D01*
X135696891Y-112285487D01*
X135678478Y-112289150D01*
X135594956Y-112344956D01*
X135539150Y-112428478D01*
X135537182Y-112438372D01*
X135524500Y-112502130D01*
X135524500Y-113197870D01*
X135532781Y-113239500D01*
X135539150Y-113271521D01*
X135594956Y-113355043D01*
X135638680Y-113384258D01*
X135659515Y-113415440D01*
X135652199Y-113452223D01*
X135638680Y-113465742D01*
X135594956Y-113494956D01*
X135539150Y-113578478D01*
X135539150Y-113578479D01*
X135524500Y-113652130D01*
X135524500Y-114347870D01*
X135533824Y-114394744D01*
X135539150Y-114421521D01*
X135594956Y-114505043D01*
X135627495Y-114526784D01*
X135678479Y-114560850D01*
X135749868Y-114575050D01*
X135781048Y-114595883D01*
X135788703Y-114630772D01*
X135788426Y-114632516D01*
X135788426Y-114632518D01*
X135777473Y-114701673D01*
X135771290Y-114740715D01*
X135769819Y-114750000D01*
X135788426Y-114867482D01*
X135788426Y-114867483D01*
X135788427Y-114867484D01*
X135842422Y-114973458D01*
X135842427Y-114973465D01*
X135926534Y-115057572D01*
X135926541Y-115057577D01*
X135975486Y-115082515D01*
X136032518Y-115111574D01*
X136150000Y-115130181D01*
X136267482Y-115111574D01*
X136340988Y-115074120D01*
X136373458Y-115057577D01*
X136373460Y-115057575D01*
X136373465Y-115057573D01*
X136457573Y-114973465D01*
X136463243Y-114962338D01*
X136485375Y-114918900D01*
X136511574Y-114867482D01*
X136530181Y-114750000D01*
X136511574Y-114632518D01*
X136511571Y-114632513D01*
X136511296Y-114630773D01*
X136520051Y-114594306D01*
X136550130Y-114575050D01*
X136621521Y-114560850D01*
X136705043Y-114505043D01*
X136760850Y-114421521D01*
X136775500Y-114347870D01*
X136775500Y-114332379D01*
X136929500Y-114332379D01*
X136929500Y-114687617D01*
X136929501Y-114687626D01*
X136932270Y-114711499D01*
X136975384Y-114809142D01*
X137050494Y-114884252D01*
X137064846Y-114918900D01*
X137059506Y-114941145D01*
X137038426Y-114982517D01*
X137037775Y-114986627D01*
X137019819Y-115100000D01*
X137038426Y-115217482D01*
X137038426Y-115217483D01*
X137038427Y-115217484D01*
X137092422Y-115323458D01*
X137092427Y-115323465D01*
X137176534Y-115407572D01*
X137176541Y-115407577D01*
X137235580Y-115437658D01*
X137282518Y-115461574D01*
X137400000Y-115480181D01*
X137517482Y-115461574D01*
X137592289Y-115423458D01*
X137623458Y-115407577D01*
X137623460Y-115407575D01*
X137623465Y-115407573D01*
X137707573Y-115323465D01*
X137710621Y-115317484D01*
X137724120Y-115290988D01*
X137761574Y-115217482D01*
X137780181Y-115100000D01*
X137761574Y-114982518D01*
X137740494Y-114941146D01*
X137737551Y-114903758D01*
X137749505Y-114884252D01*
X137824615Y-114809142D01*
X137824616Y-114809141D01*
X137867730Y-114711498D01*
X137867730Y-114711496D01*
X137867731Y-114711494D01*
X137870498Y-114687640D01*
X137870497Y-114687640D01*
X137870500Y-114687623D01*
X137870499Y-114332378D01*
X137867730Y-114308502D01*
X137824616Y-114210859D01*
X137824615Y-114210858D01*
X137824615Y-114210857D01*
X137749142Y-114135384D01*
X137651500Y-114092270D01*
X137651494Y-114092268D01*
X137627640Y-114089501D01*
X137627625Y-114089500D01*
X137627623Y-114089500D01*
X137627620Y-114089500D01*
X137172382Y-114089500D01*
X137172373Y-114089501D01*
X137148500Y-114092270D01*
X137050857Y-114135384D01*
X136975384Y-114210857D01*
X136932270Y-114308499D01*
X136932268Y-114308505D01*
X136929501Y-114332359D01*
X136929500Y-114332379D01*
X136775500Y-114332379D01*
X136775500Y-113652130D01*
X136760850Y-113578479D01*
X136722603Y-113521238D01*
X136705042Y-113494955D01*
X136661320Y-113465742D01*
X136640484Y-113434560D01*
X136647800Y-113397778D01*
X136661320Y-113384258D01*
X136705042Y-113355044D01*
X136705043Y-113355043D01*
X136760850Y-113271521D01*
X136775500Y-113197870D01*
X136775500Y-112502130D01*
X136760850Y-112428479D01*
X136738474Y-112394991D01*
X136705043Y-112344956D01*
X136621521Y-112289150D01*
X136617881Y-112288426D01*
X136547870Y-112274500D01*
X136547867Y-112274500D01*
X136449500Y-112274500D01*
X136414852Y-112260148D01*
X136400500Y-112225500D01*
X136400500Y-112105242D01*
X136414852Y-112070594D01*
X136434343Y-112059291D01*
X136434290Y-112059171D01*
X136435387Y-112058686D01*
X136436642Y-112057959D01*
X136437652Y-112057683D01*
X136437662Y-112057682D01*
X136537016Y-112013813D01*
X136613813Y-111937016D01*
X136657682Y-111837662D01*
X136657682Y-111837660D01*
X136657683Y-111837658D01*
X136660498Y-111813390D01*
X136660497Y-111813390D01*
X136660500Y-111813373D01*
X136660499Y-111544056D01*
X136674851Y-111509409D01*
X136854850Y-111329410D01*
X136889498Y-111315058D01*
X136924146Y-111329410D01*
X136938498Y-111364058D01*
X136934324Y-111383848D01*
X136932270Y-111388499D01*
X136932268Y-111388505D01*
X136929501Y-111412359D01*
X136929500Y-111412379D01*
X136929500Y-111767617D01*
X136929501Y-111767626D01*
X136932270Y-111791499D01*
X136975384Y-111889142D01*
X137050857Y-111964615D01*
X137050858Y-111964615D01*
X137050859Y-111964616D01*
X137076272Y-111975837D01*
X137148499Y-112007729D01*
X137148505Y-112007731D01*
X137172359Y-112010498D01*
X137172360Y-112010498D01*
X137172377Y-112010500D01*
X137445942Y-112010499D01*
X137480590Y-112024851D01*
X137561591Y-112105852D01*
X137575943Y-112140500D01*
X137561591Y-112175148D01*
X137526943Y-112189500D01*
X137172382Y-112189500D01*
X137172373Y-112189501D01*
X137148500Y-112192270D01*
X137050857Y-112235384D01*
X136975384Y-112310857D01*
X136932270Y-112408499D01*
X136932268Y-112408505D01*
X136929501Y-112432359D01*
X136929500Y-112432379D01*
X136929500Y-112787617D01*
X136929501Y-112787626D01*
X136932270Y-112811499D01*
X136975384Y-112909142D01*
X137050856Y-112984614D01*
X137050857Y-112984614D01*
X137050859Y-112984616D01*
X137090514Y-113002125D01*
X137097420Y-113005175D01*
X137123318Y-113032300D01*
X137122452Y-113069793D01*
X137097420Y-113094825D01*
X137050856Y-113115385D01*
X136975384Y-113190857D01*
X136932270Y-113288499D01*
X136932268Y-113288505D01*
X136929501Y-113312359D01*
X136929500Y-113312379D01*
X136929500Y-113667617D01*
X136929501Y-113667626D01*
X136932270Y-113691499D01*
X136975384Y-113789142D01*
X137050857Y-113864615D01*
X137148499Y-113907729D01*
X137148505Y-113907731D01*
X137172359Y-113910498D01*
X137172360Y-113910498D01*
X137172377Y-113910500D01*
X137627622Y-113910499D01*
X137651498Y-113907730D01*
X137749141Y-113864616D01*
X137824616Y-113789141D01*
X137833197Y-113769707D01*
X137860322Y-113743809D01*
X137878022Y-113740500D01*
X138145943Y-113740500D01*
X138180591Y-113754852D01*
X138411610Y-113985871D01*
X138425962Y-114020519D01*
X138420176Y-114043617D01*
X138371186Y-114135271D01*
X138313976Y-114323866D01*
X138313976Y-114323867D01*
X138294659Y-114519999D01*
X138294659Y-114520000D01*
X138313976Y-114716132D01*
X138313976Y-114716133D01*
X138371185Y-114904726D01*
X138414963Y-114986628D01*
X138454974Y-115061484D01*
X138464092Y-115078541D01*
X138464094Y-115078544D01*
X138518129Y-115144384D01*
X138589117Y-115230883D01*
X138676427Y-115302537D01*
X138741455Y-115355905D01*
X138741458Y-115355907D01*
X138741462Y-115355910D01*
X138915273Y-115448814D01*
X139103868Y-115506024D01*
X139300000Y-115525341D01*
X139496132Y-115506024D01*
X139684727Y-115448814D01*
X139858538Y-115355910D01*
X140010883Y-115230883D01*
X140135910Y-115078538D01*
X140228814Y-114904727D01*
X140286024Y-114716132D01*
X140305341Y-114520000D01*
X140286024Y-114323868D01*
X140228814Y-114135273D01*
X140135910Y-113961462D01*
X140135907Y-113961458D01*
X140135905Y-113961455D01*
X140071122Y-113882518D01*
X140010883Y-113809117D01*
X139939227Y-113750310D01*
X139858544Y-113684094D01*
X139858541Y-113684092D01*
X139858539Y-113684091D01*
X139858538Y-113684090D01*
X139776381Y-113640176D01*
X139684726Y-113591185D01*
X139496132Y-113533976D01*
X139300000Y-113514659D01*
X139103867Y-113533976D01*
X139103866Y-113533976D01*
X138915271Y-113591186D01*
X138823617Y-113640176D01*
X138786295Y-113643852D01*
X138765871Y-113631610D01*
X138411899Y-113277637D01*
X138411365Y-113277416D01*
X138378025Y-113263606D01*
X138319829Y-113239500D01*
X138319828Y-113239500D01*
X137878022Y-113239500D01*
X137843374Y-113225148D01*
X137833197Y-113210293D01*
X137832182Y-113207995D01*
X137824616Y-113190859D01*
X137824614Y-113190857D01*
X137824614Y-113190856D01*
X137749143Y-113115385D01*
X137702579Y-113094824D01*
X137676681Y-113067699D01*
X137677547Y-113030206D01*
X137702621Y-113005156D01*
X137703086Y-113004951D01*
X137703755Y-113004657D01*
X137723505Y-113000500D01*
X137949166Y-113000500D01*
X137983814Y-113014852D01*
X138026534Y-113057572D01*
X138026541Y-113057577D01*
X138094930Y-113092422D01*
X138132518Y-113111574D01*
X138250000Y-113130181D01*
X138367482Y-113111574D01*
X138440988Y-113074120D01*
X138473458Y-113057577D01*
X138473460Y-113057575D01*
X138473465Y-113057573D01*
X138557573Y-112973465D01*
X138561365Y-112966024D01*
X138581485Y-112926535D01*
X138611574Y-112867482D01*
X138620366Y-112811967D01*
X138639960Y-112779993D01*
X138676427Y-112771238D01*
X138699848Y-112781758D01*
X138741455Y-112815905D01*
X138741458Y-112815907D01*
X138741462Y-112815910D01*
X138915273Y-112908814D01*
X139103868Y-112966024D01*
X139300000Y-112985341D01*
X139496132Y-112966024D01*
X139684727Y-112908814D01*
X139858538Y-112815910D01*
X140010883Y-112690883D01*
X140135910Y-112538538D01*
X140228814Y-112364727D01*
X140286024Y-112176132D01*
X140305341Y-111980000D01*
X140304579Y-111972268D01*
X140301435Y-111940342D01*
X140286024Y-111783868D01*
X140228814Y-111595273D01*
X140135910Y-111421462D01*
X140135907Y-111421458D01*
X140135905Y-111421455D01*
X140060364Y-111329410D01*
X140010883Y-111269117D01*
X139906184Y-111183192D01*
X139858544Y-111144094D01*
X139858541Y-111144092D01*
X139858539Y-111144091D01*
X139858538Y-111144090D01*
X139778592Y-111101358D01*
X139684726Y-111051185D01*
X139496132Y-110993976D01*
X139300000Y-110974659D01*
X139103867Y-110993976D01*
X139103866Y-110993976D01*
X138915273Y-111051185D01*
X138741458Y-111144092D01*
X138741455Y-111144094D01*
X138589117Y-111269117D01*
X138464094Y-111421455D01*
X138464092Y-111421458D01*
X138371188Y-111595268D01*
X138371185Y-111595275D01*
X138341017Y-111694724D01*
X138317225Y-111723714D01*
X138294127Y-111729500D01*
X137919499Y-111729500D01*
X137884851Y-111715148D01*
X137870499Y-111680500D01*
X137870499Y-111412382D01*
X137870498Y-111412377D01*
X137867730Y-111388502D01*
X137824616Y-111290859D01*
X137824615Y-111290858D01*
X137824615Y-111290857D01*
X137749142Y-111215384D01*
X137651500Y-111172270D01*
X137651494Y-111172268D01*
X137627640Y-111169501D01*
X137627625Y-111169500D01*
X137627623Y-111169500D01*
X137627620Y-111169500D01*
X137172382Y-111169500D01*
X137172373Y-111169501D01*
X137148500Y-111172270D01*
X137148497Y-111172271D01*
X137129400Y-111180703D01*
X137091907Y-111181569D01*
X137064784Y-111155669D01*
X137063918Y-111118176D01*
X137064302Y-111117216D01*
X137100500Y-111029828D01*
X137100500Y-110930173D01*
X137100500Y-110904392D01*
X137108759Y-110877168D01*
X137109635Y-110875857D01*
X137113142Y-110870609D01*
X137125500Y-110808480D01*
X137125500Y-109991520D01*
X137113142Y-109929391D01*
X137097520Y-109906011D01*
X137066065Y-109858934D01*
X136995609Y-109811858D01*
X136987012Y-109810148D01*
X136933480Y-109799500D01*
X136821796Y-109799500D01*
X136787148Y-109785148D01*
X136772796Y-109750500D01*
X136773399Y-109742834D01*
X136773876Y-109739823D01*
X136780184Y-109700000D01*
X136761577Y-109582518D01*
X136733357Y-109527133D01*
X136707580Y-109476541D01*
X136707575Y-109476534D01*
X136671040Y-109439999D01*
X138294659Y-109439999D01*
X138294659Y-109440000D01*
X138313976Y-109636132D01*
X138313976Y-109636133D01*
X138371185Y-109824726D01*
X138404037Y-109886187D01*
X138460340Y-109991523D01*
X138464092Y-109998541D01*
X138464094Y-109998544D01*
X138516452Y-110062341D01*
X138589117Y-110150883D01*
X138661370Y-110210180D01*
X138741455Y-110275905D01*
X138741458Y-110275907D01*
X138741462Y-110275910D01*
X138915273Y-110368814D01*
X139103868Y-110426024D01*
X139300000Y-110445341D01*
X139496132Y-110426024D01*
X139684727Y-110368814D01*
X139858538Y-110275910D01*
X140010883Y-110150883D01*
X140135910Y-109998538D01*
X140228814Y-109824727D01*
X140286024Y-109636132D01*
X140305341Y-109440000D01*
X140286024Y-109243868D01*
X140228814Y-109055273D01*
X140135910Y-108881462D01*
X140135907Y-108881458D01*
X140135905Y-108881455D01*
X140075225Y-108807518D01*
X140010883Y-108729117D01*
X139928582Y-108661574D01*
X139858544Y-108604094D01*
X139858541Y-108604092D01*
X139858539Y-108604091D01*
X139858538Y-108604090D01*
X139757337Y-108549997D01*
X139684726Y-108511185D01*
X139496132Y-108453976D01*
X139300000Y-108434659D01*
X139103867Y-108453976D01*
X139103866Y-108453976D01*
X138915273Y-108511185D01*
X138741458Y-108604092D01*
X138741455Y-108604094D01*
X138589117Y-108729117D01*
X138464094Y-108881455D01*
X138464092Y-108881458D01*
X138371185Y-109055273D01*
X138313976Y-109243866D01*
X138313976Y-109243867D01*
X138294659Y-109439999D01*
X136671040Y-109439999D01*
X136623468Y-109392427D01*
X136623461Y-109392422D01*
X136575841Y-109368159D01*
X136551484Y-109339642D01*
X136554427Y-109302255D01*
X136582944Y-109277898D01*
X136598086Y-109275500D01*
X136919745Y-109275500D01*
X136919748Y-109275500D01*
X136978231Y-109263867D01*
X137044552Y-109219552D01*
X137088867Y-109153231D01*
X137100500Y-109094748D01*
X137100500Y-108855252D01*
X137088867Y-108796769D01*
X137053777Y-108744254D01*
X137044552Y-108730447D01*
X137043978Y-108730064D01*
X137043593Y-108729488D01*
X137041140Y-108727035D01*
X137041627Y-108726547D01*
X137023142Y-108698881D01*
X137030459Y-108662099D01*
X137048953Y-108645664D01*
X137123712Y-108607573D01*
X137207820Y-108523465D01*
X137210868Y-108517484D01*
X137230868Y-108478230D01*
X137261821Y-108417482D01*
X137280428Y-108300000D01*
X137261821Y-108182518D01*
X137232514Y-108125000D01*
X137207824Y-108076541D01*
X137207819Y-108076534D01*
X137165099Y-108033814D01*
X137150747Y-107999166D01*
X137150747Y-107550418D01*
X137129230Y-107498471D01*
X137125500Y-107479720D01*
X137125500Y-107141523D01*
X137125500Y-107141520D01*
X137113142Y-107079391D01*
X137075178Y-107022573D01*
X137066065Y-107008934D01*
X136995609Y-106961858D01*
X136933480Y-106949500D01*
X136766520Y-106949500D01*
X136719923Y-106958768D01*
X136704390Y-106961858D01*
X136629922Y-107011616D01*
X136629169Y-107010490D01*
X136600000Y-107022573D01*
X136570830Y-107010490D01*
X136570078Y-107011616D01*
X136495609Y-106961858D01*
X136433480Y-106949500D01*
X136266520Y-106949500D01*
X136219923Y-106958768D01*
X136204390Y-106961858D01*
X136129922Y-107011616D01*
X136129169Y-107010490D01*
X136100000Y-107022573D01*
X136070830Y-107010490D01*
X136070078Y-107011616D01*
X135995609Y-106961858D01*
X135933480Y-106949500D01*
X135923708Y-106949500D01*
X135889060Y-106935148D01*
X135874708Y-106900500D01*
X135889060Y-106865852D01*
X136204567Y-106550344D01*
X136312364Y-106442547D01*
X136312469Y-106442292D01*
X136312664Y-106442097D01*
X136315048Y-106438531D01*
X136315756Y-106439004D01*
X136338982Y-106415771D01*
X136367301Y-106412978D01*
X136371768Y-106413866D01*
X136371769Y-106413867D01*
X136430252Y-106425500D01*
X136430255Y-106425500D01*
X136569745Y-106425500D01*
X136569748Y-106425500D01*
X136628231Y-106413867D01*
X136657496Y-106394311D01*
X136694276Y-106386994D01*
X136719367Y-106400405D01*
X136726534Y-106407572D01*
X136726541Y-106407577D01*
X136788222Y-106439004D01*
X136832518Y-106461574D01*
X136950000Y-106480181D01*
X137067482Y-106461574D01*
X137160624Y-106414116D01*
X137173458Y-106407577D01*
X137173460Y-106407575D01*
X137173465Y-106407573D01*
X137257573Y-106323465D01*
X137258022Y-106322585D01*
X137284647Y-106270329D01*
X137311574Y-106217482D01*
X137330181Y-106100000D01*
X137311574Y-105982518D01*
X137287967Y-105936187D01*
X137257577Y-105876541D01*
X137257572Y-105876534D01*
X137173465Y-105792427D01*
X137173458Y-105792422D01*
X137067484Y-105738427D01*
X137067483Y-105738426D01*
X137067482Y-105738426D01*
X136950000Y-105719819D01*
X136832518Y-105738426D01*
X136832516Y-105738426D01*
X136832514Y-105738427D01*
X136821743Y-105743915D01*
X136784356Y-105746856D01*
X136755840Y-105722498D01*
X136750500Y-105700255D01*
X136750500Y-105555255D01*
X136750500Y-105555252D01*
X136738867Y-105496769D01*
X136705611Y-105446998D01*
X136694552Y-105430447D01*
X136649729Y-105400498D01*
X136628231Y-105386133D01*
X136569748Y-105374500D01*
X136430252Y-105374500D01*
X136373197Y-105385849D01*
X136371769Y-105386133D01*
X136327223Y-105415898D01*
X136290441Y-105423214D01*
X136272777Y-105415898D01*
X136260231Y-105407515D01*
X136228231Y-105386133D01*
X136169748Y-105374500D01*
X136094343Y-105374500D01*
X136059695Y-105360148D01*
X136045343Y-105325500D01*
X136046284Y-105315941D01*
X136047153Y-105311572D01*
X136050500Y-105294748D01*
X136050500Y-105155252D01*
X136038867Y-105096769D01*
X136009100Y-105052221D01*
X136001784Y-105015441D01*
X136009099Y-104997780D01*
X136038867Y-104953231D01*
X136050500Y-104894748D01*
X136050500Y-104755252D01*
X136046284Y-104734057D01*
X136053601Y-104697277D01*
X136084784Y-104676441D01*
X136094343Y-104675500D01*
X136105657Y-104675500D01*
X136140305Y-104689852D01*
X136154657Y-104724500D01*
X136153716Y-104734054D01*
X136149500Y-104755252D01*
X136149500Y-104894748D01*
X136161133Y-104953231D01*
X136175936Y-104975385D01*
X136205447Y-105019552D01*
X136223926Y-105031899D01*
X136271769Y-105063867D01*
X136330252Y-105075500D01*
X136650172Y-105075500D01*
X137074166Y-105075500D01*
X137108814Y-105089852D01*
X137176534Y-105157572D01*
X137176541Y-105157577D01*
X137247190Y-105193573D01*
X137282518Y-105211574D01*
X137400000Y-105230181D01*
X137517482Y-105211574D01*
X137594409Y-105172378D01*
X137623458Y-105157577D01*
X137623460Y-105157575D01*
X137623465Y-105157573D01*
X137707573Y-105073465D01*
X137710621Y-105067484D01*
X137735043Y-105019552D01*
X137761574Y-104967482D01*
X137780181Y-104850000D01*
X137761574Y-104732518D01*
X137738882Y-104687982D01*
X137707577Y-104626541D01*
X137707572Y-104626534D01*
X137623465Y-104542427D01*
X137623458Y-104542422D01*
X137517484Y-104488427D01*
X137517483Y-104488426D01*
X137517482Y-104488426D01*
X137400000Y-104469819D01*
X137282518Y-104488426D01*
X137282516Y-104488426D01*
X137282515Y-104488427D01*
X137176541Y-104542422D01*
X137176534Y-104542427D01*
X137158814Y-104560148D01*
X137124166Y-104574500D01*
X136794343Y-104574500D01*
X136759695Y-104560148D01*
X136745343Y-104525500D01*
X136746284Y-104515941D01*
X136750500Y-104494748D01*
X136750500Y-104274267D01*
X136764852Y-104239619D01*
X136799500Y-104225267D01*
X136821742Y-104230607D01*
X136882518Y-104261574D01*
X137000000Y-104280181D01*
X137117482Y-104261574D01*
X137192289Y-104223458D01*
X137223458Y-104207577D01*
X137223460Y-104207575D01*
X137223465Y-104207573D01*
X137307573Y-104123465D01*
X137310621Y-104117484D01*
X137344212Y-104051556D01*
X137361574Y-104017482D01*
X137365636Y-103991833D01*
X137385232Y-103959858D01*
X137414033Y-103950500D01*
X138070500Y-103950500D01*
X138105148Y-103964852D01*
X138119500Y-103999500D01*
X138119500Y-104450003D01*
X138140331Y-104527748D01*
X138140334Y-104527752D01*
X138197247Y-104584665D01*
X138197251Y-104584668D01*
X138274996Y-104605499D01*
X138274997Y-104605500D01*
X138275000Y-104605500D01*
X138659191Y-104605500D01*
X138693839Y-104619852D01*
X139861348Y-105787362D01*
X139861349Y-105787362D01*
X139861351Y-105787364D01*
X139953420Y-105825500D01*
X140053076Y-105825500D01*
X141175166Y-105825500D01*
X141209814Y-105839852D01*
X141224166Y-105874500D01*
X141209814Y-105909148D01*
X141192427Y-105926534D01*
X141192422Y-105926541D01*
X141138427Y-106032515D01*
X141138426Y-106032516D01*
X141138426Y-106032518D01*
X141119819Y-106150000D01*
X141138426Y-106267482D01*
X141138426Y-106267483D01*
X141138427Y-106267484D01*
X141192422Y-106373458D01*
X141192427Y-106373465D01*
X141276534Y-106457572D01*
X141276541Y-106457577D01*
X141347190Y-106493573D01*
X141382518Y-106511574D01*
X141500000Y-106530181D01*
X141617482Y-106511574D01*
X141715617Y-106461572D01*
X141723458Y-106457577D01*
X141723459Y-106457575D01*
X141723465Y-106457573D01*
X141758604Y-106422433D01*
X141793249Y-106408083D01*
X141827898Y-106422434D01*
X141838073Y-106437288D01*
X141854807Y-106475188D01*
X141865384Y-106499142D01*
X141941802Y-106575560D01*
X141956154Y-106610208D01*
X141941802Y-106644856D01*
X141926947Y-106655032D01*
X141880859Y-106675382D01*
X141880858Y-106675384D01*
X141805384Y-106750858D01*
X141805382Y-106750859D01*
X141796108Y-106771864D01*
X141768984Y-106797763D01*
X141731491Y-106796895D01*
X141725725Y-106793577D01*
X141617484Y-106738427D01*
X141617483Y-106738426D01*
X141617482Y-106738426D01*
X141500000Y-106719819D01*
X141382518Y-106738426D01*
X141382516Y-106738426D01*
X141382515Y-106738427D01*
X141276541Y-106792422D01*
X141276534Y-106792427D01*
X141192427Y-106876534D01*
X141192422Y-106876541D01*
X141138427Y-106982515D01*
X141138426Y-106982516D01*
X141138426Y-106982518D01*
X141119819Y-107100000D01*
X141138426Y-107217482D01*
X141138426Y-107217483D01*
X141138427Y-107217484D01*
X141192422Y-107323458D01*
X141192427Y-107323465D01*
X141276534Y-107407572D01*
X141276541Y-107407577D01*
X141345048Y-107442482D01*
X141382518Y-107461574D01*
X141500000Y-107480181D01*
X141617482Y-107461574D01*
X141673360Y-107433103D01*
X141726902Y-107405823D01*
X141727539Y-107407075D01*
X141758944Y-107399531D01*
X141790922Y-107419123D01*
X141796108Y-107428136D01*
X141805382Y-107449140D01*
X141878842Y-107522600D01*
X141893194Y-107557248D01*
X141878842Y-107591896D01*
X141683103Y-107787637D01*
X141635592Y-107835148D01*
X141600944Y-107849500D01*
X141477130Y-107849500D01*
X141436836Y-107857515D01*
X141403478Y-107864150D01*
X141319956Y-107919956D01*
X141264150Y-108003478D01*
X141263041Y-108009055D01*
X141249500Y-108077130D01*
X141249500Y-108872870D01*
X141260175Y-108926535D01*
X141264150Y-108946521D01*
X141319956Y-109030043D01*
X141368286Y-109062335D01*
X141403479Y-109085850D01*
X141477130Y-109100500D01*
X141477133Y-109100500D01*
X142172867Y-109100500D01*
X142172870Y-109100500D01*
X142246521Y-109085850D01*
X142330043Y-109030043D01*
X142385850Y-108946521D01*
X142400500Y-108872870D01*
X142400500Y-108077130D01*
X142400382Y-108076535D01*
X142391933Y-108034059D01*
X142399249Y-107997277D01*
X142430432Y-107976442D01*
X142439991Y-107975500D01*
X143375500Y-107975500D01*
X143410148Y-107989852D01*
X143424500Y-108024500D01*
X143424500Y-108224829D01*
X143436506Y-108253813D01*
X143462636Y-108316897D01*
X143462637Y-108316898D01*
X143462637Y-108316899D01*
X143659840Y-108514100D01*
X143659843Y-108514104D01*
X143662636Y-108516897D01*
X143733103Y-108587364D01*
X143736732Y-108588867D01*
X143758523Y-108597893D01*
X143785040Y-108624411D01*
X143785041Y-108661911D01*
X143783232Y-108666277D01*
X143774500Y-108710176D01*
X143774500Y-108710180D01*
X143774500Y-109039820D01*
X143774501Y-109039823D01*
X143779696Y-109065941D01*
X143772379Y-109102723D01*
X143741196Y-109123559D01*
X143731637Y-109124500D01*
X143475170Y-109124500D01*
X143383101Y-109162637D01*
X143383100Y-109162637D01*
X143260591Y-109285148D01*
X143225943Y-109299500D01*
X142627130Y-109299500D01*
X142571891Y-109310487D01*
X142553478Y-109314150D01*
X142469956Y-109369956D01*
X142440742Y-109413680D01*
X142409560Y-109434515D01*
X142372777Y-109427199D01*
X142359258Y-109413680D01*
X142330043Y-109369956D01*
X142246521Y-109314150D01*
X142242615Y-109313373D01*
X142172870Y-109299500D01*
X141477130Y-109299500D01*
X141421891Y-109310487D01*
X141403478Y-109314150D01*
X141319956Y-109369956D01*
X141264150Y-109453478D01*
X141261351Y-109467550D01*
X141249500Y-109527130D01*
X141249500Y-109527133D01*
X141249500Y-110749166D01*
X141235148Y-110783814D01*
X141192427Y-110826534D01*
X141192422Y-110826541D01*
X141138427Y-110932515D01*
X141138426Y-110932516D01*
X141138426Y-110932518D01*
X141119819Y-111050000D01*
X141138426Y-111167482D01*
X141138426Y-111167483D01*
X141138427Y-111167484D01*
X141192422Y-111273458D01*
X141192427Y-111273465D01*
X141276534Y-111357572D01*
X141276541Y-111357577D01*
X141337951Y-111388866D01*
X141382518Y-111411574D01*
X141500000Y-111430181D01*
X141617482Y-111411574D01*
X141692295Y-111373455D01*
X141723458Y-111357577D01*
X141723460Y-111357575D01*
X141723465Y-111357573D01*
X141807573Y-111273465D01*
X141809789Y-111269117D01*
X141827559Y-111234240D01*
X141861574Y-111167482D01*
X141880181Y-111050000D01*
X141861574Y-110932518D01*
X141836096Y-110882515D01*
X141807577Y-110826541D01*
X141807572Y-110826534D01*
X141764852Y-110783814D01*
X141750500Y-110749166D01*
X141750500Y-110599500D01*
X141764852Y-110564852D01*
X141799500Y-110550500D01*
X142172867Y-110550500D01*
X142172870Y-110550500D01*
X142246521Y-110535850D01*
X142330043Y-110480043D01*
X142338436Y-110467482D01*
X142359258Y-110436320D01*
X142390440Y-110415484D01*
X142427222Y-110422800D01*
X142440742Y-110436320D01*
X142469955Y-110480042D01*
X142496354Y-110497681D01*
X142553479Y-110535850D01*
X142627130Y-110550500D01*
X142627133Y-110550500D01*
X143322869Y-110550500D01*
X143322870Y-110550500D01*
X143329159Y-110549249D01*
X143365941Y-110541933D01*
X143402723Y-110549249D01*
X143423558Y-110580432D01*
X143424500Y-110589991D01*
X143424500Y-110705500D01*
X143410148Y-110740148D01*
X143375500Y-110754500D01*
X143057382Y-110754500D01*
X143057373Y-110754501D01*
X143033500Y-110757270D01*
X142935857Y-110800384D01*
X142860384Y-110875857D01*
X142817270Y-110973499D01*
X142817268Y-110973505D01*
X142814501Y-110997359D01*
X142814500Y-110997379D01*
X142814500Y-111452617D01*
X142814501Y-111452626D01*
X142817270Y-111476499D01*
X142860384Y-111574142D01*
X142935857Y-111649615D01*
X143033500Y-111692730D01*
X143034891Y-111693108D01*
X143035602Y-111693657D01*
X143036873Y-111694219D01*
X143036734Y-111694533D01*
X143064560Y-111716047D01*
X143069318Y-111753247D01*
X143046379Y-111782916D01*
X143041828Y-111785216D01*
X142950856Y-111825385D01*
X142875385Y-111900856D01*
X142866803Y-111920293D01*
X142839678Y-111946191D01*
X142821978Y-111949500D01*
X142770696Y-111949500D01*
X142736048Y-111935148D01*
X142725871Y-111920292D01*
X142713812Y-111892982D01*
X142637017Y-111816187D01*
X142637018Y-111816187D01*
X142537664Y-111772318D01*
X142537658Y-111772316D01*
X142513390Y-111769501D01*
X142513375Y-111769500D01*
X142513373Y-111769500D01*
X142513370Y-111769500D01*
X142086632Y-111769500D01*
X142086625Y-111769501D01*
X142062336Y-111772318D01*
X141962982Y-111816187D01*
X141886187Y-111892982D01*
X141842318Y-111992335D01*
X141842316Y-111992341D01*
X141839501Y-112016609D01*
X141839500Y-112016629D01*
X141839500Y-112383367D01*
X141839501Y-112383374D01*
X141842318Y-112407663D01*
X141886187Y-112507017D01*
X141962982Y-112583812D01*
X142062335Y-112627681D01*
X142062341Y-112627683D01*
X142086609Y-112630498D01*
X142086610Y-112630498D01*
X142086627Y-112630500D01*
X142513372Y-112630499D01*
X142537662Y-112627682D01*
X142637016Y-112583813D01*
X142713813Y-112507016D01*
X142725871Y-112479708D01*
X142752995Y-112453809D01*
X142770696Y-112450500D01*
X142821978Y-112450500D01*
X142856626Y-112464852D01*
X142866803Y-112479707D01*
X142870547Y-112488188D01*
X142874776Y-112497765D01*
X142875385Y-112499143D01*
X142950857Y-112574615D01*
X142950858Y-112574615D01*
X142950859Y-112574616D01*
X142971686Y-112583812D01*
X143048499Y-112617729D01*
X143048505Y-112617731D01*
X143072359Y-112620498D01*
X143072360Y-112620498D01*
X143072377Y-112620500D01*
X143527622Y-112620499D01*
X143551498Y-112617730D01*
X143649141Y-112574616D01*
X143649616Y-112574141D01*
X143665852Y-112557906D01*
X143700500Y-112543554D01*
X143735148Y-112557906D01*
X143749500Y-112592554D01*
X143749500Y-112827446D01*
X143735148Y-112862094D01*
X143700500Y-112876446D01*
X143665852Y-112862094D01*
X143649142Y-112845384D01*
X143551500Y-112802270D01*
X143551494Y-112802268D01*
X143527640Y-112799501D01*
X143527625Y-112799500D01*
X143527623Y-112799500D01*
X143527620Y-112799500D01*
X143072382Y-112799500D01*
X143072373Y-112799501D01*
X143048500Y-112802270D01*
X142950857Y-112845384D01*
X142875384Y-112920857D01*
X142832270Y-113018499D01*
X142832268Y-113018505D01*
X142829501Y-113042359D01*
X142829500Y-113042379D01*
X142829500Y-113397617D01*
X142829501Y-113397626D01*
X142832270Y-113421499D01*
X142875384Y-113519142D01*
X142950857Y-113594615D01*
X143048499Y-113637729D01*
X143048505Y-113637731D01*
X143072359Y-113640498D01*
X143072360Y-113640498D01*
X143072377Y-113640500D01*
X143527622Y-113640499D01*
X143551498Y-113637730D01*
X143649141Y-113594616D01*
X143724616Y-113519141D01*
X143733197Y-113499707D01*
X143760322Y-113473809D01*
X143778022Y-113470500D01*
X143829826Y-113470500D01*
X143829828Y-113470500D01*
X143921897Y-113432364D01*
X143921899Y-113432362D01*
X143921900Y-113432362D01*
X144215777Y-113138485D01*
X144217502Y-113140210D01*
X144241429Y-113124216D01*
X144278213Y-113131523D01*
X144299056Y-113162701D01*
X144300000Y-113172272D01*
X144300000Y-115951000D01*
X144285648Y-115985648D01*
X144251000Y-116000000D01*
X122549416Y-116000000D01*
X122548816Y-115999996D01*
X122547405Y-115999978D01*
X122453275Y-115998825D01*
X122448476Y-115998531D01*
X122355633Y-115988237D01*
X122351473Y-115987593D01*
X122307742Y-115978894D01*
X122303078Y-115977726D01*
X122122854Y-115923055D01*
X122113980Y-115919379D01*
X121950029Y-115831746D01*
X121942042Y-115826410D01*
X121798326Y-115708466D01*
X121791533Y-115701673D01*
X121673589Y-115557957D01*
X121668253Y-115549970D01*
X121661330Y-115537017D01*
X121580618Y-115386015D01*
X121576944Y-115377145D01*
X121522269Y-115196907D01*
X121521108Y-115192271D01*
X121512403Y-115148508D01*
X121511764Y-115144384D01*
X121502573Y-115061484D01*
X121503922Y-115051779D01*
X121450858Y-115000000D01*
X112049416Y-115000000D01*
X112048816Y-114999996D01*
X112047405Y-114999978D01*
X111953275Y-114998825D01*
X111948476Y-114998531D01*
X111855633Y-114988237D01*
X111851473Y-114987593D01*
X111807742Y-114978894D01*
X111803078Y-114977726D01*
X111622854Y-114923055D01*
X111613980Y-114919379D01*
X111450029Y-114831746D01*
X111442042Y-114826410D01*
X111298326Y-114708466D01*
X111291533Y-114701673D01*
X111280016Y-114687640D01*
X111173588Y-114557956D01*
X111168253Y-114549970D01*
X111152234Y-114520000D01*
X111080618Y-114386015D01*
X111076944Y-114377145D01*
X111022269Y-114196907D01*
X111021108Y-114192271D01*
X111012403Y-114148508D01*
X111011764Y-114144384D01*
X111001467Y-114051509D01*
X111001174Y-114046734D01*
X111000004Y-113951184D01*
X111000000Y-113950584D01*
X111000000Y-111959303D01*
X112349500Y-111959303D01*
X112349500Y-113090696D01*
X112352401Y-113127567D01*
X112352401Y-113127569D01*
X112398256Y-113285399D01*
X112480520Y-113424500D01*
X112481919Y-113426865D01*
X112598135Y-113543081D01*
X112739600Y-113626743D01*
X112739601Y-113626743D01*
X112739602Y-113626744D01*
X112897431Y-113672598D01*
X112934306Y-113675500D01*
X112934317Y-113675500D01*
X120065683Y-113675500D01*
X120065694Y-113675500D01*
X120102569Y-113672598D01*
X120260398Y-113626744D01*
X120401865Y-113543081D01*
X120518081Y-113426865D01*
X120601744Y-113285398D01*
X120647598Y-113127569D01*
X120650500Y-113090694D01*
X120650500Y-111959306D01*
X120647598Y-111922431D01*
X120646726Y-111919431D01*
X120622969Y-111837658D01*
X120601744Y-111764602D01*
X120596330Y-111755448D01*
X120552006Y-111680500D01*
X120518081Y-111623135D01*
X120401865Y-111506919D01*
X120400419Y-111506064D01*
X120260398Y-111423256D01*
X120260400Y-111423256D01*
X120102568Y-111377401D01*
X120065696Y-111374500D01*
X120065694Y-111374500D01*
X112934306Y-111374500D01*
X112934303Y-111374500D01*
X112897432Y-111377401D01*
X112897430Y-111377401D01*
X112739600Y-111423256D01*
X112598137Y-111506917D01*
X112598132Y-111506921D01*
X112481921Y-111623132D01*
X112481917Y-111623137D01*
X112398256Y-111764600D01*
X112352401Y-111922430D01*
X112352401Y-111922432D01*
X112349500Y-111959303D01*
X111000000Y-111959303D01*
X111000000Y-109759303D01*
X113349500Y-109759303D01*
X113349500Y-110390696D01*
X113352401Y-110427567D01*
X113352401Y-110427569D01*
X113398256Y-110585399D01*
X113480520Y-110724500D01*
X113481919Y-110726865D01*
X113598135Y-110843081D01*
X113739600Y-110926743D01*
X113739601Y-110926743D01*
X113739602Y-110926744D01*
X113897431Y-110972598D01*
X113934306Y-110975500D01*
X113934317Y-110975500D01*
X120065683Y-110975500D01*
X120065694Y-110975500D01*
X120102569Y-110972598D01*
X120260398Y-110926744D01*
X120401865Y-110843081D01*
X120518081Y-110726865D01*
X120601744Y-110585398D01*
X120647598Y-110427569D01*
X120650500Y-110390694D01*
X120650500Y-109759306D01*
X120647598Y-109722431D01*
X120641282Y-109700693D01*
X120622526Y-109636133D01*
X120601744Y-109564602D01*
X120588239Y-109541767D01*
X120549665Y-109476541D01*
X120518081Y-109423135D01*
X120401865Y-109306919D01*
X120398148Y-109304721D01*
X120260398Y-109223256D01*
X120260400Y-109223256D01*
X120102568Y-109177401D01*
X120065696Y-109174500D01*
X120065694Y-109174500D01*
X113934306Y-109174500D01*
X113934303Y-109174500D01*
X113897432Y-109177401D01*
X113897430Y-109177401D01*
X113739600Y-109223256D01*
X113598137Y-109306917D01*
X113598132Y-109306921D01*
X113481921Y-109423132D01*
X113481917Y-109423137D01*
X113398256Y-109564600D01*
X113352401Y-109722430D01*
X113352401Y-109722432D01*
X113349500Y-109759303D01*
X111000000Y-109759303D01*
X111000000Y-107709303D01*
X113349500Y-107709303D01*
X113349500Y-108340696D01*
X113352401Y-108377567D01*
X113352401Y-108377569D01*
X113398256Y-108535399D01*
X113472876Y-108661574D01*
X113481919Y-108676865D01*
X113598135Y-108793081D01*
X113739600Y-108876743D01*
X113739601Y-108876743D01*
X113739602Y-108876744D01*
X113897431Y-108922598D01*
X113934306Y-108925500D01*
X113934317Y-108925500D01*
X120065683Y-108925500D01*
X120065694Y-108925500D01*
X120102569Y-108922598D01*
X120260398Y-108876744D01*
X120401865Y-108793081D01*
X120518081Y-108676865D01*
X120601744Y-108535398D01*
X120641081Y-108400000D01*
X121619819Y-108400000D01*
X121638426Y-108517482D01*
X121638426Y-108517483D01*
X121638427Y-108517484D01*
X121692422Y-108623458D01*
X121692427Y-108623465D01*
X121776534Y-108707572D01*
X121776541Y-108707577D01*
X121833423Y-108736559D01*
X121882518Y-108761574D01*
X122000000Y-108780181D01*
X122117482Y-108761574D01*
X122195651Y-108721745D01*
X122223458Y-108707577D01*
X122223460Y-108707575D01*
X122223465Y-108707573D01*
X122307573Y-108623465D01*
X122308438Y-108621769D01*
X122327824Y-108583720D01*
X122361574Y-108517482D01*
X122380181Y-108400000D01*
X122380181Y-108399998D01*
X122380181Y-108396144D01*
X122382015Y-108396144D01*
X122389297Y-108365814D01*
X122394285Y-108359974D01*
X122772067Y-107982191D01*
X122806714Y-107967840D01*
X122841362Y-107982192D01*
X122862982Y-108003812D01*
X122962335Y-108047681D01*
X122962341Y-108047683D01*
X122986609Y-108050498D01*
X122986610Y-108050498D01*
X122986627Y-108050500D01*
X123413372Y-108050499D01*
X123437662Y-108047682D01*
X123537016Y-108003813D01*
X123613813Y-107927016D01*
X123657682Y-107827662D01*
X123657682Y-107827660D01*
X123657683Y-107827658D01*
X123660498Y-107803390D01*
X123660497Y-107803390D01*
X123660500Y-107803373D01*
X123660499Y-107436628D01*
X123657682Y-107412338D01*
X123613813Y-107312984D01*
X123613812Y-107312983D01*
X123613812Y-107312982D01*
X123537017Y-107236187D01*
X123537018Y-107236187D01*
X123437664Y-107192318D01*
X123437658Y-107192316D01*
X123413390Y-107189501D01*
X123413375Y-107189500D01*
X123413373Y-107189500D01*
X123413370Y-107189500D01*
X122986632Y-107189500D01*
X122986625Y-107189501D01*
X122962336Y-107192318D01*
X122862982Y-107236187D01*
X122786187Y-107312982D01*
X122774130Y-107340291D01*
X122747006Y-107366190D01*
X122734885Y-107368455D01*
X122734906Y-107368558D01*
X122730171Y-107369499D01*
X122685791Y-107387883D01*
X122638246Y-107407577D01*
X122638101Y-107407637D01*
X122638100Y-107407637D01*
X122567636Y-107478103D01*
X122567635Y-107478104D01*
X122040029Y-108005708D01*
X122005381Y-108020060D01*
X122002311Y-108019819D01*
X122000001Y-108019819D01*
X122000000Y-108019819D01*
X121882518Y-108038426D01*
X121882516Y-108038426D01*
X121882515Y-108038427D01*
X121776541Y-108092422D01*
X121776534Y-108092427D01*
X121692427Y-108176534D01*
X121692422Y-108176541D01*
X121638427Y-108282515D01*
X121638426Y-108282516D01*
X121638426Y-108282518D01*
X121619819Y-108400000D01*
X120641081Y-108400000D01*
X120647598Y-108377569D01*
X120650500Y-108340694D01*
X120650500Y-107709306D01*
X120647598Y-107672431D01*
X120646841Y-107669827D01*
X120623752Y-107590352D01*
X120601744Y-107514602D01*
X120584586Y-107485590D01*
X120538153Y-107407075D01*
X120518081Y-107373135D01*
X120401865Y-107256919D01*
X120335180Y-107217482D01*
X120260398Y-107173256D01*
X120260400Y-107173256D01*
X120102568Y-107127401D01*
X120065696Y-107124500D01*
X120065694Y-107124500D01*
X113934306Y-107124500D01*
X113934303Y-107124500D01*
X113897432Y-107127401D01*
X113897430Y-107127401D01*
X113739600Y-107173256D01*
X113598137Y-107256917D01*
X113598132Y-107256921D01*
X113481921Y-107373132D01*
X113481917Y-107373137D01*
X113398256Y-107514600D01*
X113352401Y-107672430D01*
X113352401Y-107672432D01*
X113349500Y-107709303D01*
X111000000Y-107709303D01*
X111000000Y-104049415D01*
X111000004Y-104048815D01*
X111000602Y-104000000D01*
X111001174Y-103953264D01*
X111001467Y-103948491D01*
X111011765Y-103855611D01*
X111012402Y-103851494D01*
X111021109Y-103807723D01*
X111022268Y-103803097D01*
X111076946Y-103622847D01*
X111080616Y-103613987D01*
X111168257Y-103450022D01*
X111173585Y-103442047D01*
X111291537Y-103298321D01*
X111298321Y-103291537D01*
X111442047Y-103173585D01*
X111450022Y-103168257D01*
X111613987Y-103080616D01*
X111622847Y-103076946D01*
X111803097Y-103022268D01*
X111807723Y-103021109D01*
X111851494Y-103012402D01*
X111855611Y-103011765D01*
X111948491Y-103001467D01*
X111953264Y-103001174D01*
X112048816Y-103000004D01*
X112049416Y-103000000D01*
X121450858Y-103000000D01*
X121501204Y-102950873D01*
X121501203Y-102950873D01*
X121501203Y-102950872D01*
X121503921Y-102948220D01*
X121502573Y-102938514D01*
X121509920Y-102872251D01*
X121511765Y-102855611D01*
X121512402Y-102851494D01*
X121521109Y-102807723D01*
X121522268Y-102803097D01*
X121576946Y-102622847D01*
X121580616Y-102613987D01*
X121668257Y-102450022D01*
X121673585Y-102442047D01*
X121791537Y-102298321D01*
X121798321Y-102291537D01*
X121942047Y-102173585D01*
X121950022Y-102168257D01*
X122113987Y-102080616D01*
X122122847Y-102076946D01*
X122303097Y-102022268D01*
X122307723Y-102021109D01*
X122351494Y-102012402D01*
X122355611Y-102011765D01*
X122448491Y-102001467D01*
X122453264Y-102001174D01*
X122548816Y-102000004D01*
X122549416Y-102000000D01*
X159251000Y-102000000D01*
X159285648Y-102014352D01*
G37*
%TD.AperFunction*%
%TA.AperFunction,Conductor*%
G36*
X147352219Y-111657373D02*
G01*
X147366278Y-111666767D01*
X147410180Y-111675500D01*
X147739820Y-111675500D01*
X147765940Y-111670304D01*
X147802722Y-111677619D01*
X147823558Y-111708801D01*
X147824500Y-111718362D01*
X147824500Y-111834829D01*
X147837845Y-111867047D01*
X147862636Y-111926897D01*
X147862637Y-111926898D01*
X147862637Y-111926899D01*
X148080148Y-112144409D01*
X148094500Y-112179057D01*
X148094500Y-112452617D01*
X148094501Y-112452626D01*
X148097270Y-112476499D01*
X148140384Y-112574142D01*
X148182594Y-112616352D01*
X148196946Y-112651000D01*
X148182594Y-112685648D01*
X148147946Y-112700000D01*
X147009126Y-112700000D01*
X146974478Y-112685648D01*
X146960126Y-112651000D01*
X146974478Y-112616352D01*
X147028812Y-112562017D01*
X147028813Y-112562016D01*
X147072682Y-112462662D01*
X147072682Y-112462660D01*
X147072683Y-112462658D01*
X147075498Y-112438390D01*
X147075497Y-112438390D01*
X147075500Y-112438373D01*
X147075499Y-112011628D01*
X147072682Y-111987338D01*
X147028813Y-111887984D01*
X147028812Y-111887983D01*
X147028812Y-111887982D01*
X146952017Y-111811187D01*
X146952018Y-111811187D01*
X146852664Y-111767318D01*
X146852658Y-111767316D01*
X146828390Y-111764501D01*
X146828375Y-111764500D01*
X146828373Y-111764500D01*
X146828370Y-111764500D01*
X146789891Y-111764500D01*
X146755243Y-111750148D01*
X146740891Y-111715500D01*
X146755243Y-111680852D01*
X146780331Y-111667442D01*
X146781807Y-111667147D01*
X146783722Y-111666767D01*
X146797778Y-111657374D01*
X146834559Y-111650058D01*
X146852219Y-111657373D01*
X146866278Y-111666767D01*
X146910180Y-111675500D01*
X147239820Y-111675500D01*
X147283722Y-111666767D01*
X147297778Y-111657374D01*
X147334559Y-111650058D01*
X147352219Y-111657373D01*
G37*
%TD.AperFunction*%
%TA.AperFunction,Conductor*%
G36*
X148352219Y-106657373D02*
G01*
X148366278Y-106666767D01*
X148410180Y-106675500D01*
X148725500Y-106675500D01*
X148760148Y-106689852D01*
X148774500Y-106724500D01*
X148774500Y-107039823D01*
X148783232Y-107083720D01*
X148792625Y-107097780D01*
X148799939Y-107134562D01*
X148792625Y-107152220D01*
X148783232Y-107166279D01*
X148774500Y-107210176D01*
X148774500Y-107539823D01*
X148783232Y-107583720D01*
X148792625Y-107597780D01*
X148799939Y-107634562D01*
X148792625Y-107652220D01*
X148783232Y-107666279D01*
X148774500Y-107710176D01*
X148774500Y-108039823D01*
X148783232Y-108083720D01*
X148792625Y-108097780D01*
X148799939Y-108134562D01*
X148792625Y-108152220D01*
X148783232Y-108166279D01*
X148774500Y-108210176D01*
X148774500Y-108539823D01*
X148783232Y-108583720D01*
X148792625Y-108597780D01*
X148799939Y-108634562D01*
X148792625Y-108652220D01*
X148783232Y-108666279D01*
X148774500Y-108710176D01*
X148774500Y-109039823D01*
X148783232Y-109083720D01*
X148792625Y-109097780D01*
X148799939Y-109134562D01*
X148792625Y-109152220D01*
X148783232Y-109166279D01*
X148774500Y-109210176D01*
X148774500Y-109539823D01*
X148783232Y-109583720D01*
X148792625Y-109597780D01*
X148799939Y-109634562D01*
X148792625Y-109652220D01*
X148783232Y-109666279D01*
X148774500Y-109710176D01*
X148774500Y-110039823D01*
X148783232Y-110083720D01*
X148783232Y-110083721D01*
X148783233Y-110083722D01*
X148785162Y-110086609D01*
X148792625Y-110097780D01*
X148799939Y-110134562D01*
X148792625Y-110152220D01*
X148783232Y-110166279D01*
X148774500Y-110210176D01*
X148774500Y-110525500D01*
X148760148Y-110560148D01*
X148725500Y-110574500D01*
X148410176Y-110574500D01*
X148366279Y-110583232D01*
X148352220Y-110592625D01*
X148315438Y-110599939D01*
X148297780Y-110592625D01*
X148286962Y-110585398D01*
X148283722Y-110583233D01*
X148283721Y-110583232D01*
X148283720Y-110583232D01*
X148239823Y-110574500D01*
X148239820Y-110574500D01*
X147910180Y-110574500D01*
X147910176Y-110574500D01*
X147866279Y-110583232D01*
X147852220Y-110592625D01*
X147815438Y-110599939D01*
X147797780Y-110592625D01*
X147786962Y-110585398D01*
X147783722Y-110583233D01*
X147783721Y-110583232D01*
X147783720Y-110583232D01*
X147739823Y-110574500D01*
X147739820Y-110574500D01*
X147410180Y-110574500D01*
X147410176Y-110574500D01*
X147366279Y-110583232D01*
X147352220Y-110592625D01*
X147315438Y-110599939D01*
X147297780Y-110592625D01*
X147286962Y-110585398D01*
X147283722Y-110583233D01*
X147283721Y-110583232D01*
X147283720Y-110583232D01*
X147239823Y-110574500D01*
X147239820Y-110574500D01*
X146910180Y-110574500D01*
X146910176Y-110574500D01*
X146866279Y-110583232D01*
X146852220Y-110592625D01*
X146815438Y-110599939D01*
X146797780Y-110592625D01*
X146786962Y-110585398D01*
X146783722Y-110583233D01*
X146783721Y-110583232D01*
X146783720Y-110583232D01*
X146739823Y-110574500D01*
X146739820Y-110574500D01*
X146410180Y-110574500D01*
X146410176Y-110574500D01*
X146366279Y-110583232D01*
X146352220Y-110592625D01*
X146315438Y-110599939D01*
X146297780Y-110592625D01*
X146286962Y-110585398D01*
X146283722Y-110583233D01*
X146283721Y-110583232D01*
X146283720Y-110583232D01*
X146239823Y-110574500D01*
X146239820Y-110574500D01*
X145910180Y-110574500D01*
X145910176Y-110574500D01*
X145866279Y-110583232D01*
X145852220Y-110592625D01*
X145815438Y-110599939D01*
X145797780Y-110592625D01*
X145786962Y-110585398D01*
X145783722Y-110583233D01*
X145783721Y-110583232D01*
X145783720Y-110583232D01*
X145739823Y-110574500D01*
X145739820Y-110574500D01*
X145410180Y-110574500D01*
X145410176Y-110574500D01*
X145366279Y-110583232D01*
X145352220Y-110592625D01*
X145315438Y-110599939D01*
X145297780Y-110592625D01*
X145286962Y-110585398D01*
X145283722Y-110583233D01*
X145283721Y-110583232D01*
X145283720Y-110583232D01*
X145239823Y-110574500D01*
X145239820Y-110574500D01*
X144924500Y-110574500D01*
X144889852Y-110560148D01*
X144875500Y-110525500D01*
X144875500Y-110210180D01*
X144875499Y-110210176D01*
X144871622Y-110190685D01*
X144866767Y-110166278D01*
X144857374Y-110152220D01*
X144850058Y-110115441D01*
X144857373Y-110097780D01*
X144866767Y-110083722D01*
X144875500Y-110039820D01*
X144875500Y-109710180D01*
X144866767Y-109666278D01*
X144857374Y-109652220D01*
X144850058Y-109615441D01*
X144857373Y-109597780D01*
X144866767Y-109583722D01*
X144875500Y-109539820D01*
X144875500Y-109210180D01*
X144866767Y-109166278D01*
X144857374Y-109152220D01*
X144850058Y-109115441D01*
X144857373Y-109097780D01*
X144866767Y-109083722D01*
X144875500Y-109039820D01*
X144875500Y-108710180D01*
X144866767Y-108666278D01*
X144857374Y-108652220D01*
X144850058Y-108615441D01*
X144857373Y-108597780D01*
X144866767Y-108583722D01*
X144875500Y-108539820D01*
X144875500Y-108210180D01*
X144866767Y-108166278D01*
X144857374Y-108152220D01*
X144850058Y-108115441D01*
X144857373Y-108097780D01*
X144866767Y-108083722D01*
X144875500Y-108039820D01*
X144875500Y-107710180D01*
X144866767Y-107666278D01*
X144857374Y-107652220D01*
X144850058Y-107615441D01*
X144857373Y-107597780D01*
X144866767Y-107583722D01*
X144875500Y-107539820D01*
X144875500Y-107210180D01*
X144866767Y-107166278D01*
X144857374Y-107152220D01*
X144850058Y-107115441D01*
X144857373Y-107097780D01*
X144866767Y-107083722D01*
X144875500Y-107039820D01*
X144875500Y-106724500D01*
X144889852Y-106689852D01*
X144924500Y-106675500D01*
X145239820Y-106675500D01*
X145283722Y-106666767D01*
X145297778Y-106657374D01*
X145334559Y-106650058D01*
X145352219Y-106657373D01*
X145366278Y-106666767D01*
X145410180Y-106675500D01*
X145739820Y-106675500D01*
X145783722Y-106666767D01*
X145797778Y-106657374D01*
X145834559Y-106650058D01*
X145852219Y-106657373D01*
X145866278Y-106666767D01*
X145910180Y-106675500D01*
X146239820Y-106675500D01*
X146283722Y-106666767D01*
X146297778Y-106657374D01*
X146334559Y-106650058D01*
X146352219Y-106657373D01*
X146366278Y-106666767D01*
X146410180Y-106675500D01*
X146739820Y-106675500D01*
X146783722Y-106666767D01*
X146797778Y-106657374D01*
X146834559Y-106650058D01*
X146852219Y-106657373D01*
X146866278Y-106666767D01*
X146910180Y-106675500D01*
X147239820Y-106675500D01*
X147283722Y-106666767D01*
X147297778Y-106657374D01*
X147334559Y-106650058D01*
X147352219Y-106657373D01*
X147366278Y-106666767D01*
X147410180Y-106675500D01*
X147739820Y-106675500D01*
X147783722Y-106666767D01*
X147797778Y-106657374D01*
X147834559Y-106650058D01*
X147852219Y-106657373D01*
X147866278Y-106666767D01*
X147910180Y-106675500D01*
X148239820Y-106675500D01*
X148283722Y-106666767D01*
X148297778Y-106657374D01*
X148334559Y-106650058D01*
X148352219Y-106657373D01*
G37*
%TD.AperFunction*%
%TA.AperFunction,Conductor*%
G36*
X133034148Y-106317906D02*
G01*
X133050857Y-106334615D01*
X133050858Y-106334615D01*
X133050859Y-106334616D01*
X133059488Y-106338426D01*
X133148499Y-106377729D01*
X133148505Y-106377731D01*
X133172359Y-106380498D01*
X133172360Y-106380498D01*
X133172377Y-106380500D01*
X133445942Y-106380499D01*
X133480590Y-106394851D01*
X133874383Y-106788644D01*
X133887215Y-106813823D01*
X133887235Y-106813817D01*
X133887275Y-106813940D01*
X133888131Y-106815620D01*
X133888426Y-106817484D01*
X133942422Y-106923458D01*
X133942427Y-106923465D01*
X134026534Y-107007572D01*
X134026541Y-107007577D01*
X134089823Y-107039820D01*
X134132518Y-107061574D01*
X134250000Y-107080181D01*
X134367482Y-107061574D01*
X134444026Y-107022573D01*
X134473458Y-107007577D01*
X134473460Y-107007575D01*
X134473465Y-107007573D01*
X134516186Y-106964852D01*
X134550834Y-106950500D01*
X135581307Y-106950500D01*
X135615955Y-106964852D01*
X135630307Y-106999500D01*
X135622049Y-107026722D01*
X135586858Y-107079389D01*
X135583201Y-107097777D01*
X135574500Y-107141520D01*
X135574500Y-107141523D01*
X135574500Y-107450942D01*
X135560148Y-107485590D01*
X135512637Y-107533101D01*
X135474500Y-107625170D01*
X135474500Y-107974407D01*
X135460148Y-108009055D01*
X135392668Y-108076534D01*
X135392663Y-108076541D01*
X135338668Y-108182515D01*
X135338667Y-108182516D01*
X135338667Y-108182518D01*
X135320060Y-108300000D01*
X135338667Y-108417482D01*
X135338667Y-108417483D01*
X135338668Y-108417484D01*
X135392663Y-108523458D01*
X135392668Y-108523465D01*
X135460055Y-108590852D01*
X135474407Y-108625500D01*
X135460055Y-108660148D01*
X135425407Y-108674500D01*
X135280252Y-108674500D01*
X135230693Y-108684358D01*
X135221769Y-108686133D01*
X135155447Y-108730447D01*
X135113599Y-108793078D01*
X135111133Y-108796769D01*
X135099500Y-108855252D01*
X135099500Y-109094748D01*
X135111133Y-109153231D01*
X135125345Y-109174500D01*
X135155447Y-109219552D01*
X135181195Y-109236756D01*
X135202030Y-109267939D01*
X135194714Y-109304721D01*
X135163531Y-109325556D01*
X135161645Y-109325893D01*
X135082518Y-109338426D01*
X135082516Y-109338426D01*
X135082514Y-109338427D01*
X134976541Y-109392422D01*
X134976534Y-109392427D01*
X134892427Y-109476534D01*
X134892422Y-109476541D01*
X134838427Y-109582515D01*
X134838426Y-109582516D01*
X134838426Y-109582518D01*
X134827386Y-109652223D01*
X134819819Y-109700001D01*
X134819819Y-109700693D01*
X134819641Y-109701120D01*
X134819216Y-109703809D01*
X134818570Y-109703706D01*
X134805467Y-109735341D01*
X134770819Y-109749693D01*
X134736171Y-109735341D01*
X134687017Y-109686187D01*
X134593340Y-109644824D01*
X134567441Y-109617700D01*
X134568307Y-109580207D01*
X134593338Y-109555175D01*
X134687016Y-109513813D01*
X134763813Y-109437016D01*
X134807682Y-109337662D01*
X134807682Y-109337660D01*
X134807683Y-109337658D01*
X134810498Y-109313390D01*
X134810497Y-109313390D01*
X134810500Y-109313373D01*
X134810499Y-108946628D01*
X134807682Y-108922338D01*
X134763813Y-108822984D01*
X134763812Y-108822983D01*
X134763812Y-108822982D01*
X134687017Y-108746187D01*
X134687018Y-108746187D01*
X134587664Y-108702318D01*
X134587658Y-108702316D01*
X134563390Y-108699501D01*
X134563375Y-108699500D01*
X134563373Y-108699500D01*
X134563370Y-108699500D01*
X134136632Y-108699500D01*
X134136625Y-108699501D01*
X134112336Y-108702318D01*
X134012982Y-108746187D01*
X133936187Y-108822982D01*
X133892318Y-108922335D01*
X133892316Y-108922341D01*
X133889501Y-108946609D01*
X133889500Y-108946629D01*
X133889500Y-109286592D01*
X133875148Y-109321240D01*
X133780419Y-109415968D01*
X133745771Y-109430320D01*
X133711123Y-109415968D01*
X133705035Y-109408551D01*
X133684100Y-109377220D01*
X133676784Y-109340441D01*
X133684099Y-109322780D01*
X133713867Y-109278231D01*
X133725500Y-109219748D01*
X133725500Y-109080252D01*
X133713867Y-109021769D01*
X133684100Y-108977221D01*
X133676784Y-108940441D01*
X133684099Y-108922780D01*
X133713867Y-108878231D01*
X133725500Y-108819748D01*
X133725500Y-108680252D01*
X133713867Y-108621769D01*
X133684100Y-108577221D01*
X133676784Y-108540441D01*
X133684099Y-108522780D01*
X133713867Y-108478231D01*
X133725500Y-108419748D01*
X133725500Y-108280252D01*
X133713867Y-108221769D01*
X133684100Y-108177221D01*
X133676784Y-108140441D01*
X133684099Y-108122780D01*
X133713867Y-108078231D01*
X133725500Y-108019748D01*
X133725500Y-107880252D01*
X133713867Y-107821769D01*
X133683646Y-107776541D01*
X133669552Y-107755447D01*
X133624732Y-107725500D01*
X133603231Y-107711133D01*
X133544748Y-107699500D01*
X133147149Y-107699500D01*
X133112501Y-107685148D01*
X133098149Y-107650500D01*
X133112501Y-107615852D01*
X133120489Y-107610047D01*
X133120341Y-107609843D01*
X133123460Y-107607575D01*
X133123465Y-107607573D01*
X133207573Y-107523465D01*
X133261574Y-107417482D01*
X133280181Y-107300000D01*
X133261574Y-107182518D01*
X133240686Y-107141523D01*
X133207577Y-107076541D01*
X133207572Y-107076534D01*
X133123465Y-106992427D01*
X133123458Y-106992422D01*
X133017485Y-106938427D01*
X133017483Y-106938426D01*
X133017482Y-106938426D01*
X132991833Y-106934363D01*
X132959858Y-106914768D01*
X132950500Y-106885967D01*
X132950500Y-106352554D01*
X132964852Y-106317906D01*
X132999500Y-106303554D01*
X133034148Y-106317906D01*
G37*
%TD.AperFunction*%
%TD*%
M02*
