%TF.GenerationSoftware,KiCad,Pcbnew,8.0.4*%
%TF.CreationDate,2024-10-06T23:59:02+02:00*%
%TF.ProjectId,elrs-sim,656c7273-2d73-4696-9d2e-6b696361645f,rev?*%
%TF.SameCoordinates,Original*%
%TF.FileFunction,Legend,Bot*%
%TF.FilePolarity,Positive*%
%FSLAX46Y46*%
G04 Gerber Fmt 4.6, Leading zero omitted, Abs format (unit mm)*
G04 Created by KiCad (PCBNEW 8.0.4) date 2024-10-06 23:59:02*
%MOMM*%
%LPD*%
G01*
G04 APERTURE LIST*
G04 Aperture macros list*
%AMRoundRect*
0 Rectangle with rounded corners*
0 $1 Rounding radius*
0 $2 $3 $4 $5 $6 $7 $8 $9 X,Y pos of 4 corners*
0 Add a 4 corners polygon primitive as box body*
4,1,4,$2,$3,$4,$5,$6,$7,$8,$9,$2,$3,0*
0 Add four circle primitives for the rounded corners*
1,1,$1+$1,$2,$3*
1,1,$1+$1,$4,$5*
1,1,$1+$1,$6,$7*
1,1,$1+$1,$8,$9*
0 Add four rect primitives between the rounded corners*
20,1,$1+$1,$2,$3,$4,$5,0*
20,1,$1+$1,$4,$5,$6,$7,0*
20,1,$1+$1,$6,$7,$8,$9,0*
20,1,$1+$1,$8,$9,$2,$3,0*%
G04 Aperture macros list end*
%ADD10C,0.000000*%
%ADD11C,0.150000*%
%ADD12C,0.250000*%
%ADD13C,0.200000*%
%ADD14R,1.700000X1.700000*%
%ADD15O,1.700000X1.700000*%
%ADD16RoundRect,0.500000X-3.500000X0.500000X-3.500000X-0.500000X3.500000X-0.500000X3.500000X0.500000X0*%
%ADD17RoundRect,0.500000X-3.000000X0.250000X-3.000000X-0.250000X3.000000X-0.250000X3.000000X0.250000X0*%
%ADD18RoundRect,0.387500X-0.387500X0.387500X-0.387500X-0.387500X0.387500X-0.387500X0.387500X0.387500X0*%
G04 APERTURE END LIST*
D10*
G36*
X160477349Y-107275712D02*
G01*
X160506443Y-107278100D01*
X160535591Y-107282476D01*
X160564712Y-107288886D01*
X160593725Y-107297377D01*
X160622546Y-107307998D01*
X160651093Y-107320795D01*
X160679285Y-107335815D01*
X162321170Y-108283224D01*
X162348282Y-108300114D01*
X162373645Y-108318425D01*
X162397258Y-108338059D01*
X162419123Y-108358924D01*
X162439239Y-108380923D01*
X162457605Y-108403964D01*
X162474222Y-108427951D01*
X162489090Y-108452789D01*
X162502208Y-108478384D01*
X162513578Y-108504642D01*
X162523198Y-108531467D01*
X162531069Y-108558766D01*
X162537192Y-108586442D01*
X162541564Y-108614403D01*
X162544189Y-108642552D01*
X162545063Y-108670797D01*
X162544188Y-108699042D01*
X162541564Y-108727191D01*
X162537191Y-108755152D01*
X162531069Y-108782829D01*
X162523198Y-108810127D01*
X162513578Y-108836952D01*
X162502208Y-108863210D01*
X162489089Y-108888805D01*
X162474221Y-108913643D01*
X162457604Y-108937630D01*
X162439238Y-108960670D01*
X162419122Y-108982670D01*
X162397257Y-109003534D01*
X162373643Y-109023169D01*
X162348280Y-109041479D01*
X162321168Y-109058369D01*
X160679285Y-110005778D01*
X160651093Y-110020798D01*
X160639821Y-110025851D01*
X160622546Y-110033595D01*
X160593725Y-110044216D01*
X160564712Y-110052707D01*
X160535591Y-110059117D01*
X160506443Y-110063493D01*
X160477349Y-110065882D01*
X160448392Y-110066331D01*
X160419653Y-110064887D01*
X160391216Y-110061599D01*
X160363160Y-110056512D01*
X160335570Y-110049675D01*
X160308527Y-110041135D01*
X160282112Y-110030939D01*
X160256407Y-110019135D01*
X160231495Y-110005770D01*
X160207457Y-109990890D01*
X160184377Y-109974543D01*
X160162335Y-109956778D01*
X160141414Y-109937641D01*
X160121695Y-109917179D01*
X160103260Y-109895439D01*
X160086192Y-109872470D01*
X160070573Y-109848317D01*
X160056484Y-109823029D01*
X160044008Y-109796654D01*
X160033226Y-109769237D01*
X160024220Y-109740827D01*
X160017073Y-109711470D01*
X160011867Y-109681214D01*
X160008683Y-109650108D01*
X160007603Y-109618196D01*
X160007603Y-108160585D01*
X160515095Y-108160585D01*
X160515095Y-109181008D01*
X160515401Y-109190045D01*
X160516301Y-109198856D01*
X160517774Y-109207425D01*
X160519795Y-109215741D01*
X160522342Y-109223789D01*
X160525391Y-109231556D01*
X160528920Y-109239028D01*
X160532906Y-109246193D01*
X160537325Y-109253038D01*
X160542152Y-109259546D01*
X160547368Y-109265708D01*
X160552946Y-109271508D01*
X160558865Y-109276934D01*
X160565101Y-109281972D01*
X160571632Y-109286608D01*
X160578433Y-109290829D01*
X160585483Y-109294621D01*
X160592756Y-109297972D01*
X160600232Y-109300868D01*
X160607885Y-109303295D01*
X160615695Y-109305241D01*
X160623635Y-109306692D01*
X160631685Y-109307633D01*
X160639821Y-109308053D01*
X160648019Y-109307937D01*
X160656257Y-109307273D01*
X160664511Y-109306045D01*
X160672758Y-109304242D01*
X160680975Y-109301851D01*
X160689139Y-109298857D01*
X160697227Y-109295246D01*
X160705215Y-109291007D01*
X161592543Y-108780788D01*
X161600248Y-108776003D01*
X161607456Y-108770814D01*
X161614167Y-108765248D01*
X161620381Y-108759331D01*
X161626098Y-108753090D01*
X161631318Y-108746553D01*
X161636040Y-108739745D01*
X161640266Y-108732695D01*
X161643993Y-108725431D01*
X161647225Y-108717976D01*
X161649959Y-108710360D01*
X161652196Y-108702609D01*
X161653936Y-108694751D01*
X161655179Y-108686811D01*
X161655925Y-108678818D01*
X161656173Y-108670797D01*
X161655925Y-108662776D01*
X161655179Y-108654783D01*
X161653936Y-108646844D01*
X161652196Y-108638985D01*
X161649959Y-108631234D01*
X161647225Y-108623618D01*
X161643993Y-108616164D01*
X161640266Y-108608899D01*
X161636040Y-108601849D01*
X161631318Y-108595041D01*
X161626098Y-108588505D01*
X161620381Y-108582264D01*
X161614167Y-108576347D01*
X161607456Y-108570780D01*
X161600248Y-108565591D01*
X161592543Y-108560806D01*
X160705215Y-108050586D01*
X160697227Y-108046346D01*
X160689139Y-108042737D01*
X160680975Y-108039742D01*
X160672758Y-108037351D01*
X160664511Y-108035548D01*
X160656257Y-108034321D01*
X160648019Y-108033656D01*
X160639821Y-108033540D01*
X160631685Y-108033960D01*
X160623635Y-108034901D01*
X160615695Y-108036352D01*
X160607885Y-108038298D01*
X160600232Y-108040725D01*
X160592756Y-108043621D01*
X160585483Y-108046972D01*
X160578433Y-108050765D01*
X160571632Y-108054986D01*
X160565101Y-108059621D01*
X160558865Y-108064659D01*
X160552946Y-108070085D01*
X160547368Y-108075885D01*
X160542152Y-108082047D01*
X160537325Y-108088556D01*
X160532906Y-108095400D01*
X160528920Y-108102565D01*
X160525391Y-108110038D01*
X160522342Y-108117805D01*
X160519795Y-108125852D01*
X160517774Y-108134168D01*
X160516301Y-108142737D01*
X160515401Y-108151547D01*
X160515095Y-108160585D01*
X160007603Y-108160585D01*
X160007603Y-107723398D01*
X160008683Y-107691486D01*
X160011867Y-107660379D01*
X160017073Y-107630123D01*
X160024220Y-107600767D01*
X160033226Y-107572357D01*
X160044008Y-107544940D01*
X160056484Y-107518564D01*
X160070573Y-107493276D01*
X160086192Y-107469123D01*
X160103260Y-107446154D01*
X160121695Y-107424414D01*
X160141414Y-107403953D01*
X160162335Y-107384815D01*
X160184377Y-107367049D01*
X160207457Y-107350703D01*
X160231495Y-107335823D01*
X160256407Y-107322458D01*
X160282112Y-107310653D01*
X160308527Y-107300457D01*
X160335570Y-107291918D01*
X160363160Y-107285081D01*
X160391216Y-107279995D01*
X160419653Y-107276706D01*
X160448392Y-107275262D01*
X160477349Y-107275712D01*
G37*
G36*
X162219554Y-109655132D02*
G01*
X162239831Y-109657471D01*
X162259836Y-109661091D01*
X162279509Y-109665961D01*
X162298795Y-109672047D01*
X162317631Y-109679315D01*
X162335961Y-109687730D01*
X162353726Y-109697260D01*
X162370868Y-109707871D01*
X162387329Y-109719527D01*
X162403048Y-109732197D01*
X162417968Y-109745846D01*
X162432032Y-109760441D01*
X162445179Y-109775948D01*
X162457351Y-109792331D01*
X162468491Y-109809560D01*
X162478540Y-109827599D01*
X162487438Y-109846414D01*
X162495128Y-109865973D01*
X162501551Y-109886240D01*
X162506649Y-109907183D01*
X162510362Y-109928768D01*
X162512633Y-109950960D01*
X162513403Y-109973726D01*
X162512693Y-109995031D01*
X162510587Y-110016073D01*
X162507119Y-110036794D01*
X162502320Y-110057136D01*
X162496227Y-110077042D01*
X162488871Y-110096451D01*
X162480289Y-110115306D01*
X162470512Y-110133548D01*
X162459575Y-110151120D01*
X162447512Y-110167961D01*
X162434355Y-110184016D01*
X162420140Y-110199223D01*
X162404899Y-110213526D01*
X162388668Y-110226865D01*
X162371479Y-110239183D01*
X162353365Y-110250420D01*
X161517364Y-110731301D01*
X161490404Y-110748048D01*
X161465182Y-110766210D01*
X161441700Y-110785693D01*
X161419958Y-110806402D01*
X161399955Y-110828242D01*
X161381691Y-110851121D01*
X161365167Y-110874942D01*
X161350382Y-110899613D01*
X161337336Y-110925037D01*
X161326031Y-110951123D01*
X161316464Y-110977774D01*
X161308636Y-111004897D01*
X161302549Y-111032397D01*
X161298200Y-111060180D01*
X161295591Y-111088152D01*
X161294721Y-111116218D01*
X161295591Y-111144284D01*
X161298200Y-111172255D01*
X161302548Y-111200038D01*
X161308636Y-111227539D01*
X161316464Y-111254662D01*
X161326030Y-111281313D01*
X161337336Y-111307398D01*
X161350381Y-111332823D01*
X161365166Y-111357493D01*
X161381690Y-111381315D01*
X161399954Y-111404193D01*
X161419957Y-111426034D01*
X161441699Y-111446743D01*
X161465181Y-111466225D01*
X161490402Y-111484387D01*
X161517362Y-111501134D01*
X162357333Y-111984298D01*
X162366276Y-111989642D01*
X162374998Y-111995258D01*
X162383494Y-112001135D01*
X162391760Y-112007270D01*
X162399794Y-112013654D01*
X162407589Y-112020278D01*
X162415144Y-112027139D01*
X162422452Y-112034227D01*
X162429511Y-112041535D01*
X162436315Y-112049057D01*
X162442861Y-112056785D01*
X162449145Y-112064712D01*
X162455162Y-112072832D01*
X162460909Y-112081136D01*
X162466382Y-112089619D01*
X162471575Y-112098272D01*
X162476486Y-112107089D01*
X162481109Y-112116062D01*
X162485442Y-112125184D01*
X162489479Y-112134449D01*
X162493218Y-112143848D01*
X162496652Y-112153377D01*
X162499779Y-112163025D01*
X162502595Y-112172787D01*
X162505094Y-112182656D01*
X162507274Y-112192625D01*
X162509129Y-112202686D01*
X162510657Y-112212832D01*
X162511853Y-112223056D01*
X162512711Y-112233351D01*
X162513230Y-112243710D01*
X162513403Y-112254125D01*
X162512652Y-112276328D01*
X162510438Y-112297971D01*
X162506816Y-112319021D01*
X162501845Y-112339445D01*
X162495581Y-112359209D01*
X162488082Y-112378283D01*
X162479405Y-112396632D01*
X162469606Y-112414225D01*
X162458742Y-112431026D01*
X162446871Y-112447004D01*
X162434049Y-112462126D01*
X162420335Y-112476359D01*
X162405785Y-112489670D01*
X162390455Y-112502025D01*
X162374404Y-112513394D01*
X162357686Y-112523741D01*
X162340362Y-112533035D01*
X162322486Y-112541241D01*
X162304116Y-112548328D01*
X162285310Y-112554263D01*
X162266124Y-112559012D01*
X162246615Y-112562544D01*
X162226841Y-112564823D01*
X162206858Y-112565819D01*
X162186723Y-112565498D01*
X162166495Y-112563826D01*
X162146228Y-112560772D01*
X162125981Y-112556301D01*
X162105811Y-112550383D01*
X162085775Y-112542982D01*
X162065929Y-112534067D01*
X162046331Y-112523604D01*
X160261064Y-111491508D01*
X160234205Y-111474744D01*
X160209078Y-111456575D01*
X160185685Y-111437094D01*
X160164024Y-111416394D01*
X160144097Y-111394569D01*
X160125901Y-111371713D01*
X160109439Y-111347920D01*
X160094710Y-111323283D01*
X160081713Y-111297896D01*
X160070450Y-111271854D01*
X160060919Y-111245249D01*
X160053121Y-111218175D01*
X160047056Y-111190727D01*
X160042724Y-111162997D01*
X160040125Y-111135080D01*
X160039258Y-111107069D01*
X160040125Y-111079058D01*
X160042724Y-111051141D01*
X160047056Y-111023411D01*
X160053121Y-110995963D01*
X160060919Y-110968890D01*
X160070450Y-110942285D01*
X160081713Y-110916244D01*
X160094710Y-110890858D01*
X160109439Y-110866222D01*
X160125901Y-110842430D01*
X160144097Y-110819575D01*
X160164024Y-110797751D01*
X160185685Y-110777052D01*
X160209078Y-110757571D01*
X160234205Y-110739404D01*
X160261064Y-110722641D01*
X162034455Y-109697397D01*
X162054550Y-109686668D01*
X162074901Y-109677527D01*
X162095447Y-109669938D01*
X162116130Y-109663870D01*
X162136891Y-109659286D01*
X162157673Y-109656154D01*
X162178416Y-109654440D01*
X162199063Y-109654111D01*
X162219554Y-109655132D01*
G37*
G36*
X160365942Y-112058747D02*
G01*
X160386172Y-112060418D01*
X160406439Y-112063473D01*
X160426687Y-112067943D01*
X160446858Y-112073862D01*
X160466895Y-112081262D01*
X160486742Y-112090178D01*
X160506341Y-112100641D01*
X162291599Y-113132737D01*
X162318458Y-113149500D01*
X162343584Y-113167670D01*
X162366978Y-113187151D01*
X162388638Y-113207851D01*
X162408566Y-113229676D01*
X162426761Y-113252531D01*
X162443223Y-113276325D01*
X162457952Y-113300961D01*
X162470948Y-113326348D01*
X162482212Y-113352390D01*
X162491743Y-113378995D01*
X162499541Y-113406069D01*
X162505606Y-113433517D01*
X162509937Y-113461247D01*
X162512537Y-113489164D01*
X162513403Y-113517175D01*
X162512537Y-113545185D01*
X162509937Y-113573102D01*
X162505606Y-113600832D01*
X162499541Y-113628281D01*
X162491743Y-113655353D01*
X162482212Y-113681958D01*
X162470948Y-113708001D01*
X162457952Y-113733387D01*
X162443223Y-113758024D01*
X162426761Y-113781817D01*
X162408566Y-113804672D01*
X162388638Y-113826497D01*
X162366978Y-113847197D01*
X162343584Y-113866678D01*
X162318458Y-113884846D01*
X162291599Y-113901610D01*
X160518204Y-114926850D01*
X160498109Y-114937578D01*
X160477760Y-114946720D01*
X160457215Y-114954309D01*
X160436533Y-114960379D01*
X160415771Y-114964962D01*
X160394990Y-114968094D01*
X160374247Y-114969808D01*
X160353601Y-114970137D01*
X160333111Y-114969117D01*
X160312834Y-114966779D01*
X160292829Y-114963158D01*
X160273155Y-114958288D01*
X160253870Y-114952202D01*
X160235033Y-114944935D01*
X160216703Y-114936519D01*
X160198938Y-114926990D01*
X160181796Y-114916379D01*
X160165336Y-114904722D01*
X160149616Y-114892052D01*
X160134695Y-114878402D01*
X160120632Y-114863808D01*
X160107485Y-114848301D01*
X160095311Y-114831916D01*
X160084171Y-114814688D01*
X160074122Y-114796648D01*
X160065224Y-114777832D01*
X160057534Y-114758273D01*
X160051110Y-114738004D01*
X160046013Y-114717061D01*
X160042299Y-114695475D01*
X160040029Y-114673281D01*
X160039258Y-114650514D01*
X160039968Y-114629209D01*
X160042074Y-114608168D01*
X160045544Y-114587447D01*
X160050343Y-114567105D01*
X160056437Y-114547200D01*
X160063793Y-114527793D01*
X160072376Y-114508939D01*
X160082153Y-114490697D01*
X160093091Y-114473127D01*
X160105154Y-114456286D01*
X160118311Y-114440234D01*
X160132525Y-114425027D01*
X160147764Y-114410725D01*
X160163995Y-114397386D01*
X160181182Y-114385069D01*
X160199293Y-114373831D01*
X161035306Y-113892945D01*
X161062267Y-113876198D01*
X161087487Y-113858036D01*
X161110969Y-113838553D01*
X161132711Y-113817844D01*
X161152714Y-113796004D01*
X161170977Y-113773125D01*
X161187501Y-113749304D01*
X161202286Y-113724633D01*
X161215331Y-113699208D01*
X161226636Y-113673122D01*
X161236203Y-113646471D01*
X161244031Y-113619348D01*
X161250118Y-113591848D01*
X161254467Y-113564065D01*
X161257076Y-113536093D01*
X161257946Y-113508027D01*
X161257076Y-113479961D01*
X161254467Y-113451989D01*
X161250118Y-113424206D01*
X161244031Y-113396706D01*
X161236203Y-113369583D01*
X161226637Y-113342932D01*
X161215331Y-113316846D01*
X161202286Y-113291421D01*
X161187502Y-113266751D01*
X161170978Y-113242929D01*
X161152714Y-113220051D01*
X161132711Y-113198211D01*
X161110969Y-113177502D01*
X161087487Y-113158020D01*
X161062267Y-113139858D01*
X161035306Y-113123111D01*
X160195328Y-112639946D01*
X160186386Y-112634602D01*
X160177664Y-112628987D01*
X160169168Y-112623109D01*
X160160901Y-112616975D01*
X160152868Y-112610592D01*
X160145072Y-112603966D01*
X160137518Y-112597106D01*
X160130210Y-112590018D01*
X160123152Y-112582710D01*
X160116347Y-112575188D01*
X160109801Y-112567460D01*
X160103517Y-112559532D01*
X160097500Y-112551413D01*
X160091753Y-112543108D01*
X160086281Y-112534626D01*
X160081087Y-112525973D01*
X160076176Y-112517156D01*
X160071552Y-112508183D01*
X160067219Y-112499060D01*
X160063182Y-112489796D01*
X160059444Y-112480396D01*
X160056009Y-112470869D01*
X160052882Y-112461220D01*
X160050067Y-112451458D01*
X160047567Y-112441588D01*
X160045387Y-112431620D01*
X160043532Y-112421560D01*
X160042004Y-112411413D01*
X160040809Y-112401189D01*
X160039950Y-112390894D01*
X160039432Y-112380535D01*
X160039258Y-112370119D01*
X160040010Y-112347917D01*
X160042224Y-112326275D01*
X160045845Y-112305225D01*
X160050816Y-112284801D01*
X160057080Y-112265035D01*
X160064579Y-112245962D01*
X160073257Y-112227612D01*
X160083056Y-112210021D01*
X160093920Y-112193220D01*
X160105790Y-112177241D01*
X160118611Y-112162119D01*
X160132326Y-112147886D01*
X160146877Y-112134576D01*
X160162206Y-112122220D01*
X160178258Y-112110852D01*
X160194975Y-112100504D01*
X160212300Y-112091211D01*
X160230176Y-112083004D01*
X160248546Y-112075916D01*
X160267352Y-112069982D01*
X160286539Y-112065233D01*
X160306048Y-112061701D01*
X160325824Y-112059421D01*
X160345807Y-112058426D01*
X160365942Y-112058747D01*
G37*
G36*
X162428471Y-105279347D02*
G01*
X162436521Y-105280287D01*
X162444461Y-105281737D01*
X162452271Y-105283682D01*
X162459924Y-105286109D01*
X162467400Y-105289005D01*
X162474674Y-105292355D01*
X162481723Y-105296148D01*
X162488525Y-105300369D01*
X162495055Y-105305004D01*
X162501292Y-105310041D01*
X162507211Y-105315467D01*
X162512789Y-105321267D01*
X162518005Y-105327428D01*
X162522833Y-105333937D01*
X162527252Y-105340782D01*
X162531237Y-105347947D01*
X162534766Y-105355418D01*
X162537816Y-105363185D01*
X162540363Y-105371233D01*
X162542384Y-105379549D01*
X162543857Y-105388118D01*
X162544757Y-105396928D01*
X162545063Y-105405966D01*
X162545063Y-106426391D01*
X162544757Y-106435429D01*
X162543857Y-106444240D01*
X162542384Y-106452811D01*
X162540363Y-106461128D01*
X162537816Y-106469177D01*
X162534766Y-106476944D01*
X162531237Y-106484417D01*
X162527252Y-106491582D01*
X162522833Y-106498427D01*
X162518005Y-106504935D01*
X162512789Y-106511098D01*
X162507211Y-106516897D01*
X162501292Y-106522322D01*
X162495055Y-106527360D01*
X162488525Y-106531996D01*
X162481723Y-106536217D01*
X162474674Y-106540008D01*
X162467400Y-106543359D01*
X162459924Y-106546254D01*
X162452271Y-106548682D01*
X162444461Y-106550627D01*
X162436521Y-106552076D01*
X162428471Y-106553018D01*
X162420336Y-106553437D01*
X162412138Y-106553320D01*
X162403900Y-106552655D01*
X162395646Y-106551428D01*
X162387401Y-106549625D01*
X162379184Y-106547233D01*
X162371021Y-106544238D01*
X162362934Y-106540628D01*
X162354947Y-106536389D01*
X161467614Y-106026169D01*
X161459909Y-106021384D01*
X161452701Y-106016195D01*
X161445990Y-106010628D01*
X161439776Y-106004712D01*
X161434059Y-105998471D01*
X161428840Y-105991934D01*
X161424117Y-105985127D01*
X161419892Y-105978077D01*
X161416164Y-105970811D01*
X161412932Y-105963357D01*
X161410199Y-105955741D01*
X161407961Y-105947990D01*
X161406221Y-105940131D01*
X161404979Y-105932192D01*
X161404232Y-105924199D01*
X161403984Y-105916178D01*
X161404232Y-105908158D01*
X161404979Y-105900164D01*
X161406221Y-105892224D01*
X161407961Y-105884366D01*
X161410199Y-105876616D01*
X161412932Y-105868999D01*
X161416164Y-105861545D01*
X161419892Y-105854279D01*
X161424117Y-105847230D01*
X161428840Y-105840423D01*
X161434059Y-105833885D01*
X161439776Y-105827645D01*
X161445990Y-105821727D01*
X161452701Y-105816161D01*
X161459909Y-105810972D01*
X161467614Y-105806187D01*
X162354947Y-105295983D01*
X162362934Y-105291743D01*
X162371021Y-105288131D01*
X162379184Y-105285136D01*
X162387401Y-105282743D01*
X162395646Y-105280939D01*
X162403900Y-105279710D01*
X162412138Y-105279044D01*
X162420336Y-105278928D01*
X162428471Y-105279347D01*
G37*
G36*
X160477349Y-102930312D02*
G01*
X160506443Y-102932700D01*
X160535591Y-102937076D01*
X160564712Y-102943486D01*
X160593725Y-102951977D01*
X160622546Y-102962598D01*
X160651093Y-102975395D01*
X160679285Y-102990416D01*
X162321170Y-103937823D01*
X162348282Y-103954713D01*
X162373645Y-103973024D01*
X162397258Y-103992658D01*
X162419123Y-104013523D01*
X162439239Y-104035523D01*
X162457605Y-104058563D01*
X162474222Y-104082550D01*
X162489090Y-104107388D01*
X162502208Y-104132984D01*
X162513578Y-104159242D01*
X162523198Y-104186066D01*
X162531069Y-104213365D01*
X162537192Y-104241042D01*
X162541564Y-104269002D01*
X162544189Y-104297153D01*
X162545063Y-104325397D01*
X162544188Y-104353641D01*
X162541564Y-104381791D01*
X162537191Y-104409752D01*
X162531069Y-104437428D01*
X162523198Y-104464727D01*
X162513578Y-104491553D01*
X162502208Y-104517810D01*
X162489089Y-104543405D01*
X162474221Y-104568243D01*
X162457604Y-104592230D01*
X162439238Y-104615271D01*
X162419122Y-104637271D01*
X162397257Y-104658135D01*
X162373643Y-104677770D01*
X162348280Y-104696079D01*
X162321168Y-104712971D01*
X161223101Y-105346574D01*
X161204032Y-105356734D01*
X161184723Y-105365390D01*
X161165229Y-105372573D01*
X161145608Y-105378316D01*
X161125911Y-105382651D01*
X161106197Y-105385609D01*
X161086520Y-105387222D01*
X161066936Y-105387522D01*
X161047499Y-105386543D01*
X161028267Y-105384315D01*
X161009294Y-105380870D01*
X160990634Y-105376241D01*
X160972344Y-105370459D01*
X160954480Y-105363557D01*
X160937096Y-105355567D01*
X160920249Y-105346520D01*
X160903994Y-105336449D01*
X160888385Y-105325386D01*
X160873478Y-105313362D01*
X160859330Y-105300410D01*
X160845995Y-105286562D01*
X160833529Y-105271850D01*
X160821986Y-105256305D01*
X160811424Y-105239960D01*
X160801897Y-105222847D01*
X160793459Y-105204997D01*
X160786168Y-105186443D01*
X160780079Y-105167218D01*
X160775246Y-105147352D01*
X160771725Y-105126878D01*
X160769571Y-105105828D01*
X160768841Y-105084233D01*
X160769011Y-105074096D01*
X160769516Y-105064015D01*
X160770351Y-105053995D01*
X160771514Y-105044045D01*
X160773001Y-105034172D01*
X160774808Y-105024380D01*
X160776929Y-105014679D01*
X160779362Y-105005075D01*
X160782102Y-104995575D01*
X160785146Y-104986185D01*
X160788488Y-104976914D01*
X160792127Y-104967767D01*
X160796057Y-104958752D01*
X160800274Y-104949875D01*
X160804774Y-104941143D01*
X160809554Y-104932563D01*
X160814609Y-104924144D01*
X160819935Y-104915890D01*
X160825529Y-104907809D01*
X160831385Y-104899909D01*
X160837502Y-104892195D01*
X160843873Y-104884675D01*
X160850495Y-104877356D01*
X160857365Y-104870246D01*
X160864477Y-104863349D01*
X160871829Y-104856674D01*
X160879416Y-104850229D01*
X160887235Y-104844018D01*
X160895281Y-104838049D01*
X160903549Y-104832330D01*
X160912037Y-104826867D01*
X160920740Y-104821668D01*
X161592543Y-104435388D01*
X161600248Y-104430604D01*
X161607456Y-104425414D01*
X161614167Y-104419848D01*
X161620381Y-104413931D01*
X161626098Y-104407691D01*
X161631318Y-104401153D01*
X161636040Y-104394345D01*
X161640266Y-104387296D01*
X161643993Y-104380031D01*
X161647225Y-104372576D01*
X161649959Y-104364960D01*
X161652196Y-104357210D01*
X161653936Y-104349351D01*
X161655179Y-104341412D01*
X161655925Y-104333418D01*
X161656173Y-104325397D01*
X161655925Y-104317377D01*
X161655179Y-104309384D01*
X161653936Y-104301444D01*
X161652196Y-104293585D01*
X161649959Y-104285834D01*
X161647225Y-104278218D01*
X161643993Y-104270765D01*
X161640266Y-104263499D01*
X161636040Y-104256449D01*
X161631318Y-104249642D01*
X161626098Y-104243105D01*
X161620381Y-104236864D01*
X161614167Y-104230947D01*
X161607456Y-104225380D01*
X161600248Y-104220192D01*
X161592543Y-104215406D01*
X160705215Y-103705187D01*
X160697227Y-103700948D01*
X160689139Y-103697338D01*
X160680975Y-103694343D01*
X160672758Y-103691951D01*
X160664511Y-103690148D01*
X160656257Y-103688922D01*
X160648019Y-103688257D01*
X160639821Y-103688141D01*
X160631685Y-103688560D01*
X160623635Y-103689502D01*
X160615695Y-103690952D01*
X160607885Y-103692898D01*
X160600232Y-103695325D01*
X160592756Y-103698221D01*
X160585483Y-103701572D01*
X160578433Y-103705365D01*
X160571632Y-103709586D01*
X160565101Y-103714222D01*
X160558865Y-103719260D01*
X160552946Y-103724685D01*
X160547368Y-103730486D01*
X160542152Y-103736647D01*
X160537325Y-103743156D01*
X160532906Y-103750000D01*
X160528920Y-103757165D01*
X160525391Y-103764638D01*
X160522342Y-103772405D01*
X160519795Y-103780453D01*
X160517774Y-103788768D01*
X160516301Y-103797338D01*
X160515401Y-103806148D01*
X160515095Y-103815185D01*
X160515095Y-104561992D01*
X160514765Y-104575050D01*
X160513786Y-104587937D01*
X160512172Y-104600636D01*
X160509940Y-104613133D01*
X160507107Y-104625409D01*
X160503688Y-104637451D01*
X160499699Y-104649241D01*
X160495156Y-104660764D01*
X160490075Y-104672004D01*
X160484471Y-104682945D01*
X160478362Y-104693571D01*
X160471761Y-104703866D01*
X160464687Y-104713815D01*
X160457154Y-104723401D01*
X160449179Y-104732608D01*
X160440778Y-104741420D01*
X160431965Y-104749822D01*
X160422758Y-104757797D01*
X160413173Y-104765330D01*
X160403225Y-104772404D01*
X160392929Y-104779004D01*
X160382303Y-104785114D01*
X160371362Y-104790717D01*
X160360122Y-104795798D01*
X160348599Y-104800342D01*
X160336808Y-104804330D01*
X160324767Y-104807750D01*
X160312490Y-104810583D01*
X160299995Y-104812814D01*
X160287295Y-104814428D01*
X160274408Y-104815408D01*
X160261349Y-104815738D01*
X160248291Y-104815408D01*
X160235404Y-104814428D01*
X160222705Y-104812814D01*
X160210209Y-104810583D01*
X160197932Y-104807750D01*
X160185891Y-104804330D01*
X160174101Y-104800342D01*
X160162577Y-104795798D01*
X160151337Y-104790717D01*
X160140396Y-104785114D01*
X160129769Y-104779004D01*
X160119474Y-104772404D01*
X160109527Y-104765330D01*
X160099941Y-104757797D01*
X160090734Y-104749822D01*
X160081921Y-104741420D01*
X160073519Y-104732608D01*
X160065545Y-104723401D01*
X160058012Y-104713815D01*
X160050938Y-104703866D01*
X160044338Y-104693571D01*
X160038228Y-104682945D01*
X160032624Y-104672004D01*
X160027543Y-104660764D01*
X160023000Y-104649241D01*
X160019011Y-104637451D01*
X160015592Y-104625409D01*
X160012759Y-104613133D01*
X160010527Y-104600636D01*
X160008914Y-104587937D01*
X160007934Y-104575050D01*
X160007603Y-104561992D01*
X160007603Y-103377996D01*
X160008683Y-103346086D01*
X160011867Y-103314978D01*
X160017073Y-103284723D01*
X160024220Y-103255367D01*
X160033226Y-103226956D01*
X160044008Y-103199540D01*
X160056484Y-103173164D01*
X160070573Y-103147876D01*
X160086192Y-103123724D01*
X160103260Y-103100754D01*
X160121695Y-103079014D01*
X160141414Y-103058553D01*
X160162335Y-103039415D01*
X160184377Y-103021649D01*
X160207457Y-103005303D01*
X160231495Y-102990424D01*
X160256407Y-102977059D01*
X160282112Y-102965254D01*
X160308527Y-102955058D01*
X160335570Y-102946518D01*
X160363160Y-102939681D01*
X160391216Y-102934595D01*
X160419653Y-102931306D01*
X160448392Y-102929863D01*
X160477349Y-102930312D01*
G37*
D11*
X111500000Y-106500000D02*
X116500000Y-106500000D01*
X116500000Y-111500000D01*
X111500000Y-111500000D01*
X111500000Y-106500000D01*
G36*
X111500000Y-106500000D02*
G01*
X116500000Y-106500000D01*
X116500000Y-111500000D01*
X111500000Y-111500000D01*
X111500000Y-106500000D01*
G37*
D10*
G36*
X160274407Y-105071114D02*
G01*
X160287292Y-105072094D01*
X160299991Y-105073708D01*
X160312486Y-105075939D01*
X160324762Y-105078772D01*
X160336803Y-105082191D01*
X160348593Y-105086180D01*
X160360115Y-105090723D01*
X160371356Y-105095804D01*
X160382296Y-105101408D01*
X160392922Y-105107517D01*
X160403217Y-105114117D01*
X160413166Y-105121191D01*
X160422752Y-105128724D01*
X160431959Y-105136699D01*
X160440772Y-105145100D01*
X160449174Y-105153912D01*
X160457150Y-105163118D01*
X160464683Y-105172703D01*
X160471758Y-105182652D01*
X160478357Y-105192946D01*
X160484468Y-105203571D01*
X160490072Y-105214512D01*
X160495153Y-105225751D01*
X160499697Y-105237274D01*
X160503687Y-105249063D01*
X160507106Y-105261103D01*
X160509940Y-105273379D01*
X160512171Y-105285874D01*
X160513785Y-105298572D01*
X160514765Y-105311458D01*
X160515095Y-105324514D01*
X160515095Y-105850308D01*
X160515307Y-105863025D01*
X160515939Y-105875673D01*
X160516985Y-105888244D01*
X160518443Y-105900728D01*
X160520305Y-105913116D01*
X160522566Y-105925401D01*
X160525223Y-105937573D01*
X160528270Y-105949624D01*
X160531702Y-105961544D01*
X160535514Y-105973327D01*
X160539701Y-105984962D01*
X160544258Y-105996441D01*
X160549180Y-106007756D01*
X160554462Y-106018897D01*
X160560099Y-106029856D01*
X160566087Y-106040625D01*
X160572419Y-106051195D01*
X160579091Y-106061557D01*
X160586098Y-106071701D01*
X160593436Y-106081621D01*
X160601098Y-106091308D01*
X160609081Y-106100751D01*
X160617378Y-106109943D01*
X160625985Y-106118876D01*
X160634897Y-106127539D01*
X160644110Y-106135926D01*
X160653617Y-106144027D01*
X160663415Y-106151833D01*
X160673497Y-106159336D01*
X160683860Y-106166527D01*
X160694498Y-106173398D01*
X160705405Y-106179939D01*
X162393944Y-107154815D01*
X162411052Y-107165465D01*
X162427286Y-107177134D01*
X162442615Y-107189764D01*
X162457007Y-107203304D01*
X162470430Y-107217697D01*
X162482853Y-107232888D01*
X162494244Y-107248821D01*
X162504571Y-107265443D01*
X162513801Y-107282697D01*
X162521904Y-107300529D01*
X162528848Y-107318885D01*
X162534600Y-107337706D01*
X162539130Y-107356941D01*
X162542405Y-107376534D01*
X162544393Y-107396429D01*
X162545063Y-107416570D01*
X162544334Y-107438120D01*
X162542185Y-107459128D01*
X162538671Y-107479560D01*
X162533847Y-107499385D01*
X162527768Y-107518571D01*
X162520491Y-107537086D01*
X162512070Y-107554899D01*
X162502561Y-107571976D01*
X162492018Y-107588287D01*
X162480498Y-107603798D01*
X162468055Y-107618480D01*
X162454746Y-107632299D01*
X162440625Y-107645223D01*
X162425747Y-107657220D01*
X162410169Y-107668259D01*
X162393944Y-107678308D01*
X162377130Y-107687334D01*
X162359780Y-107695305D01*
X162341951Y-107702191D01*
X162323698Y-107707958D01*
X162305076Y-107712574D01*
X162286140Y-107716010D01*
X162266945Y-107718230D01*
X162247549Y-107719205D01*
X162228003Y-107718901D01*
X162208367Y-107717288D01*
X162188693Y-107714333D01*
X162169037Y-107710004D01*
X162149456Y-107704268D01*
X162130003Y-107697096D01*
X162110735Y-107688453D01*
X162091707Y-107678309D01*
X160197913Y-106584918D01*
X160176368Y-106571506D01*
X160155923Y-106556812D01*
X160136618Y-106540905D01*
X160118493Y-106523854D01*
X160101589Y-106505730D01*
X160085944Y-106486601D01*
X160071599Y-106466536D01*
X160058595Y-106445606D01*
X160046970Y-106423878D01*
X160036766Y-106401423D01*
X160028022Y-106378310D01*
X160020778Y-106354608D01*
X160015074Y-106330388D01*
X160010951Y-106305717D01*
X160008447Y-106280665D01*
X160007603Y-106255302D01*
X160007603Y-105324530D01*
X160007934Y-105311471D01*
X160008914Y-105298585D01*
X160010527Y-105285885D01*
X160012759Y-105273390D01*
X160015592Y-105261113D01*
X160019011Y-105249071D01*
X160023000Y-105237281D01*
X160027543Y-105225757D01*
X160032624Y-105214517D01*
X160038228Y-105203577D01*
X160044338Y-105192950D01*
X160050938Y-105182655D01*
X160058012Y-105172707D01*
X160065545Y-105163121D01*
X160073519Y-105153914D01*
X160081921Y-105145102D01*
X160090734Y-105136700D01*
X160099941Y-105128725D01*
X160109527Y-105121193D01*
X160119474Y-105114118D01*
X160129769Y-105107518D01*
X160140396Y-105101408D01*
X160151337Y-105095804D01*
X160162577Y-105090723D01*
X160174101Y-105086180D01*
X160185891Y-105082191D01*
X160197932Y-105078772D01*
X160210209Y-105075939D01*
X160222705Y-105073708D01*
X160235404Y-105072094D01*
X160248291Y-105071114D01*
X160261349Y-105070784D01*
X160274407Y-105071114D01*
G37*
D12*
G36*
X131559560Y-107953958D02*
G01*
X131561057Y-107951028D01*
X131591339Y-107907431D01*
X131627323Y-107871527D01*
X131653915Y-107851652D01*
X131696436Y-107827449D01*
X131742117Y-107809978D01*
X131765748Y-107803503D01*
X131816947Y-107794071D01*
X131868147Y-107790927D01*
X131911797Y-107793033D01*
X131961684Y-107801326D01*
X132011762Y-107817549D01*
X132042490Y-107832402D01*
X132084290Y-107860464D01*
X132120938Y-107895463D01*
X132147280Y-107929776D01*
X132171518Y-107973086D01*
X132190792Y-108022225D01*
X132196573Y-108041421D01*
X132207655Y-108092282D01*
X132213509Y-108141566D01*
X132215460Y-108194172D01*
X132215460Y-108506314D01*
X131185000Y-108506314D01*
X131185000Y-108303348D01*
X131512529Y-108303348D01*
X131512529Y-108168198D01*
X131499049Y-108159245D01*
X131708656Y-108159245D01*
X131708656Y-108303348D01*
X132019333Y-108303348D01*
X132019333Y-108157780D01*
X132016757Y-108120903D01*
X132001015Y-108073027D01*
X131992698Y-108060014D01*
X131956318Y-108026133D01*
X131951333Y-108023340D01*
X131903806Y-108005861D01*
X131861308Y-108000976D01*
X131812948Y-108008791D01*
X131806506Y-108010841D01*
X131763122Y-108033948D01*
X131753155Y-108042273D01*
X131724043Y-108082309D01*
X131714081Y-108109852D01*
X131708656Y-108159245D01*
X131499049Y-108159245D01*
X131185000Y-107950662D01*
X131185000Y-107713990D01*
X131559560Y-107953958D01*
G37*
G36*
X131907067Y-106839270D02*
G01*
X131955809Y-106846483D01*
X132006337Y-106861494D01*
X132052306Y-106883809D01*
X132075725Y-106899266D01*
X132113581Y-106932288D01*
X132145912Y-106971995D01*
X132172718Y-107018387D01*
X132177893Y-107029561D01*
X132195258Y-107077310D01*
X132207279Y-107129945D01*
X132213415Y-107180007D01*
X132215460Y-107233809D01*
X132215460Y-107545951D01*
X131185000Y-107545951D01*
X131185000Y-107342985D01*
X131511308Y-107342985D01*
X131511308Y-107198882D01*
X131708656Y-107198882D01*
X131708656Y-107342985D01*
X132019333Y-107342985D01*
X132019333Y-107197417D01*
X132016757Y-107160540D01*
X132001015Y-107112664D01*
X131992698Y-107099651D01*
X131956318Y-107065770D01*
X131951333Y-107062977D01*
X131903806Y-107045498D01*
X131862529Y-107040613D01*
X131816367Y-107048429D01*
X131809746Y-107050478D01*
X131765321Y-107073586D01*
X131755032Y-107081910D01*
X131724776Y-107121946D01*
X131714339Y-107149490D01*
X131708656Y-107198882D01*
X131511308Y-107198882D01*
X131511308Y-107197417D01*
X131511585Y-107178782D01*
X131515739Y-107126228D01*
X131526200Y-107073725D01*
X131542815Y-107027424D01*
X131559836Y-106994497D01*
X131590118Y-106951689D01*
X131626102Y-106916782D01*
X131649317Y-106899798D01*
X131695406Y-106873963D01*
X131741385Y-106856698D01*
X131765264Y-106850224D01*
X131816826Y-106840791D01*
X131868147Y-106837647D01*
X131907067Y-106839270D01*
G37*
G36*
X132215460Y-106271736D02*
G01*
X132215460Y-105577354D01*
X132019333Y-105577354D01*
X132019333Y-105827947D01*
X131185000Y-105827947D01*
X131185000Y-106030913D01*
X132019333Y-106030913D01*
X132019333Y-106271736D01*
X132215460Y-106271736D01*
G37*
G36*
X132215460Y-105465979D02*
G01*
X132215460Y-105207082D01*
X131185000Y-104535170D01*
X131185000Y-104796754D01*
X132215460Y-105465979D01*
G37*
G36*
X131185000Y-105480145D02*
G01*
X131761901Y-105113293D01*
X131557470Y-105018038D01*
X131185000Y-105228087D01*
X131185000Y-105480145D01*
G37*
G36*
X131837372Y-105004116D02*
G01*
X132215460Y-104791380D01*
X132215460Y-104544939D01*
X131662494Y-104899092D01*
X131837372Y-105004116D01*
G37*
G36*
X129291136Y-114734225D02*
G01*
X129282864Y-114785145D01*
X129261827Y-114828014D01*
X129230164Y-114866268D01*
X129190128Y-114897223D01*
X129184158Y-114900799D01*
X129136835Y-114920959D01*
X129085540Y-114928777D01*
X129078401Y-114928886D01*
X129029539Y-114924251D01*
X128982149Y-114908890D01*
X128966537Y-114900799D01*
X128925021Y-114870817D01*
X128892520Y-114833536D01*
X128888868Y-114828014D01*
X128867253Y-114782219D01*
X128860048Y-114734225D01*
X128860048Y-114084539D01*
X128659768Y-114084539D01*
X128659768Y-114738377D01*
X128663279Y-114793439D01*
X128673812Y-114845294D01*
X128691367Y-114893944D01*
X128715944Y-114939389D01*
X128746368Y-114980758D01*
X128781707Y-115017424D01*
X128821961Y-115049390D01*
X128867131Y-115076653D01*
X128915964Y-115098345D01*
X128967453Y-115113839D01*
X129021599Y-115123136D01*
X129071155Y-115126186D01*
X129078401Y-115126235D01*
X129127653Y-115123862D01*
X129181566Y-115115340D01*
X129232945Y-115100621D01*
X129281789Y-115079704D01*
X129287717Y-115076653D01*
X129332566Y-115049390D01*
X129372591Y-115017424D01*
X129407793Y-114980758D01*
X129438170Y-114939389D01*
X129462641Y-114893944D01*
X129480119Y-114845294D01*
X129490606Y-114793439D01*
X129494102Y-114738377D01*
X129494102Y-114084539D01*
X129291136Y-114084539D01*
X129291136Y-114734225D01*
G37*
G36*
X127865002Y-114333911D02*
G01*
X127909424Y-114311311D01*
X127954395Y-114291871D01*
X127984681Y-114280666D01*
X128032845Y-114267066D01*
X128081919Y-114260174D01*
X128098743Y-114259661D01*
X128147530Y-114264055D01*
X128194959Y-114281526D01*
X128202302Y-114286284D01*
X128232913Y-114324580D01*
X128240159Y-114365907D01*
X128225397Y-114414309D01*
X128211583Y-114431120D01*
X128171503Y-114462901D01*
X128137333Y-114482166D01*
X128090866Y-114503538D01*
X128042811Y-114522711D01*
X127995337Y-114542409D01*
X127953907Y-114562766D01*
X127912019Y-114588595D01*
X127874772Y-114620163D01*
X127843326Y-114658632D01*
X127820167Y-114702459D01*
X127818840Y-114705648D01*
X127804482Y-114754709D01*
X127798574Y-114803756D01*
X127797835Y-114830701D01*
X127802626Y-114883303D01*
X127816999Y-114933309D01*
X127838380Y-114976514D01*
X127867417Y-115015965D01*
X127903848Y-115050359D01*
X127947674Y-115079697D01*
X127957326Y-115084958D01*
X128004306Y-115104911D01*
X128057043Y-115118334D01*
X128108754Y-115124784D01*
X128150522Y-115126235D01*
X128202448Y-115123944D01*
X128251418Y-115117715D01*
X128270445Y-115114267D01*
X128319536Y-115102487D01*
X128367982Y-115086596D01*
X128390124Y-115077875D01*
X128437107Y-115055813D01*
X128482799Y-115029317D01*
X128503453Y-115015593D01*
X128413816Y-114857323D01*
X128370865Y-114885264D01*
X128334681Y-114904218D01*
X128289129Y-114923207D01*
X128248708Y-114935725D01*
X128199578Y-114945106D01*
X128168840Y-114946960D01*
X128118455Y-114941996D01*
X128095323Y-114936458D01*
X128050280Y-114915091D01*
X128033774Y-114900799D01*
X128011515Y-114856857D01*
X128009106Y-114830701D01*
X128023538Y-114782768D01*
X128029378Y-114774769D01*
X128065837Y-114740751D01*
X128084088Y-114728607D01*
X128129311Y-114704546D01*
X128158826Y-114692215D01*
X128204121Y-114673861D01*
X128250704Y-114653146D01*
X128257012Y-114650205D01*
X128302840Y-114625687D01*
X128345984Y-114596553D01*
X128351534Y-114592320D01*
X128389101Y-114556385D01*
X128417578Y-114516260D01*
X128422853Y-114506835D01*
X128441553Y-114457561D01*
X128449246Y-114408331D01*
X128450208Y-114381294D01*
X128446320Y-114327737D01*
X128434657Y-114278807D01*
X128412846Y-114230329D01*
X128410397Y-114226200D01*
X128378991Y-114184123D01*
X128339850Y-114148570D01*
X128297556Y-114121908D01*
X128249872Y-114101128D01*
X128197798Y-114087027D01*
X128147180Y-114080046D01*
X128129517Y-114078921D01*
X128077265Y-114080336D01*
X128023043Y-114085415D01*
X127974683Y-114094189D01*
X127927284Y-114108475D01*
X127880315Y-114127890D01*
X127836495Y-114149500D01*
X127791928Y-114175805D01*
X127788066Y-114178328D01*
X127865002Y-114333911D01*
G37*
G36*
X127599266Y-115115000D02*
G01*
X127256349Y-115115000D01*
X127222308Y-115113992D01*
X127172276Y-115108703D01*
X127123481Y-115098879D01*
X127099773Y-115092148D01*
X127051647Y-115072849D01*
X127007954Y-115047100D01*
X126989467Y-115032938D01*
X126954537Y-114996833D01*
X126926621Y-114953311D01*
X126909517Y-114910287D01*
X126899513Y-114861145D01*
X126896579Y-114811161D01*
X127106628Y-114811161D01*
X127107941Y-114829983D01*
X127127633Y-114876374D01*
X127140665Y-114889836D01*
X127185030Y-114914232D01*
X127215969Y-114921822D01*
X127266119Y-114925956D01*
X127396300Y-114925956D01*
X127396300Y-114701985D01*
X127280285Y-114701985D01*
X127245566Y-114703517D01*
X127196998Y-114711266D01*
X127175645Y-114717470D01*
X127131785Y-114743506D01*
X127117462Y-114761859D01*
X127106628Y-114811161D01*
X126896579Y-114811161D01*
X126896804Y-114799904D01*
X126904651Y-114746624D01*
X126923708Y-114698353D01*
X126953976Y-114655090D01*
X126976951Y-114631700D01*
X127016856Y-114600608D01*
X127063290Y-114574307D01*
X127068964Y-114571958D01*
X127064351Y-114569529D01*
X127025167Y-114539132D01*
X126992567Y-114502438D01*
X126984186Y-114490211D01*
X126962204Y-114445484D01*
X126949382Y-114394651D01*
X126948819Y-114386912D01*
X127155477Y-114386912D01*
X127160993Y-114425600D01*
X127184297Y-114469710D01*
X127223621Y-114498106D01*
X127273202Y-114506102D01*
X127396300Y-114506102D01*
X127396300Y-114280666D01*
X127287124Y-114280666D01*
X127236162Y-114286516D01*
X127191380Y-114307288D01*
X127165610Y-114338043D01*
X127155477Y-114386912D01*
X126948819Y-114386912D01*
X126945672Y-114343681D01*
X126945765Y-114335683D01*
X126951626Y-114283200D01*
X126969486Y-114230718D01*
X126999253Y-114186236D01*
X127040927Y-114149752D01*
X127085650Y-114124342D01*
X127136683Y-114105173D01*
X127185450Y-114093709D01*
X127238853Y-114086832D01*
X127296893Y-114084539D01*
X127599266Y-114084539D01*
X127599266Y-115115000D01*
G37*
G36*
X126239322Y-115115000D02*
G01*
X125881018Y-115115000D01*
X125829208Y-115112862D01*
X125778802Y-115106451D01*
X125729801Y-115095765D01*
X125682204Y-115080806D01*
X125653443Y-115069298D01*
X125604439Y-115044828D01*
X125558990Y-115015528D01*
X125517096Y-114981399D01*
X125491324Y-114956016D01*
X125456660Y-114914466D01*
X125426787Y-114868742D01*
X125404256Y-114824595D01*
X125401716Y-114818833D01*
X125384302Y-114771121D01*
X125372048Y-114720540D01*
X125364954Y-114667089D01*
X125362979Y-114617965D01*
X125363395Y-114604043D01*
X125573027Y-114604043D01*
X125574569Y-114641428D01*
X125582664Y-114693440D01*
X125597696Y-114740575D01*
X125605841Y-114758633D01*
X125631819Y-114801008D01*
X125667549Y-114839249D01*
X125685204Y-114853251D01*
X125727696Y-114879111D01*
X125775993Y-114898845D01*
X125812540Y-114908644D01*
X125864696Y-114916721D01*
X125915944Y-114919117D01*
X126036356Y-114919117D01*
X126036356Y-114279200D01*
X125871248Y-114279200D01*
X125835123Y-114282152D01*
X125786007Y-114292634D01*
X125776547Y-114295298D01*
X125729825Y-114314350D01*
X125687089Y-114340750D01*
X125666679Y-114357409D01*
X125632745Y-114395666D01*
X125606000Y-114439424D01*
X125602007Y-114447537D01*
X125584652Y-114497346D01*
X125575636Y-114550239D01*
X125573027Y-114604043D01*
X125363395Y-114604043D01*
X125364060Y-114581830D01*
X125369741Y-114527787D01*
X125380289Y-114473938D01*
X125393753Y-114426235D01*
X125411384Y-114379752D01*
X125433504Y-114335560D01*
X125460111Y-114293657D01*
X125491206Y-114254043D01*
X125495400Y-114249265D01*
X125531956Y-114213201D01*
X125573855Y-114180984D01*
X125621097Y-114152614D01*
X125666817Y-114130945D01*
X125716790Y-114112863D01*
X125771182Y-114099222D01*
X125821319Y-114091065D01*
X125874703Y-114086170D01*
X125931332Y-114084539D01*
X126239322Y-114084539D01*
X126239322Y-115115000D01*
G37*
G36*
X124238240Y-115157009D02*
G01*
X125019573Y-114451392D01*
X124959245Y-114485097D01*
X124955093Y-115115000D01*
X125160745Y-115115000D01*
X125160745Y-114043995D01*
X125152441Y-114043995D01*
X124387961Y-114746681D01*
X124432902Y-114727142D01*
X124437054Y-114084539D01*
X124232623Y-114084539D01*
X124232623Y-115157009D01*
X124238240Y-115157009D01*
G37*
G36*
X129559560Y-108094642D02*
G01*
X129561057Y-108091712D01*
X129591339Y-108048115D01*
X129627323Y-108012211D01*
X129653915Y-107992336D01*
X129696436Y-107968133D01*
X129742117Y-107950662D01*
X129765748Y-107944187D01*
X129816947Y-107934755D01*
X129868147Y-107931611D01*
X129911797Y-107933717D01*
X129961684Y-107942010D01*
X130011762Y-107958233D01*
X130042490Y-107973086D01*
X130084290Y-108001148D01*
X130120938Y-108036147D01*
X130147280Y-108070460D01*
X130171518Y-108113770D01*
X130190792Y-108162909D01*
X130196573Y-108182105D01*
X130207655Y-108232966D01*
X130213509Y-108282250D01*
X130215460Y-108334856D01*
X130215460Y-108646998D01*
X129185000Y-108646998D01*
X129185000Y-108444032D01*
X129512529Y-108444032D01*
X129512529Y-108308882D01*
X129499049Y-108299929D01*
X129708656Y-108299929D01*
X129708656Y-108444032D01*
X130019333Y-108444032D01*
X130019333Y-108298464D01*
X130016757Y-108261587D01*
X130001015Y-108213711D01*
X129992698Y-108200698D01*
X129956318Y-108166817D01*
X129951333Y-108164024D01*
X129903806Y-108146545D01*
X129861308Y-108141660D01*
X129812948Y-108149475D01*
X129806506Y-108151525D01*
X129763122Y-108174632D01*
X129753155Y-108182957D01*
X129724043Y-108222993D01*
X129714081Y-108250536D01*
X129708656Y-108299929D01*
X129499049Y-108299929D01*
X129185000Y-108091346D01*
X129185000Y-107854674D01*
X129559560Y-108094642D01*
G37*
G36*
X129907067Y-106979954D02*
G01*
X129955809Y-106987167D01*
X130006337Y-107002178D01*
X130052306Y-107024493D01*
X130075725Y-107039950D01*
X130113581Y-107072972D01*
X130145912Y-107112679D01*
X130172718Y-107159071D01*
X130177893Y-107170245D01*
X130195258Y-107217994D01*
X130207279Y-107270629D01*
X130213415Y-107320691D01*
X130215460Y-107374493D01*
X130215460Y-107686635D01*
X129185000Y-107686635D01*
X129185000Y-107483669D01*
X129511308Y-107483669D01*
X129511308Y-107339566D01*
X129708656Y-107339566D01*
X129708656Y-107483669D01*
X130019333Y-107483669D01*
X130019333Y-107338101D01*
X130016757Y-107301224D01*
X130001015Y-107253348D01*
X129992698Y-107240335D01*
X129956318Y-107206454D01*
X129951333Y-107203661D01*
X129903806Y-107186182D01*
X129862529Y-107181297D01*
X129816367Y-107189113D01*
X129809746Y-107191162D01*
X129765321Y-107214270D01*
X129755032Y-107222594D01*
X129724776Y-107262630D01*
X129714339Y-107290174D01*
X129708656Y-107339566D01*
X129511308Y-107339566D01*
X129511308Y-107338101D01*
X129511585Y-107319466D01*
X129515739Y-107266912D01*
X129526200Y-107214409D01*
X129542815Y-107168108D01*
X129559836Y-107135181D01*
X129590118Y-107092373D01*
X129626102Y-107057466D01*
X129649317Y-107040482D01*
X129695406Y-107014647D01*
X129741385Y-106997382D01*
X129765264Y-106990908D01*
X129816826Y-106981475D01*
X129868147Y-106978331D01*
X129907067Y-106979954D01*
G37*
G36*
X129559561Y-105789966D02*
G01*
X129561057Y-105787037D01*
X129591339Y-105743439D01*
X129627323Y-105707535D01*
X129653915Y-105687660D01*
X129696436Y-105663457D01*
X129742117Y-105645986D01*
X129765748Y-105639512D01*
X129816947Y-105630079D01*
X129868147Y-105626935D01*
X129911797Y-105629041D01*
X129961684Y-105637335D01*
X130011762Y-105653558D01*
X130042490Y-105668411D01*
X130084290Y-105696472D01*
X130120938Y-105731471D01*
X130147280Y-105765785D01*
X130171518Y-105809094D01*
X130190792Y-105858233D01*
X130196573Y-105877429D01*
X130207655Y-105928291D01*
X130213509Y-105977574D01*
X130215460Y-106030180D01*
X130215460Y-106342323D01*
X129185000Y-106342323D01*
X129185000Y-106139357D01*
X129512529Y-106139357D01*
X129512529Y-106004206D01*
X129499051Y-105995254D01*
X129708656Y-105995254D01*
X129708656Y-106139357D01*
X130019333Y-106139357D01*
X130019333Y-105993788D01*
X130016757Y-105956911D01*
X130001015Y-105909036D01*
X129992698Y-105896023D01*
X129956318Y-105862141D01*
X129951333Y-105859348D01*
X129903806Y-105841869D01*
X129861308Y-105836984D01*
X129812948Y-105844800D01*
X129806506Y-105846849D01*
X129763122Y-105869957D01*
X129753155Y-105878282D01*
X129724043Y-105918317D01*
X129714081Y-105945861D01*
X129708656Y-105995254D01*
X129499051Y-105995254D01*
X129185000Y-105786670D01*
X129185000Y-105549999D01*
X129559561Y-105789966D01*
G37*
G36*
X130215460Y-105465979D02*
G01*
X130215460Y-105207082D01*
X129185000Y-104535170D01*
X129185000Y-104796754D01*
X130215460Y-105465979D01*
G37*
G36*
X129185000Y-105480145D02*
G01*
X129761901Y-105113293D01*
X129557470Y-105018038D01*
X129185000Y-105228087D01*
X129185000Y-105480145D01*
G37*
G36*
X129837372Y-105004116D02*
G01*
X130215460Y-104791381D01*
X130215460Y-104544940D01*
X129662494Y-104899092D01*
X129837372Y-105004116D01*
G37*
G36*
X128987298Y-112634225D02*
G01*
X128979026Y-112685145D01*
X128957989Y-112728014D01*
X128926326Y-112766268D01*
X128886290Y-112797223D01*
X128880320Y-112800799D01*
X128832997Y-112820959D01*
X128781702Y-112828777D01*
X128774563Y-112828886D01*
X128725701Y-112824251D01*
X128678311Y-112808890D01*
X128662699Y-112800799D01*
X128621183Y-112770817D01*
X128588682Y-112733536D01*
X128585030Y-112728014D01*
X128563415Y-112682219D01*
X128556210Y-112634225D01*
X128556210Y-111984539D01*
X128355930Y-111984539D01*
X128355930Y-112638377D01*
X128359441Y-112693439D01*
X128369974Y-112745294D01*
X128387529Y-112793944D01*
X128412106Y-112839389D01*
X128442530Y-112880758D01*
X128477869Y-112917424D01*
X128518123Y-112949390D01*
X128563293Y-112976653D01*
X128612126Y-112998345D01*
X128663615Y-113013839D01*
X128717761Y-113023136D01*
X128767317Y-113026186D01*
X128774563Y-113026235D01*
X128823815Y-113023862D01*
X128877728Y-113015340D01*
X128929107Y-113000621D01*
X128977951Y-112979704D01*
X128983879Y-112976653D01*
X129028728Y-112949390D01*
X129068753Y-112917424D01*
X129103955Y-112880758D01*
X129134332Y-112839389D01*
X129158803Y-112793944D01*
X129176281Y-112745294D01*
X129186768Y-112693439D01*
X129190264Y-112638377D01*
X129190264Y-111984539D01*
X128987298Y-111984539D01*
X128987298Y-112634225D01*
G37*
G36*
X127561164Y-112233911D02*
G01*
X127605586Y-112211311D01*
X127650557Y-112191871D01*
X127680843Y-112180666D01*
X127729007Y-112167066D01*
X127778081Y-112160174D01*
X127794905Y-112159661D01*
X127843692Y-112164055D01*
X127891121Y-112181526D01*
X127898464Y-112186284D01*
X127929075Y-112224580D01*
X127936321Y-112265907D01*
X127921559Y-112314309D01*
X127907745Y-112331120D01*
X127867665Y-112362901D01*
X127833495Y-112382166D01*
X127787028Y-112403538D01*
X127738973Y-112422711D01*
X127691499Y-112442409D01*
X127650069Y-112462766D01*
X127608181Y-112488595D01*
X127570934Y-112520163D01*
X127539488Y-112558632D01*
X127516329Y-112602459D01*
X127515002Y-112605648D01*
X127500644Y-112654709D01*
X127494736Y-112703756D01*
X127493997Y-112730701D01*
X127498788Y-112783303D01*
X127513161Y-112833309D01*
X127534542Y-112876514D01*
X127563579Y-112915965D01*
X127600010Y-112950359D01*
X127643836Y-112979697D01*
X127653488Y-112984958D01*
X127700468Y-113004911D01*
X127753205Y-113018334D01*
X127804916Y-113024784D01*
X127846684Y-113026235D01*
X127898610Y-113023944D01*
X127947580Y-113017715D01*
X127966607Y-113014267D01*
X128015698Y-113002487D01*
X128064144Y-112986596D01*
X128086286Y-112977875D01*
X128133269Y-112955813D01*
X128178961Y-112929317D01*
X128199615Y-112915593D01*
X128109978Y-112757323D01*
X128067027Y-112785264D01*
X128030843Y-112804218D01*
X127985291Y-112823207D01*
X127944870Y-112835725D01*
X127895740Y-112845106D01*
X127865002Y-112846960D01*
X127814617Y-112841996D01*
X127791485Y-112836458D01*
X127746442Y-112815091D01*
X127729936Y-112800799D01*
X127707677Y-112756857D01*
X127705268Y-112730701D01*
X127719700Y-112682768D01*
X127725540Y-112674769D01*
X127761999Y-112640751D01*
X127780250Y-112628607D01*
X127825473Y-112604546D01*
X127854988Y-112592215D01*
X127900283Y-112573861D01*
X127946866Y-112553146D01*
X127953174Y-112550205D01*
X127999002Y-112525687D01*
X128042146Y-112496553D01*
X128047696Y-112492320D01*
X128085263Y-112456385D01*
X128113740Y-112416260D01*
X128119015Y-112406835D01*
X128137715Y-112357561D01*
X128145408Y-112308331D01*
X128146370Y-112281294D01*
X128142482Y-112227737D01*
X128130819Y-112178807D01*
X128109008Y-112130329D01*
X128106559Y-112126200D01*
X128075153Y-112084123D01*
X128036012Y-112048570D01*
X127993718Y-112021908D01*
X127946034Y-112001128D01*
X127893960Y-111987027D01*
X127843342Y-111980046D01*
X127825679Y-111978921D01*
X127773427Y-111980336D01*
X127719205Y-111985415D01*
X127670845Y-111994189D01*
X127623446Y-112008475D01*
X127576477Y-112027890D01*
X127532657Y-112049500D01*
X127488090Y-112075805D01*
X127484228Y-112078328D01*
X127561164Y-112233911D01*
G37*
G36*
X127295428Y-113015000D02*
G01*
X126952511Y-113015000D01*
X126918470Y-113013992D01*
X126868438Y-113008703D01*
X126819643Y-112998879D01*
X126795935Y-112992148D01*
X126747809Y-112972849D01*
X126704116Y-112947100D01*
X126685629Y-112932938D01*
X126650699Y-112896833D01*
X126622783Y-112853311D01*
X126605679Y-112810287D01*
X126595675Y-112761145D01*
X126592741Y-112711161D01*
X126802790Y-112711161D01*
X126804103Y-112729983D01*
X126823795Y-112776374D01*
X126836827Y-112789836D01*
X126881192Y-112814232D01*
X126912131Y-112821822D01*
X126962281Y-112825956D01*
X127092462Y-112825956D01*
X127092462Y-112601985D01*
X126976447Y-112601985D01*
X126941728Y-112603517D01*
X126893160Y-112611266D01*
X126871807Y-112617470D01*
X126827947Y-112643506D01*
X126813624Y-112661859D01*
X126802790Y-112711161D01*
X126592741Y-112711161D01*
X126592966Y-112699904D01*
X126600813Y-112646624D01*
X126619870Y-112598353D01*
X126650138Y-112555090D01*
X126673113Y-112531700D01*
X126713018Y-112500608D01*
X126759452Y-112474307D01*
X126765126Y-112471958D01*
X126760513Y-112469529D01*
X126721329Y-112439132D01*
X126688729Y-112402438D01*
X126680348Y-112390211D01*
X126658366Y-112345484D01*
X126645544Y-112294651D01*
X126644981Y-112286912D01*
X126851639Y-112286912D01*
X126857155Y-112325600D01*
X126880459Y-112369710D01*
X126919783Y-112398106D01*
X126969364Y-112406102D01*
X127092462Y-112406102D01*
X127092462Y-112180666D01*
X126983286Y-112180666D01*
X126932324Y-112186516D01*
X126887542Y-112207288D01*
X126861772Y-112238043D01*
X126851639Y-112286912D01*
X126644981Y-112286912D01*
X126641834Y-112243681D01*
X126641927Y-112235683D01*
X126647788Y-112183200D01*
X126665648Y-112130718D01*
X126695415Y-112086236D01*
X126737089Y-112049752D01*
X126781812Y-112024342D01*
X126832845Y-112005173D01*
X126881612Y-111993709D01*
X126935015Y-111986832D01*
X126993055Y-111984539D01*
X127295428Y-111984539D01*
X127295428Y-113015000D01*
G37*
G36*
X125935484Y-113015000D02*
G01*
X125577180Y-113015000D01*
X125525370Y-113012862D01*
X125474964Y-113006451D01*
X125425963Y-112995765D01*
X125378366Y-112980806D01*
X125349605Y-112969298D01*
X125300601Y-112944828D01*
X125255152Y-112915528D01*
X125213258Y-112881399D01*
X125187486Y-112856016D01*
X125152822Y-112814466D01*
X125122949Y-112768742D01*
X125100418Y-112724595D01*
X125097878Y-112718833D01*
X125080464Y-112671121D01*
X125068210Y-112620540D01*
X125061116Y-112567089D01*
X125059141Y-112517965D01*
X125059557Y-112504043D01*
X125269189Y-112504043D01*
X125270731Y-112541428D01*
X125278826Y-112593440D01*
X125293858Y-112640575D01*
X125302003Y-112658633D01*
X125327981Y-112701008D01*
X125363711Y-112739249D01*
X125381366Y-112753251D01*
X125423858Y-112779111D01*
X125472155Y-112798845D01*
X125508702Y-112808644D01*
X125560858Y-112816721D01*
X125612106Y-112819117D01*
X125732518Y-112819117D01*
X125732518Y-112179200D01*
X125567410Y-112179200D01*
X125531285Y-112182152D01*
X125482169Y-112192634D01*
X125472709Y-112195298D01*
X125425987Y-112214350D01*
X125383251Y-112240750D01*
X125362841Y-112257409D01*
X125328907Y-112295666D01*
X125302162Y-112339424D01*
X125298169Y-112347537D01*
X125280814Y-112397346D01*
X125271798Y-112450239D01*
X125269189Y-112504043D01*
X125059557Y-112504043D01*
X125060222Y-112481830D01*
X125065903Y-112427787D01*
X125076451Y-112373938D01*
X125089915Y-112326235D01*
X125107546Y-112279752D01*
X125129666Y-112235560D01*
X125156273Y-112193657D01*
X125187368Y-112154043D01*
X125191562Y-112149265D01*
X125228118Y-112113201D01*
X125270017Y-112080984D01*
X125317259Y-112052614D01*
X125362979Y-112030945D01*
X125412952Y-112012863D01*
X125467344Y-111999222D01*
X125517481Y-111991065D01*
X125570865Y-111986170D01*
X125627494Y-111984539D01*
X125935484Y-111984539D01*
X125935484Y-113015000D01*
G37*
G36*
X124856907Y-113015000D02*
G01*
X124653942Y-113015000D01*
X124653942Y-112688691D01*
X124508373Y-112688691D01*
X124489738Y-112688414D01*
X124437184Y-112684260D01*
X124384681Y-112673799D01*
X124338380Y-112657184D01*
X124305453Y-112640163D01*
X124262646Y-112609881D01*
X124227738Y-112573897D01*
X124210754Y-112550682D01*
X124184919Y-112504593D01*
X124167654Y-112458614D01*
X124161180Y-112434735D01*
X124151747Y-112383173D01*
X124148947Y-112337470D01*
X124351569Y-112337470D01*
X124359385Y-112383632D01*
X124361434Y-112390253D01*
X124384542Y-112434678D01*
X124392867Y-112444967D01*
X124432902Y-112475223D01*
X124460446Y-112485660D01*
X124509838Y-112491343D01*
X124653942Y-112491343D01*
X124653942Y-112180666D01*
X124508373Y-112180666D01*
X124471496Y-112183242D01*
X124423621Y-112198984D01*
X124410608Y-112207301D01*
X124376726Y-112243681D01*
X124373933Y-112248666D01*
X124356454Y-112296193D01*
X124351569Y-112337470D01*
X124148947Y-112337470D01*
X124148603Y-112331852D01*
X124150226Y-112292932D01*
X124157439Y-112244190D01*
X124172450Y-112193662D01*
X124194765Y-112147693D01*
X124210222Y-112124274D01*
X124243244Y-112086418D01*
X124282951Y-112054087D01*
X124329343Y-112027281D01*
X124340517Y-112022106D01*
X124388266Y-112004741D01*
X124440901Y-111992720D01*
X124490963Y-111986584D01*
X124544765Y-111984539D01*
X124856907Y-111984539D01*
X124856907Y-113015000D01*
G37*
G36*
X126370376Y-103711441D02*
G01*
X126409669Y-103741162D01*
X126428017Y-103751252D01*
X126472916Y-103771826D01*
X126518143Y-103788377D01*
X126566482Y-103802781D01*
X126615788Y-103814395D01*
X126622435Y-103815732D01*
X126671118Y-103823271D01*
X126720325Y-103826224D01*
X126723307Y-103826235D01*
X126777241Y-103824458D01*
X126828767Y-103819129D01*
X126877886Y-103810246D01*
X126931074Y-103795744D01*
X126950209Y-103789110D01*
X126998706Y-103768715D01*
X127043570Y-103744658D01*
X127084802Y-103716936D01*
X127122400Y-103685551D01*
X127159870Y-103646230D01*
X127192046Y-103603007D01*
X127218929Y-103555881D01*
X127231576Y-103528014D01*
X127248032Y-103481425D01*
X127259786Y-103432759D01*
X127266839Y-103382018D01*
X127269190Y-103329200D01*
X127267696Y-103277474D01*
X127263213Y-103228359D01*
X127254208Y-103174356D01*
X127241134Y-103123907D01*
X127226692Y-103083492D01*
X127203397Y-103033545D01*
X127176255Y-102987993D01*
X127145267Y-102946838D01*
X127110432Y-102910080D01*
X127072284Y-102877626D01*
X127031358Y-102849630D01*
X126987654Y-102826091D01*
X126941172Y-102807009D01*
X126892613Y-102792263D01*
X126842925Y-102781730D01*
X126792107Y-102775410D01*
X126740160Y-102773304D01*
X126685577Y-102775023D01*
X126633659Y-102780182D01*
X126584408Y-102788779D01*
X126558199Y-102795041D01*
X126508931Y-102809653D01*
X126460465Y-102828095D01*
X126418003Y-102849019D01*
X126483949Y-103038063D01*
X126528818Y-103017825D01*
X126551116Y-103009975D01*
X126598841Y-102995859D01*
X126636601Y-102987016D01*
X126686919Y-102979040D01*
X126713537Y-102977735D01*
X126764141Y-102979786D01*
X126815398Y-102986781D01*
X126862037Y-102998740D01*
X126907397Y-103017447D01*
X126950181Y-103044380D01*
X126970481Y-103061755D01*
X127002654Y-103099233D01*
X127027733Y-103143403D01*
X127036915Y-103166046D01*
X127050608Y-103215608D01*
X127057608Y-103266049D01*
X127059385Y-103310882D01*
X127055847Y-103363559D01*
X127045234Y-103412045D01*
X127034228Y-103442041D01*
X127010284Y-103486251D01*
X126979730Y-103524818D01*
X126963398Y-103540715D01*
X126923705Y-103570432D01*
X126878450Y-103593700D01*
X126855687Y-103602264D01*
X126807086Y-103615064D01*
X126754708Y-103621956D01*
X126717689Y-103623269D01*
X126668560Y-103621030D01*
X126637822Y-103616919D01*
X126589554Y-103603134D01*
X126576273Y-103596646D01*
X126576273Y-103472083D01*
X126754082Y-103472083D01*
X126754082Y-103275956D01*
X126370376Y-103275956D01*
X126370376Y-103711441D01*
G37*
G36*
X125216817Y-103857009D02*
G01*
X125998150Y-103151392D01*
X125937822Y-103185097D01*
X125933670Y-103815000D01*
X126139322Y-103815000D01*
X126139322Y-102743995D01*
X126131018Y-102743995D01*
X125366538Y-103446681D01*
X125411479Y-103427142D01*
X125415631Y-102784539D01*
X125211200Y-102784539D01*
X125211200Y-103857009D01*
X125216817Y-103857009D01*
G37*
G36*
X124945463Y-103815000D02*
G01*
X124587159Y-103815000D01*
X124535349Y-103812862D01*
X124484943Y-103806451D01*
X124435942Y-103795765D01*
X124388345Y-103780806D01*
X124359585Y-103769298D01*
X124310581Y-103744828D01*
X124265132Y-103715528D01*
X124223237Y-103681399D01*
X124197466Y-103656016D01*
X124162801Y-103614466D01*
X124132928Y-103568742D01*
X124110397Y-103524595D01*
X124107858Y-103518833D01*
X124090444Y-103471121D01*
X124078190Y-103420540D01*
X124071095Y-103367089D01*
X124069120Y-103317965D01*
X124069537Y-103304043D01*
X124279169Y-103304043D01*
X124280711Y-103341428D01*
X124288805Y-103393440D01*
X124303837Y-103440575D01*
X124311983Y-103458633D01*
X124337961Y-103501008D01*
X124373691Y-103539249D01*
X124391345Y-103553251D01*
X124433838Y-103579111D01*
X124482135Y-103598845D01*
X124518682Y-103608644D01*
X124570837Y-103616721D01*
X124622086Y-103619117D01*
X124742498Y-103619117D01*
X124742498Y-102979200D01*
X124577389Y-102979200D01*
X124541265Y-102982152D01*
X124492149Y-102992634D01*
X124482688Y-102995298D01*
X124435966Y-103014350D01*
X124393230Y-103040750D01*
X124372821Y-103057409D01*
X124338886Y-103095666D01*
X124312142Y-103139424D01*
X124308149Y-103147537D01*
X124290793Y-103197346D01*
X124281777Y-103250239D01*
X124279169Y-103304043D01*
X124069537Y-103304043D01*
X124070202Y-103281830D01*
X124075882Y-103227787D01*
X124086431Y-103173938D01*
X124099895Y-103126235D01*
X124117526Y-103079752D01*
X124139645Y-103035560D01*
X124166252Y-102993657D01*
X124197348Y-102954043D01*
X124201541Y-102949265D01*
X124238098Y-102913201D01*
X124279997Y-102880984D01*
X124327239Y-102852614D01*
X124372958Y-102830945D01*
X124422932Y-102812863D01*
X124477323Y-102799222D01*
X124527461Y-102791065D01*
X124580844Y-102786170D01*
X124637473Y-102784539D01*
X124945463Y-102784539D01*
X124945463Y-103815000D01*
G37*
G36*
X127476901Y-108886877D02*
G01*
X127686950Y-109289877D01*
X127797592Y-109229794D01*
X127767550Y-109221489D01*
X127737264Y-109218558D01*
X127688354Y-109220635D01*
X127639322Y-109229794D01*
X127592550Y-109247379D01*
X127550418Y-109274734D01*
X127516475Y-109310043D01*
X127490897Y-109352586D01*
X127486182Y-109362906D01*
X127470210Y-109413429D01*
X127463055Y-109464114D01*
X127461513Y-109505544D01*
X127465223Y-109560005D01*
X127476351Y-109609906D01*
X127494898Y-109655248D01*
X127508408Y-109678468D01*
X127540532Y-109720161D01*
X127578284Y-109755175D01*
X127621666Y-109783511D01*
X127631018Y-109788377D01*
X127679428Y-109808341D01*
X127730318Y-109820911D01*
X127783689Y-109826087D01*
X127794661Y-109826235D01*
X127847131Y-109822216D01*
X127896979Y-109811472D01*
X127939008Y-109797658D01*
X127987287Y-109775622D01*
X128028350Y-109749141D01*
X128059420Y-109721210D01*
X127955861Y-109553171D01*
X127918615Y-109587482D01*
X127891381Y-109604951D01*
X127844017Y-109624580D01*
X127800278Y-109630108D01*
X127751237Y-109619950D01*
X127740194Y-109614720D01*
X127701497Y-109582984D01*
X127691102Y-109568558D01*
X127673871Y-109522171D01*
X127671562Y-109493087D01*
X127678154Y-109443880D01*
X127701830Y-109399550D01*
X127706000Y-109394902D01*
X127747033Y-109367608D01*
X127797924Y-109358545D01*
X127801744Y-109358510D01*
X127851660Y-109360402D01*
X127865491Y-109362173D01*
X127908234Y-109371210D01*
X127912386Y-109365593D01*
X127748499Y-109059068D01*
X127689636Y-109082759D01*
X127982239Y-109082759D01*
X127982239Y-108886877D01*
X127476901Y-108886877D01*
G37*
G36*
X127356733Y-109714127D02*
G01*
X127344426Y-109665527D01*
X127325226Y-109641587D01*
X127283361Y-109616190D01*
X127255861Y-109612034D01*
X127207420Y-109627301D01*
X127189427Y-109641587D01*
X127162350Y-109683662D01*
X127157920Y-109714127D01*
X127169027Y-109762314D01*
X127189427Y-109787644D01*
X127232253Y-109811767D01*
X127255861Y-109815000D01*
X127304914Y-109802070D01*
X127325226Y-109787644D01*
X127352302Y-109746104D01*
X127356733Y-109714127D01*
G37*
G36*
X126498952Y-108886877D02*
G01*
X126709001Y-109289877D01*
X126819643Y-109229794D01*
X126789601Y-109221489D01*
X126759315Y-109218558D01*
X126710406Y-109220635D01*
X126661374Y-109229794D01*
X126614601Y-109247379D01*
X126572469Y-109274734D01*
X126538527Y-109310043D01*
X126512948Y-109352586D01*
X126508234Y-109362906D01*
X126492262Y-109413429D01*
X126485107Y-109464114D01*
X126483565Y-109505544D01*
X126487274Y-109560005D01*
X126498403Y-109609906D01*
X126516950Y-109655248D01*
X126530460Y-109678468D01*
X126562583Y-109720161D01*
X126600336Y-109755175D01*
X126643718Y-109783511D01*
X126653070Y-109788377D01*
X126701479Y-109808341D01*
X126752370Y-109820911D01*
X126805740Y-109826087D01*
X126816712Y-109826235D01*
X126869183Y-109822216D01*
X126919030Y-109811472D01*
X126961060Y-109797658D01*
X127009339Y-109775622D01*
X127050402Y-109749141D01*
X127081472Y-109721210D01*
X126977913Y-109553171D01*
X126940666Y-109587482D01*
X126913432Y-109604951D01*
X126866068Y-109624580D01*
X126822330Y-109630108D01*
X126773289Y-109619950D01*
X126762246Y-109614720D01*
X126723549Y-109582984D01*
X126713153Y-109568558D01*
X126695923Y-109522171D01*
X126693614Y-109493087D01*
X126700206Y-109443880D01*
X126723882Y-109399550D01*
X126728052Y-109394902D01*
X126769085Y-109367608D01*
X126819975Y-109358545D01*
X126823795Y-109358510D01*
X126873712Y-109360402D01*
X126887543Y-109362173D01*
X126930285Y-109371210D01*
X126934437Y-109365593D01*
X126770550Y-109059068D01*
X126711688Y-109082759D01*
X127004291Y-109082759D01*
X127004291Y-108886877D01*
X126498952Y-108886877D01*
G37*
G36*
X126111339Y-108784539D02*
G01*
X125810432Y-109526549D01*
X125927913Y-109502857D01*
X125655093Y-108784539D01*
X125414270Y-108784539D01*
X125884682Y-109862627D01*
X126355093Y-108784539D01*
X126111339Y-108784539D01*
G37*
G36*
X124232623Y-109033911D02*
G01*
X124277045Y-109011311D01*
X124322016Y-108991871D01*
X124352302Y-108980666D01*
X124400466Y-108967066D01*
X124449539Y-108960174D01*
X124466363Y-108959661D01*
X124515150Y-108964055D01*
X124562579Y-108981526D01*
X124569922Y-108986284D01*
X124600534Y-109024580D01*
X124607780Y-109065907D01*
X124593017Y-109114309D01*
X124579204Y-109131120D01*
X124539124Y-109162901D01*
X124504954Y-109182166D01*
X124458487Y-109203538D01*
X124410432Y-109222711D01*
X124362958Y-109242409D01*
X124321527Y-109262766D01*
X124279640Y-109288595D01*
X124242393Y-109320163D01*
X124210946Y-109358632D01*
X124187787Y-109402459D01*
X124186461Y-109405648D01*
X124172102Y-109454709D01*
X124166195Y-109503756D01*
X124165456Y-109530701D01*
X124170247Y-109583303D01*
X124184620Y-109633309D01*
X124206000Y-109676514D01*
X124235038Y-109715965D01*
X124271469Y-109750359D01*
X124315294Y-109779697D01*
X124324947Y-109784958D01*
X124371927Y-109804911D01*
X124424664Y-109818334D01*
X124476374Y-109824784D01*
X124518143Y-109826235D01*
X124570068Y-109823944D01*
X124619038Y-109817715D01*
X124638066Y-109814267D01*
X124687157Y-109802487D01*
X124735603Y-109786596D01*
X124757745Y-109777875D01*
X124804727Y-109755813D01*
X124850420Y-109729317D01*
X124871074Y-109715593D01*
X124781437Y-109557323D01*
X124738486Y-109585264D01*
X124702302Y-109604218D01*
X124656750Y-109623207D01*
X124616328Y-109635725D01*
X124567199Y-109645106D01*
X124536461Y-109646960D01*
X124486075Y-109641996D01*
X124462944Y-109636458D01*
X124417900Y-109615091D01*
X124401395Y-109600799D01*
X124379135Y-109556857D01*
X124376726Y-109530701D01*
X124391158Y-109482768D01*
X124396998Y-109474769D01*
X124433458Y-109440751D01*
X124451709Y-109428607D01*
X124496932Y-109404546D01*
X124526447Y-109392215D01*
X124571742Y-109373861D01*
X124618324Y-109353146D01*
X124624633Y-109350205D01*
X124670460Y-109325687D01*
X124713605Y-109296553D01*
X124719155Y-109292320D01*
X124756721Y-109256385D01*
X124785199Y-109216260D01*
X124790474Y-109206835D01*
X124809173Y-109157561D01*
X124816867Y-109108331D01*
X124817829Y-109081294D01*
X124813941Y-109027737D01*
X124802277Y-108978807D01*
X124780467Y-108930329D01*
X124778017Y-108926200D01*
X124746612Y-108884123D01*
X124707471Y-108848570D01*
X124665177Y-108821908D01*
X124617492Y-108801128D01*
X124565419Y-108787027D01*
X124514801Y-108780046D01*
X124497138Y-108778921D01*
X124444885Y-108780336D01*
X124390663Y-108785415D01*
X124342303Y-108794189D01*
X124294905Y-108808475D01*
X124247936Y-108827890D01*
X124204115Y-108849500D01*
X124159549Y-108875805D01*
X124155686Y-108878328D01*
X124232623Y-109033911D01*
G37*
G36*
X126106838Y-106886877D02*
G01*
X126316887Y-107289877D01*
X126427529Y-107229794D01*
X126397487Y-107221489D01*
X126367201Y-107218558D01*
X126318291Y-107220635D01*
X126269259Y-107229794D01*
X126222487Y-107247379D01*
X126180355Y-107274734D01*
X126146412Y-107310043D01*
X126120834Y-107352586D01*
X126116119Y-107362906D01*
X126100147Y-107413429D01*
X126092992Y-107464114D01*
X126091450Y-107505544D01*
X126095160Y-107560005D01*
X126106288Y-107609906D01*
X126124835Y-107655248D01*
X126138345Y-107678468D01*
X126170469Y-107720161D01*
X126208221Y-107755175D01*
X126251603Y-107783511D01*
X126260955Y-107788377D01*
X126309365Y-107808341D01*
X126360255Y-107820911D01*
X126413626Y-107826087D01*
X126424598Y-107826235D01*
X126477068Y-107822216D01*
X126526916Y-107811472D01*
X126568945Y-107797658D01*
X126617224Y-107775622D01*
X126658287Y-107749141D01*
X126689357Y-107721210D01*
X126585798Y-107553171D01*
X126548552Y-107587482D01*
X126521318Y-107604951D01*
X126473954Y-107624580D01*
X126430215Y-107630108D01*
X126381174Y-107619950D01*
X126370131Y-107614720D01*
X126331434Y-107582984D01*
X126321039Y-107568558D01*
X126303808Y-107522171D01*
X126301499Y-107493087D01*
X126308091Y-107443880D01*
X126331767Y-107399550D01*
X126335937Y-107394902D01*
X126376970Y-107367608D01*
X126427861Y-107358545D01*
X126431681Y-107358510D01*
X126481597Y-107360402D01*
X126495428Y-107362173D01*
X126538171Y-107371210D01*
X126542323Y-107365593D01*
X126378436Y-107059068D01*
X126319573Y-107082759D01*
X126612176Y-107082759D01*
X126612176Y-106886877D01*
X126106838Y-106886877D01*
G37*
G36*
X125986670Y-107714127D02*
G01*
X125974363Y-107665527D01*
X125955163Y-107641587D01*
X125913298Y-107616190D01*
X125885798Y-107612034D01*
X125837357Y-107627301D01*
X125819364Y-107641587D01*
X125792287Y-107683662D01*
X125787857Y-107714127D01*
X125798964Y-107762314D01*
X125819364Y-107787644D01*
X125862190Y-107811767D01*
X125885798Y-107815000D01*
X125934851Y-107802070D01*
X125955163Y-107787644D01*
X125982239Y-107746104D01*
X125986670Y-107714127D01*
G37*
G36*
X125128889Y-106886877D02*
G01*
X125338938Y-107289877D01*
X125449580Y-107229794D01*
X125419538Y-107221489D01*
X125389252Y-107218558D01*
X125340343Y-107220635D01*
X125291311Y-107229794D01*
X125244538Y-107247379D01*
X125202406Y-107274734D01*
X125168464Y-107310043D01*
X125142885Y-107352586D01*
X125138171Y-107362906D01*
X125122199Y-107413429D01*
X125115044Y-107464114D01*
X125113502Y-107505544D01*
X125117211Y-107560005D01*
X125128340Y-107609906D01*
X125146887Y-107655248D01*
X125160397Y-107678468D01*
X125192520Y-107720161D01*
X125230273Y-107755175D01*
X125273655Y-107783511D01*
X125283007Y-107788377D01*
X125331416Y-107808341D01*
X125382307Y-107820911D01*
X125435677Y-107826087D01*
X125446649Y-107826235D01*
X125499120Y-107822216D01*
X125548967Y-107811472D01*
X125590997Y-107797658D01*
X125639276Y-107775622D01*
X125680339Y-107749141D01*
X125711409Y-107721210D01*
X125607850Y-107553171D01*
X125570603Y-107587482D01*
X125543369Y-107604951D01*
X125496005Y-107624580D01*
X125452267Y-107630108D01*
X125403226Y-107619950D01*
X125392183Y-107614720D01*
X125353486Y-107582984D01*
X125343090Y-107568558D01*
X125325860Y-107522171D01*
X125323551Y-107493087D01*
X125330143Y-107443880D01*
X125353819Y-107399550D01*
X125357989Y-107394902D01*
X125399022Y-107367608D01*
X125449912Y-107358545D01*
X125453732Y-107358510D01*
X125503649Y-107360402D01*
X125517480Y-107362173D01*
X125560222Y-107371210D01*
X125564374Y-107365593D01*
X125400487Y-107059068D01*
X125341625Y-107082759D01*
X125634228Y-107082759D01*
X125634228Y-106886877D01*
X125128889Y-106886877D01*
G37*
G36*
X124741276Y-106784539D02*
G01*
X124440369Y-107526549D01*
X124557850Y-107502857D01*
X124285030Y-106784539D01*
X124044207Y-106784539D01*
X124514619Y-107862627D01*
X124985030Y-106784539D01*
X124741276Y-106784539D01*
G37*
G36*
X127520760Y-104784539D02*
G01*
X127219853Y-105526549D01*
X127337333Y-105502857D01*
X127064514Y-104784539D01*
X126823691Y-104784539D01*
X127294102Y-105862627D01*
X127764514Y-104784539D01*
X127520760Y-104784539D01*
G37*
G36*
X126646370Y-105815000D02*
G01*
X126303453Y-105815000D01*
X126269412Y-105813992D01*
X126219380Y-105808703D01*
X126170585Y-105798879D01*
X126146877Y-105792148D01*
X126098751Y-105772849D01*
X126055058Y-105747100D01*
X126036571Y-105732938D01*
X126001641Y-105696833D01*
X125973726Y-105653311D01*
X125956622Y-105610287D01*
X125946617Y-105561145D01*
X125943684Y-105511161D01*
X126153732Y-105511161D01*
X126155045Y-105529983D01*
X126174737Y-105576374D01*
X126187770Y-105589836D01*
X126232134Y-105614232D01*
X126263074Y-105621822D01*
X126313223Y-105625956D01*
X126443404Y-105625956D01*
X126443404Y-105401985D01*
X126327389Y-105401985D01*
X126292670Y-105403517D01*
X126244102Y-105411266D01*
X126222749Y-105417470D01*
X126178889Y-105443506D01*
X126164567Y-105461859D01*
X126153732Y-105511161D01*
X125943684Y-105511161D01*
X125943908Y-105499904D01*
X125951755Y-105446624D01*
X125970813Y-105398353D01*
X126001081Y-105355090D01*
X126024056Y-105331700D01*
X126063960Y-105300608D01*
X126110395Y-105274307D01*
X126116068Y-105271958D01*
X126111456Y-105269529D01*
X126072272Y-105239132D01*
X126039671Y-105202438D01*
X126031290Y-105190211D01*
X126009309Y-105145484D01*
X125996486Y-105094651D01*
X125995923Y-105086912D01*
X126202581Y-105086912D01*
X126208098Y-105125600D01*
X126231402Y-105169710D01*
X126270725Y-105198106D01*
X126320306Y-105206102D01*
X126443404Y-105206102D01*
X126443404Y-104980666D01*
X126334228Y-104980666D01*
X126283266Y-104986516D01*
X126238485Y-105007288D01*
X126212714Y-105038043D01*
X126202581Y-105086912D01*
X125995923Y-105086912D01*
X125992776Y-105043681D01*
X125992869Y-105035683D01*
X125998730Y-104983200D01*
X126016590Y-104930718D01*
X126046357Y-104886236D01*
X126088031Y-104849752D01*
X126132754Y-104824342D01*
X126183788Y-104805173D01*
X126232554Y-104793709D01*
X126285958Y-104786832D01*
X126343998Y-104784539D01*
X126646370Y-104784539D01*
X126646370Y-105815000D01*
G37*
G36*
X125558757Y-105434225D02*
G01*
X125550485Y-105485145D01*
X125529448Y-105528014D01*
X125497784Y-105566268D01*
X125457749Y-105597223D01*
X125451779Y-105600799D01*
X125404455Y-105620959D01*
X125353161Y-105628777D01*
X125346021Y-105628886D01*
X125297160Y-105624251D01*
X125249769Y-105608890D01*
X125234158Y-105600799D01*
X125192642Y-105570817D01*
X125160141Y-105533536D01*
X125156489Y-105528014D01*
X125134873Y-105482219D01*
X125127668Y-105434225D01*
X125127668Y-104784539D01*
X124927389Y-104784539D01*
X124927389Y-105438377D01*
X124930900Y-105493439D01*
X124941433Y-105545294D01*
X124958988Y-105593944D01*
X124983565Y-105639389D01*
X125013989Y-105680758D01*
X125049327Y-105717424D01*
X125089582Y-105749390D01*
X125134751Y-105776653D01*
X125183585Y-105798345D01*
X125235074Y-105813839D01*
X125289220Y-105823136D01*
X125338776Y-105826186D01*
X125346021Y-105826235D01*
X125395274Y-105823862D01*
X125449187Y-105815340D01*
X125500565Y-105800621D01*
X125549410Y-105779704D01*
X125555338Y-105776653D01*
X125600187Y-105749390D01*
X125640212Y-105717424D01*
X125675413Y-105680758D01*
X125705791Y-105639389D01*
X125730261Y-105593944D01*
X125747740Y-105545294D01*
X125758227Y-105493439D01*
X125761723Y-105438377D01*
X125761723Y-104784539D01*
X125558757Y-104784539D01*
X125558757Y-105434225D01*
G37*
G36*
X124132623Y-105033911D02*
G01*
X124177045Y-105011311D01*
X124222016Y-104991871D01*
X124252302Y-104980666D01*
X124300466Y-104967066D01*
X124349539Y-104960174D01*
X124366363Y-104959661D01*
X124415150Y-104964055D01*
X124462579Y-104981526D01*
X124469922Y-104986284D01*
X124500534Y-105024580D01*
X124507780Y-105065907D01*
X124493017Y-105114309D01*
X124479204Y-105131120D01*
X124439124Y-105162901D01*
X124404954Y-105182166D01*
X124358486Y-105203538D01*
X124310432Y-105222711D01*
X124262958Y-105242409D01*
X124221527Y-105262766D01*
X124179640Y-105288595D01*
X124142393Y-105320163D01*
X124110946Y-105358632D01*
X124087787Y-105402459D01*
X124086461Y-105405648D01*
X124072102Y-105454709D01*
X124066195Y-105503756D01*
X124065456Y-105530701D01*
X124070247Y-105583303D01*
X124084620Y-105633309D01*
X124106000Y-105676514D01*
X124135038Y-105715965D01*
X124171469Y-105750359D01*
X124215294Y-105779697D01*
X124224947Y-105784958D01*
X124271926Y-105804911D01*
X124324664Y-105818334D01*
X124376374Y-105824784D01*
X124418143Y-105826235D01*
X124470068Y-105823944D01*
X124519038Y-105817715D01*
X124538066Y-105814267D01*
X124587157Y-105802487D01*
X124635603Y-105786596D01*
X124657745Y-105777875D01*
X124704727Y-105755813D01*
X124750420Y-105729317D01*
X124771074Y-105715593D01*
X124681437Y-105557323D01*
X124638486Y-105585264D01*
X124602302Y-105604218D01*
X124556750Y-105623207D01*
X124516328Y-105635725D01*
X124467199Y-105645106D01*
X124436461Y-105646960D01*
X124386075Y-105641996D01*
X124362944Y-105636458D01*
X124317900Y-105615091D01*
X124301395Y-105600799D01*
X124279135Y-105556857D01*
X124276726Y-105530701D01*
X124291158Y-105482768D01*
X124296998Y-105474769D01*
X124333458Y-105440751D01*
X124351709Y-105428607D01*
X124396932Y-105404546D01*
X124426447Y-105392215D01*
X124471742Y-105373861D01*
X124518324Y-105353146D01*
X124524633Y-105350205D01*
X124570460Y-105325687D01*
X124613605Y-105296553D01*
X124619155Y-105292320D01*
X124656721Y-105256385D01*
X124685199Y-105216260D01*
X124690474Y-105206835D01*
X124709173Y-105157561D01*
X124716867Y-105108331D01*
X124717829Y-105081294D01*
X124713941Y-105027737D01*
X124702277Y-104978807D01*
X124680467Y-104930329D01*
X124678017Y-104926200D01*
X124646611Y-104884123D01*
X124607471Y-104848570D01*
X124565177Y-104821908D01*
X124517492Y-104801128D01*
X124465419Y-104787027D01*
X124414801Y-104780046D01*
X124397138Y-104778921D01*
X124344885Y-104780336D01*
X124290663Y-104785415D01*
X124242303Y-104794189D01*
X124194905Y-104808475D01*
X124147936Y-104827890D01*
X124104115Y-104849500D01*
X124059549Y-104875805D01*
X124055686Y-104878328D01*
X124132623Y-105033911D01*
G37*
G36*
X153515460Y-109193753D02*
G01*
X153515460Y-108491066D01*
X153319333Y-108491066D01*
X153319333Y-108990787D01*
X153099515Y-108990787D01*
X153099515Y-108548464D01*
X152903632Y-108548464D01*
X152903632Y-108990787D01*
X152680882Y-108990787D01*
X152680882Y-108471527D01*
X152485000Y-108471527D01*
X152485000Y-109193753D01*
X153515460Y-109193753D01*
G37*
G36*
X153266088Y-107711688D02*
G01*
X153288688Y-107756109D01*
X153308128Y-107801080D01*
X153319333Y-107831367D01*
X153332933Y-107879530D01*
X153339825Y-107928604D01*
X153340338Y-107945428D01*
X153335944Y-107994215D01*
X153318473Y-108041644D01*
X153313715Y-108048987D01*
X153275419Y-108079598D01*
X153234092Y-108086845D01*
X153185690Y-108072082D01*
X153168879Y-108058268D01*
X153137098Y-108018188D01*
X153117833Y-107984018D01*
X153096461Y-107937551D01*
X153077288Y-107889496D01*
X153057590Y-107842023D01*
X153037233Y-107800592D01*
X153011404Y-107758704D01*
X152979836Y-107721457D01*
X152941367Y-107690011D01*
X152897540Y-107666852D01*
X152894351Y-107665526D01*
X152845290Y-107651167D01*
X152796243Y-107645259D01*
X152769298Y-107644521D01*
X152716696Y-107649312D01*
X152666690Y-107663684D01*
X152623485Y-107685065D01*
X152584034Y-107714102D01*
X152549640Y-107750534D01*
X152520302Y-107794359D01*
X152515041Y-107804011D01*
X152495088Y-107850991D01*
X152481665Y-107903728D01*
X152475215Y-107955439D01*
X152473764Y-107997207D01*
X152476055Y-108049133D01*
X152482284Y-108098103D01*
X152485732Y-108117131D01*
X152497512Y-108166222D01*
X152513403Y-108214668D01*
X152522124Y-108236810D01*
X152544186Y-108283792D01*
X152570682Y-108329485D01*
X152584406Y-108350138D01*
X152742676Y-108260501D01*
X152714735Y-108217551D01*
X152695781Y-108181367D01*
X152676792Y-108135815D01*
X152664274Y-108095393D01*
X152654893Y-108046263D01*
X152653039Y-108015526D01*
X152658003Y-107965140D01*
X152663541Y-107942009D01*
X152684908Y-107896965D01*
X152699200Y-107880459D01*
X152743142Y-107858200D01*
X152769298Y-107855791D01*
X152817231Y-107870223D01*
X152825230Y-107876063D01*
X152859248Y-107912522D01*
X152871392Y-107930773D01*
X152895453Y-107975996D01*
X152907784Y-108005512D01*
X152926138Y-108050806D01*
X152946853Y-108097389D01*
X152949794Y-108103697D01*
X152974312Y-108149525D01*
X153003446Y-108192669D01*
X153007679Y-108198219D01*
X153043614Y-108235786D01*
X153083739Y-108264263D01*
X153093164Y-108269538D01*
X153142438Y-108288238D01*
X153191668Y-108295932D01*
X153218705Y-108296893D01*
X153272262Y-108293006D01*
X153321192Y-108281342D01*
X153369670Y-108259531D01*
X153373799Y-108257082D01*
X153415876Y-108225676D01*
X153451429Y-108186536D01*
X153478091Y-108144242D01*
X153498871Y-108096557D01*
X153512972Y-108044484D01*
X153519953Y-107993865D01*
X153521078Y-107976203D01*
X153519663Y-107923950D01*
X153514584Y-107869728D01*
X153505810Y-107821368D01*
X153491524Y-107773969D01*
X153472109Y-107727000D01*
X153450499Y-107683180D01*
X153424194Y-107638614D01*
X153421671Y-107634751D01*
X153266088Y-107711688D01*
G37*
G36*
X153207067Y-106739270D02*
G01*
X153255809Y-106746483D01*
X153306337Y-106761494D01*
X153352306Y-106783809D01*
X153375725Y-106799266D01*
X153413581Y-106832288D01*
X153445912Y-106871995D01*
X153472718Y-106918387D01*
X153477893Y-106929561D01*
X153495258Y-106977310D01*
X153507279Y-107029945D01*
X153513415Y-107080007D01*
X153515460Y-107133809D01*
X153515460Y-107445951D01*
X152485000Y-107445951D01*
X152485000Y-107242986D01*
X152811308Y-107242986D01*
X152811308Y-107098882D01*
X153008656Y-107098882D01*
X153008656Y-107242986D01*
X153319333Y-107242986D01*
X153319333Y-107097417D01*
X153316757Y-107060540D01*
X153301015Y-107012665D01*
X153292698Y-106999651D01*
X153256318Y-106965770D01*
X153251333Y-106962977D01*
X153203806Y-106945498D01*
X153162529Y-106940613D01*
X153116367Y-106948429D01*
X153109746Y-106950478D01*
X153065321Y-106973586D01*
X153055032Y-106981910D01*
X153024776Y-107021946D01*
X153014339Y-107049490D01*
X153008656Y-107098882D01*
X152811308Y-107098882D01*
X152811308Y-107097417D01*
X152811585Y-107078782D01*
X152815739Y-107026228D01*
X152826200Y-106973725D01*
X152842815Y-106927424D01*
X152859836Y-106894497D01*
X152890118Y-106851689D01*
X152926102Y-106816782D01*
X152949317Y-106799798D01*
X152995406Y-106773963D01*
X153041385Y-106756698D01*
X153065264Y-106750224D01*
X153116826Y-106740791D01*
X153168147Y-106737647D01*
X153207067Y-106739270D01*
G37*
G36*
X153515460Y-106171736D02*
G01*
X153515460Y-105477354D01*
X153319333Y-105477354D01*
X153319333Y-105727947D01*
X152485000Y-105727947D01*
X152485000Y-105930913D01*
X153319333Y-105930913D01*
X153319333Y-106171736D01*
X153515460Y-106171736D01*
G37*
G36*
X153515460Y-105365979D02*
G01*
X153515460Y-105107082D01*
X152485000Y-104435170D01*
X152485000Y-104696754D01*
X153515460Y-105365979D01*
G37*
G36*
X152485000Y-105380145D02*
G01*
X153061901Y-105013293D01*
X152857470Y-104918038D01*
X152485000Y-105128087D01*
X152485000Y-105380145D01*
G37*
G36*
X153137372Y-104904116D02*
G01*
X153515460Y-104691381D01*
X153515460Y-104444939D01*
X152962494Y-104799092D01*
X153137372Y-104904116D01*
G37*
G36*
X151515460Y-109334437D02*
G01*
X151515460Y-108631750D01*
X151319333Y-108631750D01*
X151319333Y-109131471D01*
X151099515Y-109131471D01*
X151099515Y-108689148D01*
X150903632Y-108689148D01*
X150903632Y-109131471D01*
X150680882Y-109131471D01*
X150680882Y-108612211D01*
X150485000Y-108612211D01*
X150485000Y-109334437D01*
X151515460Y-109334437D01*
G37*
G36*
X151266088Y-107852372D02*
G01*
X151288688Y-107896793D01*
X151308128Y-107941764D01*
X151319333Y-107972051D01*
X151332933Y-108020214D01*
X151339825Y-108069288D01*
X151340338Y-108086112D01*
X151335944Y-108134899D01*
X151318473Y-108182328D01*
X151313715Y-108189671D01*
X151275419Y-108220282D01*
X151234092Y-108227529D01*
X151185690Y-108212766D01*
X151168879Y-108198952D01*
X151137098Y-108158872D01*
X151117833Y-108124702D01*
X151096461Y-108078235D01*
X151077288Y-108030180D01*
X151057590Y-107982707D01*
X151037233Y-107941276D01*
X151011404Y-107899388D01*
X150979836Y-107862141D01*
X150941367Y-107830695D01*
X150897540Y-107807536D01*
X150894351Y-107806210D01*
X150845290Y-107791851D01*
X150796243Y-107785943D01*
X150769298Y-107785205D01*
X150716696Y-107789996D01*
X150666690Y-107804368D01*
X150623485Y-107825749D01*
X150584034Y-107854786D01*
X150549640Y-107891218D01*
X150520302Y-107935043D01*
X150515041Y-107944695D01*
X150495088Y-107991675D01*
X150481665Y-108044412D01*
X150475215Y-108096123D01*
X150473764Y-108137891D01*
X150476055Y-108189817D01*
X150482284Y-108238787D01*
X150485732Y-108257815D01*
X150497512Y-108306906D01*
X150513403Y-108355352D01*
X150522124Y-108377494D01*
X150544186Y-108424476D01*
X150570682Y-108470169D01*
X150584406Y-108490822D01*
X150742676Y-108401185D01*
X150714735Y-108358235D01*
X150695781Y-108322051D01*
X150676792Y-108276499D01*
X150664274Y-108236077D01*
X150654893Y-108186947D01*
X150653039Y-108156210D01*
X150658003Y-108105824D01*
X150663541Y-108082693D01*
X150684908Y-108037649D01*
X150699200Y-108021143D01*
X150743142Y-107998884D01*
X150769298Y-107996475D01*
X150817231Y-108010907D01*
X150825230Y-108016747D01*
X150859248Y-108053206D01*
X150871392Y-108071457D01*
X150895453Y-108116680D01*
X150907784Y-108146196D01*
X150926138Y-108191490D01*
X150946853Y-108238073D01*
X150949794Y-108244381D01*
X150974312Y-108290209D01*
X151003446Y-108333353D01*
X151007679Y-108338903D01*
X151043614Y-108376470D01*
X151083739Y-108404947D01*
X151093164Y-108410222D01*
X151142438Y-108428922D01*
X151191668Y-108436616D01*
X151218705Y-108437577D01*
X151272262Y-108433690D01*
X151321192Y-108422026D01*
X151369670Y-108400215D01*
X151373799Y-108397766D01*
X151415876Y-108366360D01*
X151451429Y-108327220D01*
X151478091Y-108284926D01*
X151498871Y-108237241D01*
X151512972Y-108185168D01*
X151519953Y-108134549D01*
X151521078Y-108116887D01*
X151519663Y-108064634D01*
X151514584Y-108010412D01*
X151505810Y-107962052D01*
X151491524Y-107914653D01*
X151472109Y-107867684D01*
X151450499Y-107823864D01*
X151424194Y-107779298D01*
X151421671Y-107775435D01*
X151266088Y-107852372D01*
G37*
G36*
X151207067Y-106879954D02*
G01*
X151255809Y-106887167D01*
X151306337Y-106902178D01*
X151352306Y-106924493D01*
X151375725Y-106939950D01*
X151413581Y-106972972D01*
X151445912Y-107012679D01*
X151472718Y-107059071D01*
X151477893Y-107070245D01*
X151495258Y-107117994D01*
X151507279Y-107170629D01*
X151513415Y-107220691D01*
X151515460Y-107274493D01*
X151515460Y-107586635D01*
X150485000Y-107586635D01*
X150485000Y-107383670D01*
X150811308Y-107383670D01*
X150811308Y-107239566D01*
X151008656Y-107239566D01*
X151008656Y-107383670D01*
X151319333Y-107383670D01*
X151319333Y-107238101D01*
X151316757Y-107201224D01*
X151301015Y-107153349D01*
X151292698Y-107140335D01*
X151256318Y-107106454D01*
X151251333Y-107103661D01*
X151203806Y-107086182D01*
X151162529Y-107081297D01*
X151116367Y-107089113D01*
X151109746Y-107091162D01*
X151065321Y-107114270D01*
X151055032Y-107122594D01*
X151024776Y-107162630D01*
X151014339Y-107190174D01*
X151008656Y-107239566D01*
X150811308Y-107239566D01*
X150811308Y-107238101D01*
X150811585Y-107219466D01*
X150815739Y-107166912D01*
X150826200Y-107114409D01*
X150842815Y-107068108D01*
X150859836Y-107035181D01*
X150890118Y-106992373D01*
X150926102Y-106957466D01*
X150949317Y-106940482D01*
X150995406Y-106914647D01*
X151041385Y-106897382D01*
X151065264Y-106890908D01*
X151116826Y-106881475D01*
X151168147Y-106878331D01*
X151207067Y-106879954D01*
G37*
G36*
X150859561Y-105689966D02*
G01*
X150861057Y-105687037D01*
X150891339Y-105643439D01*
X150927323Y-105607536D01*
X150953915Y-105587660D01*
X150996436Y-105563457D01*
X151042117Y-105545986D01*
X151065748Y-105539512D01*
X151116947Y-105530080D01*
X151168147Y-105526935D01*
X151211797Y-105529041D01*
X151261684Y-105537335D01*
X151311762Y-105553558D01*
X151342490Y-105568411D01*
X151384290Y-105596472D01*
X151420938Y-105631471D01*
X151447280Y-105665785D01*
X151471518Y-105709094D01*
X151490792Y-105758233D01*
X151496573Y-105777429D01*
X151507655Y-105828291D01*
X151513509Y-105877574D01*
X151515460Y-105930180D01*
X151515460Y-106242323D01*
X150485000Y-106242323D01*
X150485000Y-106039357D01*
X150812529Y-106039357D01*
X150812529Y-105904206D01*
X150799051Y-105895254D01*
X151008656Y-105895254D01*
X151008656Y-106039357D01*
X151319333Y-106039357D01*
X151319333Y-105893788D01*
X151316757Y-105856911D01*
X151301015Y-105809036D01*
X151292698Y-105796023D01*
X151256318Y-105762141D01*
X151251333Y-105759348D01*
X151203806Y-105741869D01*
X151161308Y-105736984D01*
X151112948Y-105744800D01*
X151106506Y-105746849D01*
X151063122Y-105769957D01*
X151053155Y-105778282D01*
X151024043Y-105818317D01*
X151014081Y-105845861D01*
X151008656Y-105895254D01*
X150799051Y-105895254D01*
X150485000Y-105686670D01*
X150485000Y-105449999D01*
X150859561Y-105689966D01*
G37*
G36*
X151515460Y-105365979D02*
G01*
X151515460Y-105107082D01*
X150485000Y-104435170D01*
X150485000Y-104696754D01*
X151515460Y-105365979D01*
G37*
G36*
X150485000Y-105380145D02*
G01*
X151061901Y-105013293D01*
X150857470Y-104918038D01*
X150485000Y-105128087D01*
X150485000Y-105380145D01*
G37*
G36*
X151137372Y-104904116D02*
G01*
X151515460Y-104691381D01*
X151515460Y-104444940D01*
X150962494Y-104799092D01*
X151137372Y-104904116D01*
G37*
G36*
X151843039Y-112719685D02*
G01*
X151888794Y-112772489D01*
X151900000Y-112824000D01*
X151900000Y-115876000D01*
X151880315Y-115943039D01*
X151827511Y-115988794D01*
X151776000Y-116000000D01*
X144424000Y-116000000D01*
X144356961Y-115980315D01*
X144311206Y-115927511D01*
X144300000Y-115876000D01*
X144300000Y-115558446D01*
X144699000Y-115558446D01*
X144845372Y-115412074D01*
X145197509Y-115412074D01*
X145386435Y-115601000D01*
X145718521Y-115601000D01*
X145907446Y-115412074D01*
X146259584Y-115412074D01*
X146448510Y-115601000D01*
X146780596Y-115601000D01*
X146969521Y-115412074D01*
X147321658Y-115412074D01*
X147510584Y-115601000D01*
X147842670Y-115601000D01*
X148031595Y-115412074D01*
X148383733Y-115412074D01*
X148572659Y-115601000D01*
X148904745Y-115601000D01*
X149093670Y-115412074D01*
X149445807Y-115412074D01*
X149634733Y-115601000D01*
X149966819Y-115601000D01*
X150155744Y-115412074D01*
X150507881Y-115412074D01*
X150696807Y-115601000D01*
X151028893Y-115601000D01*
X151217818Y-115412074D01*
X150862850Y-115057106D01*
X150507881Y-115412074D01*
X150155744Y-115412074D01*
X149800776Y-115057106D01*
X149445807Y-115412074D01*
X149093670Y-115412074D01*
X148738701Y-115057105D01*
X148383733Y-115412074D01*
X148031595Y-115412074D01*
X147676627Y-115057106D01*
X147321658Y-115412074D01*
X146969521Y-115412074D01*
X146614553Y-115057106D01*
X146259584Y-115412074D01*
X145907446Y-115412074D01*
X145552478Y-115057106D01*
X145197509Y-115412074D01*
X144845372Y-115412074D01*
X144699000Y-115265702D01*
X144699000Y-115558446D01*
X144300000Y-115558446D01*
X144300000Y-114848510D01*
X144699000Y-114848510D01*
X144699000Y-114913564D01*
X145021441Y-115236005D01*
X145376409Y-114881037D01*
X145728548Y-114881037D01*
X146083516Y-115236005D01*
X146438484Y-114881037D01*
X146790622Y-114881037D01*
X147145590Y-115236005D01*
X147500558Y-114881037D01*
X147852696Y-114881037D01*
X148207664Y-115236005D01*
X148562632Y-114881037D01*
X148914771Y-114881037D01*
X149269739Y-115236005D01*
X149624707Y-114881037D01*
X149976845Y-114881037D01*
X150331813Y-115236005D01*
X150686781Y-114881037D01*
X151038919Y-114881037D01*
X151393887Y-115236005D01*
X151501000Y-115128893D01*
X151501000Y-114633181D01*
X151393887Y-114526068D01*
X151038919Y-114881037D01*
X150686781Y-114881037D01*
X150331813Y-114526069D01*
X149976845Y-114881037D01*
X149624707Y-114881037D01*
X149269739Y-114526069D01*
X148914771Y-114881037D01*
X148562632Y-114881037D01*
X148207664Y-114526069D01*
X147852696Y-114881037D01*
X147500558Y-114881037D01*
X147145590Y-114526069D01*
X146790622Y-114881037D01*
X146438484Y-114881037D01*
X146083516Y-114526069D01*
X145728548Y-114881037D01*
X145376409Y-114881037D01*
X145021441Y-114526069D01*
X144699000Y-114848510D01*
X144300000Y-114848510D01*
X144300000Y-114496372D01*
X144699000Y-114496372D01*
X144845372Y-114350000D01*
X145197510Y-114350000D01*
X145552478Y-114704968D01*
X145907446Y-114350000D01*
X146259585Y-114350000D01*
X146614553Y-114704968D01*
X146969521Y-114350000D01*
X147321659Y-114350000D01*
X147676627Y-114704968D01*
X148031595Y-114350000D01*
X148383733Y-114350000D01*
X148738701Y-114704968D01*
X149093670Y-114350000D01*
X149445808Y-114350000D01*
X149800776Y-114704968D01*
X150155744Y-114350000D01*
X150507882Y-114350000D01*
X150862850Y-114704968D01*
X151217818Y-114350000D01*
X150862850Y-113995032D01*
X150507882Y-114350000D01*
X150155744Y-114350000D01*
X149800776Y-113995032D01*
X149445808Y-114350000D01*
X149093670Y-114350000D01*
X148738701Y-113995031D01*
X148383733Y-114350000D01*
X148031595Y-114350000D01*
X147676627Y-113995032D01*
X147321659Y-114350000D01*
X146969521Y-114350000D01*
X146614553Y-113995032D01*
X146259585Y-114350000D01*
X145907446Y-114350000D01*
X145552478Y-113995032D01*
X145197510Y-114350000D01*
X144845372Y-114350000D01*
X144699000Y-114203628D01*
X144699000Y-114496372D01*
X144300000Y-114496372D01*
X144300000Y-113786436D01*
X144699000Y-113786436D01*
X144699000Y-113851490D01*
X145021441Y-114173931D01*
X145376409Y-113818963D01*
X145728548Y-113818963D01*
X146083516Y-114173931D01*
X146438484Y-113818963D01*
X146790622Y-113818963D01*
X147145590Y-114173931D01*
X147500558Y-113818963D01*
X147852696Y-113818963D01*
X148207664Y-114173931D01*
X148562632Y-113818963D01*
X148914771Y-113818963D01*
X149269739Y-114173931D01*
X149624707Y-113818963D01*
X149976845Y-113818963D01*
X150331813Y-114173931D01*
X150686781Y-113818963D01*
X151038919Y-113818963D01*
X151393887Y-114173931D01*
X151501000Y-114066819D01*
X151501000Y-113571107D01*
X151393887Y-113463994D01*
X151038919Y-113818963D01*
X150686781Y-113818963D01*
X150331813Y-113463995D01*
X149976845Y-113818963D01*
X149624707Y-113818963D01*
X149269739Y-113463995D01*
X148914771Y-113818963D01*
X148562632Y-113818963D01*
X148207664Y-113463995D01*
X147852696Y-113818963D01*
X147500558Y-113818963D01*
X147145590Y-113463995D01*
X146790622Y-113818963D01*
X146438484Y-113818963D01*
X146083516Y-113463995D01*
X145728548Y-113818963D01*
X145376409Y-113818963D01*
X145021441Y-113463995D01*
X144699000Y-113786436D01*
X144300000Y-113786436D01*
X144300000Y-113434298D01*
X144699000Y-113434298D01*
X144845372Y-113287926D01*
X145197510Y-113287926D01*
X145552478Y-113642894D01*
X145907446Y-113287926D01*
X146259585Y-113287926D01*
X146614553Y-113642894D01*
X146969521Y-113287926D01*
X147321659Y-113287926D01*
X147676627Y-113642894D01*
X148031595Y-113287926D01*
X148383733Y-113287926D01*
X148738701Y-113642894D01*
X149093670Y-113287926D01*
X149445808Y-113287926D01*
X149800776Y-113642894D01*
X150155744Y-113287926D01*
X150507882Y-113287926D01*
X150862850Y-113642894D01*
X151217818Y-113287926D01*
X151028892Y-113099000D01*
X150696808Y-113099000D01*
X150507882Y-113287926D01*
X150155744Y-113287926D01*
X149966818Y-113099000D01*
X149634734Y-113099000D01*
X149445808Y-113287926D01*
X149093670Y-113287926D01*
X148904744Y-113099000D01*
X148572660Y-113099000D01*
X148383733Y-113287926D01*
X148031595Y-113287926D01*
X147842669Y-113099000D01*
X147510585Y-113099000D01*
X147321659Y-113287926D01*
X146969521Y-113287926D01*
X146780595Y-113099000D01*
X146448511Y-113099000D01*
X146259585Y-113287926D01*
X145907446Y-113287926D01*
X145718520Y-113099000D01*
X145386436Y-113099000D01*
X145197510Y-113287926D01*
X144845372Y-113287926D01*
X144699000Y-113141554D01*
X144699000Y-113434298D01*
X144300000Y-113434298D01*
X144300000Y-112824000D01*
X144319685Y-112756961D01*
X144372489Y-112711206D01*
X144424000Y-112700000D01*
X151776000Y-112700000D01*
X151843039Y-112719685D01*
G37*
%LPC*%
D13*
G36*
X158780460Y-114160606D02*
G01*
X158780460Y-113457919D01*
X158584333Y-113457919D01*
X158584333Y-113957640D01*
X158364515Y-113957640D01*
X158364515Y-113515317D01*
X158168632Y-113515317D01*
X158168632Y-113957640D01*
X157945882Y-113957640D01*
X157945882Y-113438380D01*
X157750000Y-113438380D01*
X157750000Y-114160606D01*
X158780460Y-114160606D01*
G37*
G36*
X158780460Y-113228575D02*
G01*
X158780460Y-113025610D01*
X157945882Y-113025610D01*
X157945882Y-112541276D01*
X157750000Y-112541276D01*
X157750000Y-113228575D01*
X158780460Y-113228575D01*
G37*
G36*
X158124561Y-111779359D02*
G01*
X158126057Y-111776430D01*
X158156339Y-111732832D01*
X158192323Y-111696929D01*
X158218915Y-111677053D01*
X158261436Y-111652850D01*
X158307117Y-111635379D01*
X158330748Y-111628905D01*
X158381947Y-111619473D01*
X158433147Y-111616328D01*
X158476797Y-111618434D01*
X158526684Y-111626728D01*
X158576762Y-111642951D01*
X158607490Y-111657804D01*
X158649290Y-111685865D01*
X158685938Y-111720864D01*
X158712280Y-111755178D01*
X158736518Y-111798487D01*
X158755792Y-111847626D01*
X158761573Y-111866822D01*
X158772655Y-111917684D01*
X158778509Y-111966967D01*
X158780460Y-112019573D01*
X158780460Y-112331716D01*
X157750000Y-112331716D01*
X157750000Y-112128750D01*
X158077529Y-112128750D01*
X158077529Y-111993599D01*
X158064051Y-111984647D01*
X158273656Y-111984647D01*
X158273656Y-112128750D01*
X158584333Y-112128750D01*
X158584333Y-111983181D01*
X158581757Y-111946304D01*
X158566015Y-111898429D01*
X158557698Y-111885416D01*
X158521318Y-111851534D01*
X158516333Y-111848741D01*
X158468806Y-111831262D01*
X158426308Y-111826377D01*
X158377948Y-111834193D01*
X158371506Y-111836242D01*
X158328122Y-111859350D01*
X158318155Y-111867675D01*
X158289043Y-111907710D01*
X158279081Y-111935254D01*
X158273656Y-111984647D01*
X158064051Y-111984647D01*
X157750000Y-111776063D01*
X157750000Y-111539392D01*
X158124561Y-111779359D01*
G37*
G36*
X158531088Y-110821318D02*
G01*
X158553688Y-110865740D01*
X158573128Y-110910711D01*
X158584333Y-110940997D01*
X158597933Y-110989161D01*
X158604825Y-111038234D01*
X158605338Y-111055058D01*
X158600944Y-111103845D01*
X158583473Y-111151274D01*
X158578715Y-111158617D01*
X158540419Y-111189229D01*
X158499092Y-111196475D01*
X158450690Y-111181712D01*
X158433879Y-111167899D01*
X158402098Y-111127819D01*
X158382833Y-111093649D01*
X158361461Y-111047182D01*
X158342288Y-110999127D01*
X158322590Y-110951653D01*
X158302233Y-110910222D01*
X158276404Y-110868335D01*
X158244836Y-110831088D01*
X158206367Y-110799641D01*
X158162540Y-110776482D01*
X158159351Y-110775156D01*
X158110290Y-110760797D01*
X158061243Y-110754890D01*
X158034298Y-110754151D01*
X157981696Y-110758942D01*
X157931690Y-110773315D01*
X157888485Y-110794695D01*
X157849034Y-110823733D01*
X157814640Y-110860164D01*
X157785302Y-110903989D01*
X157780041Y-110913642D01*
X157760088Y-110960622D01*
X157746665Y-111013359D01*
X157740215Y-111065069D01*
X157738764Y-111106838D01*
X157741055Y-111158763D01*
X157747284Y-111207733D01*
X157750732Y-111226761D01*
X157762512Y-111275852D01*
X157778403Y-111324298D01*
X157787124Y-111346440D01*
X157809186Y-111393422D01*
X157835682Y-111439115D01*
X157849406Y-111459769D01*
X158007676Y-111370132D01*
X157979735Y-111327181D01*
X157960781Y-111290997D01*
X157941792Y-111245445D01*
X157929274Y-111205023D01*
X157919893Y-111155894D01*
X157918039Y-111125156D01*
X157923003Y-111074770D01*
X157928541Y-111051639D01*
X157949908Y-111006595D01*
X157964200Y-110990090D01*
X158008142Y-110967830D01*
X158034298Y-110965421D01*
X158082231Y-110979853D01*
X158090230Y-110985693D01*
X158124248Y-111022153D01*
X158136392Y-111040404D01*
X158160453Y-111085627D01*
X158172784Y-111115142D01*
X158191138Y-111160437D01*
X158211853Y-111207019D01*
X158214794Y-111213328D01*
X158239312Y-111259155D01*
X158268446Y-111302300D01*
X158272679Y-111307850D01*
X158308614Y-111345416D01*
X158348739Y-111373894D01*
X158358164Y-111379169D01*
X158407438Y-111397868D01*
X158456668Y-111405562D01*
X158483705Y-111406524D01*
X158537262Y-111402636D01*
X158586192Y-111390972D01*
X158634670Y-111369162D01*
X158638799Y-111366712D01*
X158680876Y-111335307D01*
X158716429Y-111296166D01*
X158743091Y-111253872D01*
X158763871Y-111206187D01*
X158777972Y-111154114D01*
X158784953Y-111103496D01*
X158786078Y-111085833D01*
X158784663Y-111033580D01*
X158779584Y-110979358D01*
X158770810Y-110930998D01*
X158756524Y-110883600D01*
X158737109Y-110836631D01*
X158715499Y-110792810D01*
X158689194Y-110748244D01*
X158686671Y-110744381D01*
X158531088Y-110821318D01*
G37*
G36*
X158531088Y-109551255D02*
G01*
X158553688Y-109595677D01*
X158573128Y-109640648D01*
X158584333Y-109670934D01*
X158597933Y-109719098D01*
X158604825Y-109768172D01*
X158605338Y-109784996D01*
X158600944Y-109833783D01*
X158583473Y-109881211D01*
X158578715Y-109888555D01*
X158540419Y-109919166D01*
X158499092Y-109926412D01*
X158450690Y-109911650D01*
X158433879Y-109897836D01*
X158402098Y-109857756D01*
X158382833Y-109823586D01*
X158361461Y-109777119D01*
X158342288Y-109729064D01*
X158322590Y-109681590D01*
X158302233Y-109640160D01*
X158276404Y-109598272D01*
X158244836Y-109561025D01*
X158206367Y-109529579D01*
X158162540Y-109506420D01*
X158159351Y-109505093D01*
X158110290Y-109490734D01*
X158061243Y-109484827D01*
X158034298Y-109484088D01*
X157981696Y-109488879D01*
X157931690Y-109503252D01*
X157888485Y-109524633D01*
X157849034Y-109553670D01*
X157814640Y-109590101D01*
X157785302Y-109633927D01*
X157780041Y-109643579D01*
X157760088Y-109690559D01*
X157746665Y-109743296D01*
X157740215Y-109795007D01*
X157738764Y-109836775D01*
X157741055Y-109888700D01*
X157747284Y-109937670D01*
X157750732Y-109956698D01*
X157762512Y-110005789D01*
X157778403Y-110054235D01*
X157787124Y-110076377D01*
X157809186Y-110123360D01*
X157835682Y-110169052D01*
X157849406Y-110189706D01*
X158007676Y-110100069D01*
X157979735Y-110057118D01*
X157960781Y-110020934D01*
X157941792Y-109975382D01*
X157929274Y-109934961D01*
X157919893Y-109885831D01*
X157918039Y-109855093D01*
X157923003Y-109804708D01*
X157928541Y-109781576D01*
X157949908Y-109736532D01*
X157964200Y-109720027D01*
X158008142Y-109697767D01*
X158034298Y-109695358D01*
X158082231Y-109709790D01*
X158090230Y-109715631D01*
X158124248Y-109752090D01*
X158136392Y-109770341D01*
X158160453Y-109815564D01*
X158172784Y-109845079D01*
X158191138Y-109890374D01*
X158211853Y-109936957D01*
X158214794Y-109943265D01*
X158239312Y-109989093D01*
X158268446Y-110032237D01*
X158272679Y-110037787D01*
X158308614Y-110075354D01*
X158348739Y-110103831D01*
X158358164Y-110109106D01*
X158407438Y-110127806D01*
X158456668Y-110135499D01*
X158483705Y-110136461D01*
X158537262Y-110132573D01*
X158586192Y-110120910D01*
X158634670Y-110099099D01*
X158638799Y-110096649D01*
X158680876Y-110065244D01*
X158716429Y-110026103D01*
X158743091Y-109983809D01*
X158763871Y-109936125D01*
X158777972Y-109884051D01*
X158784953Y-109833433D01*
X158786078Y-109815770D01*
X158784663Y-109763517D01*
X158779584Y-109709296D01*
X158770810Y-109660935D01*
X158756524Y-109613537D01*
X158737109Y-109566568D01*
X158715499Y-109522747D01*
X158689194Y-109478181D01*
X158686671Y-109474319D01*
X158531088Y-109551255D01*
G37*
G36*
X158361828Y-109317759D02*
G01*
X158361828Y-109121876D01*
X157750000Y-109121876D01*
X157750000Y-109317759D01*
X158361828Y-109317759D01*
G37*
G36*
X158575540Y-109322155D02*
G01*
X158623778Y-109308798D01*
X158646859Y-109287961D01*
X158670997Y-109243005D01*
X158674947Y-109214200D01*
X158662851Y-109165539D01*
X158646859Y-109142148D01*
X158605949Y-109113812D01*
X158575540Y-109109176D01*
X158527493Y-109122056D01*
X158504710Y-109142148D01*
X158481411Y-109185750D01*
X158477599Y-109214200D01*
X158489275Y-109263708D01*
X158504710Y-109287961D01*
X158545201Y-109317347D01*
X158575540Y-109322155D01*
G37*
G36*
X158361828Y-108742323D02*
G01*
X158254117Y-108726936D01*
X158262421Y-108729866D01*
X158304736Y-108700031D01*
X158339357Y-108665112D01*
X158358164Y-108639008D01*
X158379150Y-108594815D01*
X158390450Y-108544303D01*
X158392602Y-108507117D01*
X158388604Y-108457036D01*
X158378436Y-108418457D01*
X158355787Y-108374894D01*
X158337159Y-108353244D01*
X158294529Y-108325560D01*
X158266573Y-108316852D01*
X158265108Y-108323691D01*
X158304996Y-108292115D01*
X158338564Y-108256005D01*
X158357431Y-108229413D01*
X158380203Y-108183599D01*
X158391744Y-108132549D01*
X158392602Y-108113886D01*
X158387617Y-108060596D01*
X158370618Y-108010407D01*
X158341556Y-107969050D01*
X158302882Y-107938145D01*
X158257051Y-107919651D01*
X158209176Y-107913607D01*
X157750000Y-107913607D01*
X157750000Y-108108268D01*
X158128087Y-108108268D01*
X158176909Y-108114681D01*
X158194521Y-108120725D01*
X158222064Y-108162826D01*
X158223098Y-108172504D01*
X158212665Y-108221448D01*
X158190125Y-108253104D01*
X158150181Y-108283382D01*
X158106350Y-108302197D01*
X158057688Y-108313768D01*
X158007417Y-108318254D01*
X158000593Y-108318317D01*
X157750000Y-108318317D01*
X157750000Y-108514200D01*
X158128087Y-108514200D01*
X158176909Y-108521872D01*
X158194521Y-108529099D01*
X158221692Y-108570830D01*
X158223098Y-108582832D01*
X158211474Y-108632483D01*
X158190125Y-108660501D01*
X158150319Y-108689635D01*
X158106838Y-108708129D01*
X158059025Y-108719699D01*
X158009924Y-108724186D01*
X158003279Y-108724249D01*
X157750000Y-108724249D01*
X157750000Y-108920132D01*
X158361828Y-108920132D01*
X158361828Y-108742323D01*
G37*
G36*
X158531088Y-106676028D02*
G01*
X158553688Y-106720450D01*
X158573128Y-106765421D01*
X158584333Y-106795707D01*
X158597933Y-106843871D01*
X158604825Y-106892945D01*
X158605338Y-106909769D01*
X158600944Y-106958556D01*
X158583473Y-107005985D01*
X158578715Y-107013328D01*
X158540419Y-107043939D01*
X158499092Y-107051185D01*
X158450690Y-107036423D01*
X158433879Y-107022609D01*
X158402098Y-106982529D01*
X158382833Y-106948359D01*
X158361461Y-106901892D01*
X158342288Y-106853837D01*
X158322590Y-106806363D01*
X158302233Y-106764933D01*
X158276404Y-106723045D01*
X158244836Y-106685798D01*
X158206367Y-106654352D01*
X158162540Y-106631193D01*
X158159351Y-106629866D01*
X158110290Y-106615508D01*
X158061243Y-106609600D01*
X158034298Y-106608862D01*
X157981696Y-106613652D01*
X157931690Y-106628025D01*
X157888485Y-106649406D01*
X157849034Y-106678443D01*
X157814640Y-106714874D01*
X157785302Y-106758700D01*
X157780041Y-106768352D01*
X157760088Y-106815332D01*
X157746665Y-106868069D01*
X157740215Y-106919780D01*
X157738764Y-106961548D01*
X157741055Y-107013474D01*
X157747284Y-107062444D01*
X157750732Y-107081471D01*
X157762512Y-107130562D01*
X157778403Y-107179008D01*
X157787124Y-107201150D01*
X157809186Y-107248133D01*
X157835682Y-107293825D01*
X157849406Y-107314479D01*
X158007676Y-107224842D01*
X157979735Y-107181892D01*
X157960781Y-107145707D01*
X157941792Y-107100156D01*
X157929274Y-107059734D01*
X157919893Y-107010604D01*
X157918039Y-106979866D01*
X157923003Y-106929481D01*
X157928541Y-106906349D01*
X157949908Y-106861306D01*
X157964200Y-106844800D01*
X158008142Y-106822541D01*
X158034298Y-106820132D01*
X158082231Y-106834564D01*
X158090230Y-106840404D01*
X158124248Y-106876863D01*
X158136392Y-106895114D01*
X158160453Y-106940337D01*
X158172784Y-106969852D01*
X158191138Y-107015147D01*
X158211853Y-107061730D01*
X158214794Y-107068038D01*
X158239312Y-107113866D01*
X158268446Y-107157010D01*
X158272679Y-107162560D01*
X158308614Y-107200127D01*
X158348739Y-107228604D01*
X158358164Y-107233879D01*
X158407438Y-107252579D01*
X158456668Y-107260272D01*
X158483705Y-107261234D01*
X158537262Y-107257346D01*
X158586192Y-107245683D01*
X158634670Y-107223872D01*
X158638799Y-107221423D01*
X158680876Y-107190017D01*
X158716429Y-107150877D01*
X158743091Y-107108582D01*
X158763871Y-107060898D01*
X158777972Y-107008824D01*
X158784953Y-106958206D01*
X158786078Y-106940543D01*
X158784663Y-106888291D01*
X158779584Y-106834069D01*
X158770810Y-106785709D01*
X158756524Y-106738310D01*
X158737109Y-106691341D01*
X158715499Y-106647521D01*
X158689194Y-106602954D01*
X158686671Y-106599092D01*
X158531088Y-106676028D01*
G37*
G36*
X158630495Y-106385135D02*
G01*
X158630495Y-106189252D01*
X158364515Y-106189252D01*
X158364515Y-106040753D01*
X158212107Y-106040753D01*
X158212107Y-106189252D01*
X157750000Y-106189252D01*
X157750000Y-106385135D01*
X158212107Y-106385135D01*
X158212107Y-106480390D01*
X158364515Y-106480390D01*
X158364515Y-106385135D01*
X158630495Y-106385135D01*
G37*
G36*
X158361828Y-105891520D02*
G01*
X158361828Y-105695638D01*
X157750000Y-105695638D01*
X157750000Y-105891520D01*
X158361828Y-105891520D01*
G37*
G36*
X158575540Y-105895917D02*
G01*
X158623778Y-105882560D01*
X158646859Y-105861723D01*
X158670997Y-105816767D01*
X158674947Y-105787961D01*
X158662851Y-105739300D01*
X158646859Y-105715910D01*
X158605949Y-105687574D01*
X158575540Y-105682937D01*
X158527493Y-105695817D01*
X158504710Y-105715910D01*
X158481411Y-105759511D01*
X158477599Y-105787961D01*
X158489275Y-105837469D01*
X158504710Y-105861723D01*
X158545201Y-105891108D01*
X158575540Y-105895917D01*
G37*
G36*
X157804710Y-104974633D02*
G01*
X157777222Y-105017151D01*
X157756505Y-105064969D01*
X157752686Y-105076238D01*
X157740035Y-105125288D01*
X157733624Y-105177301D01*
X157733147Y-105195672D01*
X157735543Y-105246490D01*
X157743969Y-105299609D01*
X157758461Y-105348440D01*
X157771493Y-105378610D01*
X157798880Y-105423743D01*
X157832802Y-105462054D01*
X157873259Y-105493543D01*
X157882135Y-105499022D01*
X157930230Y-105521433D01*
X157978491Y-105534506D01*
X158031466Y-105540856D01*
X158056524Y-105541520D01*
X158105800Y-105538635D01*
X158156711Y-105528492D01*
X158202830Y-105511046D01*
X158230914Y-105495358D01*
X158272607Y-105463717D01*
X158307621Y-105426493D01*
X158335957Y-105383689D01*
X158340823Y-105374458D01*
X158360787Y-105326831D01*
X158373357Y-105277677D01*
X158378533Y-105226997D01*
X158378681Y-105216677D01*
X158376486Y-105167204D01*
X158369003Y-105117687D01*
X158356210Y-105073307D01*
X158335655Y-105026638D01*
X158308380Y-104982960D01*
X158297348Y-104969015D01*
X158171318Y-105064270D01*
X158197806Y-105107849D01*
X158202826Y-105118247D01*
X158216679Y-105165665D01*
X158218946Y-105198603D01*
X158209900Y-105248873D01*
X158197941Y-105272853D01*
X158163745Y-105310881D01*
X158140544Y-105326098D01*
X158093367Y-105342413D01*
X158056524Y-105345638D01*
X158005858Y-105338233D01*
X157973970Y-105324633D01*
X157934697Y-105294006D01*
X157914375Y-105266503D01*
X157896996Y-105220564D01*
X157892882Y-105179064D01*
X157898847Y-105129899D01*
X157901919Y-105119469D01*
X157925732Y-105075047D01*
X157927808Y-105072574D01*
X157804710Y-104974633D01*
G37*
G36*
X157750000Y-104823691D02*
G01*
X158854710Y-104823691D01*
X158854710Y-104627808D01*
X157750000Y-104627808D01*
X157750000Y-104823691D01*
G37*
G36*
X158165701Y-104472469D02*
G01*
X157750000Y-104195254D01*
X157750000Y-104423377D01*
X158053838Y-104601185D01*
X158165701Y-104472469D01*
G37*
G36*
X157919504Y-104686670D02*
G01*
X158105617Y-104706210D01*
X158377215Y-104336670D01*
X158272191Y-104217480D01*
X157919504Y-104686670D01*
G37*
G36*
X157100460Y-110813991D02*
G01*
X156358450Y-110513084D01*
X156382142Y-110630564D01*
X157100460Y-110357745D01*
X157100460Y-110116922D01*
X156022372Y-110587333D01*
X157100460Y-111057745D01*
X157100460Y-110813991D01*
G37*
G36*
X156590118Y-108789713D02*
G01*
X156644909Y-108795003D01*
X156695761Y-108804139D01*
X156748262Y-108819015D01*
X156764661Y-108824989D01*
X156810613Y-108845359D01*
X156855960Y-108872297D01*
X156895296Y-108903767D01*
X156928670Y-108939020D01*
X156958548Y-108981656D01*
X156981270Y-109028331D01*
X156997261Y-109077956D01*
X157006615Y-109129774D01*
X157009357Y-109178785D01*
X157009335Y-109184024D01*
X157006616Y-109235076D01*
X156999365Y-109283696D01*
X156986154Y-109334368D01*
X156968704Y-109377105D01*
X156942347Y-109419874D01*
X156908485Y-109458199D01*
X156897957Y-109467841D01*
X156858306Y-109497035D01*
X156811642Y-109521698D01*
X156763649Y-109540020D01*
X156752181Y-109543569D01*
X156702875Y-109555476D01*
X156648073Y-109563719D01*
X156595613Y-109567927D01*
X156538946Y-109569329D01*
X156487773Y-109567857D01*
X156432983Y-109562567D01*
X156382131Y-109553431D01*
X156329630Y-109538555D01*
X156313231Y-109532583D01*
X156267279Y-109512245D01*
X156221932Y-109485388D01*
X156182595Y-109454047D01*
X156149327Y-109418689D01*
X156119453Y-109376048D01*
X156096622Y-109329483D01*
X156080631Y-109279719D01*
X156071277Y-109227819D01*
X156068616Y-109180250D01*
X156263196Y-109180250D01*
X156263776Y-109196950D01*
X156273673Y-109244900D01*
X156300321Y-109288206D01*
X156310006Y-109297605D01*
X156353533Y-109326260D01*
X156400460Y-109342672D01*
X156437007Y-109350110D01*
X156489162Y-109356241D01*
X156540411Y-109358059D01*
X156577918Y-109357097D01*
X156630571Y-109352048D01*
X156678897Y-109342672D01*
X156690260Y-109339578D01*
X156737384Y-109319636D01*
X156777083Y-109288206D01*
X156785612Y-109277917D01*
X156807469Y-109231177D01*
X156813475Y-109180250D01*
X156812914Y-109163211D01*
X156803342Y-109114526D01*
X156777571Y-109071074D01*
X156770668Y-109063905D01*
X156729649Y-109034177D01*
X156681584Y-109015631D01*
X156646453Y-109007838D01*
X156595466Y-109001415D01*
X156544563Y-108999511D01*
X156501563Y-109000786D01*
X156451999Y-109005807D01*
X156401681Y-109015631D01*
X156386046Y-109020023D01*
X156341082Y-109039307D01*
X156300321Y-109071074D01*
X156291619Y-109081328D01*
X156269323Y-109128415D01*
X156263196Y-109180250D01*
X156068616Y-109180250D01*
X156068534Y-109178785D01*
X156071134Y-109129846D01*
X156079999Y-109078272D01*
X156095157Y-109029064D01*
X156114729Y-108986779D01*
X156143036Y-108943793D01*
X156178443Y-108904500D01*
X156189358Y-108894452D01*
X156229925Y-108863998D01*
X156276932Y-108838219D01*
X156324745Y-108819015D01*
X156336086Y-108815289D01*
X156384179Y-108802786D01*
X156436638Y-108794131D01*
X156486120Y-108789713D01*
X156538946Y-108788241D01*
X156590118Y-108789713D01*
G37*
G36*
X156170872Y-108718143D02*
G01*
X156219472Y-108705835D01*
X156243412Y-108686635D01*
X156268809Y-108644771D01*
X156272965Y-108617271D01*
X156257698Y-108568830D01*
X156243412Y-108550836D01*
X156201337Y-108523760D01*
X156170872Y-108519329D01*
X156122685Y-108530437D01*
X156097355Y-108550836D01*
X156073232Y-108593662D01*
X156070000Y-108617271D01*
X156082929Y-108666323D01*
X156097355Y-108686635D01*
X156138895Y-108713712D01*
X156170872Y-108718143D01*
G37*
G36*
X156590118Y-107670104D02*
G01*
X156644909Y-107675393D01*
X156695761Y-107684530D01*
X156748262Y-107699406D01*
X156764661Y-107705380D01*
X156810613Y-107725750D01*
X156855960Y-107752688D01*
X156895296Y-107784158D01*
X156928670Y-107819411D01*
X156958548Y-107862046D01*
X156981270Y-107908722D01*
X156997261Y-107958347D01*
X157006615Y-108010165D01*
X157009357Y-108059176D01*
X157009335Y-108064415D01*
X157006616Y-108115467D01*
X156999365Y-108164087D01*
X156986154Y-108214758D01*
X156968704Y-108257496D01*
X156942347Y-108300265D01*
X156908485Y-108338589D01*
X156897957Y-108348232D01*
X156858306Y-108377426D01*
X156811642Y-108402089D01*
X156763649Y-108420411D01*
X156752181Y-108423960D01*
X156702875Y-108435867D01*
X156648073Y-108444110D01*
X156595613Y-108448317D01*
X156538946Y-108449720D01*
X156487773Y-108448247D01*
X156432983Y-108442958D01*
X156382131Y-108433822D01*
X156329630Y-108418945D01*
X156313231Y-108412973D01*
X156267279Y-108392636D01*
X156221932Y-108365779D01*
X156182595Y-108334437D01*
X156149327Y-108299079D01*
X156119453Y-108256439D01*
X156096622Y-108209873D01*
X156080631Y-108160110D01*
X156071277Y-108108210D01*
X156068616Y-108060641D01*
X156263196Y-108060641D01*
X156263776Y-108077341D01*
X156273673Y-108125291D01*
X156300321Y-108168596D01*
X156310006Y-108177996D01*
X156353533Y-108206650D01*
X156400460Y-108223063D01*
X156437007Y-108230501D01*
X156489162Y-108236632D01*
X156540411Y-108238450D01*
X156577918Y-108237488D01*
X156630571Y-108232439D01*
X156678897Y-108223063D01*
X156690260Y-108219969D01*
X156737384Y-108200027D01*
X156777083Y-108168596D01*
X156785612Y-108158308D01*
X156807469Y-108111568D01*
X156813475Y-108060641D01*
X156812914Y-108043601D01*
X156803342Y-107994917D01*
X156777571Y-107951465D01*
X156770668Y-107944295D01*
X156729649Y-107914568D01*
X156681584Y-107896021D01*
X156646453Y-107888229D01*
X156595466Y-107881806D01*
X156544563Y-107879901D01*
X156501563Y-107881176D01*
X156451999Y-107886198D01*
X156401681Y-107896021D01*
X156386046Y-107900414D01*
X156341082Y-107919697D01*
X156300321Y-107951465D01*
X156291619Y-107961719D01*
X156269323Y-108008806D01*
X156263196Y-108060641D01*
X156068616Y-108060641D01*
X156068534Y-108059176D01*
X156071134Y-108010236D01*
X156079999Y-107958662D01*
X156095157Y-107909455D01*
X156114729Y-107867170D01*
X156143036Y-107824183D01*
X156178443Y-107784891D01*
X156189358Y-107774843D01*
X156229925Y-107744389D01*
X156276932Y-107718610D01*
X156324745Y-107699406D01*
X156336086Y-107695679D01*
X156384179Y-107683177D01*
X156436638Y-107674522D01*
X156486120Y-107670104D01*
X156538946Y-107668631D01*
X156590118Y-107670104D01*
G37*
G36*
X156170872Y-107598534D02*
G01*
X156219472Y-107586226D01*
X156243412Y-107567026D01*
X156268809Y-107525162D01*
X156272965Y-107497661D01*
X156257698Y-107449221D01*
X156243412Y-107431227D01*
X156201337Y-107404151D01*
X156170872Y-107399720D01*
X156122685Y-107410828D01*
X156097355Y-107431227D01*
X156073232Y-107474053D01*
X156070000Y-107497661D01*
X156082929Y-107546714D01*
X156097355Y-107567026D01*
X156138895Y-107594103D01*
X156170872Y-107598534D01*
G37*
G36*
X156998122Y-107309106D02*
G01*
X156998122Y-107030669D01*
X156070000Y-107030669D01*
X156070000Y-107235100D01*
X156802240Y-107235100D01*
X156802240Y-107309106D01*
X156998122Y-107309106D01*
G37*
D14*
%TO.C,J2*%
X139300000Y-106900000D03*
D15*
X139300000Y-109440000D03*
X139300000Y-111980000D03*
X139300000Y-114520000D03*
%TD*%
D16*
%TO.C,J3*%
X169000000Y-105500000D03*
D17*
X168500000Y-107950000D03*
X168500000Y-110000000D03*
D16*
X169000000Y-112450000D03*
%TD*%
D18*
%TO.C,J7*%
X129600000Y-103400000D03*
%TD*%
%TO.C,J4*%
X122900000Y-105400000D03*
%TD*%
%TO.C,J8*%
X131600000Y-103400000D03*
%TD*%
%TO.C,J11*%
X122900000Y-103400000D03*
%TD*%
%TO.C,J14*%
X122900000Y-114600000D03*
%TD*%
%TO.C,J12*%
X122900000Y-107400000D03*
%TD*%
%TO.C,J6*%
X122900000Y-109400000D03*
%TD*%
%TO.C,J10*%
X152900000Y-103400000D03*
%TD*%
%TO.C,J9*%
X150900000Y-103400000D03*
%TD*%
%TO.C,J13*%
X122900000Y-112600000D03*
%TD*%
%LPD*%
M02*
