%TF.GenerationSoftware,KiCad,Pcbnew,8.0.4*%
%TF.CreationDate,2024-09-10T21:55:11+02:00*%
%TF.ProjectId,elrs-sim,656c7273-2d73-4696-9d2e-6b696361645f,rev?*%
%TF.SameCoordinates,Original*%
%TF.FileFunction,Profile,NP*%
%FSLAX46Y46*%
G04 Gerber Fmt 4.6, Leading zero omitted, Abs format (unit mm)*
G04 Created by KiCad (PCBNEW 8.0.4) date 2024-09-10 21:55:11*
%MOMM*%
%LPD*%
G01*
G04 APERTURE LIST*
%TA.AperFunction,Profile*%
%ADD10C,0.050000*%
%TD*%
G04 APERTURE END LIST*
D10*
X164050000Y-103500000D02*
G75*
G02*
X163550000Y-103500000I-250000J0D01*
G01*
X163550000Y-103500000D02*
G75*
G02*
X164050000Y-103500000I250000J0D01*
G01*
X121500000Y-115000000D02*
X112000000Y-115000000D01*
X163500000Y-103000000D02*
X173500000Y-103000000D01*
X164050000Y-109423071D02*
G75*
G02*
X163550000Y-109423071I-250000J0D01*
G01*
X163550000Y-109423071D02*
G75*
G02*
X164050000Y-109423071I250000J0D01*
G01*
X112000000Y-115000000D02*
G75*
G02*
X111000000Y-114000000I0J1000000D01*
G01*
X111000000Y-104000000D02*
G75*
G02*
X112000000Y-103000000I1000000J0D01*
G01*
X164050000Y-114500000D02*
G75*
G02*
X163550000Y-114500000I-250000J0D01*
G01*
X163550000Y-114500000D02*
G75*
G02*
X164050000Y-114500000I250000J0D01*
G01*
X162500000Y-102000000D02*
G75*
G02*
X163500000Y-103000000I0J-1000000D01*
G01*
X164050000Y-112807683D02*
G75*
G02*
X163550000Y-112807683I-250000J0D01*
G01*
X163550000Y-112807683D02*
G75*
G02*
X164050000Y-112807683I250000J0D01*
G01*
X122500000Y-102000000D02*
X162500000Y-102000000D01*
X164050000Y-106038459D02*
G75*
G02*
X163550000Y-106038459I-250000J0D01*
G01*
X163550000Y-106038459D02*
G75*
G02*
X164050000Y-106038459I250000J0D01*
G01*
X174500000Y-114000000D02*
G75*
G02*
X173500000Y-115000000I-1000000J0D01*
G01*
X164050000Y-108576918D02*
G75*
G02*
X163550000Y-108576918I-250000J0D01*
G01*
X163550000Y-108576918D02*
G75*
G02*
X164050000Y-108576918I250000J0D01*
G01*
X112000000Y-103000000D02*
X121500000Y-103000000D01*
X173500000Y-115000000D02*
X163500000Y-115000000D01*
X164050000Y-104346153D02*
G75*
G02*
X163550000Y-104346153I-250000J0D01*
G01*
X163550000Y-104346153D02*
G75*
G02*
X164050000Y-104346153I250000J0D01*
G01*
X174500000Y-104000000D02*
X174500000Y-114000000D01*
X122500000Y-116000000D02*
G75*
G02*
X121500000Y-115000000I0J1000000D01*
G01*
X164050000Y-110269224D02*
G75*
G02*
X163550000Y-110269224I-250000J0D01*
G01*
X163550000Y-110269224D02*
G75*
G02*
X164050000Y-110269224I250000J0D01*
G01*
X164050000Y-113653836D02*
G75*
G02*
X163550000Y-113653836I-250000J0D01*
G01*
X163550000Y-113653836D02*
G75*
G02*
X164050000Y-113653836I250000J0D01*
G01*
X164050000Y-107730765D02*
G75*
G02*
X163550000Y-107730765I-250000J0D01*
G01*
X163550000Y-107730765D02*
G75*
G02*
X164050000Y-107730765I250000J0D01*
G01*
X173500000Y-103000000D02*
G75*
G02*
X174500000Y-104000000I0J-1000000D01*
G01*
X111000000Y-114000000D02*
X111000000Y-104000000D01*
X163500000Y-115000000D02*
G75*
G02*
X162500000Y-116000000I-1000000J0D01*
G01*
X164050000Y-111961530D02*
G75*
G02*
X163550000Y-111961530I-250000J0D01*
G01*
X163550000Y-111961530D02*
G75*
G02*
X164050000Y-111961530I250000J0D01*
G01*
X121500000Y-103000000D02*
G75*
G02*
X122500000Y-102000000I1000000J0D01*
G01*
X164050000Y-105192306D02*
G75*
G02*
X163550000Y-105192306I-250000J0D01*
G01*
X163550000Y-105192306D02*
G75*
G02*
X164050000Y-105192306I250000J0D01*
G01*
X164050000Y-111115377D02*
G75*
G02*
X163550000Y-111115377I-250000J0D01*
G01*
X163550000Y-111115377D02*
G75*
G02*
X164050000Y-111115377I250000J0D01*
G01*
X162500000Y-116000000D02*
X122500000Y-116000000D01*
X164050000Y-106884612D02*
G75*
G02*
X163550000Y-106884612I-250000J0D01*
G01*
X163550000Y-106884612D02*
G75*
G02*
X164050000Y-106884612I250000J0D01*
G01*
M02*
