%TF.GenerationSoftware,KiCad,Pcbnew,8.0.4*%
%TF.CreationDate,2024-09-10T22:50:24+02:00*%
%TF.ProjectId,elrs-sim,656c7273-2d73-4696-9d2e-6b696361645f,rev?*%
%TF.SameCoordinates,Original*%
%TF.FileFunction,Legend,Bot*%
%TF.FilePolarity,Positive*%
%FSLAX46Y46*%
G04 Gerber Fmt 4.6, Leading zero omitted, Abs format (unit mm)*
G04 Created by KiCad (PCBNEW 8.0.4) date 2024-09-10 22:50:24*
%MOMM*%
%LPD*%
G01*
G04 APERTURE LIST*
G04 Aperture macros list*
%AMRoundRect*
0 Rectangle with rounded corners*
0 $1 Rounding radius*
0 $2 $3 $4 $5 $6 $7 $8 $9 X,Y pos of 4 corners*
0 Add a 4 corners polygon primitive as box body*
4,1,4,$2,$3,$4,$5,$6,$7,$8,$9,$2,$3,0*
0 Add four circle primitives for the rounded corners*
1,1,$1+$1,$2,$3*
1,1,$1+$1,$4,$5*
1,1,$1+$1,$6,$7*
1,1,$1+$1,$8,$9*
0 Add four rect primitives between the rounded corners*
20,1,$1+$1,$2,$3,$4,$5,0*
20,1,$1+$1,$4,$5,$6,$7,0*
20,1,$1+$1,$6,$7,$8,$9,0*
20,1,$1+$1,$8,$9,$2,$3,0*%
G04 Aperture macros list end*
%ADD10C,0.150000*%
%ADD11C,0.250000*%
%ADD12C,0.200000*%
%ADD13C,0.300000*%
%ADD14R,1.700000X1.700000*%
%ADD15O,1.700000X1.700000*%
%ADD16RoundRect,0.500000X-3.500000X0.500000X-3.500000X-0.500000X3.500000X-0.500000X3.500000X0.500000X0*%
%ADD17RoundRect,0.500000X-3.000000X0.250000X-3.000000X-0.250000X3.000000X-0.250000X3.000000X0.250000X0*%
%ADD18RoundRect,0.387500X-0.387500X0.387500X-0.387500X-0.387500X0.387500X-0.387500X0.387500X0.387500X0*%
G04 APERTURE END LIST*
D10*
X111500000Y-106500000D02*
X116500000Y-106500000D01*
X116500000Y-111500000D01*
X111500000Y-111500000D01*
X111500000Y-106500000D01*
G36*
X111500000Y-106500000D02*
G01*
X116500000Y-106500000D01*
X116500000Y-111500000D01*
X111500000Y-111500000D01*
X111500000Y-106500000D01*
G37*
D11*
G36*
X131559560Y-107953958D02*
G01*
X131561057Y-107951028D01*
X131591339Y-107907431D01*
X131627323Y-107871527D01*
X131653915Y-107851652D01*
X131696436Y-107827449D01*
X131742117Y-107809978D01*
X131765748Y-107803503D01*
X131816947Y-107794071D01*
X131868147Y-107790927D01*
X131911797Y-107793033D01*
X131961684Y-107801326D01*
X132011762Y-107817549D01*
X132042490Y-107832402D01*
X132084290Y-107860464D01*
X132120938Y-107895463D01*
X132147280Y-107929776D01*
X132171518Y-107973086D01*
X132190792Y-108022225D01*
X132196573Y-108041421D01*
X132207655Y-108092282D01*
X132213509Y-108141566D01*
X132215460Y-108194172D01*
X132215460Y-108506314D01*
X131185000Y-108506314D01*
X131185000Y-108303348D01*
X131512529Y-108303348D01*
X131512529Y-108168198D01*
X131499049Y-108159245D01*
X131708656Y-108159245D01*
X131708656Y-108303348D01*
X132019333Y-108303348D01*
X132019333Y-108157780D01*
X132016757Y-108120903D01*
X132001015Y-108073027D01*
X131992698Y-108060014D01*
X131956318Y-108026133D01*
X131951333Y-108023340D01*
X131903806Y-108005861D01*
X131861308Y-108000976D01*
X131812948Y-108008791D01*
X131806506Y-108010841D01*
X131763122Y-108033948D01*
X131753155Y-108042273D01*
X131724043Y-108082309D01*
X131714081Y-108109852D01*
X131708656Y-108159245D01*
X131499049Y-108159245D01*
X131185000Y-107950662D01*
X131185000Y-107713990D01*
X131559560Y-107953958D01*
G37*
G36*
X131907067Y-106839270D02*
G01*
X131955809Y-106846483D01*
X132006337Y-106861494D01*
X132052306Y-106883809D01*
X132075725Y-106899266D01*
X132113581Y-106932288D01*
X132145912Y-106971995D01*
X132172718Y-107018387D01*
X132177893Y-107029561D01*
X132195258Y-107077310D01*
X132207279Y-107129945D01*
X132213415Y-107180007D01*
X132215460Y-107233809D01*
X132215460Y-107545951D01*
X131185000Y-107545951D01*
X131185000Y-107342985D01*
X131511308Y-107342985D01*
X131511308Y-107198882D01*
X131708656Y-107198882D01*
X131708656Y-107342985D01*
X132019333Y-107342985D01*
X132019333Y-107197417D01*
X132016757Y-107160540D01*
X132001015Y-107112664D01*
X131992698Y-107099651D01*
X131956318Y-107065770D01*
X131951333Y-107062977D01*
X131903806Y-107045498D01*
X131862529Y-107040613D01*
X131816367Y-107048429D01*
X131809746Y-107050478D01*
X131765321Y-107073586D01*
X131755032Y-107081910D01*
X131724776Y-107121946D01*
X131714339Y-107149490D01*
X131708656Y-107198882D01*
X131511308Y-107198882D01*
X131511308Y-107197417D01*
X131511585Y-107178782D01*
X131515739Y-107126228D01*
X131526200Y-107073725D01*
X131542815Y-107027424D01*
X131559836Y-106994497D01*
X131590118Y-106951689D01*
X131626102Y-106916782D01*
X131649317Y-106899798D01*
X131695406Y-106873963D01*
X131741385Y-106856698D01*
X131765264Y-106850224D01*
X131816826Y-106840791D01*
X131868147Y-106837647D01*
X131907067Y-106839270D01*
G37*
G36*
X132215460Y-106271736D02*
G01*
X132215460Y-105577354D01*
X132019333Y-105577354D01*
X132019333Y-105827947D01*
X131185000Y-105827947D01*
X131185000Y-106030913D01*
X132019333Y-106030913D01*
X132019333Y-106271736D01*
X132215460Y-106271736D01*
G37*
G36*
X132215460Y-105465979D02*
G01*
X132215460Y-105207082D01*
X131185000Y-104535170D01*
X131185000Y-104796754D01*
X132215460Y-105465979D01*
G37*
G36*
X131185000Y-105480145D02*
G01*
X131761901Y-105113293D01*
X131557470Y-105018038D01*
X131185000Y-105228087D01*
X131185000Y-105480145D01*
G37*
G36*
X131837372Y-105004116D02*
G01*
X132215460Y-104791380D01*
X132215460Y-104544939D01*
X131662494Y-104899092D01*
X131837372Y-105004116D01*
G37*
G36*
X129291136Y-114734225D02*
G01*
X129282864Y-114785145D01*
X129261827Y-114828014D01*
X129230164Y-114866268D01*
X129190128Y-114897223D01*
X129184158Y-114900799D01*
X129136835Y-114920959D01*
X129085540Y-114928777D01*
X129078401Y-114928886D01*
X129029539Y-114924251D01*
X128982149Y-114908890D01*
X128966537Y-114900799D01*
X128925021Y-114870817D01*
X128892520Y-114833536D01*
X128888868Y-114828014D01*
X128867253Y-114782219D01*
X128860048Y-114734225D01*
X128860048Y-114084539D01*
X128659768Y-114084539D01*
X128659768Y-114738377D01*
X128663279Y-114793439D01*
X128673812Y-114845294D01*
X128691367Y-114893944D01*
X128715944Y-114939389D01*
X128746368Y-114980758D01*
X128781707Y-115017424D01*
X128821961Y-115049390D01*
X128867131Y-115076653D01*
X128915964Y-115098345D01*
X128967453Y-115113839D01*
X129021599Y-115123136D01*
X129071155Y-115126186D01*
X129078401Y-115126235D01*
X129127653Y-115123862D01*
X129181566Y-115115340D01*
X129232945Y-115100621D01*
X129281789Y-115079704D01*
X129287717Y-115076653D01*
X129332566Y-115049390D01*
X129372591Y-115017424D01*
X129407793Y-114980758D01*
X129438170Y-114939389D01*
X129462641Y-114893944D01*
X129480119Y-114845294D01*
X129490606Y-114793439D01*
X129494102Y-114738377D01*
X129494102Y-114084539D01*
X129291136Y-114084539D01*
X129291136Y-114734225D01*
G37*
G36*
X127865002Y-114333911D02*
G01*
X127909424Y-114311311D01*
X127954395Y-114291871D01*
X127984681Y-114280666D01*
X128032845Y-114267066D01*
X128081919Y-114260174D01*
X128098743Y-114259661D01*
X128147530Y-114264055D01*
X128194959Y-114281526D01*
X128202302Y-114286284D01*
X128232913Y-114324580D01*
X128240159Y-114365907D01*
X128225397Y-114414309D01*
X128211583Y-114431120D01*
X128171503Y-114462901D01*
X128137333Y-114482166D01*
X128090866Y-114503538D01*
X128042811Y-114522711D01*
X127995337Y-114542409D01*
X127953907Y-114562766D01*
X127912019Y-114588595D01*
X127874772Y-114620163D01*
X127843326Y-114658632D01*
X127820167Y-114702459D01*
X127818840Y-114705648D01*
X127804482Y-114754709D01*
X127798574Y-114803756D01*
X127797835Y-114830701D01*
X127802626Y-114883303D01*
X127816999Y-114933309D01*
X127838380Y-114976514D01*
X127867417Y-115015965D01*
X127903848Y-115050359D01*
X127947674Y-115079697D01*
X127957326Y-115084958D01*
X128004306Y-115104911D01*
X128057043Y-115118334D01*
X128108754Y-115124784D01*
X128150522Y-115126235D01*
X128202448Y-115123944D01*
X128251418Y-115117715D01*
X128270445Y-115114267D01*
X128319536Y-115102487D01*
X128367982Y-115086596D01*
X128390124Y-115077875D01*
X128437107Y-115055813D01*
X128482799Y-115029317D01*
X128503453Y-115015593D01*
X128413816Y-114857323D01*
X128370865Y-114885264D01*
X128334681Y-114904218D01*
X128289129Y-114923207D01*
X128248708Y-114935725D01*
X128199578Y-114945106D01*
X128168840Y-114946960D01*
X128118455Y-114941996D01*
X128095323Y-114936458D01*
X128050280Y-114915091D01*
X128033774Y-114900799D01*
X128011515Y-114856857D01*
X128009106Y-114830701D01*
X128023538Y-114782768D01*
X128029378Y-114774769D01*
X128065837Y-114740751D01*
X128084088Y-114728607D01*
X128129311Y-114704546D01*
X128158826Y-114692215D01*
X128204121Y-114673861D01*
X128250704Y-114653146D01*
X128257012Y-114650205D01*
X128302840Y-114625687D01*
X128345984Y-114596553D01*
X128351534Y-114592320D01*
X128389101Y-114556385D01*
X128417578Y-114516260D01*
X128422853Y-114506835D01*
X128441553Y-114457561D01*
X128449246Y-114408331D01*
X128450208Y-114381294D01*
X128446320Y-114327737D01*
X128434657Y-114278807D01*
X128412846Y-114230329D01*
X128410397Y-114226200D01*
X128378991Y-114184123D01*
X128339850Y-114148570D01*
X128297556Y-114121908D01*
X128249872Y-114101128D01*
X128197798Y-114087027D01*
X128147180Y-114080046D01*
X128129517Y-114078921D01*
X128077265Y-114080336D01*
X128023043Y-114085415D01*
X127974683Y-114094189D01*
X127927284Y-114108475D01*
X127880315Y-114127890D01*
X127836495Y-114149500D01*
X127791928Y-114175805D01*
X127788066Y-114178328D01*
X127865002Y-114333911D01*
G37*
G36*
X127599266Y-115115000D02*
G01*
X127256349Y-115115000D01*
X127222308Y-115113992D01*
X127172276Y-115108703D01*
X127123481Y-115098879D01*
X127099773Y-115092148D01*
X127051647Y-115072849D01*
X127007954Y-115047100D01*
X126989467Y-115032938D01*
X126954537Y-114996833D01*
X126926621Y-114953311D01*
X126909517Y-114910287D01*
X126899513Y-114861145D01*
X126896579Y-114811161D01*
X127106628Y-114811161D01*
X127107941Y-114829983D01*
X127127633Y-114876374D01*
X127140665Y-114889836D01*
X127185030Y-114914232D01*
X127215969Y-114921822D01*
X127266119Y-114925956D01*
X127396300Y-114925956D01*
X127396300Y-114701985D01*
X127280285Y-114701985D01*
X127245566Y-114703517D01*
X127196998Y-114711266D01*
X127175645Y-114717470D01*
X127131785Y-114743506D01*
X127117462Y-114761859D01*
X127106628Y-114811161D01*
X126896579Y-114811161D01*
X126896804Y-114799904D01*
X126904651Y-114746624D01*
X126923708Y-114698353D01*
X126953976Y-114655090D01*
X126976951Y-114631700D01*
X127016856Y-114600608D01*
X127063290Y-114574307D01*
X127068964Y-114571958D01*
X127064351Y-114569529D01*
X127025167Y-114539132D01*
X126992567Y-114502438D01*
X126984186Y-114490211D01*
X126962204Y-114445484D01*
X126949382Y-114394651D01*
X126948819Y-114386912D01*
X127155477Y-114386912D01*
X127160993Y-114425600D01*
X127184297Y-114469710D01*
X127223621Y-114498106D01*
X127273202Y-114506102D01*
X127396300Y-114506102D01*
X127396300Y-114280666D01*
X127287124Y-114280666D01*
X127236162Y-114286516D01*
X127191380Y-114307288D01*
X127165610Y-114338043D01*
X127155477Y-114386912D01*
X126948819Y-114386912D01*
X126945672Y-114343681D01*
X126945765Y-114335683D01*
X126951626Y-114283200D01*
X126969486Y-114230718D01*
X126999253Y-114186236D01*
X127040927Y-114149752D01*
X127085650Y-114124342D01*
X127136683Y-114105173D01*
X127185450Y-114093709D01*
X127238853Y-114086832D01*
X127296893Y-114084539D01*
X127599266Y-114084539D01*
X127599266Y-115115000D01*
G37*
G36*
X126239322Y-115115000D02*
G01*
X125881018Y-115115000D01*
X125829208Y-115112862D01*
X125778802Y-115106451D01*
X125729801Y-115095765D01*
X125682204Y-115080806D01*
X125653443Y-115069298D01*
X125604439Y-115044828D01*
X125558990Y-115015528D01*
X125517096Y-114981399D01*
X125491324Y-114956016D01*
X125456660Y-114914466D01*
X125426787Y-114868742D01*
X125404256Y-114824595D01*
X125401716Y-114818833D01*
X125384302Y-114771121D01*
X125372048Y-114720540D01*
X125364954Y-114667089D01*
X125362979Y-114617965D01*
X125363395Y-114604043D01*
X125573027Y-114604043D01*
X125574569Y-114641428D01*
X125582664Y-114693440D01*
X125597696Y-114740575D01*
X125605841Y-114758633D01*
X125631819Y-114801008D01*
X125667549Y-114839249D01*
X125685204Y-114853251D01*
X125727696Y-114879111D01*
X125775993Y-114898845D01*
X125812540Y-114908644D01*
X125864696Y-114916721D01*
X125915944Y-114919117D01*
X126036356Y-114919117D01*
X126036356Y-114279200D01*
X125871248Y-114279200D01*
X125835123Y-114282152D01*
X125786007Y-114292634D01*
X125776547Y-114295298D01*
X125729825Y-114314350D01*
X125687089Y-114340750D01*
X125666679Y-114357409D01*
X125632745Y-114395666D01*
X125606000Y-114439424D01*
X125602007Y-114447537D01*
X125584652Y-114497346D01*
X125575636Y-114550239D01*
X125573027Y-114604043D01*
X125363395Y-114604043D01*
X125364060Y-114581830D01*
X125369741Y-114527787D01*
X125380289Y-114473938D01*
X125393753Y-114426235D01*
X125411384Y-114379752D01*
X125433504Y-114335560D01*
X125460111Y-114293657D01*
X125491206Y-114254043D01*
X125495400Y-114249265D01*
X125531956Y-114213201D01*
X125573855Y-114180984D01*
X125621097Y-114152614D01*
X125666817Y-114130945D01*
X125716790Y-114112863D01*
X125771182Y-114099222D01*
X125821319Y-114091065D01*
X125874703Y-114086170D01*
X125931332Y-114084539D01*
X126239322Y-114084539D01*
X126239322Y-115115000D01*
G37*
G36*
X124238240Y-115157009D02*
G01*
X125019573Y-114451392D01*
X124959245Y-114485097D01*
X124955093Y-115115000D01*
X125160745Y-115115000D01*
X125160745Y-114043995D01*
X125152441Y-114043995D01*
X124387961Y-114746681D01*
X124432902Y-114727142D01*
X124437054Y-114084539D01*
X124232623Y-114084539D01*
X124232623Y-115157009D01*
X124238240Y-115157009D01*
G37*
G36*
X129559560Y-108094642D02*
G01*
X129561057Y-108091712D01*
X129591339Y-108048115D01*
X129627323Y-108012211D01*
X129653915Y-107992336D01*
X129696436Y-107968133D01*
X129742117Y-107950662D01*
X129765748Y-107944187D01*
X129816947Y-107934755D01*
X129868147Y-107931611D01*
X129911797Y-107933717D01*
X129961684Y-107942010D01*
X130011762Y-107958233D01*
X130042490Y-107973086D01*
X130084290Y-108001148D01*
X130120938Y-108036147D01*
X130147280Y-108070460D01*
X130171518Y-108113770D01*
X130190792Y-108162909D01*
X130196573Y-108182105D01*
X130207655Y-108232966D01*
X130213509Y-108282250D01*
X130215460Y-108334856D01*
X130215460Y-108646998D01*
X129185000Y-108646998D01*
X129185000Y-108444032D01*
X129512529Y-108444032D01*
X129512529Y-108308882D01*
X129499049Y-108299929D01*
X129708656Y-108299929D01*
X129708656Y-108444032D01*
X130019333Y-108444032D01*
X130019333Y-108298464D01*
X130016757Y-108261587D01*
X130001015Y-108213711D01*
X129992698Y-108200698D01*
X129956318Y-108166817D01*
X129951333Y-108164024D01*
X129903806Y-108146545D01*
X129861308Y-108141660D01*
X129812948Y-108149475D01*
X129806506Y-108151525D01*
X129763122Y-108174632D01*
X129753155Y-108182957D01*
X129724043Y-108222993D01*
X129714081Y-108250536D01*
X129708656Y-108299929D01*
X129499049Y-108299929D01*
X129185000Y-108091346D01*
X129185000Y-107854674D01*
X129559560Y-108094642D01*
G37*
G36*
X129907067Y-106979954D02*
G01*
X129955809Y-106987167D01*
X130006337Y-107002178D01*
X130052306Y-107024493D01*
X130075725Y-107039950D01*
X130113581Y-107072972D01*
X130145912Y-107112679D01*
X130172718Y-107159071D01*
X130177893Y-107170245D01*
X130195258Y-107217994D01*
X130207279Y-107270629D01*
X130213415Y-107320691D01*
X130215460Y-107374493D01*
X130215460Y-107686635D01*
X129185000Y-107686635D01*
X129185000Y-107483669D01*
X129511308Y-107483669D01*
X129511308Y-107339566D01*
X129708656Y-107339566D01*
X129708656Y-107483669D01*
X130019333Y-107483669D01*
X130019333Y-107338101D01*
X130016757Y-107301224D01*
X130001015Y-107253348D01*
X129992698Y-107240335D01*
X129956318Y-107206454D01*
X129951333Y-107203661D01*
X129903806Y-107186182D01*
X129862529Y-107181297D01*
X129816367Y-107189113D01*
X129809746Y-107191162D01*
X129765321Y-107214270D01*
X129755032Y-107222594D01*
X129724776Y-107262630D01*
X129714339Y-107290174D01*
X129708656Y-107339566D01*
X129511308Y-107339566D01*
X129511308Y-107338101D01*
X129511585Y-107319466D01*
X129515739Y-107266912D01*
X129526200Y-107214409D01*
X129542815Y-107168108D01*
X129559836Y-107135181D01*
X129590118Y-107092373D01*
X129626102Y-107057466D01*
X129649317Y-107040482D01*
X129695406Y-107014647D01*
X129741385Y-106997382D01*
X129765264Y-106990908D01*
X129816826Y-106981475D01*
X129868147Y-106978331D01*
X129907067Y-106979954D01*
G37*
G36*
X129559561Y-105789966D02*
G01*
X129561057Y-105787037D01*
X129591339Y-105743439D01*
X129627323Y-105707535D01*
X129653915Y-105687660D01*
X129696436Y-105663457D01*
X129742117Y-105645986D01*
X129765748Y-105639512D01*
X129816947Y-105630079D01*
X129868147Y-105626935D01*
X129911797Y-105629041D01*
X129961684Y-105637335D01*
X130011762Y-105653558D01*
X130042490Y-105668411D01*
X130084290Y-105696472D01*
X130120938Y-105731471D01*
X130147280Y-105765785D01*
X130171518Y-105809094D01*
X130190792Y-105858233D01*
X130196573Y-105877429D01*
X130207655Y-105928291D01*
X130213509Y-105977574D01*
X130215460Y-106030180D01*
X130215460Y-106342323D01*
X129185000Y-106342323D01*
X129185000Y-106139357D01*
X129512529Y-106139357D01*
X129512529Y-106004206D01*
X129499051Y-105995254D01*
X129708656Y-105995254D01*
X129708656Y-106139357D01*
X130019333Y-106139357D01*
X130019333Y-105993788D01*
X130016757Y-105956911D01*
X130001015Y-105909036D01*
X129992698Y-105896023D01*
X129956318Y-105862141D01*
X129951333Y-105859348D01*
X129903806Y-105841869D01*
X129861308Y-105836984D01*
X129812948Y-105844800D01*
X129806506Y-105846849D01*
X129763122Y-105869957D01*
X129753155Y-105878282D01*
X129724043Y-105918317D01*
X129714081Y-105945861D01*
X129708656Y-105995254D01*
X129499051Y-105995254D01*
X129185000Y-105786670D01*
X129185000Y-105549999D01*
X129559561Y-105789966D01*
G37*
G36*
X130215460Y-105465979D02*
G01*
X130215460Y-105207082D01*
X129185000Y-104535170D01*
X129185000Y-104796754D01*
X130215460Y-105465979D01*
G37*
G36*
X129185000Y-105480145D02*
G01*
X129761901Y-105113293D01*
X129557470Y-105018038D01*
X129185000Y-105228087D01*
X129185000Y-105480145D01*
G37*
G36*
X129837372Y-105004116D02*
G01*
X130215460Y-104791381D01*
X130215460Y-104544940D01*
X129662494Y-104899092D01*
X129837372Y-105004116D01*
G37*
G36*
X128987298Y-112634225D02*
G01*
X128979026Y-112685145D01*
X128957989Y-112728014D01*
X128926326Y-112766268D01*
X128886290Y-112797223D01*
X128880320Y-112800799D01*
X128832997Y-112820959D01*
X128781702Y-112828777D01*
X128774563Y-112828886D01*
X128725701Y-112824251D01*
X128678311Y-112808890D01*
X128662699Y-112800799D01*
X128621183Y-112770817D01*
X128588682Y-112733536D01*
X128585030Y-112728014D01*
X128563415Y-112682219D01*
X128556210Y-112634225D01*
X128556210Y-111984539D01*
X128355930Y-111984539D01*
X128355930Y-112638377D01*
X128359441Y-112693439D01*
X128369974Y-112745294D01*
X128387529Y-112793944D01*
X128412106Y-112839389D01*
X128442530Y-112880758D01*
X128477869Y-112917424D01*
X128518123Y-112949390D01*
X128563293Y-112976653D01*
X128612126Y-112998345D01*
X128663615Y-113013839D01*
X128717761Y-113023136D01*
X128767317Y-113026186D01*
X128774563Y-113026235D01*
X128823815Y-113023862D01*
X128877728Y-113015340D01*
X128929107Y-113000621D01*
X128977951Y-112979704D01*
X128983879Y-112976653D01*
X129028728Y-112949390D01*
X129068753Y-112917424D01*
X129103955Y-112880758D01*
X129134332Y-112839389D01*
X129158803Y-112793944D01*
X129176281Y-112745294D01*
X129186768Y-112693439D01*
X129190264Y-112638377D01*
X129190264Y-111984539D01*
X128987298Y-111984539D01*
X128987298Y-112634225D01*
G37*
G36*
X127561164Y-112233911D02*
G01*
X127605586Y-112211311D01*
X127650557Y-112191871D01*
X127680843Y-112180666D01*
X127729007Y-112167066D01*
X127778081Y-112160174D01*
X127794905Y-112159661D01*
X127843692Y-112164055D01*
X127891121Y-112181526D01*
X127898464Y-112186284D01*
X127929075Y-112224580D01*
X127936321Y-112265907D01*
X127921559Y-112314309D01*
X127907745Y-112331120D01*
X127867665Y-112362901D01*
X127833495Y-112382166D01*
X127787028Y-112403538D01*
X127738973Y-112422711D01*
X127691499Y-112442409D01*
X127650069Y-112462766D01*
X127608181Y-112488595D01*
X127570934Y-112520163D01*
X127539488Y-112558632D01*
X127516329Y-112602459D01*
X127515002Y-112605648D01*
X127500644Y-112654709D01*
X127494736Y-112703756D01*
X127493997Y-112730701D01*
X127498788Y-112783303D01*
X127513161Y-112833309D01*
X127534542Y-112876514D01*
X127563579Y-112915965D01*
X127600010Y-112950359D01*
X127643836Y-112979697D01*
X127653488Y-112984958D01*
X127700468Y-113004911D01*
X127753205Y-113018334D01*
X127804916Y-113024784D01*
X127846684Y-113026235D01*
X127898610Y-113023944D01*
X127947580Y-113017715D01*
X127966607Y-113014267D01*
X128015698Y-113002487D01*
X128064144Y-112986596D01*
X128086286Y-112977875D01*
X128133269Y-112955813D01*
X128178961Y-112929317D01*
X128199615Y-112915593D01*
X128109978Y-112757323D01*
X128067027Y-112785264D01*
X128030843Y-112804218D01*
X127985291Y-112823207D01*
X127944870Y-112835725D01*
X127895740Y-112845106D01*
X127865002Y-112846960D01*
X127814617Y-112841996D01*
X127791485Y-112836458D01*
X127746442Y-112815091D01*
X127729936Y-112800799D01*
X127707677Y-112756857D01*
X127705268Y-112730701D01*
X127719700Y-112682768D01*
X127725540Y-112674769D01*
X127761999Y-112640751D01*
X127780250Y-112628607D01*
X127825473Y-112604546D01*
X127854988Y-112592215D01*
X127900283Y-112573861D01*
X127946866Y-112553146D01*
X127953174Y-112550205D01*
X127999002Y-112525687D01*
X128042146Y-112496553D01*
X128047696Y-112492320D01*
X128085263Y-112456385D01*
X128113740Y-112416260D01*
X128119015Y-112406835D01*
X128137715Y-112357561D01*
X128145408Y-112308331D01*
X128146370Y-112281294D01*
X128142482Y-112227737D01*
X128130819Y-112178807D01*
X128109008Y-112130329D01*
X128106559Y-112126200D01*
X128075153Y-112084123D01*
X128036012Y-112048570D01*
X127993718Y-112021908D01*
X127946034Y-112001128D01*
X127893960Y-111987027D01*
X127843342Y-111980046D01*
X127825679Y-111978921D01*
X127773427Y-111980336D01*
X127719205Y-111985415D01*
X127670845Y-111994189D01*
X127623446Y-112008475D01*
X127576477Y-112027890D01*
X127532657Y-112049500D01*
X127488090Y-112075805D01*
X127484228Y-112078328D01*
X127561164Y-112233911D01*
G37*
G36*
X127295428Y-113015000D02*
G01*
X126952511Y-113015000D01*
X126918470Y-113013992D01*
X126868438Y-113008703D01*
X126819643Y-112998879D01*
X126795935Y-112992148D01*
X126747809Y-112972849D01*
X126704116Y-112947100D01*
X126685629Y-112932938D01*
X126650699Y-112896833D01*
X126622783Y-112853311D01*
X126605679Y-112810287D01*
X126595675Y-112761145D01*
X126592741Y-112711161D01*
X126802790Y-112711161D01*
X126804103Y-112729983D01*
X126823795Y-112776374D01*
X126836827Y-112789836D01*
X126881192Y-112814232D01*
X126912131Y-112821822D01*
X126962281Y-112825956D01*
X127092462Y-112825956D01*
X127092462Y-112601985D01*
X126976447Y-112601985D01*
X126941728Y-112603517D01*
X126893160Y-112611266D01*
X126871807Y-112617470D01*
X126827947Y-112643506D01*
X126813624Y-112661859D01*
X126802790Y-112711161D01*
X126592741Y-112711161D01*
X126592966Y-112699904D01*
X126600813Y-112646624D01*
X126619870Y-112598353D01*
X126650138Y-112555090D01*
X126673113Y-112531700D01*
X126713018Y-112500608D01*
X126759452Y-112474307D01*
X126765126Y-112471958D01*
X126760513Y-112469529D01*
X126721329Y-112439132D01*
X126688729Y-112402438D01*
X126680348Y-112390211D01*
X126658366Y-112345484D01*
X126645544Y-112294651D01*
X126644981Y-112286912D01*
X126851639Y-112286912D01*
X126857155Y-112325600D01*
X126880459Y-112369710D01*
X126919783Y-112398106D01*
X126969364Y-112406102D01*
X127092462Y-112406102D01*
X127092462Y-112180666D01*
X126983286Y-112180666D01*
X126932324Y-112186516D01*
X126887542Y-112207288D01*
X126861772Y-112238043D01*
X126851639Y-112286912D01*
X126644981Y-112286912D01*
X126641834Y-112243681D01*
X126641927Y-112235683D01*
X126647788Y-112183200D01*
X126665648Y-112130718D01*
X126695415Y-112086236D01*
X126737089Y-112049752D01*
X126781812Y-112024342D01*
X126832845Y-112005173D01*
X126881612Y-111993709D01*
X126935015Y-111986832D01*
X126993055Y-111984539D01*
X127295428Y-111984539D01*
X127295428Y-113015000D01*
G37*
G36*
X125935484Y-113015000D02*
G01*
X125577180Y-113015000D01*
X125525370Y-113012862D01*
X125474964Y-113006451D01*
X125425963Y-112995765D01*
X125378366Y-112980806D01*
X125349605Y-112969298D01*
X125300601Y-112944828D01*
X125255152Y-112915528D01*
X125213258Y-112881399D01*
X125187486Y-112856016D01*
X125152822Y-112814466D01*
X125122949Y-112768742D01*
X125100418Y-112724595D01*
X125097878Y-112718833D01*
X125080464Y-112671121D01*
X125068210Y-112620540D01*
X125061116Y-112567089D01*
X125059141Y-112517965D01*
X125059557Y-112504043D01*
X125269189Y-112504043D01*
X125270731Y-112541428D01*
X125278826Y-112593440D01*
X125293858Y-112640575D01*
X125302003Y-112658633D01*
X125327981Y-112701008D01*
X125363711Y-112739249D01*
X125381366Y-112753251D01*
X125423858Y-112779111D01*
X125472155Y-112798845D01*
X125508702Y-112808644D01*
X125560858Y-112816721D01*
X125612106Y-112819117D01*
X125732518Y-112819117D01*
X125732518Y-112179200D01*
X125567410Y-112179200D01*
X125531285Y-112182152D01*
X125482169Y-112192634D01*
X125472709Y-112195298D01*
X125425987Y-112214350D01*
X125383251Y-112240750D01*
X125362841Y-112257409D01*
X125328907Y-112295666D01*
X125302162Y-112339424D01*
X125298169Y-112347537D01*
X125280814Y-112397346D01*
X125271798Y-112450239D01*
X125269189Y-112504043D01*
X125059557Y-112504043D01*
X125060222Y-112481830D01*
X125065903Y-112427787D01*
X125076451Y-112373938D01*
X125089915Y-112326235D01*
X125107546Y-112279752D01*
X125129666Y-112235560D01*
X125156273Y-112193657D01*
X125187368Y-112154043D01*
X125191562Y-112149265D01*
X125228118Y-112113201D01*
X125270017Y-112080984D01*
X125317259Y-112052614D01*
X125362979Y-112030945D01*
X125412952Y-112012863D01*
X125467344Y-111999222D01*
X125517481Y-111991065D01*
X125570865Y-111986170D01*
X125627494Y-111984539D01*
X125935484Y-111984539D01*
X125935484Y-113015000D01*
G37*
G36*
X124856907Y-113015000D02*
G01*
X124653942Y-113015000D01*
X124653942Y-112688691D01*
X124508373Y-112688691D01*
X124489738Y-112688414D01*
X124437184Y-112684260D01*
X124384681Y-112673799D01*
X124338380Y-112657184D01*
X124305453Y-112640163D01*
X124262646Y-112609881D01*
X124227738Y-112573897D01*
X124210754Y-112550682D01*
X124184919Y-112504593D01*
X124167654Y-112458614D01*
X124161180Y-112434735D01*
X124151747Y-112383173D01*
X124148947Y-112337470D01*
X124351569Y-112337470D01*
X124359385Y-112383632D01*
X124361434Y-112390253D01*
X124384542Y-112434678D01*
X124392867Y-112444967D01*
X124432902Y-112475223D01*
X124460446Y-112485660D01*
X124509838Y-112491343D01*
X124653942Y-112491343D01*
X124653942Y-112180666D01*
X124508373Y-112180666D01*
X124471496Y-112183242D01*
X124423621Y-112198984D01*
X124410608Y-112207301D01*
X124376726Y-112243681D01*
X124373933Y-112248666D01*
X124356454Y-112296193D01*
X124351569Y-112337470D01*
X124148947Y-112337470D01*
X124148603Y-112331852D01*
X124150226Y-112292932D01*
X124157439Y-112244190D01*
X124172450Y-112193662D01*
X124194765Y-112147693D01*
X124210222Y-112124274D01*
X124243244Y-112086418D01*
X124282951Y-112054087D01*
X124329343Y-112027281D01*
X124340517Y-112022106D01*
X124388266Y-112004741D01*
X124440901Y-111992720D01*
X124490963Y-111986584D01*
X124544765Y-111984539D01*
X124856907Y-111984539D01*
X124856907Y-113015000D01*
G37*
G36*
X126370376Y-103711441D02*
G01*
X126409669Y-103741162D01*
X126428017Y-103751252D01*
X126472916Y-103771826D01*
X126518143Y-103788377D01*
X126566482Y-103802781D01*
X126615788Y-103814395D01*
X126622435Y-103815732D01*
X126671118Y-103823271D01*
X126720325Y-103826224D01*
X126723307Y-103826235D01*
X126777241Y-103824458D01*
X126828767Y-103819129D01*
X126877886Y-103810246D01*
X126931074Y-103795744D01*
X126950209Y-103789110D01*
X126998706Y-103768715D01*
X127043570Y-103744658D01*
X127084802Y-103716936D01*
X127122400Y-103685551D01*
X127159870Y-103646230D01*
X127192046Y-103603007D01*
X127218929Y-103555881D01*
X127231576Y-103528014D01*
X127248032Y-103481425D01*
X127259786Y-103432759D01*
X127266839Y-103382018D01*
X127269190Y-103329200D01*
X127267696Y-103277474D01*
X127263213Y-103228359D01*
X127254208Y-103174356D01*
X127241134Y-103123907D01*
X127226692Y-103083492D01*
X127203397Y-103033545D01*
X127176255Y-102987993D01*
X127145267Y-102946838D01*
X127110432Y-102910080D01*
X127072284Y-102877626D01*
X127031358Y-102849630D01*
X126987654Y-102826091D01*
X126941172Y-102807009D01*
X126892613Y-102792263D01*
X126842925Y-102781730D01*
X126792107Y-102775410D01*
X126740160Y-102773304D01*
X126685577Y-102775023D01*
X126633659Y-102780182D01*
X126584408Y-102788779D01*
X126558199Y-102795041D01*
X126508931Y-102809653D01*
X126460465Y-102828095D01*
X126418003Y-102849019D01*
X126483949Y-103038063D01*
X126528818Y-103017825D01*
X126551116Y-103009975D01*
X126598841Y-102995859D01*
X126636601Y-102987016D01*
X126686919Y-102979040D01*
X126713537Y-102977735D01*
X126764141Y-102979786D01*
X126815398Y-102986781D01*
X126862037Y-102998740D01*
X126907397Y-103017447D01*
X126950181Y-103044380D01*
X126970481Y-103061755D01*
X127002654Y-103099233D01*
X127027733Y-103143403D01*
X127036915Y-103166046D01*
X127050608Y-103215608D01*
X127057608Y-103266049D01*
X127059385Y-103310882D01*
X127055847Y-103363559D01*
X127045234Y-103412045D01*
X127034228Y-103442041D01*
X127010284Y-103486251D01*
X126979730Y-103524818D01*
X126963398Y-103540715D01*
X126923705Y-103570432D01*
X126878450Y-103593700D01*
X126855687Y-103602264D01*
X126807086Y-103615064D01*
X126754708Y-103621956D01*
X126717689Y-103623269D01*
X126668560Y-103621030D01*
X126637822Y-103616919D01*
X126589554Y-103603134D01*
X126576273Y-103596646D01*
X126576273Y-103472083D01*
X126754082Y-103472083D01*
X126754082Y-103275956D01*
X126370376Y-103275956D01*
X126370376Y-103711441D01*
G37*
G36*
X125216817Y-103857009D02*
G01*
X125998150Y-103151392D01*
X125937822Y-103185097D01*
X125933670Y-103815000D01*
X126139322Y-103815000D01*
X126139322Y-102743995D01*
X126131018Y-102743995D01*
X125366538Y-103446681D01*
X125411479Y-103427142D01*
X125415631Y-102784539D01*
X125211200Y-102784539D01*
X125211200Y-103857009D01*
X125216817Y-103857009D01*
G37*
G36*
X124945463Y-103815000D02*
G01*
X124587159Y-103815000D01*
X124535349Y-103812862D01*
X124484943Y-103806451D01*
X124435942Y-103795765D01*
X124388345Y-103780806D01*
X124359585Y-103769298D01*
X124310581Y-103744828D01*
X124265132Y-103715528D01*
X124223237Y-103681399D01*
X124197466Y-103656016D01*
X124162801Y-103614466D01*
X124132928Y-103568742D01*
X124110397Y-103524595D01*
X124107858Y-103518833D01*
X124090444Y-103471121D01*
X124078190Y-103420540D01*
X124071095Y-103367089D01*
X124069120Y-103317965D01*
X124069537Y-103304043D01*
X124279169Y-103304043D01*
X124280711Y-103341428D01*
X124288805Y-103393440D01*
X124303837Y-103440575D01*
X124311983Y-103458633D01*
X124337961Y-103501008D01*
X124373691Y-103539249D01*
X124391345Y-103553251D01*
X124433838Y-103579111D01*
X124482135Y-103598845D01*
X124518682Y-103608644D01*
X124570837Y-103616721D01*
X124622086Y-103619117D01*
X124742498Y-103619117D01*
X124742498Y-102979200D01*
X124577389Y-102979200D01*
X124541265Y-102982152D01*
X124492149Y-102992634D01*
X124482688Y-102995298D01*
X124435966Y-103014350D01*
X124393230Y-103040750D01*
X124372821Y-103057409D01*
X124338886Y-103095666D01*
X124312142Y-103139424D01*
X124308149Y-103147537D01*
X124290793Y-103197346D01*
X124281777Y-103250239D01*
X124279169Y-103304043D01*
X124069537Y-103304043D01*
X124070202Y-103281830D01*
X124075882Y-103227787D01*
X124086431Y-103173938D01*
X124099895Y-103126235D01*
X124117526Y-103079752D01*
X124139645Y-103035560D01*
X124166252Y-102993657D01*
X124197348Y-102954043D01*
X124201541Y-102949265D01*
X124238098Y-102913201D01*
X124279997Y-102880984D01*
X124327239Y-102852614D01*
X124372958Y-102830945D01*
X124422932Y-102812863D01*
X124477323Y-102799222D01*
X124527461Y-102791065D01*
X124580844Y-102786170D01*
X124637473Y-102784539D01*
X124945463Y-102784539D01*
X124945463Y-103815000D01*
G37*
G36*
X127476901Y-108886877D02*
G01*
X127686950Y-109289877D01*
X127797592Y-109229794D01*
X127767550Y-109221489D01*
X127737264Y-109218558D01*
X127688354Y-109220635D01*
X127639322Y-109229794D01*
X127592550Y-109247379D01*
X127550418Y-109274734D01*
X127516475Y-109310043D01*
X127490897Y-109352586D01*
X127486182Y-109362906D01*
X127470210Y-109413429D01*
X127463055Y-109464114D01*
X127461513Y-109505544D01*
X127465223Y-109560005D01*
X127476351Y-109609906D01*
X127494898Y-109655248D01*
X127508408Y-109678468D01*
X127540532Y-109720161D01*
X127578284Y-109755175D01*
X127621666Y-109783511D01*
X127631018Y-109788377D01*
X127679428Y-109808341D01*
X127730318Y-109820911D01*
X127783689Y-109826087D01*
X127794661Y-109826235D01*
X127847131Y-109822216D01*
X127896979Y-109811472D01*
X127939008Y-109797658D01*
X127987287Y-109775622D01*
X128028350Y-109749141D01*
X128059420Y-109721210D01*
X127955861Y-109553171D01*
X127918615Y-109587482D01*
X127891381Y-109604951D01*
X127844017Y-109624580D01*
X127800278Y-109630108D01*
X127751237Y-109619950D01*
X127740194Y-109614720D01*
X127701497Y-109582984D01*
X127691102Y-109568558D01*
X127673871Y-109522171D01*
X127671562Y-109493087D01*
X127678154Y-109443880D01*
X127701830Y-109399550D01*
X127706000Y-109394902D01*
X127747033Y-109367608D01*
X127797924Y-109358545D01*
X127801744Y-109358510D01*
X127851660Y-109360402D01*
X127865491Y-109362173D01*
X127908234Y-109371210D01*
X127912386Y-109365593D01*
X127748499Y-109059068D01*
X127689636Y-109082759D01*
X127982239Y-109082759D01*
X127982239Y-108886877D01*
X127476901Y-108886877D01*
G37*
G36*
X127356733Y-109714127D02*
G01*
X127344426Y-109665527D01*
X127325226Y-109641587D01*
X127283361Y-109616190D01*
X127255861Y-109612034D01*
X127207420Y-109627301D01*
X127189427Y-109641587D01*
X127162350Y-109683662D01*
X127157920Y-109714127D01*
X127169027Y-109762314D01*
X127189427Y-109787644D01*
X127232253Y-109811767D01*
X127255861Y-109815000D01*
X127304914Y-109802070D01*
X127325226Y-109787644D01*
X127352302Y-109746104D01*
X127356733Y-109714127D01*
G37*
G36*
X126498952Y-108886877D02*
G01*
X126709001Y-109289877D01*
X126819643Y-109229794D01*
X126789601Y-109221489D01*
X126759315Y-109218558D01*
X126710406Y-109220635D01*
X126661374Y-109229794D01*
X126614601Y-109247379D01*
X126572469Y-109274734D01*
X126538527Y-109310043D01*
X126512948Y-109352586D01*
X126508234Y-109362906D01*
X126492262Y-109413429D01*
X126485107Y-109464114D01*
X126483565Y-109505544D01*
X126487274Y-109560005D01*
X126498403Y-109609906D01*
X126516950Y-109655248D01*
X126530460Y-109678468D01*
X126562583Y-109720161D01*
X126600336Y-109755175D01*
X126643718Y-109783511D01*
X126653070Y-109788377D01*
X126701479Y-109808341D01*
X126752370Y-109820911D01*
X126805740Y-109826087D01*
X126816712Y-109826235D01*
X126869183Y-109822216D01*
X126919030Y-109811472D01*
X126961060Y-109797658D01*
X127009339Y-109775622D01*
X127050402Y-109749141D01*
X127081472Y-109721210D01*
X126977913Y-109553171D01*
X126940666Y-109587482D01*
X126913432Y-109604951D01*
X126866068Y-109624580D01*
X126822330Y-109630108D01*
X126773289Y-109619950D01*
X126762246Y-109614720D01*
X126723549Y-109582984D01*
X126713153Y-109568558D01*
X126695923Y-109522171D01*
X126693614Y-109493087D01*
X126700206Y-109443880D01*
X126723882Y-109399550D01*
X126728052Y-109394902D01*
X126769085Y-109367608D01*
X126819975Y-109358545D01*
X126823795Y-109358510D01*
X126873712Y-109360402D01*
X126887543Y-109362173D01*
X126930285Y-109371210D01*
X126934437Y-109365593D01*
X126770550Y-109059068D01*
X126711688Y-109082759D01*
X127004291Y-109082759D01*
X127004291Y-108886877D01*
X126498952Y-108886877D01*
G37*
G36*
X126111339Y-108784539D02*
G01*
X125810432Y-109526549D01*
X125927913Y-109502857D01*
X125655093Y-108784539D01*
X125414270Y-108784539D01*
X125884682Y-109862627D01*
X126355093Y-108784539D01*
X126111339Y-108784539D01*
G37*
G36*
X124232623Y-109033911D02*
G01*
X124277045Y-109011311D01*
X124322016Y-108991871D01*
X124352302Y-108980666D01*
X124400466Y-108967066D01*
X124449539Y-108960174D01*
X124466363Y-108959661D01*
X124515150Y-108964055D01*
X124562579Y-108981526D01*
X124569922Y-108986284D01*
X124600534Y-109024580D01*
X124607780Y-109065907D01*
X124593017Y-109114309D01*
X124579204Y-109131120D01*
X124539124Y-109162901D01*
X124504954Y-109182166D01*
X124458487Y-109203538D01*
X124410432Y-109222711D01*
X124362958Y-109242409D01*
X124321527Y-109262766D01*
X124279640Y-109288595D01*
X124242393Y-109320163D01*
X124210946Y-109358632D01*
X124187787Y-109402459D01*
X124186461Y-109405648D01*
X124172102Y-109454709D01*
X124166195Y-109503756D01*
X124165456Y-109530701D01*
X124170247Y-109583303D01*
X124184620Y-109633309D01*
X124206000Y-109676514D01*
X124235038Y-109715965D01*
X124271469Y-109750359D01*
X124315294Y-109779697D01*
X124324947Y-109784958D01*
X124371927Y-109804911D01*
X124424664Y-109818334D01*
X124476374Y-109824784D01*
X124518143Y-109826235D01*
X124570068Y-109823944D01*
X124619038Y-109817715D01*
X124638066Y-109814267D01*
X124687157Y-109802487D01*
X124735603Y-109786596D01*
X124757745Y-109777875D01*
X124804727Y-109755813D01*
X124850420Y-109729317D01*
X124871074Y-109715593D01*
X124781437Y-109557323D01*
X124738486Y-109585264D01*
X124702302Y-109604218D01*
X124656750Y-109623207D01*
X124616328Y-109635725D01*
X124567199Y-109645106D01*
X124536461Y-109646960D01*
X124486075Y-109641996D01*
X124462944Y-109636458D01*
X124417900Y-109615091D01*
X124401395Y-109600799D01*
X124379135Y-109556857D01*
X124376726Y-109530701D01*
X124391158Y-109482768D01*
X124396998Y-109474769D01*
X124433458Y-109440751D01*
X124451709Y-109428607D01*
X124496932Y-109404546D01*
X124526447Y-109392215D01*
X124571742Y-109373861D01*
X124618324Y-109353146D01*
X124624633Y-109350205D01*
X124670460Y-109325687D01*
X124713605Y-109296553D01*
X124719155Y-109292320D01*
X124756721Y-109256385D01*
X124785199Y-109216260D01*
X124790474Y-109206835D01*
X124809173Y-109157561D01*
X124816867Y-109108331D01*
X124817829Y-109081294D01*
X124813941Y-109027737D01*
X124802277Y-108978807D01*
X124780467Y-108930329D01*
X124778017Y-108926200D01*
X124746612Y-108884123D01*
X124707471Y-108848570D01*
X124665177Y-108821908D01*
X124617492Y-108801128D01*
X124565419Y-108787027D01*
X124514801Y-108780046D01*
X124497138Y-108778921D01*
X124444885Y-108780336D01*
X124390663Y-108785415D01*
X124342303Y-108794189D01*
X124294905Y-108808475D01*
X124247936Y-108827890D01*
X124204115Y-108849500D01*
X124159549Y-108875805D01*
X124155686Y-108878328D01*
X124232623Y-109033911D01*
G37*
G36*
X126106838Y-106886877D02*
G01*
X126316887Y-107289877D01*
X126427529Y-107229794D01*
X126397487Y-107221489D01*
X126367201Y-107218558D01*
X126318291Y-107220635D01*
X126269259Y-107229794D01*
X126222487Y-107247379D01*
X126180355Y-107274734D01*
X126146412Y-107310043D01*
X126120834Y-107352586D01*
X126116119Y-107362906D01*
X126100147Y-107413429D01*
X126092992Y-107464114D01*
X126091450Y-107505544D01*
X126095160Y-107560005D01*
X126106288Y-107609906D01*
X126124835Y-107655248D01*
X126138345Y-107678468D01*
X126170469Y-107720161D01*
X126208221Y-107755175D01*
X126251603Y-107783511D01*
X126260955Y-107788377D01*
X126309365Y-107808341D01*
X126360255Y-107820911D01*
X126413626Y-107826087D01*
X126424598Y-107826235D01*
X126477068Y-107822216D01*
X126526916Y-107811472D01*
X126568945Y-107797658D01*
X126617224Y-107775622D01*
X126658287Y-107749141D01*
X126689357Y-107721210D01*
X126585798Y-107553171D01*
X126548552Y-107587482D01*
X126521318Y-107604951D01*
X126473954Y-107624580D01*
X126430215Y-107630108D01*
X126381174Y-107619950D01*
X126370131Y-107614720D01*
X126331434Y-107582984D01*
X126321039Y-107568558D01*
X126303808Y-107522171D01*
X126301499Y-107493087D01*
X126308091Y-107443880D01*
X126331767Y-107399550D01*
X126335937Y-107394902D01*
X126376970Y-107367608D01*
X126427861Y-107358545D01*
X126431681Y-107358510D01*
X126481597Y-107360402D01*
X126495428Y-107362173D01*
X126538171Y-107371210D01*
X126542323Y-107365593D01*
X126378436Y-107059068D01*
X126319573Y-107082759D01*
X126612176Y-107082759D01*
X126612176Y-106886877D01*
X126106838Y-106886877D01*
G37*
G36*
X125986670Y-107714127D02*
G01*
X125974363Y-107665527D01*
X125955163Y-107641587D01*
X125913298Y-107616190D01*
X125885798Y-107612034D01*
X125837357Y-107627301D01*
X125819364Y-107641587D01*
X125792287Y-107683662D01*
X125787857Y-107714127D01*
X125798964Y-107762314D01*
X125819364Y-107787644D01*
X125862190Y-107811767D01*
X125885798Y-107815000D01*
X125934851Y-107802070D01*
X125955163Y-107787644D01*
X125982239Y-107746104D01*
X125986670Y-107714127D01*
G37*
G36*
X125128889Y-106886877D02*
G01*
X125338938Y-107289877D01*
X125449580Y-107229794D01*
X125419538Y-107221489D01*
X125389252Y-107218558D01*
X125340343Y-107220635D01*
X125291311Y-107229794D01*
X125244538Y-107247379D01*
X125202406Y-107274734D01*
X125168464Y-107310043D01*
X125142885Y-107352586D01*
X125138171Y-107362906D01*
X125122199Y-107413429D01*
X125115044Y-107464114D01*
X125113502Y-107505544D01*
X125117211Y-107560005D01*
X125128340Y-107609906D01*
X125146887Y-107655248D01*
X125160397Y-107678468D01*
X125192520Y-107720161D01*
X125230273Y-107755175D01*
X125273655Y-107783511D01*
X125283007Y-107788377D01*
X125331416Y-107808341D01*
X125382307Y-107820911D01*
X125435677Y-107826087D01*
X125446649Y-107826235D01*
X125499120Y-107822216D01*
X125548967Y-107811472D01*
X125590997Y-107797658D01*
X125639276Y-107775622D01*
X125680339Y-107749141D01*
X125711409Y-107721210D01*
X125607850Y-107553171D01*
X125570603Y-107587482D01*
X125543369Y-107604951D01*
X125496005Y-107624580D01*
X125452267Y-107630108D01*
X125403226Y-107619950D01*
X125392183Y-107614720D01*
X125353486Y-107582984D01*
X125343090Y-107568558D01*
X125325860Y-107522171D01*
X125323551Y-107493087D01*
X125330143Y-107443880D01*
X125353819Y-107399550D01*
X125357989Y-107394902D01*
X125399022Y-107367608D01*
X125449912Y-107358545D01*
X125453732Y-107358510D01*
X125503649Y-107360402D01*
X125517480Y-107362173D01*
X125560222Y-107371210D01*
X125564374Y-107365593D01*
X125400487Y-107059068D01*
X125341625Y-107082759D01*
X125634228Y-107082759D01*
X125634228Y-106886877D01*
X125128889Y-106886877D01*
G37*
G36*
X124741276Y-106784539D02*
G01*
X124440369Y-107526549D01*
X124557850Y-107502857D01*
X124285030Y-106784539D01*
X124044207Y-106784539D01*
X124514619Y-107862627D01*
X124985030Y-106784539D01*
X124741276Y-106784539D01*
G37*
G36*
X127520760Y-104784539D02*
G01*
X127219853Y-105526549D01*
X127337333Y-105502857D01*
X127064514Y-104784539D01*
X126823691Y-104784539D01*
X127294102Y-105862627D01*
X127764514Y-104784539D01*
X127520760Y-104784539D01*
G37*
G36*
X126646370Y-105815000D02*
G01*
X126303453Y-105815000D01*
X126269412Y-105813992D01*
X126219380Y-105808703D01*
X126170585Y-105798879D01*
X126146877Y-105792148D01*
X126098751Y-105772849D01*
X126055058Y-105747100D01*
X126036571Y-105732938D01*
X126001641Y-105696833D01*
X125973726Y-105653311D01*
X125956622Y-105610287D01*
X125946617Y-105561145D01*
X125943684Y-105511161D01*
X126153732Y-105511161D01*
X126155045Y-105529983D01*
X126174737Y-105576374D01*
X126187770Y-105589836D01*
X126232134Y-105614232D01*
X126263074Y-105621822D01*
X126313223Y-105625956D01*
X126443404Y-105625956D01*
X126443404Y-105401985D01*
X126327389Y-105401985D01*
X126292670Y-105403517D01*
X126244102Y-105411266D01*
X126222749Y-105417470D01*
X126178889Y-105443506D01*
X126164567Y-105461859D01*
X126153732Y-105511161D01*
X125943684Y-105511161D01*
X125943908Y-105499904D01*
X125951755Y-105446624D01*
X125970813Y-105398353D01*
X126001081Y-105355090D01*
X126024056Y-105331700D01*
X126063960Y-105300608D01*
X126110395Y-105274307D01*
X126116068Y-105271958D01*
X126111456Y-105269529D01*
X126072272Y-105239132D01*
X126039671Y-105202438D01*
X126031290Y-105190211D01*
X126009309Y-105145484D01*
X125996486Y-105094651D01*
X125995923Y-105086912D01*
X126202581Y-105086912D01*
X126208098Y-105125600D01*
X126231402Y-105169710D01*
X126270725Y-105198106D01*
X126320306Y-105206102D01*
X126443404Y-105206102D01*
X126443404Y-104980666D01*
X126334228Y-104980666D01*
X126283266Y-104986516D01*
X126238485Y-105007288D01*
X126212714Y-105038043D01*
X126202581Y-105086912D01*
X125995923Y-105086912D01*
X125992776Y-105043681D01*
X125992869Y-105035683D01*
X125998730Y-104983200D01*
X126016590Y-104930718D01*
X126046357Y-104886236D01*
X126088031Y-104849752D01*
X126132754Y-104824342D01*
X126183788Y-104805173D01*
X126232554Y-104793709D01*
X126285958Y-104786832D01*
X126343998Y-104784539D01*
X126646370Y-104784539D01*
X126646370Y-105815000D01*
G37*
G36*
X125558757Y-105434225D02*
G01*
X125550485Y-105485145D01*
X125529448Y-105528014D01*
X125497784Y-105566268D01*
X125457749Y-105597223D01*
X125451779Y-105600799D01*
X125404455Y-105620959D01*
X125353161Y-105628777D01*
X125346021Y-105628886D01*
X125297160Y-105624251D01*
X125249769Y-105608890D01*
X125234158Y-105600799D01*
X125192642Y-105570817D01*
X125160141Y-105533536D01*
X125156489Y-105528014D01*
X125134873Y-105482219D01*
X125127668Y-105434225D01*
X125127668Y-104784539D01*
X124927389Y-104784539D01*
X124927389Y-105438377D01*
X124930900Y-105493439D01*
X124941433Y-105545294D01*
X124958988Y-105593944D01*
X124983565Y-105639389D01*
X125013989Y-105680758D01*
X125049327Y-105717424D01*
X125089582Y-105749390D01*
X125134751Y-105776653D01*
X125183585Y-105798345D01*
X125235074Y-105813839D01*
X125289220Y-105823136D01*
X125338776Y-105826186D01*
X125346021Y-105826235D01*
X125395274Y-105823862D01*
X125449187Y-105815340D01*
X125500565Y-105800621D01*
X125549410Y-105779704D01*
X125555338Y-105776653D01*
X125600187Y-105749390D01*
X125640212Y-105717424D01*
X125675413Y-105680758D01*
X125705791Y-105639389D01*
X125730261Y-105593944D01*
X125747740Y-105545294D01*
X125758227Y-105493439D01*
X125761723Y-105438377D01*
X125761723Y-104784539D01*
X125558757Y-104784539D01*
X125558757Y-105434225D01*
G37*
G36*
X124132623Y-105033911D02*
G01*
X124177045Y-105011311D01*
X124222016Y-104991871D01*
X124252302Y-104980666D01*
X124300466Y-104967066D01*
X124349539Y-104960174D01*
X124366363Y-104959661D01*
X124415150Y-104964055D01*
X124462579Y-104981526D01*
X124469922Y-104986284D01*
X124500534Y-105024580D01*
X124507780Y-105065907D01*
X124493017Y-105114309D01*
X124479204Y-105131120D01*
X124439124Y-105162901D01*
X124404954Y-105182166D01*
X124358486Y-105203538D01*
X124310432Y-105222711D01*
X124262958Y-105242409D01*
X124221527Y-105262766D01*
X124179640Y-105288595D01*
X124142393Y-105320163D01*
X124110946Y-105358632D01*
X124087787Y-105402459D01*
X124086461Y-105405648D01*
X124072102Y-105454709D01*
X124066195Y-105503756D01*
X124065456Y-105530701D01*
X124070247Y-105583303D01*
X124084620Y-105633309D01*
X124106000Y-105676514D01*
X124135038Y-105715965D01*
X124171469Y-105750359D01*
X124215294Y-105779697D01*
X124224947Y-105784958D01*
X124271926Y-105804911D01*
X124324664Y-105818334D01*
X124376374Y-105824784D01*
X124418143Y-105826235D01*
X124470068Y-105823944D01*
X124519038Y-105817715D01*
X124538066Y-105814267D01*
X124587157Y-105802487D01*
X124635603Y-105786596D01*
X124657745Y-105777875D01*
X124704727Y-105755813D01*
X124750420Y-105729317D01*
X124771074Y-105715593D01*
X124681437Y-105557323D01*
X124638486Y-105585264D01*
X124602302Y-105604218D01*
X124556750Y-105623207D01*
X124516328Y-105635725D01*
X124467199Y-105645106D01*
X124436461Y-105646960D01*
X124386075Y-105641996D01*
X124362944Y-105636458D01*
X124317900Y-105615091D01*
X124301395Y-105600799D01*
X124279135Y-105556857D01*
X124276726Y-105530701D01*
X124291158Y-105482768D01*
X124296998Y-105474769D01*
X124333458Y-105440751D01*
X124351709Y-105428607D01*
X124396932Y-105404546D01*
X124426447Y-105392215D01*
X124471742Y-105373861D01*
X124518324Y-105353146D01*
X124524633Y-105350205D01*
X124570460Y-105325687D01*
X124613605Y-105296553D01*
X124619155Y-105292320D01*
X124656721Y-105256385D01*
X124685199Y-105216260D01*
X124690474Y-105206835D01*
X124709173Y-105157561D01*
X124716867Y-105108331D01*
X124717829Y-105081294D01*
X124713941Y-105027737D01*
X124702277Y-104978807D01*
X124680467Y-104930329D01*
X124678017Y-104926200D01*
X124646611Y-104884123D01*
X124607471Y-104848570D01*
X124565177Y-104821908D01*
X124517492Y-104801128D01*
X124465419Y-104787027D01*
X124414801Y-104780046D01*
X124397138Y-104778921D01*
X124344885Y-104780336D01*
X124290663Y-104785415D01*
X124242303Y-104794189D01*
X124194905Y-104808475D01*
X124147936Y-104827890D01*
X124104115Y-104849500D01*
X124059549Y-104875805D01*
X124055686Y-104878328D01*
X124132623Y-105033911D01*
G37*
G36*
X153515460Y-109193753D02*
G01*
X153515460Y-108491066D01*
X153319333Y-108491066D01*
X153319333Y-108990787D01*
X153099515Y-108990787D01*
X153099515Y-108548464D01*
X152903632Y-108548464D01*
X152903632Y-108990787D01*
X152680882Y-108990787D01*
X152680882Y-108471527D01*
X152485000Y-108471527D01*
X152485000Y-109193753D01*
X153515460Y-109193753D01*
G37*
G36*
X153266088Y-107711688D02*
G01*
X153288688Y-107756109D01*
X153308128Y-107801080D01*
X153319333Y-107831367D01*
X153332933Y-107879530D01*
X153339825Y-107928604D01*
X153340338Y-107945428D01*
X153335944Y-107994215D01*
X153318473Y-108041644D01*
X153313715Y-108048987D01*
X153275419Y-108079598D01*
X153234092Y-108086845D01*
X153185690Y-108072082D01*
X153168879Y-108058268D01*
X153137098Y-108018188D01*
X153117833Y-107984018D01*
X153096461Y-107937551D01*
X153077288Y-107889496D01*
X153057590Y-107842023D01*
X153037233Y-107800592D01*
X153011404Y-107758704D01*
X152979836Y-107721457D01*
X152941367Y-107690011D01*
X152897540Y-107666852D01*
X152894351Y-107665526D01*
X152845290Y-107651167D01*
X152796243Y-107645259D01*
X152769298Y-107644521D01*
X152716696Y-107649312D01*
X152666690Y-107663684D01*
X152623485Y-107685065D01*
X152584034Y-107714102D01*
X152549640Y-107750534D01*
X152520302Y-107794359D01*
X152515041Y-107804011D01*
X152495088Y-107850991D01*
X152481665Y-107903728D01*
X152475215Y-107955439D01*
X152473764Y-107997207D01*
X152476055Y-108049133D01*
X152482284Y-108098103D01*
X152485732Y-108117131D01*
X152497512Y-108166222D01*
X152513403Y-108214668D01*
X152522124Y-108236810D01*
X152544186Y-108283792D01*
X152570682Y-108329485D01*
X152584406Y-108350138D01*
X152742676Y-108260501D01*
X152714735Y-108217551D01*
X152695781Y-108181367D01*
X152676792Y-108135815D01*
X152664274Y-108095393D01*
X152654893Y-108046263D01*
X152653039Y-108015526D01*
X152658003Y-107965140D01*
X152663541Y-107942009D01*
X152684908Y-107896965D01*
X152699200Y-107880459D01*
X152743142Y-107858200D01*
X152769298Y-107855791D01*
X152817231Y-107870223D01*
X152825230Y-107876063D01*
X152859248Y-107912522D01*
X152871392Y-107930773D01*
X152895453Y-107975996D01*
X152907784Y-108005512D01*
X152926138Y-108050806D01*
X152946853Y-108097389D01*
X152949794Y-108103697D01*
X152974312Y-108149525D01*
X153003446Y-108192669D01*
X153007679Y-108198219D01*
X153043614Y-108235786D01*
X153083739Y-108264263D01*
X153093164Y-108269538D01*
X153142438Y-108288238D01*
X153191668Y-108295932D01*
X153218705Y-108296893D01*
X153272262Y-108293006D01*
X153321192Y-108281342D01*
X153369670Y-108259531D01*
X153373799Y-108257082D01*
X153415876Y-108225676D01*
X153451429Y-108186536D01*
X153478091Y-108144242D01*
X153498871Y-108096557D01*
X153512972Y-108044484D01*
X153519953Y-107993865D01*
X153521078Y-107976203D01*
X153519663Y-107923950D01*
X153514584Y-107869728D01*
X153505810Y-107821368D01*
X153491524Y-107773969D01*
X153472109Y-107727000D01*
X153450499Y-107683180D01*
X153424194Y-107638614D01*
X153421671Y-107634751D01*
X153266088Y-107711688D01*
G37*
G36*
X153207067Y-106739270D02*
G01*
X153255809Y-106746483D01*
X153306337Y-106761494D01*
X153352306Y-106783809D01*
X153375725Y-106799266D01*
X153413581Y-106832288D01*
X153445912Y-106871995D01*
X153472718Y-106918387D01*
X153477893Y-106929561D01*
X153495258Y-106977310D01*
X153507279Y-107029945D01*
X153513415Y-107080007D01*
X153515460Y-107133809D01*
X153515460Y-107445951D01*
X152485000Y-107445951D01*
X152485000Y-107242986D01*
X152811308Y-107242986D01*
X152811308Y-107098882D01*
X153008656Y-107098882D01*
X153008656Y-107242986D01*
X153319333Y-107242986D01*
X153319333Y-107097417D01*
X153316757Y-107060540D01*
X153301015Y-107012665D01*
X153292698Y-106999651D01*
X153256318Y-106965770D01*
X153251333Y-106962977D01*
X153203806Y-106945498D01*
X153162529Y-106940613D01*
X153116367Y-106948429D01*
X153109746Y-106950478D01*
X153065321Y-106973586D01*
X153055032Y-106981910D01*
X153024776Y-107021946D01*
X153014339Y-107049490D01*
X153008656Y-107098882D01*
X152811308Y-107098882D01*
X152811308Y-107097417D01*
X152811585Y-107078782D01*
X152815739Y-107026228D01*
X152826200Y-106973725D01*
X152842815Y-106927424D01*
X152859836Y-106894497D01*
X152890118Y-106851689D01*
X152926102Y-106816782D01*
X152949317Y-106799798D01*
X152995406Y-106773963D01*
X153041385Y-106756698D01*
X153065264Y-106750224D01*
X153116826Y-106740791D01*
X153168147Y-106737647D01*
X153207067Y-106739270D01*
G37*
G36*
X153515460Y-106171736D02*
G01*
X153515460Y-105477354D01*
X153319333Y-105477354D01*
X153319333Y-105727947D01*
X152485000Y-105727947D01*
X152485000Y-105930913D01*
X153319333Y-105930913D01*
X153319333Y-106171736D01*
X153515460Y-106171736D01*
G37*
G36*
X153515460Y-105365979D02*
G01*
X153515460Y-105107082D01*
X152485000Y-104435170D01*
X152485000Y-104696754D01*
X153515460Y-105365979D01*
G37*
G36*
X152485000Y-105380145D02*
G01*
X153061901Y-105013293D01*
X152857470Y-104918038D01*
X152485000Y-105128087D01*
X152485000Y-105380145D01*
G37*
G36*
X153137372Y-104904116D02*
G01*
X153515460Y-104691381D01*
X153515460Y-104444939D01*
X152962494Y-104799092D01*
X153137372Y-104904116D01*
G37*
G36*
X151515460Y-109334437D02*
G01*
X151515460Y-108631750D01*
X151319333Y-108631750D01*
X151319333Y-109131471D01*
X151099515Y-109131471D01*
X151099515Y-108689148D01*
X150903632Y-108689148D01*
X150903632Y-109131471D01*
X150680882Y-109131471D01*
X150680882Y-108612211D01*
X150485000Y-108612211D01*
X150485000Y-109334437D01*
X151515460Y-109334437D01*
G37*
G36*
X151266088Y-107852372D02*
G01*
X151288688Y-107896793D01*
X151308128Y-107941764D01*
X151319333Y-107972051D01*
X151332933Y-108020214D01*
X151339825Y-108069288D01*
X151340338Y-108086112D01*
X151335944Y-108134899D01*
X151318473Y-108182328D01*
X151313715Y-108189671D01*
X151275419Y-108220282D01*
X151234092Y-108227529D01*
X151185690Y-108212766D01*
X151168879Y-108198952D01*
X151137098Y-108158872D01*
X151117833Y-108124702D01*
X151096461Y-108078235D01*
X151077288Y-108030180D01*
X151057590Y-107982707D01*
X151037233Y-107941276D01*
X151011404Y-107899388D01*
X150979836Y-107862141D01*
X150941367Y-107830695D01*
X150897540Y-107807536D01*
X150894351Y-107806210D01*
X150845290Y-107791851D01*
X150796243Y-107785943D01*
X150769298Y-107785205D01*
X150716696Y-107789996D01*
X150666690Y-107804368D01*
X150623485Y-107825749D01*
X150584034Y-107854786D01*
X150549640Y-107891218D01*
X150520302Y-107935043D01*
X150515041Y-107944695D01*
X150495088Y-107991675D01*
X150481665Y-108044412D01*
X150475215Y-108096123D01*
X150473764Y-108137891D01*
X150476055Y-108189817D01*
X150482284Y-108238787D01*
X150485732Y-108257815D01*
X150497512Y-108306906D01*
X150513403Y-108355352D01*
X150522124Y-108377494D01*
X150544186Y-108424476D01*
X150570682Y-108470169D01*
X150584406Y-108490822D01*
X150742676Y-108401185D01*
X150714735Y-108358235D01*
X150695781Y-108322051D01*
X150676792Y-108276499D01*
X150664274Y-108236077D01*
X150654893Y-108186947D01*
X150653039Y-108156210D01*
X150658003Y-108105824D01*
X150663541Y-108082693D01*
X150684908Y-108037649D01*
X150699200Y-108021143D01*
X150743142Y-107998884D01*
X150769298Y-107996475D01*
X150817231Y-108010907D01*
X150825230Y-108016747D01*
X150859248Y-108053206D01*
X150871392Y-108071457D01*
X150895453Y-108116680D01*
X150907784Y-108146196D01*
X150926138Y-108191490D01*
X150946853Y-108238073D01*
X150949794Y-108244381D01*
X150974312Y-108290209D01*
X151003446Y-108333353D01*
X151007679Y-108338903D01*
X151043614Y-108376470D01*
X151083739Y-108404947D01*
X151093164Y-108410222D01*
X151142438Y-108428922D01*
X151191668Y-108436616D01*
X151218705Y-108437577D01*
X151272262Y-108433690D01*
X151321192Y-108422026D01*
X151369670Y-108400215D01*
X151373799Y-108397766D01*
X151415876Y-108366360D01*
X151451429Y-108327220D01*
X151478091Y-108284926D01*
X151498871Y-108237241D01*
X151512972Y-108185168D01*
X151519953Y-108134549D01*
X151521078Y-108116887D01*
X151519663Y-108064634D01*
X151514584Y-108010412D01*
X151505810Y-107962052D01*
X151491524Y-107914653D01*
X151472109Y-107867684D01*
X151450499Y-107823864D01*
X151424194Y-107779298D01*
X151421671Y-107775435D01*
X151266088Y-107852372D01*
G37*
G36*
X151207067Y-106879954D02*
G01*
X151255809Y-106887167D01*
X151306337Y-106902178D01*
X151352306Y-106924493D01*
X151375725Y-106939950D01*
X151413581Y-106972972D01*
X151445912Y-107012679D01*
X151472718Y-107059071D01*
X151477893Y-107070245D01*
X151495258Y-107117994D01*
X151507279Y-107170629D01*
X151513415Y-107220691D01*
X151515460Y-107274493D01*
X151515460Y-107586635D01*
X150485000Y-107586635D01*
X150485000Y-107383670D01*
X150811308Y-107383670D01*
X150811308Y-107239566D01*
X151008656Y-107239566D01*
X151008656Y-107383670D01*
X151319333Y-107383670D01*
X151319333Y-107238101D01*
X151316757Y-107201224D01*
X151301015Y-107153349D01*
X151292698Y-107140335D01*
X151256318Y-107106454D01*
X151251333Y-107103661D01*
X151203806Y-107086182D01*
X151162529Y-107081297D01*
X151116367Y-107089113D01*
X151109746Y-107091162D01*
X151065321Y-107114270D01*
X151055032Y-107122594D01*
X151024776Y-107162630D01*
X151014339Y-107190174D01*
X151008656Y-107239566D01*
X150811308Y-107239566D01*
X150811308Y-107238101D01*
X150811585Y-107219466D01*
X150815739Y-107166912D01*
X150826200Y-107114409D01*
X150842815Y-107068108D01*
X150859836Y-107035181D01*
X150890118Y-106992373D01*
X150926102Y-106957466D01*
X150949317Y-106940482D01*
X150995406Y-106914647D01*
X151041385Y-106897382D01*
X151065264Y-106890908D01*
X151116826Y-106881475D01*
X151168147Y-106878331D01*
X151207067Y-106879954D01*
G37*
G36*
X150859561Y-105689966D02*
G01*
X150861057Y-105687037D01*
X150891339Y-105643439D01*
X150927323Y-105607536D01*
X150953915Y-105587660D01*
X150996436Y-105563457D01*
X151042117Y-105545986D01*
X151065748Y-105539512D01*
X151116947Y-105530080D01*
X151168147Y-105526935D01*
X151211797Y-105529041D01*
X151261684Y-105537335D01*
X151311762Y-105553558D01*
X151342490Y-105568411D01*
X151384290Y-105596472D01*
X151420938Y-105631471D01*
X151447280Y-105665785D01*
X151471518Y-105709094D01*
X151490792Y-105758233D01*
X151496573Y-105777429D01*
X151507655Y-105828291D01*
X151513509Y-105877574D01*
X151515460Y-105930180D01*
X151515460Y-106242323D01*
X150485000Y-106242323D01*
X150485000Y-106039357D01*
X150812529Y-106039357D01*
X150812529Y-105904206D01*
X150799051Y-105895254D01*
X151008656Y-105895254D01*
X151008656Y-106039357D01*
X151319333Y-106039357D01*
X151319333Y-105893788D01*
X151316757Y-105856911D01*
X151301015Y-105809036D01*
X151292698Y-105796023D01*
X151256318Y-105762141D01*
X151251333Y-105759348D01*
X151203806Y-105741869D01*
X151161308Y-105736984D01*
X151112948Y-105744800D01*
X151106506Y-105746849D01*
X151063122Y-105769957D01*
X151053155Y-105778282D01*
X151024043Y-105818317D01*
X151014081Y-105845861D01*
X151008656Y-105895254D01*
X150799051Y-105895254D01*
X150485000Y-105686670D01*
X150485000Y-105449999D01*
X150859561Y-105689966D01*
G37*
G36*
X151515460Y-105365979D02*
G01*
X151515460Y-105107082D01*
X150485000Y-104435170D01*
X150485000Y-104696754D01*
X151515460Y-105365979D01*
G37*
G36*
X150485000Y-105380145D02*
G01*
X151061901Y-105013293D01*
X150857470Y-104918038D01*
X150485000Y-105128087D01*
X150485000Y-105380145D01*
G37*
G36*
X151137372Y-104904116D02*
G01*
X151515460Y-104691381D01*
X151515460Y-104444940D01*
X150962494Y-104799092D01*
X151137372Y-104904116D01*
G37*
%LPC*%
D12*
G36*
X158693510Y-113395631D02*
G01*
X158131360Y-113395631D01*
X158131360Y-113552533D01*
X158531137Y-113552533D01*
X158531137Y-113728387D01*
X158177278Y-113728387D01*
X158177278Y-113885094D01*
X158531137Y-113885094D01*
X158531137Y-114063293D01*
X158115729Y-114063293D01*
X158115729Y-114220000D01*
X158693510Y-114220000D01*
X158693510Y-113395631D01*
G37*
G36*
X157947885Y-113395631D02*
G01*
X157785512Y-113395631D01*
X157785512Y-114063293D01*
X157398046Y-114063293D01*
X157398046Y-114220000D01*
X157947885Y-114220000D01*
X157947885Y-113395631D01*
G37*
G36*
X157230397Y-114220000D02*
G01*
X157068025Y-114220000D01*
X157068025Y-113957976D01*
X156959905Y-113957976D01*
X156785875Y-114220000D01*
X156596538Y-114220000D01*
X156788512Y-113920349D01*
X156786168Y-113919153D01*
X156751290Y-113894928D01*
X156722568Y-113866140D01*
X156706667Y-113844867D01*
X156687305Y-113810850D01*
X156673328Y-113774305D01*
X156668149Y-113755401D01*
X156660603Y-113714441D01*
X156658423Y-113678953D01*
X156826127Y-113678953D01*
X156832379Y-113717641D01*
X156834019Y-113722794D01*
X156852505Y-113757501D01*
X156859165Y-113765475D01*
X156891193Y-113788764D01*
X156913228Y-113796734D01*
X156952742Y-113801074D01*
X157068025Y-113801074D01*
X157068025Y-113552533D01*
X156951570Y-113552533D01*
X156922068Y-113554593D01*
X156883768Y-113567187D01*
X156873357Y-113573840D01*
X156846252Y-113602944D01*
X156844018Y-113606933D01*
X156830034Y-113644954D01*
X156826127Y-113678953D01*
X156658423Y-113678953D01*
X156658087Y-113673482D01*
X156659772Y-113638561D01*
X156666407Y-113598652D01*
X156679385Y-113558590D01*
X156691268Y-113534007D01*
X156713717Y-113500567D01*
X156741716Y-113471249D01*
X156769167Y-113450175D01*
X156803814Y-113430785D01*
X156843126Y-113415366D01*
X156858483Y-113410741D01*
X156899172Y-113401875D01*
X156938598Y-113397192D01*
X156980683Y-113395631D01*
X157230397Y-113395631D01*
X157230397Y-114220000D01*
G37*
G36*
X156022079Y-113595129D02*
G01*
X156057616Y-113577049D01*
X156093593Y-113561496D01*
X156117822Y-113552533D01*
X156156353Y-113541653D01*
X156195612Y-113536139D01*
X156209071Y-113535729D01*
X156248101Y-113539244D01*
X156286044Y-113553221D01*
X156291919Y-113557027D01*
X156316408Y-113587664D01*
X156322205Y-113620725D01*
X156310395Y-113659447D01*
X156299344Y-113672896D01*
X156267280Y-113698321D01*
X156239944Y-113713733D01*
X156202770Y-113730830D01*
X156164326Y-113746168D01*
X156126347Y-113761927D01*
X156093203Y-113778213D01*
X156059692Y-113798876D01*
X156029895Y-113824131D01*
X156004738Y-113854905D01*
X155986211Y-113889967D01*
X155985150Y-113892519D01*
X155973662Y-113931767D01*
X155968936Y-113971005D01*
X155968346Y-113992561D01*
X155972178Y-114034643D01*
X155983676Y-114074647D01*
X156000781Y-114109211D01*
X156024011Y-114140772D01*
X156053156Y-114168287D01*
X156088216Y-114191757D01*
X156095938Y-114195966D01*
X156133522Y-114211929D01*
X156175712Y-114222667D01*
X156217080Y-114227827D01*
X156250495Y-114228988D01*
X156292035Y-114227155D01*
X156331211Y-114222172D01*
X156346434Y-114219413D01*
X156385706Y-114209990D01*
X156424463Y-114197277D01*
X156442177Y-114190300D01*
X156479763Y-114172650D01*
X156516317Y-114151454D01*
X156532840Y-114140474D01*
X156461130Y-114013859D01*
X156426770Y-114036211D01*
X156397822Y-114051374D01*
X156361381Y-114066565D01*
X156329043Y-114076580D01*
X156289740Y-114084085D01*
X156265150Y-114085568D01*
X156224841Y-114081597D01*
X156206336Y-114077166D01*
X156170301Y-114060072D01*
X156157096Y-114048639D01*
X156139289Y-114013485D01*
X156137362Y-113992561D01*
X156148907Y-113954214D01*
X156153579Y-113947815D01*
X156182747Y-113920601D01*
X156197348Y-113910886D01*
X156233526Y-113891636D01*
X156257138Y-113881772D01*
X156293374Y-113867089D01*
X156330640Y-113850517D01*
X156335687Y-113848164D01*
X156372349Y-113828549D01*
X156406865Y-113805242D01*
X156411304Y-113801856D01*
X156441358Y-113773108D01*
X156464140Y-113741008D01*
X156468360Y-113733468D01*
X156483319Y-113694048D01*
X156489474Y-113654664D01*
X156490244Y-113633035D01*
X156487133Y-113590190D01*
X156477803Y-113551046D01*
X156460354Y-113512263D01*
X156458394Y-113508960D01*
X156433270Y-113475299D01*
X156401958Y-113446856D01*
X156368122Y-113425526D01*
X156329975Y-113408903D01*
X156288316Y-113397622D01*
X156247821Y-113392037D01*
X156233691Y-113391137D01*
X156191889Y-113392268D01*
X156148511Y-113396332D01*
X156109823Y-113403351D01*
X156071905Y-113414780D01*
X156034329Y-113430312D01*
X155999273Y-113447600D01*
X155963620Y-113468644D01*
X155960530Y-113470662D01*
X156022079Y-113595129D01*
G37*
G36*
X155006029Y-113595129D02*
G01*
X155041566Y-113577049D01*
X155077543Y-113561496D01*
X155101772Y-113552533D01*
X155140303Y-113541653D01*
X155179562Y-113536139D01*
X155193021Y-113535729D01*
X155232051Y-113539244D01*
X155269994Y-113553221D01*
X155275868Y-113557027D01*
X155300357Y-113587664D01*
X155306154Y-113620725D01*
X155294344Y-113659447D01*
X155283293Y-113672896D01*
X155251230Y-113698321D01*
X155223893Y-113713733D01*
X155186720Y-113730830D01*
X155148276Y-113746168D01*
X155110297Y-113761927D01*
X155077152Y-113778213D01*
X155043642Y-113798876D01*
X155013845Y-113824131D01*
X154988688Y-113854905D01*
X154970160Y-113889967D01*
X154969099Y-113892519D01*
X154957612Y-113931767D01*
X154952886Y-113971005D01*
X154952295Y-113992561D01*
X154956128Y-114034643D01*
X154967626Y-114074647D01*
X154984731Y-114109211D01*
X155007961Y-114140772D01*
X155037106Y-114168287D01*
X155072166Y-114191757D01*
X155079888Y-114195966D01*
X155117472Y-114211929D01*
X155159661Y-114222667D01*
X155201030Y-114227827D01*
X155234445Y-114228988D01*
X155275985Y-114227155D01*
X155315161Y-114222172D01*
X155330383Y-114219413D01*
X155369656Y-114209990D01*
X155408413Y-114197277D01*
X155426127Y-114190300D01*
X155463712Y-114172650D01*
X155500266Y-114151454D01*
X155516789Y-114140474D01*
X155445080Y-114013859D01*
X155410719Y-114036211D01*
X155381772Y-114051374D01*
X155345331Y-114066565D01*
X155312993Y-114076580D01*
X155273689Y-114084085D01*
X155249099Y-114085568D01*
X155208791Y-114081597D01*
X155190286Y-114077166D01*
X155154251Y-114060072D01*
X155141046Y-114048639D01*
X155123239Y-114013485D01*
X155121311Y-113992561D01*
X155132857Y-113954214D01*
X155137529Y-113947815D01*
X155166697Y-113920601D01*
X155181297Y-113910886D01*
X155217476Y-113891636D01*
X155241088Y-113881772D01*
X155277324Y-113867089D01*
X155314590Y-113850517D01*
X155319637Y-113848164D01*
X155356299Y-113828549D01*
X155390814Y-113805242D01*
X155395254Y-113801856D01*
X155425308Y-113773108D01*
X155448089Y-113741008D01*
X155452309Y-113733468D01*
X155467269Y-113694048D01*
X155473424Y-113654664D01*
X155474193Y-113633035D01*
X155471083Y-113590190D01*
X155461752Y-113551046D01*
X155444304Y-113512263D01*
X155442344Y-113508960D01*
X155417220Y-113475299D01*
X155385907Y-113446856D01*
X155352072Y-113425526D01*
X155313924Y-113408903D01*
X155272266Y-113397622D01*
X155231771Y-113392037D01*
X155217641Y-113391137D01*
X155175839Y-113392268D01*
X155132461Y-113396332D01*
X155093773Y-113403351D01*
X155055854Y-113414780D01*
X155018279Y-113430312D01*
X154983223Y-113447600D01*
X154947570Y-113468644D01*
X154944480Y-113470662D01*
X155006029Y-113595129D01*
G37*
G36*
X154819232Y-113730537D02*
G01*
X154662526Y-113730537D01*
X154662526Y-114220000D01*
X154819232Y-114220000D01*
X154819232Y-113730537D01*
G37*
G36*
X154822749Y-113559567D02*
G01*
X154812063Y-113520976D01*
X154795394Y-113502512D01*
X154759429Y-113483201D01*
X154736385Y-113480041D01*
X154697456Y-113489719D01*
X154678743Y-113502512D01*
X154656075Y-113535240D01*
X154652365Y-113559567D01*
X154662669Y-113598005D01*
X154678743Y-113616231D01*
X154713624Y-113634870D01*
X154736385Y-113637920D01*
X154775991Y-113628579D01*
X154795394Y-113616231D01*
X154818902Y-113583838D01*
X154822749Y-113559567D01*
G37*
G36*
X154358883Y-113730537D02*
G01*
X154346573Y-113816706D01*
X154348918Y-113810062D01*
X154325049Y-113776210D01*
X154297114Y-113748513D01*
X154276231Y-113733468D01*
X154240877Y-113716679D01*
X154200467Y-113707639D01*
X154170718Y-113705917D01*
X154130653Y-113709116D01*
X154099790Y-113717250D01*
X154064940Y-113735370D01*
X154047620Y-113750272D01*
X154025473Y-113784376D01*
X154018506Y-113806741D01*
X154023977Y-113807913D01*
X153998716Y-113776003D01*
X153969829Y-113749148D01*
X153948555Y-113734054D01*
X153911904Y-113715836D01*
X153871064Y-113706604D01*
X153856133Y-113705917D01*
X153813502Y-113709905D01*
X153773351Y-113723504D01*
X153740265Y-113746755D01*
X153715541Y-113777693D01*
X153700745Y-113814358D01*
X153695910Y-113852658D01*
X153695910Y-114220000D01*
X153851639Y-114220000D01*
X153851639Y-113917529D01*
X153856769Y-113878472D01*
X153861605Y-113864382D01*
X153895286Y-113842348D01*
X153903028Y-113841521D01*
X153942183Y-113849867D01*
X153967508Y-113867899D01*
X153991730Y-113899854D01*
X154006782Y-113934919D01*
X154016039Y-113973848D01*
X154019628Y-114014065D01*
X154019678Y-114019525D01*
X154019678Y-114220000D01*
X154176385Y-114220000D01*
X154176385Y-113917529D01*
X154182522Y-113878472D01*
X154188304Y-113864382D01*
X154221689Y-113842646D01*
X154231290Y-113841521D01*
X154271011Y-113850820D01*
X154293426Y-113867899D01*
X154316733Y-113899744D01*
X154331528Y-113934528D01*
X154340784Y-113972779D01*
X154344373Y-114012060D01*
X154344424Y-114017376D01*
X154344424Y-114220000D01*
X154501130Y-114220000D01*
X154501130Y-113730537D01*
X154358883Y-113730537D01*
G37*
G36*
X158253482Y-114939129D02*
G01*
X158289019Y-114921049D01*
X158324996Y-114905496D01*
X158349225Y-114896533D01*
X158387756Y-114885653D01*
X158427015Y-114880139D01*
X158440474Y-114879729D01*
X158479504Y-114883244D01*
X158517447Y-114897221D01*
X158523321Y-114901027D01*
X158547810Y-114931664D01*
X158553607Y-114964725D01*
X158541797Y-115003447D01*
X158530746Y-115016896D01*
X158498682Y-115042321D01*
X158471346Y-115057733D01*
X158434173Y-115074830D01*
X158395729Y-115090168D01*
X158357750Y-115105927D01*
X158324605Y-115122213D01*
X158291095Y-115142876D01*
X158261297Y-115168131D01*
X158236140Y-115198905D01*
X158217613Y-115233967D01*
X158216552Y-115236519D01*
X158205065Y-115275767D01*
X158200339Y-115315005D01*
X158199748Y-115336561D01*
X158203581Y-115378643D01*
X158215079Y-115418647D01*
X158232184Y-115453211D01*
X158255414Y-115484772D01*
X158284559Y-115512287D01*
X158319619Y-115535757D01*
X158327341Y-115539966D01*
X158364925Y-115555929D01*
X158407114Y-115566667D01*
X158448483Y-115571827D01*
X158481898Y-115572988D01*
X158523438Y-115571155D01*
X158562614Y-115566172D01*
X158577836Y-115563413D01*
X158617109Y-115553990D01*
X158655866Y-115541277D01*
X158673579Y-115534300D01*
X158711165Y-115516650D01*
X158747719Y-115495454D01*
X158764242Y-115484474D01*
X158692533Y-115357859D01*
X158658172Y-115380211D01*
X158629225Y-115395374D01*
X158592783Y-115410565D01*
X158560446Y-115420580D01*
X158521142Y-115428085D01*
X158496552Y-115429568D01*
X158456244Y-115425597D01*
X158437739Y-115421166D01*
X158401704Y-115404072D01*
X158388499Y-115392639D01*
X158370692Y-115357485D01*
X158368764Y-115336561D01*
X158380310Y-115298214D01*
X158384982Y-115291815D01*
X158414150Y-115264601D01*
X158428750Y-115254886D01*
X158464929Y-115235636D01*
X158488541Y-115225772D01*
X158524777Y-115211089D01*
X158562043Y-115194517D01*
X158567090Y-115192164D01*
X158603752Y-115172549D01*
X158638267Y-115149242D01*
X158642707Y-115145856D01*
X158672760Y-115117108D01*
X158695542Y-115085008D01*
X158699762Y-115077468D01*
X158714722Y-115038048D01*
X158720877Y-114998664D01*
X158721646Y-114977035D01*
X158718536Y-114934190D01*
X158709205Y-114895046D01*
X158691757Y-114856263D01*
X158689797Y-114852960D01*
X158664673Y-114819299D01*
X158633360Y-114790856D01*
X158599525Y-114769526D01*
X158561377Y-114752903D01*
X158519719Y-114741622D01*
X158479224Y-114736037D01*
X158465094Y-114735137D01*
X158423292Y-114736268D01*
X158379914Y-114740332D01*
X158341226Y-114747351D01*
X158303307Y-114758780D01*
X158265732Y-114774312D01*
X158230676Y-114791600D01*
X158195023Y-114812644D01*
X158191933Y-114814662D01*
X158253482Y-114939129D01*
G37*
G36*
X158020767Y-114859603D02*
G01*
X157864061Y-114859603D01*
X157864061Y-115072387D01*
X157745261Y-115072387D01*
X157745261Y-115194314D01*
X157864061Y-115194314D01*
X157864061Y-115564000D01*
X158020767Y-115564000D01*
X158020767Y-115194314D01*
X158096971Y-115194314D01*
X158096971Y-115072387D01*
X158020767Y-115072387D01*
X158020767Y-114859603D01*
G37*
G36*
X157625875Y-115074537D02*
G01*
X157469169Y-115074537D01*
X157469169Y-115564000D01*
X157625875Y-115564000D01*
X157625875Y-115074537D01*
G37*
G36*
X157629392Y-114903567D02*
G01*
X157618707Y-114864976D01*
X157602037Y-114846512D01*
X157566072Y-114827201D01*
X157543028Y-114824041D01*
X157504099Y-114833719D01*
X157485387Y-114846512D01*
X157462718Y-114879240D01*
X157459009Y-114903567D01*
X157469313Y-114942005D01*
X157485387Y-114960231D01*
X157520268Y-114978870D01*
X157543028Y-114981920D01*
X157582634Y-114972579D01*
X157602037Y-114960231D01*
X157625546Y-114927838D01*
X157629392Y-114903567D01*
G37*
G36*
X156892365Y-115520231D02*
G01*
X156926380Y-115542222D01*
X156964634Y-115558795D01*
X156973649Y-115561850D01*
X157012890Y-115571971D01*
X157054499Y-115577100D01*
X157069197Y-115577482D01*
X157109851Y-115575564D01*
X157152347Y-115568824D01*
X157191411Y-115557230D01*
X157215547Y-115546805D01*
X157251653Y-115524895D01*
X157282302Y-115497758D01*
X157307493Y-115465392D01*
X157311877Y-115458291D01*
X157329806Y-115419815D01*
X157340264Y-115381206D01*
X157345344Y-115338826D01*
X157345875Y-115318780D01*
X157343567Y-115279359D01*
X157335453Y-115238631D01*
X157321496Y-115201735D01*
X157308946Y-115179268D01*
X157283632Y-115145914D01*
X157253854Y-115117902D01*
X157219610Y-115095233D01*
X157212226Y-115091341D01*
X157174124Y-115075370D01*
X157134801Y-115065314D01*
X157094256Y-115061173D01*
X157086001Y-115061055D01*
X157046422Y-115062810D01*
X157006808Y-115068796D01*
X156971304Y-115079031D01*
X156933969Y-115095475D01*
X156899027Y-115117295D01*
X156887871Y-115126121D01*
X156964075Y-115226944D01*
X156998938Y-115205754D01*
X157007257Y-115201739D01*
X157045191Y-115190656D01*
X157071542Y-115188842D01*
X157111757Y-115196079D01*
X157130942Y-115205646D01*
X157161364Y-115233003D01*
X157173538Y-115251564D01*
X157186589Y-115289305D01*
X157189169Y-115318780D01*
X157183245Y-115359313D01*
X157172365Y-115384823D01*
X157147864Y-115416241D01*
X157125861Y-115432499D01*
X157089110Y-115446403D01*
X157055910Y-115449694D01*
X157016578Y-115444921D01*
X157008234Y-115442464D01*
X156972697Y-115423413D01*
X156970718Y-115421752D01*
X156892365Y-115520231D01*
G37*
G36*
X156771612Y-115564000D02*
G01*
X156771612Y-114680231D01*
X156614905Y-114680231D01*
X156614905Y-115564000D01*
X156771612Y-115564000D01*
G37*
G36*
X156490635Y-115231438D02*
G01*
X156268862Y-115564000D01*
X156451360Y-115564000D01*
X156593607Y-115320929D01*
X156490635Y-115231438D01*
G37*
G36*
X156661995Y-115428396D02*
G01*
X156677627Y-115279505D01*
X156381995Y-115062227D01*
X156286643Y-115146247D01*
X156661995Y-115428396D01*
G37*
G36*
X155595380Y-115574160D02*
G01*
X155888862Y-115074537D01*
X155702847Y-115074537D01*
X155535980Y-115412764D01*
X155632309Y-115409443D01*
X155487913Y-115074537D01*
X155313035Y-115074537D01*
X155590886Y-115574160D01*
X155595380Y-115574160D01*
G37*
G36*
X154954575Y-114812531D02*
G01*
X154995417Y-114814707D01*
X155034312Y-114820507D01*
X155074849Y-114831076D01*
X155109040Y-114845036D01*
X155143255Y-114866122D01*
X155173914Y-114893211D01*
X155181628Y-114901633D01*
X155204984Y-114933354D01*
X155224714Y-114970685D01*
X155239371Y-115009080D01*
X155242211Y-115018254D01*
X155251736Y-115057699D01*
X155258331Y-115101541D01*
X155261697Y-115143509D01*
X155262819Y-115188842D01*
X155261641Y-115229780D01*
X155257409Y-115273613D01*
X155250100Y-115314295D01*
X155238199Y-115356295D01*
X155233421Y-115369415D01*
X155217151Y-115406176D01*
X155195666Y-115442454D01*
X155170593Y-115473923D01*
X155142306Y-115500538D01*
X155108194Y-115524436D01*
X155070942Y-115542702D01*
X155031131Y-115555495D01*
X154989611Y-115562977D01*
X154950383Y-115565172D01*
X154911232Y-115563092D01*
X154869973Y-115556000D01*
X154830607Y-115543874D01*
X154796779Y-115528216D01*
X154762390Y-115505570D01*
X154730956Y-115477244D01*
X154722917Y-115468513D01*
X154698554Y-115436059D01*
X154677931Y-115398453D01*
X154662568Y-115360203D01*
X154659586Y-115351130D01*
X154649585Y-115312656D01*
X154642660Y-115270689D01*
X154639126Y-115231103D01*
X154637948Y-115188842D01*
X154638077Y-115184348D01*
X154806964Y-115184348D01*
X154807984Y-115218748D01*
X154812001Y-115258400D01*
X154819860Y-115298654D01*
X154823374Y-115311162D01*
X154838801Y-115347133D01*
X154864214Y-115379743D01*
X154872418Y-115386704D01*
X154910088Y-115404541D01*
X154951556Y-115409443D01*
X154964916Y-115408979D01*
X155003276Y-115401061D01*
X155037920Y-115379743D01*
X155045440Y-115371994D01*
X155068363Y-115337172D01*
X155081493Y-115299631D01*
X155087443Y-115270393D01*
X155092348Y-115228669D01*
X155093803Y-115187670D01*
X155093033Y-115157665D01*
X155088994Y-115115542D01*
X155081493Y-115076882D01*
X155079018Y-115067791D01*
X155063065Y-115030092D01*
X155037920Y-114998333D01*
X155029689Y-114991510D01*
X154992297Y-114974024D01*
X154951556Y-114969219D01*
X154937924Y-114969668D01*
X154898976Y-114977326D01*
X154864214Y-114997942D01*
X154858479Y-115003465D01*
X154834697Y-115036280D01*
X154819860Y-115074732D01*
X154813626Y-115102836D01*
X154808488Y-115143626D01*
X154806964Y-115184348D01*
X154638077Y-115184348D01*
X154639126Y-115147905D01*
X154643357Y-115104072D01*
X154650666Y-115063390D01*
X154662568Y-115021390D01*
X154667347Y-115008270D01*
X154683643Y-114971509D01*
X154705193Y-114935231D01*
X154730369Y-114903762D01*
X154758572Y-114877063D01*
X154792680Y-114853160D01*
X154830020Y-114834983D01*
X154869720Y-114822190D01*
X154911175Y-114814707D01*
X154950383Y-114812513D01*
X154954575Y-114812531D01*
G37*
G36*
X154581870Y-115483302D02*
G01*
X154572024Y-115444421D01*
X154556664Y-115425270D01*
X154523172Y-115404952D01*
X154501172Y-115401627D01*
X154462419Y-115413841D01*
X154448025Y-115425270D01*
X154426363Y-115458929D01*
X154422819Y-115483302D01*
X154431705Y-115521851D01*
X154448025Y-115542115D01*
X154482285Y-115561414D01*
X154501172Y-115564000D01*
X154540414Y-115553656D01*
X154556664Y-115542115D01*
X154578325Y-115508883D01*
X154581870Y-115483302D01*
G37*
G36*
X154058887Y-114812531D02*
G01*
X154099729Y-114814707D01*
X154138625Y-114820507D01*
X154179162Y-114831076D01*
X154213352Y-114845036D01*
X154247567Y-114866122D01*
X154278227Y-114893211D01*
X154285941Y-114901633D01*
X154309296Y-114933354D01*
X154329027Y-114970685D01*
X154343684Y-115009080D01*
X154346523Y-115018254D01*
X154356049Y-115057699D01*
X154362643Y-115101541D01*
X154366009Y-115143509D01*
X154367131Y-115188842D01*
X154365953Y-115229780D01*
X154361722Y-115273613D01*
X154354413Y-115314295D01*
X154342512Y-115356295D01*
X154337734Y-115369415D01*
X154321464Y-115406176D01*
X154299978Y-115442454D01*
X154274905Y-115473923D01*
X154246619Y-115500538D01*
X154212507Y-115524436D01*
X154175254Y-115542702D01*
X154135443Y-115555495D01*
X154093924Y-115562977D01*
X154054696Y-115565172D01*
X154015545Y-115563092D01*
X153974285Y-115556000D01*
X153934919Y-115543874D01*
X153901092Y-115528216D01*
X153866702Y-115505570D01*
X153835268Y-115477244D01*
X153827230Y-115468513D01*
X153802867Y-115436059D01*
X153782243Y-115398453D01*
X153766880Y-115360203D01*
X153763899Y-115351130D01*
X153753897Y-115312656D01*
X153746973Y-115270689D01*
X153743439Y-115231103D01*
X153742260Y-115188842D01*
X153742389Y-115184348D01*
X153911277Y-115184348D01*
X153912297Y-115218748D01*
X153916314Y-115258400D01*
X153924173Y-115298654D01*
X153927687Y-115311162D01*
X153943113Y-115347133D01*
X153968527Y-115379743D01*
X153976731Y-115386704D01*
X154014400Y-115404541D01*
X154055868Y-115409443D01*
X154069228Y-115408979D01*
X154107588Y-115401061D01*
X154142233Y-115379743D01*
X154149752Y-115371994D01*
X154172676Y-115337172D01*
X154185806Y-115299631D01*
X154191756Y-115270393D01*
X154196661Y-115228669D01*
X154198115Y-115187670D01*
X154197346Y-115157665D01*
X154193307Y-115115542D01*
X154185806Y-115076882D01*
X154183331Y-115067791D01*
X154167377Y-115030092D01*
X154142233Y-114998333D01*
X154134002Y-114991510D01*
X154096610Y-114974024D01*
X154055868Y-114969219D01*
X154042237Y-114969668D01*
X154003289Y-114977326D01*
X153968527Y-114997942D01*
X153962792Y-115003465D01*
X153939010Y-115036280D01*
X153924173Y-115074732D01*
X153917939Y-115102836D01*
X153912800Y-115143626D01*
X153911277Y-115184348D01*
X153742389Y-115184348D01*
X153743439Y-115147905D01*
X153747670Y-115104072D01*
X153754979Y-115063390D01*
X153766880Y-115021390D01*
X153771660Y-115008270D01*
X153787955Y-114971509D01*
X153809506Y-114935231D01*
X153834682Y-114903762D01*
X153862884Y-114877063D01*
X153896993Y-114853160D01*
X153934333Y-114834983D01*
X153974033Y-114822190D01*
X154015487Y-114814707D01*
X154054696Y-114812513D01*
X154058887Y-114812531D01*
G37*
G36*
X153686182Y-115483302D02*
G01*
X153676336Y-115444421D01*
X153660976Y-115425270D01*
X153627485Y-115404952D01*
X153605484Y-115401627D01*
X153566732Y-115413841D01*
X153552337Y-115425270D01*
X153530676Y-115458929D01*
X153527131Y-115483302D01*
X153536017Y-115521851D01*
X153552337Y-115542115D01*
X153586598Y-115561414D01*
X153605484Y-115564000D01*
X153644727Y-115553656D01*
X153660976Y-115542115D01*
X153682638Y-115508883D01*
X153686182Y-115483302D01*
G37*
G36*
X153454640Y-114821501D02*
G01*
X153231891Y-114821501D01*
X153231891Y-115564000D01*
X153395436Y-115564000D01*
X153395436Y-114978207D01*
X153454640Y-114978207D01*
X153454640Y-114821501D01*
G37*
D13*
G36*
X157255000Y-111724005D02*
G01*
X158861507Y-111026814D01*
X158861507Y-111009961D01*
X157255000Y-110312770D01*
X157255000Y-110665579D01*
X158384867Y-111110712D01*
X158536175Y-110890527D01*
X157255000Y-111423953D01*
X157255000Y-111724005D01*
G37*
G36*
X157813705Y-111247365D02*
G01*
X157813705Y-110783182D01*
X157557250Y-110676204D01*
X157557250Y-111341887D01*
X157813705Y-111247365D01*
G37*
G36*
X157235949Y-109812317D02*
G01*
X158172742Y-110362596D01*
X158172742Y-110013817D01*
X157538565Y-109700942D01*
X157544794Y-109881559D01*
X158172742Y-109610816D01*
X158172742Y-109282920D01*
X157235949Y-109803890D01*
X157235949Y-109812317D01*
G37*
G36*
X157751532Y-108175945D02*
G01*
X157826803Y-108184108D01*
X157904998Y-108204666D01*
X157977470Y-108237317D01*
X157991206Y-108245266D01*
X158054303Y-108291327D01*
X158108099Y-108347906D01*
X158152592Y-108415003D01*
X158174381Y-108459748D01*
X158198611Y-108532372D01*
X158212699Y-108611603D01*
X158216706Y-108687578D01*
X158215140Y-108735359D01*
X158204434Y-108816948D01*
X158183584Y-108892856D01*
X158152592Y-108963084D01*
X158140221Y-108985011D01*
X158098084Y-109045190D01*
X158042428Y-109102198D01*
X157977470Y-109148831D01*
X157949168Y-109164287D01*
X157874407Y-109193911D01*
X157802228Y-109209560D01*
X157725411Y-109214776D01*
X157677941Y-109213140D01*
X157597905Y-109201944D01*
X157524824Y-109180141D01*
X157458698Y-109147732D01*
X157444981Y-109139107D01*
X157382534Y-109090012D01*
X157330320Y-109030972D01*
X157288339Y-108961985D01*
X157268418Y-108916326D01*
X157246264Y-108843537D01*
X157233384Y-108765591D01*
X157229921Y-108696005D01*
X157469323Y-108696005D01*
X157474011Y-108741514D01*
X157502662Y-108809578D01*
X157533978Y-108846973D01*
X157593886Y-108889445D01*
X157647131Y-108909481D01*
X157723213Y-108918754D01*
X157780203Y-108913917D01*
X157853272Y-108889445D01*
X157892616Y-108864303D01*
X157943764Y-108809578D01*
X157964304Y-108769907D01*
X157977470Y-108696005D01*
X157972730Y-108646752D01*
X157943764Y-108576570D01*
X157915239Y-108541948D01*
X157853272Y-108498901D01*
X157796595Y-108479178D01*
X157723213Y-108471423D01*
X157667404Y-108475958D01*
X157593886Y-108498901D01*
X157554096Y-108522531D01*
X157502662Y-108576570D01*
X157481076Y-108620495D01*
X157469323Y-108696005D01*
X157229921Y-108696005D01*
X157229720Y-108691975D01*
X157232013Y-108633010D01*
X157242203Y-108559440D01*
X157263409Y-108483570D01*
X157294933Y-108415003D01*
X157303268Y-108400742D01*
X157350437Y-108335748D01*
X157406766Y-108281273D01*
X157472254Y-108237317D01*
X157500813Y-108222805D01*
X157576068Y-108194992D01*
X157648508Y-108180299D01*
X157725411Y-108175401D01*
X157751532Y-108175945D01*
G37*
G36*
X158912065Y-107944592D02*
G01*
X158912065Y-107650767D01*
X157255000Y-107650767D01*
X157255000Y-107944592D01*
X158912065Y-107944592D01*
G37*
G36*
X157751532Y-106380760D02*
G01*
X157826803Y-106388923D01*
X157904998Y-106409481D01*
X157977470Y-106442132D01*
X157991206Y-106450081D01*
X158054303Y-106496142D01*
X158108099Y-106552721D01*
X158152592Y-106619818D01*
X158174381Y-106664563D01*
X158198611Y-106737187D01*
X158212699Y-106816419D01*
X158216706Y-106892393D01*
X158215140Y-106940175D01*
X158204434Y-107021763D01*
X158183584Y-107097671D01*
X158152592Y-107167899D01*
X158140221Y-107189826D01*
X158098084Y-107250005D01*
X158042428Y-107307013D01*
X157977470Y-107353646D01*
X157949168Y-107369102D01*
X157874407Y-107398726D01*
X157802228Y-107414375D01*
X157725411Y-107419592D01*
X157677941Y-107417955D01*
X157597905Y-107406759D01*
X157524824Y-107384956D01*
X157458698Y-107352547D01*
X157444981Y-107343922D01*
X157382534Y-107294827D01*
X157330320Y-107235787D01*
X157288339Y-107166800D01*
X157268418Y-107121141D01*
X157246264Y-107048353D01*
X157233384Y-106970406D01*
X157229921Y-106900820D01*
X157469323Y-106900820D01*
X157474011Y-106946329D01*
X157502662Y-107014393D01*
X157533978Y-107051788D01*
X157593886Y-107094260D01*
X157647131Y-107114296D01*
X157723213Y-107123569D01*
X157780203Y-107118732D01*
X157853272Y-107094260D01*
X157892616Y-107069118D01*
X157943764Y-107014393D01*
X157964304Y-106974722D01*
X157977470Y-106900820D01*
X157972730Y-106851567D01*
X157943764Y-106781385D01*
X157915239Y-106746764D01*
X157853272Y-106703716D01*
X157796595Y-106683993D01*
X157723213Y-106676238D01*
X157667404Y-106680773D01*
X157593886Y-106703716D01*
X157554096Y-106727346D01*
X157502662Y-106781385D01*
X157481076Y-106825310D01*
X157469323Y-106900820D01*
X157229921Y-106900820D01*
X157229720Y-106896790D01*
X157232013Y-106837825D01*
X157242203Y-106764255D01*
X157263409Y-106688385D01*
X157294933Y-106619818D01*
X157303268Y-106605557D01*
X157350437Y-106540563D01*
X157406766Y-106486088D01*
X157472254Y-106442132D01*
X157500813Y-106427620D01*
X157576068Y-106399807D01*
X157648508Y-106385114D01*
X157725411Y-106380216D01*
X157751532Y-106380760D01*
G37*
D14*
%TO.C,J2*%
X139300000Y-106900000D03*
D15*
X139300000Y-109440000D03*
X139300000Y-111980000D03*
X139300000Y-114520000D03*
%TD*%
D16*
%TO.C,J3*%
X169000000Y-105500000D03*
D17*
X168500000Y-107950000D03*
X168500000Y-110000000D03*
D16*
X169000000Y-112450000D03*
%TD*%
D18*
%TO.C,J7*%
X129600000Y-103400000D03*
%TD*%
%TO.C,J4*%
X122900000Y-105400000D03*
%TD*%
%TO.C,J8*%
X131600000Y-103400000D03*
%TD*%
%TO.C,J11*%
X122900000Y-103400000D03*
%TD*%
%TO.C,J14*%
X122900000Y-114600000D03*
%TD*%
%TO.C,J12*%
X122900000Y-107400000D03*
%TD*%
%TO.C,J6*%
X122900000Y-109400000D03*
%TD*%
%TO.C,J10*%
X152900000Y-103400000D03*
%TD*%
%TO.C,J9*%
X150900000Y-103400000D03*
%TD*%
%TO.C,J13*%
X122900000Y-112600000D03*
%TD*%
%LPD*%
M02*
