%TF.GenerationSoftware,KiCad,Pcbnew,8.0.4*%
%TF.CreationDate,2024-10-09T21:29:51+02:00*%
%TF.ProjectId,elrs-sim,656c7273-2d73-4696-9d2e-6b696361645f,rev?*%
%TF.SameCoordinates,Original*%
%TF.FileFunction,Legend,Bot*%
%TF.FilePolarity,Positive*%
%FSLAX46Y46*%
G04 Gerber Fmt 4.6, Leading zero omitted, Abs format (unit mm)*
G04 Created by KiCad (PCBNEW 8.0.4) date 2024-10-09 21:29:51*
%MOMM*%
%LPD*%
G01*
G04 APERTURE LIST*
G04 Aperture macros list*
%AMRoundRect*
0 Rectangle with rounded corners*
0 $1 Rounding radius*
0 $2 $3 $4 $5 $6 $7 $8 $9 X,Y pos of 4 corners*
0 Add a 4 corners polygon primitive as box body*
4,1,4,$2,$3,$4,$5,$6,$7,$8,$9,$2,$3,0*
0 Add four circle primitives for the rounded corners*
1,1,$1+$1,$2,$3*
1,1,$1+$1,$4,$5*
1,1,$1+$1,$6,$7*
1,1,$1+$1,$8,$9*
0 Add four rect primitives between the rounded corners*
20,1,$1+$1,$2,$3,$4,$5,0*
20,1,$1+$1,$4,$5,$6,$7,0*
20,1,$1+$1,$6,$7,$8,$9,0*
20,1,$1+$1,$8,$9,$2,$3,0*%
G04 Aperture macros list end*
%ADD10C,0.000000*%
%ADD11C,0.150000*%
%ADD12C,0.250000*%
%ADD13C,0.200000*%
%ADD14R,1.700000X1.700000*%
%ADD15O,1.700000X1.700000*%
%ADD16RoundRect,0.500000X-3.500000X0.500000X-3.500000X-0.500000X3.500000X-0.500000X3.500000X0.500000X0*%
%ADD17RoundRect,0.500000X-3.000000X0.250000X-3.000000X-0.250000X3.000000X-0.250000X3.000000X0.250000X0*%
%ADD18RoundRect,0.387500X-0.387500X0.387500X-0.387500X-0.387500X0.387500X-0.387500X0.387500X0.387500X0*%
G04 APERTURE END LIST*
D10*
G36*
X160477349Y-107250712D02*
G01*
X160506443Y-107253100D01*
X160535591Y-107257476D01*
X160564712Y-107263886D01*
X160593725Y-107272377D01*
X160622546Y-107282998D01*
X160651093Y-107295795D01*
X160679285Y-107310815D01*
X162321170Y-108258224D01*
X162348282Y-108275114D01*
X162373645Y-108293425D01*
X162397258Y-108313059D01*
X162419123Y-108333924D01*
X162439239Y-108355923D01*
X162457605Y-108378964D01*
X162474222Y-108402951D01*
X162489090Y-108427789D01*
X162502208Y-108453384D01*
X162513578Y-108479642D01*
X162523198Y-108506467D01*
X162531069Y-108533766D01*
X162537192Y-108561442D01*
X162541564Y-108589403D01*
X162544189Y-108617552D01*
X162545063Y-108645797D01*
X162544188Y-108674042D01*
X162541564Y-108702191D01*
X162537191Y-108730152D01*
X162531069Y-108757829D01*
X162523198Y-108785127D01*
X162513578Y-108811952D01*
X162502208Y-108838210D01*
X162489089Y-108863805D01*
X162474221Y-108888643D01*
X162457604Y-108912630D01*
X162439238Y-108935670D01*
X162419122Y-108957670D01*
X162397257Y-108978534D01*
X162373643Y-108998169D01*
X162348280Y-109016479D01*
X162321168Y-109033369D01*
X160679285Y-109980778D01*
X160651093Y-109995798D01*
X160639821Y-110000851D01*
X160622546Y-110008595D01*
X160593725Y-110019216D01*
X160564712Y-110027707D01*
X160535591Y-110034117D01*
X160506443Y-110038493D01*
X160477349Y-110040882D01*
X160448392Y-110041331D01*
X160419653Y-110039887D01*
X160391216Y-110036599D01*
X160363160Y-110031512D01*
X160335570Y-110024675D01*
X160308527Y-110016135D01*
X160282112Y-110005939D01*
X160256407Y-109994135D01*
X160231495Y-109980770D01*
X160207457Y-109965890D01*
X160184377Y-109949543D01*
X160162335Y-109931778D01*
X160141414Y-109912641D01*
X160121695Y-109892179D01*
X160103260Y-109870439D01*
X160086192Y-109847470D01*
X160070573Y-109823317D01*
X160056484Y-109798029D01*
X160044008Y-109771654D01*
X160033226Y-109744237D01*
X160024220Y-109715827D01*
X160017073Y-109686470D01*
X160011867Y-109656214D01*
X160008683Y-109625108D01*
X160007603Y-109593196D01*
X160007603Y-108135585D01*
X160515095Y-108135585D01*
X160515095Y-109156008D01*
X160515401Y-109165045D01*
X160516301Y-109173856D01*
X160517774Y-109182425D01*
X160519795Y-109190741D01*
X160522342Y-109198789D01*
X160525391Y-109206556D01*
X160528920Y-109214028D01*
X160532906Y-109221193D01*
X160537325Y-109228038D01*
X160542152Y-109234546D01*
X160547368Y-109240708D01*
X160552946Y-109246508D01*
X160558865Y-109251934D01*
X160565101Y-109256972D01*
X160571632Y-109261608D01*
X160578433Y-109265829D01*
X160585483Y-109269621D01*
X160592756Y-109272972D01*
X160600232Y-109275868D01*
X160607885Y-109278295D01*
X160615695Y-109280241D01*
X160623635Y-109281692D01*
X160631685Y-109282633D01*
X160639821Y-109283053D01*
X160648019Y-109282937D01*
X160656257Y-109282273D01*
X160664511Y-109281045D01*
X160672758Y-109279242D01*
X160680975Y-109276851D01*
X160689139Y-109273857D01*
X160697227Y-109270246D01*
X160705215Y-109266007D01*
X161592543Y-108755788D01*
X161600248Y-108751003D01*
X161607456Y-108745814D01*
X161614167Y-108740248D01*
X161620381Y-108734331D01*
X161626098Y-108728090D01*
X161631318Y-108721553D01*
X161636040Y-108714745D01*
X161640266Y-108707695D01*
X161643993Y-108700431D01*
X161647225Y-108692976D01*
X161649959Y-108685360D01*
X161652196Y-108677609D01*
X161653936Y-108669751D01*
X161655179Y-108661811D01*
X161655925Y-108653818D01*
X161656173Y-108645797D01*
X161655925Y-108637776D01*
X161655179Y-108629783D01*
X161653936Y-108621844D01*
X161652196Y-108613985D01*
X161649959Y-108606234D01*
X161647225Y-108598618D01*
X161643993Y-108591164D01*
X161640266Y-108583899D01*
X161636040Y-108576849D01*
X161631318Y-108570041D01*
X161626098Y-108563505D01*
X161620381Y-108557264D01*
X161614167Y-108551347D01*
X161607456Y-108545780D01*
X161600248Y-108540591D01*
X161592543Y-108535806D01*
X160705215Y-108025586D01*
X160697227Y-108021346D01*
X160689139Y-108017737D01*
X160680975Y-108014742D01*
X160672758Y-108012351D01*
X160664511Y-108010548D01*
X160656257Y-108009321D01*
X160648019Y-108008656D01*
X160639821Y-108008540D01*
X160631685Y-108008960D01*
X160623635Y-108009901D01*
X160615695Y-108011352D01*
X160607885Y-108013298D01*
X160600232Y-108015725D01*
X160592756Y-108018621D01*
X160585483Y-108021972D01*
X160578433Y-108025765D01*
X160571632Y-108029986D01*
X160565101Y-108034621D01*
X160558865Y-108039659D01*
X160552946Y-108045085D01*
X160547368Y-108050885D01*
X160542152Y-108057047D01*
X160537325Y-108063556D01*
X160532906Y-108070400D01*
X160528920Y-108077565D01*
X160525391Y-108085038D01*
X160522342Y-108092805D01*
X160519795Y-108100852D01*
X160517774Y-108109168D01*
X160516301Y-108117737D01*
X160515401Y-108126547D01*
X160515095Y-108135585D01*
X160007603Y-108135585D01*
X160007603Y-107698398D01*
X160008683Y-107666486D01*
X160011867Y-107635379D01*
X160017073Y-107605123D01*
X160024220Y-107575767D01*
X160033226Y-107547357D01*
X160044008Y-107519940D01*
X160056484Y-107493564D01*
X160070573Y-107468276D01*
X160086192Y-107444123D01*
X160103260Y-107421154D01*
X160121695Y-107399414D01*
X160141414Y-107378953D01*
X160162335Y-107359815D01*
X160184377Y-107342049D01*
X160207457Y-107325703D01*
X160231495Y-107310823D01*
X160256407Y-107297458D01*
X160282112Y-107285653D01*
X160308527Y-107275457D01*
X160335570Y-107266918D01*
X160363160Y-107260081D01*
X160391216Y-107254995D01*
X160419653Y-107251706D01*
X160448392Y-107250262D01*
X160477349Y-107250712D01*
G37*
G36*
X162219554Y-109630132D02*
G01*
X162239831Y-109632471D01*
X162259836Y-109636091D01*
X162279509Y-109640961D01*
X162298795Y-109647047D01*
X162317631Y-109654315D01*
X162335961Y-109662730D01*
X162353726Y-109672260D01*
X162370868Y-109682871D01*
X162387329Y-109694527D01*
X162403048Y-109707197D01*
X162417968Y-109720846D01*
X162432032Y-109735441D01*
X162445179Y-109750948D01*
X162457351Y-109767331D01*
X162468491Y-109784560D01*
X162478540Y-109802599D01*
X162487438Y-109821414D01*
X162495128Y-109840973D01*
X162501551Y-109861240D01*
X162506649Y-109882183D01*
X162510362Y-109903768D01*
X162512633Y-109925960D01*
X162513403Y-109948726D01*
X162512693Y-109970031D01*
X162510587Y-109991073D01*
X162507119Y-110011794D01*
X162502320Y-110032136D01*
X162496227Y-110052042D01*
X162488871Y-110071451D01*
X162480289Y-110090306D01*
X162470512Y-110108548D01*
X162459575Y-110126120D01*
X162447512Y-110142961D01*
X162434355Y-110159016D01*
X162420140Y-110174223D01*
X162404899Y-110188526D01*
X162388668Y-110201865D01*
X162371479Y-110214183D01*
X162353365Y-110225420D01*
X161517364Y-110706301D01*
X161490404Y-110723048D01*
X161465182Y-110741210D01*
X161441700Y-110760693D01*
X161419958Y-110781402D01*
X161399955Y-110803242D01*
X161381691Y-110826121D01*
X161365167Y-110849942D01*
X161350382Y-110874613D01*
X161337336Y-110900037D01*
X161326031Y-110926123D01*
X161316464Y-110952774D01*
X161308636Y-110979897D01*
X161302549Y-111007397D01*
X161298200Y-111035180D01*
X161295591Y-111063152D01*
X161294721Y-111091218D01*
X161295591Y-111119284D01*
X161298200Y-111147255D01*
X161302548Y-111175038D01*
X161308636Y-111202539D01*
X161316464Y-111229662D01*
X161326030Y-111256313D01*
X161337336Y-111282398D01*
X161350381Y-111307823D01*
X161365166Y-111332493D01*
X161381690Y-111356315D01*
X161399954Y-111379193D01*
X161419957Y-111401034D01*
X161441699Y-111421743D01*
X161465181Y-111441225D01*
X161490402Y-111459387D01*
X161517362Y-111476134D01*
X162357333Y-111959298D01*
X162366276Y-111964642D01*
X162374998Y-111970258D01*
X162383494Y-111976135D01*
X162391760Y-111982270D01*
X162399794Y-111988654D01*
X162407589Y-111995278D01*
X162415144Y-112002139D01*
X162422452Y-112009227D01*
X162429511Y-112016535D01*
X162436315Y-112024057D01*
X162442861Y-112031785D01*
X162449145Y-112039712D01*
X162455162Y-112047832D01*
X162460909Y-112056136D01*
X162466382Y-112064619D01*
X162471575Y-112073272D01*
X162476486Y-112082089D01*
X162481109Y-112091062D01*
X162485442Y-112100184D01*
X162489479Y-112109449D01*
X162493218Y-112118848D01*
X162496652Y-112128377D01*
X162499779Y-112138025D01*
X162502595Y-112147787D01*
X162505094Y-112157656D01*
X162507274Y-112167625D01*
X162509129Y-112177686D01*
X162510657Y-112187832D01*
X162511853Y-112198056D01*
X162512711Y-112208351D01*
X162513230Y-112218710D01*
X162513403Y-112229125D01*
X162512652Y-112251328D01*
X162510438Y-112272971D01*
X162506816Y-112294021D01*
X162501845Y-112314445D01*
X162495581Y-112334209D01*
X162488082Y-112353283D01*
X162479405Y-112371632D01*
X162469606Y-112389225D01*
X162458742Y-112406026D01*
X162446871Y-112422004D01*
X162434049Y-112437126D01*
X162420335Y-112451359D01*
X162405785Y-112464670D01*
X162390455Y-112477025D01*
X162374404Y-112488394D01*
X162357686Y-112498741D01*
X162340362Y-112508035D01*
X162322486Y-112516241D01*
X162304116Y-112523328D01*
X162285310Y-112529263D01*
X162266124Y-112534012D01*
X162246615Y-112537544D01*
X162226841Y-112539823D01*
X162206858Y-112540819D01*
X162186723Y-112540498D01*
X162166495Y-112538826D01*
X162146228Y-112535772D01*
X162125981Y-112531301D01*
X162105811Y-112525383D01*
X162085775Y-112517982D01*
X162065929Y-112509067D01*
X162046331Y-112498604D01*
X160261064Y-111466508D01*
X160234205Y-111449744D01*
X160209078Y-111431575D01*
X160185685Y-111412094D01*
X160164024Y-111391394D01*
X160144097Y-111369569D01*
X160125901Y-111346713D01*
X160109439Y-111322920D01*
X160094710Y-111298283D01*
X160081713Y-111272896D01*
X160070450Y-111246854D01*
X160060919Y-111220249D01*
X160053121Y-111193175D01*
X160047056Y-111165727D01*
X160042724Y-111137997D01*
X160040125Y-111110080D01*
X160039258Y-111082069D01*
X160040125Y-111054058D01*
X160042724Y-111026141D01*
X160047056Y-110998411D01*
X160053121Y-110970963D01*
X160060919Y-110943890D01*
X160070450Y-110917285D01*
X160081713Y-110891244D01*
X160094710Y-110865858D01*
X160109439Y-110841222D01*
X160125901Y-110817430D01*
X160144097Y-110794575D01*
X160164024Y-110772751D01*
X160185685Y-110752052D01*
X160209078Y-110732571D01*
X160234205Y-110714404D01*
X160261064Y-110697641D01*
X162034455Y-109672397D01*
X162054550Y-109661668D01*
X162074901Y-109652527D01*
X162095447Y-109644938D01*
X162116130Y-109638870D01*
X162136891Y-109634286D01*
X162157673Y-109631154D01*
X162178416Y-109629440D01*
X162199063Y-109629111D01*
X162219554Y-109630132D01*
G37*
G36*
X160365942Y-112033747D02*
G01*
X160386172Y-112035418D01*
X160406439Y-112038473D01*
X160426687Y-112042943D01*
X160446858Y-112048862D01*
X160466895Y-112056262D01*
X160486742Y-112065178D01*
X160506341Y-112075641D01*
X162291599Y-113107737D01*
X162318458Y-113124500D01*
X162343584Y-113142670D01*
X162366978Y-113162151D01*
X162388638Y-113182851D01*
X162408566Y-113204676D01*
X162426761Y-113227531D01*
X162443223Y-113251325D01*
X162457952Y-113275961D01*
X162470948Y-113301348D01*
X162482212Y-113327390D01*
X162491743Y-113353995D01*
X162499541Y-113381069D01*
X162505606Y-113408517D01*
X162509937Y-113436247D01*
X162512537Y-113464164D01*
X162513403Y-113492175D01*
X162512537Y-113520185D01*
X162509937Y-113548102D01*
X162505606Y-113575832D01*
X162499541Y-113603281D01*
X162491743Y-113630353D01*
X162482212Y-113656958D01*
X162470948Y-113683001D01*
X162457952Y-113708387D01*
X162443223Y-113733024D01*
X162426761Y-113756817D01*
X162408566Y-113779672D01*
X162388638Y-113801497D01*
X162366978Y-113822197D01*
X162343584Y-113841678D01*
X162318458Y-113859846D01*
X162291599Y-113876610D01*
X160518204Y-114901850D01*
X160498109Y-114912578D01*
X160477760Y-114921720D01*
X160457215Y-114929309D01*
X160436533Y-114935379D01*
X160415771Y-114939962D01*
X160394990Y-114943094D01*
X160374247Y-114944808D01*
X160353601Y-114945137D01*
X160333111Y-114944117D01*
X160312834Y-114941779D01*
X160292829Y-114938158D01*
X160273155Y-114933288D01*
X160253870Y-114927202D01*
X160235033Y-114919935D01*
X160216703Y-114911519D01*
X160198938Y-114901990D01*
X160181796Y-114891379D01*
X160165336Y-114879722D01*
X160149616Y-114867052D01*
X160134695Y-114853402D01*
X160120632Y-114838808D01*
X160107485Y-114823301D01*
X160095311Y-114806916D01*
X160084171Y-114789688D01*
X160074122Y-114771648D01*
X160065224Y-114752832D01*
X160057534Y-114733273D01*
X160051110Y-114713004D01*
X160046013Y-114692061D01*
X160042299Y-114670475D01*
X160040029Y-114648281D01*
X160039258Y-114625514D01*
X160039968Y-114604209D01*
X160042074Y-114583168D01*
X160045544Y-114562447D01*
X160050343Y-114542105D01*
X160056437Y-114522200D01*
X160063793Y-114502793D01*
X160072376Y-114483939D01*
X160082153Y-114465697D01*
X160093091Y-114448127D01*
X160105154Y-114431286D01*
X160118311Y-114415234D01*
X160132525Y-114400027D01*
X160147764Y-114385725D01*
X160163995Y-114372386D01*
X160181182Y-114360069D01*
X160199293Y-114348831D01*
X161035306Y-113867945D01*
X161062267Y-113851198D01*
X161087487Y-113833036D01*
X161110969Y-113813553D01*
X161132711Y-113792844D01*
X161152714Y-113771004D01*
X161170977Y-113748125D01*
X161187501Y-113724304D01*
X161202286Y-113699633D01*
X161215331Y-113674208D01*
X161226636Y-113648122D01*
X161236203Y-113621471D01*
X161244031Y-113594348D01*
X161250118Y-113566848D01*
X161254467Y-113539065D01*
X161257076Y-113511093D01*
X161257946Y-113483027D01*
X161257076Y-113454961D01*
X161254467Y-113426989D01*
X161250118Y-113399206D01*
X161244031Y-113371706D01*
X161236203Y-113344583D01*
X161226637Y-113317932D01*
X161215331Y-113291846D01*
X161202286Y-113266421D01*
X161187502Y-113241751D01*
X161170978Y-113217929D01*
X161152714Y-113195051D01*
X161132711Y-113173211D01*
X161110969Y-113152502D01*
X161087487Y-113133020D01*
X161062267Y-113114858D01*
X161035306Y-113098111D01*
X160195328Y-112614946D01*
X160186386Y-112609602D01*
X160177664Y-112603987D01*
X160169168Y-112598109D01*
X160160901Y-112591975D01*
X160152868Y-112585592D01*
X160145072Y-112578966D01*
X160137518Y-112572106D01*
X160130210Y-112565018D01*
X160123152Y-112557710D01*
X160116347Y-112550188D01*
X160109801Y-112542460D01*
X160103517Y-112534532D01*
X160097500Y-112526413D01*
X160091753Y-112518108D01*
X160086281Y-112509626D01*
X160081087Y-112500973D01*
X160076176Y-112492156D01*
X160071552Y-112483183D01*
X160067219Y-112474060D01*
X160063182Y-112464796D01*
X160059444Y-112455396D01*
X160056009Y-112445869D01*
X160052882Y-112436220D01*
X160050067Y-112426458D01*
X160047567Y-112416588D01*
X160045387Y-112406620D01*
X160043532Y-112396560D01*
X160042004Y-112386413D01*
X160040809Y-112376189D01*
X160039950Y-112365894D01*
X160039432Y-112355535D01*
X160039258Y-112345119D01*
X160040010Y-112322917D01*
X160042224Y-112301275D01*
X160045845Y-112280225D01*
X160050816Y-112259801D01*
X160057080Y-112240035D01*
X160064579Y-112220962D01*
X160073257Y-112202612D01*
X160083056Y-112185021D01*
X160093920Y-112168220D01*
X160105790Y-112152241D01*
X160118611Y-112137119D01*
X160132326Y-112122886D01*
X160146877Y-112109576D01*
X160162206Y-112097220D01*
X160178258Y-112085852D01*
X160194975Y-112075504D01*
X160212300Y-112066211D01*
X160230176Y-112058004D01*
X160248546Y-112050916D01*
X160267352Y-112044982D01*
X160286539Y-112040233D01*
X160306048Y-112036701D01*
X160325824Y-112034421D01*
X160345807Y-112033426D01*
X160365942Y-112033747D01*
G37*
G36*
X162428471Y-105254347D02*
G01*
X162436521Y-105255287D01*
X162444461Y-105256737D01*
X162452271Y-105258682D01*
X162459924Y-105261109D01*
X162467400Y-105264005D01*
X162474674Y-105267355D01*
X162481723Y-105271148D01*
X162488525Y-105275369D01*
X162495055Y-105280004D01*
X162501292Y-105285041D01*
X162507211Y-105290467D01*
X162512789Y-105296267D01*
X162518005Y-105302428D01*
X162522833Y-105308937D01*
X162527252Y-105315782D01*
X162531237Y-105322947D01*
X162534766Y-105330418D01*
X162537816Y-105338185D01*
X162540363Y-105346233D01*
X162542384Y-105354549D01*
X162543857Y-105363118D01*
X162544757Y-105371928D01*
X162545063Y-105380966D01*
X162545063Y-106401391D01*
X162544757Y-106410429D01*
X162543857Y-106419240D01*
X162542384Y-106427811D01*
X162540363Y-106436128D01*
X162537816Y-106444177D01*
X162534766Y-106451944D01*
X162531237Y-106459417D01*
X162527252Y-106466582D01*
X162522833Y-106473427D01*
X162518005Y-106479935D01*
X162512789Y-106486098D01*
X162507211Y-106491897D01*
X162501292Y-106497322D01*
X162495055Y-106502360D01*
X162488525Y-106506996D01*
X162481723Y-106511217D01*
X162474674Y-106515008D01*
X162467400Y-106518359D01*
X162459924Y-106521254D01*
X162452271Y-106523682D01*
X162444461Y-106525627D01*
X162436521Y-106527076D01*
X162428471Y-106528018D01*
X162420336Y-106528437D01*
X162412138Y-106528320D01*
X162403900Y-106527655D01*
X162395646Y-106526428D01*
X162387401Y-106524625D01*
X162379184Y-106522233D01*
X162371021Y-106519238D01*
X162362934Y-106515628D01*
X162354947Y-106511389D01*
X161467614Y-106001169D01*
X161459909Y-105996384D01*
X161452701Y-105991195D01*
X161445990Y-105985628D01*
X161439776Y-105979712D01*
X161434059Y-105973471D01*
X161428840Y-105966934D01*
X161424117Y-105960127D01*
X161419892Y-105953077D01*
X161416164Y-105945811D01*
X161412932Y-105938357D01*
X161410199Y-105930741D01*
X161407961Y-105922990D01*
X161406221Y-105915131D01*
X161404979Y-105907192D01*
X161404232Y-105899199D01*
X161403984Y-105891178D01*
X161404232Y-105883158D01*
X161404979Y-105875164D01*
X161406221Y-105867224D01*
X161407961Y-105859366D01*
X161410199Y-105851616D01*
X161412932Y-105843999D01*
X161416164Y-105836545D01*
X161419892Y-105829279D01*
X161424117Y-105822230D01*
X161428840Y-105815423D01*
X161434059Y-105808885D01*
X161439776Y-105802645D01*
X161445990Y-105796727D01*
X161452701Y-105791161D01*
X161459909Y-105785972D01*
X161467614Y-105781187D01*
X162354947Y-105270983D01*
X162362934Y-105266743D01*
X162371021Y-105263131D01*
X162379184Y-105260136D01*
X162387401Y-105257743D01*
X162395646Y-105255939D01*
X162403900Y-105254710D01*
X162412138Y-105254044D01*
X162420336Y-105253928D01*
X162428471Y-105254347D01*
G37*
G36*
X160477349Y-102905312D02*
G01*
X160506443Y-102907700D01*
X160535591Y-102912076D01*
X160564712Y-102918486D01*
X160593725Y-102926977D01*
X160622546Y-102937598D01*
X160651093Y-102950395D01*
X160679285Y-102965416D01*
X162321170Y-103912823D01*
X162348282Y-103929713D01*
X162373645Y-103948024D01*
X162397258Y-103967658D01*
X162419123Y-103988523D01*
X162439239Y-104010523D01*
X162457605Y-104033563D01*
X162474222Y-104057550D01*
X162489090Y-104082388D01*
X162502208Y-104107984D01*
X162513578Y-104134242D01*
X162523198Y-104161066D01*
X162531069Y-104188365D01*
X162537192Y-104216042D01*
X162541564Y-104244002D01*
X162544189Y-104272153D01*
X162545063Y-104300397D01*
X162544188Y-104328641D01*
X162541564Y-104356791D01*
X162537191Y-104384752D01*
X162531069Y-104412428D01*
X162523198Y-104439727D01*
X162513578Y-104466553D01*
X162502208Y-104492810D01*
X162489089Y-104518405D01*
X162474221Y-104543243D01*
X162457604Y-104567230D01*
X162439238Y-104590271D01*
X162419122Y-104612271D01*
X162397257Y-104633135D01*
X162373643Y-104652770D01*
X162348280Y-104671079D01*
X162321168Y-104687971D01*
X161223101Y-105321574D01*
X161204032Y-105331734D01*
X161184723Y-105340390D01*
X161165229Y-105347573D01*
X161145608Y-105353316D01*
X161125911Y-105357651D01*
X161106197Y-105360609D01*
X161086520Y-105362222D01*
X161066936Y-105362522D01*
X161047499Y-105361543D01*
X161028267Y-105359315D01*
X161009294Y-105355870D01*
X160990634Y-105351241D01*
X160972344Y-105345459D01*
X160954480Y-105338557D01*
X160937096Y-105330567D01*
X160920249Y-105321520D01*
X160903994Y-105311449D01*
X160888385Y-105300386D01*
X160873478Y-105288362D01*
X160859330Y-105275410D01*
X160845995Y-105261562D01*
X160833529Y-105246850D01*
X160821986Y-105231305D01*
X160811424Y-105214960D01*
X160801897Y-105197847D01*
X160793459Y-105179997D01*
X160786168Y-105161443D01*
X160780079Y-105142218D01*
X160775246Y-105122352D01*
X160771725Y-105101878D01*
X160769571Y-105080828D01*
X160768841Y-105059233D01*
X160769011Y-105049096D01*
X160769516Y-105039015D01*
X160770351Y-105028995D01*
X160771514Y-105019045D01*
X160773001Y-105009172D01*
X160774808Y-104999380D01*
X160776929Y-104989679D01*
X160779362Y-104980075D01*
X160782102Y-104970575D01*
X160785146Y-104961185D01*
X160788488Y-104951914D01*
X160792127Y-104942767D01*
X160796057Y-104933752D01*
X160800274Y-104924875D01*
X160804774Y-104916143D01*
X160809554Y-104907563D01*
X160814609Y-104899144D01*
X160819935Y-104890890D01*
X160825529Y-104882809D01*
X160831385Y-104874909D01*
X160837502Y-104867195D01*
X160843873Y-104859675D01*
X160850495Y-104852356D01*
X160857365Y-104845246D01*
X160864477Y-104838349D01*
X160871829Y-104831674D01*
X160879416Y-104825229D01*
X160887235Y-104819018D01*
X160895281Y-104813049D01*
X160903549Y-104807330D01*
X160912037Y-104801867D01*
X160920740Y-104796668D01*
X161592543Y-104410388D01*
X161600248Y-104405604D01*
X161607456Y-104400414D01*
X161614167Y-104394848D01*
X161620381Y-104388931D01*
X161626098Y-104382691D01*
X161631318Y-104376153D01*
X161636040Y-104369345D01*
X161640266Y-104362296D01*
X161643993Y-104355031D01*
X161647225Y-104347576D01*
X161649959Y-104339960D01*
X161652196Y-104332210D01*
X161653936Y-104324351D01*
X161655179Y-104316412D01*
X161655925Y-104308418D01*
X161656173Y-104300397D01*
X161655925Y-104292377D01*
X161655179Y-104284384D01*
X161653936Y-104276444D01*
X161652196Y-104268585D01*
X161649959Y-104260834D01*
X161647225Y-104253218D01*
X161643993Y-104245765D01*
X161640266Y-104238499D01*
X161636040Y-104231449D01*
X161631318Y-104224642D01*
X161626098Y-104218105D01*
X161620381Y-104211864D01*
X161614167Y-104205947D01*
X161607456Y-104200380D01*
X161600248Y-104195192D01*
X161592543Y-104190406D01*
X160705215Y-103680187D01*
X160697227Y-103675948D01*
X160689139Y-103672338D01*
X160680975Y-103669343D01*
X160672758Y-103666951D01*
X160664511Y-103665148D01*
X160656257Y-103663922D01*
X160648019Y-103663257D01*
X160639821Y-103663141D01*
X160631685Y-103663560D01*
X160623635Y-103664502D01*
X160615695Y-103665952D01*
X160607885Y-103667898D01*
X160600232Y-103670325D01*
X160592756Y-103673221D01*
X160585483Y-103676572D01*
X160578433Y-103680365D01*
X160571632Y-103684586D01*
X160565101Y-103689222D01*
X160558865Y-103694260D01*
X160552946Y-103699685D01*
X160547368Y-103705486D01*
X160542152Y-103711647D01*
X160537325Y-103718156D01*
X160532906Y-103725000D01*
X160528920Y-103732165D01*
X160525391Y-103739638D01*
X160522342Y-103747405D01*
X160519795Y-103755453D01*
X160517774Y-103763768D01*
X160516301Y-103772338D01*
X160515401Y-103781148D01*
X160515095Y-103790185D01*
X160515095Y-104536992D01*
X160514765Y-104550050D01*
X160513786Y-104562937D01*
X160512172Y-104575636D01*
X160509940Y-104588133D01*
X160507107Y-104600409D01*
X160503688Y-104612451D01*
X160499699Y-104624241D01*
X160495156Y-104635764D01*
X160490075Y-104647004D01*
X160484471Y-104657945D01*
X160478362Y-104668571D01*
X160471761Y-104678866D01*
X160464687Y-104688815D01*
X160457154Y-104698401D01*
X160449179Y-104707608D01*
X160440778Y-104716420D01*
X160431965Y-104724822D01*
X160422758Y-104732797D01*
X160413173Y-104740330D01*
X160403225Y-104747404D01*
X160392929Y-104754004D01*
X160382303Y-104760114D01*
X160371362Y-104765717D01*
X160360122Y-104770798D01*
X160348599Y-104775342D01*
X160336808Y-104779330D01*
X160324767Y-104782750D01*
X160312490Y-104785583D01*
X160299995Y-104787814D01*
X160287295Y-104789428D01*
X160274408Y-104790408D01*
X160261349Y-104790738D01*
X160248291Y-104790408D01*
X160235404Y-104789428D01*
X160222705Y-104787814D01*
X160210209Y-104785583D01*
X160197932Y-104782750D01*
X160185891Y-104779330D01*
X160174101Y-104775342D01*
X160162577Y-104770798D01*
X160151337Y-104765717D01*
X160140396Y-104760114D01*
X160129769Y-104754004D01*
X160119474Y-104747404D01*
X160109527Y-104740330D01*
X160099941Y-104732797D01*
X160090734Y-104724822D01*
X160081921Y-104716420D01*
X160073519Y-104707608D01*
X160065545Y-104698401D01*
X160058012Y-104688815D01*
X160050938Y-104678866D01*
X160044338Y-104668571D01*
X160038228Y-104657945D01*
X160032624Y-104647004D01*
X160027543Y-104635764D01*
X160023000Y-104624241D01*
X160019011Y-104612451D01*
X160015592Y-104600409D01*
X160012759Y-104588133D01*
X160010527Y-104575636D01*
X160008914Y-104562937D01*
X160007934Y-104550050D01*
X160007603Y-104536992D01*
X160007603Y-103352996D01*
X160008683Y-103321086D01*
X160011867Y-103289978D01*
X160017073Y-103259723D01*
X160024220Y-103230367D01*
X160033226Y-103201956D01*
X160044008Y-103174540D01*
X160056484Y-103148164D01*
X160070573Y-103122876D01*
X160086192Y-103098724D01*
X160103260Y-103075754D01*
X160121695Y-103054014D01*
X160141414Y-103033553D01*
X160162335Y-103014415D01*
X160184377Y-102996649D01*
X160207457Y-102980303D01*
X160231495Y-102965424D01*
X160256407Y-102952059D01*
X160282112Y-102940254D01*
X160308527Y-102930058D01*
X160335570Y-102921518D01*
X160363160Y-102914681D01*
X160391216Y-102909595D01*
X160419653Y-102906306D01*
X160448392Y-102904863D01*
X160477349Y-102905312D01*
G37*
D11*
X111500000Y-106500000D02*
X116500000Y-106500000D01*
X116500000Y-111500000D01*
X111500000Y-111500000D01*
X111500000Y-106500000D01*
G36*
X111500000Y-106500000D02*
G01*
X116500000Y-106500000D01*
X116500000Y-111500000D01*
X111500000Y-111500000D01*
X111500000Y-106500000D01*
G37*
D10*
G36*
X160274407Y-105046114D02*
G01*
X160287292Y-105047094D01*
X160299991Y-105048708D01*
X160312486Y-105050939D01*
X160324762Y-105053772D01*
X160336803Y-105057191D01*
X160348593Y-105061180D01*
X160360115Y-105065723D01*
X160371356Y-105070804D01*
X160382296Y-105076408D01*
X160392922Y-105082517D01*
X160403217Y-105089117D01*
X160413166Y-105096191D01*
X160422752Y-105103724D01*
X160431959Y-105111699D01*
X160440772Y-105120100D01*
X160449174Y-105128912D01*
X160457150Y-105138118D01*
X160464683Y-105147703D01*
X160471758Y-105157652D01*
X160478357Y-105167946D01*
X160484468Y-105178571D01*
X160490072Y-105189512D01*
X160495153Y-105200751D01*
X160499697Y-105212274D01*
X160503687Y-105224063D01*
X160507106Y-105236103D01*
X160509940Y-105248379D01*
X160512171Y-105260874D01*
X160513785Y-105273572D01*
X160514765Y-105286458D01*
X160515095Y-105299514D01*
X160515095Y-105825308D01*
X160515307Y-105838025D01*
X160515939Y-105850673D01*
X160516985Y-105863244D01*
X160518443Y-105875728D01*
X160520305Y-105888116D01*
X160522566Y-105900401D01*
X160525223Y-105912573D01*
X160528270Y-105924624D01*
X160531702Y-105936544D01*
X160535514Y-105948327D01*
X160539701Y-105959962D01*
X160544258Y-105971441D01*
X160549180Y-105982756D01*
X160554462Y-105993897D01*
X160560099Y-106004856D01*
X160566087Y-106015625D01*
X160572419Y-106026195D01*
X160579091Y-106036557D01*
X160586098Y-106046701D01*
X160593436Y-106056621D01*
X160601098Y-106066308D01*
X160609081Y-106075751D01*
X160617378Y-106084943D01*
X160625985Y-106093876D01*
X160634897Y-106102539D01*
X160644110Y-106110926D01*
X160653617Y-106119027D01*
X160663415Y-106126833D01*
X160673497Y-106134336D01*
X160683860Y-106141527D01*
X160694498Y-106148398D01*
X160705405Y-106154939D01*
X162393944Y-107129815D01*
X162411052Y-107140465D01*
X162427286Y-107152134D01*
X162442615Y-107164764D01*
X162457007Y-107178304D01*
X162470430Y-107192697D01*
X162482853Y-107207888D01*
X162494244Y-107223821D01*
X162504571Y-107240443D01*
X162513801Y-107257697D01*
X162521904Y-107275529D01*
X162528848Y-107293885D01*
X162534600Y-107312706D01*
X162539130Y-107331941D01*
X162542405Y-107351534D01*
X162544393Y-107371429D01*
X162545063Y-107391570D01*
X162544334Y-107413120D01*
X162542185Y-107434128D01*
X162538671Y-107454560D01*
X162533847Y-107474385D01*
X162527768Y-107493571D01*
X162520491Y-107512086D01*
X162512070Y-107529899D01*
X162502561Y-107546976D01*
X162492018Y-107563287D01*
X162480498Y-107578798D01*
X162468055Y-107593480D01*
X162454746Y-107607299D01*
X162440625Y-107620223D01*
X162425747Y-107632220D01*
X162410169Y-107643259D01*
X162393944Y-107653308D01*
X162377130Y-107662334D01*
X162359780Y-107670305D01*
X162341951Y-107677191D01*
X162323698Y-107682958D01*
X162305076Y-107687574D01*
X162286140Y-107691010D01*
X162266945Y-107693230D01*
X162247549Y-107694205D01*
X162228003Y-107693901D01*
X162208367Y-107692288D01*
X162188693Y-107689333D01*
X162169037Y-107685004D01*
X162149456Y-107679268D01*
X162130003Y-107672096D01*
X162110735Y-107663453D01*
X162091707Y-107653309D01*
X160197913Y-106559918D01*
X160176368Y-106546506D01*
X160155923Y-106531812D01*
X160136618Y-106515905D01*
X160118493Y-106498854D01*
X160101589Y-106480730D01*
X160085944Y-106461601D01*
X160071599Y-106441536D01*
X160058595Y-106420606D01*
X160046970Y-106398878D01*
X160036766Y-106376423D01*
X160028022Y-106353310D01*
X160020778Y-106329608D01*
X160015074Y-106305388D01*
X160010951Y-106280717D01*
X160008447Y-106255665D01*
X160007603Y-106230302D01*
X160007603Y-105299530D01*
X160007934Y-105286471D01*
X160008914Y-105273585D01*
X160010527Y-105260885D01*
X160012759Y-105248390D01*
X160015592Y-105236113D01*
X160019011Y-105224071D01*
X160023000Y-105212281D01*
X160027543Y-105200757D01*
X160032624Y-105189517D01*
X160038228Y-105178577D01*
X160044338Y-105167950D01*
X160050938Y-105157655D01*
X160058012Y-105147707D01*
X160065545Y-105138121D01*
X160073519Y-105128914D01*
X160081921Y-105120102D01*
X160090734Y-105111700D01*
X160099941Y-105103725D01*
X160109527Y-105096193D01*
X160119474Y-105089118D01*
X160129769Y-105082518D01*
X160140396Y-105076408D01*
X160151337Y-105070804D01*
X160162577Y-105065723D01*
X160174101Y-105061180D01*
X160185891Y-105057191D01*
X160197932Y-105053772D01*
X160210209Y-105050939D01*
X160222705Y-105048708D01*
X160235404Y-105047094D01*
X160248291Y-105046114D01*
X160261349Y-105045784D01*
X160274407Y-105046114D01*
G37*
D12*
G36*
X132659560Y-107953958D02*
G01*
X132661057Y-107951028D01*
X132691339Y-107907431D01*
X132727323Y-107871527D01*
X132753915Y-107851652D01*
X132796436Y-107827449D01*
X132842117Y-107809978D01*
X132865748Y-107803503D01*
X132916947Y-107794071D01*
X132968147Y-107790927D01*
X133011797Y-107793033D01*
X133061684Y-107801326D01*
X133111762Y-107817549D01*
X133142490Y-107832402D01*
X133184290Y-107860464D01*
X133220938Y-107895463D01*
X133247280Y-107929776D01*
X133271518Y-107973086D01*
X133290792Y-108022225D01*
X133296573Y-108041421D01*
X133307655Y-108092282D01*
X133313509Y-108141566D01*
X133315460Y-108194172D01*
X133315460Y-108506314D01*
X132285000Y-108506314D01*
X132285000Y-108303348D01*
X132612529Y-108303348D01*
X132612529Y-108168198D01*
X132599049Y-108159245D01*
X132808656Y-108159245D01*
X132808656Y-108303348D01*
X133119333Y-108303348D01*
X133119333Y-108157780D01*
X133116757Y-108120903D01*
X133101015Y-108073027D01*
X133092698Y-108060014D01*
X133056318Y-108026133D01*
X133051333Y-108023340D01*
X133003806Y-108005861D01*
X132961308Y-108000976D01*
X132912948Y-108008791D01*
X132906506Y-108010841D01*
X132863122Y-108033948D01*
X132853155Y-108042273D01*
X132824043Y-108082309D01*
X132814081Y-108109852D01*
X132808656Y-108159245D01*
X132599049Y-108159245D01*
X132285000Y-107950662D01*
X132285000Y-107713990D01*
X132659560Y-107953958D01*
G37*
G36*
X133007067Y-106839270D02*
G01*
X133055809Y-106846483D01*
X133106337Y-106861494D01*
X133152306Y-106883809D01*
X133175725Y-106899266D01*
X133213581Y-106932288D01*
X133245912Y-106971995D01*
X133272718Y-107018387D01*
X133277893Y-107029561D01*
X133295258Y-107077310D01*
X133307279Y-107129945D01*
X133313415Y-107180007D01*
X133315460Y-107233809D01*
X133315460Y-107545951D01*
X132285000Y-107545951D01*
X132285000Y-107342985D01*
X132611308Y-107342985D01*
X132611308Y-107198882D01*
X132808656Y-107198882D01*
X132808656Y-107342985D01*
X133119333Y-107342985D01*
X133119333Y-107197417D01*
X133116757Y-107160540D01*
X133101015Y-107112664D01*
X133092698Y-107099651D01*
X133056318Y-107065770D01*
X133051333Y-107062977D01*
X133003806Y-107045498D01*
X132962529Y-107040613D01*
X132916367Y-107048429D01*
X132909746Y-107050478D01*
X132865321Y-107073586D01*
X132855032Y-107081910D01*
X132824776Y-107121946D01*
X132814339Y-107149490D01*
X132808656Y-107198882D01*
X132611308Y-107198882D01*
X132611308Y-107197417D01*
X132611585Y-107178782D01*
X132615739Y-107126228D01*
X132626200Y-107073725D01*
X132642815Y-107027424D01*
X132659836Y-106994497D01*
X132690118Y-106951689D01*
X132726102Y-106916782D01*
X132749317Y-106899798D01*
X132795406Y-106873963D01*
X132841385Y-106856698D01*
X132865264Y-106850224D01*
X132916826Y-106840791D01*
X132968147Y-106837647D01*
X133007067Y-106839270D01*
G37*
G36*
X133315460Y-106271736D02*
G01*
X133315460Y-105577354D01*
X133119333Y-105577354D01*
X133119333Y-105827947D01*
X132285000Y-105827947D01*
X132285000Y-106030913D01*
X133119333Y-106030913D01*
X133119333Y-106271736D01*
X133315460Y-106271736D01*
G37*
G36*
X133315460Y-105465979D02*
G01*
X133315460Y-105207082D01*
X132285000Y-104535170D01*
X132285000Y-104796754D01*
X133315460Y-105465979D01*
G37*
G36*
X132285000Y-105480145D02*
G01*
X132861901Y-105113293D01*
X132657470Y-105018038D01*
X132285000Y-105228087D01*
X132285000Y-105480145D01*
G37*
G36*
X132937372Y-105004116D02*
G01*
X133315460Y-104791380D01*
X133315460Y-104544939D01*
X132762494Y-104899092D01*
X132937372Y-105004116D01*
G37*
G36*
X130491136Y-114734225D02*
G01*
X130482864Y-114785145D01*
X130461827Y-114828014D01*
X130430164Y-114866268D01*
X130390128Y-114897223D01*
X130384158Y-114900799D01*
X130336835Y-114920959D01*
X130285540Y-114928777D01*
X130278401Y-114928886D01*
X130229539Y-114924251D01*
X130182149Y-114908890D01*
X130166537Y-114900799D01*
X130125021Y-114870817D01*
X130092520Y-114833536D01*
X130088868Y-114828014D01*
X130067253Y-114782219D01*
X130060048Y-114734225D01*
X130060048Y-114084539D01*
X129859768Y-114084539D01*
X129859768Y-114738377D01*
X129863279Y-114793439D01*
X129873812Y-114845294D01*
X129891367Y-114893944D01*
X129915944Y-114939389D01*
X129946368Y-114980758D01*
X129981707Y-115017424D01*
X130021961Y-115049390D01*
X130067131Y-115076653D01*
X130115964Y-115098345D01*
X130167453Y-115113839D01*
X130221599Y-115123136D01*
X130271155Y-115126186D01*
X130278401Y-115126235D01*
X130327653Y-115123862D01*
X130381566Y-115115340D01*
X130432945Y-115100621D01*
X130481789Y-115079704D01*
X130487717Y-115076653D01*
X130532566Y-115049390D01*
X130572591Y-115017424D01*
X130607793Y-114980758D01*
X130638170Y-114939389D01*
X130662641Y-114893944D01*
X130680119Y-114845294D01*
X130690606Y-114793439D01*
X130694102Y-114738377D01*
X130694102Y-114084539D01*
X130491136Y-114084539D01*
X130491136Y-114734225D01*
G37*
G36*
X129065002Y-114333911D02*
G01*
X129109424Y-114311311D01*
X129154395Y-114291871D01*
X129184681Y-114280666D01*
X129232845Y-114267066D01*
X129281919Y-114260174D01*
X129298743Y-114259661D01*
X129347530Y-114264055D01*
X129394959Y-114281526D01*
X129402302Y-114286284D01*
X129432913Y-114324580D01*
X129440159Y-114365907D01*
X129425397Y-114414309D01*
X129411583Y-114431120D01*
X129371503Y-114462901D01*
X129337333Y-114482166D01*
X129290866Y-114503538D01*
X129242811Y-114522711D01*
X129195337Y-114542409D01*
X129153907Y-114562766D01*
X129112019Y-114588595D01*
X129074772Y-114620163D01*
X129043326Y-114658632D01*
X129020167Y-114702459D01*
X129018840Y-114705648D01*
X129004482Y-114754709D01*
X128998574Y-114803756D01*
X128997835Y-114830701D01*
X129002626Y-114883303D01*
X129016999Y-114933309D01*
X129038380Y-114976514D01*
X129067417Y-115015965D01*
X129103848Y-115050359D01*
X129147674Y-115079697D01*
X129157326Y-115084958D01*
X129204306Y-115104911D01*
X129257043Y-115118334D01*
X129308754Y-115124784D01*
X129350522Y-115126235D01*
X129402448Y-115123944D01*
X129451418Y-115117715D01*
X129470445Y-115114267D01*
X129519536Y-115102487D01*
X129567982Y-115086596D01*
X129590124Y-115077875D01*
X129637107Y-115055813D01*
X129682799Y-115029317D01*
X129703453Y-115015593D01*
X129613816Y-114857323D01*
X129570865Y-114885264D01*
X129534681Y-114904218D01*
X129489129Y-114923207D01*
X129448708Y-114935725D01*
X129399578Y-114945106D01*
X129368840Y-114946960D01*
X129318455Y-114941996D01*
X129295323Y-114936458D01*
X129250280Y-114915091D01*
X129233774Y-114900799D01*
X129211515Y-114856857D01*
X129209106Y-114830701D01*
X129223538Y-114782768D01*
X129229378Y-114774769D01*
X129265837Y-114740751D01*
X129284088Y-114728607D01*
X129329311Y-114704546D01*
X129358826Y-114692215D01*
X129404121Y-114673861D01*
X129450704Y-114653146D01*
X129457012Y-114650205D01*
X129502840Y-114625687D01*
X129545984Y-114596553D01*
X129551534Y-114592320D01*
X129589101Y-114556385D01*
X129617578Y-114516260D01*
X129622853Y-114506835D01*
X129641553Y-114457561D01*
X129649246Y-114408331D01*
X129650208Y-114381294D01*
X129646320Y-114327737D01*
X129634657Y-114278807D01*
X129612846Y-114230329D01*
X129610397Y-114226200D01*
X129578991Y-114184123D01*
X129539850Y-114148570D01*
X129497556Y-114121908D01*
X129449872Y-114101128D01*
X129397798Y-114087027D01*
X129347180Y-114080046D01*
X129329517Y-114078921D01*
X129277265Y-114080336D01*
X129223043Y-114085415D01*
X129174683Y-114094189D01*
X129127284Y-114108475D01*
X129080315Y-114127890D01*
X129036495Y-114149500D01*
X128991928Y-114175805D01*
X128988066Y-114178328D01*
X129065002Y-114333911D01*
G37*
G36*
X128799266Y-115115000D02*
G01*
X128456349Y-115115000D01*
X128422308Y-115113992D01*
X128372276Y-115108703D01*
X128323481Y-115098879D01*
X128299773Y-115092148D01*
X128251647Y-115072849D01*
X128207954Y-115047100D01*
X128189467Y-115032938D01*
X128154537Y-114996833D01*
X128126621Y-114953311D01*
X128109517Y-114910287D01*
X128099513Y-114861145D01*
X128096579Y-114811161D01*
X128306628Y-114811161D01*
X128307941Y-114829983D01*
X128327633Y-114876374D01*
X128340665Y-114889836D01*
X128385030Y-114914232D01*
X128415969Y-114921822D01*
X128466119Y-114925956D01*
X128596300Y-114925956D01*
X128596300Y-114701985D01*
X128480285Y-114701985D01*
X128445566Y-114703517D01*
X128396998Y-114711266D01*
X128375645Y-114717470D01*
X128331785Y-114743506D01*
X128317462Y-114761859D01*
X128306628Y-114811161D01*
X128096579Y-114811161D01*
X128096804Y-114799904D01*
X128104651Y-114746624D01*
X128123708Y-114698353D01*
X128153976Y-114655090D01*
X128176951Y-114631700D01*
X128216856Y-114600608D01*
X128263290Y-114574307D01*
X128268964Y-114571958D01*
X128264351Y-114569529D01*
X128225167Y-114539132D01*
X128192567Y-114502438D01*
X128184186Y-114490211D01*
X128162204Y-114445484D01*
X128149382Y-114394651D01*
X128148819Y-114386912D01*
X128355477Y-114386912D01*
X128360993Y-114425600D01*
X128384297Y-114469710D01*
X128423621Y-114498106D01*
X128473202Y-114506102D01*
X128596300Y-114506102D01*
X128596300Y-114280666D01*
X128487124Y-114280666D01*
X128436162Y-114286516D01*
X128391380Y-114307288D01*
X128365610Y-114338043D01*
X128355477Y-114386912D01*
X128148819Y-114386912D01*
X128145672Y-114343681D01*
X128145765Y-114335683D01*
X128151626Y-114283200D01*
X128169486Y-114230718D01*
X128199253Y-114186236D01*
X128240927Y-114149752D01*
X128285650Y-114124342D01*
X128336683Y-114105173D01*
X128385450Y-114093709D01*
X128438853Y-114086832D01*
X128496893Y-114084539D01*
X128799266Y-114084539D01*
X128799266Y-115115000D01*
G37*
G36*
X127439322Y-115115000D02*
G01*
X127081018Y-115115000D01*
X127029208Y-115112862D01*
X126978802Y-115106451D01*
X126929801Y-115095765D01*
X126882204Y-115080806D01*
X126853443Y-115069298D01*
X126804439Y-115044828D01*
X126758990Y-115015528D01*
X126717096Y-114981399D01*
X126691324Y-114956016D01*
X126656660Y-114914466D01*
X126626787Y-114868742D01*
X126604256Y-114824595D01*
X126601716Y-114818833D01*
X126584302Y-114771121D01*
X126572048Y-114720540D01*
X126564954Y-114667089D01*
X126562979Y-114617965D01*
X126563395Y-114604043D01*
X126773027Y-114604043D01*
X126774569Y-114641428D01*
X126782664Y-114693440D01*
X126797696Y-114740575D01*
X126805841Y-114758633D01*
X126831819Y-114801008D01*
X126867549Y-114839249D01*
X126885204Y-114853251D01*
X126927696Y-114879111D01*
X126975993Y-114898845D01*
X127012540Y-114908644D01*
X127064696Y-114916721D01*
X127115944Y-114919117D01*
X127236356Y-114919117D01*
X127236356Y-114279200D01*
X127071248Y-114279200D01*
X127035123Y-114282152D01*
X126986007Y-114292634D01*
X126976547Y-114295298D01*
X126929825Y-114314350D01*
X126887089Y-114340750D01*
X126866679Y-114357409D01*
X126832745Y-114395666D01*
X126806000Y-114439424D01*
X126802007Y-114447537D01*
X126784652Y-114497346D01*
X126775636Y-114550239D01*
X126773027Y-114604043D01*
X126563395Y-114604043D01*
X126564060Y-114581830D01*
X126569741Y-114527787D01*
X126580289Y-114473938D01*
X126593753Y-114426235D01*
X126611384Y-114379752D01*
X126633504Y-114335560D01*
X126660111Y-114293657D01*
X126691206Y-114254043D01*
X126695400Y-114249265D01*
X126731956Y-114213201D01*
X126773855Y-114180984D01*
X126821097Y-114152614D01*
X126866817Y-114130945D01*
X126916790Y-114112863D01*
X126971182Y-114099222D01*
X127021319Y-114091065D01*
X127074703Y-114086170D01*
X127131332Y-114084539D01*
X127439322Y-114084539D01*
X127439322Y-115115000D01*
G37*
G36*
X125438240Y-115157009D02*
G01*
X126219573Y-114451392D01*
X126159245Y-114485097D01*
X126155093Y-115115000D01*
X126360745Y-115115000D01*
X126360745Y-114043995D01*
X126352441Y-114043995D01*
X125587961Y-114746681D01*
X125632902Y-114727142D01*
X125637054Y-114084539D01*
X125432623Y-114084539D01*
X125432623Y-115157009D01*
X125438240Y-115157009D01*
G37*
G36*
X130659560Y-108094642D02*
G01*
X130661057Y-108091712D01*
X130691339Y-108048115D01*
X130727323Y-108012211D01*
X130753915Y-107992336D01*
X130796436Y-107968133D01*
X130842117Y-107950662D01*
X130865748Y-107944187D01*
X130916947Y-107934755D01*
X130968147Y-107931611D01*
X131011797Y-107933717D01*
X131061684Y-107942010D01*
X131111762Y-107958233D01*
X131142490Y-107973086D01*
X131184290Y-108001148D01*
X131220938Y-108036147D01*
X131247280Y-108070460D01*
X131271518Y-108113770D01*
X131290792Y-108162909D01*
X131296573Y-108182105D01*
X131307655Y-108232966D01*
X131313509Y-108282250D01*
X131315460Y-108334856D01*
X131315460Y-108646998D01*
X130285000Y-108646998D01*
X130285000Y-108444032D01*
X130612529Y-108444032D01*
X130612529Y-108308882D01*
X130599049Y-108299929D01*
X130808656Y-108299929D01*
X130808656Y-108444032D01*
X131119333Y-108444032D01*
X131119333Y-108298464D01*
X131116757Y-108261587D01*
X131101015Y-108213711D01*
X131092698Y-108200698D01*
X131056318Y-108166817D01*
X131051333Y-108164024D01*
X131003806Y-108146545D01*
X130961308Y-108141660D01*
X130912948Y-108149475D01*
X130906506Y-108151525D01*
X130863122Y-108174632D01*
X130853155Y-108182957D01*
X130824043Y-108222993D01*
X130814081Y-108250536D01*
X130808656Y-108299929D01*
X130599049Y-108299929D01*
X130285000Y-108091346D01*
X130285000Y-107854674D01*
X130659560Y-108094642D01*
G37*
G36*
X131007067Y-106979954D02*
G01*
X131055809Y-106987167D01*
X131106337Y-107002178D01*
X131152306Y-107024493D01*
X131175725Y-107039950D01*
X131213581Y-107072972D01*
X131245912Y-107112679D01*
X131272718Y-107159071D01*
X131277893Y-107170245D01*
X131295258Y-107217994D01*
X131307279Y-107270629D01*
X131313415Y-107320691D01*
X131315460Y-107374493D01*
X131315460Y-107686635D01*
X130285000Y-107686635D01*
X130285000Y-107483669D01*
X130611308Y-107483669D01*
X130611308Y-107339566D01*
X130808656Y-107339566D01*
X130808656Y-107483669D01*
X131119333Y-107483669D01*
X131119333Y-107338101D01*
X131116757Y-107301224D01*
X131101015Y-107253348D01*
X131092698Y-107240335D01*
X131056318Y-107206454D01*
X131051333Y-107203661D01*
X131003806Y-107186182D01*
X130962529Y-107181297D01*
X130916367Y-107189113D01*
X130909746Y-107191162D01*
X130865321Y-107214270D01*
X130855032Y-107222594D01*
X130824776Y-107262630D01*
X130814339Y-107290174D01*
X130808656Y-107339566D01*
X130611308Y-107339566D01*
X130611308Y-107338101D01*
X130611585Y-107319466D01*
X130615739Y-107266912D01*
X130626200Y-107214409D01*
X130642815Y-107168108D01*
X130659836Y-107135181D01*
X130690118Y-107092373D01*
X130726102Y-107057466D01*
X130749317Y-107040482D01*
X130795406Y-107014647D01*
X130841385Y-106997382D01*
X130865264Y-106990908D01*
X130916826Y-106981475D01*
X130968147Y-106978331D01*
X131007067Y-106979954D01*
G37*
G36*
X130659561Y-105789966D02*
G01*
X130661057Y-105787037D01*
X130691339Y-105743439D01*
X130727323Y-105707535D01*
X130753915Y-105687660D01*
X130796436Y-105663457D01*
X130842117Y-105645986D01*
X130865748Y-105639512D01*
X130916947Y-105630079D01*
X130968147Y-105626935D01*
X131011797Y-105629041D01*
X131061684Y-105637335D01*
X131111762Y-105653558D01*
X131142490Y-105668411D01*
X131184290Y-105696472D01*
X131220938Y-105731471D01*
X131247280Y-105765785D01*
X131271518Y-105809094D01*
X131290792Y-105858233D01*
X131296573Y-105877429D01*
X131307655Y-105928291D01*
X131313509Y-105977574D01*
X131315460Y-106030180D01*
X131315460Y-106342323D01*
X130285000Y-106342323D01*
X130285000Y-106139357D01*
X130612529Y-106139357D01*
X130612529Y-106004206D01*
X130599051Y-105995254D01*
X130808656Y-105995254D01*
X130808656Y-106139357D01*
X131119333Y-106139357D01*
X131119333Y-105993788D01*
X131116757Y-105956911D01*
X131101015Y-105909036D01*
X131092698Y-105896023D01*
X131056318Y-105862141D01*
X131051333Y-105859348D01*
X131003806Y-105841869D01*
X130961308Y-105836984D01*
X130912948Y-105844800D01*
X130906506Y-105846849D01*
X130863122Y-105869957D01*
X130853155Y-105878282D01*
X130824043Y-105918317D01*
X130814081Y-105945861D01*
X130808656Y-105995254D01*
X130599051Y-105995254D01*
X130285000Y-105786670D01*
X130285000Y-105549999D01*
X130659561Y-105789966D01*
G37*
G36*
X131315460Y-105465979D02*
G01*
X131315460Y-105207082D01*
X130285000Y-104535170D01*
X130285000Y-104796754D01*
X131315460Y-105465979D01*
G37*
G36*
X130285000Y-105480145D02*
G01*
X130861901Y-105113293D01*
X130657470Y-105018038D01*
X130285000Y-105228087D01*
X130285000Y-105480145D01*
G37*
G36*
X130937372Y-105004116D02*
G01*
X131315460Y-104791381D01*
X131315460Y-104544940D01*
X130762494Y-104899092D01*
X130937372Y-105004116D01*
G37*
G36*
X130187298Y-112634225D02*
G01*
X130179026Y-112685145D01*
X130157989Y-112728014D01*
X130126326Y-112766268D01*
X130086290Y-112797223D01*
X130080320Y-112800799D01*
X130032997Y-112820959D01*
X129981702Y-112828777D01*
X129974563Y-112828886D01*
X129925701Y-112824251D01*
X129878311Y-112808890D01*
X129862699Y-112800799D01*
X129821183Y-112770817D01*
X129788682Y-112733536D01*
X129785030Y-112728014D01*
X129763415Y-112682219D01*
X129756210Y-112634225D01*
X129756210Y-111984539D01*
X129555930Y-111984539D01*
X129555930Y-112638377D01*
X129559441Y-112693439D01*
X129569974Y-112745294D01*
X129587529Y-112793944D01*
X129612106Y-112839389D01*
X129642530Y-112880758D01*
X129677869Y-112917424D01*
X129718123Y-112949390D01*
X129763293Y-112976653D01*
X129812126Y-112998345D01*
X129863615Y-113013839D01*
X129917761Y-113023136D01*
X129967317Y-113026186D01*
X129974563Y-113026235D01*
X130023815Y-113023862D01*
X130077728Y-113015340D01*
X130129107Y-113000621D01*
X130177951Y-112979704D01*
X130183879Y-112976653D01*
X130228728Y-112949390D01*
X130268753Y-112917424D01*
X130303955Y-112880758D01*
X130334332Y-112839389D01*
X130358803Y-112793944D01*
X130376281Y-112745294D01*
X130386768Y-112693439D01*
X130390264Y-112638377D01*
X130390264Y-111984539D01*
X130187298Y-111984539D01*
X130187298Y-112634225D01*
G37*
G36*
X128761164Y-112233911D02*
G01*
X128805586Y-112211311D01*
X128850557Y-112191871D01*
X128880843Y-112180666D01*
X128929007Y-112167066D01*
X128978081Y-112160174D01*
X128994905Y-112159661D01*
X129043692Y-112164055D01*
X129091121Y-112181526D01*
X129098464Y-112186284D01*
X129129075Y-112224580D01*
X129136321Y-112265907D01*
X129121559Y-112314309D01*
X129107745Y-112331120D01*
X129067665Y-112362901D01*
X129033495Y-112382166D01*
X128987028Y-112403538D01*
X128938973Y-112422711D01*
X128891499Y-112442409D01*
X128850069Y-112462766D01*
X128808181Y-112488595D01*
X128770934Y-112520163D01*
X128739488Y-112558632D01*
X128716329Y-112602459D01*
X128715002Y-112605648D01*
X128700644Y-112654709D01*
X128694736Y-112703756D01*
X128693997Y-112730701D01*
X128698788Y-112783303D01*
X128713161Y-112833309D01*
X128734542Y-112876514D01*
X128763579Y-112915965D01*
X128800010Y-112950359D01*
X128843836Y-112979697D01*
X128853488Y-112984958D01*
X128900468Y-113004911D01*
X128953205Y-113018334D01*
X129004916Y-113024784D01*
X129046684Y-113026235D01*
X129098610Y-113023944D01*
X129147580Y-113017715D01*
X129166607Y-113014267D01*
X129215698Y-113002487D01*
X129264144Y-112986596D01*
X129286286Y-112977875D01*
X129333269Y-112955813D01*
X129378961Y-112929317D01*
X129399615Y-112915593D01*
X129309978Y-112757323D01*
X129267027Y-112785264D01*
X129230843Y-112804218D01*
X129185291Y-112823207D01*
X129144870Y-112835725D01*
X129095740Y-112845106D01*
X129065002Y-112846960D01*
X129014617Y-112841996D01*
X128991485Y-112836458D01*
X128946442Y-112815091D01*
X128929936Y-112800799D01*
X128907677Y-112756857D01*
X128905268Y-112730701D01*
X128919700Y-112682768D01*
X128925540Y-112674769D01*
X128961999Y-112640751D01*
X128980250Y-112628607D01*
X129025473Y-112604546D01*
X129054988Y-112592215D01*
X129100283Y-112573861D01*
X129146866Y-112553146D01*
X129153174Y-112550205D01*
X129199002Y-112525687D01*
X129242146Y-112496553D01*
X129247696Y-112492320D01*
X129285263Y-112456385D01*
X129313740Y-112416260D01*
X129319015Y-112406835D01*
X129337715Y-112357561D01*
X129345408Y-112308331D01*
X129346370Y-112281294D01*
X129342482Y-112227737D01*
X129330819Y-112178807D01*
X129309008Y-112130329D01*
X129306559Y-112126200D01*
X129275153Y-112084123D01*
X129236012Y-112048570D01*
X129193718Y-112021908D01*
X129146034Y-112001128D01*
X129093960Y-111987027D01*
X129043342Y-111980046D01*
X129025679Y-111978921D01*
X128973427Y-111980336D01*
X128919205Y-111985415D01*
X128870845Y-111994189D01*
X128823446Y-112008475D01*
X128776477Y-112027890D01*
X128732657Y-112049500D01*
X128688090Y-112075805D01*
X128684228Y-112078328D01*
X128761164Y-112233911D01*
G37*
G36*
X128495428Y-113015000D02*
G01*
X128152511Y-113015000D01*
X128118470Y-113013992D01*
X128068438Y-113008703D01*
X128019643Y-112998879D01*
X127995935Y-112992148D01*
X127947809Y-112972849D01*
X127904116Y-112947100D01*
X127885629Y-112932938D01*
X127850699Y-112896833D01*
X127822783Y-112853311D01*
X127805679Y-112810287D01*
X127795675Y-112761145D01*
X127792741Y-112711161D01*
X128002790Y-112711161D01*
X128004103Y-112729983D01*
X128023795Y-112776374D01*
X128036827Y-112789836D01*
X128081192Y-112814232D01*
X128112131Y-112821822D01*
X128162281Y-112825956D01*
X128292462Y-112825956D01*
X128292462Y-112601985D01*
X128176447Y-112601985D01*
X128141728Y-112603517D01*
X128093160Y-112611266D01*
X128071807Y-112617470D01*
X128027947Y-112643506D01*
X128013624Y-112661859D01*
X128002790Y-112711161D01*
X127792741Y-112711161D01*
X127792966Y-112699904D01*
X127800813Y-112646624D01*
X127819870Y-112598353D01*
X127850138Y-112555090D01*
X127873113Y-112531700D01*
X127913018Y-112500608D01*
X127959452Y-112474307D01*
X127965126Y-112471958D01*
X127960513Y-112469529D01*
X127921329Y-112439132D01*
X127888729Y-112402438D01*
X127880348Y-112390211D01*
X127858366Y-112345484D01*
X127845544Y-112294651D01*
X127844981Y-112286912D01*
X128051639Y-112286912D01*
X128057155Y-112325600D01*
X128080459Y-112369710D01*
X128119783Y-112398106D01*
X128169364Y-112406102D01*
X128292462Y-112406102D01*
X128292462Y-112180666D01*
X128183286Y-112180666D01*
X128132324Y-112186516D01*
X128087542Y-112207288D01*
X128061772Y-112238043D01*
X128051639Y-112286912D01*
X127844981Y-112286912D01*
X127841834Y-112243681D01*
X127841927Y-112235683D01*
X127847788Y-112183200D01*
X127865648Y-112130718D01*
X127895415Y-112086236D01*
X127937089Y-112049752D01*
X127981812Y-112024342D01*
X128032845Y-112005173D01*
X128081612Y-111993709D01*
X128135015Y-111986832D01*
X128193055Y-111984539D01*
X128495428Y-111984539D01*
X128495428Y-113015000D01*
G37*
G36*
X127135484Y-113015000D02*
G01*
X126777180Y-113015000D01*
X126725370Y-113012862D01*
X126674964Y-113006451D01*
X126625963Y-112995765D01*
X126578366Y-112980806D01*
X126549605Y-112969298D01*
X126500601Y-112944828D01*
X126455152Y-112915528D01*
X126413258Y-112881399D01*
X126387486Y-112856016D01*
X126352822Y-112814466D01*
X126322949Y-112768742D01*
X126300418Y-112724595D01*
X126297878Y-112718833D01*
X126280464Y-112671121D01*
X126268210Y-112620540D01*
X126261116Y-112567089D01*
X126259141Y-112517965D01*
X126259557Y-112504043D01*
X126469189Y-112504043D01*
X126470731Y-112541428D01*
X126478826Y-112593440D01*
X126493858Y-112640575D01*
X126502003Y-112658633D01*
X126527981Y-112701008D01*
X126563711Y-112739249D01*
X126581366Y-112753251D01*
X126623858Y-112779111D01*
X126672155Y-112798845D01*
X126708702Y-112808644D01*
X126760858Y-112816721D01*
X126812106Y-112819117D01*
X126932518Y-112819117D01*
X126932518Y-112179200D01*
X126767410Y-112179200D01*
X126731285Y-112182152D01*
X126682169Y-112192634D01*
X126672709Y-112195298D01*
X126625987Y-112214350D01*
X126583251Y-112240750D01*
X126562841Y-112257409D01*
X126528907Y-112295666D01*
X126502162Y-112339424D01*
X126498169Y-112347537D01*
X126480814Y-112397346D01*
X126471798Y-112450239D01*
X126469189Y-112504043D01*
X126259557Y-112504043D01*
X126260222Y-112481830D01*
X126265903Y-112427787D01*
X126276451Y-112373938D01*
X126289915Y-112326235D01*
X126307546Y-112279752D01*
X126329666Y-112235560D01*
X126356273Y-112193657D01*
X126387368Y-112154043D01*
X126391562Y-112149265D01*
X126428118Y-112113201D01*
X126470017Y-112080984D01*
X126517259Y-112052614D01*
X126562979Y-112030945D01*
X126612952Y-112012863D01*
X126667344Y-111999222D01*
X126717481Y-111991065D01*
X126770865Y-111986170D01*
X126827494Y-111984539D01*
X127135484Y-111984539D01*
X127135484Y-113015000D01*
G37*
G36*
X126056907Y-113015000D02*
G01*
X125853942Y-113015000D01*
X125853942Y-112688691D01*
X125708373Y-112688691D01*
X125689738Y-112688414D01*
X125637184Y-112684260D01*
X125584681Y-112673799D01*
X125538380Y-112657184D01*
X125505453Y-112640163D01*
X125462646Y-112609881D01*
X125427738Y-112573897D01*
X125410754Y-112550682D01*
X125384919Y-112504593D01*
X125367654Y-112458614D01*
X125361180Y-112434735D01*
X125351747Y-112383173D01*
X125348947Y-112337470D01*
X125551569Y-112337470D01*
X125559385Y-112383632D01*
X125561434Y-112390253D01*
X125584542Y-112434678D01*
X125592867Y-112444967D01*
X125632902Y-112475223D01*
X125660446Y-112485660D01*
X125709838Y-112491343D01*
X125853942Y-112491343D01*
X125853942Y-112180666D01*
X125708373Y-112180666D01*
X125671496Y-112183242D01*
X125623621Y-112198984D01*
X125610608Y-112207301D01*
X125576726Y-112243681D01*
X125573933Y-112248666D01*
X125556454Y-112296193D01*
X125551569Y-112337470D01*
X125348947Y-112337470D01*
X125348603Y-112331852D01*
X125350226Y-112292932D01*
X125357439Y-112244190D01*
X125372450Y-112193662D01*
X125394765Y-112147693D01*
X125410222Y-112124274D01*
X125443244Y-112086418D01*
X125482951Y-112054087D01*
X125529343Y-112027281D01*
X125540517Y-112022106D01*
X125588266Y-112004741D01*
X125640901Y-111992720D01*
X125690963Y-111986584D01*
X125744765Y-111984539D01*
X126056907Y-111984539D01*
X126056907Y-113015000D01*
G37*
G36*
X127570376Y-103711441D02*
G01*
X127609669Y-103741162D01*
X127628017Y-103751252D01*
X127672916Y-103771826D01*
X127718143Y-103788377D01*
X127766482Y-103802781D01*
X127815788Y-103814395D01*
X127822435Y-103815732D01*
X127871118Y-103823271D01*
X127920325Y-103826224D01*
X127923307Y-103826235D01*
X127977241Y-103824458D01*
X128028767Y-103819129D01*
X128077886Y-103810246D01*
X128131074Y-103795744D01*
X128150209Y-103789110D01*
X128198706Y-103768715D01*
X128243570Y-103744658D01*
X128284802Y-103716936D01*
X128322400Y-103685551D01*
X128359870Y-103646230D01*
X128392046Y-103603007D01*
X128418929Y-103555881D01*
X128431576Y-103528014D01*
X128448032Y-103481425D01*
X128459786Y-103432759D01*
X128466839Y-103382018D01*
X128469190Y-103329200D01*
X128467696Y-103277474D01*
X128463213Y-103228359D01*
X128454208Y-103174356D01*
X128441134Y-103123907D01*
X128426692Y-103083492D01*
X128403397Y-103033545D01*
X128376255Y-102987993D01*
X128345267Y-102946838D01*
X128310432Y-102910080D01*
X128272284Y-102877626D01*
X128231358Y-102849630D01*
X128187654Y-102826091D01*
X128141172Y-102807009D01*
X128092613Y-102792263D01*
X128042925Y-102781730D01*
X127992107Y-102775410D01*
X127940160Y-102773304D01*
X127885577Y-102775023D01*
X127833659Y-102780182D01*
X127784408Y-102788779D01*
X127758199Y-102795041D01*
X127708931Y-102809653D01*
X127660465Y-102828095D01*
X127618003Y-102849019D01*
X127683949Y-103038063D01*
X127728818Y-103017825D01*
X127751116Y-103009975D01*
X127798841Y-102995859D01*
X127836601Y-102987016D01*
X127886919Y-102979040D01*
X127913537Y-102977735D01*
X127964141Y-102979786D01*
X128015398Y-102986781D01*
X128062037Y-102998740D01*
X128107397Y-103017447D01*
X128150181Y-103044380D01*
X128170481Y-103061755D01*
X128202654Y-103099233D01*
X128227733Y-103143403D01*
X128236915Y-103166046D01*
X128250608Y-103215608D01*
X128257608Y-103266049D01*
X128259385Y-103310882D01*
X128255847Y-103363559D01*
X128245234Y-103412045D01*
X128234228Y-103442041D01*
X128210284Y-103486251D01*
X128179730Y-103524818D01*
X128163398Y-103540715D01*
X128123705Y-103570432D01*
X128078450Y-103593700D01*
X128055687Y-103602264D01*
X128007086Y-103615064D01*
X127954708Y-103621956D01*
X127917689Y-103623269D01*
X127868560Y-103621030D01*
X127837822Y-103616919D01*
X127789554Y-103603134D01*
X127776273Y-103596646D01*
X127776273Y-103472083D01*
X127954082Y-103472083D01*
X127954082Y-103275956D01*
X127570376Y-103275956D01*
X127570376Y-103711441D01*
G37*
G36*
X126416817Y-103857009D02*
G01*
X127198150Y-103151392D01*
X127137822Y-103185097D01*
X127133670Y-103815000D01*
X127339322Y-103815000D01*
X127339322Y-102743995D01*
X127331018Y-102743995D01*
X126566538Y-103446681D01*
X126611479Y-103427142D01*
X126615631Y-102784539D01*
X126411200Y-102784539D01*
X126411200Y-103857009D01*
X126416817Y-103857009D01*
G37*
G36*
X126145463Y-103815000D02*
G01*
X125787159Y-103815000D01*
X125735349Y-103812862D01*
X125684943Y-103806451D01*
X125635942Y-103795765D01*
X125588345Y-103780806D01*
X125559585Y-103769298D01*
X125510581Y-103744828D01*
X125465132Y-103715528D01*
X125423237Y-103681399D01*
X125397466Y-103656016D01*
X125362801Y-103614466D01*
X125332928Y-103568742D01*
X125310397Y-103524595D01*
X125307858Y-103518833D01*
X125290444Y-103471121D01*
X125278190Y-103420540D01*
X125271095Y-103367089D01*
X125269120Y-103317965D01*
X125269537Y-103304043D01*
X125479169Y-103304043D01*
X125480711Y-103341428D01*
X125488805Y-103393440D01*
X125503837Y-103440575D01*
X125511983Y-103458633D01*
X125537961Y-103501008D01*
X125573691Y-103539249D01*
X125591345Y-103553251D01*
X125633838Y-103579111D01*
X125682135Y-103598845D01*
X125718682Y-103608644D01*
X125770837Y-103616721D01*
X125822086Y-103619117D01*
X125942498Y-103619117D01*
X125942498Y-102979200D01*
X125777389Y-102979200D01*
X125741265Y-102982152D01*
X125692149Y-102992634D01*
X125682688Y-102995298D01*
X125635966Y-103014350D01*
X125593230Y-103040750D01*
X125572821Y-103057409D01*
X125538886Y-103095666D01*
X125512142Y-103139424D01*
X125508149Y-103147537D01*
X125490793Y-103197346D01*
X125481777Y-103250239D01*
X125479169Y-103304043D01*
X125269537Y-103304043D01*
X125270202Y-103281830D01*
X125275882Y-103227787D01*
X125286431Y-103173938D01*
X125299895Y-103126235D01*
X125317526Y-103079752D01*
X125339645Y-103035560D01*
X125366252Y-102993657D01*
X125397348Y-102954043D01*
X125401541Y-102949265D01*
X125438098Y-102913201D01*
X125479997Y-102880984D01*
X125527239Y-102852614D01*
X125572958Y-102830945D01*
X125622932Y-102812863D01*
X125677323Y-102799222D01*
X125727461Y-102791065D01*
X125780844Y-102786170D01*
X125837473Y-102784539D01*
X126145463Y-102784539D01*
X126145463Y-103815000D01*
G37*
G36*
X128676901Y-108886877D02*
G01*
X128886950Y-109289877D01*
X128997592Y-109229794D01*
X128967550Y-109221489D01*
X128937264Y-109218558D01*
X128888354Y-109220635D01*
X128839322Y-109229794D01*
X128792550Y-109247379D01*
X128750418Y-109274734D01*
X128716475Y-109310043D01*
X128690897Y-109352586D01*
X128686182Y-109362906D01*
X128670210Y-109413429D01*
X128663055Y-109464114D01*
X128661513Y-109505544D01*
X128665223Y-109560005D01*
X128676351Y-109609906D01*
X128694898Y-109655248D01*
X128708408Y-109678468D01*
X128740532Y-109720161D01*
X128778284Y-109755175D01*
X128821666Y-109783511D01*
X128831018Y-109788377D01*
X128879428Y-109808341D01*
X128930318Y-109820911D01*
X128983689Y-109826087D01*
X128994661Y-109826235D01*
X129047131Y-109822216D01*
X129096979Y-109811472D01*
X129139008Y-109797658D01*
X129187287Y-109775622D01*
X129228350Y-109749141D01*
X129259420Y-109721210D01*
X129155861Y-109553171D01*
X129118615Y-109587482D01*
X129091381Y-109604951D01*
X129044017Y-109624580D01*
X129000278Y-109630108D01*
X128951237Y-109619950D01*
X128940194Y-109614720D01*
X128901497Y-109582984D01*
X128891102Y-109568558D01*
X128873871Y-109522171D01*
X128871562Y-109493087D01*
X128878154Y-109443880D01*
X128901830Y-109399550D01*
X128906000Y-109394902D01*
X128947033Y-109367608D01*
X128997924Y-109358545D01*
X129001744Y-109358510D01*
X129051660Y-109360402D01*
X129065491Y-109362173D01*
X129108234Y-109371210D01*
X129112386Y-109365593D01*
X128948499Y-109059068D01*
X128889636Y-109082759D01*
X129182239Y-109082759D01*
X129182239Y-108886877D01*
X128676901Y-108886877D01*
G37*
G36*
X128556733Y-109714127D02*
G01*
X128544426Y-109665527D01*
X128525226Y-109641587D01*
X128483361Y-109616190D01*
X128455861Y-109612034D01*
X128407420Y-109627301D01*
X128389427Y-109641587D01*
X128362350Y-109683662D01*
X128357920Y-109714127D01*
X128369027Y-109762314D01*
X128389427Y-109787644D01*
X128432253Y-109811767D01*
X128455861Y-109815000D01*
X128504914Y-109802070D01*
X128525226Y-109787644D01*
X128552302Y-109746104D01*
X128556733Y-109714127D01*
G37*
G36*
X127698952Y-108886877D02*
G01*
X127909001Y-109289877D01*
X128019643Y-109229794D01*
X127989601Y-109221489D01*
X127959315Y-109218558D01*
X127910406Y-109220635D01*
X127861374Y-109229794D01*
X127814601Y-109247379D01*
X127772469Y-109274734D01*
X127738527Y-109310043D01*
X127712948Y-109352586D01*
X127708234Y-109362906D01*
X127692262Y-109413429D01*
X127685107Y-109464114D01*
X127683565Y-109505544D01*
X127687274Y-109560005D01*
X127698403Y-109609906D01*
X127716950Y-109655248D01*
X127730460Y-109678468D01*
X127762583Y-109720161D01*
X127800336Y-109755175D01*
X127843718Y-109783511D01*
X127853070Y-109788377D01*
X127901479Y-109808341D01*
X127952370Y-109820911D01*
X128005740Y-109826087D01*
X128016712Y-109826235D01*
X128069183Y-109822216D01*
X128119030Y-109811472D01*
X128161060Y-109797658D01*
X128209339Y-109775622D01*
X128250402Y-109749141D01*
X128281472Y-109721210D01*
X128177913Y-109553171D01*
X128140666Y-109587482D01*
X128113432Y-109604951D01*
X128066068Y-109624580D01*
X128022330Y-109630108D01*
X127973289Y-109619950D01*
X127962246Y-109614720D01*
X127923549Y-109582984D01*
X127913153Y-109568558D01*
X127895923Y-109522171D01*
X127893614Y-109493087D01*
X127900206Y-109443880D01*
X127923882Y-109399550D01*
X127928052Y-109394902D01*
X127969085Y-109367608D01*
X128019975Y-109358545D01*
X128023795Y-109358510D01*
X128073712Y-109360402D01*
X128087543Y-109362173D01*
X128130285Y-109371210D01*
X128134437Y-109365593D01*
X127970550Y-109059068D01*
X127911688Y-109082759D01*
X128204291Y-109082759D01*
X128204291Y-108886877D01*
X127698952Y-108886877D01*
G37*
G36*
X127311339Y-108784539D02*
G01*
X127010432Y-109526549D01*
X127127913Y-109502857D01*
X126855093Y-108784539D01*
X126614270Y-108784539D01*
X127084682Y-109862627D01*
X127555093Y-108784539D01*
X127311339Y-108784539D01*
G37*
G36*
X125432623Y-109033911D02*
G01*
X125477045Y-109011311D01*
X125522016Y-108991871D01*
X125552302Y-108980666D01*
X125600466Y-108967066D01*
X125649539Y-108960174D01*
X125666363Y-108959661D01*
X125715150Y-108964055D01*
X125762579Y-108981526D01*
X125769922Y-108986284D01*
X125800534Y-109024580D01*
X125807780Y-109065907D01*
X125793017Y-109114309D01*
X125779204Y-109131120D01*
X125739124Y-109162901D01*
X125704954Y-109182166D01*
X125658487Y-109203538D01*
X125610432Y-109222711D01*
X125562958Y-109242409D01*
X125521527Y-109262766D01*
X125479640Y-109288595D01*
X125442393Y-109320163D01*
X125410946Y-109358632D01*
X125387787Y-109402459D01*
X125386461Y-109405648D01*
X125372102Y-109454709D01*
X125366195Y-109503756D01*
X125365456Y-109530701D01*
X125370247Y-109583303D01*
X125384620Y-109633309D01*
X125406000Y-109676514D01*
X125435038Y-109715965D01*
X125471469Y-109750359D01*
X125515294Y-109779697D01*
X125524947Y-109784958D01*
X125571927Y-109804911D01*
X125624664Y-109818334D01*
X125676374Y-109824784D01*
X125718143Y-109826235D01*
X125770068Y-109823944D01*
X125819038Y-109817715D01*
X125838066Y-109814267D01*
X125887157Y-109802487D01*
X125935603Y-109786596D01*
X125957745Y-109777875D01*
X126004727Y-109755813D01*
X126050420Y-109729317D01*
X126071074Y-109715593D01*
X125981437Y-109557323D01*
X125938486Y-109585264D01*
X125902302Y-109604218D01*
X125856750Y-109623207D01*
X125816328Y-109635725D01*
X125767199Y-109645106D01*
X125736461Y-109646960D01*
X125686075Y-109641996D01*
X125662944Y-109636458D01*
X125617900Y-109615091D01*
X125601395Y-109600799D01*
X125579135Y-109556857D01*
X125576726Y-109530701D01*
X125591158Y-109482768D01*
X125596998Y-109474769D01*
X125633458Y-109440751D01*
X125651709Y-109428607D01*
X125696932Y-109404546D01*
X125726447Y-109392215D01*
X125771742Y-109373861D01*
X125818324Y-109353146D01*
X125824633Y-109350205D01*
X125870460Y-109325687D01*
X125913605Y-109296553D01*
X125919155Y-109292320D01*
X125956721Y-109256385D01*
X125985199Y-109216260D01*
X125990474Y-109206835D01*
X126009173Y-109157561D01*
X126016867Y-109108331D01*
X126017829Y-109081294D01*
X126013941Y-109027737D01*
X126002277Y-108978807D01*
X125980467Y-108930329D01*
X125978017Y-108926200D01*
X125946612Y-108884123D01*
X125907471Y-108848570D01*
X125865177Y-108821908D01*
X125817492Y-108801128D01*
X125765419Y-108787027D01*
X125714801Y-108780046D01*
X125697138Y-108778921D01*
X125644885Y-108780336D01*
X125590663Y-108785415D01*
X125542303Y-108794189D01*
X125494905Y-108808475D01*
X125447936Y-108827890D01*
X125404115Y-108849500D01*
X125359549Y-108875805D01*
X125355686Y-108878328D01*
X125432623Y-109033911D01*
G37*
G36*
X127306838Y-106886877D02*
G01*
X127516887Y-107289877D01*
X127627529Y-107229794D01*
X127597487Y-107221489D01*
X127567201Y-107218558D01*
X127518291Y-107220635D01*
X127469259Y-107229794D01*
X127422487Y-107247379D01*
X127380355Y-107274734D01*
X127346412Y-107310043D01*
X127320834Y-107352586D01*
X127316119Y-107362906D01*
X127300147Y-107413429D01*
X127292992Y-107464114D01*
X127291450Y-107505544D01*
X127295160Y-107560005D01*
X127306288Y-107609906D01*
X127324835Y-107655248D01*
X127338345Y-107678468D01*
X127370469Y-107720161D01*
X127408221Y-107755175D01*
X127451603Y-107783511D01*
X127460955Y-107788377D01*
X127509365Y-107808341D01*
X127560255Y-107820911D01*
X127613626Y-107826087D01*
X127624598Y-107826235D01*
X127677068Y-107822216D01*
X127726916Y-107811472D01*
X127768945Y-107797658D01*
X127817224Y-107775622D01*
X127858287Y-107749141D01*
X127889357Y-107721210D01*
X127785798Y-107553171D01*
X127748552Y-107587482D01*
X127721318Y-107604951D01*
X127673954Y-107624580D01*
X127630215Y-107630108D01*
X127581174Y-107619950D01*
X127570131Y-107614720D01*
X127531434Y-107582984D01*
X127521039Y-107568558D01*
X127503808Y-107522171D01*
X127501499Y-107493087D01*
X127508091Y-107443880D01*
X127531767Y-107399550D01*
X127535937Y-107394902D01*
X127576970Y-107367608D01*
X127627861Y-107358545D01*
X127631681Y-107358510D01*
X127681597Y-107360402D01*
X127695428Y-107362173D01*
X127738171Y-107371210D01*
X127742323Y-107365593D01*
X127578436Y-107059068D01*
X127519573Y-107082759D01*
X127812176Y-107082759D01*
X127812176Y-106886877D01*
X127306838Y-106886877D01*
G37*
G36*
X127186670Y-107714127D02*
G01*
X127174363Y-107665527D01*
X127155163Y-107641587D01*
X127113298Y-107616190D01*
X127085798Y-107612034D01*
X127037357Y-107627301D01*
X127019364Y-107641587D01*
X126992287Y-107683662D01*
X126987857Y-107714127D01*
X126998964Y-107762314D01*
X127019364Y-107787644D01*
X127062190Y-107811767D01*
X127085798Y-107815000D01*
X127134851Y-107802070D01*
X127155163Y-107787644D01*
X127182239Y-107746104D01*
X127186670Y-107714127D01*
G37*
G36*
X126328889Y-106886877D02*
G01*
X126538938Y-107289877D01*
X126649580Y-107229794D01*
X126619538Y-107221489D01*
X126589252Y-107218558D01*
X126540343Y-107220635D01*
X126491311Y-107229794D01*
X126444538Y-107247379D01*
X126402406Y-107274734D01*
X126368464Y-107310043D01*
X126342885Y-107352586D01*
X126338171Y-107362906D01*
X126322199Y-107413429D01*
X126315044Y-107464114D01*
X126313502Y-107505544D01*
X126317211Y-107560005D01*
X126328340Y-107609906D01*
X126346887Y-107655248D01*
X126360397Y-107678468D01*
X126392520Y-107720161D01*
X126430273Y-107755175D01*
X126473655Y-107783511D01*
X126483007Y-107788377D01*
X126531416Y-107808341D01*
X126582307Y-107820911D01*
X126635677Y-107826087D01*
X126646649Y-107826235D01*
X126699120Y-107822216D01*
X126748967Y-107811472D01*
X126790997Y-107797658D01*
X126839276Y-107775622D01*
X126880339Y-107749141D01*
X126911409Y-107721210D01*
X126807850Y-107553171D01*
X126770603Y-107587482D01*
X126743369Y-107604951D01*
X126696005Y-107624580D01*
X126652267Y-107630108D01*
X126603226Y-107619950D01*
X126592183Y-107614720D01*
X126553486Y-107582984D01*
X126543090Y-107568558D01*
X126525860Y-107522171D01*
X126523551Y-107493087D01*
X126530143Y-107443880D01*
X126553819Y-107399550D01*
X126557989Y-107394902D01*
X126599022Y-107367608D01*
X126649912Y-107358545D01*
X126653732Y-107358510D01*
X126703649Y-107360402D01*
X126717480Y-107362173D01*
X126760222Y-107371210D01*
X126764374Y-107365593D01*
X126600487Y-107059068D01*
X126541625Y-107082759D01*
X126834228Y-107082759D01*
X126834228Y-106886877D01*
X126328889Y-106886877D01*
G37*
G36*
X125941276Y-106784539D02*
G01*
X125640369Y-107526549D01*
X125757850Y-107502857D01*
X125485030Y-106784539D01*
X125244207Y-106784539D01*
X125714619Y-107862627D01*
X126185030Y-106784539D01*
X125941276Y-106784539D01*
G37*
G36*
X128720760Y-104784539D02*
G01*
X128419853Y-105526549D01*
X128537333Y-105502857D01*
X128264514Y-104784539D01*
X128023691Y-104784539D01*
X128494102Y-105862627D01*
X128964514Y-104784539D01*
X128720760Y-104784539D01*
G37*
G36*
X127846370Y-105815000D02*
G01*
X127503453Y-105815000D01*
X127469412Y-105813992D01*
X127419380Y-105808703D01*
X127370585Y-105798879D01*
X127346877Y-105792148D01*
X127298751Y-105772849D01*
X127255058Y-105747100D01*
X127236571Y-105732938D01*
X127201641Y-105696833D01*
X127173726Y-105653311D01*
X127156622Y-105610287D01*
X127146617Y-105561145D01*
X127143684Y-105511161D01*
X127353732Y-105511161D01*
X127355045Y-105529983D01*
X127374737Y-105576374D01*
X127387770Y-105589836D01*
X127432134Y-105614232D01*
X127463074Y-105621822D01*
X127513223Y-105625956D01*
X127643404Y-105625956D01*
X127643404Y-105401985D01*
X127527389Y-105401985D01*
X127492670Y-105403517D01*
X127444102Y-105411266D01*
X127422749Y-105417470D01*
X127378889Y-105443506D01*
X127364567Y-105461859D01*
X127353732Y-105511161D01*
X127143684Y-105511161D01*
X127143908Y-105499904D01*
X127151755Y-105446624D01*
X127170813Y-105398353D01*
X127201081Y-105355090D01*
X127224056Y-105331700D01*
X127263960Y-105300608D01*
X127310395Y-105274307D01*
X127316068Y-105271958D01*
X127311456Y-105269529D01*
X127272272Y-105239132D01*
X127239671Y-105202438D01*
X127231290Y-105190211D01*
X127209309Y-105145484D01*
X127196486Y-105094651D01*
X127195923Y-105086912D01*
X127402581Y-105086912D01*
X127408098Y-105125600D01*
X127431402Y-105169710D01*
X127470725Y-105198106D01*
X127520306Y-105206102D01*
X127643404Y-105206102D01*
X127643404Y-104980666D01*
X127534228Y-104980666D01*
X127483266Y-104986516D01*
X127438485Y-105007288D01*
X127412714Y-105038043D01*
X127402581Y-105086912D01*
X127195923Y-105086912D01*
X127192776Y-105043681D01*
X127192869Y-105035683D01*
X127198730Y-104983200D01*
X127216590Y-104930718D01*
X127246357Y-104886236D01*
X127288031Y-104849752D01*
X127332754Y-104824342D01*
X127383788Y-104805173D01*
X127432554Y-104793709D01*
X127485958Y-104786832D01*
X127543998Y-104784539D01*
X127846370Y-104784539D01*
X127846370Y-105815000D01*
G37*
G36*
X126758757Y-105434225D02*
G01*
X126750485Y-105485145D01*
X126729448Y-105528014D01*
X126697784Y-105566268D01*
X126657749Y-105597223D01*
X126651779Y-105600799D01*
X126604455Y-105620959D01*
X126553161Y-105628777D01*
X126546021Y-105628886D01*
X126497160Y-105624251D01*
X126449769Y-105608890D01*
X126434158Y-105600799D01*
X126392642Y-105570817D01*
X126360141Y-105533536D01*
X126356489Y-105528014D01*
X126334873Y-105482219D01*
X126327668Y-105434225D01*
X126327668Y-104784539D01*
X126127389Y-104784539D01*
X126127389Y-105438377D01*
X126130900Y-105493439D01*
X126141433Y-105545294D01*
X126158988Y-105593944D01*
X126183565Y-105639389D01*
X126213989Y-105680758D01*
X126249327Y-105717424D01*
X126289582Y-105749390D01*
X126334751Y-105776653D01*
X126383585Y-105798345D01*
X126435074Y-105813839D01*
X126489220Y-105823136D01*
X126538776Y-105826186D01*
X126546021Y-105826235D01*
X126595274Y-105823862D01*
X126649187Y-105815340D01*
X126700565Y-105800621D01*
X126749410Y-105779704D01*
X126755338Y-105776653D01*
X126800187Y-105749390D01*
X126840212Y-105717424D01*
X126875413Y-105680758D01*
X126905791Y-105639389D01*
X126930261Y-105593944D01*
X126947740Y-105545294D01*
X126958227Y-105493439D01*
X126961723Y-105438377D01*
X126961723Y-104784539D01*
X126758757Y-104784539D01*
X126758757Y-105434225D01*
G37*
G36*
X125332623Y-105033911D02*
G01*
X125377045Y-105011311D01*
X125422016Y-104991871D01*
X125452302Y-104980666D01*
X125500466Y-104967066D01*
X125549539Y-104960174D01*
X125566363Y-104959661D01*
X125615150Y-104964055D01*
X125662579Y-104981526D01*
X125669922Y-104986284D01*
X125700534Y-105024580D01*
X125707780Y-105065907D01*
X125693017Y-105114309D01*
X125679204Y-105131120D01*
X125639124Y-105162901D01*
X125604954Y-105182166D01*
X125558486Y-105203538D01*
X125510432Y-105222711D01*
X125462958Y-105242409D01*
X125421527Y-105262766D01*
X125379640Y-105288595D01*
X125342393Y-105320163D01*
X125310946Y-105358632D01*
X125287787Y-105402459D01*
X125286461Y-105405648D01*
X125272102Y-105454709D01*
X125266195Y-105503756D01*
X125265456Y-105530701D01*
X125270247Y-105583303D01*
X125284620Y-105633309D01*
X125306000Y-105676514D01*
X125335038Y-105715965D01*
X125371469Y-105750359D01*
X125415294Y-105779697D01*
X125424947Y-105784958D01*
X125471926Y-105804911D01*
X125524664Y-105818334D01*
X125576374Y-105824784D01*
X125618143Y-105826235D01*
X125670068Y-105823944D01*
X125719038Y-105817715D01*
X125738066Y-105814267D01*
X125787157Y-105802487D01*
X125835603Y-105786596D01*
X125857745Y-105777875D01*
X125904727Y-105755813D01*
X125950420Y-105729317D01*
X125971074Y-105715593D01*
X125881437Y-105557323D01*
X125838486Y-105585264D01*
X125802302Y-105604218D01*
X125756750Y-105623207D01*
X125716328Y-105635725D01*
X125667199Y-105645106D01*
X125636461Y-105646960D01*
X125586075Y-105641996D01*
X125562944Y-105636458D01*
X125517900Y-105615091D01*
X125501395Y-105600799D01*
X125479135Y-105556857D01*
X125476726Y-105530701D01*
X125491158Y-105482768D01*
X125496998Y-105474769D01*
X125533458Y-105440751D01*
X125551709Y-105428607D01*
X125596932Y-105404546D01*
X125626447Y-105392215D01*
X125671742Y-105373861D01*
X125718324Y-105353146D01*
X125724633Y-105350205D01*
X125770460Y-105325687D01*
X125813605Y-105296553D01*
X125819155Y-105292320D01*
X125856721Y-105256385D01*
X125885199Y-105216260D01*
X125890474Y-105206835D01*
X125909173Y-105157561D01*
X125916867Y-105108331D01*
X125917829Y-105081294D01*
X125913941Y-105027737D01*
X125902277Y-104978807D01*
X125880467Y-104930329D01*
X125878017Y-104926200D01*
X125846611Y-104884123D01*
X125807471Y-104848570D01*
X125765177Y-104821908D01*
X125717492Y-104801128D01*
X125665419Y-104787027D01*
X125614801Y-104780046D01*
X125597138Y-104778921D01*
X125544885Y-104780336D01*
X125490663Y-104785415D01*
X125442303Y-104794189D01*
X125394905Y-104808475D01*
X125347936Y-104827890D01*
X125304115Y-104849500D01*
X125259549Y-104875805D01*
X125255686Y-104878328D01*
X125332623Y-105033911D01*
G37*
G36*
X153515460Y-109193753D02*
G01*
X153515460Y-108491066D01*
X153319333Y-108491066D01*
X153319333Y-108990787D01*
X153099515Y-108990787D01*
X153099515Y-108548464D01*
X152903632Y-108548464D01*
X152903632Y-108990787D01*
X152680882Y-108990787D01*
X152680882Y-108471527D01*
X152485000Y-108471527D01*
X152485000Y-109193753D01*
X153515460Y-109193753D01*
G37*
G36*
X153266088Y-107711688D02*
G01*
X153288688Y-107756109D01*
X153308128Y-107801080D01*
X153319333Y-107831367D01*
X153332933Y-107879530D01*
X153339825Y-107928604D01*
X153340338Y-107945428D01*
X153335944Y-107994215D01*
X153318473Y-108041644D01*
X153313715Y-108048987D01*
X153275419Y-108079598D01*
X153234092Y-108086845D01*
X153185690Y-108072082D01*
X153168879Y-108058268D01*
X153137098Y-108018188D01*
X153117833Y-107984018D01*
X153096461Y-107937551D01*
X153077288Y-107889496D01*
X153057590Y-107842023D01*
X153037233Y-107800592D01*
X153011404Y-107758704D01*
X152979836Y-107721457D01*
X152941367Y-107690011D01*
X152897540Y-107666852D01*
X152894351Y-107665526D01*
X152845290Y-107651167D01*
X152796243Y-107645259D01*
X152769298Y-107644521D01*
X152716696Y-107649312D01*
X152666690Y-107663684D01*
X152623485Y-107685065D01*
X152584034Y-107714102D01*
X152549640Y-107750534D01*
X152520302Y-107794359D01*
X152515041Y-107804011D01*
X152495088Y-107850991D01*
X152481665Y-107903728D01*
X152475215Y-107955439D01*
X152473764Y-107997207D01*
X152476055Y-108049133D01*
X152482284Y-108098103D01*
X152485732Y-108117131D01*
X152497512Y-108166222D01*
X152513403Y-108214668D01*
X152522124Y-108236810D01*
X152544186Y-108283792D01*
X152570682Y-108329485D01*
X152584406Y-108350138D01*
X152742676Y-108260501D01*
X152714735Y-108217551D01*
X152695781Y-108181367D01*
X152676792Y-108135815D01*
X152664274Y-108095393D01*
X152654893Y-108046263D01*
X152653039Y-108015526D01*
X152658003Y-107965140D01*
X152663541Y-107942009D01*
X152684908Y-107896965D01*
X152699200Y-107880459D01*
X152743142Y-107858200D01*
X152769298Y-107855791D01*
X152817231Y-107870223D01*
X152825230Y-107876063D01*
X152859248Y-107912522D01*
X152871392Y-107930773D01*
X152895453Y-107975996D01*
X152907784Y-108005512D01*
X152926138Y-108050806D01*
X152946853Y-108097389D01*
X152949794Y-108103697D01*
X152974312Y-108149525D01*
X153003446Y-108192669D01*
X153007679Y-108198219D01*
X153043614Y-108235786D01*
X153083739Y-108264263D01*
X153093164Y-108269538D01*
X153142438Y-108288238D01*
X153191668Y-108295932D01*
X153218705Y-108296893D01*
X153272262Y-108293006D01*
X153321192Y-108281342D01*
X153369670Y-108259531D01*
X153373799Y-108257082D01*
X153415876Y-108225676D01*
X153451429Y-108186536D01*
X153478091Y-108144242D01*
X153498871Y-108096557D01*
X153512972Y-108044484D01*
X153519953Y-107993865D01*
X153521078Y-107976203D01*
X153519663Y-107923950D01*
X153514584Y-107869728D01*
X153505810Y-107821368D01*
X153491524Y-107773969D01*
X153472109Y-107727000D01*
X153450499Y-107683180D01*
X153424194Y-107638614D01*
X153421671Y-107634751D01*
X153266088Y-107711688D01*
G37*
G36*
X153207067Y-106739270D02*
G01*
X153255809Y-106746483D01*
X153306337Y-106761494D01*
X153352306Y-106783809D01*
X153375725Y-106799266D01*
X153413581Y-106832288D01*
X153445912Y-106871995D01*
X153472718Y-106918387D01*
X153477893Y-106929561D01*
X153495258Y-106977310D01*
X153507279Y-107029945D01*
X153513415Y-107080007D01*
X153515460Y-107133809D01*
X153515460Y-107445951D01*
X152485000Y-107445951D01*
X152485000Y-107242986D01*
X152811308Y-107242986D01*
X152811308Y-107098882D01*
X153008656Y-107098882D01*
X153008656Y-107242986D01*
X153319333Y-107242986D01*
X153319333Y-107097417D01*
X153316757Y-107060540D01*
X153301015Y-107012665D01*
X153292698Y-106999651D01*
X153256318Y-106965770D01*
X153251333Y-106962977D01*
X153203806Y-106945498D01*
X153162529Y-106940613D01*
X153116367Y-106948429D01*
X153109746Y-106950478D01*
X153065321Y-106973586D01*
X153055032Y-106981910D01*
X153024776Y-107021946D01*
X153014339Y-107049490D01*
X153008656Y-107098882D01*
X152811308Y-107098882D01*
X152811308Y-107097417D01*
X152811585Y-107078782D01*
X152815739Y-107026228D01*
X152826200Y-106973725D01*
X152842815Y-106927424D01*
X152859836Y-106894497D01*
X152890118Y-106851689D01*
X152926102Y-106816782D01*
X152949317Y-106799798D01*
X152995406Y-106773963D01*
X153041385Y-106756698D01*
X153065264Y-106750224D01*
X153116826Y-106740791D01*
X153168147Y-106737647D01*
X153207067Y-106739270D01*
G37*
G36*
X153515460Y-106171736D02*
G01*
X153515460Y-105477354D01*
X153319333Y-105477354D01*
X153319333Y-105727947D01*
X152485000Y-105727947D01*
X152485000Y-105930913D01*
X153319333Y-105930913D01*
X153319333Y-106171736D01*
X153515460Y-106171736D01*
G37*
G36*
X153515460Y-105365979D02*
G01*
X153515460Y-105107082D01*
X152485000Y-104435170D01*
X152485000Y-104696754D01*
X153515460Y-105365979D01*
G37*
G36*
X152485000Y-105380145D02*
G01*
X153061901Y-105013293D01*
X152857470Y-104918038D01*
X152485000Y-105128087D01*
X152485000Y-105380145D01*
G37*
G36*
X153137372Y-104904116D02*
G01*
X153515460Y-104691381D01*
X153515460Y-104444939D01*
X152962494Y-104799092D01*
X153137372Y-104904116D01*
G37*
G36*
X151515460Y-109334437D02*
G01*
X151515460Y-108631750D01*
X151319333Y-108631750D01*
X151319333Y-109131471D01*
X151099515Y-109131471D01*
X151099515Y-108689148D01*
X150903632Y-108689148D01*
X150903632Y-109131471D01*
X150680882Y-109131471D01*
X150680882Y-108612211D01*
X150485000Y-108612211D01*
X150485000Y-109334437D01*
X151515460Y-109334437D01*
G37*
G36*
X151266088Y-107852372D02*
G01*
X151288688Y-107896793D01*
X151308128Y-107941764D01*
X151319333Y-107972051D01*
X151332933Y-108020214D01*
X151339825Y-108069288D01*
X151340338Y-108086112D01*
X151335944Y-108134899D01*
X151318473Y-108182328D01*
X151313715Y-108189671D01*
X151275419Y-108220282D01*
X151234092Y-108227529D01*
X151185690Y-108212766D01*
X151168879Y-108198952D01*
X151137098Y-108158872D01*
X151117833Y-108124702D01*
X151096461Y-108078235D01*
X151077288Y-108030180D01*
X151057590Y-107982707D01*
X151037233Y-107941276D01*
X151011404Y-107899388D01*
X150979836Y-107862141D01*
X150941367Y-107830695D01*
X150897540Y-107807536D01*
X150894351Y-107806210D01*
X150845290Y-107791851D01*
X150796243Y-107785943D01*
X150769298Y-107785205D01*
X150716696Y-107789996D01*
X150666690Y-107804368D01*
X150623485Y-107825749D01*
X150584034Y-107854786D01*
X150549640Y-107891218D01*
X150520302Y-107935043D01*
X150515041Y-107944695D01*
X150495088Y-107991675D01*
X150481665Y-108044412D01*
X150475215Y-108096123D01*
X150473764Y-108137891D01*
X150476055Y-108189817D01*
X150482284Y-108238787D01*
X150485732Y-108257815D01*
X150497512Y-108306906D01*
X150513403Y-108355352D01*
X150522124Y-108377494D01*
X150544186Y-108424476D01*
X150570682Y-108470169D01*
X150584406Y-108490822D01*
X150742676Y-108401185D01*
X150714735Y-108358235D01*
X150695781Y-108322051D01*
X150676792Y-108276499D01*
X150664274Y-108236077D01*
X150654893Y-108186947D01*
X150653039Y-108156210D01*
X150658003Y-108105824D01*
X150663541Y-108082693D01*
X150684908Y-108037649D01*
X150699200Y-108021143D01*
X150743142Y-107998884D01*
X150769298Y-107996475D01*
X150817231Y-108010907D01*
X150825230Y-108016747D01*
X150859248Y-108053206D01*
X150871392Y-108071457D01*
X150895453Y-108116680D01*
X150907784Y-108146196D01*
X150926138Y-108191490D01*
X150946853Y-108238073D01*
X150949794Y-108244381D01*
X150974312Y-108290209D01*
X151003446Y-108333353D01*
X151007679Y-108338903D01*
X151043614Y-108376470D01*
X151083739Y-108404947D01*
X151093164Y-108410222D01*
X151142438Y-108428922D01*
X151191668Y-108436616D01*
X151218705Y-108437577D01*
X151272262Y-108433690D01*
X151321192Y-108422026D01*
X151369670Y-108400215D01*
X151373799Y-108397766D01*
X151415876Y-108366360D01*
X151451429Y-108327220D01*
X151478091Y-108284926D01*
X151498871Y-108237241D01*
X151512972Y-108185168D01*
X151519953Y-108134549D01*
X151521078Y-108116887D01*
X151519663Y-108064634D01*
X151514584Y-108010412D01*
X151505810Y-107962052D01*
X151491524Y-107914653D01*
X151472109Y-107867684D01*
X151450499Y-107823864D01*
X151424194Y-107779298D01*
X151421671Y-107775435D01*
X151266088Y-107852372D01*
G37*
G36*
X151207067Y-106879954D02*
G01*
X151255809Y-106887167D01*
X151306337Y-106902178D01*
X151352306Y-106924493D01*
X151375725Y-106939950D01*
X151413581Y-106972972D01*
X151445912Y-107012679D01*
X151472718Y-107059071D01*
X151477893Y-107070245D01*
X151495258Y-107117994D01*
X151507279Y-107170629D01*
X151513415Y-107220691D01*
X151515460Y-107274493D01*
X151515460Y-107586635D01*
X150485000Y-107586635D01*
X150485000Y-107383670D01*
X150811308Y-107383670D01*
X150811308Y-107239566D01*
X151008656Y-107239566D01*
X151008656Y-107383670D01*
X151319333Y-107383670D01*
X151319333Y-107238101D01*
X151316757Y-107201224D01*
X151301015Y-107153349D01*
X151292698Y-107140335D01*
X151256318Y-107106454D01*
X151251333Y-107103661D01*
X151203806Y-107086182D01*
X151162529Y-107081297D01*
X151116367Y-107089113D01*
X151109746Y-107091162D01*
X151065321Y-107114270D01*
X151055032Y-107122594D01*
X151024776Y-107162630D01*
X151014339Y-107190174D01*
X151008656Y-107239566D01*
X150811308Y-107239566D01*
X150811308Y-107238101D01*
X150811585Y-107219466D01*
X150815739Y-107166912D01*
X150826200Y-107114409D01*
X150842815Y-107068108D01*
X150859836Y-107035181D01*
X150890118Y-106992373D01*
X150926102Y-106957466D01*
X150949317Y-106940482D01*
X150995406Y-106914647D01*
X151041385Y-106897382D01*
X151065264Y-106890908D01*
X151116826Y-106881475D01*
X151168147Y-106878331D01*
X151207067Y-106879954D01*
G37*
G36*
X150859561Y-105689966D02*
G01*
X150861057Y-105687037D01*
X150891339Y-105643439D01*
X150927323Y-105607536D01*
X150953915Y-105587660D01*
X150996436Y-105563457D01*
X151042117Y-105545986D01*
X151065748Y-105539512D01*
X151116947Y-105530080D01*
X151168147Y-105526935D01*
X151211797Y-105529041D01*
X151261684Y-105537335D01*
X151311762Y-105553558D01*
X151342490Y-105568411D01*
X151384290Y-105596472D01*
X151420938Y-105631471D01*
X151447280Y-105665785D01*
X151471518Y-105709094D01*
X151490792Y-105758233D01*
X151496573Y-105777429D01*
X151507655Y-105828291D01*
X151513509Y-105877574D01*
X151515460Y-105930180D01*
X151515460Y-106242323D01*
X150485000Y-106242323D01*
X150485000Y-106039357D01*
X150812529Y-106039357D01*
X150812529Y-105904206D01*
X150799051Y-105895254D01*
X151008656Y-105895254D01*
X151008656Y-106039357D01*
X151319333Y-106039357D01*
X151319333Y-105893788D01*
X151316757Y-105856911D01*
X151301015Y-105809036D01*
X151292698Y-105796023D01*
X151256318Y-105762141D01*
X151251333Y-105759348D01*
X151203806Y-105741869D01*
X151161308Y-105736984D01*
X151112948Y-105744800D01*
X151106506Y-105746849D01*
X151063122Y-105769957D01*
X151053155Y-105778282D01*
X151024043Y-105818317D01*
X151014081Y-105845861D01*
X151008656Y-105895254D01*
X150799051Y-105895254D01*
X150485000Y-105686670D01*
X150485000Y-105449999D01*
X150859561Y-105689966D01*
G37*
G36*
X151515460Y-105365979D02*
G01*
X151515460Y-105107082D01*
X150485000Y-104435170D01*
X150485000Y-104696754D01*
X151515460Y-105365979D01*
G37*
G36*
X150485000Y-105380145D02*
G01*
X151061901Y-105013293D01*
X150857470Y-104918038D01*
X150485000Y-105128087D01*
X150485000Y-105380145D01*
G37*
G36*
X151137372Y-104904116D02*
G01*
X151515460Y-104691381D01*
X151515460Y-104444940D01*
X150962494Y-104799092D01*
X151137372Y-104904116D01*
G37*
G36*
X151843039Y-113119685D02*
G01*
X151888794Y-113172489D01*
X151900000Y-113224000D01*
X151900000Y-115876000D01*
X151880315Y-115943039D01*
X151827511Y-115988794D01*
X151776000Y-116000000D01*
X144424000Y-116000000D01*
X144356961Y-115980315D01*
X144311206Y-115927511D01*
X144300000Y-115876000D01*
X144300000Y-115601000D01*
X144699000Y-115601000D01*
X145034297Y-115601000D01*
X145408586Y-115601000D01*
X146096372Y-115601000D01*
X146470660Y-115601000D01*
X147158446Y-115601000D01*
X147532734Y-115601000D01*
X148220520Y-115601000D01*
X148594809Y-115601000D01*
X149282595Y-115601000D01*
X149656883Y-115601000D01*
X150344669Y-115601000D01*
X150718957Y-115601000D01*
X151406744Y-115601000D01*
X151062850Y-115257106D01*
X150718957Y-115601000D01*
X150344669Y-115601000D01*
X150000776Y-115257107D01*
X149656883Y-115601000D01*
X149282595Y-115601000D01*
X148938702Y-115257107D01*
X148594809Y-115601000D01*
X148220520Y-115601000D01*
X147876627Y-115257107D01*
X147532734Y-115601000D01*
X147158446Y-115601000D01*
X146814553Y-115257107D01*
X146470660Y-115601000D01*
X146096372Y-115601000D01*
X145752479Y-115257107D01*
X145408586Y-115601000D01*
X145034297Y-115601000D01*
X144699000Y-115265703D01*
X144699000Y-115601000D01*
X144300000Y-115601000D01*
X144300000Y-115081037D01*
X144866472Y-115081037D01*
X145221441Y-115436005D01*
X145576409Y-115081037D01*
X145928547Y-115081037D01*
X146283516Y-115436005D01*
X146638484Y-115081037D01*
X146990621Y-115081037D01*
X147345590Y-115436005D01*
X147700558Y-115081037D01*
X148052696Y-115081037D01*
X148407664Y-115436005D01*
X148762633Y-115081037D01*
X149114770Y-115081037D01*
X149469739Y-115436005D01*
X149824707Y-115081037D01*
X150176844Y-115081037D01*
X150531813Y-115436005D01*
X150886781Y-115081037D01*
X151238919Y-115081037D01*
X151501000Y-115343117D01*
X151501000Y-114818957D01*
X151238919Y-115081037D01*
X150886781Y-115081037D01*
X150531813Y-114726069D01*
X150176844Y-115081037D01*
X149824707Y-115081037D01*
X149469739Y-114726069D01*
X149114770Y-115081037D01*
X148762633Y-115081037D01*
X148407664Y-114726068D01*
X148052696Y-115081037D01*
X147700558Y-115081037D01*
X147345590Y-114726069D01*
X146990621Y-115081037D01*
X146638484Y-115081037D01*
X146283516Y-114726069D01*
X145928547Y-115081037D01*
X145576409Y-115081037D01*
X145221441Y-114726068D01*
X144866472Y-115081037D01*
X144300000Y-115081037D01*
X144300000Y-114896372D01*
X144699000Y-114896372D01*
X145045372Y-114550000D01*
X145397511Y-114550000D01*
X145752479Y-114904968D01*
X146107447Y-114550000D01*
X146459585Y-114550000D01*
X146814553Y-114904968D01*
X147169521Y-114550000D01*
X147521659Y-114550000D01*
X147876627Y-114904968D01*
X148231595Y-114550000D01*
X148583734Y-114550000D01*
X148938702Y-114904968D01*
X149293670Y-114550000D01*
X149645808Y-114550000D01*
X150000776Y-114904968D01*
X150355744Y-114550000D01*
X150707882Y-114550000D01*
X151062850Y-114904968D01*
X151417819Y-114550000D01*
X151062850Y-114195031D01*
X150707882Y-114550000D01*
X150355744Y-114550000D01*
X150000776Y-114195032D01*
X149645808Y-114550000D01*
X149293670Y-114550000D01*
X148938702Y-114195032D01*
X148583734Y-114550000D01*
X148231595Y-114550000D01*
X147876627Y-114195032D01*
X147521659Y-114550000D01*
X147169521Y-114550000D01*
X146814553Y-114195032D01*
X146459585Y-114550000D01*
X146107447Y-114550000D01*
X145752479Y-114195032D01*
X145397511Y-114550000D01*
X145045372Y-114550000D01*
X144699000Y-114203628D01*
X144699000Y-114896372D01*
X144300000Y-114896372D01*
X144300000Y-114018963D01*
X144866473Y-114018963D01*
X145221441Y-114373931D01*
X145576409Y-114018963D01*
X145928548Y-114018963D01*
X146283516Y-114373931D01*
X146638484Y-114018963D01*
X146990622Y-114018963D01*
X147345590Y-114373931D01*
X147700558Y-114018963D01*
X148052696Y-114018963D01*
X148407664Y-114373931D01*
X148762633Y-114018963D01*
X149114771Y-114018963D01*
X149469739Y-114373931D01*
X149824707Y-114018963D01*
X150176845Y-114018963D01*
X150531813Y-114373931D01*
X150886781Y-114018963D01*
X151238920Y-114018963D01*
X151501000Y-114281043D01*
X151501000Y-113756883D01*
X151238920Y-114018963D01*
X150886781Y-114018963D01*
X150531813Y-113663995D01*
X150176845Y-114018963D01*
X149824707Y-114018963D01*
X149469739Y-113663995D01*
X149114771Y-114018963D01*
X148762633Y-114018963D01*
X148407664Y-113663994D01*
X148052696Y-114018963D01*
X147700558Y-114018963D01*
X147345590Y-113663995D01*
X146990622Y-114018963D01*
X146638484Y-114018963D01*
X146283516Y-113663995D01*
X145928548Y-114018963D01*
X145576409Y-114018963D01*
X145221441Y-113663994D01*
X144866473Y-114018963D01*
X144300000Y-114018963D01*
X144300000Y-113834298D01*
X144699000Y-113834298D01*
X145034298Y-113499000D01*
X145408585Y-113499000D01*
X145752479Y-113842894D01*
X146096373Y-113499000D01*
X146470659Y-113499000D01*
X146814553Y-113842894D01*
X147158447Y-113499000D01*
X147532733Y-113499000D01*
X147876627Y-113842894D01*
X148220521Y-113499000D01*
X148594808Y-113499000D01*
X148938702Y-113842894D01*
X149282596Y-113499000D01*
X149656882Y-113499000D01*
X150000776Y-113842894D01*
X150344670Y-113499000D01*
X150718956Y-113499000D01*
X151062850Y-113842894D01*
X151406745Y-113499000D01*
X150718956Y-113499000D01*
X150344670Y-113499000D01*
X149656882Y-113499000D01*
X149282596Y-113499000D01*
X148594808Y-113499000D01*
X148220521Y-113499000D01*
X147532733Y-113499000D01*
X147158447Y-113499000D01*
X146470659Y-113499000D01*
X146096373Y-113499000D01*
X145408585Y-113499000D01*
X145034298Y-113499000D01*
X144699000Y-113499000D01*
X144699000Y-113834298D01*
X144300000Y-113834298D01*
X144300000Y-113224000D01*
X144319685Y-113156961D01*
X144372489Y-113111206D01*
X144424000Y-113100000D01*
X151776000Y-113100000D01*
X151843039Y-113119685D01*
G37*
%LPC*%
D13*
G36*
X158780460Y-114160606D02*
G01*
X158780460Y-113457919D01*
X158584333Y-113457919D01*
X158584333Y-113957640D01*
X158364515Y-113957640D01*
X158364515Y-113515317D01*
X158168632Y-113515317D01*
X158168632Y-113957640D01*
X157945882Y-113957640D01*
X157945882Y-113438380D01*
X157750000Y-113438380D01*
X157750000Y-114160606D01*
X158780460Y-114160606D01*
G37*
G36*
X158780460Y-113228575D02*
G01*
X158780460Y-113025610D01*
X157945882Y-113025610D01*
X157945882Y-112541276D01*
X157750000Y-112541276D01*
X157750000Y-113228575D01*
X158780460Y-113228575D01*
G37*
G36*
X158124561Y-111779359D02*
G01*
X158126057Y-111776430D01*
X158156339Y-111732832D01*
X158192323Y-111696929D01*
X158218915Y-111677053D01*
X158261436Y-111652850D01*
X158307117Y-111635379D01*
X158330748Y-111628905D01*
X158381947Y-111619473D01*
X158433147Y-111616328D01*
X158476797Y-111618434D01*
X158526684Y-111626728D01*
X158576762Y-111642951D01*
X158607490Y-111657804D01*
X158649290Y-111685865D01*
X158685938Y-111720864D01*
X158712280Y-111755178D01*
X158736518Y-111798487D01*
X158755792Y-111847626D01*
X158761573Y-111866822D01*
X158772655Y-111917684D01*
X158778509Y-111966967D01*
X158780460Y-112019573D01*
X158780460Y-112331716D01*
X157750000Y-112331716D01*
X157750000Y-112128750D01*
X158077529Y-112128750D01*
X158077529Y-111993599D01*
X158064051Y-111984647D01*
X158273656Y-111984647D01*
X158273656Y-112128750D01*
X158584333Y-112128750D01*
X158584333Y-111983181D01*
X158581757Y-111946304D01*
X158566015Y-111898429D01*
X158557698Y-111885416D01*
X158521318Y-111851534D01*
X158516333Y-111848741D01*
X158468806Y-111831262D01*
X158426308Y-111826377D01*
X158377948Y-111834193D01*
X158371506Y-111836242D01*
X158328122Y-111859350D01*
X158318155Y-111867675D01*
X158289043Y-111907710D01*
X158279081Y-111935254D01*
X158273656Y-111984647D01*
X158064051Y-111984647D01*
X157750000Y-111776063D01*
X157750000Y-111539392D01*
X158124561Y-111779359D01*
G37*
G36*
X158531088Y-110821318D02*
G01*
X158553688Y-110865740D01*
X158573128Y-110910711D01*
X158584333Y-110940997D01*
X158597933Y-110989161D01*
X158604825Y-111038234D01*
X158605338Y-111055058D01*
X158600944Y-111103845D01*
X158583473Y-111151274D01*
X158578715Y-111158617D01*
X158540419Y-111189229D01*
X158499092Y-111196475D01*
X158450690Y-111181712D01*
X158433879Y-111167899D01*
X158402098Y-111127819D01*
X158382833Y-111093649D01*
X158361461Y-111047182D01*
X158342288Y-110999127D01*
X158322590Y-110951653D01*
X158302233Y-110910222D01*
X158276404Y-110868335D01*
X158244836Y-110831088D01*
X158206367Y-110799641D01*
X158162540Y-110776482D01*
X158159351Y-110775156D01*
X158110290Y-110760797D01*
X158061243Y-110754890D01*
X158034298Y-110754151D01*
X157981696Y-110758942D01*
X157931690Y-110773315D01*
X157888485Y-110794695D01*
X157849034Y-110823733D01*
X157814640Y-110860164D01*
X157785302Y-110903989D01*
X157780041Y-110913642D01*
X157760088Y-110960622D01*
X157746665Y-111013359D01*
X157740215Y-111065069D01*
X157738764Y-111106838D01*
X157741055Y-111158763D01*
X157747284Y-111207733D01*
X157750732Y-111226761D01*
X157762512Y-111275852D01*
X157778403Y-111324298D01*
X157787124Y-111346440D01*
X157809186Y-111393422D01*
X157835682Y-111439115D01*
X157849406Y-111459769D01*
X158007676Y-111370132D01*
X157979735Y-111327181D01*
X157960781Y-111290997D01*
X157941792Y-111245445D01*
X157929274Y-111205023D01*
X157919893Y-111155894D01*
X157918039Y-111125156D01*
X157923003Y-111074770D01*
X157928541Y-111051639D01*
X157949908Y-111006595D01*
X157964200Y-110990090D01*
X158008142Y-110967830D01*
X158034298Y-110965421D01*
X158082231Y-110979853D01*
X158090230Y-110985693D01*
X158124248Y-111022153D01*
X158136392Y-111040404D01*
X158160453Y-111085627D01*
X158172784Y-111115142D01*
X158191138Y-111160437D01*
X158211853Y-111207019D01*
X158214794Y-111213328D01*
X158239312Y-111259155D01*
X158268446Y-111302300D01*
X158272679Y-111307850D01*
X158308614Y-111345416D01*
X158348739Y-111373894D01*
X158358164Y-111379169D01*
X158407438Y-111397868D01*
X158456668Y-111405562D01*
X158483705Y-111406524D01*
X158537262Y-111402636D01*
X158586192Y-111390972D01*
X158634670Y-111369162D01*
X158638799Y-111366712D01*
X158680876Y-111335307D01*
X158716429Y-111296166D01*
X158743091Y-111253872D01*
X158763871Y-111206187D01*
X158777972Y-111154114D01*
X158784953Y-111103496D01*
X158786078Y-111085833D01*
X158784663Y-111033580D01*
X158779584Y-110979358D01*
X158770810Y-110930998D01*
X158756524Y-110883600D01*
X158737109Y-110836631D01*
X158715499Y-110792810D01*
X158689194Y-110748244D01*
X158686671Y-110744381D01*
X158531088Y-110821318D01*
G37*
G36*
X158531088Y-109551255D02*
G01*
X158553688Y-109595677D01*
X158573128Y-109640648D01*
X158584333Y-109670934D01*
X158597933Y-109719098D01*
X158604825Y-109768172D01*
X158605338Y-109784996D01*
X158600944Y-109833783D01*
X158583473Y-109881211D01*
X158578715Y-109888555D01*
X158540419Y-109919166D01*
X158499092Y-109926412D01*
X158450690Y-109911650D01*
X158433879Y-109897836D01*
X158402098Y-109857756D01*
X158382833Y-109823586D01*
X158361461Y-109777119D01*
X158342288Y-109729064D01*
X158322590Y-109681590D01*
X158302233Y-109640160D01*
X158276404Y-109598272D01*
X158244836Y-109561025D01*
X158206367Y-109529579D01*
X158162540Y-109506420D01*
X158159351Y-109505093D01*
X158110290Y-109490734D01*
X158061243Y-109484827D01*
X158034298Y-109484088D01*
X157981696Y-109488879D01*
X157931690Y-109503252D01*
X157888485Y-109524633D01*
X157849034Y-109553670D01*
X157814640Y-109590101D01*
X157785302Y-109633927D01*
X157780041Y-109643579D01*
X157760088Y-109690559D01*
X157746665Y-109743296D01*
X157740215Y-109795007D01*
X157738764Y-109836775D01*
X157741055Y-109888700D01*
X157747284Y-109937670D01*
X157750732Y-109956698D01*
X157762512Y-110005789D01*
X157778403Y-110054235D01*
X157787124Y-110076377D01*
X157809186Y-110123360D01*
X157835682Y-110169052D01*
X157849406Y-110189706D01*
X158007676Y-110100069D01*
X157979735Y-110057118D01*
X157960781Y-110020934D01*
X157941792Y-109975382D01*
X157929274Y-109934961D01*
X157919893Y-109885831D01*
X157918039Y-109855093D01*
X157923003Y-109804708D01*
X157928541Y-109781576D01*
X157949908Y-109736532D01*
X157964200Y-109720027D01*
X158008142Y-109697767D01*
X158034298Y-109695358D01*
X158082231Y-109709790D01*
X158090230Y-109715631D01*
X158124248Y-109752090D01*
X158136392Y-109770341D01*
X158160453Y-109815564D01*
X158172784Y-109845079D01*
X158191138Y-109890374D01*
X158211853Y-109936957D01*
X158214794Y-109943265D01*
X158239312Y-109989093D01*
X158268446Y-110032237D01*
X158272679Y-110037787D01*
X158308614Y-110075354D01*
X158348739Y-110103831D01*
X158358164Y-110109106D01*
X158407438Y-110127806D01*
X158456668Y-110135499D01*
X158483705Y-110136461D01*
X158537262Y-110132573D01*
X158586192Y-110120910D01*
X158634670Y-110099099D01*
X158638799Y-110096649D01*
X158680876Y-110065244D01*
X158716429Y-110026103D01*
X158743091Y-109983809D01*
X158763871Y-109936125D01*
X158777972Y-109884051D01*
X158784953Y-109833433D01*
X158786078Y-109815770D01*
X158784663Y-109763517D01*
X158779584Y-109709296D01*
X158770810Y-109660935D01*
X158756524Y-109613537D01*
X158737109Y-109566568D01*
X158715499Y-109522747D01*
X158689194Y-109478181D01*
X158686671Y-109474319D01*
X158531088Y-109551255D01*
G37*
G36*
X158361828Y-109317759D02*
G01*
X158361828Y-109121876D01*
X157750000Y-109121876D01*
X157750000Y-109317759D01*
X158361828Y-109317759D01*
G37*
G36*
X158575540Y-109322155D02*
G01*
X158623778Y-109308798D01*
X158646859Y-109287961D01*
X158670997Y-109243005D01*
X158674947Y-109214200D01*
X158662851Y-109165539D01*
X158646859Y-109142148D01*
X158605949Y-109113812D01*
X158575540Y-109109176D01*
X158527493Y-109122056D01*
X158504710Y-109142148D01*
X158481411Y-109185750D01*
X158477599Y-109214200D01*
X158489275Y-109263708D01*
X158504710Y-109287961D01*
X158545201Y-109317347D01*
X158575540Y-109322155D01*
G37*
G36*
X158361828Y-108742323D02*
G01*
X158254117Y-108726936D01*
X158262421Y-108729866D01*
X158304736Y-108700031D01*
X158339357Y-108665112D01*
X158358164Y-108639008D01*
X158379150Y-108594815D01*
X158390450Y-108544303D01*
X158392602Y-108507117D01*
X158388604Y-108457036D01*
X158378436Y-108418457D01*
X158355787Y-108374894D01*
X158337159Y-108353244D01*
X158294529Y-108325560D01*
X158266573Y-108316852D01*
X158265108Y-108323691D01*
X158304996Y-108292115D01*
X158338564Y-108256005D01*
X158357431Y-108229413D01*
X158380203Y-108183599D01*
X158391744Y-108132549D01*
X158392602Y-108113886D01*
X158387617Y-108060596D01*
X158370618Y-108010407D01*
X158341556Y-107969050D01*
X158302882Y-107938145D01*
X158257051Y-107919651D01*
X158209176Y-107913607D01*
X157750000Y-107913607D01*
X157750000Y-108108268D01*
X158128087Y-108108268D01*
X158176909Y-108114681D01*
X158194521Y-108120725D01*
X158222064Y-108162826D01*
X158223098Y-108172504D01*
X158212665Y-108221448D01*
X158190125Y-108253104D01*
X158150181Y-108283382D01*
X158106350Y-108302197D01*
X158057688Y-108313768D01*
X158007417Y-108318254D01*
X158000593Y-108318317D01*
X157750000Y-108318317D01*
X157750000Y-108514200D01*
X158128087Y-108514200D01*
X158176909Y-108521872D01*
X158194521Y-108529099D01*
X158221692Y-108570830D01*
X158223098Y-108582832D01*
X158211474Y-108632483D01*
X158190125Y-108660501D01*
X158150319Y-108689635D01*
X158106838Y-108708129D01*
X158059025Y-108719699D01*
X158009924Y-108724186D01*
X158003279Y-108724249D01*
X157750000Y-108724249D01*
X157750000Y-108920132D01*
X158361828Y-108920132D01*
X158361828Y-108742323D01*
G37*
G36*
X158531088Y-106676028D02*
G01*
X158553688Y-106720450D01*
X158573128Y-106765421D01*
X158584333Y-106795707D01*
X158597933Y-106843871D01*
X158604825Y-106892945D01*
X158605338Y-106909769D01*
X158600944Y-106958556D01*
X158583473Y-107005985D01*
X158578715Y-107013328D01*
X158540419Y-107043939D01*
X158499092Y-107051185D01*
X158450690Y-107036423D01*
X158433879Y-107022609D01*
X158402098Y-106982529D01*
X158382833Y-106948359D01*
X158361461Y-106901892D01*
X158342288Y-106853837D01*
X158322590Y-106806363D01*
X158302233Y-106764933D01*
X158276404Y-106723045D01*
X158244836Y-106685798D01*
X158206367Y-106654352D01*
X158162540Y-106631193D01*
X158159351Y-106629866D01*
X158110290Y-106615508D01*
X158061243Y-106609600D01*
X158034298Y-106608862D01*
X157981696Y-106613652D01*
X157931690Y-106628025D01*
X157888485Y-106649406D01*
X157849034Y-106678443D01*
X157814640Y-106714874D01*
X157785302Y-106758700D01*
X157780041Y-106768352D01*
X157760088Y-106815332D01*
X157746665Y-106868069D01*
X157740215Y-106919780D01*
X157738764Y-106961548D01*
X157741055Y-107013474D01*
X157747284Y-107062444D01*
X157750732Y-107081471D01*
X157762512Y-107130562D01*
X157778403Y-107179008D01*
X157787124Y-107201150D01*
X157809186Y-107248133D01*
X157835682Y-107293825D01*
X157849406Y-107314479D01*
X158007676Y-107224842D01*
X157979735Y-107181892D01*
X157960781Y-107145707D01*
X157941792Y-107100156D01*
X157929274Y-107059734D01*
X157919893Y-107010604D01*
X157918039Y-106979866D01*
X157923003Y-106929481D01*
X157928541Y-106906349D01*
X157949908Y-106861306D01*
X157964200Y-106844800D01*
X158008142Y-106822541D01*
X158034298Y-106820132D01*
X158082231Y-106834564D01*
X158090230Y-106840404D01*
X158124248Y-106876863D01*
X158136392Y-106895114D01*
X158160453Y-106940337D01*
X158172784Y-106969852D01*
X158191138Y-107015147D01*
X158211853Y-107061730D01*
X158214794Y-107068038D01*
X158239312Y-107113866D01*
X158268446Y-107157010D01*
X158272679Y-107162560D01*
X158308614Y-107200127D01*
X158348739Y-107228604D01*
X158358164Y-107233879D01*
X158407438Y-107252579D01*
X158456668Y-107260272D01*
X158483705Y-107261234D01*
X158537262Y-107257346D01*
X158586192Y-107245683D01*
X158634670Y-107223872D01*
X158638799Y-107221423D01*
X158680876Y-107190017D01*
X158716429Y-107150877D01*
X158743091Y-107108582D01*
X158763871Y-107060898D01*
X158777972Y-107008824D01*
X158784953Y-106958206D01*
X158786078Y-106940543D01*
X158784663Y-106888291D01*
X158779584Y-106834069D01*
X158770810Y-106785709D01*
X158756524Y-106738310D01*
X158737109Y-106691341D01*
X158715499Y-106647521D01*
X158689194Y-106602954D01*
X158686671Y-106599092D01*
X158531088Y-106676028D01*
G37*
G36*
X158630495Y-106385135D02*
G01*
X158630495Y-106189252D01*
X158364515Y-106189252D01*
X158364515Y-106040753D01*
X158212107Y-106040753D01*
X158212107Y-106189252D01*
X157750000Y-106189252D01*
X157750000Y-106385135D01*
X158212107Y-106385135D01*
X158212107Y-106480390D01*
X158364515Y-106480390D01*
X158364515Y-106385135D01*
X158630495Y-106385135D01*
G37*
G36*
X158361828Y-105891520D02*
G01*
X158361828Y-105695638D01*
X157750000Y-105695638D01*
X157750000Y-105891520D01*
X158361828Y-105891520D01*
G37*
G36*
X158575540Y-105895917D02*
G01*
X158623778Y-105882560D01*
X158646859Y-105861723D01*
X158670997Y-105816767D01*
X158674947Y-105787961D01*
X158662851Y-105739300D01*
X158646859Y-105715910D01*
X158605949Y-105687574D01*
X158575540Y-105682937D01*
X158527493Y-105695817D01*
X158504710Y-105715910D01*
X158481411Y-105759511D01*
X158477599Y-105787961D01*
X158489275Y-105837469D01*
X158504710Y-105861723D01*
X158545201Y-105891108D01*
X158575540Y-105895917D01*
G37*
G36*
X157804710Y-104974633D02*
G01*
X157777222Y-105017151D01*
X157756505Y-105064969D01*
X157752686Y-105076238D01*
X157740035Y-105125288D01*
X157733624Y-105177301D01*
X157733147Y-105195672D01*
X157735543Y-105246490D01*
X157743969Y-105299609D01*
X157758461Y-105348440D01*
X157771493Y-105378610D01*
X157798880Y-105423743D01*
X157832802Y-105462054D01*
X157873259Y-105493543D01*
X157882135Y-105499022D01*
X157930230Y-105521433D01*
X157978491Y-105534506D01*
X158031466Y-105540856D01*
X158056524Y-105541520D01*
X158105800Y-105538635D01*
X158156711Y-105528492D01*
X158202830Y-105511046D01*
X158230914Y-105495358D01*
X158272607Y-105463717D01*
X158307621Y-105426493D01*
X158335957Y-105383689D01*
X158340823Y-105374458D01*
X158360787Y-105326831D01*
X158373357Y-105277677D01*
X158378533Y-105226997D01*
X158378681Y-105216677D01*
X158376486Y-105167204D01*
X158369003Y-105117687D01*
X158356210Y-105073307D01*
X158335655Y-105026638D01*
X158308380Y-104982960D01*
X158297348Y-104969015D01*
X158171318Y-105064270D01*
X158197806Y-105107849D01*
X158202826Y-105118247D01*
X158216679Y-105165665D01*
X158218946Y-105198603D01*
X158209900Y-105248873D01*
X158197941Y-105272853D01*
X158163745Y-105310881D01*
X158140544Y-105326098D01*
X158093367Y-105342413D01*
X158056524Y-105345638D01*
X158005858Y-105338233D01*
X157973970Y-105324633D01*
X157934697Y-105294006D01*
X157914375Y-105266503D01*
X157896996Y-105220564D01*
X157892882Y-105179064D01*
X157898847Y-105129899D01*
X157901919Y-105119469D01*
X157925732Y-105075047D01*
X157927808Y-105072574D01*
X157804710Y-104974633D01*
G37*
G36*
X157750000Y-104823691D02*
G01*
X158854710Y-104823691D01*
X158854710Y-104627808D01*
X157750000Y-104627808D01*
X157750000Y-104823691D01*
G37*
G36*
X158165701Y-104472469D02*
G01*
X157750000Y-104195254D01*
X157750000Y-104423377D01*
X158053838Y-104601185D01*
X158165701Y-104472469D01*
G37*
G36*
X157919504Y-104686670D02*
G01*
X158105617Y-104706210D01*
X158377215Y-104336670D01*
X158272191Y-104217480D01*
X157919504Y-104686670D01*
G37*
G36*
X157100460Y-110813991D02*
G01*
X156358450Y-110513084D01*
X156382142Y-110630564D01*
X157100460Y-110357745D01*
X157100460Y-110116922D01*
X156022372Y-110587333D01*
X157100460Y-111057745D01*
X157100460Y-110813991D01*
G37*
G36*
X156590118Y-108789713D02*
G01*
X156644909Y-108795003D01*
X156695761Y-108804139D01*
X156748262Y-108819015D01*
X156764661Y-108824989D01*
X156810613Y-108845359D01*
X156855960Y-108872297D01*
X156895296Y-108903767D01*
X156928670Y-108939020D01*
X156958548Y-108981656D01*
X156981270Y-109028331D01*
X156997261Y-109077956D01*
X157006615Y-109129774D01*
X157009357Y-109178785D01*
X157009335Y-109184024D01*
X157006616Y-109235076D01*
X156999365Y-109283696D01*
X156986154Y-109334368D01*
X156968704Y-109377105D01*
X156942347Y-109419874D01*
X156908485Y-109458199D01*
X156897957Y-109467841D01*
X156858306Y-109497035D01*
X156811642Y-109521698D01*
X156763649Y-109540020D01*
X156752181Y-109543569D01*
X156702875Y-109555476D01*
X156648073Y-109563719D01*
X156595613Y-109567927D01*
X156538946Y-109569329D01*
X156487773Y-109567857D01*
X156432983Y-109562567D01*
X156382131Y-109553431D01*
X156329630Y-109538555D01*
X156313231Y-109532583D01*
X156267279Y-109512245D01*
X156221932Y-109485388D01*
X156182595Y-109454047D01*
X156149327Y-109418689D01*
X156119453Y-109376048D01*
X156096622Y-109329483D01*
X156080631Y-109279719D01*
X156071277Y-109227819D01*
X156068616Y-109180250D01*
X156263196Y-109180250D01*
X156263776Y-109196950D01*
X156273673Y-109244900D01*
X156300321Y-109288206D01*
X156310006Y-109297605D01*
X156353533Y-109326260D01*
X156400460Y-109342672D01*
X156437007Y-109350110D01*
X156489162Y-109356241D01*
X156540411Y-109358059D01*
X156577918Y-109357097D01*
X156630571Y-109352048D01*
X156678897Y-109342672D01*
X156690260Y-109339578D01*
X156737384Y-109319636D01*
X156777083Y-109288206D01*
X156785612Y-109277917D01*
X156807469Y-109231177D01*
X156813475Y-109180250D01*
X156812914Y-109163211D01*
X156803342Y-109114526D01*
X156777571Y-109071074D01*
X156770668Y-109063905D01*
X156729649Y-109034177D01*
X156681584Y-109015631D01*
X156646453Y-109007838D01*
X156595466Y-109001415D01*
X156544563Y-108999511D01*
X156501563Y-109000786D01*
X156451999Y-109005807D01*
X156401681Y-109015631D01*
X156386046Y-109020023D01*
X156341082Y-109039307D01*
X156300321Y-109071074D01*
X156291619Y-109081328D01*
X156269323Y-109128415D01*
X156263196Y-109180250D01*
X156068616Y-109180250D01*
X156068534Y-109178785D01*
X156071134Y-109129846D01*
X156079999Y-109078272D01*
X156095157Y-109029064D01*
X156114729Y-108986779D01*
X156143036Y-108943793D01*
X156178443Y-108904500D01*
X156189358Y-108894452D01*
X156229925Y-108863998D01*
X156276932Y-108838219D01*
X156324745Y-108819015D01*
X156336086Y-108815289D01*
X156384179Y-108802786D01*
X156436638Y-108794131D01*
X156486120Y-108789713D01*
X156538946Y-108788241D01*
X156590118Y-108789713D01*
G37*
G36*
X156170872Y-108718143D02*
G01*
X156219472Y-108705835D01*
X156243412Y-108686635D01*
X156268809Y-108644771D01*
X156272965Y-108617271D01*
X156257698Y-108568830D01*
X156243412Y-108550836D01*
X156201337Y-108523760D01*
X156170872Y-108519329D01*
X156122685Y-108530437D01*
X156097355Y-108550836D01*
X156073232Y-108593662D01*
X156070000Y-108617271D01*
X156082929Y-108666323D01*
X156097355Y-108686635D01*
X156138895Y-108713712D01*
X156170872Y-108718143D01*
G37*
G36*
X156590118Y-107670104D02*
G01*
X156644909Y-107675393D01*
X156695761Y-107684530D01*
X156748262Y-107699406D01*
X156764661Y-107705380D01*
X156810613Y-107725750D01*
X156855960Y-107752688D01*
X156895296Y-107784158D01*
X156928670Y-107819411D01*
X156958548Y-107862046D01*
X156981270Y-107908722D01*
X156997261Y-107958347D01*
X157006615Y-108010165D01*
X157009357Y-108059176D01*
X157009335Y-108064415D01*
X157006616Y-108115467D01*
X156999365Y-108164087D01*
X156986154Y-108214758D01*
X156968704Y-108257496D01*
X156942347Y-108300265D01*
X156908485Y-108338589D01*
X156897957Y-108348232D01*
X156858306Y-108377426D01*
X156811642Y-108402089D01*
X156763649Y-108420411D01*
X156752181Y-108423960D01*
X156702875Y-108435867D01*
X156648073Y-108444110D01*
X156595613Y-108448317D01*
X156538946Y-108449720D01*
X156487773Y-108448247D01*
X156432983Y-108442958D01*
X156382131Y-108433822D01*
X156329630Y-108418945D01*
X156313231Y-108412973D01*
X156267279Y-108392636D01*
X156221932Y-108365779D01*
X156182595Y-108334437D01*
X156149327Y-108299079D01*
X156119453Y-108256439D01*
X156096622Y-108209873D01*
X156080631Y-108160110D01*
X156071277Y-108108210D01*
X156068616Y-108060641D01*
X156263196Y-108060641D01*
X156263776Y-108077341D01*
X156273673Y-108125291D01*
X156300321Y-108168596D01*
X156310006Y-108177996D01*
X156353533Y-108206650D01*
X156400460Y-108223063D01*
X156437007Y-108230501D01*
X156489162Y-108236632D01*
X156540411Y-108238450D01*
X156577918Y-108237488D01*
X156630571Y-108232439D01*
X156678897Y-108223063D01*
X156690260Y-108219969D01*
X156737384Y-108200027D01*
X156777083Y-108168596D01*
X156785612Y-108158308D01*
X156807469Y-108111568D01*
X156813475Y-108060641D01*
X156812914Y-108043601D01*
X156803342Y-107994917D01*
X156777571Y-107951465D01*
X156770668Y-107944295D01*
X156729649Y-107914568D01*
X156681584Y-107896021D01*
X156646453Y-107888229D01*
X156595466Y-107881806D01*
X156544563Y-107879901D01*
X156501563Y-107881176D01*
X156451999Y-107886198D01*
X156401681Y-107896021D01*
X156386046Y-107900414D01*
X156341082Y-107919697D01*
X156300321Y-107951465D01*
X156291619Y-107961719D01*
X156269323Y-108008806D01*
X156263196Y-108060641D01*
X156068616Y-108060641D01*
X156068534Y-108059176D01*
X156071134Y-108010236D01*
X156079999Y-107958662D01*
X156095157Y-107909455D01*
X156114729Y-107867170D01*
X156143036Y-107824183D01*
X156178443Y-107784891D01*
X156189358Y-107774843D01*
X156229925Y-107744389D01*
X156276932Y-107718610D01*
X156324745Y-107699406D01*
X156336086Y-107695679D01*
X156384179Y-107683177D01*
X156436638Y-107674522D01*
X156486120Y-107670104D01*
X156538946Y-107668631D01*
X156590118Y-107670104D01*
G37*
G36*
X156170872Y-107598534D02*
G01*
X156219472Y-107586226D01*
X156243412Y-107567026D01*
X156268809Y-107525162D01*
X156272965Y-107497661D01*
X156257698Y-107449221D01*
X156243412Y-107431227D01*
X156201337Y-107404151D01*
X156170872Y-107399720D01*
X156122685Y-107410828D01*
X156097355Y-107431227D01*
X156073232Y-107474053D01*
X156070000Y-107497661D01*
X156082929Y-107546714D01*
X156097355Y-107567026D01*
X156138895Y-107594103D01*
X156170872Y-107598534D01*
G37*
G36*
X156998122Y-107309106D02*
G01*
X156998122Y-107030669D01*
X156070000Y-107030669D01*
X156070000Y-107235100D01*
X156802240Y-107235100D01*
X156802240Y-107309106D01*
X156998122Y-107309106D01*
G37*
D14*
%TO.C,J2*%
X139500000Y-106900000D03*
D15*
X139500000Y-109440000D03*
X139500000Y-111980000D03*
X139500000Y-114520000D03*
%TD*%
D16*
%TO.C,J3*%
X169000000Y-105325000D03*
D17*
X168500000Y-107775000D03*
X168500000Y-109825000D03*
D16*
X169000000Y-112275000D03*
%TD*%
D18*
%TO.C,J7*%
X130800000Y-103400000D03*
%TD*%
%TO.C,J4*%
X124200000Y-105400000D03*
%TD*%
%TO.C,J8*%
X132800000Y-103400000D03*
%TD*%
%TO.C,J11*%
X124200000Y-103400000D03*
%TD*%
%TO.C,J14*%
X124200000Y-114600000D03*
%TD*%
%TO.C,J12*%
X124200000Y-107400000D03*
%TD*%
%TO.C,J6*%
X124200000Y-109400000D03*
%TD*%
%TO.C,J10*%
X152900000Y-103400000D03*
%TD*%
%TO.C,J9*%
X150900000Y-103400000D03*
%TD*%
%TO.C,J13*%
X124200000Y-112600000D03*
%TD*%
%LPD*%
M02*
