M48
; DRILL file {KiCad 8.0.4} date 2024-09-10T22:43:07+0200
; FORMAT={-:-/ absolute / inch / decimal}
; #@! TF.CreationDate,2024-09-10T22:43:07+02:00
; #@! TF.GenerationSoftware,Kicad,Pcbnew,8.0.4
; #@! TF.FileFunction,Plated,1,4,PTH
FMAT,2
INCH
; #@! TA.AperFunction,Plated,PTH,ViaDrill
T1C0.0118
; #@! TA.AperFunction,Plated,PTH,ComponentDrill
T2C0.0197
; #@! TA.AperFunction,Plated,PTH,ComponentDrill
T3C0.0394
%
G90
G05
T1
X4.5866Y-4.4301
X4.6063Y-4.253
X4.6063Y-4.3337
X4.8031Y-4.2677
X4.878Y-4.376
X4.878Y-4.3996
X4.8839Y-4.0787
X4.9114Y-4.0787
X4.939Y-4.0787
X4.9409Y-4.3858
X4.9409Y-4.4252
X4.9409Y-4.4646
X4.9409Y-4.4882
X4.9508Y-4.1319
X5.0039Y-4.2736
X5.0039Y-4.2972
X5.0039Y-4.3209
X5.0039Y-4.3445
X5.0079Y-4.3701
X5.0079Y-4.4094
X5.0079Y-4.4488
X5.0236Y-4.1693
X5.0236Y-4.5354
X5.0571Y-4.252
X5.0748Y-4.1693
X5.1063Y-4.3504
X5.1299Y-4.5354
X5.1319Y-4.435
X5.1457Y-4.1102
X5.1516Y-4.4547
X5.1988Y-4.251
X5.2106Y-4.3445
X5.2323Y-4.2244
X5.2421Y-4.0945
X5.2854Y-4.1063
X5.2854Y-4.2008
X5.2933Y-4.3996
X5.311Y-4.25
X5.3228Y-4.0906
X5.3228Y-4.1545
X5.3228Y-4.1781
X5.3228Y-4.3189
X5.3425Y-4.2638
X5.3465Y-4.3189
X5.3583Y-4.0679
X5.3602Y-4.5177
X5.3662Y-4.2638
X5.3701Y-4.3189
X5.3898Y-4.2638
X5.3917Y-4.1772
X5.3937Y-4.0906
X5.4094Y-4.128
X5.4094Y-4.5315
X5.4429Y-4.439
X5.5197Y-4.1378
X5.5709Y-4.1791
X5.5709Y-4.2165
X5.5709Y-4.372
X5.6417Y-4.1299
X5.6772Y-4.0827
X5.6821Y-4.2963
X5.7008Y-4.4055
X5.7136Y-4.1506
X5.7559Y-4.1457
X5.7598Y-4.4016
X5.7805Y-4.2766
X5.8112Y-4.4183
X5.8789Y-4.19
X5.8789Y-4.3671
X5.8789Y-4.3907
X5.8868Y-4.0955
X5.9065Y-4.2254
X5.9065Y-4.249
X5.9065Y-4.2884
X5.9065Y-4.3278
X5.9134Y-4.4134
X5.9301Y-4.3278
X5.9341Y-4.1939
X5.935Y-4.122
X5.9656Y-4.249
X5.9656Y-4.2726
X5.997Y-4.3789
X6.0758Y-4.3041
X6.0905Y-4.4458
X6.0915Y-4.127
X6.0915Y-4.4222
X6.1427Y-4.1978
X6.1496Y-4.3878
X6.1703Y-4.3711
T2
X6.6339Y-4.25
X6.6339Y-4.3307
X6.6535Y-4.1535
X6.6535Y-4.4272
T3
X5.4843Y-4.2087
X5.4843Y-4.3087
X5.4843Y-4.4087
X5.4843Y-4.5087
M30
