%TF.GenerationSoftware,KiCad,Pcbnew,8.0.4*%
%TF.CreationDate,2024-09-10T22:43:07+02:00*%
%TF.ProjectId,elrs-sim,656c7273-2d73-4696-9d2e-6b696361645f,rev?*%
%TF.SameCoordinates,Original*%
%TF.FileFunction,Copper,L4,Bot*%
%TF.FilePolarity,Positive*%
%FSLAX46Y46*%
G04 Gerber Fmt 4.6, Leading zero omitted, Abs format (unit mm)*
G04 Created by KiCad (PCBNEW 8.0.4) date 2024-09-10 22:43:07*
%MOMM*%
%LPD*%
G01*
G04 APERTURE LIST*
G04 Aperture macros list*
%AMRoundRect*
0 Rectangle with rounded corners*
0 $1 Rounding radius*
0 $2 $3 $4 $5 $6 $7 $8 $9 X,Y pos of 4 corners*
0 Add a 4 corners polygon primitive as box body*
4,1,4,$2,$3,$4,$5,$6,$7,$8,$9,$2,$3,0*
0 Add four circle primitives for the rounded corners*
1,1,$1+$1,$2,$3*
1,1,$1+$1,$4,$5*
1,1,$1+$1,$6,$7*
1,1,$1+$1,$8,$9*
0 Add four rect primitives between the rounded corners*
20,1,$1+$1,$2,$3,$4,$5,0*
20,1,$1+$1,$4,$5,$6,$7,0*
20,1,$1+$1,$6,$7,$8,$9,0*
20,1,$1+$1,$8,$9,$2,$3,0*%
G04 Aperture macros list end*
%TA.AperFunction,ComponentPad*%
%ADD10R,1.700000X1.700000*%
%TD*%
%TA.AperFunction,ComponentPad*%
%ADD11O,1.700000X1.700000*%
%TD*%
%TA.AperFunction,ComponentPad*%
%ADD12RoundRect,0.500000X-3.500000X0.500000X-3.500000X-0.500000X3.500000X-0.500000X3.500000X0.500000X0*%
%TD*%
%TA.AperFunction,ComponentPad*%
%ADD13RoundRect,0.500000X-3.000000X0.250000X-3.000000X-0.250000X3.000000X-0.250000X3.000000X0.250000X0*%
%TD*%
%TA.AperFunction,SMDPad,CuDef*%
%ADD14RoundRect,0.387500X-0.387500X0.387500X-0.387500X-0.387500X0.387500X-0.387500X0.387500X0.387500X0*%
%TD*%
%TA.AperFunction,ViaPad*%
%ADD15C,0.450000*%
%TD*%
%TA.AperFunction,Conductor*%
%ADD16C,0.200000*%
%TD*%
G04 APERTURE END LIST*
D10*
%TO.P,J2,1,Pin_1*%
%TO.N,GND*%
X139300000Y-106900000D03*
D11*
%TO.P,J2,2,Pin_2*%
%TO.N,USB_VBUS*%
X139300000Y-109440000D03*
%TO.P,J2,3,Pin_3*%
%TO.N,Net-(J2-Pin_3)*%
X139300000Y-111980000D03*
%TO.P,J2,4,Pin_4*%
%TO.N,Net-(J2-Pin_4)*%
X139300000Y-114520000D03*
%TD*%
D12*
%TO.P,J3,1,Pin_1*%
%TO.N,unconnected-(J3-Pin_1-Pad1)*%
X169000000Y-105500000D03*
D13*
%TO.P,J3,2,Pin_2*%
%TO.N,unconnected-(J3-Pin_2-Pad2)*%
X168500000Y-107950000D03*
%TO.P,J3,3,Pin_3*%
%TO.N,unconnected-(J3-Pin_3-Pad3)*%
X168500000Y-110000000D03*
D12*
%TO.P,J3,4,Pin_4*%
%TO.N,unconnected-(J3-Pin_4-Pad4)*%
X169000000Y-112450000D03*
%TD*%
D14*
%TO.P,J7,1,Pin_1*%
%TO.N,RP2040_RX*%
X129600000Y-103400000D03*
%TD*%
%TO.P,J4,1,Pin_1*%
%TO.N,USB_VBUS*%
X122900000Y-105400000D03*
%TD*%
%TO.P,J8,1,Pin_1*%
%TO.N,RP2040_TX*%
X131600000Y-103400000D03*
%TD*%
%TO.P,J11,1,Pin_1*%
%TO.N,GND*%
X122900000Y-103400000D03*
%TD*%
%TO.P,J14,1,Pin_1*%
%TO.N,USB_DN*%
X122900000Y-114600000D03*
%TD*%
%TO.P,J12,1,Pin_1*%
%TO.N,+3.3V*%
X122900000Y-107400000D03*
%TD*%
%TO.P,J6,1,Pin_1*%
%TO.N,+3.3V_SW*%
X122900000Y-109400000D03*
%TD*%
%TO.P,J10,1,Pin_1*%
%TO.N,RP2040_RX_NO*%
X152900000Y-103400000D03*
%TD*%
%TO.P,J9,1,Pin_1*%
%TO.N,RP2040_TX_NO*%
X150900000Y-103400000D03*
%TD*%
%TO.P,J13,1,Pin_1*%
%TO.N,USB_DP*%
X122900000Y-112600000D03*
%TD*%
D15*
%TO.N,GND*%
X146825000Y-108625000D03*
X129700000Y-110500000D03*
X150750000Y-104700000D03*
X134450000Y-111750000D03*
X154325000Y-109325000D03*
X147605000Y-112225000D03*
X134900000Y-107950000D03*
%TO.N,+3.3V*%
X127600000Y-115200000D03*
X134250000Y-104300000D03*
X132350000Y-110350000D03*
X130300000Y-115200000D03*
X128900000Y-105900000D03*
X140200000Y-105100000D03*
X136150000Y-114750000D03*
X130700000Y-104400000D03*
X127600000Y-105900000D03*
X123900000Y-111750000D03*
%TO.N,IRS*%
X156025000Y-106625000D03*
X152325000Y-111225000D03*
%TO.N,BUSY*%
X150725000Y-106525000D03*
X145125000Y-105425000D03*
%TO.N,NRST*%
X150025000Y-107925000D03*
X154725000Y-104825000D03*
%TO.N,ESP_SCK*%
X156200000Y-111450000D03*
X149325000Y-110925000D03*
%TO.N,ESP_MOSI*%
X154698938Y-112924436D03*
X150025000Y-108925000D03*
%TO.N,ESP_MISO*%
X154725000Y-112325000D03*
X150025000Y-109925000D03*
%TO.N,DIO_1*%
X149325000Y-106425000D03*
X151525000Y-108525000D03*
%TO.N,+3.3V_SW*%
X134250000Y-106700000D03*
X144800000Y-111900000D03*
X150200000Y-112100000D03*
X149525000Y-104025000D03*
X144325000Y-109125000D03*
X137000000Y-103900000D03*
X143300000Y-104900000D03*
X146300000Y-111800000D03*
X150625003Y-109925000D03*
X141500000Y-111050000D03*
%TO.N,NSS*%
X156725000Y-111025000D03*
X151525000Y-107925000D03*
%TO.N,ESP_LED*%
X144200000Y-103700000D03*
X149325000Y-111525000D03*
%TO.N,ESP_BOOT*%
X146200000Y-105300000D03*
X150025000Y-107325000D03*
%TO.N,USB_DN*%
X124750000Y-103600000D03*
X117000000Y-110075000D03*
%TO.N,USB_DP*%
X117000000Y-108025000D03*
X124050000Y-103600000D03*
%TO.N,USB_VBUS*%
X116500000Y-112525000D03*
X125500000Y-114000000D03*
%TO.N,RP2040_RX*%
X135200000Y-106125003D03*
X130850000Y-113150000D03*
%TO.N,RP2040_TX*%
X136100000Y-103325000D03*
X130350000Y-112650000D03*
%TO.N,Net-(U1-VREG_VOUT)*%
X127100000Y-110350003D03*
X127100000Y-108549997D03*
X123900000Y-111149997D03*
X132050000Y-107975000D03*
X122000000Y-108400000D03*
%TO.N,RP2040_LED*%
X128450000Y-108000000D03*
X133150000Y-104000000D03*
%TO.N,QSPI_SS*%
X125500000Y-113400000D03*
X136900247Y-108300000D03*
X132900000Y-107300000D03*
%TO.N,QSPI_SD2*%
X125500000Y-112400000D03*
X135700241Y-108300000D03*
%TO.N,QSPI_SD3*%
X127200000Y-111000000D03*
X136400003Y-109700000D03*
%TO.N,QSPI_SD1*%
X136300244Y-108300000D03*
X127200000Y-113000000D03*
%TO.N,QSPI_SD0*%
X135200000Y-109700000D03*
X127200000Y-112000000D03*
%TO.N,QSPI_SCLK*%
X135800000Y-109700000D03*
X125499381Y-111400341D03*
%TO.N,RP2040_RX_NO*%
X135200000Y-105525000D03*
X141500000Y-107100000D03*
%TO.N,RP2040_TX_NC*%
X137400000Y-115100000D03*
X137400000Y-104850000D03*
%TO.N,Net-(U1-USB_DP)*%
X125750000Y-104950000D03*
X127100000Y-109750000D03*
%TO.N,Net-(U1-USB_DM)*%
X125450000Y-103600000D03*
X127100000Y-109150000D03*
%TO.N,RP2040_TX_NO*%
X141500000Y-106150000D03*
X135200000Y-103900000D03*
%TO.N,RP2040_RX_NC*%
X136950000Y-106100000D03*
X138250000Y-112750000D03*
%TD*%
D16*
%TO.N,+3.3V*%
X122900000Y-107400000D02*
X126100000Y-107400000D01*
X126100000Y-107400000D02*
X127600000Y-105900000D01*
%TO.N,+3.3V_SW*%
X134250000Y-106700000D02*
X127500000Y-106700000D01*
X126250000Y-107950000D02*
X124350000Y-107950000D01*
X127500000Y-106700000D02*
X126250000Y-107950000D01*
X124350000Y-107950000D02*
X122900000Y-109400000D01*
%TO.N,USB_DN*%
X122900000Y-114600000D02*
X121525000Y-114600000D01*
X121525000Y-114600000D02*
X117000000Y-110075000D01*
%TO.N,USB_DP*%
X122900000Y-112600000D02*
X121575000Y-112600000D01*
X121575000Y-112600000D02*
X117000000Y-108025000D01*
%TO.N,USB_VBUS*%
X118200000Y-105400000D02*
X116500000Y-107100000D01*
X116500000Y-107100000D02*
X116500000Y-112525000D01*
X122900000Y-105400000D02*
X118200000Y-105400000D01*
%TO.N,RP2040_RX*%
X129600000Y-103400000D02*
X129600000Y-104600000D01*
X131125003Y-106125003D02*
X135200000Y-106125003D01*
X129600000Y-104600000D02*
X131125003Y-106125003D01*
%TO.N,RP2040_TX*%
X136025000Y-103400000D02*
X136100000Y-103325000D01*
X131600000Y-103400000D02*
X136025000Y-103400000D01*
%TO.N,RP2040_RX_NO*%
X147800000Y-107100000D02*
X149100000Y-105800000D01*
X150500000Y-105800000D02*
X152900000Y-103400000D01*
X149100000Y-105800000D02*
X150500000Y-105800000D01*
X141500000Y-107100000D02*
X147800000Y-107100000D01*
%TO.N,RP2040_TX_NO*%
X141500000Y-106150000D02*
X141950000Y-106600000D01*
X147700000Y-106600000D02*
X150900000Y-103400000D01*
X141950000Y-106600000D02*
X147700000Y-106600000D01*
%TD*%
%TA.AperFunction,Conductor*%
%TO.N,GND*%
G36*
X151471700Y-104308607D02*
G01*
X151497763Y-104335573D01*
X151497124Y-104373071D01*
X151486828Y-104388199D01*
X150389881Y-105485148D01*
X150355233Y-105499500D01*
X149343767Y-105499500D01*
X149309119Y-105485148D01*
X149294767Y-105450500D01*
X149309119Y-105415852D01*
X149571758Y-105153213D01*
X150390231Y-104334738D01*
X150424878Y-104320387D01*
X150430721Y-104320737D01*
X150470380Y-104325500D01*
X150470382Y-104325500D01*
X151329621Y-104325500D01*
X151416072Y-104315118D01*
X151416073Y-104315117D01*
X151416077Y-104315117D01*
X151434205Y-104307968D01*
X151471700Y-104308607D01*
G37*
%TD.AperFunction*%
%TA.AperFunction,Conductor*%
G36*
X159285648Y-102014352D02*
G01*
X159300000Y-102049000D01*
X159300000Y-115951000D01*
X159285648Y-115985648D01*
X159251000Y-116000000D01*
X151949000Y-116000000D01*
X151914352Y-115985648D01*
X151900000Y-115951000D01*
X151900000Y-112924436D01*
X154268134Y-112924436D01*
X154289219Y-113057562D01*
X154289219Y-113057563D01*
X154289220Y-113057564D01*
X154350405Y-113177649D01*
X154350410Y-113177656D01*
X154445717Y-113272963D01*
X154445724Y-113272968D01*
X154525780Y-113313758D01*
X154565812Y-113334155D01*
X154698938Y-113355240D01*
X154832064Y-113334155D01*
X154932214Y-113283126D01*
X154952151Y-113272968D01*
X154952153Y-113272966D01*
X154952158Y-113272964D01*
X155047466Y-113177656D01*
X155056606Y-113159719D01*
X155070155Y-113133126D01*
X155108657Y-113057562D01*
X155129742Y-112924436D01*
X155108657Y-112791310D01*
X155088260Y-112751278D01*
X155047470Y-112671222D01*
X155045202Y-112668101D01*
X155046482Y-112667170D01*
X155034295Y-112637749D01*
X155048647Y-112603101D01*
X155073528Y-112578220D01*
X155134719Y-112458126D01*
X155155804Y-112325000D01*
X155134719Y-112191874D01*
X155112633Y-112148527D01*
X155073532Y-112071786D01*
X155073527Y-112071779D01*
X154978220Y-111976472D01*
X154978213Y-111976467D01*
X154858128Y-111915282D01*
X154858127Y-111915281D01*
X154858126Y-111915281D01*
X154725000Y-111894196D01*
X154591874Y-111915281D01*
X154591872Y-111915281D01*
X154591871Y-111915282D01*
X154471786Y-111976467D01*
X154471779Y-111976472D01*
X154376472Y-112071779D01*
X154376467Y-112071786D01*
X154315282Y-112191871D01*
X154315281Y-112191872D01*
X154315281Y-112191874D01*
X154294196Y-112325000D01*
X154315281Y-112458126D01*
X154315281Y-112458127D01*
X154315282Y-112458128D01*
X154376467Y-112578213D01*
X154378736Y-112581335D01*
X154377455Y-112582265D01*
X154389643Y-112611687D01*
X154375291Y-112646335D01*
X154350410Y-112671215D01*
X154350405Y-112671222D01*
X154289220Y-112791307D01*
X154289219Y-112791308D01*
X154289219Y-112791310D01*
X154268134Y-112924436D01*
X151900000Y-112924436D01*
X151900000Y-112700000D01*
X144300000Y-112700000D01*
X144300000Y-115951000D01*
X144285648Y-115985648D01*
X144251000Y-116000000D01*
X122549416Y-116000000D01*
X122548816Y-115999996D01*
X122547405Y-115999978D01*
X122453275Y-115998825D01*
X122448476Y-115998531D01*
X122355633Y-115988237D01*
X122351473Y-115987593D01*
X122307742Y-115978894D01*
X122303078Y-115977726D01*
X122122854Y-115923055D01*
X122113980Y-115919379D01*
X121950029Y-115831746D01*
X121942042Y-115826410D01*
X121798326Y-115708466D01*
X121791533Y-115701673D01*
X121673589Y-115557957D01*
X121668253Y-115549970D01*
X121580618Y-115386015D01*
X121576944Y-115377145D01*
X121522269Y-115196907D01*
X121521108Y-115192271D01*
X121512403Y-115148508D01*
X121511764Y-115144384D01*
X121502573Y-115061484D01*
X121503922Y-115051779D01*
X121450858Y-115000000D01*
X112049416Y-115000000D01*
X112048816Y-114999996D01*
X112047405Y-114999978D01*
X111953275Y-114998825D01*
X111948476Y-114998531D01*
X111855633Y-114988237D01*
X111851473Y-114987593D01*
X111807742Y-114978894D01*
X111803078Y-114977726D01*
X111622854Y-114923055D01*
X111613980Y-114919379D01*
X111450029Y-114831746D01*
X111442042Y-114826410D01*
X111298326Y-114708466D01*
X111291533Y-114701673D01*
X111173589Y-114557957D01*
X111168253Y-114549970D01*
X111152234Y-114520000D01*
X111080618Y-114386015D01*
X111076944Y-114377145D01*
X111022269Y-114196907D01*
X111021108Y-114192271D01*
X111012403Y-114148508D01*
X111011764Y-114144384D01*
X111001467Y-114051509D01*
X111001174Y-114046734D01*
X111000004Y-113951184D01*
X111000000Y-113950584D01*
X111000000Y-112525000D01*
X116069196Y-112525000D01*
X116090281Y-112658126D01*
X116090281Y-112658127D01*
X116090282Y-112658128D01*
X116151467Y-112778213D01*
X116151472Y-112778220D01*
X116246779Y-112873527D01*
X116246786Y-112873532D01*
X116326842Y-112914322D01*
X116366874Y-112934719D01*
X116500000Y-112955804D01*
X116633126Y-112934719D01*
X116716420Y-112892278D01*
X116753213Y-112873532D01*
X116753215Y-112873530D01*
X116753220Y-112873528D01*
X116848528Y-112778220D01*
X116864548Y-112746780D01*
X116871968Y-112732217D01*
X116909719Y-112658126D01*
X116930804Y-112525000D01*
X116909719Y-112391874D01*
X116883431Y-112340281D01*
X116848532Y-112271786D01*
X116848527Y-112271779D01*
X116814852Y-112238104D01*
X116800500Y-112203456D01*
X116800500Y-110530595D01*
X116814852Y-110495947D01*
X116849500Y-110481595D01*
X116864642Y-110483993D01*
X116866868Y-110484716D01*
X116866874Y-110484719D01*
X116991207Y-110504411D01*
X117018188Y-110518159D01*
X121284540Y-114784511D01*
X121340489Y-114840460D01*
X121409011Y-114880021D01*
X121444478Y-114889524D01*
X121485436Y-114900500D01*
X121485438Y-114900500D01*
X121564562Y-114900500D01*
X121925500Y-114900500D01*
X121960148Y-114914852D01*
X121974500Y-114949500D01*
X121974500Y-115029621D01*
X121984881Y-115116072D01*
X122039139Y-115253660D01*
X122048807Y-115266409D01*
X122128500Y-115371500D01*
X122246342Y-115460862D01*
X122383923Y-115515117D01*
X122383926Y-115515117D01*
X122383928Y-115515118D01*
X122383927Y-115515118D01*
X122470379Y-115525500D01*
X122470382Y-115525500D01*
X123329621Y-115525500D01*
X123416072Y-115515118D01*
X123416073Y-115515117D01*
X123416077Y-115515117D01*
X123553658Y-115460862D01*
X123671500Y-115371500D01*
X123760862Y-115253658D01*
X123782022Y-115200000D01*
X127169196Y-115200000D01*
X127190281Y-115333126D01*
X127190281Y-115333127D01*
X127190282Y-115333128D01*
X127251467Y-115453213D01*
X127251472Y-115453220D01*
X127346779Y-115548527D01*
X127346786Y-115548532D01*
X127399878Y-115575583D01*
X127466874Y-115609719D01*
X127600000Y-115630804D01*
X127733126Y-115609719D01*
X127834715Y-115557957D01*
X127853213Y-115548532D01*
X127853215Y-115548530D01*
X127853220Y-115548528D01*
X127948528Y-115453220D01*
X127950920Y-115448527D01*
X127967278Y-115416420D01*
X128009719Y-115333126D01*
X128030804Y-115200000D01*
X129869196Y-115200000D01*
X129890281Y-115333126D01*
X129890281Y-115333127D01*
X129890282Y-115333128D01*
X129951467Y-115453213D01*
X129951472Y-115453220D01*
X130046779Y-115548527D01*
X130046786Y-115548532D01*
X130099878Y-115575583D01*
X130166874Y-115609719D01*
X130300000Y-115630804D01*
X130433126Y-115609719D01*
X130534715Y-115557957D01*
X130553213Y-115548532D01*
X130553215Y-115548530D01*
X130553220Y-115548528D01*
X130648528Y-115453220D01*
X130650920Y-115448527D01*
X130667278Y-115416420D01*
X130709719Y-115333126D01*
X130730804Y-115200000D01*
X130709719Y-115066874D01*
X130675634Y-114999978D01*
X130648532Y-114946786D01*
X130648527Y-114946779D01*
X130553220Y-114851472D01*
X130553213Y-114851467D01*
X130433128Y-114790282D01*
X130433127Y-114790281D01*
X130433126Y-114790281D01*
X130300000Y-114769196D01*
X130166874Y-114790281D01*
X130166872Y-114790281D01*
X130166871Y-114790282D01*
X130046786Y-114851467D01*
X130046779Y-114851472D01*
X129951472Y-114946779D01*
X129951467Y-114946786D01*
X129890282Y-115066871D01*
X129890281Y-115066872D01*
X129890281Y-115066874D01*
X129869196Y-115200000D01*
X128030804Y-115200000D01*
X128009719Y-115066874D01*
X127975634Y-114999978D01*
X127948532Y-114946786D01*
X127948527Y-114946779D01*
X127853220Y-114851472D01*
X127853213Y-114851467D01*
X127733128Y-114790282D01*
X127733127Y-114790281D01*
X127733126Y-114790281D01*
X127600000Y-114769196D01*
X127466874Y-114790281D01*
X127466872Y-114790281D01*
X127466871Y-114790282D01*
X127346786Y-114851467D01*
X127346779Y-114851472D01*
X127251472Y-114946779D01*
X127251467Y-114946786D01*
X127190282Y-115066871D01*
X127190281Y-115066872D01*
X127190281Y-115066874D01*
X127169196Y-115200000D01*
X123782022Y-115200000D01*
X123815117Y-115116077D01*
X123816274Y-115106450D01*
X123825500Y-115029621D01*
X123825500Y-114750000D01*
X135719196Y-114750000D01*
X135740281Y-114883126D01*
X135740281Y-114883127D01*
X135740282Y-114883128D01*
X135801467Y-115003213D01*
X135801472Y-115003220D01*
X135896779Y-115098527D01*
X135896786Y-115098532D01*
X135976842Y-115139322D01*
X136016874Y-115159719D01*
X136150000Y-115180804D01*
X136283126Y-115159719D01*
X136368788Y-115116072D01*
X136400332Y-115100000D01*
X136969196Y-115100000D01*
X136990281Y-115233126D01*
X136990281Y-115233127D01*
X136990282Y-115233128D01*
X137051467Y-115353213D01*
X137051472Y-115353220D01*
X137146779Y-115448527D01*
X137146786Y-115448532D01*
X137226842Y-115489322D01*
X137266874Y-115509719D01*
X137400000Y-115530804D01*
X137533126Y-115509719D01*
X137629017Y-115460860D01*
X137653213Y-115448532D01*
X137653215Y-115448530D01*
X137653220Y-115448528D01*
X137748528Y-115353220D01*
X137758766Y-115333128D01*
X137767278Y-115316420D01*
X137809719Y-115233126D01*
X137830804Y-115100000D01*
X137809719Y-114966874D01*
X137785519Y-114919379D01*
X137748532Y-114846786D01*
X137748527Y-114846779D01*
X137653220Y-114751472D01*
X137653213Y-114751467D01*
X137533128Y-114690282D01*
X137533127Y-114690281D01*
X137533126Y-114690281D01*
X137400000Y-114669196D01*
X137266874Y-114690281D01*
X137266872Y-114690281D01*
X137266871Y-114690282D01*
X137146786Y-114751467D01*
X137146779Y-114751472D01*
X137051472Y-114846779D01*
X137051467Y-114846786D01*
X136990282Y-114966871D01*
X136990281Y-114966872D01*
X136990281Y-114966874D01*
X136969196Y-115100000D01*
X136400332Y-115100000D01*
X136403213Y-115098532D01*
X136403215Y-115098530D01*
X136403220Y-115098528D01*
X136498528Y-115003220D01*
X136500768Y-114998825D01*
X136525900Y-114949500D01*
X136559719Y-114883126D01*
X136580804Y-114750000D01*
X136559719Y-114616874D01*
X136525630Y-114549970D01*
X136510359Y-114519999D01*
X138244417Y-114519999D01*
X138244417Y-114520000D01*
X138264700Y-114725934D01*
X138264700Y-114725935D01*
X138290855Y-114812158D01*
X138324768Y-114923954D01*
X138422315Y-115106450D01*
X138553590Y-115266410D01*
X138713550Y-115397685D01*
X138896046Y-115495232D01*
X139094066Y-115555300D01*
X139300000Y-115575583D01*
X139505934Y-115555300D01*
X139703954Y-115495232D01*
X139886450Y-115397685D01*
X140046410Y-115266410D01*
X140177685Y-115106450D01*
X140275232Y-114923954D01*
X140335300Y-114725934D01*
X140355583Y-114520000D01*
X140335300Y-114314066D01*
X140275232Y-114116046D01*
X140177685Y-113933550D01*
X140046410Y-113773590D01*
X139886450Y-113642315D01*
X139703954Y-113544768D01*
X139505934Y-113484700D01*
X139300000Y-113464417D01*
X139094065Y-113484700D01*
X139094064Y-113484700D01*
X138896043Y-113544769D01*
X138713548Y-113642316D01*
X138553590Y-113773590D01*
X138422316Y-113933548D01*
X138324769Y-114116043D01*
X138264700Y-114314064D01*
X138264700Y-114314065D01*
X138244417Y-114519999D01*
X136510359Y-114519999D01*
X136498532Y-114496786D01*
X136498527Y-114496779D01*
X136403220Y-114401472D01*
X136403213Y-114401467D01*
X136283128Y-114340282D01*
X136283127Y-114340281D01*
X136283126Y-114340281D01*
X136150000Y-114319196D01*
X136016874Y-114340281D01*
X136016872Y-114340281D01*
X136016871Y-114340282D01*
X135896786Y-114401467D01*
X135896779Y-114401472D01*
X135801472Y-114496779D01*
X135801467Y-114496786D01*
X135740282Y-114616871D01*
X135740281Y-114616872D01*
X135740281Y-114616874D01*
X135719196Y-114750000D01*
X123825500Y-114750000D01*
X123825500Y-114170378D01*
X123815118Y-114083927D01*
X123815117Y-114083925D01*
X123815117Y-114083923D01*
X123760862Y-113946342D01*
X123671500Y-113828500D01*
X123599090Y-113773590D01*
X123553660Y-113739139D01*
X123553658Y-113739138D01*
X123416077Y-113684883D01*
X123416075Y-113684882D01*
X123416071Y-113684881D01*
X123416072Y-113684881D01*
X123329621Y-113674500D01*
X123329618Y-113674500D01*
X122470382Y-113674500D01*
X122470379Y-113674500D01*
X122383927Y-113684881D01*
X122246339Y-113739139D01*
X122128500Y-113828500D01*
X122039139Y-113946339D01*
X121984881Y-114083927D01*
X121974500Y-114170378D01*
X121974500Y-114250500D01*
X121960148Y-114285148D01*
X121925500Y-114299500D01*
X121669767Y-114299500D01*
X121635119Y-114285148D01*
X117443159Y-110093188D01*
X117429411Y-110066207D01*
X117409719Y-109941874D01*
X117389322Y-109901842D01*
X117348532Y-109821786D01*
X117348527Y-109821779D01*
X117253220Y-109726472D01*
X117253213Y-109726467D01*
X117133128Y-109665282D01*
X117133127Y-109665281D01*
X117133126Y-109665281D01*
X117000000Y-109644196D01*
X116866874Y-109665281D01*
X116866873Y-109665281D01*
X116866869Y-109665282D01*
X116864635Y-109666008D01*
X116863068Y-109665884D01*
X116863065Y-109665885D01*
X116863064Y-109665884D01*
X116827248Y-109663060D01*
X116802896Y-109634539D01*
X116800500Y-109619404D01*
X116800500Y-108480595D01*
X116814852Y-108445947D01*
X116849500Y-108431595D01*
X116864642Y-108433993D01*
X116866868Y-108434716D01*
X116866874Y-108434719D01*
X116991207Y-108454411D01*
X117018188Y-108468159D01*
X121334540Y-112784511D01*
X121390489Y-112840460D01*
X121459011Y-112880021D01*
X121494478Y-112889524D01*
X121535436Y-112900500D01*
X121535438Y-112900500D01*
X121614562Y-112900500D01*
X121925500Y-112900500D01*
X121960148Y-112914852D01*
X121974500Y-112949500D01*
X121974500Y-113029621D01*
X121984881Y-113116072D01*
X122039139Y-113253660D01*
X122049160Y-113266874D01*
X122128500Y-113371500D01*
X122246342Y-113460862D01*
X122383923Y-113515117D01*
X122383926Y-113515117D01*
X122383928Y-113515118D01*
X122383927Y-113515118D01*
X122470379Y-113525500D01*
X122470382Y-113525500D01*
X123329621Y-113525500D01*
X123416072Y-113515118D01*
X123416073Y-113515117D01*
X123416077Y-113515117D01*
X123553658Y-113460862D01*
X123633917Y-113400000D01*
X125069196Y-113400000D01*
X125090281Y-113533126D01*
X125090281Y-113533127D01*
X125090282Y-113533128D01*
X125151467Y-113653213D01*
X125151472Y-113653220D01*
X125163604Y-113665352D01*
X125177956Y-113700000D01*
X125163604Y-113734648D01*
X125151472Y-113746779D01*
X125151467Y-113746786D01*
X125090282Y-113866871D01*
X125090281Y-113866872D01*
X125090281Y-113866874D01*
X125069196Y-114000000D01*
X125090281Y-114133126D01*
X125090281Y-114133127D01*
X125090282Y-114133128D01*
X125151467Y-114253213D01*
X125151472Y-114253220D01*
X125246779Y-114348527D01*
X125246786Y-114348532D01*
X125320352Y-114386015D01*
X125366874Y-114409719D01*
X125500000Y-114430804D01*
X125633126Y-114409719D01*
X125716420Y-114367278D01*
X125753213Y-114348532D01*
X125753215Y-114348530D01*
X125753220Y-114348528D01*
X125848528Y-114253220D01*
X125909719Y-114133126D01*
X125930804Y-114000000D01*
X125909719Y-113866874D01*
X125889322Y-113826842D01*
X125848532Y-113746786D01*
X125848527Y-113746779D01*
X125836396Y-113734648D01*
X125822044Y-113700000D01*
X125836396Y-113665352D01*
X125848528Y-113653220D01*
X125854085Y-113642315D01*
X125867278Y-113616420D01*
X125909719Y-113533126D01*
X125930804Y-113400000D01*
X125909719Y-113266874D01*
X125889322Y-113226842D01*
X125848532Y-113146786D01*
X125848527Y-113146779D01*
X125753220Y-113051472D01*
X125753213Y-113051467D01*
X125652201Y-113000000D01*
X126769196Y-113000000D01*
X126790281Y-113133126D01*
X126790281Y-113133127D01*
X126790282Y-113133128D01*
X126851467Y-113253213D01*
X126851472Y-113253220D01*
X126946779Y-113348527D01*
X126946786Y-113348532D01*
X127026842Y-113389322D01*
X127066874Y-113409719D01*
X127200000Y-113430804D01*
X127333126Y-113409719D01*
X127416420Y-113367278D01*
X127453213Y-113348532D01*
X127453215Y-113348530D01*
X127453220Y-113348528D01*
X127548528Y-113253220D01*
X127609719Y-113133126D01*
X127630804Y-113000000D01*
X127609719Y-112866874D01*
X127576395Y-112801472D01*
X127548532Y-112746786D01*
X127548526Y-112746778D01*
X127453220Y-112651472D01*
X127453213Y-112651467D01*
X127450334Y-112650000D01*
X129919196Y-112650000D01*
X129940281Y-112783126D01*
X129940281Y-112783127D01*
X129940282Y-112783128D01*
X130001467Y-112903213D01*
X130001472Y-112903220D01*
X130096779Y-112998527D01*
X130096786Y-112998532D01*
X130157803Y-113029621D01*
X130216874Y-113059719D01*
X130350000Y-113080804D01*
X130365605Y-113078332D01*
X130402071Y-113087087D01*
X130421667Y-113119063D01*
X130421667Y-113134392D01*
X130419706Y-113146779D01*
X130419196Y-113150000D01*
X130440281Y-113283126D01*
X130440281Y-113283127D01*
X130440282Y-113283128D01*
X130501467Y-113403213D01*
X130501472Y-113403220D01*
X130596779Y-113498527D01*
X130596786Y-113498532D01*
X130649715Y-113525500D01*
X130716874Y-113559719D01*
X130850000Y-113580804D01*
X130983126Y-113559719D01*
X131070662Y-113515117D01*
X131103213Y-113498532D01*
X131103215Y-113498530D01*
X131103220Y-113498528D01*
X131198528Y-113403220D01*
X131259719Y-113283126D01*
X131280804Y-113150000D01*
X131259719Y-113016874D01*
X131235426Y-112969196D01*
X131198532Y-112896786D01*
X131198527Y-112896779D01*
X131103220Y-112801472D01*
X131103213Y-112801467D01*
X131002201Y-112750000D01*
X137819196Y-112750000D01*
X137840281Y-112883126D01*
X137840281Y-112883127D01*
X137840282Y-112883128D01*
X137901467Y-113003213D01*
X137901472Y-113003220D01*
X137996779Y-113098527D01*
X137996786Y-113098532D01*
X138064682Y-113133126D01*
X138116874Y-113159719D01*
X138250000Y-113180804D01*
X138383126Y-113159719D01*
X138468788Y-113116072D01*
X138503213Y-113098532D01*
X138503215Y-113098530D01*
X138503220Y-113098528D01*
X138598528Y-113003220D01*
X138658744Y-112885039D01*
X138687260Y-112860684D01*
X138724647Y-112863626D01*
X138725419Y-112864029D01*
X138896046Y-112955232D01*
X139094066Y-113015300D01*
X139300000Y-113035583D01*
X139505934Y-113015300D01*
X139703954Y-112955232D01*
X139886450Y-112857685D01*
X140046410Y-112726410D01*
X140177685Y-112566450D01*
X140275232Y-112383954D01*
X140335300Y-112185934D01*
X140355583Y-111980000D01*
X140347704Y-111900000D01*
X144369196Y-111900000D01*
X144390281Y-112033126D01*
X144390281Y-112033127D01*
X144390282Y-112033128D01*
X144451467Y-112153213D01*
X144451472Y-112153220D01*
X144546779Y-112248527D01*
X144546786Y-112248532D01*
X144592426Y-112271786D01*
X144666874Y-112309719D01*
X144800000Y-112330804D01*
X144933126Y-112309719D01*
X145017220Y-112266871D01*
X145053213Y-112248532D01*
X145053215Y-112248530D01*
X145053220Y-112248528D01*
X145148528Y-112153220D01*
X145150920Y-112148527D01*
X145176395Y-112098527D01*
X145209719Y-112033126D01*
X145230804Y-111900000D01*
X145214966Y-111800000D01*
X145869196Y-111800000D01*
X145890281Y-111933126D01*
X145890281Y-111933127D01*
X145890282Y-111933128D01*
X145951467Y-112053213D01*
X145951472Y-112053220D01*
X146046779Y-112148527D01*
X146046786Y-112148532D01*
X146110123Y-112180803D01*
X146166874Y-112209719D01*
X146300000Y-112230804D01*
X146433126Y-112209719D01*
X146516420Y-112167278D01*
X146553213Y-112148532D01*
X146553215Y-112148530D01*
X146553220Y-112148528D01*
X146601748Y-112100000D01*
X149769196Y-112100000D01*
X149790281Y-112233126D01*
X149790281Y-112233127D01*
X149790282Y-112233128D01*
X149851467Y-112353213D01*
X149851472Y-112353220D01*
X149946779Y-112448527D01*
X149946786Y-112448532D01*
X150026842Y-112489322D01*
X150066874Y-112509719D01*
X150200000Y-112530804D01*
X150333126Y-112509719D01*
X150434383Y-112458126D01*
X150453213Y-112448532D01*
X150453215Y-112448530D01*
X150453220Y-112448528D01*
X150548528Y-112353220D01*
X150550920Y-112348527D01*
X150575900Y-112299500D01*
X150609719Y-112233126D01*
X150630804Y-112100000D01*
X150609719Y-111966874D01*
X150572688Y-111894196D01*
X150548532Y-111846786D01*
X150548527Y-111846779D01*
X150453220Y-111751472D01*
X150453213Y-111751467D01*
X150333128Y-111690282D01*
X150333127Y-111690281D01*
X150333126Y-111690281D01*
X150200000Y-111669196D01*
X150066874Y-111690281D01*
X150066872Y-111690281D01*
X150066871Y-111690282D01*
X149946786Y-111751467D01*
X149946779Y-111751472D01*
X149851472Y-111846779D01*
X149851467Y-111846786D01*
X149790282Y-111966871D01*
X149790281Y-111966872D01*
X149790281Y-111966874D01*
X149769196Y-112100000D01*
X146601748Y-112100000D01*
X146648528Y-112053220D01*
X146649422Y-112051467D01*
X146675645Y-112000000D01*
X146709719Y-111933126D01*
X146730804Y-111800000D01*
X146709719Y-111666874D01*
X146684241Y-111616870D01*
X146648532Y-111546786D01*
X146648527Y-111546779D01*
X146553220Y-111451472D01*
X146553213Y-111451467D01*
X146433128Y-111390282D01*
X146433127Y-111390281D01*
X146433126Y-111390281D01*
X146300000Y-111369196D01*
X146166874Y-111390281D01*
X146166872Y-111390281D01*
X146166871Y-111390282D01*
X146046786Y-111451467D01*
X146046779Y-111451472D01*
X145951472Y-111546779D01*
X145951467Y-111546786D01*
X145890282Y-111666871D01*
X145890281Y-111666872D01*
X145890281Y-111666874D01*
X145869196Y-111800000D01*
X145214966Y-111800000D01*
X145209719Y-111766874D01*
X145177282Y-111703213D01*
X145148532Y-111646786D01*
X145148527Y-111646779D01*
X145053220Y-111551472D01*
X145053213Y-111551467D01*
X144933128Y-111490282D01*
X144933127Y-111490281D01*
X144933126Y-111490281D01*
X144800000Y-111469196D01*
X144666874Y-111490281D01*
X144666872Y-111490281D01*
X144666871Y-111490282D01*
X144546786Y-111551467D01*
X144546779Y-111551472D01*
X144451472Y-111646779D01*
X144451467Y-111646786D01*
X144390282Y-111766871D01*
X144390281Y-111766872D01*
X144390281Y-111766874D01*
X144369196Y-111900000D01*
X140347704Y-111900000D01*
X140335300Y-111774066D01*
X140275232Y-111576046D01*
X140177685Y-111393550D01*
X140046410Y-111233590D01*
X139886450Y-111102315D01*
X139788576Y-111050000D01*
X141069196Y-111050000D01*
X141090281Y-111183126D01*
X141090281Y-111183127D01*
X141090282Y-111183128D01*
X141151467Y-111303213D01*
X141151472Y-111303220D01*
X141246779Y-111398527D01*
X141246786Y-111398532D01*
X141310123Y-111430803D01*
X141366874Y-111459719D01*
X141500000Y-111480804D01*
X141633126Y-111459719D01*
X141720211Y-111415347D01*
X141753213Y-111398532D01*
X141753215Y-111398530D01*
X141753220Y-111398528D01*
X141848528Y-111303220D01*
X141858768Y-111283124D01*
X141888383Y-111225000D01*
X141909719Y-111183126D01*
X141930804Y-111050000D01*
X141911006Y-110925000D01*
X148894196Y-110925000D01*
X148915281Y-111058126D01*
X148915281Y-111058127D01*
X148915282Y-111058128D01*
X148976467Y-111178213D01*
X148976472Y-111178220D01*
X148988604Y-111190352D01*
X149002956Y-111225000D01*
X148988604Y-111259648D01*
X148976472Y-111271779D01*
X148976467Y-111271786D01*
X148915282Y-111391871D01*
X148915281Y-111391872D01*
X148915281Y-111391874D01*
X148894196Y-111525000D01*
X148915281Y-111658126D01*
X148915281Y-111658127D01*
X148915282Y-111658128D01*
X148976467Y-111778213D01*
X148976472Y-111778220D01*
X149071779Y-111873527D01*
X149071786Y-111873532D01*
X149123734Y-111900000D01*
X149191874Y-111934719D01*
X149325000Y-111955804D01*
X149458126Y-111934719D01*
X149559383Y-111883126D01*
X149578213Y-111873532D01*
X149578215Y-111873530D01*
X149578220Y-111873528D01*
X149673528Y-111778220D01*
X149689548Y-111746780D01*
X149711746Y-111703213D01*
X149734719Y-111658126D01*
X149755804Y-111525000D01*
X149734719Y-111391874D01*
X149696503Y-111316871D01*
X149673532Y-111271786D01*
X149673527Y-111271779D01*
X149661396Y-111259648D01*
X149647044Y-111225000D01*
X151894196Y-111225000D01*
X151915281Y-111358126D01*
X151915281Y-111358127D01*
X151915282Y-111358128D01*
X151976467Y-111478213D01*
X151976472Y-111478220D01*
X152071779Y-111573527D01*
X152071786Y-111573532D01*
X152151842Y-111614322D01*
X152191874Y-111634719D01*
X152325000Y-111655804D01*
X152458126Y-111634719D01*
X152541420Y-111592278D01*
X152578213Y-111573532D01*
X152578215Y-111573530D01*
X152578220Y-111573528D01*
X152673528Y-111478220D01*
X152687907Y-111450000D01*
X155769196Y-111450000D01*
X155790281Y-111583126D01*
X155790281Y-111583127D01*
X155790282Y-111583128D01*
X155851467Y-111703213D01*
X155851472Y-111703220D01*
X155946779Y-111798527D01*
X155946786Y-111798532D01*
X156005603Y-111828500D01*
X156066874Y-111859719D01*
X156200000Y-111880804D01*
X156333126Y-111859719D01*
X156416420Y-111817278D01*
X156453213Y-111798532D01*
X156453215Y-111798530D01*
X156453220Y-111798528D01*
X156548528Y-111703220D01*
X156555121Y-111690282D01*
X156567278Y-111666420D01*
X156609719Y-111583126D01*
X156624547Y-111489501D01*
X156644141Y-111457527D01*
X156680605Y-111448772D01*
X156725000Y-111455804D01*
X156858126Y-111434719D01*
X156942220Y-111391871D01*
X156978213Y-111373532D01*
X156978215Y-111373530D01*
X156978220Y-111373528D01*
X157073528Y-111278220D01*
X157076807Y-111271786D01*
X157100645Y-111225000D01*
X157134719Y-111158126D01*
X157155804Y-111025000D01*
X157134719Y-110891874D01*
X157114322Y-110851842D01*
X157073532Y-110771786D01*
X157073527Y-110771779D01*
X156978220Y-110676472D01*
X156978213Y-110676467D01*
X156858128Y-110615282D01*
X156858127Y-110615281D01*
X156858126Y-110615281D01*
X156725000Y-110594196D01*
X156591874Y-110615281D01*
X156591872Y-110615281D01*
X156591871Y-110615282D01*
X156471786Y-110676467D01*
X156471779Y-110676472D01*
X156376472Y-110771779D01*
X156376467Y-110771786D01*
X156315282Y-110891870D01*
X156315281Y-110891872D01*
X156315281Y-110891874D01*
X156302625Y-110971779D01*
X156300453Y-110985495D01*
X156280857Y-111017471D01*
X156244392Y-111026226D01*
X156200000Y-111019196D01*
X156066874Y-111040281D01*
X156066872Y-111040281D01*
X156066871Y-111040282D01*
X155946786Y-111101467D01*
X155946779Y-111101472D01*
X155851472Y-111196779D01*
X155851467Y-111196786D01*
X155790282Y-111316871D01*
X155790281Y-111316872D01*
X155790281Y-111316874D01*
X155769196Y-111450000D01*
X152687907Y-111450000D01*
X152734719Y-111358126D01*
X152755804Y-111225000D01*
X152734719Y-111091874D01*
X152690337Y-111004769D01*
X152673532Y-110971786D01*
X152673527Y-110971779D01*
X152578220Y-110876472D01*
X152578213Y-110876467D01*
X152458128Y-110815282D01*
X152458127Y-110815281D01*
X152458126Y-110815281D01*
X152325000Y-110794196D01*
X152191874Y-110815281D01*
X152191872Y-110815281D01*
X152191871Y-110815282D01*
X152071786Y-110876467D01*
X152071779Y-110876472D01*
X151976472Y-110971779D01*
X151976467Y-110971786D01*
X151915282Y-111091871D01*
X151915281Y-111091872D01*
X151915281Y-111091874D01*
X151894196Y-111225000D01*
X149647044Y-111225000D01*
X149661396Y-111190352D01*
X149673528Y-111178220D01*
X149683766Y-111158128D01*
X149692278Y-111141420D01*
X149734719Y-111058126D01*
X149755804Y-110925000D01*
X149734719Y-110791874D01*
X149713202Y-110749644D01*
X149673532Y-110671786D01*
X149673527Y-110671779D01*
X149578220Y-110576472D01*
X149578213Y-110576467D01*
X149458128Y-110515282D01*
X149458127Y-110515281D01*
X149458126Y-110515281D01*
X149325000Y-110494196D01*
X149191874Y-110515281D01*
X149191872Y-110515281D01*
X149191871Y-110515282D01*
X149071786Y-110576467D01*
X149071779Y-110576472D01*
X148976472Y-110671779D01*
X148976467Y-110671786D01*
X148915282Y-110791871D01*
X148915281Y-110791872D01*
X148915281Y-110791874D01*
X148894196Y-110925000D01*
X141911006Y-110925000D01*
X141909719Y-110916874D01*
X141884241Y-110866871D01*
X141848532Y-110796786D01*
X141848527Y-110796779D01*
X141753220Y-110701472D01*
X141753213Y-110701467D01*
X141633128Y-110640282D01*
X141633127Y-110640281D01*
X141633126Y-110640281D01*
X141500000Y-110619196D01*
X141366874Y-110640281D01*
X141366872Y-110640281D01*
X141366871Y-110640282D01*
X141246786Y-110701467D01*
X141246779Y-110701472D01*
X141151472Y-110796779D01*
X141151467Y-110796786D01*
X141090282Y-110916871D01*
X141090281Y-110916872D01*
X141090281Y-110916874D01*
X141069196Y-111050000D01*
X139788576Y-111050000D01*
X139703954Y-111004768D01*
X139505934Y-110944700D01*
X139300000Y-110924417D01*
X139094065Y-110944700D01*
X139094064Y-110944700D01*
X138896043Y-111004769D01*
X138713548Y-111102316D01*
X138553590Y-111233590D01*
X138422316Y-111393548D01*
X138324769Y-111576043D01*
X138264700Y-111774064D01*
X138264700Y-111774065D01*
X138244417Y-111979999D01*
X138244417Y-111980000D01*
X138264700Y-112185934D01*
X138264700Y-112185936D01*
X138286270Y-112257043D01*
X138282594Y-112294366D01*
X138253604Y-112318157D01*
X138247047Y-112319663D01*
X138116874Y-112340281D01*
X138116872Y-112340281D01*
X138116870Y-112340282D01*
X137996786Y-112401467D01*
X137996779Y-112401472D01*
X137901472Y-112496779D01*
X137901467Y-112496786D01*
X137840282Y-112616871D01*
X137840281Y-112616872D01*
X137840281Y-112616874D01*
X137819196Y-112750000D01*
X131002201Y-112750000D01*
X130983128Y-112740282D01*
X130983127Y-112740281D01*
X130983126Y-112740281D01*
X130850000Y-112719196D01*
X130849999Y-112719196D01*
X130834392Y-112721667D01*
X130797925Y-112712910D01*
X130778332Y-112680933D01*
X130778332Y-112665607D01*
X130780804Y-112650000D01*
X130759719Y-112516874D01*
X130739322Y-112476842D01*
X130698532Y-112396786D01*
X130698527Y-112396779D01*
X130603220Y-112301472D01*
X130603213Y-112301467D01*
X130483128Y-112240282D01*
X130483127Y-112240281D01*
X130483126Y-112240281D01*
X130350000Y-112219196D01*
X130216874Y-112240281D01*
X130216872Y-112240281D01*
X130216871Y-112240282D01*
X130096786Y-112301467D01*
X130096779Y-112301472D01*
X130001472Y-112396779D01*
X130001467Y-112396786D01*
X129940282Y-112516871D01*
X129940281Y-112516872D01*
X129940281Y-112516874D01*
X129919196Y-112650000D01*
X127450334Y-112650000D01*
X127333128Y-112590282D01*
X127333127Y-112590281D01*
X127333126Y-112590281D01*
X127200000Y-112569196D01*
X127066874Y-112590281D01*
X127066872Y-112590281D01*
X127066871Y-112590282D01*
X126946786Y-112651467D01*
X126946779Y-112651472D01*
X126851474Y-112746778D01*
X126851467Y-112746786D01*
X126790282Y-112866871D01*
X126790281Y-112866872D01*
X126790281Y-112866874D01*
X126769196Y-113000000D01*
X125652201Y-113000000D01*
X125633128Y-112990282D01*
X125633127Y-112990281D01*
X125633126Y-112990281D01*
X125500000Y-112969196D01*
X125366874Y-112990281D01*
X125366872Y-112990281D01*
X125366871Y-112990282D01*
X125246786Y-113051467D01*
X125246779Y-113051472D01*
X125151472Y-113146779D01*
X125151467Y-113146786D01*
X125090282Y-113266871D01*
X125090281Y-113266872D01*
X125090281Y-113266874D01*
X125069196Y-113400000D01*
X123633917Y-113400000D01*
X123671500Y-113371500D01*
X123760862Y-113253658D01*
X123815117Y-113116077D01*
X123817225Y-113098528D01*
X123825500Y-113029621D01*
X123825500Y-112400000D01*
X125069196Y-112400000D01*
X125090281Y-112533126D01*
X125090281Y-112533127D01*
X125090282Y-112533128D01*
X125151467Y-112653213D01*
X125151472Y-112653220D01*
X125246779Y-112748527D01*
X125246786Y-112748532D01*
X125326842Y-112789322D01*
X125366874Y-112809719D01*
X125500000Y-112830804D01*
X125633126Y-112809719D01*
X125716420Y-112767278D01*
X125753213Y-112748532D01*
X125753215Y-112748530D01*
X125753220Y-112748528D01*
X125848528Y-112653220D01*
X125849422Y-112651467D01*
X125874065Y-112603101D01*
X125909719Y-112533126D01*
X125930804Y-112400000D01*
X125909719Y-112266874D01*
X125871503Y-112191871D01*
X125848532Y-112146786D01*
X125848526Y-112146778D01*
X125753220Y-112051472D01*
X125753213Y-112051467D01*
X125652201Y-112000000D01*
X126769196Y-112000000D01*
X126790281Y-112133126D01*
X126790281Y-112133127D01*
X126790282Y-112133128D01*
X126851467Y-112253213D01*
X126851472Y-112253220D01*
X126946779Y-112348527D01*
X126946786Y-112348532D01*
X127016307Y-112383954D01*
X127066874Y-112409719D01*
X127200000Y-112430804D01*
X127333126Y-112409719D01*
X127416420Y-112367278D01*
X127453213Y-112348532D01*
X127453215Y-112348530D01*
X127453220Y-112348528D01*
X127548528Y-112253220D01*
X127550920Y-112248527D01*
X127579787Y-112191871D01*
X127609719Y-112133126D01*
X127630804Y-112000000D01*
X127609719Y-111866874D01*
X127574895Y-111798528D01*
X127548532Y-111746786D01*
X127548527Y-111746779D01*
X127453220Y-111651472D01*
X127453213Y-111651467D01*
X127333128Y-111590282D01*
X127333127Y-111590281D01*
X127333126Y-111590281D01*
X127200000Y-111569196D01*
X127066874Y-111590281D01*
X127066872Y-111590281D01*
X127066871Y-111590282D01*
X126946786Y-111651467D01*
X126946779Y-111651472D01*
X126851472Y-111746779D01*
X126851467Y-111746786D01*
X126790282Y-111866871D01*
X126790281Y-111866872D01*
X126790281Y-111866874D01*
X126769196Y-112000000D01*
X125652201Y-112000000D01*
X125633128Y-111990282D01*
X125633127Y-111990281D01*
X125633126Y-111990281D01*
X125500000Y-111969196D01*
X125366874Y-111990281D01*
X125366872Y-111990281D01*
X125366871Y-111990282D01*
X125246786Y-112051467D01*
X125246779Y-112051472D01*
X125151474Y-112146778D01*
X125151467Y-112146786D01*
X125090282Y-112266871D01*
X125090281Y-112266872D01*
X125090281Y-112266874D01*
X125069196Y-112400000D01*
X123825500Y-112400000D01*
X123825500Y-112226376D01*
X123839852Y-112191728D01*
X123874500Y-112177376D01*
X123882164Y-112177978D01*
X123900000Y-112180804D01*
X124033126Y-112159719D01*
X124116420Y-112117278D01*
X124153213Y-112098532D01*
X124153215Y-112098530D01*
X124153220Y-112098528D01*
X124248528Y-112003220D01*
X124255121Y-111990282D01*
X124283432Y-111934717D01*
X124309719Y-111883126D01*
X124330804Y-111750000D01*
X124309719Y-111616874D01*
X124276395Y-111551472D01*
X124248532Y-111496786D01*
X124248527Y-111496779D01*
X124236394Y-111484646D01*
X124222042Y-111449998D01*
X124236393Y-111415351D01*
X124248528Y-111403217D01*
X124249993Y-111400341D01*
X125068577Y-111400341D01*
X125089662Y-111533467D01*
X125089662Y-111533468D01*
X125089663Y-111533469D01*
X125150848Y-111653554D01*
X125150853Y-111653561D01*
X125246160Y-111748868D01*
X125246167Y-111748873D01*
X125326223Y-111789663D01*
X125366255Y-111810060D01*
X125499381Y-111831145D01*
X125632507Y-111810060D01*
X125717270Y-111766871D01*
X125752594Y-111748873D01*
X125752596Y-111748871D01*
X125752601Y-111748869D01*
X125847909Y-111653561D01*
X125848974Y-111651472D01*
X125880151Y-111590282D01*
X125909100Y-111533467D01*
X125930185Y-111400341D01*
X125909100Y-111267215D01*
X125873211Y-111196779D01*
X125847913Y-111147127D01*
X125847908Y-111147120D01*
X125752601Y-111051813D01*
X125752594Y-111051808D01*
X125632509Y-110990623D01*
X125632508Y-110990622D01*
X125632507Y-110990622D01*
X125499381Y-110969537D01*
X125366255Y-110990622D01*
X125366253Y-110990622D01*
X125366252Y-110990623D01*
X125246167Y-111051808D01*
X125246160Y-111051813D01*
X125150853Y-111147120D01*
X125150848Y-111147127D01*
X125089663Y-111267212D01*
X125089662Y-111267213D01*
X125089662Y-111267215D01*
X125068577Y-111400341D01*
X124249993Y-111400341D01*
X124309719Y-111283123D01*
X124330804Y-111149997D01*
X124309719Y-111016871D01*
X124286744Y-110971780D01*
X124248532Y-110896783D01*
X124248527Y-110896776D01*
X124153220Y-110801469D01*
X124153213Y-110801464D01*
X124033128Y-110740279D01*
X124033127Y-110740278D01*
X124033126Y-110740278D01*
X123900000Y-110719193D01*
X123766874Y-110740278D01*
X123766872Y-110740278D01*
X123766871Y-110740279D01*
X123646786Y-110801464D01*
X123646779Y-110801469D01*
X123551472Y-110896776D01*
X123551467Y-110896783D01*
X123490282Y-111016868D01*
X123490281Y-111016869D01*
X123490281Y-111016871D01*
X123469196Y-111149997D01*
X123490281Y-111283123D01*
X123490281Y-111283124D01*
X123490282Y-111283125D01*
X123551467Y-111403210D01*
X123551472Y-111403217D01*
X123563605Y-111415350D01*
X123577957Y-111449998D01*
X123563606Y-111484645D01*
X123551474Y-111496777D01*
X123551470Y-111496783D01*
X123490282Y-111616870D01*
X123490281Y-111616872D01*
X123490281Y-111616874D01*
X123485335Y-111648103D01*
X123465739Y-111680079D01*
X123429272Y-111688834D01*
X123418965Y-111686022D01*
X123416074Y-111684882D01*
X123416072Y-111684881D01*
X123329621Y-111674500D01*
X123329618Y-111674500D01*
X122470382Y-111674500D01*
X122470379Y-111674500D01*
X122383927Y-111684881D01*
X122246339Y-111739139D01*
X122128500Y-111828500D01*
X122039139Y-111946339D01*
X121984881Y-112083927D01*
X121974500Y-112170378D01*
X121974500Y-112250500D01*
X121960148Y-112285148D01*
X121925500Y-112299500D01*
X121719767Y-112299500D01*
X121685119Y-112285148D01*
X117799971Y-108400000D01*
X121569196Y-108400000D01*
X121590281Y-108533126D01*
X121590281Y-108533127D01*
X121590282Y-108533128D01*
X121651467Y-108653213D01*
X121651472Y-108653220D01*
X121746779Y-108748527D01*
X121746786Y-108748532D01*
X121826842Y-108789322D01*
X121866874Y-108809719D01*
X121945389Y-108822154D01*
X121977364Y-108841748D01*
X121986119Y-108878215D01*
X121985228Y-108882558D01*
X121984881Y-108883927D01*
X121974500Y-108970378D01*
X121974500Y-109829621D01*
X121984881Y-109916072D01*
X121984883Y-109916077D01*
X122024032Y-110015353D01*
X122039139Y-110053660D01*
X122071838Y-110096780D01*
X122128500Y-110171500D01*
X122188331Y-110216871D01*
X122228117Y-110247042D01*
X122246342Y-110260862D01*
X122383923Y-110315117D01*
X122383926Y-110315117D01*
X122383928Y-110315118D01*
X122383927Y-110315118D01*
X122470379Y-110325500D01*
X122470382Y-110325500D01*
X123329621Y-110325500D01*
X123416072Y-110315118D01*
X123416073Y-110315117D01*
X123416077Y-110315117D01*
X123553658Y-110260862D01*
X123671500Y-110171500D01*
X123760862Y-110053658D01*
X123815117Y-109916077D01*
X123819075Y-109883126D01*
X123825500Y-109829621D01*
X123825500Y-108970379D01*
X123820737Y-108930721D01*
X123830854Y-108894609D01*
X123834730Y-108890239D01*
X124174973Y-108549997D01*
X126669196Y-108549997D01*
X126690281Y-108683123D01*
X126690281Y-108683124D01*
X126690282Y-108683125D01*
X126751467Y-108803210D01*
X126751472Y-108803217D01*
X126763605Y-108815350D01*
X126777957Y-108849998D01*
X126763606Y-108884645D01*
X126751474Y-108896777D01*
X126751468Y-108896785D01*
X126690282Y-109016871D01*
X126690281Y-109016872D01*
X126690281Y-109016874D01*
X126669196Y-109150000D01*
X126690281Y-109283126D01*
X126690281Y-109283127D01*
X126690282Y-109283128D01*
X126751467Y-109403213D01*
X126751472Y-109403220D01*
X126763604Y-109415352D01*
X126777956Y-109450000D01*
X126763604Y-109484648D01*
X126751472Y-109496779D01*
X126751467Y-109496786D01*
X126690282Y-109616871D01*
X126690281Y-109616872D01*
X126690281Y-109616874D01*
X126669196Y-109750000D01*
X126690281Y-109883126D01*
X126690281Y-109883127D01*
X126690282Y-109883128D01*
X126751467Y-110003213D01*
X126751472Y-110003220D01*
X126763605Y-110015353D01*
X126777957Y-110050001D01*
X126763606Y-110084648D01*
X126751474Y-110096780D01*
X126751468Y-110096788D01*
X126690282Y-110216874D01*
X126690281Y-110216875D01*
X126690281Y-110216877D01*
X126669196Y-110350003D01*
X126690281Y-110483129D01*
X126690281Y-110483130D01*
X126690282Y-110483131D01*
X126751467Y-110603216D01*
X126751472Y-110603223D01*
X126841000Y-110692751D01*
X126855352Y-110727399D01*
X126850012Y-110749644D01*
X126790281Y-110866873D01*
X126788761Y-110876472D01*
X126769196Y-111000000D01*
X126790281Y-111133126D01*
X126790281Y-111133127D01*
X126790282Y-111133128D01*
X126851467Y-111253213D01*
X126851472Y-111253220D01*
X126946779Y-111348527D01*
X126946786Y-111348532D01*
X127026842Y-111389322D01*
X127066874Y-111409719D01*
X127200000Y-111430804D01*
X127333126Y-111409719D01*
X127434383Y-111358126D01*
X127453213Y-111348532D01*
X127453215Y-111348530D01*
X127453220Y-111348528D01*
X127548528Y-111253220D01*
X127609719Y-111133126D01*
X127630804Y-111000000D01*
X127609719Y-110866874D01*
X127583431Y-110815281D01*
X127548532Y-110746786D01*
X127548527Y-110746779D01*
X127458999Y-110657251D01*
X127444647Y-110622603D01*
X127449988Y-110600357D01*
X127462161Y-110576467D01*
X127509719Y-110483129D01*
X127530804Y-110350003D01*
X127530804Y-110350000D01*
X131919196Y-110350000D01*
X131940281Y-110483126D01*
X131940281Y-110483127D01*
X131940282Y-110483128D01*
X132001467Y-110603213D01*
X132001472Y-110603220D01*
X132096779Y-110698527D01*
X132096786Y-110698532D01*
X132153442Y-110727399D01*
X132216874Y-110759719D01*
X132350000Y-110780804D01*
X132483126Y-110759719D01*
X132568144Y-110716400D01*
X132603213Y-110698532D01*
X132603215Y-110698530D01*
X132603220Y-110698528D01*
X132698528Y-110603220D01*
X132759719Y-110483126D01*
X132780804Y-110350000D01*
X132759719Y-110216874D01*
X132736599Y-110171499D01*
X132698532Y-110096786D01*
X132698527Y-110096779D01*
X132603220Y-110001472D01*
X132603213Y-110001467D01*
X132483128Y-109940282D01*
X132483127Y-109940281D01*
X132483126Y-109940281D01*
X132350000Y-109919196D01*
X132216874Y-109940281D01*
X132216872Y-109940281D01*
X132216871Y-109940282D01*
X132096786Y-110001467D01*
X132096779Y-110001472D01*
X132001472Y-110096779D01*
X132001467Y-110096786D01*
X131940282Y-110216871D01*
X131940281Y-110216872D01*
X131940281Y-110216874D01*
X131919196Y-110350000D01*
X127530804Y-110350000D01*
X127509719Y-110216877D01*
X127465863Y-110130804D01*
X127448532Y-110096789D01*
X127448527Y-110096782D01*
X127436394Y-110084649D01*
X127422042Y-110050001D01*
X127436393Y-110015354D01*
X127448528Y-110003220D01*
X127509719Y-109883126D01*
X127530804Y-109750000D01*
X127522885Y-109700000D01*
X134769196Y-109700000D01*
X134790281Y-109833126D01*
X134790281Y-109833127D01*
X134790282Y-109833128D01*
X134851467Y-109953213D01*
X134851472Y-109953220D01*
X134946779Y-110048527D01*
X134946786Y-110048532D01*
X135017669Y-110084648D01*
X135066874Y-110109719D01*
X135200000Y-110130804D01*
X135333126Y-110109719D01*
X135434383Y-110058126D01*
X135453213Y-110048532D01*
X135453215Y-110048530D01*
X135453220Y-110048528D01*
X135465352Y-110036396D01*
X135500000Y-110022044D01*
X135534648Y-110036396D01*
X135546779Y-110048527D01*
X135546786Y-110048532D01*
X135617669Y-110084648D01*
X135666874Y-110109719D01*
X135800000Y-110130804D01*
X135933126Y-110109719D01*
X136053220Y-110048528D01*
X136065352Y-110036394D01*
X136099998Y-110022042D01*
X136134645Y-110036390D01*
X136134649Y-110036394D01*
X136146782Y-110048527D01*
X136146789Y-110048532D01*
X136217672Y-110084648D01*
X136266877Y-110109719D01*
X136400003Y-110130804D01*
X136533129Y-110109719D01*
X136634386Y-110058126D01*
X136653216Y-110048532D01*
X136653218Y-110048530D01*
X136653223Y-110048528D01*
X136748531Y-109953220D01*
X136755124Y-109940282D01*
X136767459Y-109916072D01*
X136809722Y-109833126D01*
X136830807Y-109700000D01*
X136809722Y-109566874D01*
X136783434Y-109515281D01*
X136748535Y-109446786D01*
X136748530Y-109446779D01*
X136741750Y-109439999D01*
X138244417Y-109439999D01*
X138244417Y-109440000D01*
X138264700Y-109645934D01*
X138264700Y-109645935D01*
X138289129Y-109726467D01*
X138324768Y-109843954D01*
X138422315Y-110026450D01*
X138553590Y-110186410D01*
X138713550Y-110317685D01*
X138896046Y-110415232D01*
X139094066Y-110475300D01*
X139300000Y-110495583D01*
X139505934Y-110475300D01*
X139703954Y-110415232D01*
X139886450Y-110317685D01*
X140046410Y-110186410D01*
X140177685Y-110026450D01*
X140231912Y-109925000D01*
X149594196Y-109925000D01*
X149615281Y-110058126D01*
X149615281Y-110058127D01*
X149615282Y-110058128D01*
X149676467Y-110178213D01*
X149676472Y-110178220D01*
X149771779Y-110273527D01*
X149771786Y-110273532D01*
X149851842Y-110314322D01*
X149891874Y-110334719D01*
X150025000Y-110355804D01*
X150158126Y-110334719D01*
X150278220Y-110273528D01*
X150290352Y-110261394D01*
X150324998Y-110247042D01*
X150359645Y-110261390D01*
X150359649Y-110261394D01*
X150371782Y-110273527D01*
X150371789Y-110273532D01*
X150451845Y-110314322D01*
X150491877Y-110334719D01*
X150625003Y-110355804D01*
X150758129Y-110334719D01*
X150841423Y-110292278D01*
X150878216Y-110273532D01*
X150878218Y-110273530D01*
X150878223Y-110273528D01*
X150973531Y-110178220D01*
X151034722Y-110058126D01*
X151055807Y-109925000D01*
X151034722Y-109791874D01*
X151001398Y-109726472D01*
X150973535Y-109671786D01*
X150973530Y-109671779D01*
X150878223Y-109576472D01*
X150878216Y-109576467D01*
X150758131Y-109515282D01*
X150758130Y-109515281D01*
X150758129Y-109515281D01*
X150625003Y-109494196D01*
X150491877Y-109515281D01*
X150491875Y-109515281D01*
X150491874Y-109515282D01*
X150371788Y-109576468D01*
X150371780Y-109576474D01*
X150359648Y-109588606D01*
X150324999Y-109602957D01*
X150290353Y-109588605D01*
X150278220Y-109576472D01*
X150278213Y-109576467D01*
X150158128Y-109515282D01*
X150158127Y-109515281D01*
X150158126Y-109515281D01*
X150025000Y-109494196D01*
X149891874Y-109515281D01*
X149891872Y-109515281D01*
X149891871Y-109515282D01*
X149771786Y-109576467D01*
X149771779Y-109576472D01*
X149676472Y-109671779D01*
X149676467Y-109671786D01*
X149615282Y-109791871D01*
X149615281Y-109791872D01*
X149615281Y-109791874D01*
X149594196Y-109925000D01*
X140231912Y-109925000D01*
X140275232Y-109843954D01*
X140335300Y-109645934D01*
X140355583Y-109440000D01*
X140335300Y-109234066D01*
X140302216Y-109125000D01*
X143894196Y-109125000D01*
X143915281Y-109258126D01*
X143915281Y-109258127D01*
X143915282Y-109258128D01*
X143976467Y-109378213D01*
X143976472Y-109378220D01*
X144071779Y-109473527D01*
X144071786Y-109473532D01*
X144117426Y-109496786D01*
X144191874Y-109534719D01*
X144325000Y-109555804D01*
X144458126Y-109534719D01*
X144556396Y-109484648D01*
X144578213Y-109473532D01*
X144578215Y-109473530D01*
X144578220Y-109473528D01*
X144673528Y-109378220D01*
X144734719Y-109258126D01*
X144755804Y-109125000D01*
X144734719Y-108991874D01*
X144700645Y-108925000D01*
X149594196Y-108925000D01*
X149615281Y-109058126D01*
X149615281Y-109058127D01*
X149615282Y-109058128D01*
X149676467Y-109178213D01*
X149676472Y-109178220D01*
X149771779Y-109273527D01*
X149771786Y-109273532D01*
X149851842Y-109314322D01*
X149891874Y-109334719D01*
X150025000Y-109355804D01*
X150158126Y-109334719D01*
X150241420Y-109292278D01*
X150278213Y-109273532D01*
X150278215Y-109273530D01*
X150278220Y-109273528D01*
X150373528Y-109178220D01*
X150434719Y-109058126D01*
X150455804Y-108925000D01*
X150434719Y-108791874D01*
X150412633Y-108748527D01*
X150373532Y-108671786D01*
X150373527Y-108671779D01*
X150278220Y-108576472D01*
X150278213Y-108576467D01*
X150158128Y-108515282D01*
X150158127Y-108515281D01*
X150158126Y-108515281D01*
X150025000Y-108494196D01*
X149891874Y-108515281D01*
X149891872Y-108515281D01*
X149891871Y-108515282D01*
X149771786Y-108576467D01*
X149771779Y-108576472D01*
X149676472Y-108671779D01*
X149676467Y-108671786D01*
X149615282Y-108791871D01*
X149615281Y-108791872D01*
X149615281Y-108791874D01*
X149594196Y-108925000D01*
X144700645Y-108925000D01*
X144691511Y-108907073D01*
X144673532Y-108871786D01*
X144673526Y-108871778D01*
X144578220Y-108776472D01*
X144578213Y-108776467D01*
X144458128Y-108715282D01*
X144458127Y-108715281D01*
X144458126Y-108715281D01*
X144325000Y-108694196D01*
X144191874Y-108715281D01*
X144191872Y-108715281D01*
X144191871Y-108715282D01*
X144071786Y-108776467D01*
X144071779Y-108776472D01*
X143976474Y-108871778D01*
X143976467Y-108871786D01*
X143915282Y-108991871D01*
X143915281Y-108991872D01*
X143915281Y-108991874D01*
X143894196Y-109125000D01*
X140302216Y-109125000D01*
X140275232Y-109036046D01*
X140177685Y-108853550D01*
X140046410Y-108693590D01*
X139886450Y-108562315D01*
X139703954Y-108464768D01*
X139505934Y-108404700D01*
X139300000Y-108384417D01*
X139094065Y-108404700D01*
X139094064Y-108404700D01*
X138896043Y-108464769D01*
X138713548Y-108562316D01*
X138553590Y-108693590D01*
X138422316Y-108853548D01*
X138324769Y-109036043D01*
X138264700Y-109234064D01*
X138264700Y-109234065D01*
X138244417Y-109439999D01*
X136741750Y-109439999D01*
X136653223Y-109351472D01*
X136653216Y-109351467D01*
X136533131Y-109290282D01*
X136533130Y-109290281D01*
X136533129Y-109290281D01*
X136400003Y-109269196D01*
X136266877Y-109290281D01*
X136266875Y-109290281D01*
X136266874Y-109290282D01*
X136146788Y-109351468D01*
X136146780Y-109351474D01*
X136134648Y-109363606D01*
X136099999Y-109377957D01*
X136065353Y-109363605D01*
X136053220Y-109351472D01*
X136053213Y-109351467D01*
X135933128Y-109290282D01*
X135933127Y-109290281D01*
X135933126Y-109290281D01*
X135800000Y-109269196D01*
X135666874Y-109290281D01*
X135666872Y-109290281D01*
X135666871Y-109290282D01*
X135546786Y-109351467D01*
X135546779Y-109351472D01*
X135534648Y-109363604D01*
X135500000Y-109377956D01*
X135465352Y-109363604D01*
X135453220Y-109351472D01*
X135453213Y-109351467D01*
X135333128Y-109290282D01*
X135333127Y-109290281D01*
X135333126Y-109290281D01*
X135200000Y-109269196D01*
X135066874Y-109290281D01*
X135066872Y-109290281D01*
X135066871Y-109290282D01*
X134946786Y-109351467D01*
X134946779Y-109351472D01*
X134851472Y-109446779D01*
X134851467Y-109446786D01*
X134790282Y-109566871D01*
X134790281Y-109566872D01*
X134790281Y-109566874D01*
X134769196Y-109700000D01*
X127522885Y-109700000D01*
X127509719Y-109616874D01*
X127484241Y-109566871D01*
X127448532Y-109496786D01*
X127448527Y-109496779D01*
X127436396Y-109484648D01*
X127422044Y-109450000D01*
X127436396Y-109415352D01*
X127448528Y-109403220D01*
X127451060Y-109398252D01*
X127483432Y-109334717D01*
X127509719Y-109283126D01*
X127530804Y-109150000D01*
X127509719Y-109016874D01*
X127486028Y-108970378D01*
X127448532Y-108896786D01*
X127448527Y-108896779D01*
X127436394Y-108884646D01*
X127422042Y-108849998D01*
X127436393Y-108815351D01*
X127448528Y-108803217D01*
X127509719Y-108683123D01*
X127530804Y-108549997D01*
X127509719Y-108416871D01*
X127478604Y-108355804D01*
X127448532Y-108296783D01*
X127448527Y-108296776D01*
X127353220Y-108201469D01*
X127353213Y-108201464D01*
X127233128Y-108140279D01*
X127233127Y-108140278D01*
X127233126Y-108140278D01*
X127100000Y-108119193D01*
X126966874Y-108140278D01*
X126966872Y-108140278D01*
X126966871Y-108140279D01*
X126846786Y-108201464D01*
X126846779Y-108201469D01*
X126751472Y-108296776D01*
X126751467Y-108296783D01*
X126690282Y-108416868D01*
X126690281Y-108416869D01*
X126690281Y-108416871D01*
X126669196Y-108549997D01*
X124174973Y-108549997D01*
X124460119Y-108264852D01*
X124494767Y-108250500D01*
X126289564Y-108250500D01*
X126316230Y-108243354D01*
X126365989Y-108230021D01*
X126369109Y-108228220D01*
X126375170Y-108224720D01*
X126434511Y-108190460D01*
X126490460Y-108134511D01*
X126624971Y-108000000D01*
X128019196Y-108000000D01*
X128040281Y-108133126D01*
X128040281Y-108133127D01*
X128040282Y-108133128D01*
X128101467Y-108253213D01*
X128101472Y-108253220D01*
X128196779Y-108348527D01*
X128196786Y-108348532D01*
X128244948Y-108373071D01*
X128316874Y-108409719D01*
X128450000Y-108430804D01*
X128583126Y-108409719D01*
X128666420Y-108367278D01*
X128703213Y-108348532D01*
X128703215Y-108348530D01*
X128703220Y-108348528D01*
X128798528Y-108253220D01*
X128810349Y-108230021D01*
X128840166Y-108171500D01*
X128859719Y-108133126D01*
X128880804Y-108000000D01*
X128876844Y-107975000D01*
X131619196Y-107975000D01*
X131640281Y-108108126D01*
X131640281Y-108108127D01*
X131640282Y-108108128D01*
X131701467Y-108228213D01*
X131701472Y-108228220D01*
X131796779Y-108323527D01*
X131796786Y-108323532D01*
X131860123Y-108355803D01*
X131916874Y-108384719D01*
X132050000Y-108405804D01*
X132183126Y-108384719D01*
X132266420Y-108342278D01*
X132303213Y-108323532D01*
X132303215Y-108323530D01*
X132303220Y-108323528D01*
X132326748Y-108300000D01*
X135269437Y-108300000D01*
X135290522Y-108433126D01*
X135290522Y-108433127D01*
X135290523Y-108433128D01*
X135351708Y-108553213D01*
X135351713Y-108553220D01*
X135447020Y-108648527D01*
X135447027Y-108648532D01*
X135492667Y-108671786D01*
X135567115Y-108709719D01*
X135700241Y-108730804D01*
X135833367Y-108709719D01*
X135953461Y-108648528D01*
X135965593Y-108636394D01*
X136000239Y-108622042D01*
X136034886Y-108636390D01*
X136034890Y-108636394D01*
X136047023Y-108648527D01*
X136047030Y-108648532D01*
X136092670Y-108671786D01*
X136167118Y-108709719D01*
X136300244Y-108730804D01*
X136433370Y-108709719D01*
X136553464Y-108648528D01*
X136565596Y-108636394D01*
X136600242Y-108622042D01*
X136634889Y-108636390D01*
X136634893Y-108636394D01*
X136647026Y-108648527D01*
X136647033Y-108648532D01*
X136692673Y-108671786D01*
X136767121Y-108709719D01*
X136900247Y-108730804D01*
X137033373Y-108709719D01*
X137134630Y-108658126D01*
X137153460Y-108648532D01*
X137153462Y-108648530D01*
X137153467Y-108648528D01*
X137248775Y-108553220D01*
X137250418Y-108549997D01*
X137285779Y-108480595D01*
X137309966Y-108433126D01*
X137331051Y-108300000D01*
X137309966Y-108166874D01*
X137285671Y-108119193D01*
X137248779Y-108046786D01*
X137248774Y-108046779D01*
X137153467Y-107951472D01*
X137153460Y-107951467D01*
X137033375Y-107890282D01*
X137033374Y-107890281D01*
X137033373Y-107890281D01*
X136900247Y-107869196D01*
X136767121Y-107890281D01*
X136767119Y-107890281D01*
X136767118Y-107890282D01*
X136647032Y-107951468D01*
X136647024Y-107951474D01*
X136634892Y-107963606D01*
X136600243Y-107977957D01*
X136565597Y-107963605D01*
X136553464Y-107951472D01*
X136553457Y-107951467D01*
X136433372Y-107890282D01*
X136433371Y-107890281D01*
X136433370Y-107890281D01*
X136300244Y-107869196D01*
X136167118Y-107890281D01*
X136167116Y-107890281D01*
X136167115Y-107890282D01*
X136047029Y-107951468D01*
X136047021Y-107951474D01*
X136034889Y-107963606D01*
X136000240Y-107977957D01*
X135965594Y-107963605D01*
X135953461Y-107951472D01*
X135953454Y-107951467D01*
X135833369Y-107890282D01*
X135833368Y-107890281D01*
X135833367Y-107890281D01*
X135700241Y-107869196D01*
X135567115Y-107890281D01*
X135567113Y-107890281D01*
X135567112Y-107890282D01*
X135447027Y-107951467D01*
X135447020Y-107951472D01*
X135351713Y-108046779D01*
X135351708Y-108046786D01*
X135290523Y-108166871D01*
X135290522Y-108166872D01*
X135290522Y-108166874D01*
X135269437Y-108300000D01*
X132326748Y-108300000D01*
X132398528Y-108228220D01*
X132459719Y-108108126D01*
X132480804Y-107975000D01*
X132459719Y-107841874D01*
X132430306Y-107784148D01*
X132398532Y-107721786D01*
X132398527Y-107721779D01*
X132303220Y-107626472D01*
X132303213Y-107626467D01*
X132183128Y-107565282D01*
X132183127Y-107565281D01*
X132183126Y-107565281D01*
X132050000Y-107544196D01*
X131916874Y-107565281D01*
X131916872Y-107565281D01*
X131916871Y-107565282D01*
X131796786Y-107626467D01*
X131796779Y-107626472D01*
X131701472Y-107721779D01*
X131701467Y-107721786D01*
X131640282Y-107841871D01*
X131640281Y-107841872D01*
X131640281Y-107841874D01*
X131619196Y-107975000D01*
X128876844Y-107975000D01*
X128859719Y-107866874D01*
X128817568Y-107784148D01*
X128798532Y-107746786D01*
X128798527Y-107746779D01*
X128703220Y-107651472D01*
X128703213Y-107651467D01*
X128583128Y-107590282D01*
X128583127Y-107590281D01*
X128583126Y-107590281D01*
X128450000Y-107569196D01*
X128316874Y-107590281D01*
X128316872Y-107590281D01*
X128316871Y-107590282D01*
X128196786Y-107651467D01*
X128196779Y-107651472D01*
X128101472Y-107746779D01*
X128101467Y-107746786D01*
X128040282Y-107866871D01*
X128040281Y-107866872D01*
X128040281Y-107866874D01*
X128019196Y-108000000D01*
X126624971Y-108000000D01*
X127610119Y-107014852D01*
X127644767Y-107000500D01*
X132495092Y-107000500D01*
X132529740Y-107014852D01*
X132544092Y-107049500D01*
X132538751Y-107071745D01*
X132490282Y-107166871D01*
X132490281Y-107166872D01*
X132490281Y-107166874D01*
X132469196Y-107300000D01*
X132490281Y-107433126D01*
X132490281Y-107433127D01*
X132490282Y-107433128D01*
X132551467Y-107553213D01*
X132551472Y-107553220D01*
X132646779Y-107648527D01*
X132646786Y-107648532D01*
X132692426Y-107671786D01*
X132766874Y-107709719D01*
X132900000Y-107730804D01*
X133033126Y-107709719D01*
X133131396Y-107659648D01*
X133153213Y-107648532D01*
X133153215Y-107648530D01*
X133153220Y-107648528D01*
X133248528Y-107553220D01*
X133309719Y-107433126D01*
X133330804Y-107300000D01*
X133309719Y-107166874D01*
X133275645Y-107100000D01*
X133261249Y-107071745D01*
X133258306Y-107034358D01*
X133282663Y-107005841D01*
X133304908Y-107000500D01*
X133928456Y-107000500D01*
X133963104Y-107014852D01*
X133996779Y-107048527D01*
X133996786Y-107048532D01*
X134042426Y-107071786D01*
X134116874Y-107109719D01*
X134250000Y-107130804D01*
X134383126Y-107109719D01*
X134466420Y-107067278D01*
X134503213Y-107048532D01*
X134503215Y-107048530D01*
X134503220Y-107048528D01*
X134598528Y-106953220D01*
X134659719Y-106833126D01*
X134680804Y-106700000D01*
X134659719Y-106566874D01*
X134643336Y-106534720D01*
X134623989Y-106496748D01*
X134621046Y-106459361D01*
X134645403Y-106430844D01*
X134667648Y-106425503D01*
X134878456Y-106425503D01*
X134913104Y-106439855D01*
X134946779Y-106473530D01*
X134946786Y-106473535D01*
X135017799Y-106509717D01*
X135066874Y-106534722D01*
X135200000Y-106555807D01*
X135333126Y-106534722D01*
X135417226Y-106491871D01*
X135453213Y-106473535D01*
X135453215Y-106473533D01*
X135453220Y-106473531D01*
X135548528Y-106378223D01*
X135551320Y-106372745D01*
X135575392Y-106325500D01*
X135609719Y-106258129D01*
X135630804Y-106125003D01*
X135626844Y-106100000D01*
X136519196Y-106100000D01*
X136540281Y-106233126D01*
X136540281Y-106233127D01*
X136540282Y-106233128D01*
X136601467Y-106353213D01*
X136601472Y-106353220D01*
X136696779Y-106448527D01*
X136696786Y-106448532D01*
X136776842Y-106489322D01*
X136816874Y-106509719D01*
X136950000Y-106530804D01*
X137083126Y-106509719D01*
X137181959Y-106459361D01*
X137203213Y-106448532D01*
X137203215Y-106448530D01*
X137203220Y-106448528D01*
X137298528Y-106353220D01*
X137359719Y-106233126D01*
X137372885Y-106150000D01*
X141069196Y-106150000D01*
X141090281Y-106283126D01*
X141090281Y-106283127D01*
X141090282Y-106283128D01*
X141151467Y-106403213D01*
X141151472Y-106403220D01*
X141246779Y-106498527D01*
X141246786Y-106498532D01*
X141326482Y-106539138D01*
X141366874Y-106559719D01*
X141473480Y-106576603D01*
X141505455Y-106596197D01*
X141514210Y-106632664D01*
X141494615Y-106664641D01*
X141473479Y-106673396D01*
X141412147Y-106683110D01*
X141366874Y-106690281D01*
X141366872Y-106690281D01*
X141366870Y-106690282D01*
X141246786Y-106751467D01*
X141246779Y-106751472D01*
X141151472Y-106846779D01*
X141151467Y-106846786D01*
X141090282Y-106966871D01*
X141090281Y-106966872D01*
X141090281Y-106966874D01*
X141069196Y-107100000D01*
X141090281Y-107233126D01*
X141090281Y-107233127D01*
X141090282Y-107233128D01*
X141151467Y-107353213D01*
X141151472Y-107353220D01*
X141246779Y-107448527D01*
X141246786Y-107448532D01*
X141326842Y-107489322D01*
X141366874Y-107509719D01*
X141500000Y-107530804D01*
X141633126Y-107509719D01*
X141734383Y-107458126D01*
X141753213Y-107448532D01*
X141753215Y-107448530D01*
X141753220Y-107448528D01*
X141786896Y-107414852D01*
X141821544Y-107400500D01*
X147839564Y-107400500D01*
X147866230Y-107393354D01*
X147915989Y-107380021D01*
X147984511Y-107340460D01*
X147999971Y-107325000D01*
X149594196Y-107325000D01*
X149615281Y-107458126D01*
X149615281Y-107458127D01*
X149615282Y-107458128D01*
X149676467Y-107578213D01*
X149676472Y-107578220D01*
X149688604Y-107590352D01*
X149702956Y-107625000D01*
X149688604Y-107659648D01*
X149676472Y-107671779D01*
X149676467Y-107671786D01*
X149615282Y-107791871D01*
X149615281Y-107791872D01*
X149615281Y-107791874D01*
X149594196Y-107925000D01*
X149615281Y-108058126D01*
X149615281Y-108058127D01*
X149615282Y-108058128D01*
X149676467Y-108178213D01*
X149676472Y-108178220D01*
X149771779Y-108273527D01*
X149771786Y-108273532D01*
X149817420Y-108296783D01*
X149891874Y-108334719D01*
X150025000Y-108355804D01*
X150158126Y-108334719D01*
X150241420Y-108292278D01*
X150278213Y-108273532D01*
X150278215Y-108273530D01*
X150278220Y-108273528D01*
X150373528Y-108178220D01*
X150389548Y-108146780D01*
X150395799Y-108134511D01*
X150434719Y-108058126D01*
X150455804Y-107925000D01*
X151094196Y-107925000D01*
X151115281Y-108058126D01*
X151115281Y-108058127D01*
X151115282Y-108058128D01*
X151176467Y-108178213D01*
X151176472Y-108178220D01*
X151188604Y-108190352D01*
X151202956Y-108225000D01*
X151188604Y-108259648D01*
X151176474Y-108271778D01*
X151176467Y-108271786D01*
X151115282Y-108391871D01*
X151115281Y-108391872D01*
X151115281Y-108391874D01*
X151094196Y-108525000D01*
X151115281Y-108658126D01*
X151115281Y-108658127D01*
X151115282Y-108658128D01*
X151176467Y-108778213D01*
X151176472Y-108778220D01*
X151271779Y-108873527D01*
X151271786Y-108873532D01*
X151351842Y-108914322D01*
X151391874Y-108934719D01*
X151525000Y-108955804D01*
X151658126Y-108934719D01*
X151760498Y-108882558D01*
X151778213Y-108873532D01*
X151778215Y-108873530D01*
X151778220Y-108873528D01*
X151873528Y-108778220D01*
X151874422Y-108776467D01*
X151897688Y-108730803D01*
X151934719Y-108658126D01*
X151955804Y-108525000D01*
X151934719Y-108391874D01*
X151899895Y-108323528D01*
X151873532Y-108271786D01*
X151873526Y-108271778D01*
X151861396Y-108259648D01*
X151847044Y-108225000D01*
X151861396Y-108190352D01*
X151873528Y-108178220D01*
X151889548Y-108146780D01*
X151895799Y-108134511D01*
X151934719Y-108058126D01*
X151955804Y-107925000D01*
X151934719Y-107791874D01*
X151913128Y-107749500D01*
X151873532Y-107671786D01*
X151873527Y-107671779D01*
X151778220Y-107576472D01*
X151778213Y-107576467D01*
X151658128Y-107515282D01*
X151658127Y-107515281D01*
X151658126Y-107515281D01*
X151525000Y-107494196D01*
X151391874Y-107515281D01*
X151391872Y-107515281D01*
X151391871Y-107515282D01*
X151271786Y-107576467D01*
X151271779Y-107576472D01*
X151176472Y-107671779D01*
X151176467Y-107671786D01*
X151115282Y-107791871D01*
X151115281Y-107791872D01*
X151115281Y-107791874D01*
X151094196Y-107925000D01*
X150455804Y-107925000D01*
X150434719Y-107791874D01*
X150413128Y-107749500D01*
X150373532Y-107671786D01*
X150373527Y-107671779D01*
X150361396Y-107659648D01*
X150347044Y-107625000D01*
X150361396Y-107590352D01*
X150367209Y-107584539D01*
X150373528Y-107578220D01*
X150374422Y-107576467D01*
X150397688Y-107530803D01*
X150434719Y-107458126D01*
X150455804Y-107325000D01*
X150434719Y-107191874D01*
X150414322Y-107151842D01*
X150373532Y-107071786D01*
X150373527Y-107071779D01*
X150278220Y-106976472D01*
X150278213Y-106976467D01*
X150158128Y-106915282D01*
X150158127Y-106915281D01*
X150158126Y-106915281D01*
X150025000Y-106894196D01*
X149891874Y-106915281D01*
X149891872Y-106915281D01*
X149891871Y-106915282D01*
X149771786Y-106976467D01*
X149771779Y-106976472D01*
X149676472Y-107071779D01*
X149676467Y-107071786D01*
X149615282Y-107191871D01*
X149615281Y-107191872D01*
X149615281Y-107191874D01*
X149594196Y-107325000D01*
X147999971Y-107325000D01*
X148040460Y-107284511D01*
X148826985Y-106497984D01*
X148861632Y-106483633D01*
X148896280Y-106497985D01*
X148910028Y-106524965D01*
X148910953Y-106530803D01*
X148915282Y-106558130D01*
X148915282Y-106558131D01*
X148976467Y-106678213D01*
X148976472Y-106678220D01*
X149071779Y-106773527D01*
X149071786Y-106773532D01*
X149151842Y-106814322D01*
X149191874Y-106834719D01*
X149325000Y-106855804D01*
X149458126Y-106834719D01*
X149541420Y-106792278D01*
X149578213Y-106773532D01*
X149578215Y-106773530D01*
X149578220Y-106773528D01*
X149673528Y-106678220D01*
X149683766Y-106658128D01*
X149696740Y-106632664D01*
X149734719Y-106558126D01*
X149755804Y-106425000D01*
X149734719Y-106291874D01*
X149712603Y-106248470D01*
X149673511Y-106171745D01*
X149670568Y-106134358D01*
X149694925Y-106105841D01*
X149717170Y-106100500D01*
X150429456Y-106100500D01*
X150464104Y-106114852D01*
X150478456Y-106149500D01*
X150464104Y-106184148D01*
X150376472Y-106271779D01*
X150376467Y-106271786D01*
X150315282Y-106391871D01*
X150315281Y-106391872D01*
X150315281Y-106391874D01*
X150294196Y-106525000D01*
X150315281Y-106658126D01*
X150315281Y-106658127D01*
X150315282Y-106658128D01*
X150376467Y-106778213D01*
X150376472Y-106778220D01*
X150471779Y-106873527D01*
X150471786Y-106873532D01*
X150551842Y-106914322D01*
X150591874Y-106934719D01*
X150725000Y-106955804D01*
X150858126Y-106934719D01*
X150957819Y-106883923D01*
X150978213Y-106873532D01*
X150978215Y-106873530D01*
X150978220Y-106873528D01*
X151073528Y-106778220D01*
X151075920Y-106773527D01*
X151113383Y-106700000D01*
X151134719Y-106658126D01*
X151139966Y-106625000D01*
X155594196Y-106625000D01*
X155615281Y-106758126D01*
X155615281Y-106758127D01*
X155615282Y-106758128D01*
X155676467Y-106878213D01*
X155676472Y-106878220D01*
X155771779Y-106973527D01*
X155771786Y-106973532D01*
X155851842Y-107014322D01*
X155891874Y-107034719D01*
X156025000Y-107055804D01*
X156158126Y-107034719D01*
X156257652Y-106984008D01*
X156278213Y-106973532D01*
X156278215Y-106973530D01*
X156278220Y-106973528D01*
X156373528Y-106878220D01*
X156375920Y-106873527D01*
X156395694Y-106834717D01*
X156434719Y-106758126D01*
X156455804Y-106625000D01*
X156434719Y-106491874D01*
X156403185Y-106429985D01*
X156373532Y-106371786D01*
X156373527Y-106371779D01*
X156278220Y-106276472D01*
X156278213Y-106276467D01*
X156158128Y-106215282D01*
X156158127Y-106215281D01*
X156158126Y-106215281D01*
X156025000Y-106194196D01*
X155891874Y-106215281D01*
X155891872Y-106215281D01*
X155891871Y-106215282D01*
X155771786Y-106276467D01*
X155771779Y-106276472D01*
X155676472Y-106371779D01*
X155676467Y-106371786D01*
X155615282Y-106491871D01*
X155615281Y-106491872D01*
X155615281Y-106491874D01*
X155594196Y-106625000D01*
X151139966Y-106625000D01*
X151155804Y-106525000D01*
X151134719Y-106391874D01*
X151105923Y-106335358D01*
X151073532Y-106271786D01*
X151073527Y-106271779D01*
X150978220Y-106176472D01*
X150978213Y-106176467D01*
X150858128Y-106115282D01*
X150858127Y-106115281D01*
X150858126Y-106115281D01*
X150738639Y-106096356D01*
X150706664Y-106076761D01*
X150697909Y-106040295D01*
X150711655Y-106013315D01*
X150740460Y-105984511D01*
X151899970Y-104825000D01*
X154294196Y-104825000D01*
X154315281Y-104958126D01*
X154315281Y-104958127D01*
X154315282Y-104958128D01*
X154376467Y-105078213D01*
X154376472Y-105078220D01*
X154471779Y-105173527D01*
X154471786Y-105173532D01*
X154551842Y-105214322D01*
X154591874Y-105234719D01*
X154725000Y-105255804D01*
X154858126Y-105234719D01*
X154941420Y-105192278D01*
X154978213Y-105173532D01*
X154978215Y-105173530D01*
X154978220Y-105173528D01*
X155073528Y-105078220D01*
X155074422Y-105076467D01*
X155092278Y-105041420D01*
X155134719Y-104958126D01*
X155155804Y-104825000D01*
X155134719Y-104691874D01*
X155112633Y-104648527D01*
X155073532Y-104571786D01*
X155073527Y-104571779D01*
X154978220Y-104476472D01*
X154978213Y-104476467D01*
X154858128Y-104415282D01*
X154858127Y-104415281D01*
X154858126Y-104415281D01*
X154725000Y-104394196D01*
X154591874Y-104415281D01*
X154591872Y-104415281D01*
X154591871Y-104415282D01*
X154471786Y-104476467D01*
X154471779Y-104476472D01*
X154376472Y-104571779D01*
X154376467Y-104571786D01*
X154315282Y-104691871D01*
X154315281Y-104691872D01*
X154315281Y-104691874D01*
X154294196Y-104825000D01*
X151899970Y-104825000D01*
X152390231Y-104334738D01*
X152424878Y-104320387D01*
X152430721Y-104320737D01*
X152470380Y-104325500D01*
X152470382Y-104325500D01*
X153329621Y-104325500D01*
X153416072Y-104315118D01*
X153416073Y-104315117D01*
X153416077Y-104315117D01*
X153553658Y-104260862D01*
X153671500Y-104171500D01*
X153760862Y-104053658D01*
X153815117Y-103916077D01*
X153816401Y-103905391D01*
X153825500Y-103829621D01*
X153825500Y-102970378D01*
X153815118Y-102883927D01*
X153815117Y-102883925D01*
X153815117Y-102883923D01*
X153760862Y-102746342D01*
X153671500Y-102628500D01*
X153601410Y-102575349D01*
X153553660Y-102539139D01*
X153553658Y-102539138D01*
X153416077Y-102484883D01*
X153416075Y-102484882D01*
X153416071Y-102484881D01*
X153416072Y-102484881D01*
X153329621Y-102474500D01*
X153329618Y-102474500D01*
X152470382Y-102474500D01*
X152470379Y-102474500D01*
X152383927Y-102484881D01*
X152246339Y-102539139D01*
X152128500Y-102628500D01*
X152039139Y-102746339D01*
X151984881Y-102883927D01*
X151974500Y-102970378D01*
X151974500Y-102970382D01*
X151974500Y-103829618D01*
X151976888Y-103849506D01*
X151979262Y-103869279D01*
X151969142Y-103905391D01*
X151965259Y-103909768D01*
X151888199Y-103986828D01*
X151853551Y-104001180D01*
X151818903Y-103986828D01*
X151804551Y-103952180D01*
X151807966Y-103934208D01*
X151815117Y-103916077D01*
X151816401Y-103905391D01*
X151825500Y-103829621D01*
X151825500Y-102970378D01*
X151815118Y-102883927D01*
X151815117Y-102883925D01*
X151815117Y-102883923D01*
X151760862Y-102746342D01*
X151671500Y-102628500D01*
X151601410Y-102575349D01*
X151553660Y-102539139D01*
X151553658Y-102539138D01*
X151416077Y-102484883D01*
X151416075Y-102484882D01*
X151416071Y-102484881D01*
X151416072Y-102484881D01*
X151329621Y-102474500D01*
X151329618Y-102474500D01*
X150470382Y-102474500D01*
X150470379Y-102474500D01*
X150383927Y-102484881D01*
X150246339Y-102539139D01*
X150128500Y-102628500D01*
X150039139Y-102746339D01*
X149984881Y-102883927D01*
X149974500Y-102970378D01*
X149974500Y-103765848D01*
X149960148Y-103800496D01*
X149925500Y-103814848D01*
X149890852Y-103800496D01*
X149881841Y-103788093D01*
X149873532Y-103771786D01*
X149873527Y-103771779D01*
X149778220Y-103676472D01*
X149778213Y-103676467D01*
X149658128Y-103615282D01*
X149658127Y-103615281D01*
X149658126Y-103615281D01*
X149525000Y-103594196D01*
X149391874Y-103615281D01*
X149391872Y-103615281D01*
X149391871Y-103615282D01*
X149271786Y-103676467D01*
X149271779Y-103676472D01*
X149176472Y-103771779D01*
X149176467Y-103771786D01*
X149115282Y-103891871D01*
X149115281Y-103891872D01*
X149115281Y-103891874D01*
X149094196Y-104025000D01*
X149115281Y-104158126D01*
X149115281Y-104158127D01*
X149115282Y-104158128D01*
X149176467Y-104278213D01*
X149176472Y-104278220D01*
X149271780Y-104373528D01*
X149363869Y-104420450D01*
X149388225Y-104448966D01*
X149385283Y-104486353D01*
X149376271Y-104498756D01*
X147589881Y-106285148D01*
X147555233Y-106299500D01*
X142094767Y-106299500D01*
X142060119Y-106285148D01*
X141943159Y-106168188D01*
X141929411Y-106141207D01*
X141909719Y-106016874D01*
X141884241Y-105966871D01*
X141848532Y-105896786D01*
X141848527Y-105896779D01*
X141753220Y-105801472D01*
X141753213Y-105801467D01*
X141633128Y-105740282D01*
X141633127Y-105740281D01*
X141633126Y-105740281D01*
X141500000Y-105719196D01*
X141366874Y-105740281D01*
X141366872Y-105740281D01*
X141366871Y-105740282D01*
X141246786Y-105801467D01*
X141246779Y-105801472D01*
X141151472Y-105896779D01*
X141151467Y-105896786D01*
X141090282Y-106016871D01*
X141090281Y-106016872D01*
X141090281Y-106016874D01*
X141069196Y-106150000D01*
X137372885Y-106150000D01*
X137380804Y-106100000D01*
X137359719Y-105966874D01*
X137333834Y-105916072D01*
X137298532Y-105846786D01*
X137298527Y-105846779D01*
X137203220Y-105751472D01*
X137203213Y-105751467D01*
X137083128Y-105690282D01*
X137083127Y-105690281D01*
X137083126Y-105690281D01*
X136950000Y-105669196D01*
X136816874Y-105690281D01*
X136816872Y-105690281D01*
X136816871Y-105690282D01*
X136696786Y-105751467D01*
X136696779Y-105751472D01*
X136601472Y-105846779D01*
X136601467Y-105846786D01*
X136540282Y-105966871D01*
X136540281Y-105966872D01*
X136540281Y-105966874D01*
X136519196Y-106100000D01*
X135626844Y-106100000D01*
X135609719Y-105991877D01*
X135571097Y-105916077D01*
X135548532Y-105871789D01*
X135548527Y-105871782D01*
X135536394Y-105859649D01*
X135522042Y-105825001D01*
X135536393Y-105790354D01*
X135548528Y-105778220D01*
X135609719Y-105658126D01*
X135630804Y-105525000D01*
X135609719Y-105391874D01*
X135589322Y-105351842D01*
X135548532Y-105271786D01*
X135548527Y-105271779D01*
X135453220Y-105176472D01*
X135453213Y-105176467D01*
X135333128Y-105115282D01*
X135333127Y-105115281D01*
X135333126Y-105115281D01*
X135200000Y-105094196D01*
X135066874Y-105115281D01*
X135066872Y-105115281D01*
X135066871Y-105115282D01*
X134946786Y-105176467D01*
X134946779Y-105176472D01*
X134851472Y-105271779D01*
X134851467Y-105271786D01*
X134790282Y-105391871D01*
X134790281Y-105391872D01*
X134790281Y-105391874D01*
X134769196Y-105525000D01*
X134790281Y-105658126D01*
X134790281Y-105658127D01*
X134790282Y-105658128D01*
X134838752Y-105753258D01*
X134841695Y-105790645D01*
X134817338Y-105819162D01*
X134795093Y-105824503D01*
X131269770Y-105824503D01*
X131235122Y-105810151D01*
X130274971Y-104850000D01*
X136969196Y-104850000D01*
X136990281Y-104983126D01*
X136990281Y-104983127D01*
X136990282Y-104983128D01*
X137051467Y-105103213D01*
X137051472Y-105103220D01*
X137146779Y-105198527D01*
X137146786Y-105198532D01*
X137214682Y-105233126D01*
X137266874Y-105259719D01*
X137400000Y-105280804D01*
X137533126Y-105259719D01*
X137616420Y-105217278D01*
X137653213Y-105198532D01*
X137653215Y-105198530D01*
X137653220Y-105198528D01*
X137748528Y-105103220D01*
X137750169Y-105100000D01*
X139769196Y-105100000D01*
X139790281Y-105233126D01*
X139790281Y-105233127D01*
X139790282Y-105233128D01*
X139851467Y-105353213D01*
X139851472Y-105353220D01*
X139946779Y-105448527D01*
X139946786Y-105448532D01*
X140018651Y-105485148D01*
X140066874Y-105509719D01*
X140200000Y-105530804D01*
X140333126Y-105509719D01*
X140449350Y-105450500D01*
X140453213Y-105448532D01*
X140453215Y-105448530D01*
X140453220Y-105448528D01*
X140476748Y-105425000D01*
X144694196Y-105425000D01*
X144715281Y-105558126D01*
X144715281Y-105558127D01*
X144715282Y-105558128D01*
X144776467Y-105678213D01*
X144776472Y-105678220D01*
X144871779Y-105773527D01*
X144871786Y-105773532D01*
X144951842Y-105814322D01*
X144991874Y-105834719D01*
X145125000Y-105855804D01*
X145258126Y-105834719D01*
X145345205Y-105790350D01*
X145378213Y-105773532D01*
X145378215Y-105773530D01*
X145378220Y-105773528D01*
X145473528Y-105678220D01*
X145483766Y-105658128D01*
X145492278Y-105641420D01*
X145534719Y-105558126D01*
X145555804Y-105425000D01*
X145536006Y-105300000D01*
X145769196Y-105300000D01*
X145790281Y-105433126D01*
X145790281Y-105433127D01*
X145790282Y-105433128D01*
X145851467Y-105553213D01*
X145851472Y-105553220D01*
X145946779Y-105648527D01*
X145946786Y-105648532D01*
X146026842Y-105689322D01*
X146066874Y-105709719D01*
X146200000Y-105730804D01*
X146333126Y-105709719D01*
X146434383Y-105658126D01*
X146453213Y-105648532D01*
X146453215Y-105648530D01*
X146453220Y-105648528D01*
X146548528Y-105553220D01*
X146549422Y-105551467D01*
X146575900Y-105499500D01*
X146609719Y-105433126D01*
X146630804Y-105300000D01*
X146609719Y-105166874D01*
X146575645Y-105100000D01*
X146548532Y-105046786D01*
X146548527Y-105046779D01*
X146453220Y-104951472D01*
X146453213Y-104951467D01*
X146333128Y-104890282D01*
X146333127Y-104890281D01*
X146333126Y-104890281D01*
X146200000Y-104869196D01*
X146066874Y-104890281D01*
X146066872Y-104890281D01*
X146066871Y-104890282D01*
X145946786Y-104951467D01*
X145946779Y-104951472D01*
X145851472Y-105046779D01*
X145851467Y-105046786D01*
X145790282Y-105166871D01*
X145790281Y-105166872D01*
X145790281Y-105166874D01*
X145769196Y-105300000D01*
X145536006Y-105300000D01*
X145534719Y-105291874D01*
X145505596Y-105234717D01*
X145473532Y-105171786D01*
X145473526Y-105171778D01*
X145378220Y-105076472D01*
X145378213Y-105076467D01*
X145258128Y-105015282D01*
X145258127Y-105015281D01*
X145258126Y-105015281D01*
X145125000Y-104994196D01*
X144991874Y-105015281D01*
X144991872Y-105015281D01*
X144991871Y-105015282D01*
X144871786Y-105076467D01*
X144871779Y-105076472D01*
X144776474Y-105171778D01*
X144776467Y-105171786D01*
X144715282Y-105291871D01*
X144715281Y-105291872D01*
X144715281Y-105291874D01*
X144694196Y-105425000D01*
X140476748Y-105425000D01*
X140548528Y-105353220D01*
X140609719Y-105233126D01*
X140630804Y-105100000D01*
X140609719Y-104966874D01*
X140575645Y-104900000D01*
X142869196Y-104900000D01*
X142890281Y-105033126D01*
X142890281Y-105033127D01*
X142890282Y-105033128D01*
X142951467Y-105153213D01*
X142951472Y-105153220D01*
X143046779Y-105248527D01*
X143046786Y-105248532D01*
X143092426Y-105271786D01*
X143166874Y-105309719D01*
X143300000Y-105330804D01*
X143433126Y-105309719D01*
X143516420Y-105267278D01*
X143553213Y-105248532D01*
X143553215Y-105248530D01*
X143553220Y-105248528D01*
X143648528Y-105153220D01*
X143709719Y-105033126D01*
X143730804Y-104900000D01*
X143709719Y-104766874D01*
X143680596Y-104709717D01*
X143648532Y-104646786D01*
X143648526Y-104646778D01*
X143553220Y-104551472D01*
X143553213Y-104551467D01*
X143433128Y-104490282D01*
X143433127Y-104490281D01*
X143433126Y-104490281D01*
X143300000Y-104469196D01*
X143166874Y-104490281D01*
X143166872Y-104490281D01*
X143166871Y-104490282D01*
X143046786Y-104551467D01*
X143046779Y-104551472D01*
X142951474Y-104646778D01*
X142951467Y-104646786D01*
X142890282Y-104766871D01*
X142890281Y-104766872D01*
X142890281Y-104766874D01*
X142869196Y-104900000D01*
X140575645Y-104900000D01*
X140548532Y-104846786D01*
X140548527Y-104846779D01*
X140453220Y-104751472D01*
X140453213Y-104751467D01*
X140333128Y-104690282D01*
X140333127Y-104690281D01*
X140333126Y-104690281D01*
X140200000Y-104669196D01*
X140066874Y-104690281D01*
X140066872Y-104690281D01*
X140066871Y-104690282D01*
X139946786Y-104751467D01*
X139946779Y-104751472D01*
X139851472Y-104846779D01*
X139851467Y-104846786D01*
X139790282Y-104966871D01*
X139790281Y-104966872D01*
X139790281Y-104966874D01*
X139769196Y-105100000D01*
X137750169Y-105100000D01*
X137750424Y-105099500D01*
X137775390Y-105050500D01*
X137809719Y-104983126D01*
X137830804Y-104850000D01*
X137809719Y-104716874D01*
X137774895Y-104648528D01*
X137748532Y-104596786D01*
X137748527Y-104596779D01*
X137653220Y-104501472D01*
X137653213Y-104501467D01*
X137533128Y-104440282D01*
X137533127Y-104440281D01*
X137533126Y-104440281D01*
X137400000Y-104419196D01*
X137266874Y-104440281D01*
X137266872Y-104440281D01*
X137266871Y-104440282D01*
X137146786Y-104501467D01*
X137146779Y-104501472D01*
X137051472Y-104596779D01*
X137051467Y-104596786D01*
X136990282Y-104716871D01*
X136990281Y-104716872D01*
X136990281Y-104716874D01*
X136969196Y-104850000D01*
X130274971Y-104850000D01*
X129914852Y-104489881D01*
X129900500Y-104455233D01*
X129900500Y-104374500D01*
X129914852Y-104339852D01*
X129949500Y-104325500D01*
X130029621Y-104325500D01*
X130116071Y-104315118D01*
X130116072Y-104315117D01*
X130116077Y-104315117D01*
X130213949Y-104276521D01*
X130251443Y-104277162D01*
X130277506Y-104304129D01*
X130280319Y-104329770D01*
X130273235Y-104374500D01*
X130269196Y-104400000D01*
X130290281Y-104533126D01*
X130290281Y-104533127D01*
X130290282Y-104533128D01*
X130351467Y-104653213D01*
X130351472Y-104653220D01*
X130446779Y-104748527D01*
X130446786Y-104748532D01*
X130526842Y-104789322D01*
X130566874Y-104809719D01*
X130700000Y-104830804D01*
X130833126Y-104809719D01*
X130917220Y-104766871D01*
X130953213Y-104748532D01*
X130953215Y-104748530D01*
X130953220Y-104748528D01*
X131048528Y-104653220D01*
X131050920Y-104648527D01*
X131074897Y-104601467D01*
X131109719Y-104533126D01*
X131130804Y-104400000D01*
X131127979Y-104382164D01*
X131136734Y-104345698D01*
X131168711Y-104326103D01*
X131176376Y-104325500D01*
X132029621Y-104325500D01*
X132116072Y-104315118D01*
X132116073Y-104315117D01*
X132116077Y-104315117D01*
X132253658Y-104260862D01*
X132371500Y-104171500D01*
X132460862Y-104053658D01*
X132515117Y-103916077D01*
X132516401Y-103905391D01*
X132525500Y-103829621D01*
X132525500Y-103749500D01*
X132539852Y-103714852D01*
X132574500Y-103700500D01*
X132745092Y-103700500D01*
X132779740Y-103714852D01*
X132794092Y-103749500D01*
X132788751Y-103771745D01*
X132740282Y-103866871D01*
X132740281Y-103866872D01*
X132740281Y-103866874D01*
X132719196Y-104000000D01*
X132740281Y-104133126D01*
X132740281Y-104133127D01*
X132740282Y-104133128D01*
X132801467Y-104253213D01*
X132801472Y-104253220D01*
X132896779Y-104348527D01*
X132896786Y-104348532D01*
X132962796Y-104382165D01*
X133016874Y-104409719D01*
X133150000Y-104430804D01*
X133283126Y-104409719D01*
X133366420Y-104367278D01*
X133403213Y-104348532D01*
X133403215Y-104348530D01*
X133403220Y-104348528D01*
X133451748Y-104300000D01*
X133819196Y-104300000D01*
X133840281Y-104433126D01*
X133840281Y-104433127D01*
X133840282Y-104433128D01*
X133901467Y-104553213D01*
X133901472Y-104553220D01*
X133996779Y-104648527D01*
X133996786Y-104648532D01*
X134076842Y-104689322D01*
X134116874Y-104709719D01*
X134250000Y-104730804D01*
X134383126Y-104709719D01*
X134466420Y-104667278D01*
X134503213Y-104648532D01*
X134503215Y-104648530D01*
X134503220Y-104648528D01*
X134598528Y-104553220D01*
X134599422Y-104551467D01*
X134626279Y-104498756D01*
X134659719Y-104433126D01*
X134680804Y-104300000D01*
X134659719Y-104166874D01*
X134602033Y-104053658D01*
X134598532Y-104046786D01*
X134598526Y-104046778D01*
X134503220Y-103951472D01*
X134503213Y-103951467D01*
X134383128Y-103890282D01*
X134383127Y-103890281D01*
X134383126Y-103890281D01*
X134250000Y-103869196D01*
X134116874Y-103890281D01*
X134116872Y-103890281D01*
X134116871Y-103890282D01*
X133996786Y-103951467D01*
X133996779Y-103951472D01*
X133901474Y-104046778D01*
X133901467Y-104046786D01*
X133840282Y-104166871D01*
X133840281Y-104166872D01*
X133840281Y-104166874D01*
X133819196Y-104300000D01*
X133451748Y-104300000D01*
X133498528Y-104253220D01*
X133500920Y-104248527D01*
X133540166Y-104171500D01*
X133559719Y-104133126D01*
X133580804Y-104000000D01*
X133559719Y-103866874D01*
X133539986Y-103828146D01*
X133511249Y-103771745D01*
X133508306Y-103734358D01*
X133532663Y-103705841D01*
X133554908Y-103700500D01*
X134744405Y-103700500D01*
X134779053Y-103714852D01*
X134793405Y-103749500D01*
X134791007Y-103764642D01*
X134790281Y-103766874D01*
X134769196Y-103900000D01*
X134790281Y-104033126D01*
X134790281Y-104033127D01*
X134790282Y-104033128D01*
X134851467Y-104153213D01*
X134851472Y-104153220D01*
X134946779Y-104248527D01*
X134946786Y-104248532D01*
X135026842Y-104289322D01*
X135066874Y-104309719D01*
X135200000Y-104330804D01*
X135333126Y-104309719D01*
X135429017Y-104260860D01*
X135453213Y-104248532D01*
X135453215Y-104248530D01*
X135453220Y-104248528D01*
X135548528Y-104153220D01*
X135558766Y-104133128D01*
X135601419Y-104049415D01*
X135609719Y-104033126D01*
X135630804Y-103900000D01*
X136569196Y-103900000D01*
X136590281Y-104033126D01*
X136590281Y-104033127D01*
X136590282Y-104033128D01*
X136651467Y-104153213D01*
X136651472Y-104153220D01*
X136746779Y-104248527D01*
X136746786Y-104248532D01*
X136826842Y-104289322D01*
X136866874Y-104309719D01*
X137000000Y-104330804D01*
X137133126Y-104309719D01*
X137229017Y-104260860D01*
X137253213Y-104248532D01*
X137253215Y-104248530D01*
X137253220Y-104248528D01*
X137348528Y-104153220D01*
X137358766Y-104133128D01*
X137401419Y-104049415D01*
X137409719Y-104033126D01*
X137430804Y-103900000D01*
X137409719Y-103766874D01*
X137389322Y-103726842D01*
X137375646Y-103700000D01*
X143769196Y-103700000D01*
X143790281Y-103833126D01*
X143790281Y-103833127D01*
X143790282Y-103833128D01*
X143851467Y-103953213D01*
X143851472Y-103953220D01*
X143946779Y-104048527D01*
X143946786Y-104048532D01*
X144026842Y-104089322D01*
X144066874Y-104109719D01*
X144200000Y-104130804D01*
X144333126Y-104109719D01*
X144416420Y-104067278D01*
X144453213Y-104048532D01*
X144453215Y-104048530D01*
X144453220Y-104048528D01*
X144548528Y-103953220D01*
X144549422Y-103951467D01*
X144579787Y-103891871D01*
X144609719Y-103833126D01*
X144630804Y-103700000D01*
X144609719Y-103566874D01*
X144589322Y-103526842D01*
X144548532Y-103446786D01*
X144548527Y-103446779D01*
X144453220Y-103351472D01*
X144453213Y-103351467D01*
X144333128Y-103290282D01*
X144333127Y-103290281D01*
X144333126Y-103290281D01*
X144200000Y-103269196D01*
X144066874Y-103290281D01*
X144066872Y-103290281D01*
X144066871Y-103290282D01*
X143946786Y-103351467D01*
X143946779Y-103351472D01*
X143851472Y-103446779D01*
X143851467Y-103446786D01*
X143790282Y-103566871D01*
X143790281Y-103566872D01*
X143790281Y-103566874D01*
X143769196Y-103700000D01*
X137375646Y-103700000D01*
X137348532Y-103646786D01*
X137348527Y-103646779D01*
X137253220Y-103551472D01*
X137253213Y-103551467D01*
X137133128Y-103490282D01*
X137133127Y-103490281D01*
X137133126Y-103490281D01*
X137000000Y-103469196D01*
X136866874Y-103490281D01*
X136866872Y-103490281D01*
X136866871Y-103490282D01*
X136746786Y-103551467D01*
X136746779Y-103551472D01*
X136651472Y-103646779D01*
X136651467Y-103646786D01*
X136590282Y-103766871D01*
X136590281Y-103766872D01*
X136590281Y-103766874D01*
X136569196Y-103900000D01*
X135630804Y-103900000D01*
X135609719Y-103766874D01*
X135609716Y-103766868D01*
X135608993Y-103764642D01*
X135609116Y-103763073D01*
X135609115Y-103763065D01*
X135609117Y-103763064D01*
X135611936Y-103727254D01*
X135640453Y-103702898D01*
X135655595Y-103700500D01*
X135887952Y-103700500D01*
X135910197Y-103705841D01*
X135966874Y-103734719D01*
X136100000Y-103755804D01*
X136233126Y-103734719D01*
X136316420Y-103692278D01*
X136353213Y-103673532D01*
X136353215Y-103673530D01*
X136353220Y-103673528D01*
X136448528Y-103578220D01*
X136509719Y-103458126D01*
X136530804Y-103325000D01*
X136509719Y-103191874D01*
X136489322Y-103151842D01*
X136448532Y-103071786D01*
X136448527Y-103071779D01*
X136353220Y-102976472D01*
X136353213Y-102976467D01*
X136233128Y-102915282D01*
X136233127Y-102915281D01*
X136233126Y-102915281D01*
X136100000Y-102894196D01*
X135966874Y-102915281D01*
X135966872Y-102915281D01*
X135966871Y-102915282D01*
X135846786Y-102976467D01*
X135846779Y-102976472D01*
X135751472Y-103071779D01*
X135751468Y-103071784D01*
X135750979Y-103072746D01*
X135750428Y-103073215D01*
X135749202Y-103074904D01*
X135748796Y-103074609D01*
X135722461Y-103097102D01*
X135707320Y-103099500D01*
X132574500Y-103099500D01*
X132539852Y-103085148D01*
X132525500Y-103050500D01*
X132525500Y-102970378D01*
X132515118Y-102883927D01*
X132515117Y-102883925D01*
X132515117Y-102883923D01*
X132460862Y-102746342D01*
X132371500Y-102628500D01*
X132301410Y-102575349D01*
X132253660Y-102539139D01*
X132253658Y-102539138D01*
X132116077Y-102484883D01*
X132116075Y-102484882D01*
X132116071Y-102484881D01*
X132116072Y-102484881D01*
X132029621Y-102474500D01*
X132029618Y-102474500D01*
X131170382Y-102474500D01*
X131170379Y-102474500D01*
X131083927Y-102484881D01*
X130946339Y-102539139D01*
X130828500Y-102628500D01*
X130739139Y-102746339D01*
X130684881Y-102883927D01*
X130674500Y-102970378D01*
X130674500Y-103829621D01*
X130684881Y-103916072D01*
X130685227Y-103917438D01*
X130685127Y-103918118D01*
X130685257Y-103919197D01*
X130684964Y-103919232D01*
X130679806Y-103954547D01*
X130649733Y-103976954D01*
X130645390Y-103977845D01*
X130566874Y-103990281D01*
X130566873Y-103990281D01*
X130565170Y-103990551D01*
X130528703Y-103981796D01*
X130509108Y-103949819D01*
X130511922Y-103924177D01*
X130515117Y-103916077D01*
X130518215Y-103890281D01*
X130525500Y-103829621D01*
X130525500Y-102970378D01*
X130515118Y-102883927D01*
X130515117Y-102883925D01*
X130515117Y-102883923D01*
X130460862Y-102746342D01*
X130371500Y-102628500D01*
X130301410Y-102575349D01*
X130253660Y-102539139D01*
X130253658Y-102539138D01*
X130116077Y-102484883D01*
X130116075Y-102484882D01*
X130116071Y-102484881D01*
X130116072Y-102484881D01*
X130029621Y-102474500D01*
X130029618Y-102474500D01*
X129170382Y-102474500D01*
X129170379Y-102474500D01*
X129083927Y-102484881D01*
X128946339Y-102539139D01*
X128828500Y-102628500D01*
X128739139Y-102746339D01*
X128684881Y-102883927D01*
X128674500Y-102970378D01*
X128674500Y-103829621D01*
X128684881Y-103916072D01*
X128684883Y-103916077D01*
X128706218Y-103970180D01*
X128739139Y-104053660D01*
X128775349Y-104101410D01*
X128828500Y-104171500D01*
X128946342Y-104260862D01*
X129083923Y-104315117D01*
X129083926Y-104315117D01*
X129083928Y-104315118D01*
X129083927Y-104315118D01*
X129170379Y-104325500D01*
X129170382Y-104325500D01*
X129250500Y-104325500D01*
X129285148Y-104339852D01*
X129299500Y-104374500D01*
X129299500Y-104639563D01*
X129319979Y-104715989D01*
X129319979Y-104715991D01*
X129346832Y-104762500D01*
X129359540Y-104784511D01*
X130890881Y-106315852D01*
X130905233Y-106350500D01*
X130890881Y-106385148D01*
X130856233Y-106399500D01*
X129061020Y-106399500D01*
X129026372Y-106385148D01*
X129012020Y-106350500D01*
X129026372Y-106315852D01*
X129038775Y-106306841D01*
X129153213Y-106248532D01*
X129153215Y-106248530D01*
X129153220Y-106248528D01*
X129248528Y-106153220D01*
X129250424Y-106149500D01*
X129278602Y-106094196D01*
X129309719Y-106033126D01*
X129330804Y-105900000D01*
X129309719Y-105766874D01*
X129285426Y-105719196D01*
X129248532Y-105646786D01*
X129248526Y-105646778D01*
X129153220Y-105551472D01*
X129153213Y-105551467D01*
X129033128Y-105490282D01*
X129033127Y-105490281D01*
X129033126Y-105490281D01*
X128900000Y-105469196D01*
X128766874Y-105490281D01*
X128766872Y-105490281D01*
X128766871Y-105490282D01*
X128646786Y-105551467D01*
X128646779Y-105551472D01*
X128551474Y-105646778D01*
X128551467Y-105646786D01*
X128490282Y-105766871D01*
X128490281Y-105766872D01*
X128490281Y-105766874D01*
X128469196Y-105900000D01*
X128490281Y-106033126D01*
X128490281Y-106033127D01*
X128490282Y-106033128D01*
X128551467Y-106153213D01*
X128551472Y-106153220D01*
X128646779Y-106248527D01*
X128646786Y-106248532D01*
X128761225Y-106306841D01*
X128785582Y-106335358D01*
X128782639Y-106372745D01*
X128754122Y-106397102D01*
X128738980Y-106399500D01*
X127761020Y-106399500D01*
X127726372Y-106385148D01*
X127712020Y-106350500D01*
X127726372Y-106315852D01*
X127738775Y-106306841D01*
X127853213Y-106248532D01*
X127853215Y-106248530D01*
X127853220Y-106248528D01*
X127948528Y-106153220D01*
X127950424Y-106149500D01*
X127978602Y-106094196D01*
X128009719Y-106033126D01*
X128030804Y-105900000D01*
X128009719Y-105766874D01*
X127985426Y-105719196D01*
X127948532Y-105646786D01*
X127948526Y-105646778D01*
X127853220Y-105551472D01*
X127853213Y-105551467D01*
X127733128Y-105490282D01*
X127733127Y-105490281D01*
X127733126Y-105490281D01*
X127600000Y-105469196D01*
X127466874Y-105490281D01*
X127466872Y-105490281D01*
X127466871Y-105490282D01*
X127346786Y-105551467D01*
X127346779Y-105551472D01*
X127251474Y-105646778D01*
X127251467Y-105646786D01*
X127190282Y-105766870D01*
X127190281Y-105766872D01*
X127190281Y-105766874D01*
X127177625Y-105846779D01*
X127170589Y-105891205D01*
X127156840Y-105918187D01*
X125989881Y-107085148D01*
X125955233Y-107099500D01*
X123874500Y-107099500D01*
X123839852Y-107085148D01*
X123825500Y-107050500D01*
X123825500Y-106970378D01*
X123815118Y-106883927D01*
X123815117Y-106883925D01*
X123815117Y-106883923D01*
X123760862Y-106746342D01*
X123671500Y-106628500D01*
X123590230Y-106566871D01*
X123553660Y-106539139D01*
X123553658Y-106539138D01*
X123416077Y-106484883D01*
X123416075Y-106484882D01*
X123416071Y-106484881D01*
X123416072Y-106484881D01*
X123329621Y-106474500D01*
X123329618Y-106474500D01*
X122470382Y-106474500D01*
X122470379Y-106474500D01*
X122383927Y-106484881D01*
X122246339Y-106539139D01*
X122128500Y-106628500D01*
X122039139Y-106746339D01*
X121984881Y-106883927D01*
X121974500Y-106970378D01*
X121974500Y-107829621D01*
X121984881Y-107916072D01*
X121985227Y-107917438D01*
X121985127Y-107918118D01*
X121985257Y-107919197D01*
X121984964Y-107919232D01*
X121979806Y-107954547D01*
X121949733Y-107976954D01*
X121945395Y-107977844D01*
X121866874Y-107990281D01*
X121866872Y-107990281D01*
X121866870Y-107990282D01*
X121746786Y-108051467D01*
X121746779Y-108051472D01*
X121651472Y-108146779D01*
X121651467Y-108146786D01*
X121590282Y-108266871D01*
X121590281Y-108266872D01*
X121590281Y-108266874D01*
X121569196Y-108400000D01*
X117799971Y-108400000D01*
X117443159Y-108043188D01*
X117429411Y-108016207D01*
X117409719Y-107891874D01*
X117384241Y-107841871D01*
X117348532Y-107771786D01*
X117348527Y-107771779D01*
X117253220Y-107676472D01*
X117253213Y-107676467D01*
X117133128Y-107615282D01*
X117133127Y-107615281D01*
X117133126Y-107615281D01*
X117000000Y-107594196D01*
X116866874Y-107615281D01*
X116866873Y-107615281D01*
X116866869Y-107615282D01*
X116864635Y-107616008D01*
X116863068Y-107615884D01*
X116863065Y-107615885D01*
X116863064Y-107615884D01*
X116827248Y-107613060D01*
X116802896Y-107584539D01*
X116800500Y-107569404D01*
X116800500Y-107244767D01*
X116814852Y-107210119D01*
X118310119Y-105714852D01*
X118344767Y-105700500D01*
X121925500Y-105700500D01*
X121960148Y-105714852D01*
X121974500Y-105749500D01*
X121974500Y-105829621D01*
X121984881Y-105916072D01*
X121984883Y-105916077D01*
X122033933Y-106040460D01*
X122039139Y-106053660D01*
X122074280Y-106100000D01*
X122128500Y-106171500D01*
X122209769Y-106233128D01*
X122242740Y-106258131D01*
X122246342Y-106260862D01*
X122383923Y-106315117D01*
X122383926Y-106315117D01*
X122383928Y-106315118D01*
X122383927Y-106315118D01*
X122470379Y-106325500D01*
X122470382Y-106325500D01*
X123329621Y-106325500D01*
X123416072Y-106315118D01*
X123416073Y-106315117D01*
X123416077Y-106315117D01*
X123553658Y-106260862D01*
X123671500Y-106171500D01*
X123760862Y-106053658D01*
X123815117Y-105916077D01*
X123817435Y-105896780D01*
X123825500Y-105829621D01*
X123825500Y-104970378D01*
X123823053Y-104950000D01*
X125319196Y-104950000D01*
X125340281Y-105083126D01*
X125340281Y-105083127D01*
X125340282Y-105083128D01*
X125401467Y-105203213D01*
X125401472Y-105203220D01*
X125496779Y-105298527D01*
X125496786Y-105298532D01*
X125560123Y-105330803D01*
X125616874Y-105359719D01*
X125750000Y-105380804D01*
X125883126Y-105359719D01*
X125966420Y-105317278D01*
X126003213Y-105298532D01*
X126003215Y-105298530D01*
X126003220Y-105298528D01*
X126098528Y-105203220D01*
X126100920Y-105198527D01*
X126140941Y-105119979D01*
X126159719Y-105083126D01*
X126180804Y-104950000D01*
X126159719Y-104816874D01*
X126126395Y-104751472D01*
X126098532Y-104696786D01*
X126098527Y-104696779D01*
X126003220Y-104601472D01*
X126003213Y-104601467D01*
X125883128Y-104540282D01*
X125883127Y-104540281D01*
X125883126Y-104540281D01*
X125750000Y-104519196D01*
X125616874Y-104540281D01*
X125616872Y-104540281D01*
X125616871Y-104540282D01*
X125496786Y-104601467D01*
X125496779Y-104601472D01*
X125401472Y-104696779D01*
X125401467Y-104696786D01*
X125340282Y-104816871D01*
X125340281Y-104816872D01*
X125340281Y-104816874D01*
X125319196Y-104950000D01*
X123823053Y-104950000D01*
X123815118Y-104883927D01*
X123815117Y-104883925D01*
X123815117Y-104883923D01*
X123760862Y-104746342D01*
X123749078Y-104730803D01*
X123738516Y-104716874D01*
X123671500Y-104628500D01*
X123569923Y-104551472D01*
X123553660Y-104539139D01*
X123553658Y-104539138D01*
X123416077Y-104484883D01*
X123416075Y-104484882D01*
X123416071Y-104484881D01*
X123416072Y-104484881D01*
X123329621Y-104474500D01*
X123329618Y-104474500D01*
X122470382Y-104474500D01*
X122470379Y-104474500D01*
X122383927Y-104484881D01*
X122246339Y-104539139D01*
X122128500Y-104628500D01*
X122039139Y-104746339D01*
X121984881Y-104883927D01*
X121974500Y-104970378D01*
X121974500Y-105050500D01*
X121960148Y-105085148D01*
X121925500Y-105099500D01*
X118160436Y-105099500D01*
X118084012Y-105119978D01*
X118084008Y-105119979D01*
X118026437Y-105153219D01*
X118026436Y-105153220D01*
X118015492Y-105159537D01*
X118015486Y-105159542D01*
X116259541Y-106915488D01*
X116259540Y-106915488D01*
X116219979Y-106984008D01*
X116219979Y-106984010D01*
X116199500Y-107060436D01*
X116199500Y-112203456D01*
X116185148Y-112238104D01*
X116151472Y-112271779D01*
X116151467Y-112271786D01*
X116090282Y-112391871D01*
X116090281Y-112391872D01*
X116090281Y-112391874D01*
X116069196Y-112525000D01*
X111000000Y-112525000D01*
X111000000Y-104049415D01*
X111000004Y-104048815D01*
X111000483Y-104009717D01*
X111001174Y-103953264D01*
X111001467Y-103948491D01*
X111011765Y-103855611D01*
X111012402Y-103851494D01*
X111021109Y-103807723D01*
X111022268Y-103803097D01*
X111076946Y-103622847D01*
X111080616Y-103613987D01*
X111088092Y-103600000D01*
X123619196Y-103600000D01*
X123640281Y-103733126D01*
X123640281Y-103733127D01*
X123640282Y-103733128D01*
X123701467Y-103853213D01*
X123701472Y-103853220D01*
X123796779Y-103948527D01*
X123796786Y-103948532D01*
X123862072Y-103981796D01*
X123916874Y-104009719D01*
X124050000Y-104030804D01*
X124183126Y-104009719D01*
X124266420Y-103967278D01*
X124303213Y-103948532D01*
X124303215Y-103948530D01*
X124303220Y-103948528D01*
X124365352Y-103886396D01*
X124400000Y-103872044D01*
X124434648Y-103886396D01*
X124496779Y-103948527D01*
X124496786Y-103948532D01*
X124562072Y-103981796D01*
X124616874Y-104009719D01*
X124750000Y-104030804D01*
X124883126Y-104009719D01*
X124966420Y-103967278D01*
X125003213Y-103948532D01*
X125003215Y-103948530D01*
X125003220Y-103948528D01*
X125065352Y-103886396D01*
X125100000Y-103872044D01*
X125134648Y-103886396D01*
X125196779Y-103948527D01*
X125196786Y-103948532D01*
X125262072Y-103981796D01*
X125316874Y-104009719D01*
X125450000Y-104030804D01*
X125583126Y-104009719D01*
X125666420Y-103967278D01*
X125703213Y-103948532D01*
X125703215Y-103948530D01*
X125703220Y-103948528D01*
X125798528Y-103853220D01*
X125799408Y-103851494D01*
X125831712Y-103788093D01*
X125859719Y-103733126D01*
X125880804Y-103600000D01*
X125859719Y-103466874D01*
X125839322Y-103426842D01*
X125798532Y-103346786D01*
X125798527Y-103346779D01*
X125703220Y-103251472D01*
X125703213Y-103251467D01*
X125583128Y-103190282D01*
X125583127Y-103190281D01*
X125583126Y-103190281D01*
X125450000Y-103169196D01*
X125316874Y-103190281D01*
X125316872Y-103190281D01*
X125316871Y-103190282D01*
X125196786Y-103251467D01*
X125196778Y-103251473D01*
X125134648Y-103313603D01*
X125100000Y-103327955D01*
X125065352Y-103313603D01*
X125003221Y-103251473D01*
X125003213Y-103251467D01*
X124883128Y-103190282D01*
X124883127Y-103190281D01*
X124883126Y-103190281D01*
X124750000Y-103169196D01*
X124616874Y-103190281D01*
X124616872Y-103190281D01*
X124616871Y-103190282D01*
X124496786Y-103251467D01*
X124496778Y-103251473D01*
X124434648Y-103313603D01*
X124400000Y-103327955D01*
X124365352Y-103313603D01*
X124303221Y-103251473D01*
X124303213Y-103251467D01*
X124183128Y-103190282D01*
X124183127Y-103190281D01*
X124183126Y-103190281D01*
X124050000Y-103169196D01*
X123916874Y-103190281D01*
X123916872Y-103190281D01*
X123916871Y-103190282D01*
X123796786Y-103251467D01*
X123796779Y-103251472D01*
X123701472Y-103346779D01*
X123701467Y-103346786D01*
X123640282Y-103466871D01*
X123640281Y-103466872D01*
X123640281Y-103466874D01*
X123619196Y-103600000D01*
X111088092Y-103600000D01*
X111168257Y-103450022D01*
X111173585Y-103442047D01*
X111291537Y-103298321D01*
X111298321Y-103291537D01*
X111442047Y-103173585D01*
X111450022Y-103168257D01*
X111613987Y-103080616D01*
X111622847Y-103076946D01*
X111803097Y-103022268D01*
X111807723Y-103021109D01*
X111851494Y-103012402D01*
X111855611Y-103011765D01*
X111948491Y-103001467D01*
X111953264Y-103001174D01*
X112048816Y-103000004D01*
X112049416Y-103000000D01*
X121450858Y-103000000D01*
X121501204Y-102950873D01*
X121501203Y-102950873D01*
X121501203Y-102950872D01*
X121503921Y-102948220D01*
X121502573Y-102938514D01*
X121507487Y-102894196D01*
X121511765Y-102855611D01*
X121512402Y-102851494D01*
X121521109Y-102807723D01*
X121522268Y-102803097D01*
X121576946Y-102622847D01*
X121580616Y-102613987D01*
X121668257Y-102450022D01*
X121673585Y-102442047D01*
X121791537Y-102298321D01*
X121798321Y-102291537D01*
X121942047Y-102173585D01*
X121950022Y-102168257D01*
X122113987Y-102080616D01*
X122122847Y-102076946D01*
X122303097Y-102022268D01*
X122307723Y-102021109D01*
X122351494Y-102012402D01*
X122355611Y-102011765D01*
X122448491Y-102001467D01*
X122453264Y-102001174D01*
X122548816Y-102000004D01*
X122549416Y-102000000D01*
X159251000Y-102000000D01*
X159285648Y-102014352D01*
G37*
%TD.AperFunction*%
%TD*%
M02*
