M48
; DRILL file {KiCad 8.0.4} date 2024-10-14T21:13:47+0200
; FORMAT={-:-/ absolute / inch / decimal}
; #@! TF.CreationDate,2024-10-14T21:13:47+02:00
; #@! TF.GenerationSoftware,Kicad,Pcbnew,8.0.4
; #@! TF.FileFunction,Plated,1,4,PTH
FMAT,2
INCH
; #@! TA.AperFunction,Plated,PTH,ViaDrill
T1C0.0079
; #@! TA.AperFunction,Plated,PTH,ViaDrill
T2C0.0118
; #@! TA.AperFunction,Plated,PTH,ComponentDrill
T3C0.0197
; #@! TA.AperFunction,Plated,PTH,ComponentDrill
T4C0.0394
%
G90
G05
T1
X5.0394Y-4.0827
X5.0591Y-4.1772
X5.2638Y-4.2244
T2
X4.561Y-4.4232
X4.5807Y-4.2461
X4.5807Y-4.3268
X4.8031Y-4.2677
X4.8189Y-4.3327
X4.8189Y-4.3583
X4.878Y-4.3742
X4.937Y-4.0512
X4.937Y-4.0787
X4.9527Y-4.1771
X4.9528Y-4.1339
X4.9547Y-4.4774
X4.9803Y-4.4764
X4.9803Y-4.5039
X5.0039Y-4.3819
X5.0039Y-4.4094
X5.0045Y-4.3505
X5.0118Y-4.252
X5.0118Y-4.3228
X5.0122Y-4.2917
X5.0236Y-4.5354
X5.0394Y-4.4528
X5.0551Y-4.1102
X5.0571Y-4.252
X5.0709Y-4.4528
X5.1063Y-4.3504
X5.1102Y-4.4528
X5.1299Y-4.5354
X5.1988Y-4.251
X5.2008Y-4.3445
X5.2323Y-4.2244
X5.2835Y-4.0463
X5.2854Y-4.2008
X5.2992Y-4.1024
X5.2992Y-4.4134
X5.3189Y-4.1575
X5.3189Y-4.1841
X5.3228Y-4.0906
X5.3228Y-4.315
X5.3425Y-4.2677
X5.3504Y-4.315
X5.3602Y-4.5177
X5.3701Y-4.2677
X5.378Y-4.315
X5.3898Y-4.1024
X5.3976Y-4.1732
X5.4016Y-4.2677
X5.4094Y-4.0817
X5.4094Y-4.128
X5.4094Y-4.5315
X5.4429Y-4.439
X5.5276Y-4.1339
X5.5709Y-4.1791
X5.5709Y-4.2165
X5.5709Y-4.372
X5.6417Y-4.1339
X5.6772Y-4.0827
X5.6969Y-4.4173
X5.7087Y-4.1417
X5.7559Y-4.1457
X5.7736Y-4.4449
X5.7805Y-4.2766
X5.8112Y-4.4449
X5.8642Y-4.0945
X5.8789Y-4.19
X5.8789Y-4.378
X5.9018Y-4.1348
X5.9114Y-4.1781
X5.9134Y-4.2205
X5.9134Y-4.248
X5.9134Y-4.4134
X5.9173Y-4.3268
X5.9173Y-4.3661
X5.9567Y-4.2992
X5.9567Y-4.3268
X5.9646Y-4.2402
X5.9656Y-4.2726
X5.997Y-4.3789
X6.0758Y-4.3041
X6.0812Y-4.4173
X6.0915Y-4.127
X6.1142Y-4.4173
X6.1191Y-4.1803
X6.1417Y-4.3974
X6.1713Y-4.3937
T3
X6.6339Y-4.2431
X6.6339Y-4.3238
X6.6535Y-4.1467
X6.6535Y-4.4203
T4
X5.4921Y-4.2087
X5.4921Y-4.3087
X5.4921Y-4.4087
X5.4921Y-4.5087
M30
