%TF.GenerationSoftware,KiCad,Pcbnew,8.0.4*%
%TF.CreationDate,2024-09-02T22:56:13+02:00*%
%TF.ProjectId,elrs-sim,656c7273-2d73-4696-9d2e-6b696361645f,rev?*%
%TF.SameCoordinates,Original*%
%TF.FileFunction,Legend,Top*%
%TF.FilePolarity,Positive*%
%FSLAX46Y46*%
G04 Gerber Fmt 4.6, Leading zero omitted, Abs format (unit mm)*
G04 Created by KiCad (PCBNEW 8.0.4) date 2024-09-02 22:56:13*
%MOMM*%
%LPD*%
G01*
G04 APERTURE LIST*
G04 Aperture macros list*
%AMRoundRect*
0 Rectangle with rounded corners*
0 $1 Rounding radius*
0 $2 $3 $4 $5 $6 $7 $8 $9 X,Y pos of 4 corners*
0 Add a 4 corners polygon primitive as box body*
4,1,4,$2,$3,$4,$5,$6,$7,$8,$9,$2,$3,0*
0 Add four circle primitives for the rounded corners*
1,1,$1+$1,$2,$3*
1,1,$1+$1,$4,$5*
1,1,$1+$1,$6,$7*
1,1,$1+$1,$8,$9*
0 Add four rect primitives between the rounded corners*
20,1,$1+$1,$2,$3,$4,$5,0*
20,1,$1+$1,$4,$5,$6,$7,0*
20,1,$1+$1,$6,$7,$8,$9,0*
20,1,$1+$1,$8,$9,$2,$3,0*%
%AMFreePoly0*
4,1,6,1.000000,0.000000,0.500000,-0.750000,-0.500000,-0.750000,-0.500000,0.750000,0.500000,0.750000,1.000000,0.000000,1.000000,0.000000,$1*%
%AMFreePoly1*
4,1,6,0.500000,-0.750000,-0.650000,-0.750000,-0.150000,0.000000,-0.650000,0.750000,0.500000,0.750000,0.500000,-0.750000,0.500000,-0.750000,$1*%
G04 Aperture macros list end*
%ADD10C,0.120000*%
%ADD11C,0.100000*%
%ADD12C,0.200000*%
%ADD13C,0.250000*%
%ADD14RoundRect,0.102000X0.323000X-0.373000X0.323000X0.373000X-0.323000X0.373000X-0.323000X-0.373000X0*%
%ADD15R,0.240000X0.900000*%
%ADD16R,0.900000X0.240000*%
%ADD17R,0.900000X1.400000*%
%ADD18RoundRect,0.102000X0.373000X0.323000X-0.373000X0.323000X-0.373000X-0.323000X0.373000X-0.323000X0*%
%ADD19RoundRect,0.135000X0.135000X0.185000X-0.135000X0.185000X-0.135000X-0.185000X0.135000X-0.185000X0*%
%ADD20R,0.600000X0.600000*%
%ADD21R,0.300000X1.450000*%
%ADD22RoundRect,0.218750X-0.218750X-0.256250X0.218750X-0.256250X0.218750X0.256250X-0.218750X0.256250X0*%
%ADD23RoundRect,0.135000X-0.135000X-0.185000X0.135000X-0.185000X0.135000X0.185000X-0.135000X0.185000X0*%
%ADD24RoundRect,0.140000X0.140000X0.170000X-0.140000X0.170000X-0.140000X-0.170000X0.140000X-0.170000X0*%
%ADD25RoundRect,0.140000X-0.140000X-0.170000X0.140000X-0.170000X0.140000X0.170000X-0.140000X0.170000X0*%
%ADD26R,1.000000X2.300000*%
%ADD27R,0.300000X0.850000*%
%ADD28R,0.850000X0.300000*%
%ADD29R,2.650000X2.650000*%
%ADD30RoundRect,0.150000X-0.150000X0.512500X-0.150000X-0.512500X0.150000X-0.512500X0.150000X0.512500X0*%
%ADD31RoundRect,0.102000X-0.373000X-0.323000X0.373000X-0.323000X0.373000X0.323000X-0.373000X0.323000X0*%
%ADD32RoundRect,0.050000X0.050000X-0.387500X0.050000X0.387500X-0.050000X0.387500X-0.050000X-0.387500X0*%
%ADD33RoundRect,0.050000X0.387500X-0.050000X0.387500X0.050000X-0.387500X0.050000X-0.387500X-0.050000X0*%
%ADD34R,3.200000X3.200000*%
%ADD35RoundRect,0.500000X3.500000X-0.500000X3.500000X0.500000X-3.500000X0.500000X-3.500000X-0.500000X0*%
%ADD36RoundRect,0.500000X3.000000X-0.250000X3.000000X0.250000X-3.000000X0.250000X-3.000000X-0.250000X0*%
%ADD37FreePoly0,180.000000*%
%ADD38FreePoly1,180.000000*%
%ADD39RoundRect,0.140000X-0.170000X0.140000X-0.170000X-0.140000X0.170000X-0.140000X0.170000X0.140000X0*%
%ADD40R,0.900000X1.700000*%
%ADD41RoundRect,0.062500X-0.062500X0.387500X-0.062500X-0.387500X0.062500X-0.387500X0.062500X0.387500X0*%
%ADD42R,1.600000X0.200000*%
%ADD43RoundRect,0.140000X0.170000X-0.140000X0.170000X0.140000X-0.170000X0.140000X-0.170000X-0.140000X0*%
%ADD44R,1.700000X1.700000*%
%ADD45O,1.700000X1.700000*%
%ADD46RoundRect,0.500000X-3.500000X0.500000X-3.500000X-0.500000X3.500000X-0.500000X3.500000X0.500000X0*%
%ADD47RoundRect,0.500000X-3.000000X0.250000X-3.000000X-0.250000X3.000000X-0.250000X3.000000X0.250000X0*%
%ADD48RoundRect,0.135000X0.185000X-0.135000X0.185000X0.135000X-0.185000X0.135000X-0.185000X-0.135000X0*%
%ADD49R,0.300000X0.800000*%
%ADD50R,0.800000X0.300000*%
%ADD51R,3.750000X3.750000*%
%ADD52R,2.300000X1.000000*%
G04 APERTURE END LIST*
D10*
%TO.C,X2*%
X143600000Y-110600000D02*
X143600000Y-107800000D01*
X141200000Y-110600000D02*
X143600000Y-110600000D01*
D11*
%TO.C,IC3*%
X135250000Y-102050000D02*
X135250000Y-102050000D01*
X135250000Y-102150000D02*
X135250000Y-102150000D01*
D12*
X136100000Y-103100000D02*
X136750000Y-103100000D01*
X134900000Y-103100000D02*
X134250000Y-103100000D01*
X136100000Y-106100000D02*
X136750000Y-106100000D01*
X134250000Y-106100000D02*
X134900000Y-106100000D01*
D11*
X135250000Y-102050000D02*
G75*
G02*
X135250000Y-102150000I0J-50000D01*
G01*
X135250000Y-102150000D02*
G75*
G02*
X135250000Y-102050000I0J50000D01*
G01*
D10*
%TO.C,X1*%
X136825000Y-112225000D02*
X134025000Y-112225000D01*
X136825000Y-114625000D02*
X136825000Y-112225000D01*
%TO.C,R6*%
X144778641Y-111845000D02*
X144471359Y-111845000D01*
X144778641Y-112605000D02*
X144471359Y-112605000D01*
D11*
%TO.C,ANT1*%
X156900000Y-109025000D02*
X156900000Y-109025000D01*
X157000000Y-109025000D02*
X157000000Y-109025000D01*
X156900000Y-109025000D02*
G75*
G02*
X157000000Y-109025000I50000J0D01*
G01*
X157000000Y-109025000D02*
G75*
G02*
X156900000Y-109025000I-50000J0D01*
G01*
D10*
%TO.C,D2*%
X130515000Y-102065000D02*
X130515000Y-103535000D01*
X130515000Y-103535000D02*
X132800000Y-103535000D01*
X132800000Y-102065000D02*
X130515000Y-102065000D01*
%TO.C,R10*%
X131846359Y-105520000D02*
X132153641Y-105520000D01*
X131846359Y-106280000D02*
X132153641Y-106280000D01*
%TO.C,R7*%
X147678641Y-104645000D02*
X147371359Y-104645000D01*
X147678641Y-105405000D02*
X147371359Y-105405000D01*
%TO.C,C1*%
X126627836Y-114840000D02*
X126412164Y-114840000D01*
X126627836Y-115560000D02*
X126412164Y-115560000D01*
%TO.C,C5*%
X136427836Y-111240000D02*
X136212164Y-111240000D01*
X136427836Y-111960000D02*
X136212164Y-111960000D01*
%TO.C,C10*%
X147017164Y-111865000D02*
X147232836Y-111865000D01*
X147017164Y-112585000D02*
X147232836Y-112585000D01*
%TO.C,C14*%
X131112164Y-114840000D02*
X131327836Y-114840000D01*
X131112164Y-115560000D02*
X131327836Y-115560000D01*
%TO.C,C13*%
X124707836Y-108940000D02*
X124492164Y-108940000D01*
X124707836Y-109660000D02*
X124492164Y-109660000D01*
%TO.C,C12*%
X142832836Y-111865000D02*
X142617164Y-111865000D01*
X142832836Y-112585000D02*
X142617164Y-112585000D01*
D13*
%TO.C,L2*%
X143725000Y-112795000D02*
X148925000Y-112795000D01*
X144545000Y-113665000D02*
X144545000Y-114685000D01*
X144545000Y-114685000D02*
X145305000Y-114685000D01*
X145305000Y-113665000D02*
X144545000Y-113665000D01*
X145305000Y-114685000D02*
X145305000Y-113665000D01*
X148865000Y-115555000D02*
X143665000Y-115555000D01*
%TO.C,IC1*%
X156450000Y-106950000D02*
G75*
G02*
X156200000Y-106950000I-125000J0D01*
G01*
X156200000Y-106950000D02*
G75*
G02*
X156450000Y-106950000I125000J0D01*
G01*
D10*
%TO.C,C6*%
X153652836Y-112065000D02*
X153437164Y-112065000D01*
X153652836Y-112785000D02*
X153437164Y-112785000D01*
%TO.C,U3*%
X122140000Y-113500000D02*
X122140000Y-112700000D01*
X122140000Y-113500000D02*
X122140000Y-114300000D01*
X125260000Y-113500000D02*
X125260000Y-112700000D01*
X125260000Y-113500000D02*
X125260000Y-114300000D01*
X125540000Y-112440000D02*
X125210000Y-112200000D01*
X125540000Y-111960000D01*
X125540000Y-112440000D01*
G36*
X125540000Y-112440000D02*
G01*
X125210000Y-112200000D01*
X125540000Y-111960000D01*
X125540000Y-112440000D01*
G37*
%TO.C,C4*%
X124712836Y-109940000D02*
X124497164Y-109940000D01*
X124712836Y-110660000D02*
X124497164Y-110660000D01*
%TO.C,R8*%
X147346359Y-103645000D02*
X147653641Y-103645000D01*
X147346359Y-104405000D02*
X147653641Y-104405000D01*
%TO.C,Y1*%
X151525000Y-104125000D02*
X151525000Y-106525000D01*
X151525000Y-106525000D02*
X154325000Y-106525000D01*
%TO.C,U1*%
X126090000Y-106940000D02*
X126740000Y-106940000D01*
X126090000Y-107590000D02*
X126090000Y-106940000D01*
X126090000Y-113510000D02*
X126090000Y-113860000D01*
X126740000Y-114160000D02*
X126330000Y-114160000D01*
X133310000Y-106940000D02*
X132660000Y-106940000D01*
X133310000Y-107590000D02*
X133310000Y-106940000D01*
X133310000Y-113510000D02*
X133310000Y-114160000D01*
X133310000Y-114160000D02*
X132660000Y-114160000D01*
X126090000Y-114160000D02*
X125760000Y-114400000D01*
X125760000Y-113920000D01*
X126090000Y-114160000D01*
G36*
X126090000Y-114160000D02*
G01*
X125760000Y-114400000D01*
X125760000Y-113920000D01*
X126090000Y-114160000D01*
G37*
%TO.C,C2*%
X124707836Y-107940000D02*
X124492164Y-107940000D01*
X124707836Y-108660000D02*
X124492164Y-108660000D01*
%TO.C,JP1*%
X138100000Y-102700000D02*
X140900000Y-102700000D01*
X138100000Y-104700000D02*
X138100000Y-102700000D01*
X140900000Y-102700000D02*
X140900000Y-104700000D01*
X140900000Y-104700000D02*
X138100000Y-104700000D01*
%TO.C,C9*%
X150765000Y-111097164D02*
X150765000Y-111312836D01*
X151485000Y-111097164D02*
X151485000Y-111312836D01*
%TO.C,R4*%
X132946359Y-114820000D02*
X133253641Y-114820000D01*
X132946359Y-115580000D02*
X133253641Y-115580000D01*
%TO.C,C16*%
X124707836Y-106940000D02*
X124492164Y-106940000D01*
X124707836Y-107660000D02*
X124492164Y-107660000D01*
%TO.C,SW2*%
X126350000Y-102300000D02*
X129650000Y-102300000D01*
X126350000Y-102600000D02*
X126350000Y-102300000D01*
X126350000Y-104800000D02*
X126350000Y-105100000D01*
X126350000Y-105100000D02*
X129650000Y-105100000D01*
X129650000Y-102300000D02*
X129650000Y-102600000D01*
X129650000Y-105100000D02*
X129650000Y-104800000D01*
%TO.C,R5*%
X142571359Y-110845000D02*
X142878641Y-110845000D01*
X142571359Y-111605000D02*
X142878641Y-111605000D01*
%TO.C,U2*%
X134915000Y-107475000D02*
X134915000Y-110475000D01*
X137185000Y-107475000D02*
X137185000Y-110475000D01*
X137380000Y-106925000D02*
X137100000Y-106925000D01*
X137100000Y-106645000D01*
X137380000Y-106925000D01*
G36*
X137380000Y-106925000D02*
G01*
X137100000Y-106925000D01*
X137100000Y-106645000D01*
X137380000Y-106925000D01*
G37*
%TO.C,C15*%
X133940000Y-109307836D02*
X133940000Y-109092164D01*
X134660000Y-109307836D02*
X134660000Y-109092164D01*
%TO.C,C7*%
X155065000Y-105417164D02*
X155065000Y-105632836D01*
X155785000Y-105417164D02*
X155785000Y-105632836D01*
%TO.C,D1*%
X146615000Y-102065000D02*
X146615000Y-103535000D01*
X146615000Y-103535000D02*
X148900000Y-103535000D01*
X148900000Y-102065000D02*
X146615000Y-102065000D01*
%TO.C,R1*%
X148871359Y-111845000D02*
X149178641Y-111845000D01*
X148871359Y-112605000D02*
X149178641Y-112605000D01*
%TO.C,R3*%
X134856359Y-114820000D02*
X135163641Y-114820000D01*
X134856359Y-115580000D02*
X135163641Y-115580000D01*
%TO.C,C17*%
X126687836Y-105540000D02*
X126472164Y-105540000D01*
X126687836Y-106260000D02*
X126472164Y-106260000D01*
%TO.C,C11*%
X149317164Y-104665000D02*
X149532836Y-104665000D01*
X149317164Y-105385000D02*
X149532836Y-105385000D01*
%TO.C,J2*%
X137770000Y-105570000D02*
X139100000Y-105570000D01*
X137770000Y-106900000D02*
X137770000Y-105570000D01*
X137770000Y-108170000D02*
X137770000Y-115850000D01*
X137770000Y-108170000D02*
X140430000Y-108170000D01*
X137770000Y-115850000D02*
X140430000Y-115850000D01*
X140430000Y-108170000D02*
X140430000Y-115850000D01*
%TO.C,C8*%
X156165000Y-105417164D02*
X156165000Y-105632836D01*
X156885000Y-105417164D02*
X156885000Y-105632836D01*
%TO.C,SW1*%
X142450000Y-102300000D02*
X142450000Y-102600000D01*
X142450000Y-105100000D02*
X142450000Y-104800000D01*
X145750000Y-102300000D02*
X142450000Y-102300000D01*
X145750000Y-102600000D02*
X145750000Y-102300000D01*
X145750000Y-104800000D02*
X145750000Y-105100000D01*
X145750000Y-105100000D02*
X142450000Y-105100000D01*
%TO.C,R2*%
X150345000Y-107968641D02*
X150345000Y-107661359D01*
X151105000Y-107968641D02*
X151105000Y-107661359D01*
D13*
%TO.C,IC2*%
X144450000Y-111525000D02*
G75*
G02*
X144200000Y-111525000I-125000J0D01*
G01*
X144200000Y-111525000D02*
G75*
G02*
X144450000Y-111525000I125000J0D01*
G01*
%TO.C,L1*%
X160120000Y-111600000D02*
X160120000Y-106400000D01*
X160990000Y-110020000D02*
X160990000Y-110780000D01*
X160990000Y-110780000D02*
X162010000Y-110780000D01*
X162010000Y-110020000D02*
X160990000Y-110020000D01*
X162010000Y-110780000D02*
X162010000Y-110020000D01*
X162880000Y-106460000D02*
X162880000Y-111660000D01*
D10*
%TO.C,C3*%
X130227836Y-105540000D02*
X130012164Y-105540000D01*
X130227836Y-106260000D02*
X130012164Y-106260000D01*
%TO.C,R9*%
X132153641Y-104520000D02*
X131846359Y-104520000D01*
X132153641Y-105280000D02*
X131846359Y-105280000D01*
%TD*%
%LPC*%
D14*
%TO.C,X2*%
X141825000Y-109925000D03*
X141825000Y-108475000D03*
X142975000Y-108475000D03*
X142975000Y-109925000D03*
%TD*%
D15*
%TO.C,IC3*%
X135250000Y-103050000D03*
D16*
X134200000Y-103600000D03*
X134200000Y-104100000D03*
X134200000Y-104600000D03*
X134200000Y-105100000D03*
X134200000Y-105600000D03*
D15*
X135250000Y-106150000D03*
X135750000Y-106150000D03*
D16*
X136800000Y-105600000D03*
X136800000Y-105100000D03*
X136800000Y-104600000D03*
X136800000Y-104100000D03*
X136800000Y-103600000D03*
D15*
X135750000Y-103050000D03*
D17*
X135500000Y-104600000D03*
%TD*%
D18*
%TO.C,X1*%
X136150000Y-114000000D03*
X134700000Y-114000000D03*
X134700000Y-112850000D03*
X136150000Y-112850000D03*
%TD*%
D19*
%TO.C,R6*%
X145135000Y-112225000D03*
X144115000Y-112225000D03*
%TD*%
D20*
%TO.C,ANT1*%
X157787000Y-109025000D03*
D21*
X158400000Y-109025000D03*
D20*
X159013000Y-109025000D03*
%TD*%
D22*
%TO.C,D2*%
X131212500Y-102800000D03*
X132787500Y-102800000D03*
%TD*%
D23*
%TO.C,R10*%
X131490000Y-105900000D03*
X132510000Y-105900000D03*
%TD*%
D19*
%TO.C,R7*%
X148035000Y-105025000D03*
X147015000Y-105025000D03*
%TD*%
D24*
%TO.C,C1*%
X127000000Y-115200000D03*
X126040000Y-115200000D03*
%TD*%
%TO.C,C5*%
X136800000Y-111600000D03*
X135840000Y-111600000D03*
%TD*%
D25*
%TO.C,C10*%
X146645000Y-112225000D03*
X147605000Y-112225000D03*
%TD*%
%TO.C,C14*%
X130740000Y-115200000D03*
X131700000Y-115200000D03*
%TD*%
D24*
%TO.C,C13*%
X125080000Y-109300000D03*
X124120000Y-109300000D03*
%TD*%
%TO.C,C12*%
X143205000Y-112225000D03*
X142245000Y-112225000D03*
%TD*%
D26*
%TO.C,L2*%
X143785000Y-114175000D03*
X148865000Y-114175000D03*
%TD*%
D27*
%TO.C,IC1*%
X155575000Y-107375000D03*
X155075000Y-107375000D03*
X154575000Y-107375000D03*
X154075000Y-107375000D03*
X153575000Y-107375000D03*
X153075000Y-107375000D03*
D28*
X152375000Y-108075000D03*
X152375000Y-108575000D03*
X152375000Y-109075000D03*
X152375000Y-109575000D03*
X152375000Y-110075000D03*
X152375000Y-110575000D03*
D27*
X153075000Y-111275000D03*
X153575000Y-111275000D03*
X154075000Y-111275000D03*
X154575000Y-111275000D03*
X155075000Y-111275000D03*
X155575000Y-111275000D03*
D28*
X156275000Y-110575000D03*
X156275000Y-110075000D03*
X156275000Y-109575000D03*
X156275000Y-109075000D03*
X156275000Y-108575000D03*
X156275000Y-108075000D03*
D29*
X154325000Y-109325000D03*
%TD*%
D24*
%TO.C,C6*%
X154025000Y-112425000D03*
X153065000Y-112425000D03*
%TD*%
D30*
%TO.C,U3*%
X124650000Y-112362500D03*
X122750000Y-112362500D03*
X123700000Y-114637500D03*
%TD*%
D24*
%TO.C,C4*%
X125085000Y-110300000D03*
X124125000Y-110300000D03*
%TD*%
D23*
%TO.C,R8*%
X146990000Y-104025000D03*
X148010000Y-104025000D03*
%TD*%
D31*
%TO.C,Y1*%
X152200000Y-105900000D03*
X153650000Y-105900000D03*
X153650000Y-104750000D03*
X152200000Y-104750000D03*
%TD*%
D32*
%TO.C,U1*%
X127100000Y-113987500D03*
X127500000Y-113987500D03*
X127900000Y-113987500D03*
X128300000Y-113987500D03*
X128700000Y-113987500D03*
X129100000Y-113987500D03*
X129500000Y-113987500D03*
X129900000Y-113987500D03*
X130300000Y-113987500D03*
X130700000Y-113987500D03*
X131100000Y-113987500D03*
X131500000Y-113987500D03*
X131900000Y-113987500D03*
X132300000Y-113987500D03*
D33*
X133137500Y-113150000D03*
X133137500Y-112750000D03*
X133137500Y-112350000D03*
X133137500Y-111950000D03*
X133137500Y-111550000D03*
X133137500Y-111150000D03*
X133137500Y-110750000D03*
X133137500Y-110350000D03*
X133137500Y-109950000D03*
X133137500Y-109550000D03*
X133137500Y-109150000D03*
X133137500Y-108750000D03*
X133137500Y-108350000D03*
X133137500Y-107950000D03*
D32*
X132300000Y-107112500D03*
X131900000Y-107112500D03*
X131500000Y-107112500D03*
X131100000Y-107112500D03*
X130700000Y-107112500D03*
X130300000Y-107112500D03*
X129900000Y-107112500D03*
X129500000Y-107112500D03*
X129100000Y-107112500D03*
X128700000Y-107112500D03*
X128300000Y-107112500D03*
X127900000Y-107112500D03*
X127500000Y-107112500D03*
X127100000Y-107112500D03*
D33*
X126262500Y-107950000D03*
X126262500Y-108350000D03*
X126262500Y-108750000D03*
X126262500Y-109150000D03*
X126262500Y-109550000D03*
X126262500Y-109950000D03*
X126262500Y-110350000D03*
X126262500Y-110750000D03*
X126262500Y-111150000D03*
X126262500Y-111550000D03*
X126262500Y-111950000D03*
X126262500Y-112350000D03*
X126262500Y-112750000D03*
X126262500Y-113150000D03*
D34*
X129700000Y-110550000D03*
%TD*%
D24*
%TO.C,C2*%
X125080000Y-108300000D03*
X124120000Y-108300000D03*
%TD*%
D35*
%TO.C,J1*%
X116500000Y-112525000D03*
D36*
X117000000Y-110075000D03*
X117000000Y-108025000D03*
D35*
X116500000Y-105575000D03*
%TD*%
D37*
%TO.C,JP1*%
X140225000Y-103700000D03*
D38*
X138775000Y-103700000D03*
%TD*%
D39*
%TO.C,C9*%
X151125000Y-110725000D03*
X151125000Y-111685000D03*
%TD*%
D23*
%TO.C,R4*%
X132590000Y-115200000D03*
X133610000Y-115200000D03*
%TD*%
D24*
%TO.C,C16*%
X125080000Y-107300000D03*
X124120000Y-107300000D03*
%TD*%
D40*
%TO.C,SW2*%
X126300000Y-103700000D03*
X129700000Y-103700000D03*
%TD*%
D23*
%TO.C,R5*%
X142215000Y-111225000D03*
X143235000Y-111225000D03*
%TD*%
D41*
%TO.C,U2*%
X136800000Y-107550000D03*
X136300000Y-107550000D03*
X135800000Y-107550000D03*
X135300000Y-107550000D03*
X135300000Y-110400000D03*
X135800000Y-110400000D03*
X136300000Y-110400000D03*
X136800000Y-110400000D03*
D42*
X136050000Y-108975000D03*
%TD*%
D43*
%TO.C,C15*%
X134300000Y-109680000D03*
X134300000Y-108720000D03*
%TD*%
D39*
%TO.C,C7*%
X155425000Y-105045000D03*
X155425000Y-106005000D03*
%TD*%
D22*
%TO.C,D1*%
X147312500Y-102800000D03*
X148887500Y-102800000D03*
%TD*%
D23*
%TO.C,R1*%
X148515000Y-112225000D03*
X149535000Y-112225000D03*
%TD*%
%TO.C,R3*%
X134500000Y-115200000D03*
X135520000Y-115200000D03*
%TD*%
D24*
%TO.C,C17*%
X127060000Y-105900000D03*
X126100000Y-105900000D03*
%TD*%
D25*
%TO.C,C11*%
X148945000Y-105025000D03*
X149905000Y-105025000D03*
%TD*%
D44*
%TO.C,J2*%
X139100000Y-106900000D03*
D45*
X139100000Y-109440000D03*
X139100000Y-111980000D03*
X139100000Y-114520000D03*
%TD*%
D39*
%TO.C,C8*%
X156525000Y-105045000D03*
X156525000Y-106005000D03*
%TD*%
D46*
%TO.C,J3*%
X169000000Y-105500000D03*
D47*
X168500000Y-107950000D03*
X168500000Y-110000000D03*
D46*
X169000000Y-112450000D03*
%TD*%
D40*
%TO.C,SW1*%
X145800000Y-103700000D03*
X142400000Y-103700000D03*
%TD*%
D48*
%TO.C,R2*%
X150725000Y-108325000D03*
X150725000Y-107305000D03*
%TD*%
D49*
%TO.C,IC2*%
X145075000Y-111125000D03*
X145575000Y-111125000D03*
X146075000Y-111125000D03*
X146575000Y-111125000D03*
X147075000Y-111125000D03*
X147575000Y-111125000D03*
X148075000Y-111125000D03*
X148575000Y-111125000D03*
D50*
X149325000Y-110375000D03*
X149325000Y-109875000D03*
X149325000Y-109375000D03*
X149325000Y-108875000D03*
X149325000Y-108375000D03*
X149325000Y-107875000D03*
X149325000Y-107375000D03*
X149325000Y-106875000D03*
D49*
X148575000Y-106125000D03*
X148075000Y-106125000D03*
X147575000Y-106125000D03*
X147075000Y-106125000D03*
X146575000Y-106125000D03*
X146075000Y-106125000D03*
X145575000Y-106125000D03*
X145075000Y-106125000D03*
D50*
X144325000Y-106875000D03*
X144325000Y-107375000D03*
X144325000Y-107875000D03*
X144325000Y-108375000D03*
X144325000Y-108875000D03*
X144325000Y-109375000D03*
X144325000Y-109875000D03*
X144325000Y-110375000D03*
D51*
X146825000Y-108625000D03*
%TD*%
D52*
%TO.C,L1*%
X161500000Y-111540000D03*
X161500000Y-106460000D03*
%TD*%
D24*
%TO.C,C3*%
X130600000Y-105900000D03*
X129640000Y-105900000D03*
%TD*%
D19*
%TO.C,R9*%
X132510000Y-104900000D03*
X131490000Y-104900000D03*
%TD*%
%LPD*%
M02*
