%TF.GenerationSoftware,KiCad,Pcbnew,8.0.4*%
%TF.CreationDate,2024-09-10T22:50:24+02:00*%
%TF.ProjectId,elrs-sim,656c7273-2d73-4696-9d2e-6b696361645f,rev?*%
%TF.SameCoordinates,Original*%
%TF.FileFunction,Copper,L2,Inr*%
%TF.FilePolarity,Positive*%
%FSLAX46Y46*%
G04 Gerber Fmt 4.6, Leading zero omitted, Abs format (unit mm)*
G04 Created by KiCad (PCBNEW 8.0.4) date 2024-09-10 22:50:24*
%MOMM*%
%LPD*%
G01*
G04 APERTURE LIST*
G04 Aperture macros list*
%AMRoundRect*
0 Rectangle with rounded corners*
0 $1 Rounding radius*
0 $2 $3 $4 $5 $6 $7 $8 $9 X,Y pos of 4 corners*
0 Add a 4 corners polygon primitive as box body*
4,1,4,$2,$3,$4,$5,$6,$7,$8,$9,$2,$3,0*
0 Add four circle primitives for the rounded corners*
1,1,$1+$1,$2,$3*
1,1,$1+$1,$4,$5*
1,1,$1+$1,$6,$7*
1,1,$1+$1,$8,$9*
0 Add four rect primitives between the rounded corners*
20,1,$1+$1,$2,$3,$4,$5,0*
20,1,$1+$1,$4,$5,$6,$7,0*
20,1,$1+$1,$6,$7,$8,$9,0*
20,1,$1+$1,$8,$9,$2,$3,0*%
G04 Aperture macros list end*
%TA.AperFunction,ComponentPad*%
%ADD10R,1.700000X1.700000*%
%TD*%
%TA.AperFunction,ComponentPad*%
%ADD11O,1.700000X1.700000*%
%TD*%
%TA.AperFunction,ComponentPad*%
%ADD12RoundRect,0.500000X-3.500000X0.500000X-3.500000X-0.500000X3.500000X-0.500000X3.500000X0.500000X0*%
%TD*%
%TA.AperFunction,ComponentPad*%
%ADD13RoundRect,0.500000X-3.000000X0.250000X-3.000000X-0.250000X3.000000X-0.250000X3.000000X0.250000X0*%
%TD*%
%TA.AperFunction,ViaPad*%
%ADD14C,0.450000*%
%TD*%
%TA.AperFunction,Conductor*%
%ADD15C,0.200000*%
%TD*%
G04 APERTURE END LIST*
D10*
%TO.N,GND*%
%TO.C,J2*%
X139300000Y-106900000D03*
D11*
%TO.N,USB_VBUS*%
X139300000Y-109440000D03*
%TO.N,Net-(J2-Pin_3)*%
X139300000Y-111980000D03*
%TO.N,Net-(J2-Pin_4)*%
X139300000Y-114520000D03*
%TD*%
D12*
%TO.N,unconnected-(J3-Pin_1-Pad1)*%
%TO.C,J3*%
X169000000Y-105500000D03*
D13*
%TO.N,unconnected-(J3-Pin_2-Pad2)*%
X168500000Y-107950000D03*
%TO.N,unconnected-(J3-Pin_3-Pad3)*%
X168500000Y-110000000D03*
D12*
%TO.N,unconnected-(J3-Pin_4-Pad4)*%
X169000000Y-112450000D03*
%TD*%
D14*
%TO.N,GND*%
X146825000Y-108625000D03*
X129700000Y-110500000D03*
X150750000Y-104700000D03*
X134450000Y-111750000D03*
X154325000Y-109325000D03*
X147605000Y-112225000D03*
X134900000Y-107950000D03*
%TO.N,+3.3V*%
X127600000Y-115200000D03*
X134250000Y-104300000D03*
X132350000Y-110350000D03*
X130300000Y-115200000D03*
X128900000Y-105900000D03*
X140200000Y-105100000D03*
X136150000Y-114750000D03*
X130700000Y-104400000D03*
X127600000Y-105900000D03*
X123900000Y-111750000D03*
%TO.N,IRS*%
X156025000Y-106625000D03*
X152325000Y-111225000D03*
%TO.N,BUSY*%
X150725000Y-106525000D03*
X145125000Y-105425000D03*
%TO.N,NRST*%
X150025000Y-107925000D03*
X154725000Y-104825000D03*
%TO.N,ESP_SCK*%
X156200000Y-111450000D03*
X149325000Y-110925000D03*
%TO.N,ESP_MOSI*%
X154698938Y-112924436D03*
X150025000Y-108925000D03*
%TO.N,ESP_MISO*%
X154725000Y-112325000D03*
X150025000Y-109925000D03*
%TO.N,DIO_1*%
X149325000Y-106425000D03*
X151525000Y-108525000D03*
%TO.N,+3.3V_SW*%
X134250000Y-106700000D03*
X144800000Y-111900000D03*
X150200000Y-112100000D03*
X149525000Y-104025000D03*
X144325000Y-109125000D03*
X137000000Y-103900000D03*
X143300000Y-104900000D03*
X146300000Y-111800000D03*
X150625003Y-109925000D03*
X141500000Y-111050000D03*
%TO.N,NSS*%
X156725000Y-111025000D03*
X151525000Y-107925000D03*
%TO.N,ESP_LED*%
X144200000Y-103700000D03*
X149325000Y-111525000D03*
%TO.N,ESP_BOOT*%
X146200000Y-105300000D03*
X150025000Y-107325000D03*
%TO.N,USB_DN*%
X124750000Y-103600000D03*
X117000000Y-110075000D03*
%TO.N,USB_DP*%
X117000000Y-108025000D03*
X124050000Y-103600000D03*
%TO.N,USB_VBUS*%
X116500000Y-112525000D03*
X125500000Y-114000000D03*
%TO.N,RP2040_RX*%
X135200000Y-106125003D03*
X130850000Y-113150000D03*
%TO.N,RP2040_TX*%
X136100000Y-103325000D03*
X130350000Y-112650000D03*
%TO.N,Net-(U1-VREG_VOUT)*%
X127100000Y-110350003D03*
X127100000Y-108549997D03*
X123900000Y-111149997D03*
X132050000Y-107975000D03*
X122000000Y-108400000D03*
%TO.N,RP2040_LED*%
X128450000Y-108000000D03*
X133150000Y-104000000D03*
%TO.N,QSPI_SS*%
X125500000Y-113400000D03*
X136900247Y-108300000D03*
X132900000Y-107300000D03*
%TO.N,QSPI_SD2*%
X125500000Y-112400000D03*
X135700241Y-108300000D03*
%TO.N,QSPI_SD3*%
X127200000Y-111000000D03*
X136400003Y-109700000D03*
%TO.N,QSPI_SD1*%
X136300244Y-108300000D03*
X127200000Y-113000000D03*
%TO.N,QSPI_SD0*%
X135200000Y-109700000D03*
X127200000Y-112000000D03*
%TO.N,QSPI_SCLK*%
X135800000Y-109700000D03*
X125499381Y-111400341D03*
%TO.N,RP2040_RX_NO*%
X135200000Y-105525000D03*
X141500000Y-107100000D03*
%TO.N,RP2040_TX_NC*%
X137400000Y-115100000D03*
X137400000Y-104850000D03*
%TO.N,Net-(U1-USB_DP)*%
X125750000Y-104950000D03*
X127100000Y-109750000D03*
%TO.N,Net-(U1-USB_DM)*%
X125450000Y-103600000D03*
X127100000Y-109150000D03*
%TO.N,RP2040_TX_NO*%
X141500000Y-106150000D03*
X135200000Y-103900000D03*
%TO.N,RP2040_RX_NC*%
X136950000Y-106100000D03*
X138250000Y-112750000D03*
%TD*%
D15*
%TO.N,BUSY*%
X145600000Y-105900000D02*
X145125000Y-105425000D01*
X149471752Y-105900000D02*
X145600000Y-105900000D01*
X150725000Y-106525000D02*
X150096752Y-106525000D01*
X150096752Y-106525000D02*
X149471752Y-105900000D01*
%TO.N,NRST*%
X154725000Y-104825000D02*
X154725000Y-106125000D01*
X153725000Y-107125000D02*
X150896752Y-107125000D01*
X150896752Y-107125000D02*
X150096752Y-107925000D01*
X150096752Y-107925000D02*
X150025000Y-107925000D01*
X154725000Y-106125000D02*
X153725000Y-107125000D01*
%TO.N,ESP_SCK*%
X153700000Y-113500000D02*
X151125000Y-110925000D01*
X155500000Y-113500000D02*
X153700000Y-113500000D01*
X151125000Y-110925000D02*
X149325000Y-110925000D01*
X156200000Y-112800000D02*
X155500000Y-113500000D01*
X156200000Y-111450000D02*
X156200000Y-112800000D01*
%TO.N,ESP_MOSI*%
X152600000Y-109000000D02*
X150100000Y-109000000D01*
X155200000Y-112521752D02*
X155200000Y-111600000D01*
X154698938Y-112924436D02*
X154797316Y-112924436D01*
X150100000Y-109000000D02*
X150025000Y-108925000D01*
X155200000Y-111600000D02*
X152600000Y-109000000D01*
X154797316Y-112924436D02*
X155200000Y-112521752D01*
%TO.N,ESP_MISO*%
X154725000Y-112325000D02*
X154725000Y-111725000D01*
X150428251Y-109450000D02*
X150025000Y-109853251D01*
X150025000Y-109853251D02*
X150025000Y-109925000D01*
X154725000Y-111725000D02*
X152450000Y-109450000D01*
X152450000Y-109450000D02*
X150428251Y-109450000D01*
%TO.N,DIO_1*%
X149325000Y-107896752D02*
X149853248Y-108425000D01*
X149325000Y-106425000D02*
X149325000Y-107896752D01*
X149853248Y-108425000D02*
X151425000Y-108425000D01*
X151425000Y-108425000D02*
X151525000Y-108525000D01*
%TO.N,+3.3V_SW*%
X134250000Y-106700000D02*
X134250000Y-105803248D01*
X136153248Y-103900000D02*
X137000000Y-103900000D01*
X134250000Y-105803248D02*
X136153248Y-103900000D01*
%TO.N,NSS*%
X156725000Y-110525000D02*
X154125000Y-107925000D01*
X154125000Y-107925000D02*
X151525000Y-107925000D01*
X156725000Y-111025000D02*
X156725000Y-110525000D01*
%TO.N,ESP_LED*%
X149053248Y-111525000D02*
X144200000Y-106671752D01*
X144200000Y-106671752D02*
X144200000Y-103700000D01*
X149325000Y-111525000D02*
X149053248Y-111525000D01*
%TO.N,USB_DN*%
X119075000Y-110075000D02*
X117000000Y-110075000D01*
X124750000Y-104400000D02*
X119075000Y-110075000D01*
X124750000Y-103600000D02*
X124750000Y-104400000D01*
%TO.N,USB_DP*%
X124050000Y-103600000D02*
X124050000Y-104300000D01*
X120325000Y-108025000D02*
X117000000Y-108025000D01*
X124050000Y-104300000D02*
X120325000Y-108025000D01*
%TO.N,USB_VBUS*%
X118575000Y-114600000D02*
X116500000Y-112525000D01*
X125500000Y-114000000D02*
X124900000Y-114600000D01*
X124900000Y-114600000D02*
X118575000Y-114600000D01*
%TO.N,Net-(U1-VREG_VOUT)*%
X132050000Y-107975000D02*
X129546752Y-107975000D01*
X129546752Y-107975000D02*
X127171749Y-110350003D01*
X127171749Y-110350003D02*
X127100000Y-110350003D01*
%TO.N,RP2040_LED*%
X132400000Y-104000000D02*
X128450000Y-107950000D01*
X128450000Y-107950000D02*
X128450000Y-108000000D01*
X133150000Y-104000000D02*
X132400000Y-104000000D01*
%TO.N,QSPI_SS*%
X135971996Y-107300000D02*
X136900247Y-108228251D01*
X127925000Y-113475000D02*
X125575000Y-113475000D01*
X132900000Y-107300000D02*
X135971996Y-107300000D01*
X125575000Y-113475000D02*
X125500000Y-113400000D01*
X136900247Y-108371749D02*
X136071996Y-109200000D01*
X128650000Y-112750000D02*
X127925000Y-113475000D01*
X136071996Y-109200000D02*
X130200000Y-109200000D01*
X128650000Y-110750000D02*
X128650000Y-112750000D01*
X130200000Y-109200000D02*
X128650000Y-110750000D01*
X136900247Y-108228251D02*
X136900247Y-108300000D01*
X136900247Y-108300000D02*
X136900247Y-108371749D01*
%TO.N,QSPI_SD2*%
X125675000Y-112475000D02*
X127725000Y-112475000D01*
X129750000Y-108450000D02*
X135550241Y-108450000D01*
X125500000Y-112400000D02*
X125600000Y-112400000D01*
X127900000Y-112300000D02*
X127900000Y-110300000D01*
X127725000Y-112475000D02*
X127900000Y-112300000D01*
X135550241Y-108450000D02*
X135700241Y-108300000D01*
X125600000Y-112400000D02*
X125675000Y-112475000D01*
X127900000Y-110300000D02*
X129750000Y-108450000D01*
%TO.N,QSPI_SD1*%
X136300244Y-108371749D02*
X135871993Y-108800000D01*
X136300244Y-108300000D02*
X136300244Y-108371749D01*
X128300000Y-110500000D02*
X128300000Y-112500000D01*
X135871993Y-108800000D02*
X130000000Y-108800000D01*
X127800000Y-113000000D02*
X127200000Y-113000000D01*
X130000000Y-108800000D02*
X128300000Y-110500000D01*
X128300000Y-112500000D02*
X127800000Y-113000000D01*
%TO.N,RP2040_TX_NC*%
X137400000Y-115100000D02*
X137600000Y-114900000D01*
X136475000Y-105775000D02*
X137400000Y-104850000D01*
X136475000Y-106296752D02*
X136475000Y-105775000D01*
X137600000Y-107421752D02*
X136475000Y-106296752D01*
X137600000Y-114900000D02*
X137600000Y-107421752D01*
%TO.N,Net-(U1-USB_DP)*%
X125750000Y-108550000D02*
X126950000Y-109750000D01*
X125750000Y-104950000D02*
X125750000Y-108550000D01*
X126950000Y-109750000D02*
X127100000Y-109750000D01*
%TO.N,Net-(U1-USB_DM)*%
X127450000Y-109150000D02*
X127100000Y-109150000D01*
X127900000Y-108700000D02*
X127450000Y-109150000D01*
X126600000Y-105800000D02*
X127900000Y-107100000D01*
X125450000Y-103600000D02*
X126600000Y-104750000D01*
X126600000Y-104750000D02*
X126600000Y-105800000D01*
X127900000Y-107100000D02*
X127900000Y-108700000D01*
%TO.N,RP2040_RX_NC*%
X137950000Y-107100000D02*
X136950000Y-106100000D01*
X137950000Y-112450000D02*
X137950000Y-107100000D01*
X138250000Y-112750000D02*
X137950000Y-112450000D01*
%TD*%
%TA.AperFunction,Conductor*%
%TO.N,GND*%
G36*
X126245041Y-104820865D02*
G01*
X126250888Y-104825859D01*
X126285148Y-104860119D01*
X126299500Y-104894767D01*
X126299500Y-105839563D01*
X126319276Y-105913366D01*
X126319979Y-105915989D01*
X126349355Y-105966871D01*
X126349357Y-105966874D01*
X126359536Y-105984505D01*
X126359538Y-105984507D01*
X126359540Y-105984511D01*
X126359543Y-105984514D01*
X127585148Y-107210119D01*
X127599500Y-107244767D01*
X127599500Y-108388976D01*
X127585148Y-108423624D01*
X127550500Y-108437976D01*
X127515852Y-108423624D01*
X127506841Y-108411221D01*
X127448532Y-108296783D01*
X127448527Y-108296776D01*
X127353220Y-108201469D01*
X127353213Y-108201464D01*
X127233128Y-108140279D01*
X127233127Y-108140278D01*
X127233126Y-108140278D01*
X127100000Y-108119193D01*
X126966874Y-108140278D01*
X126966872Y-108140278D01*
X126966871Y-108140279D01*
X126846786Y-108201464D01*
X126846779Y-108201469D01*
X126751472Y-108296776D01*
X126751467Y-108296783D01*
X126690282Y-108416868D01*
X126690281Y-108416869D01*
X126690281Y-108416871D01*
X126669196Y-108549997D01*
X126690281Y-108683123D01*
X126690281Y-108683124D01*
X126690282Y-108683125D01*
X126751467Y-108803210D01*
X126751472Y-108803217D01*
X126763605Y-108815350D01*
X126777957Y-108849998D01*
X126763606Y-108884645D01*
X126751474Y-108896777D01*
X126751470Y-108896783D01*
X126704549Y-108988869D01*
X126676031Y-109013225D01*
X126638644Y-109010282D01*
X126626242Y-109001271D01*
X126064852Y-108439881D01*
X126050500Y-108405233D01*
X126050500Y-105271544D01*
X126064852Y-105236896D01*
X126068622Y-105233126D01*
X126098528Y-105203220D01*
X126100920Y-105198527D01*
X126127406Y-105146544D01*
X126159719Y-105083126D01*
X126180804Y-104950000D01*
X126167843Y-104868170D01*
X126176598Y-104831706D01*
X126208574Y-104812110D01*
X126245041Y-104820865D01*
G37*
%TD.AperFunction*%
%TA.AperFunction,Conductor*%
G36*
X159285648Y-102014352D02*
G01*
X159300000Y-102049000D01*
X159300000Y-115951000D01*
X159285648Y-115985648D01*
X159251000Y-116000000D01*
X151949000Y-116000000D01*
X151914352Y-115985648D01*
X151900000Y-115951000D01*
X151900000Y-112700000D01*
X144300000Y-112700000D01*
X144300000Y-115951000D01*
X144285648Y-115985648D01*
X144251000Y-116000000D01*
X122549416Y-116000000D01*
X122548816Y-115999996D01*
X122547405Y-115999978D01*
X122453275Y-115998825D01*
X122448476Y-115998531D01*
X122355633Y-115988237D01*
X122351473Y-115987593D01*
X122307742Y-115978894D01*
X122303078Y-115977726D01*
X122122854Y-115923055D01*
X122113980Y-115919379D01*
X121950029Y-115831746D01*
X121942042Y-115826410D01*
X121798326Y-115708466D01*
X121791533Y-115701673D01*
X121673589Y-115557957D01*
X121668253Y-115549970D01*
X121580618Y-115386015D01*
X121576944Y-115377145D01*
X121523207Y-115200000D01*
X127169196Y-115200000D01*
X127190281Y-115333126D01*
X127190281Y-115333127D01*
X127190282Y-115333128D01*
X127251467Y-115453213D01*
X127251472Y-115453220D01*
X127346779Y-115548527D01*
X127346786Y-115548532D01*
X127399878Y-115575583D01*
X127466874Y-115609719D01*
X127600000Y-115630804D01*
X127733126Y-115609719D01*
X127834715Y-115557957D01*
X127853213Y-115548532D01*
X127853215Y-115548530D01*
X127853220Y-115548528D01*
X127948528Y-115453220D01*
X127950920Y-115448527D01*
X127967278Y-115416420D01*
X128009719Y-115333126D01*
X128030804Y-115200000D01*
X129869196Y-115200000D01*
X129890281Y-115333126D01*
X129890281Y-115333127D01*
X129890282Y-115333128D01*
X129951467Y-115453213D01*
X129951472Y-115453220D01*
X130046779Y-115548527D01*
X130046786Y-115548532D01*
X130099878Y-115575583D01*
X130166874Y-115609719D01*
X130300000Y-115630804D01*
X130433126Y-115609719D01*
X130534715Y-115557957D01*
X130553213Y-115548532D01*
X130553215Y-115548530D01*
X130553220Y-115548528D01*
X130648528Y-115453220D01*
X130650920Y-115448527D01*
X130667278Y-115416420D01*
X130709719Y-115333126D01*
X130730804Y-115200000D01*
X130709719Y-115066874D01*
X130675634Y-114999978D01*
X130648532Y-114946786D01*
X130648527Y-114946779D01*
X130553220Y-114851472D01*
X130553213Y-114851467D01*
X130433128Y-114790282D01*
X130433127Y-114790281D01*
X130433126Y-114790281D01*
X130300000Y-114769196D01*
X130166874Y-114790281D01*
X130166872Y-114790281D01*
X130166871Y-114790282D01*
X130046786Y-114851467D01*
X130046779Y-114851472D01*
X129951472Y-114946779D01*
X129951467Y-114946786D01*
X129890282Y-115066871D01*
X129890281Y-115066872D01*
X129890281Y-115066874D01*
X129869196Y-115200000D01*
X128030804Y-115200000D01*
X128009719Y-115066874D01*
X127975634Y-114999978D01*
X127948532Y-114946786D01*
X127948527Y-114946779D01*
X127853220Y-114851472D01*
X127853213Y-114851467D01*
X127733128Y-114790282D01*
X127733127Y-114790281D01*
X127733126Y-114790281D01*
X127600000Y-114769196D01*
X127466874Y-114790281D01*
X127466872Y-114790281D01*
X127466871Y-114790282D01*
X127346786Y-114851467D01*
X127346779Y-114851472D01*
X127251472Y-114946779D01*
X127251467Y-114946786D01*
X127190282Y-115066871D01*
X127190281Y-115066872D01*
X127190281Y-115066874D01*
X127169196Y-115200000D01*
X121523207Y-115200000D01*
X121522269Y-115196907D01*
X121521108Y-115192271D01*
X121512403Y-115148508D01*
X121511764Y-115144384D01*
X121502573Y-115061484D01*
X121503922Y-115051779D01*
X121450858Y-115000000D01*
X112049416Y-115000000D01*
X112048816Y-114999996D01*
X112047405Y-114999978D01*
X111953275Y-114998825D01*
X111948476Y-114998531D01*
X111855633Y-114988237D01*
X111851473Y-114987593D01*
X111807742Y-114978894D01*
X111803078Y-114977726D01*
X111622854Y-114923055D01*
X111613980Y-114919379D01*
X111450029Y-114831746D01*
X111442042Y-114826410D01*
X111298326Y-114708466D01*
X111291533Y-114701673D01*
X111173589Y-114557957D01*
X111168253Y-114549970D01*
X111152234Y-114520000D01*
X111080618Y-114386015D01*
X111076944Y-114377145D01*
X111022269Y-114196907D01*
X111021108Y-114192271D01*
X111012403Y-114148508D01*
X111011764Y-114144384D01*
X111001467Y-114051509D01*
X111001174Y-114046734D01*
X111000004Y-113951184D01*
X111000000Y-113950584D01*
X111000000Y-112525000D01*
X116069196Y-112525000D01*
X116090281Y-112658126D01*
X116090281Y-112658127D01*
X116090282Y-112658128D01*
X116151467Y-112778213D01*
X116151472Y-112778220D01*
X116246779Y-112873527D01*
X116246786Y-112873532D01*
X116326842Y-112914322D01*
X116366874Y-112934719D01*
X116491207Y-112954411D01*
X116518188Y-112968159D01*
X118334540Y-114784511D01*
X118390489Y-114840460D01*
X118459011Y-114880021D01*
X118494478Y-114889524D01*
X118535436Y-114900500D01*
X118535438Y-114900500D01*
X124939564Y-114900500D01*
X124966230Y-114893354D01*
X125015989Y-114880021D01*
X125084511Y-114840460D01*
X125140460Y-114784511D01*
X125174971Y-114750000D01*
X135719196Y-114750000D01*
X135740281Y-114883126D01*
X135740281Y-114883127D01*
X135740282Y-114883128D01*
X135801467Y-115003213D01*
X135801472Y-115003220D01*
X135896779Y-115098527D01*
X135896786Y-115098532D01*
X135976842Y-115139322D01*
X136016874Y-115159719D01*
X136150000Y-115180804D01*
X136283126Y-115159719D01*
X136383392Y-115108631D01*
X136403213Y-115098532D01*
X136403215Y-115098530D01*
X136403220Y-115098528D01*
X136498528Y-115003220D01*
X136500768Y-114998825D01*
X136517278Y-114966420D01*
X136559719Y-114883126D01*
X136580804Y-114750000D01*
X136559719Y-114616874D01*
X136525630Y-114549970D01*
X136498532Y-114496786D01*
X136498527Y-114496779D01*
X136403220Y-114401472D01*
X136403213Y-114401467D01*
X136283128Y-114340282D01*
X136283127Y-114340281D01*
X136283126Y-114340281D01*
X136150000Y-114319196D01*
X136016874Y-114340281D01*
X136016872Y-114340281D01*
X136016871Y-114340282D01*
X135896786Y-114401467D01*
X135896779Y-114401472D01*
X135801472Y-114496779D01*
X135801467Y-114496786D01*
X135740282Y-114616871D01*
X135740281Y-114616872D01*
X135740281Y-114616874D01*
X135719196Y-114750000D01*
X125174971Y-114750000D01*
X125481812Y-114443157D01*
X125508789Y-114429411D01*
X125633126Y-114409719D01*
X125716420Y-114367278D01*
X125753213Y-114348532D01*
X125753215Y-114348530D01*
X125753220Y-114348528D01*
X125848528Y-114253220D01*
X125909719Y-114133126D01*
X125930804Y-114000000D01*
X125909719Y-113866874D01*
X125899462Y-113846745D01*
X125896520Y-113809358D01*
X125920876Y-113780841D01*
X125943122Y-113775500D01*
X127964564Y-113775500D01*
X127991230Y-113768354D01*
X128040989Y-113755021D01*
X128109511Y-113715460D01*
X128165460Y-113659511D01*
X128890460Y-112934511D01*
X128896277Y-112924436D01*
X128912245Y-112896779D01*
X128930020Y-112865991D01*
X128930020Y-112865990D01*
X128930021Y-112865989D01*
X128950032Y-112791310D01*
X128950500Y-112789563D01*
X128950500Y-112650000D01*
X129919196Y-112650000D01*
X129940281Y-112783126D01*
X129940281Y-112783127D01*
X129940282Y-112783128D01*
X130001467Y-112903213D01*
X130001472Y-112903220D01*
X130096779Y-112998527D01*
X130096786Y-112998532D01*
X130167177Y-113034397D01*
X130216874Y-113059719D01*
X130350000Y-113080804D01*
X130365605Y-113078332D01*
X130402071Y-113087087D01*
X130421667Y-113119063D01*
X130421667Y-113134392D01*
X130419706Y-113146779D01*
X130419196Y-113150000D01*
X130440281Y-113283126D01*
X130440281Y-113283127D01*
X130440282Y-113283128D01*
X130501467Y-113403213D01*
X130501472Y-113403220D01*
X130596779Y-113498527D01*
X130596786Y-113498532D01*
X130664682Y-113533126D01*
X130716874Y-113559719D01*
X130850000Y-113580804D01*
X130983126Y-113559719D01*
X131066420Y-113517278D01*
X131103213Y-113498532D01*
X131103215Y-113498530D01*
X131103220Y-113498528D01*
X131198528Y-113403220D01*
X131259719Y-113283126D01*
X131280804Y-113150000D01*
X131259719Y-113016874D01*
X131235426Y-112969196D01*
X131198532Y-112896786D01*
X131198527Y-112896779D01*
X131103220Y-112801472D01*
X131103213Y-112801467D01*
X130983128Y-112740282D01*
X130983127Y-112740281D01*
X130983126Y-112740281D01*
X130850000Y-112719196D01*
X130849999Y-112719196D01*
X130834392Y-112721667D01*
X130797925Y-112712910D01*
X130778332Y-112680933D01*
X130778332Y-112665607D01*
X130780804Y-112650000D01*
X130759719Y-112516874D01*
X130739322Y-112476842D01*
X130698532Y-112396786D01*
X130698527Y-112396779D01*
X130603220Y-112301472D01*
X130603213Y-112301467D01*
X130483128Y-112240282D01*
X130483127Y-112240281D01*
X130483126Y-112240281D01*
X130350000Y-112219196D01*
X130216874Y-112240281D01*
X130216872Y-112240281D01*
X130216871Y-112240282D01*
X130096786Y-112301467D01*
X130096779Y-112301472D01*
X130001472Y-112396779D01*
X130001467Y-112396786D01*
X129940282Y-112516871D01*
X129940281Y-112516872D01*
X129940281Y-112516874D01*
X129919196Y-112650000D01*
X128950500Y-112650000D01*
X128950500Y-110894767D01*
X128964852Y-110860119D01*
X129474971Y-110350000D01*
X131919196Y-110350000D01*
X131940281Y-110483126D01*
X131940281Y-110483127D01*
X131940282Y-110483128D01*
X132001467Y-110603213D01*
X132001472Y-110603220D01*
X132096779Y-110698527D01*
X132096786Y-110698532D01*
X132174452Y-110738104D01*
X132216874Y-110759719D01*
X132350000Y-110780804D01*
X132483126Y-110759719D01*
X132568144Y-110716400D01*
X132603213Y-110698532D01*
X132603215Y-110698530D01*
X132603220Y-110698528D01*
X132698528Y-110603220D01*
X132699987Y-110600358D01*
X132717278Y-110566420D01*
X132759719Y-110483126D01*
X132780804Y-110350000D01*
X132759719Y-110216874D01*
X132739322Y-110176842D01*
X132698532Y-110096786D01*
X132698527Y-110096779D01*
X132603220Y-110001472D01*
X132603213Y-110001467D01*
X132483128Y-109940282D01*
X132483127Y-109940281D01*
X132483126Y-109940281D01*
X132350000Y-109919196D01*
X132216874Y-109940281D01*
X132216872Y-109940281D01*
X132216871Y-109940282D01*
X132096786Y-110001467D01*
X132096779Y-110001472D01*
X132001472Y-110096779D01*
X132001467Y-110096786D01*
X131940282Y-110216871D01*
X131940281Y-110216872D01*
X131940281Y-110216874D01*
X131919196Y-110350000D01*
X129474971Y-110350000D01*
X130310119Y-109514852D01*
X130344767Y-109500500D01*
X134744405Y-109500500D01*
X134779053Y-109514852D01*
X134793405Y-109549500D01*
X134791007Y-109564642D01*
X134790281Y-109566874D01*
X134769196Y-109700000D01*
X134790281Y-109833126D01*
X134790281Y-109833127D01*
X134790282Y-109833128D01*
X134851467Y-109953213D01*
X134851472Y-109953220D01*
X134946779Y-110048527D01*
X134946786Y-110048532D01*
X134998734Y-110075000D01*
X135066874Y-110109719D01*
X135200000Y-110130804D01*
X135333126Y-110109719D01*
X135434383Y-110058126D01*
X135453213Y-110048532D01*
X135453215Y-110048530D01*
X135453220Y-110048528D01*
X135465352Y-110036396D01*
X135500000Y-110022044D01*
X135534648Y-110036396D01*
X135546779Y-110048527D01*
X135546786Y-110048532D01*
X135598734Y-110075000D01*
X135666874Y-110109719D01*
X135800000Y-110130804D01*
X135933126Y-110109719D01*
X136053220Y-110048528D01*
X136065352Y-110036394D01*
X136099998Y-110022042D01*
X136134645Y-110036390D01*
X136134649Y-110036394D01*
X136146782Y-110048527D01*
X136146789Y-110048532D01*
X136198737Y-110075000D01*
X136266877Y-110109719D01*
X136400003Y-110130804D01*
X136533129Y-110109719D01*
X136634386Y-110058126D01*
X136653216Y-110048532D01*
X136653218Y-110048530D01*
X136653223Y-110048528D01*
X136748531Y-109953220D01*
X136750873Y-109948625D01*
X136787098Y-109877528D01*
X136809722Y-109833126D01*
X136830807Y-109700000D01*
X136809722Y-109566874D01*
X136783434Y-109515280D01*
X136748535Y-109446786D01*
X136748530Y-109446779D01*
X136653223Y-109351472D01*
X136653216Y-109351467D01*
X136533134Y-109290282D01*
X136533127Y-109290280D01*
X136518954Y-109288035D01*
X136486978Y-109268438D01*
X136478226Y-109231971D01*
X136491972Y-109204993D01*
X136967310Y-108729655D01*
X136994290Y-108715908D01*
X137033373Y-108709719D01*
X137098269Y-108676652D01*
X137153460Y-108648532D01*
X137153462Y-108648530D01*
X137153467Y-108648528D01*
X137215852Y-108586143D01*
X137250500Y-108571791D01*
X137285148Y-108586143D01*
X137299500Y-108620791D01*
X137299500Y-114644079D01*
X137285148Y-114678727D01*
X137270034Y-114687990D01*
X137270309Y-114688530D01*
X137146786Y-114751467D01*
X137146779Y-114751472D01*
X137051472Y-114846779D01*
X137051467Y-114846786D01*
X136990282Y-114966871D01*
X136990281Y-114966872D01*
X136990281Y-114966874D01*
X136969196Y-115100000D01*
X136990281Y-115233126D01*
X136990281Y-115233127D01*
X136990282Y-115233128D01*
X137051467Y-115353213D01*
X137051472Y-115353220D01*
X137146779Y-115448527D01*
X137146786Y-115448532D01*
X137226842Y-115489322D01*
X137266874Y-115509719D01*
X137400000Y-115530804D01*
X137533126Y-115509719D01*
X137616420Y-115467278D01*
X137653213Y-115448532D01*
X137653215Y-115448530D01*
X137653220Y-115448528D01*
X137748528Y-115353220D01*
X137758766Y-115333128D01*
X137767278Y-115316420D01*
X137809719Y-115233126D01*
X137829437Y-115108627D01*
X137838962Y-115086463D01*
X137840456Y-115084514D01*
X137840460Y-115084511D01*
X137880022Y-115015988D01*
X137900499Y-114939565D01*
X137900500Y-114939565D01*
X137900500Y-114519999D01*
X138244417Y-114519999D01*
X138244417Y-114520000D01*
X138264700Y-114725934D01*
X138264700Y-114725935D01*
X138290855Y-114812158D01*
X138324768Y-114923954D01*
X138422315Y-115106450D01*
X138553590Y-115266410D01*
X138713550Y-115397685D01*
X138896046Y-115495232D01*
X139094066Y-115555300D01*
X139300000Y-115575583D01*
X139505934Y-115555300D01*
X139703954Y-115495232D01*
X139886450Y-115397685D01*
X140046410Y-115266410D01*
X140177685Y-115106450D01*
X140275232Y-114923954D01*
X140335300Y-114725934D01*
X140355583Y-114520000D01*
X140335300Y-114314066D01*
X140275232Y-114116046D01*
X140177685Y-113933550D01*
X140046410Y-113773590D01*
X139886450Y-113642315D01*
X139703954Y-113544768D01*
X139505934Y-113484700D01*
X139300000Y-113464417D01*
X139094065Y-113484700D01*
X139094064Y-113484700D01*
X138896043Y-113544769D01*
X138713548Y-113642316D01*
X138553590Y-113773590D01*
X138422316Y-113933548D01*
X138324769Y-114116043D01*
X138264700Y-114314064D01*
X138264700Y-114314065D01*
X138244417Y-114519999D01*
X137900500Y-114519999D01*
X137900500Y-113120544D01*
X137914852Y-113085896D01*
X137949500Y-113071544D01*
X137984148Y-113085896D01*
X137996779Y-113098527D01*
X137996786Y-113098532D01*
X138055122Y-113128255D01*
X138116874Y-113159719D01*
X138250000Y-113180804D01*
X138383126Y-113159719D01*
X138466420Y-113117278D01*
X138503213Y-113098532D01*
X138503215Y-113098530D01*
X138503220Y-113098528D01*
X138598528Y-113003220D01*
X138658744Y-112885039D01*
X138687260Y-112860684D01*
X138724647Y-112863626D01*
X138725419Y-112864029D01*
X138896046Y-112955232D01*
X139094066Y-113015300D01*
X139300000Y-113035583D01*
X139505934Y-113015300D01*
X139703954Y-112955232D01*
X139886450Y-112857685D01*
X140046410Y-112726410D01*
X140177685Y-112566450D01*
X140275232Y-112383954D01*
X140335300Y-112185934D01*
X140355583Y-111980000D01*
X140347704Y-111900000D01*
X144369196Y-111900000D01*
X144390281Y-112033126D01*
X144390281Y-112033127D01*
X144390282Y-112033128D01*
X144451467Y-112153213D01*
X144451472Y-112153220D01*
X144546779Y-112248527D01*
X144546786Y-112248532D01*
X144592426Y-112271786D01*
X144666874Y-112309719D01*
X144800000Y-112330804D01*
X144933126Y-112309719D01*
X145017220Y-112266871D01*
X145053213Y-112248532D01*
X145053215Y-112248530D01*
X145053220Y-112248528D01*
X145148528Y-112153220D01*
X145150920Y-112148527D01*
X145178602Y-112094196D01*
X145209719Y-112033126D01*
X145230804Y-111900000D01*
X145214966Y-111800000D01*
X145869196Y-111800000D01*
X145890281Y-111933126D01*
X145890281Y-111933127D01*
X145890282Y-111933128D01*
X145951467Y-112053213D01*
X145951472Y-112053220D01*
X146046779Y-112148527D01*
X146046786Y-112148532D01*
X146101613Y-112176467D01*
X146166874Y-112209719D01*
X146300000Y-112230804D01*
X146433126Y-112209719D01*
X146516420Y-112167278D01*
X146553213Y-112148532D01*
X146553215Y-112148530D01*
X146553220Y-112148528D01*
X146601748Y-112100000D01*
X149769196Y-112100000D01*
X149790281Y-112233126D01*
X149790281Y-112233127D01*
X149790282Y-112233128D01*
X149851467Y-112353213D01*
X149851472Y-112353220D01*
X149946779Y-112448527D01*
X149946786Y-112448532D01*
X150026842Y-112489322D01*
X150066874Y-112509719D01*
X150200000Y-112530804D01*
X150333126Y-112509719D01*
X150434383Y-112458126D01*
X150453213Y-112448532D01*
X150453215Y-112448530D01*
X150453220Y-112448528D01*
X150548528Y-112353220D01*
X150609719Y-112233126D01*
X150630804Y-112100000D01*
X150609719Y-111966874D01*
X150575645Y-111900000D01*
X150548532Y-111846786D01*
X150548527Y-111846779D01*
X150453220Y-111751472D01*
X150453213Y-111751467D01*
X150333128Y-111690282D01*
X150333127Y-111690281D01*
X150333126Y-111690281D01*
X150200000Y-111669196D01*
X150066874Y-111690281D01*
X150066872Y-111690281D01*
X150066871Y-111690282D01*
X149946786Y-111751467D01*
X149946779Y-111751472D01*
X149851472Y-111846779D01*
X149851467Y-111846786D01*
X149790282Y-111966871D01*
X149790281Y-111966872D01*
X149790281Y-111966874D01*
X149769196Y-112100000D01*
X146601748Y-112100000D01*
X146648528Y-112053220D01*
X146649422Y-112051467D01*
X146675645Y-111999999D01*
X146709719Y-111933126D01*
X146730804Y-111800000D01*
X146709719Y-111666874D01*
X146684241Y-111616871D01*
X146648532Y-111546786D01*
X146648527Y-111546779D01*
X146553220Y-111451472D01*
X146553213Y-111451467D01*
X146433128Y-111390282D01*
X146433127Y-111390281D01*
X146433126Y-111390281D01*
X146300000Y-111369196D01*
X146166874Y-111390281D01*
X146166872Y-111390281D01*
X146166871Y-111390282D01*
X146046786Y-111451467D01*
X146046779Y-111451472D01*
X145951472Y-111546779D01*
X145951467Y-111546786D01*
X145890282Y-111666871D01*
X145890281Y-111666872D01*
X145890281Y-111666874D01*
X145869196Y-111800000D01*
X145214966Y-111800000D01*
X145209719Y-111766874D01*
X145173201Y-111695203D01*
X145148532Y-111646786D01*
X145148527Y-111646779D01*
X145053220Y-111551472D01*
X145053213Y-111551467D01*
X144933128Y-111490282D01*
X144933127Y-111490281D01*
X144933126Y-111490281D01*
X144800000Y-111469196D01*
X144666874Y-111490281D01*
X144666872Y-111490281D01*
X144666871Y-111490282D01*
X144546786Y-111551467D01*
X144546779Y-111551472D01*
X144451472Y-111646779D01*
X144451467Y-111646786D01*
X144390282Y-111766871D01*
X144390281Y-111766872D01*
X144390281Y-111766874D01*
X144369196Y-111900000D01*
X140347704Y-111900000D01*
X140335300Y-111774066D01*
X140275232Y-111576046D01*
X140177685Y-111393550D01*
X140046410Y-111233590D01*
X139886450Y-111102315D01*
X139788576Y-111050000D01*
X141069196Y-111050000D01*
X141090281Y-111183126D01*
X141090281Y-111183127D01*
X141090282Y-111183128D01*
X141151467Y-111303213D01*
X141151472Y-111303220D01*
X141246779Y-111398527D01*
X141246786Y-111398532D01*
X141310123Y-111430803D01*
X141366874Y-111459719D01*
X141500000Y-111480804D01*
X141633126Y-111459719D01*
X141720211Y-111415347D01*
X141753213Y-111398532D01*
X141753215Y-111398530D01*
X141753220Y-111398528D01*
X141848528Y-111303220D01*
X141851828Y-111296745D01*
X141874008Y-111253213D01*
X141909719Y-111183126D01*
X141930804Y-111050000D01*
X141909719Y-110916874D01*
X141874024Y-110846818D01*
X141848532Y-110796786D01*
X141848527Y-110796779D01*
X141753220Y-110701472D01*
X141753213Y-110701467D01*
X141633128Y-110640282D01*
X141633127Y-110640281D01*
X141633126Y-110640281D01*
X141500000Y-110619196D01*
X141366874Y-110640281D01*
X141366872Y-110640281D01*
X141366871Y-110640282D01*
X141246786Y-110701467D01*
X141246779Y-110701472D01*
X141151472Y-110796779D01*
X141151467Y-110796786D01*
X141090282Y-110916871D01*
X141090281Y-110916872D01*
X141090281Y-110916874D01*
X141069196Y-111050000D01*
X139788576Y-111050000D01*
X139703954Y-111004768D01*
X139505934Y-110944700D01*
X139300000Y-110924417D01*
X139094065Y-110944700D01*
X139094064Y-110944700D01*
X138896043Y-111004769D01*
X138713548Y-111102316D01*
X138553590Y-111233590D01*
X138422316Y-111393548D01*
X138342714Y-111542471D01*
X138313724Y-111566262D01*
X138276401Y-111562586D01*
X138252610Y-111533596D01*
X138250500Y-111519372D01*
X138250500Y-109900627D01*
X138264852Y-109865979D01*
X138299500Y-109851627D01*
X138334148Y-109865979D01*
X138342713Y-109877527D01*
X138422315Y-110026450D01*
X138553590Y-110186410D01*
X138713550Y-110317685D01*
X138896046Y-110415232D01*
X139094066Y-110475300D01*
X139300000Y-110495583D01*
X139505934Y-110475300D01*
X139703954Y-110415232D01*
X139886450Y-110317685D01*
X140046410Y-110186410D01*
X140177685Y-110026450D01*
X140275232Y-109843954D01*
X140335300Y-109645934D01*
X140355583Y-109440000D01*
X140335300Y-109234066D01*
X140302216Y-109125000D01*
X143894196Y-109125000D01*
X143915281Y-109258126D01*
X143915281Y-109258127D01*
X143915282Y-109258128D01*
X143976467Y-109378213D01*
X143976472Y-109378220D01*
X144071779Y-109473527D01*
X144071786Y-109473532D01*
X144124715Y-109500500D01*
X144191874Y-109534719D01*
X144325000Y-109555804D01*
X144458126Y-109534719D01*
X144541420Y-109492278D01*
X144578213Y-109473532D01*
X144578215Y-109473530D01*
X144578220Y-109473528D01*
X144673528Y-109378220D01*
X144677582Y-109370265D01*
X144695799Y-109334511D01*
X144734719Y-109258126D01*
X144755804Y-109125000D01*
X144734719Y-108991874D01*
X144686268Y-108896783D01*
X144673532Y-108871786D01*
X144673527Y-108871779D01*
X144578220Y-108776472D01*
X144578213Y-108776467D01*
X144458128Y-108715282D01*
X144458127Y-108715281D01*
X144458126Y-108715281D01*
X144325000Y-108694196D01*
X144191874Y-108715281D01*
X144191872Y-108715281D01*
X144191871Y-108715282D01*
X144071786Y-108776467D01*
X144071779Y-108776472D01*
X143976472Y-108871779D01*
X143976467Y-108871786D01*
X143915282Y-108991871D01*
X143915281Y-108991872D01*
X143915281Y-108991874D01*
X143894196Y-109125000D01*
X140302216Y-109125000D01*
X140275232Y-109036046D01*
X140177685Y-108853550D01*
X140046410Y-108693590D01*
X139886450Y-108562315D01*
X139703954Y-108464768D01*
X139505934Y-108404700D01*
X139300000Y-108384417D01*
X139094065Y-108404700D01*
X139094064Y-108404700D01*
X138896043Y-108464769D01*
X138713548Y-108562316D01*
X138553590Y-108693590D01*
X138422316Y-108853548D01*
X138342714Y-109002471D01*
X138313724Y-109026262D01*
X138276401Y-109022586D01*
X138252610Y-108993596D01*
X138250500Y-108979372D01*
X138250500Y-107100000D01*
X141069196Y-107100000D01*
X141090281Y-107233126D01*
X141090281Y-107233127D01*
X141090282Y-107233128D01*
X141151467Y-107353213D01*
X141151472Y-107353220D01*
X141246779Y-107448527D01*
X141246786Y-107448532D01*
X141304977Y-107478181D01*
X141366874Y-107509719D01*
X141500000Y-107530804D01*
X141633126Y-107509719D01*
X141716420Y-107467278D01*
X141753213Y-107448532D01*
X141753215Y-107448530D01*
X141753220Y-107448528D01*
X141848528Y-107353220D01*
X141909719Y-107233126D01*
X141930804Y-107100000D01*
X141909719Y-106966874D01*
X141889322Y-106926842D01*
X141848532Y-106846786D01*
X141848527Y-106846779D01*
X141753220Y-106751472D01*
X141753213Y-106751467D01*
X141633128Y-106690282D01*
X141633127Y-106690281D01*
X141633126Y-106690281D01*
X141526519Y-106673396D01*
X141499424Y-106656791D01*
X141494614Y-106664642D01*
X141473479Y-106673396D01*
X141366874Y-106690281D01*
X141366872Y-106690281D01*
X141366871Y-106690282D01*
X141246786Y-106751467D01*
X141246779Y-106751472D01*
X141151472Y-106846779D01*
X141151467Y-106846786D01*
X141090282Y-106966871D01*
X141090281Y-106966872D01*
X141090281Y-106966874D01*
X141069196Y-107100000D01*
X138250500Y-107100000D01*
X138250500Y-107060436D01*
X138244354Y-107037501D01*
X138244354Y-107037500D01*
X138230022Y-106984012D01*
X138230021Y-106984010D01*
X138207103Y-106944315D01*
X138190460Y-106915489D01*
X137424971Y-106150000D01*
X141069196Y-106150000D01*
X141090281Y-106283126D01*
X141090281Y-106283127D01*
X141090282Y-106283128D01*
X141151467Y-106403213D01*
X141151472Y-106403220D01*
X141246779Y-106498527D01*
X141246786Y-106498532D01*
X141326842Y-106539322D01*
X141366874Y-106559719D01*
X141473478Y-106576603D01*
X141500574Y-106593208D01*
X141505385Y-106585358D01*
X141526519Y-106576603D01*
X141633126Y-106559719D01*
X141716420Y-106517278D01*
X141753213Y-106498532D01*
X141753215Y-106498530D01*
X141753220Y-106498528D01*
X141848528Y-106403220D01*
X141864548Y-106371780D01*
X141867278Y-106366420D01*
X141909719Y-106283126D01*
X141930804Y-106150000D01*
X141909719Y-106016874D01*
X141874633Y-105948014D01*
X141848532Y-105896786D01*
X141848527Y-105896779D01*
X141753220Y-105801472D01*
X141753213Y-105801467D01*
X141633128Y-105740282D01*
X141633127Y-105740281D01*
X141633126Y-105740281D01*
X141500000Y-105719196D01*
X141366874Y-105740281D01*
X141366872Y-105740281D01*
X141366871Y-105740282D01*
X141246786Y-105801467D01*
X141246779Y-105801472D01*
X141151472Y-105896779D01*
X141151467Y-105896786D01*
X141090282Y-106016871D01*
X141090281Y-106016872D01*
X141090281Y-106016874D01*
X141069196Y-106150000D01*
X137424971Y-106150000D01*
X137393159Y-106118188D01*
X137379411Y-106091207D01*
X137359719Y-105966874D01*
X137325645Y-105900000D01*
X137298532Y-105846786D01*
X137298527Y-105846779D01*
X137203220Y-105751472D01*
X137203213Y-105751467D01*
X137079690Y-105688530D01*
X137080439Y-105687059D01*
X137056360Y-105666498D01*
X137053414Y-105629110D01*
X137065367Y-105609602D01*
X137381812Y-105293157D01*
X137408789Y-105279411D01*
X137533126Y-105259719D01*
X137616420Y-105217278D01*
X137653213Y-105198532D01*
X137653215Y-105198530D01*
X137653220Y-105198528D01*
X137748528Y-105103220D01*
X137750169Y-105100000D01*
X139769196Y-105100000D01*
X139790281Y-105233126D01*
X139790281Y-105233127D01*
X139790282Y-105233128D01*
X139851467Y-105353213D01*
X139851472Y-105353220D01*
X139946779Y-105448527D01*
X139946786Y-105448532D01*
X140026842Y-105489322D01*
X140066874Y-105509719D01*
X140200000Y-105530804D01*
X140333126Y-105509719D01*
X140416420Y-105467278D01*
X140453213Y-105448532D01*
X140453215Y-105448530D01*
X140453220Y-105448528D01*
X140548528Y-105353220D01*
X140609719Y-105233126D01*
X140630804Y-105100000D01*
X140609719Y-104966874D01*
X140575645Y-104900000D01*
X142869196Y-104900000D01*
X142890281Y-105033126D01*
X142890281Y-105033127D01*
X142890282Y-105033128D01*
X142951467Y-105153213D01*
X142951472Y-105153220D01*
X143046779Y-105248527D01*
X143046786Y-105248532D01*
X143092426Y-105271786D01*
X143166874Y-105309719D01*
X143300000Y-105330804D01*
X143433126Y-105309719D01*
X143516420Y-105267278D01*
X143553213Y-105248532D01*
X143553215Y-105248530D01*
X143553220Y-105248528D01*
X143648528Y-105153220D01*
X143709719Y-105033126D01*
X143730804Y-104900000D01*
X143709719Y-104766874D01*
X143684241Y-104716870D01*
X143648532Y-104646786D01*
X143648526Y-104646778D01*
X143553220Y-104551472D01*
X143553213Y-104551467D01*
X143433128Y-104490282D01*
X143433127Y-104490281D01*
X143433126Y-104490281D01*
X143300000Y-104469196D01*
X143166874Y-104490281D01*
X143166872Y-104490281D01*
X143166871Y-104490282D01*
X143046786Y-104551467D01*
X143046779Y-104551472D01*
X142951474Y-104646778D01*
X142951467Y-104646786D01*
X142890282Y-104766871D01*
X142890281Y-104766872D01*
X142890281Y-104766874D01*
X142869196Y-104900000D01*
X140575645Y-104900000D01*
X140572979Y-104894767D01*
X140548532Y-104846786D01*
X140548527Y-104846779D01*
X140453220Y-104751472D01*
X140453213Y-104751467D01*
X140333128Y-104690282D01*
X140333127Y-104690281D01*
X140333126Y-104690281D01*
X140200000Y-104669196D01*
X140066874Y-104690281D01*
X140066872Y-104690281D01*
X140066871Y-104690282D01*
X139946786Y-104751467D01*
X139946779Y-104751472D01*
X139851472Y-104846779D01*
X139851467Y-104846786D01*
X139790282Y-104966871D01*
X139790281Y-104966872D01*
X139790281Y-104966874D01*
X139769196Y-105100000D01*
X137750169Y-105100000D01*
X137755236Y-105090056D01*
X137767278Y-105066420D01*
X137809719Y-104983126D01*
X137830804Y-104850000D01*
X137809719Y-104716874D01*
X137774895Y-104648528D01*
X137748532Y-104596786D01*
X137748527Y-104596779D01*
X137653220Y-104501472D01*
X137653213Y-104501467D01*
X137533128Y-104440282D01*
X137533127Y-104440281D01*
X137533126Y-104440281D01*
X137400000Y-104419196D01*
X137266874Y-104440281D01*
X137266872Y-104440281D01*
X137266871Y-104440282D01*
X137146786Y-104501467D01*
X137146779Y-104501472D01*
X137051472Y-104596779D01*
X137051467Y-104596786D01*
X136990282Y-104716870D01*
X136990281Y-104716872D01*
X136990281Y-104716874D01*
X136970589Y-104841205D01*
X136956840Y-104868187D01*
X136290489Y-105534540D01*
X136234541Y-105590488D01*
X136234540Y-105590488D01*
X136194979Y-105659008D01*
X136194979Y-105659010D01*
X136174500Y-105735436D01*
X136174500Y-106336315D01*
X136194979Y-106412741D01*
X136194979Y-106412743D01*
X136223709Y-106462503D01*
X136223710Y-106462504D01*
X136234537Y-106481259D01*
X136234542Y-106481265D01*
X137285148Y-107531871D01*
X137299500Y-107566519D01*
X137299500Y-107979209D01*
X137285148Y-108013857D01*
X137250500Y-108028209D01*
X137215852Y-108013857D01*
X137153467Y-107951472D01*
X137153460Y-107951467D01*
X137033375Y-107890281D01*
X137033373Y-107890280D01*
X136994289Y-107884089D01*
X136967308Y-107870341D01*
X136156506Y-107059539D01*
X136154350Y-107058294D01*
X136150036Y-107055804D01*
X136145969Y-107053456D01*
X136087986Y-107019979D01*
X136011560Y-106999500D01*
X136011558Y-106999500D01*
X134654908Y-106999500D01*
X134620260Y-106985148D01*
X134605908Y-106950500D01*
X134611249Y-106928255D01*
X134636746Y-106878213D01*
X134659719Y-106833126D01*
X134680804Y-106700000D01*
X134659719Y-106566874D01*
X134624895Y-106498528D01*
X134598532Y-106446786D01*
X134598527Y-106446779D01*
X134564852Y-106413104D01*
X134550500Y-106378456D01*
X134550500Y-105948014D01*
X134564851Y-105913367D01*
X134752656Y-105725562D01*
X134787302Y-105711211D01*
X134821950Y-105725563D01*
X134830960Y-105737964D01*
X134837390Y-105750583D01*
X134849080Y-105773527D01*
X134851472Y-105778220D01*
X134851475Y-105778223D01*
X134863605Y-105790353D01*
X134877957Y-105825001D01*
X134863606Y-105859648D01*
X134851474Y-105871780D01*
X134851468Y-105871788D01*
X134790282Y-105991874D01*
X134790281Y-105991875D01*
X134790281Y-105991877D01*
X134769196Y-106125003D01*
X134790281Y-106258129D01*
X134790281Y-106258130D01*
X134790282Y-106258131D01*
X134851467Y-106378216D01*
X134851472Y-106378223D01*
X134946779Y-106473530D01*
X134946786Y-106473535D01*
X135026842Y-106514325D01*
X135066874Y-106534722D01*
X135200000Y-106555807D01*
X135333126Y-106534722D01*
X135417226Y-106491871D01*
X135453213Y-106473535D01*
X135453215Y-106473533D01*
X135453220Y-106473531D01*
X135548528Y-106378223D01*
X135551812Y-106371779D01*
X135577274Y-106321806D01*
X135609719Y-106258129D01*
X135630804Y-106125003D01*
X135609719Y-105991877D01*
X135571053Y-105915990D01*
X135548532Y-105871789D01*
X135548527Y-105871782D01*
X135536394Y-105859649D01*
X135522042Y-105825001D01*
X135536393Y-105790354D01*
X135548528Y-105778220D01*
X135609719Y-105658126D01*
X135630804Y-105525000D01*
X135609719Y-105391874D01*
X135589322Y-105351842D01*
X135548532Y-105271786D01*
X135548527Y-105271779D01*
X135453223Y-105176475D01*
X135453220Y-105176472D01*
X135453218Y-105176471D01*
X135453217Y-105176470D01*
X135412965Y-105155961D01*
X135388609Y-105127444D01*
X135391552Y-105090056D01*
X135400560Y-105077657D01*
X136263367Y-104214852D01*
X136298015Y-104200500D01*
X136678456Y-104200500D01*
X136713104Y-104214852D01*
X136746779Y-104248527D01*
X136746786Y-104248532D01*
X136826842Y-104289322D01*
X136866874Y-104309719D01*
X137000000Y-104330804D01*
X137133126Y-104309719D01*
X137217220Y-104266871D01*
X137253213Y-104248532D01*
X137253215Y-104248530D01*
X137253220Y-104248528D01*
X137348528Y-104153220D01*
X137351807Y-104146786D01*
X137367278Y-104116420D01*
X137409719Y-104033126D01*
X137430804Y-103900000D01*
X137409719Y-103766874D01*
X137385824Y-103719977D01*
X137375645Y-103700000D01*
X143769196Y-103700000D01*
X143790281Y-103833126D01*
X143790281Y-103833127D01*
X143790282Y-103833128D01*
X143851467Y-103953213D01*
X143851472Y-103953220D01*
X143885148Y-103986896D01*
X143899500Y-104021544D01*
X143899500Y-106711315D01*
X143919978Y-106787739D01*
X143919979Y-106787743D01*
X143936288Y-106815989D01*
X143936289Y-106815990D01*
X143959537Y-106856259D01*
X143959539Y-106856261D01*
X143959540Y-106856263D01*
X148812788Y-111709511D01*
X148868737Y-111765460D01*
X148937259Y-111805021D01*
X148985072Y-111817832D01*
X149014756Y-111825787D01*
X149036721Y-111838469D01*
X149071779Y-111873527D01*
X149071786Y-111873532D01*
X149123734Y-111900000D01*
X149191874Y-111934719D01*
X149325000Y-111955804D01*
X149458126Y-111934719D01*
X149559383Y-111883126D01*
X149578213Y-111873532D01*
X149578215Y-111873530D01*
X149578220Y-111873528D01*
X149673528Y-111778220D01*
X149689548Y-111746780D01*
X149698884Y-111728456D01*
X149734719Y-111658126D01*
X149755804Y-111525000D01*
X149734719Y-111391874D01*
X149696503Y-111316871D01*
X149686249Y-111296745D01*
X149683306Y-111259358D01*
X149707663Y-111230841D01*
X149729908Y-111225500D01*
X150980233Y-111225500D01*
X151014881Y-111239852D01*
X153459540Y-113684511D01*
X153515489Y-113740460D01*
X153584011Y-113780021D01*
X153619478Y-113789524D01*
X153660436Y-113800500D01*
X153660438Y-113800500D01*
X155539564Y-113800500D01*
X155566230Y-113793354D01*
X155615989Y-113780021D01*
X155684511Y-113740460D01*
X155740460Y-113684511D01*
X156440460Y-112984511D01*
X156457364Y-112955232D01*
X156480021Y-112915989D01*
X156500500Y-112839562D01*
X156500500Y-111771544D01*
X156514852Y-111736896D01*
X156523292Y-111728456D01*
X156548528Y-111703220D01*
X156555121Y-111690282D01*
X156570267Y-111660555D01*
X156609719Y-111583126D01*
X156624547Y-111489501D01*
X156644141Y-111457527D01*
X156680605Y-111448772D01*
X156725000Y-111455804D01*
X156858126Y-111434719D01*
X156942220Y-111391871D01*
X156978213Y-111373532D01*
X156978215Y-111373530D01*
X156978220Y-111373528D01*
X157073528Y-111278220D01*
X157076810Y-111271780D01*
X157108835Y-111208926D01*
X157134719Y-111158126D01*
X157155804Y-111025000D01*
X157134719Y-110891874D01*
X157110229Y-110843809D01*
X157073532Y-110771786D01*
X157073527Y-110771779D01*
X157039852Y-110738104D01*
X157025500Y-110703456D01*
X157025500Y-110485436D01*
X157016843Y-110453134D01*
X157005021Y-110409011D01*
X157005020Y-110409009D01*
X157005020Y-110409008D01*
X156965459Y-110340488D01*
X154309511Y-107684540D01*
X154240990Y-107644979D01*
X154164564Y-107624500D01*
X154164562Y-107624500D01*
X151846544Y-107624500D01*
X151811896Y-107610148D01*
X151778220Y-107576472D01*
X151778213Y-107576467D01*
X151663775Y-107518159D01*
X151639418Y-107489642D01*
X151642361Y-107452255D01*
X151670878Y-107427898D01*
X151686020Y-107425500D01*
X153764564Y-107425500D01*
X153791230Y-107418354D01*
X153840989Y-107405021D01*
X153909511Y-107365460D01*
X153965460Y-107309511D01*
X154649971Y-106625000D01*
X155594196Y-106625000D01*
X155615281Y-106758126D01*
X155615281Y-106758127D01*
X155615282Y-106758128D01*
X155676467Y-106878213D01*
X155676472Y-106878220D01*
X155771779Y-106973527D01*
X155771786Y-106973532D01*
X155835702Y-107006098D01*
X155891874Y-107034719D01*
X156025000Y-107055804D01*
X156158126Y-107034719D01*
X156241420Y-106992278D01*
X156278213Y-106973532D01*
X156278215Y-106973530D01*
X156278220Y-106973528D01*
X156373528Y-106878220D01*
X156375919Y-106873529D01*
X156393077Y-106839852D01*
X156434719Y-106758126D01*
X156455804Y-106625000D01*
X156434719Y-106491874D01*
X156414322Y-106451842D01*
X156373532Y-106371786D01*
X156373527Y-106371779D01*
X156278220Y-106276472D01*
X156278213Y-106276467D01*
X156158128Y-106215282D01*
X156158127Y-106215281D01*
X156158126Y-106215281D01*
X156025000Y-106194196D01*
X155891874Y-106215281D01*
X155891872Y-106215281D01*
X155891871Y-106215282D01*
X155771786Y-106276467D01*
X155771779Y-106276472D01*
X155676472Y-106371779D01*
X155676467Y-106371786D01*
X155615282Y-106491871D01*
X155615281Y-106491872D01*
X155615281Y-106491874D01*
X155594196Y-106625000D01*
X154649971Y-106625000D01*
X154965460Y-106309511D01*
X155005022Y-106240988D01*
X155025499Y-106164565D01*
X155025500Y-106164565D01*
X155025500Y-105146544D01*
X155039852Y-105111896D01*
X155051748Y-105100000D01*
X155073528Y-105078220D01*
X155073817Y-105077654D01*
X155092278Y-105041420D01*
X155134719Y-104958126D01*
X155155804Y-104825000D01*
X155134719Y-104691874D01*
X155112633Y-104648527D01*
X155073532Y-104571786D01*
X155073527Y-104571779D01*
X154978220Y-104476472D01*
X154978213Y-104476467D01*
X154858128Y-104415282D01*
X154858127Y-104415281D01*
X154858126Y-104415281D01*
X154725000Y-104394196D01*
X154591874Y-104415281D01*
X154591872Y-104415281D01*
X154591871Y-104415282D01*
X154471786Y-104476467D01*
X154471779Y-104476472D01*
X154376472Y-104571779D01*
X154376467Y-104571786D01*
X154315282Y-104691871D01*
X154315281Y-104691872D01*
X154315281Y-104691874D01*
X154294196Y-104825000D01*
X154315281Y-104958126D01*
X154315281Y-104958127D01*
X154315282Y-104958128D01*
X154376467Y-105078213D01*
X154376472Y-105078220D01*
X154410148Y-105111896D01*
X154424500Y-105146544D01*
X154424500Y-105980233D01*
X154410148Y-106014881D01*
X153614881Y-106810148D01*
X153580233Y-106824500D01*
X151129908Y-106824500D01*
X151095260Y-106810148D01*
X151080908Y-106775500D01*
X151086249Y-106753255D01*
X151113383Y-106700000D01*
X151134719Y-106658126D01*
X151155804Y-106525000D01*
X151134719Y-106391874D01*
X151106023Y-106335555D01*
X151073532Y-106271786D01*
X151073527Y-106271779D01*
X150978220Y-106176472D01*
X150978213Y-106176467D01*
X150858128Y-106115282D01*
X150858127Y-106115281D01*
X150858126Y-106115281D01*
X150725000Y-106094196D01*
X150591874Y-106115281D01*
X150591872Y-106115281D01*
X150591871Y-106115282D01*
X150471786Y-106176467D01*
X150471779Y-106176472D01*
X150438104Y-106210148D01*
X150403456Y-106224500D01*
X150241519Y-106224500D01*
X150206871Y-106210148D01*
X149656266Y-105659543D01*
X149656263Y-105659540D01*
X149653814Y-105658126D01*
X149648803Y-105655233D01*
X149587742Y-105619979D01*
X149511316Y-105599500D01*
X149511314Y-105599500D01*
X146604908Y-105599500D01*
X146570260Y-105585148D01*
X146555908Y-105550500D01*
X146561249Y-105528255D01*
X146601871Y-105448528D01*
X146609719Y-105433126D01*
X146630804Y-105300000D01*
X146609719Y-105166874D01*
X146575645Y-105100000D01*
X146548532Y-105046786D01*
X146548527Y-105046779D01*
X146453220Y-104951472D01*
X146453213Y-104951467D01*
X146333128Y-104890282D01*
X146333127Y-104890281D01*
X146333126Y-104890281D01*
X146200000Y-104869196D01*
X146066874Y-104890281D01*
X146066872Y-104890281D01*
X146066871Y-104890282D01*
X145946786Y-104951467D01*
X145946779Y-104951472D01*
X145851472Y-105046779D01*
X145851467Y-105046786D01*
X145790282Y-105166871D01*
X145790281Y-105166872D01*
X145790281Y-105166874D01*
X145769196Y-105300000D01*
X145790281Y-105433126D01*
X145790281Y-105433127D01*
X145790282Y-105433128D01*
X145838751Y-105528255D01*
X145841694Y-105565642D01*
X145817337Y-105594159D01*
X145795092Y-105599500D01*
X145744767Y-105599500D01*
X145710119Y-105585148D01*
X145568159Y-105443188D01*
X145554411Y-105416207D01*
X145534719Y-105291874D01*
X145506706Y-105236896D01*
X145473532Y-105171786D01*
X145473527Y-105171779D01*
X145378220Y-105076472D01*
X145378213Y-105076467D01*
X145258128Y-105015282D01*
X145258127Y-105015281D01*
X145258126Y-105015281D01*
X145125000Y-104994196D01*
X144991874Y-105015281D01*
X144991872Y-105015281D01*
X144991871Y-105015282D01*
X144871786Y-105076467D01*
X144871779Y-105076472D01*
X144776472Y-105171779D01*
X144776467Y-105171786D01*
X144715282Y-105291871D01*
X144715281Y-105291872D01*
X144715281Y-105291874D01*
X144694196Y-105425000D01*
X144715281Y-105558126D01*
X144715281Y-105558127D01*
X144715282Y-105558128D01*
X144776467Y-105678213D01*
X144776472Y-105678220D01*
X144871779Y-105773527D01*
X144871786Y-105773532D01*
X144926613Y-105801467D01*
X144991874Y-105834719D01*
X145116207Y-105854411D01*
X145143188Y-105868159D01*
X145359540Y-106084511D01*
X145415489Y-106140460D01*
X145484011Y-106180021D01*
X145519478Y-106189524D01*
X145560436Y-106200500D01*
X145560438Y-106200500D01*
X148881878Y-106200500D01*
X148916526Y-106214852D01*
X148930878Y-106249500D01*
X148925537Y-106271744D01*
X148923131Y-106276467D01*
X148915281Y-106291872D01*
X148908242Y-106336314D01*
X148894196Y-106425000D01*
X148915281Y-106558126D01*
X148915281Y-106558127D01*
X148915282Y-106558128D01*
X148976467Y-106678213D01*
X148976472Y-106678220D01*
X149010148Y-106711896D01*
X149024500Y-106746544D01*
X149024500Y-107936315D01*
X149044979Y-108012741D01*
X149044979Y-108012743D01*
X149084540Y-108081263D01*
X149650820Y-108647543D01*
X149665172Y-108682191D01*
X149659832Y-108704436D01*
X149615281Y-108791873D01*
X149602625Y-108871779D01*
X149594196Y-108925000D01*
X149615281Y-109058126D01*
X149615281Y-109058127D01*
X149615282Y-109058128D01*
X149676467Y-109178213D01*
X149676472Y-109178220D01*
X149771779Y-109273527D01*
X149771786Y-109273532D01*
X149851842Y-109314322D01*
X149891874Y-109334719D01*
X149992581Y-109350669D01*
X150024558Y-109370265D01*
X150033313Y-109406731D01*
X150019564Y-109433714D01*
X149957937Y-109495341D01*
X149930956Y-109509089D01*
X149891873Y-109515280D01*
X149891871Y-109515281D01*
X149771786Y-109576467D01*
X149771779Y-109576472D01*
X149676472Y-109671779D01*
X149676467Y-109671786D01*
X149615282Y-109791871D01*
X149615281Y-109791872D01*
X149615281Y-109791874D01*
X149594196Y-109925000D01*
X149615281Y-110058126D01*
X149615281Y-110058127D01*
X149615282Y-110058128D01*
X149676467Y-110178213D01*
X149676472Y-110178220D01*
X149771779Y-110273527D01*
X149771786Y-110273532D01*
X149851842Y-110314322D01*
X149891874Y-110334719D01*
X150025000Y-110355804D01*
X150158126Y-110334719D01*
X150278220Y-110273528D01*
X150290352Y-110261394D01*
X150324998Y-110247042D01*
X150359645Y-110261390D01*
X150359649Y-110261394D01*
X150371782Y-110273527D01*
X150371789Y-110273532D01*
X150451845Y-110314322D01*
X150491877Y-110334719D01*
X150625003Y-110355804D01*
X150758129Y-110334719D01*
X150856611Y-110284540D01*
X150878216Y-110273532D01*
X150878218Y-110273530D01*
X150878223Y-110273528D01*
X150973531Y-110178220D01*
X151034722Y-110058126D01*
X151055807Y-109925000D01*
X151037143Y-109807162D01*
X151045898Y-109770699D01*
X151077875Y-109751103D01*
X151085540Y-109750500D01*
X152305233Y-109750500D01*
X152339881Y-109764852D01*
X154410148Y-111835119D01*
X154424500Y-111869767D01*
X154424500Y-112003456D01*
X154410148Y-112038104D01*
X154376472Y-112071779D01*
X154376467Y-112071786D01*
X154315282Y-112191871D01*
X154315281Y-112191872D01*
X154315281Y-112191874D01*
X154294196Y-112325000D01*
X154315281Y-112458126D01*
X154315281Y-112458127D01*
X154315282Y-112458128D01*
X154376467Y-112578213D01*
X154378736Y-112581335D01*
X154377455Y-112582265D01*
X154389643Y-112611687D01*
X154375291Y-112646335D01*
X154350410Y-112671215D01*
X154350405Y-112671222D01*
X154289220Y-112791307D01*
X154289219Y-112791308D01*
X154289219Y-112791310D01*
X154268134Y-112924436D01*
X154289219Y-113057562D01*
X154289219Y-113057563D01*
X154289220Y-113057564D01*
X154325238Y-113128255D01*
X154328181Y-113165642D01*
X154303824Y-113194159D01*
X154281579Y-113199500D01*
X153844767Y-113199500D01*
X153810119Y-113185148D01*
X152354822Y-111729851D01*
X152340470Y-111695203D01*
X152354822Y-111660555D01*
X152381802Y-111646807D01*
X152458126Y-111634719D01*
X152541420Y-111592278D01*
X152578213Y-111573532D01*
X152578215Y-111573530D01*
X152578220Y-111573528D01*
X152673528Y-111478220D01*
X152734719Y-111358126D01*
X152755804Y-111225000D01*
X152734719Y-111091874D01*
X152690337Y-111004769D01*
X152673532Y-110971786D01*
X152673527Y-110971779D01*
X152578220Y-110876472D01*
X152578213Y-110876467D01*
X152458128Y-110815282D01*
X152458127Y-110815281D01*
X152458126Y-110815281D01*
X152325000Y-110794196D01*
X152191874Y-110815281D01*
X152191872Y-110815281D01*
X152191871Y-110815282D01*
X152071786Y-110876467D01*
X152071779Y-110876472D01*
X151976472Y-110971779D01*
X151976467Y-110971786D01*
X151915282Y-111091870D01*
X151915281Y-111091872D01*
X151915281Y-111091874D01*
X151908747Y-111133128D01*
X151903193Y-111168195D01*
X151883597Y-111200171D01*
X151847130Y-111208926D01*
X151820148Y-111195177D01*
X151309511Y-110684540D01*
X151287410Y-110671780D01*
X151240990Y-110644979D01*
X151164564Y-110624500D01*
X151164562Y-110624500D01*
X149646544Y-110624500D01*
X149611896Y-110610148D01*
X149578220Y-110576472D01*
X149578213Y-110576467D01*
X149458128Y-110515282D01*
X149458127Y-110515281D01*
X149458126Y-110515281D01*
X149325000Y-110494196D01*
X149191874Y-110515281D01*
X149191872Y-110515281D01*
X149191871Y-110515282D01*
X149071786Y-110576467D01*
X149071779Y-110576472D01*
X148976472Y-110671779D01*
X148976467Y-110671786D01*
X148915282Y-110791870D01*
X148915281Y-110791872D01*
X148915281Y-110791874D01*
X148911574Y-110815281D01*
X148907055Y-110843809D01*
X148887459Y-110875785D01*
X148850992Y-110884540D01*
X148824010Y-110870791D01*
X144514852Y-106561633D01*
X144500500Y-106526985D01*
X144500500Y-104025000D01*
X149094196Y-104025000D01*
X149115281Y-104158126D01*
X149115281Y-104158127D01*
X149115282Y-104158128D01*
X149176467Y-104278213D01*
X149176472Y-104278220D01*
X149271779Y-104373527D01*
X149271786Y-104373532D01*
X149351842Y-104414322D01*
X149391874Y-104434719D01*
X149525000Y-104455804D01*
X149658126Y-104434719D01*
X149751138Y-104387327D01*
X149778213Y-104373532D01*
X149778215Y-104373530D01*
X149778220Y-104373528D01*
X149873528Y-104278220D01*
X149874900Y-104275529D01*
X149892278Y-104241420D01*
X149934719Y-104158126D01*
X149955804Y-104025000D01*
X149934719Y-103891874D01*
X149913552Y-103850331D01*
X149873532Y-103771786D01*
X149873527Y-103771779D01*
X149778220Y-103676472D01*
X149778213Y-103676467D01*
X149658128Y-103615282D01*
X149658127Y-103615281D01*
X149658126Y-103615281D01*
X149525000Y-103594196D01*
X149391874Y-103615281D01*
X149391872Y-103615281D01*
X149391871Y-103615282D01*
X149271786Y-103676467D01*
X149271779Y-103676472D01*
X149176472Y-103771779D01*
X149176467Y-103771786D01*
X149115282Y-103891871D01*
X149115281Y-103891872D01*
X149115281Y-103891874D01*
X149094196Y-104025000D01*
X144500500Y-104025000D01*
X144500500Y-104021544D01*
X144514852Y-103986896D01*
X144548528Y-103953220D01*
X144549422Y-103951467D01*
X144579787Y-103891871D01*
X144609719Y-103833126D01*
X144630804Y-103700000D01*
X144609719Y-103566874D01*
X144589322Y-103526842D01*
X144548532Y-103446786D01*
X144548527Y-103446779D01*
X144453220Y-103351472D01*
X144453213Y-103351467D01*
X144333128Y-103290282D01*
X144333127Y-103290281D01*
X144333126Y-103290281D01*
X144200000Y-103269196D01*
X144066874Y-103290281D01*
X144066872Y-103290281D01*
X144066871Y-103290282D01*
X143946786Y-103351467D01*
X143946779Y-103351472D01*
X143851472Y-103446779D01*
X143851467Y-103446786D01*
X143790282Y-103566871D01*
X143790281Y-103566872D01*
X143790281Y-103566874D01*
X143769196Y-103700000D01*
X137375645Y-103700000D01*
X137348532Y-103646786D01*
X137348527Y-103646779D01*
X137253220Y-103551472D01*
X137253213Y-103551467D01*
X137133128Y-103490282D01*
X137133127Y-103490281D01*
X137133126Y-103490281D01*
X137000000Y-103469196D01*
X136866874Y-103490281D01*
X136866872Y-103490281D01*
X136866871Y-103490282D01*
X136746786Y-103551467D01*
X136746779Y-103551472D01*
X136713104Y-103585148D01*
X136678456Y-103599500D01*
X136517646Y-103599500D01*
X136482998Y-103585148D01*
X136468646Y-103550500D01*
X136473987Y-103528255D01*
X136486670Y-103503361D01*
X136509719Y-103458126D01*
X136530804Y-103325000D01*
X136509719Y-103191874D01*
X136489322Y-103151842D01*
X136448532Y-103071786D01*
X136448527Y-103071779D01*
X136353220Y-102976472D01*
X136353213Y-102976467D01*
X136233128Y-102915282D01*
X136233127Y-102915281D01*
X136233126Y-102915281D01*
X136100000Y-102894196D01*
X135966874Y-102915281D01*
X135966872Y-102915281D01*
X135966871Y-102915282D01*
X135846786Y-102976467D01*
X135846779Y-102976472D01*
X135751472Y-103071779D01*
X135751467Y-103071786D01*
X135690282Y-103191871D01*
X135690281Y-103191872D01*
X135690281Y-103191874D01*
X135669196Y-103325000D01*
X135690281Y-103458126D01*
X135690281Y-103458127D01*
X135690282Y-103458128D01*
X135751467Y-103578213D01*
X135751472Y-103578220D01*
X135846780Y-103673528D01*
X135858211Y-103679352D01*
X135882568Y-103707869D01*
X135879627Y-103745256D01*
X135870615Y-103757660D01*
X135712131Y-103916144D01*
X135677483Y-103930496D01*
X135642835Y-103916144D01*
X135629087Y-103889164D01*
X135609719Y-103766874D01*
X135585824Y-103719977D01*
X135548532Y-103646786D01*
X135548527Y-103646779D01*
X135453220Y-103551472D01*
X135453213Y-103551467D01*
X135333128Y-103490282D01*
X135333127Y-103490281D01*
X135333126Y-103490281D01*
X135200000Y-103469196D01*
X135066874Y-103490281D01*
X135066872Y-103490281D01*
X135066871Y-103490282D01*
X134946786Y-103551467D01*
X134946779Y-103551472D01*
X134851472Y-103646779D01*
X134851467Y-103646786D01*
X134790282Y-103766871D01*
X134790281Y-103766872D01*
X134790281Y-103766874D01*
X134769196Y-103900000D01*
X134790281Y-104033126D01*
X134790281Y-104033127D01*
X134790282Y-104033128D01*
X134851467Y-104153213D01*
X134851472Y-104153220D01*
X134946779Y-104248527D01*
X134946786Y-104248532D01*
X135026842Y-104289322D01*
X135066874Y-104309719D01*
X135189163Y-104329087D01*
X135221138Y-104348681D01*
X135229893Y-104385148D01*
X135216144Y-104412131D01*
X134065489Y-105562788D01*
X134009541Y-105618736D01*
X134009540Y-105618736D01*
X133969979Y-105687256D01*
X133969979Y-105687258D01*
X133949500Y-105763684D01*
X133949500Y-106378456D01*
X133935148Y-106413104D01*
X133901472Y-106446779D01*
X133901467Y-106446786D01*
X133840282Y-106566871D01*
X133840281Y-106566872D01*
X133840281Y-106566874D01*
X133819196Y-106700000D01*
X133840281Y-106833126D01*
X133840281Y-106833127D01*
X133840282Y-106833128D01*
X133888751Y-106928255D01*
X133891694Y-106965642D01*
X133867337Y-106994159D01*
X133845092Y-106999500D01*
X133221544Y-106999500D01*
X133186896Y-106985148D01*
X133153220Y-106951472D01*
X133153213Y-106951467D01*
X133033128Y-106890282D01*
X133033127Y-106890281D01*
X133033126Y-106890281D01*
X132900000Y-106869196D01*
X132766874Y-106890281D01*
X132766872Y-106890281D01*
X132766871Y-106890282D01*
X132646786Y-106951467D01*
X132646779Y-106951472D01*
X132551472Y-107046779D01*
X132551467Y-107046786D01*
X132490282Y-107166871D01*
X132490281Y-107166872D01*
X132490281Y-107166874D01*
X132469196Y-107300000D01*
X132490281Y-107433126D01*
X132490281Y-107433127D01*
X132490282Y-107433128D01*
X132551467Y-107553213D01*
X132551472Y-107553220D01*
X132646779Y-107648527D01*
X132646786Y-107648532D01*
X132701613Y-107676467D01*
X132766874Y-107709719D01*
X132900000Y-107730804D01*
X133033126Y-107709719D01*
X133116420Y-107667278D01*
X133153213Y-107648532D01*
X133153215Y-107648530D01*
X133153220Y-107648528D01*
X133186896Y-107614852D01*
X133221544Y-107600500D01*
X135827229Y-107600500D01*
X135861877Y-107614852D01*
X136099679Y-107852654D01*
X136114031Y-107887302D01*
X136099679Y-107921950D01*
X136087278Y-107930961D01*
X136047024Y-107951472D01*
X136047020Y-107951475D01*
X136034889Y-107963606D01*
X136000240Y-107977957D01*
X135965594Y-107963605D01*
X135953461Y-107951472D01*
X135953454Y-107951467D01*
X135833369Y-107890282D01*
X135833368Y-107890281D01*
X135833367Y-107890281D01*
X135700241Y-107869196D01*
X135567115Y-107890281D01*
X135567113Y-107890281D01*
X135567112Y-107890282D01*
X135447027Y-107951467D01*
X135447020Y-107951472D01*
X135351712Y-108046780D01*
X135334143Y-108081263D01*
X135313006Y-108122746D01*
X135284490Y-108147102D01*
X135269348Y-108149500D01*
X132510537Y-108149500D01*
X132475889Y-108135148D01*
X132461537Y-108100500D01*
X132462139Y-108092845D01*
X132480804Y-107975000D01*
X132459719Y-107841874D01*
X132424024Y-107771818D01*
X132398532Y-107721786D01*
X132398527Y-107721779D01*
X132303220Y-107626472D01*
X132303213Y-107626467D01*
X132183128Y-107565282D01*
X132183127Y-107565281D01*
X132183126Y-107565281D01*
X132050000Y-107544196D01*
X131916874Y-107565281D01*
X131916872Y-107565281D01*
X131916871Y-107565282D01*
X131796786Y-107626467D01*
X131796779Y-107626472D01*
X131763104Y-107660148D01*
X131728456Y-107674500D01*
X129507188Y-107674500D01*
X129430762Y-107694979D01*
X129430760Y-107694979D01*
X129393638Y-107716413D01*
X129362240Y-107734540D01*
X128946794Y-108149986D01*
X128912146Y-108164338D01*
X128877498Y-108149986D01*
X128863146Y-108115338D01*
X128863747Y-108107690D01*
X128880804Y-108000000D01*
X128877075Y-107976457D01*
X128885830Y-107939992D01*
X128890818Y-107934151D01*
X132510119Y-104314852D01*
X132544767Y-104300500D01*
X132828456Y-104300500D01*
X132863104Y-104314852D01*
X132896779Y-104348527D01*
X132896786Y-104348532D01*
X132968651Y-104385148D01*
X133016874Y-104409719D01*
X133150000Y-104430804D01*
X133283126Y-104409719D01*
X133366420Y-104367278D01*
X133403213Y-104348532D01*
X133403215Y-104348530D01*
X133403220Y-104348528D01*
X133451748Y-104300000D01*
X133819196Y-104300000D01*
X133840281Y-104433126D01*
X133840281Y-104433127D01*
X133840282Y-104433128D01*
X133901467Y-104553213D01*
X133901472Y-104553220D01*
X133996779Y-104648527D01*
X133996786Y-104648532D01*
X134076842Y-104689322D01*
X134116874Y-104709719D01*
X134250000Y-104730804D01*
X134383126Y-104709719D01*
X134469932Y-104665489D01*
X134503213Y-104648532D01*
X134503215Y-104648530D01*
X134503220Y-104648528D01*
X134598528Y-104553220D01*
X134599422Y-104551467D01*
X134624897Y-104501467D01*
X134659719Y-104433126D01*
X134680804Y-104300000D01*
X134659719Y-104166874D01*
X134639322Y-104126842D01*
X134598532Y-104046786D01*
X134598527Y-104046779D01*
X134503220Y-103951472D01*
X134503213Y-103951467D01*
X134383128Y-103890282D01*
X134383127Y-103890281D01*
X134383126Y-103890281D01*
X134250000Y-103869196D01*
X134116874Y-103890281D01*
X134116872Y-103890281D01*
X134116871Y-103890282D01*
X133996786Y-103951467D01*
X133996779Y-103951472D01*
X133901472Y-104046779D01*
X133901467Y-104046786D01*
X133840282Y-104166871D01*
X133840281Y-104166872D01*
X133840281Y-104166874D01*
X133819196Y-104300000D01*
X133451748Y-104300000D01*
X133498528Y-104253220D01*
X133500920Y-104248527D01*
X133530801Y-104189881D01*
X133559719Y-104133126D01*
X133580804Y-104000000D01*
X133559719Y-103866874D01*
X133527223Y-103803097D01*
X133498532Y-103746786D01*
X133498527Y-103746779D01*
X133403220Y-103651472D01*
X133403213Y-103651467D01*
X133283128Y-103590282D01*
X133283127Y-103590281D01*
X133283126Y-103590281D01*
X133150000Y-103569196D01*
X133016874Y-103590281D01*
X133016872Y-103590281D01*
X133016871Y-103590282D01*
X132896786Y-103651467D01*
X132896779Y-103651472D01*
X132863104Y-103685148D01*
X132828456Y-103699500D01*
X132360435Y-103699500D01*
X132284013Y-103719977D01*
X132284010Y-103719978D01*
X132215488Y-103759540D01*
X132215487Y-103759541D01*
X128408779Y-107566248D01*
X128381798Y-107579997D01*
X128346791Y-107585542D01*
X128316874Y-107590281D01*
X128316872Y-107590281D01*
X128316870Y-107590282D01*
X128271745Y-107613275D01*
X128234358Y-107616218D01*
X128205841Y-107591861D01*
X128200500Y-107569616D01*
X128200500Y-107060436D01*
X128194354Y-107037501D01*
X128194354Y-107037500D01*
X128180022Y-106984012D01*
X128180021Y-106984010D01*
X128157103Y-106944315D01*
X128140460Y-106915489D01*
X127629822Y-106404851D01*
X127615470Y-106370203D01*
X127629822Y-106335555D01*
X127656802Y-106321807D01*
X127733126Y-106309719D01*
X127834377Y-106258129D01*
X127853213Y-106248532D01*
X127853215Y-106248530D01*
X127853220Y-106248528D01*
X127948528Y-106153220D01*
X128009719Y-106033126D01*
X128030804Y-105900000D01*
X128469196Y-105900000D01*
X128490281Y-106033126D01*
X128490281Y-106033127D01*
X128490282Y-106033128D01*
X128551467Y-106153213D01*
X128551472Y-106153220D01*
X128646779Y-106248527D01*
X128646786Y-106248532D01*
X128692426Y-106271786D01*
X128766874Y-106309719D01*
X128900000Y-106330804D01*
X129033126Y-106309719D01*
X129134377Y-106258129D01*
X129153213Y-106248532D01*
X129153215Y-106248530D01*
X129153220Y-106248528D01*
X129248528Y-106153220D01*
X129309719Y-106033126D01*
X129330804Y-105900000D01*
X129309719Y-105766874D01*
X129270693Y-105690281D01*
X129248532Y-105646786D01*
X129248527Y-105646779D01*
X129153220Y-105551472D01*
X129153213Y-105551467D01*
X129033128Y-105490282D01*
X129033127Y-105490281D01*
X129033126Y-105490281D01*
X128900000Y-105469196D01*
X128766874Y-105490281D01*
X128766872Y-105490281D01*
X128766871Y-105490282D01*
X128646786Y-105551467D01*
X128646779Y-105551472D01*
X128551472Y-105646779D01*
X128551467Y-105646786D01*
X128490282Y-105766871D01*
X128490281Y-105766872D01*
X128490281Y-105766874D01*
X128469196Y-105900000D01*
X128030804Y-105900000D01*
X128009719Y-105766874D01*
X127970693Y-105690281D01*
X127948532Y-105646786D01*
X127948527Y-105646779D01*
X127853220Y-105551472D01*
X127853213Y-105551467D01*
X127733128Y-105490282D01*
X127733127Y-105490281D01*
X127733126Y-105490281D01*
X127600000Y-105469196D01*
X127466874Y-105490281D01*
X127466872Y-105490281D01*
X127466871Y-105490282D01*
X127346786Y-105551467D01*
X127346779Y-105551472D01*
X127251472Y-105646779D01*
X127251467Y-105646786D01*
X127190282Y-105766870D01*
X127190281Y-105766872D01*
X127190281Y-105766874D01*
X127178768Y-105839562D01*
X127178193Y-105843195D01*
X127158597Y-105875171D01*
X127122130Y-105883926D01*
X127095148Y-105870177D01*
X126914852Y-105689881D01*
X126900500Y-105655233D01*
X126900500Y-104710436D01*
X126888456Y-104665490D01*
X126888456Y-104665489D01*
X126880022Y-104634012D01*
X126840460Y-104565489D01*
X126674971Y-104400000D01*
X130269196Y-104400000D01*
X130290281Y-104533126D01*
X130290281Y-104533127D01*
X130290282Y-104533128D01*
X130351467Y-104653213D01*
X130351472Y-104653220D01*
X130446779Y-104748527D01*
X130446786Y-104748532D01*
X130526842Y-104789322D01*
X130566874Y-104809719D01*
X130700000Y-104830804D01*
X130833126Y-104809719D01*
X130917220Y-104766871D01*
X130953213Y-104748532D01*
X130953215Y-104748530D01*
X130953220Y-104748528D01*
X131048528Y-104653220D01*
X131050920Y-104648527D01*
X131074897Y-104601467D01*
X131109719Y-104533126D01*
X131130804Y-104400000D01*
X131109719Y-104266874D01*
X131089322Y-104226842D01*
X131048532Y-104146786D01*
X131048527Y-104146779D01*
X130953220Y-104051472D01*
X130953213Y-104051467D01*
X130833128Y-103990282D01*
X130833127Y-103990281D01*
X130833126Y-103990281D01*
X130700000Y-103969196D01*
X130566874Y-103990281D01*
X130566872Y-103990281D01*
X130566871Y-103990282D01*
X130446786Y-104051467D01*
X130446779Y-104051472D01*
X130351472Y-104146779D01*
X130351467Y-104146786D01*
X130290282Y-104266871D01*
X130290281Y-104266872D01*
X130290281Y-104266874D01*
X130269196Y-104400000D01*
X126674971Y-104400000D01*
X125893159Y-103618188D01*
X125879411Y-103591207D01*
X125859719Y-103466874D01*
X125839322Y-103426842D01*
X125798532Y-103346786D01*
X125798527Y-103346779D01*
X125703220Y-103251472D01*
X125703213Y-103251467D01*
X125583128Y-103190282D01*
X125583127Y-103190281D01*
X125583126Y-103190281D01*
X125450000Y-103169196D01*
X125316874Y-103190281D01*
X125316872Y-103190281D01*
X125316871Y-103190282D01*
X125196786Y-103251467D01*
X125196778Y-103251473D01*
X125134648Y-103313603D01*
X125100000Y-103327955D01*
X125065352Y-103313603D01*
X125003221Y-103251473D01*
X125003213Y-103251467D01*
X124883128Y-103190282D01*
X124883127Y-103190281D01*
X124883126Y-103190281D01*
X124750000Y-103169196D01*
X124616874Y-103190281D01*
X124616872Y-103190281D01*
X124616871Y-103190282D01*
X124496786Y-103251467D01*
X124496778Y-103251473D01*
X124434648Y-103313603D01*
X124400000Y-103327955D01*
X124365352Y-103313603D01*
X124303221Y-103251473D01*
X124303213Y-103251467D01*
X124183128Y-103190282D01*
X124183127Y-103190281D01*
X124183126Y-103190281D01*
X124050000Y-103169196D01*
X123916874Y-103190281D01*
X123916872Y-103190281D01*
X123916871Y-103190282D01*
X123796786Y-103251467D01*
X123796779Y-103251472D01*
X123701472Y-103346779D01*
X123701467Y-103346786D01*
X123640282Y-103466871D01*
X123640281Y-103466872D01*
X123640281Y-103466874D01*
X123619196Y-103600000D01*
X123640281Y-103733126D01*
X123640281Y-103733127D01*
X123640282Y-103733128D01*
X123701467Y-103853213D01*
X123701472Y-103853220D01*
X123735148Y-103886896D01*
X123749500Y-103921544D01*
X123749500Y-104155233D01*
X123735148Y-104189881D01*
X120214881Y-107710148D01*
X120180233Y-107724500D01*
X117321544Y-107724500D01*
X117286896Y-107710148D01*
X117253220Y-107676472D01*
X117253213Y-107676467D01*
X117133128Y-107615282D01*
X117133127Y-107615281D01*
X117133126Y-107615281D01*
X117000000Y-107594196D01*
X116866874Y-107615281D01*
X116866872Y-107615281D01*
X116866871Y-107615282D01*
X116746786Y-107676467D01*
X116746779Y-107676472D01*
X116651472Y-107771779D01*
X116651467Y-107771786D01*
X116590282Y-107891871D01*
X116590281Y-107891872D01*
X116590281Y-107891874D01*
X116569196Y-108025000D01*
X116590281Y-108158126D01*
X116590281Y-108158127D01*
X116590282Y-108158128D01*
X116651467Y-108278213D01*
X116651472Y-108278220D01*
X116746779Y-108373527D01*
X116746786Y-108373532D01*
X116825718Y-108413749D01*
X116866874Y-108434719D01*
X117000000Y-108455804D01*
X117133126Y-108434719D01*
X117222902Y-108388976D01*
X117253213Y-108373532D01*
X117253215Y-108373530D01*
X117253220Y-108373528D01*
X117286896Y-108339852D01*
X117321544Y-108325500D01*
X120281232Y-108325500D01*
X120315880Y-108339852D01*
X120330232Y-108374500D01*
X120315880Y-108409148D01*
X118964881Y-109760148D01*
X118930233Y-109774500D01*
X117321544Y-109774500D01*
X117286896Y-109760148D01*
X117253220Y-109726472D01*
X117253213Y-109726467D01*
X117133128Y-109665282D01*
X117133127Y-109665281D01*
X117133126Y-109665281D01*
X117000000Y-109644196D01*
X116866874Y-109665281D01*
X116866872Y-109665281D01*
X116866871Y-109665282D01*
X116746786Y-109726467D01*
X116746779Y-109726472D01*
X116651472Y-109821779D01*
X116651467Y-109821786D01*
X116590282Y-109941871D01*
X116590281Y-109941872D01*
X116590281Y-109941874D01*
X116569196Y-110075000D01*
X116590281Y-110208126D01*
X116590281Y-110208127D01*
X116590282Y-110208128D01*
X116651467Y-110328213D01*
X116651472Y-110328220D01*
X116746779Y-110423527D01*
X116746786Y-110423532D01*
X116826842Y-110464322D01*
X116866874Y-110484719D01*
X117000000Y-110505804D01*
X117133126Y-110484719D01*
X117216420Y-110442278D01*
X117253213Y-110423532D01*
X117253215Y-110423530D01*
X117253220Y-110423528D01*
X117286896Y-110389852D01*
X117321544Y-110375500D01*
X119114564Y-110375500D01*
X119141230Y-110368354D01*
X119190989Y-110355021D01*
X119259511Y-110315460D01*
X119315460Y-110259511D01*
X121174971Y-108400000D01*
X121569196Y-108400000D01*
X121590281Y-108533126D01*
X121590281Y-108533127D01*
X121590282Y-108533128D01*
X121651467Y-108653213D01*
X121651472Y-108653220D01*
X121746779Y-108748527D01*
X121746786Y-108748532D01*
X121801613Y-108776467D01*
X121866874Y-108809719D01*
X122000000Y-108830804D01*
X122133126Y-108809719D01*
X122239594Y-108755471D01*
X122253213Y-108748532D01*
X122253215Y-108748530D01*
X122253220Y-108748528D01*
X122348528Y-108653220D01*
X122350920Y-108648527D01*
X122382705Y-108586143D01*
X122409719Y-108533126D01*
X122430804Y-108400000D01*
X122409719Y-108266874D01*
X122388638Y-108225500D01*
X122348532Y-108146786D01*
X122348527Y-108146779D01*
X122253220Y-108051472D01*
X122253213Y-108051467D01*
X122133128Y-107990282D01*
X122133127Y-107990281D01*
X122133126Y-107990281D01*
X122000000Y-107969196D01*
X121866874Y-107990281D01*
X121866872Y-107990281D01*
X121866871Y-107990282D01*
X121746786Y-108051467D01*
X121746779Y-108051472D01*
X121651472Y-108146779D01*
X121651467Y-108146786D01*
X121590282Y-108266871D01*
X121590281Y-108266872D01*
X121590281Y-108266874D01*
X121569196Y-108400000D01*
X121174971Y-108400000D01*
X124990460Y-104584511D01*
X124997810Y-104571780D01*
X125030021Y-104515989D01*
X125050307Y-104440282D01*
X125050500Y-104439563D01*
X125050500Y-103921544D01*
X125064852Y-103886896D01*
X125065352Y-103886396D01*
X125100000Y-103872044D01*
X125134648Y-103886396D01*
X125196779Y-103948527D01*
X125196786Y-103948532D01*
X125272081Y-103986896D01*
X125316874Y-104009719D01*
X125441207Y-104029411D01*
X125468188Y-104043159D01*
X125874140Y-104449111D01*
X125888492Y-104483759D01*
X125874140Y-104518407D01*
X125839492Y-104532759D01*
X125831827Y-104532156D01*
X125750000Y-104519196D01*
X125616874Y-104540281D01*
X125616872Y-104540281D01*
X125616871Y-104540282D01*
X125496786Y-104601467D01*
X125496779Y-104601472D01*
X125401472Y-104696779D01*
X125401467Y-104696786D01*
X125340282Y-104816871D01*
X125340281Y-104816872D01*
X125340281Y-104816874D01*
X125319196Y-104950000D01*
X125340281Y-105083126D01*
X125340281Y-105083127D01*
X125340282Y-105083128D01*
X125401467Y-105203213D01*
X125401472Y-105203220D01*
X125435148Y-105236896D01*
X125449500Y-105271544D01*
X125449500Y-108589563D01*
X125469978Y-108665987D01*
X125469979Y-108665991D01*
X125498437Y-108715279D01*
X125498438Y-108715281D01*
X125509537Y-108734507D01*
X125509542Y-108734513D01*
X126718165Y-109943136D01*
X126727176Y-109955538D01*
X126751472Y-110003220D01*
X126751474Y-110003222D01*
X126763605Y-110015353D01*
X126777957Y-110050001D01*
X126763606Y-110084648D01*
X126751474Y-110096780D01*
X126751468Y-110096788D01*
X126690282Y-110216874D01*
X126690281Y-110216875D01*
X126690281Y-110216877D01*
X126669196Y-110350003D01*
X126690281Y-110483129D01*
X126690281Y-110483130D01*
X126690282Y-110483131D01*
X126751467Y-110603216D01*
X126751472Y-110603223D01*
X126841000Y-110692751D01*
X126855352Y-110727399D01*
X126850012Y-110749644D01*
X126790281Y-110866873D01*
X126788761Y-110876472D01*
X126769196Y-111000000D01*
X126790281Y-111133126D01*
X126790281Y-111133127D01*
X126790282Y-111133128D01*
X126851467Y-111253213D01*
X126851472Y-111253220D01*
X126946779Y-111348527D01*
X126946786Y-111348532D01*
X127026842Y-111389322D01*
X127066874Y-111409719D01*
X127200000Y-111430804D01*
X127333126Y-111409719D01*
X127434383Y-111358126D01*
X127453213Y-111348532D01*
X127453215Y-111348530D01*
X127453220Y-111348528D01*
X127515852Y-111285896D01*
X127550500Y-111271544D01*
X127585148Y-111285896D01*
X127599500Y-111320544D01*
X127599500Y-111679456D01*
X127585148Y-111714104D01*
X127550500Y-111728456D01*
X127515852Y-111714104D01*
X127453220Y-111651472D01*
X127453213Y-111651467D01*
X127333128Y-111590282D01*
X127333127Y-111590281D01*
X127333126Y-111590281D01*
X127200000Y-111569196D01*
X127066874Y-111590281D01*
X127066872Y-111590281D01*
X127066871Y-111590282D01*
X126946786Y-111651467D01*
X126946779Y-111651472D01*
X126851472Y-111746779D01*
X126851467Y-111746786D01*
X126790282Y-111866871D01*
X126790281Y-111866872D01*
X126790281Y-111866874D01*
X126769196Y-112000000D01*
X126787859Y-112117837D01*
X126779105Y-112154301D01*
X126747128Y-112173897D01*
X126739463Y-112174500D01*
X125892680Y-112174500D01*
X125858032Y-112160148D01*
X125849021Y-112147746D01*
X125848531Y-112146784D01*
X125848526Y-112146778D01*
X125753220Y-112051472D01*
X125753213Y-112051467D01*
X125633128Y-111990282D01*
X125633127Y-111990281D01*
X125633126Y-111990281D01*
X125500000Y-111969196D01*
X125366874Y-111990281D01*
X125366872Y-111990281D01*
X125366871Y-111990282D01*
X125246786Y-112051467D01*
X125246779Y-112051472D01*
X125151474Y-112146778D01*
X125151467Y-112146786D01*
X125090282Y-112266871D01*
X125090281Y-112266872D01*
X125090281Y-112266874D01*
X125069196Y-112400000D01*
X125090281Y-112533126D01*
X125090281Y-112533127D01*
X125090282Y-112533128D01*
X125151467Y-112653213D01*
X125151472Y-112653220D01*
X125246779Y-112748527D01*
X125246786Y-112748532D01*
X125314682Y-112783126D01*
X125366874Y-112809719D01*
X125500000Y-112830804D01*
X125633126Y-112809719D01*
X125689803Y-112780841D01*
X125712048Y-112775500D01*
X125714562Y-112775500D01*
X126756878Y-112775500D01*
X126791526Y-112789852D01*
X126805878Y-112824500D01*
X126800537Y-112846746D01*
X126790281Y-112866872D01*
X126769196Y-112999999D01*
X126769196Y-113000000D01*
X126787859Y-113117837D01*
X126779105Y-113154301D01*
X126747128Y-113173897D01*
X126739463Y-113174500D01*
X125892680Y-113174500D01*
X125858032Y-113160148D01*
X125849021Y-113147746D01*
X125848531Y-113146784D01*
X125848527Y-113146779D01*
X125753220Y-113051472D01*
X125753213Y-113051467D01*
X125633128Y-112990282D01*
X125633127Y-112990281D01*
X125633126Y-112990281D01*
X125500000Y-112969196D01*
X125366874Y-112990281D01*
X125366872Y-112990281D01*
X125366871Y-112990282D01*
X125246786Y-113051467D01*
X125246779Y-113051472D01*
X125151472Y-113146779D01*
X125151467Y-113146786D01*
X125090282Y-113266871D01*
X125090281Y-113266872D01*
X125090281Y-113266874D01*
X125069196Y-113400000D01*
X125090281Y-113533126D01*
X125090281Y-113533127D01*
X125090282Y-113533128D01*
X125151467Y-113653213D01*
X125151472Y-113653220D01*
X125163604Y-113665352D01*
X125177956Y-113700000D01*
X125163604Y-113734648D01*
X125151472Y-113746779D01*
X125151467Y-113746786D01*
X125090282Y-113866870D01*
X125070589Y-113991205D01*
X125056840Y-114018187D01*
X124789881Y-114285148D01*
X124755233Y-114299500D01*
X118719767Y-114299500D01*
X118685119Y-114285148D01*
X116943159Y-112543188D01*
X116929411Y-112516207D01*
X116909719Y-112391874D01*
X116889322Y-112351842D01*
X116848532Y-112271786D01*
X116848527Y-112271779D01*
X116753220Y-112176472D01*
X116753213Y-112176467D01*
X116633128Y-112115282D01*
X116633127Y-112115281D01*
X116633126Y-112115281D01*
X116500000Y-112094196D01*
X116366874Y-112115281D01*
X116366872Y-112115281D01*
X116366871Y-112115282D01*
X116246786Y-112176467D01*
X116246779Y-112176472D01*
X116151472Y-112271779D01*
X116151467Y-112271786D01*
X116090282Y-112391871D01*
X116090281Y-112391872D01*
X116090281Y-112391874D01*
X116069196Y-112525000D01*
X111000000Y-112525000D01*
X111000000Y-111149997D01*
X123469196Y-111149997D01*
X123490281Y-111283123D01*
X123490281Y-111283124D01*
X123490282Y-111283125D01*
X123551467Y-111403210D01*
X123551472Y-111403217D01*
X123563605Y-111415350D01*
X123577957Y-111449998D01*
X123563606Y-111484645D01*
X123551474Y-111496777D01*
X123551468Y-111496785D01*
X123490282Y-111616871D01*
X123490281Y-111616872D01*
X123490281Y-111616874D01*
X123469196Y-111750000D01*
X123490281Y-111883126D01*
X123490281Y-111883127D01*
X123490282Y-111883128D01*
X123551467Y-112003213D01*
X123551472Y-112003220D01*
X123646779Y-112098527D01*
X123646786Y-112098532D01*
X123714682Y-112133126D01*
X123766874Y-112159719D01*
X123900000Y-112180804D01*
X124033126Y-112159719D01*
X124116420Y-112117278D01*
X124153213Y-112098532D01*
X124153215Y-112098530D01*
X124153220Y-112098528D01*
X124248528Y-112003220D01*
X124250170Y-111999999D01*
X124283432Y-111934717D01*
X124309719Y-111883126D01*
X124330804Y-111750000D01*
X124309719Y-111616874D01*
X124282058Y-111562586D01*
X124248532Y-111496786D01*
X124248527Y-111496779D01*
X124236394Y-111484646D01*
X124222042Y-111449998D01*
X124236393Y-111415351D01*
X124248528Y-111403217D01*
X124249993Y-111400341D01*
X125068577Y-111400341D01*
X125089662Y-111533467D01*
X125089662Y-111533468D01*
X125089663Y-111533469D01*
X125150848Y-111653554D01*
X125150853Y-111653561D01*
X125246160Y-111748868D01*
X125246167Y-111748873D01*
X125326223Y-111789663D01*
X125366255Y-111810060D01*
X125499381Y-111831145D01*
X125632507Y-111810060D01*
X125720041Y-111765459D01*
X125752594Y-111748873D01*
X125752596Y-111748871D01*
X125752601Y-111748869D01*
X125847909Y-111653561D01*
X125848974Y-111651472D01*
X125880151Y-111590282D01*
X125909100Y-111533467D01*
X125930185Y-111400341D01*
X125909100Y-111267215D01*
X125879400Y-111208926D01*
X125847913Y-111147127D01*
X125847908Y-111147120D01*
X125752601Y-111051813D01*
X125752594Y-111051808D01*
X125632509Y-110990623D01*
X125632508Y-110990622D01*
X125632507Y-110990622D01*
X125499381Y-110969537D01*
X125366255Y-110990622D01*
X125366253Y-110990622D01*
X125366252Y-110990623D01*
X125246167Y-111051808D01*
X125246160Y-111051813D01*
X125150853Y-111147120D01*
X125150848Y-111147127D01*
X125089663Y-111267212D01*
X125089662Y-111267213D01*
X125089662Y-111267215D01*
X125068577Y-111400341D01*
X124249993Y-111400341D01*
X124309719Y-111283123D01*
X124330804Y-111149997D01*
X124309719Y-111016871D01*
X124286744Y-110971780D01*
X124248532Y-110896783D01*
X124248527Y-110896776D01*
X124153220Y-110801469D01*
X124153213Y-110801464D01*
X124033128Y-110740279D01*
X124033127Y-110740278D01*
X124033126Y-110740278D01*
X123900000Y-110719193D01*
X123766874Y-110740278D01*
X123766872Y-110740278D01*
X123766871Y-110740279D01*
X123646786Y-110801464D01*
X123646779Y-110801469D01*
X123551472Y-110896776D01*
X123551467Y-110896783D01*
X123490282Y-111016868D01*
X123490281Y-111016869D01*
X123490281Y-111016871D01*
X123469196Y-111149997D01*
X111000000Y-111149997D01*
X111000000Y-104049415D01*
X111000004Y-104048815D01*
X111000721Y-103990282D01*
X111001174Y-103953264D01*
X111001467Y-103948491D01*
X111011765Y-103855611D01*
X111012402Y-103851494D01*
X111021109Y-103807723D01*
X111022268Y-103803097D01*
X111076946Y-103622847D01*
X111080616Y-103613987D01*
X111168257Y-103450022D01*
X111173585Y-103442047D01*
X111291537Y-103298321D01*
X111298321Y-103291537D01*
X111442047Y-103173585D01*
X111450022Y-103168257D01*
X111613987Y-103080616D01*
X111622847Y-103076946D01*
X111803097Y-103022268D01*
X111807723Y-103021109D01*
X111851494Y-103012402D01*
X111855611Y-103011765D01*
X111948491Y-103001467D01*
X111953264Y-103001174D01*
X112048816Y-103000004D01*
X112049416Y-103000000D01*
X121450858Y-103000000D01*
X121501204Y-102950873D01*
X121501203Y-102950873D01*
X121501203Y-102950872D01*
X121503921Y-102948220D01*
X121502573Y-102938514D01*
X121507487Y-102894196D01*
X121511765Y-102855611D01*
X121512402Y-102851494D01*
X121521109Y-102807723D01*
X121522268Y-102803097D01*
X121576946Y-102622847D01*
X121580616Y-102613987D01*
X121668257Y-102450022D01*
X121673585Y-102442047D01*
X121791537Y-102298321D01*
X121798321Y-102291537D01*
X121942047Y-102173585D01*
X121950022Y-102168257D01*
X122113987Y-102080616D01*
X122122847Y-102076946D01*
X122303097Y-102022268D01*
X122307723Y-102021109D01*
X122351494Y-102012402D01*
X122355611Y-102011765D01*
X122448491Y-102001467D01*
X122453264Y-102001174D01*
X122548816Y-102000004D01*
X122549416Y-102000000D01*
X159251000Y-102000000D01*
X159285648Y-102014352D01*
G37*
%TD.AperFunction*%
%TD*%
%TA.AperFunction,NonConductor*%
G36*
X154014881Y-108239852D02*
G01*
X156410148Y-110635119D01*
X156424500Y-110669767D01*
X156424500Y-110703456D01*
X156410148Y-110738104D01*
X156376472Y-110771779D01*
X156376467Y-110771786D01*
X156315282Y-110891870D01*
X156315281Y-110891872D01*
X156315281Y-110891874D01*
X156302625Y-110971779D01*
X156300453Y-110985495D01*
X156280857Y-111017471D01*
X156244392Y-111026226D01*
X156200000Y-111019196D01*
X156066874Y-111040281D01*
X156066872Y-111040281D01*
X156066871Y-111040282D01*
X155946786Y-111101467D01*
X155946779Y-111101472D01*
X155851472Y-111196779D01*
X155851467Y-111196786D01*
X155790282Y-111316871D01*
X155790281Y-111316872D01*
X155790281Y-111316874D01*
X155769196Y-111450000D01*
X155790281Y-111583126D01*
X155790281Y-111583127D01*
X155790282Y-111583128D01*
X155851467Y-111703213D01*
X155851472Y-111703220D01*
X155885148Y-111736896D01*
X155899500Y-111771544D01*
X155899500Y-112655233D01*
X155885148Y-112689881D01*
X155389881Y-113185148D01*
X155355233Y-113199500D01*
X155116297Y-113199500D01*
X155081649Y-113185148D01*
X155067297Y-113150500D01*
X155072638Y-113128255D01*
X155101533Y-113071544D01*
X155108657Y-113057562D01*
X155109835Y-113050123D01*
X155123582Y-113023139D01*
X155440460Y-112706263D01*
X155449584Y-112690460D01*
X155460695Y-112671215D01*
X155480020Y-112637743D01*
X155480020Y-112637742D01*
X155480021Y-112637741D01*
X155500500Y-112561314D01*
X155500500Y-111560438D01*
X155500500Y-111560436D01*
X155483444Y-111496786D01*
X155480021Y-111484011D01*
X155480020Y-111484009D01*
X155480020Y-111484008D01*
X155440459Y-111415488D01*
X152784513Y-108759542D01*
X152784511Y-108759540D01*
X152777465Y-108755472D01*
X152777464Y-108755471D01*
X152715990Y-108719979D01*
X152639564Y-108699500D01*
X152639562Y-108699500D01*
X151985537Y-108699500D01*
X151950889Y-108685148D01*
X151936537Y-108650500D01*
X151937139Y-108642845D01*
X151955804Y-108525000D01*
X151934719Y-108391874D01*
X151912633Y-108348528D01*
X151886249Y-108296745D01*
X151883306Y-108259358D01*
X151907663Y-108230841D01*
X151929908Y-108225500D01*
X153980233Y-108225500D01*
X154014881Y-108239852D01*
G37*
%TD.AperFunction*%
M02*
