%TF.GenerationSoftware,KiCad,Pcbnew,8.0.4*%
%TF.CreationDate,2024-10-14T21:13:47+02:00*%
%TF.ProjectId,elrs-sim,656c7273-2d73-4696-9d2e-6b696361645f,rev?*%
%TF.SameCoordinates,Original*%
%TF.FileFunction,Copper,L4,Bot*%
%TF.FilePolarity,Positive*%
%FSLAX46Y46*%
G04 Gerber Fmt 4.6, Leading zero omitted, Abs format (unit mm)*
G04 Created by KiCad (PCBNEW 8.0.4) date 2024-10-14 21:13:47*
%MOMM*%
%LPD*%
G01*
G04 APERTURE LIST*
G04 Aperture macros list*
%AMRoundRect*
0 Rectangle with rounded corners*
0 $1 Rounding radius*
0 $2 $3 $4 $5 $6 $7 $8 $9 X,Y pos of 4 corners*
0 Add a 4 corners polygon primitive as box body*
4,1,4,$2,$3,$4,$5,$6,$7,$8,$9,$2,$3,0*
0 Add four circle primitives for the rounded corners*
1,1,$1+$1,$2,$3*
1,1,$1+$1,$4,$5*
1,1,$1+$1,$6,$7*
1,1,$1+$1,$8,$9*
0 Add four rect primitives between the rounded corners*
20,1,$1+$1,$2,$3,$4,$5,0*
20,1,$1+$1,$4,$5,$6,$7,0*
20,1,$1+$1,$6,$7,$8,$9,0*
20,1,$1+$1,$8,$9,$2,$3,0*%
G04 Aperture macros list end*
%TA.AperFunction,ComponentPad*%
%ADD10R,1.700000X1.700000*%
%TD*%
%TA.AperFunction,ComponentPad*%
%ADD11O,1.700000X1.700000*%
%TD*%
%TA.AperFunction,ComponentPad*%
%ADD12RoundRect,0.500000X-3.500000X0.500000X-3.500000X-0.500000X3.500000X-0.500000X3.500000X0.500000X0*%
%TD*%
%TA.AperFunction,ComponentPad*%
%ADD13RoundRect,0.500000X-3.000000X0.250000X-3.000000X-0.250000X3.000000X-0.250000X3.000000X0.250000X0*%
%TD*%
%TA.AperFunction,SMDPad,CuDef*%
%ADD14RoundRect,0.387500X-0.387500X0.387500X-0.387500X-0.387500X0.387500X-0.387500X0.387500X0.387500X0*%
%TD*%
%TA.AperFunction,ViaPad*%
%ADD15C,0.450000*%
%TD*%
%TA.AperFunction,Conductor*%
%ADD16C,0.200000*%
%TD*%
G04 APERTURE END LIST*
D10*
%TO.P,J2,1,Pin_1*%
%TO.N,GND*%
X139500000Y-106900000D03*
D11*
%TO.P,J2,2,Pin_2*%
%TO.N,USB_VBUS*%
X139500000Y-109440000D03*
%TO.P,J2,3,Pin_3*%
%TO.N,Net-(J2-Pin_3)*%
X139500000Y-111980000D03*
%TO.P,J2,4,Pin_4*%
%TO.N,Net-(J2-Pin_4)*%
X139500000Y-114520000D03*
%TD*%
D12*
%TO.P,J3,1,Pin_1*%
%TO.N,unconnected-(J3-Pin_1-Pad1)*%
X169000000Y-105325000D03*
D13*
%TO.P,J3,2,Pin_2*%
%TO.N,unconnected-(J3-Pin_2-Pad2)*%
X168500000Y-107775000D03*
%TO.P,J3,3,Pin_3*%
%TO.N,unconnected-(J3-Pin_3-Pad3)*%
X168500000Y-109825000D03*
D12*
%TO.P,J3,4,Pin_4*%
%TO.N,unconnected-(J3-Pin_4-Pad4)*%
X169000000Y-112275000D03*
%TD*%
D14*
%TO.P,J7,1,Pin_1*%
%TO.N,RP2040_RX*%
X130800000Y-103400000D03*
%TD*%
%TO.P,J4,1,Pin_1*%
%TO.N,USB_VBUS*%
X124200000Y-105400000D03*
%TD*%
%TO.P,J8,1,Pin_1*%
%TO.N,RP2040_TX*%
X132800000Y-103400000D03*
%TD*%
%TO.P,J11,1,Pin_1*%
%TO.N,GND*%
X124200000Y-103400000D03*
%TD*%
%TO.P,J14,1,Pin_1*%
%TO.N,USB_DN*%
X124200000Y-114600000D03*
%TD*%
%TO.P,J12,1,Pin_1*%
%TO.N,+3.3V*%
X124200000Y-107400000D03*
%TD*%
%TO.P,J6,1,Pin_1*%
%TO.N,+3.3V_SW*%
X124200000Y-109400000D03*
%TD*%
%TO.P,J10,1,Pin_1*%
%TO.N,RP2040_RX_NO*%
X152900000Y-103400000D03*
%TD*%
%TO.P,J9,1,Pin_1*%
%TO.N,RP2040_TX_NO*%
X150900000Y-103400000D03*
%TD*%
%TO.P,J13,1,Pin_1*%
%TO.N,USB_DP*%
X124200000Y-112600000D03*
%TD*%
D15*
%TO.N,GND*%
X146825000Y-108625000D03*
X129700000Y-110500000D03*
X128500000Y-106100000D03*
X149905000Y-105025000D03*
X133700000Y-107300000D03*
X134600000Y-112100000D03*
X154325000Y-109325000D03*
X147605000Y-112900000D03*
X128000000Y-103700000D03*
%TO.N,+3.3V*%
X127600000Y-115200000D03*
X134600000Y-104200000D03*
X132100000Y-110350000D03*
X130300000Y-115200000D03*
X128400000Y-104400000D03*
X140400000Y-105000000D03*
X136150000Y-114750000D03*
X122400000Y-110700000D03*
%TO.N,IRS*%
X155425000Y-106180000D03*
X152325000Y-111225000D03*
%TO.N,BUSY*%
X150150000Y-106125000D03*
X145000000Y-105200000D03*
%TO.N,NRST*%
X150200000Y-107900000D03*
X154725000Y-104825000D03*
%TO.N,ESP_SCK*%
X156000020Y-111695003D03*
X150300000Y-110900000D03*
%TO.N,ESP_MOSI*%
X155300000Y-112200000D03*
X151300000Y-109200000D03*
%TO.N,ESP_MISO*%
X154463739Y-112200000D03*
X150300000Y-109900000D03*
%TO.N,DIO_1*%
X149325000Y-106425000D03*
X151525000Y-108525000D03*
%TO.N,+3.3V_SW*%
X134250000Y-106700000D03*
X144700000Y-112200000D03*
X150200000Y-112100000D03*
X148950000Y-104000000D03*
X136900000Y-104200000D03*
X146650000Y-112900000D03*
X143300000Y-105000000D03*
X151300000Y-109900000D03*
X141500000Y-111050000D03*
%TO.N,NSS*%
X156750000Y-111600000D03*
X151500000Y-107700000D03*
%TO.N,ESP_LED*%
X144200000Y-103700000D03*
X149325000Y-111200000D03*
%TO.N,ESP_BOOT*%
X146200000Y-105300000D03*
X150200000Y-107200000D03*
%TO.N,USB_DN*%
X125400000Y-103600000D03*
X116350000Y-109900000D03*
%TO.N,USB_DP*%
X116350000Y-107850000D03*
X125400000Y-102900000D03*
%TO.N,USB_VBUS*%
X115850000Y-112350000D03*
X126500000Y-114400000D03*
%TO.N,RP2040_RX*%
X135100000Y-106275000D03*
X129800000Y-113100000D03*
%TO.N,RP2040_TX*%
X137400000Y-103675000D03*
X128800000Y-113100000D03*
%TO.N,Net-(U1-VREG_VOUT)*%
X127113766Y-110503261D03*
X127300000Y-108000000D03*
X122400000Y-110049997D03*
X132050000Y-107975000D03*
X122000000Y-108400000D03*
%TO.N,RP2040_LED*%
X128450000Y-108000000D03*
X134200000Y-102775000D03*
%TO.N,QSPI_SS*%
X126500000Y-113700000D03*
X137200000Y-108400000D03*
X132900000Y-107300000D03*
%TO.N,QSPI_SD2*%
X125850479Y-113725000D03*
X135700000Y-108400000D03*
%TO.N,QSPI_SD3*%
X127100000Y-111300000D03*
X136600000Y-109600000D03*
%TO.N,QSPI_SD1*%
X128000000Y-113100000D03*
X136400000Y-108400000D03*
%TO.N,QSPI_SD0*%
X135200000Y-109600000D03*
X127100000Y-112000000D03*
%TO.N,QSPI_SCLK*%
X135900000Y-109600000D03*
X123901332Y-111104528D03*
%TO.N,RP2040_RX_NO*%
X135100000Y-105600000D03*
X141500000Y-107100000D03*
%TO.N,RP2040_TX_NC*%
X137400000Y-115100000D03*
X137400000Y-104850000D03*
%TO.N,Net-(U1-USB_DP)*%
X125799540Y-106098306D03*
X127300000Y-109800000D03*
%TO.N,Net-(U1-USB_DM)*%
X125800000Y-105000000D03*
X127310356Y-109010356D03*
%TO.N,RP2040_TX_NO*%
X141500000Y-106150000D03*
X135200000Y-103900000D03*
%TO.N,RP2040_RX_NC*%
X137100000Y-106000000D03*
X138250000Y-112750000D03*
%TD*%
D16*
%TO.N,+3.3V*%
X124200000Y-107400000D02*
X125400000Y-107400000D01*
X125400000Y-107400000D02*
X128400000Y-104400000D01*
%TO.N,+3.3V_SW*%
X126250000Y-107950000D02*
X126250000Y-108750000D01*
X125600000Y-109400000D02*
X124200000Y-109400000D01*
X134250000Y-106700000D02*
X127500000Y-106700000D01*
X126250000Y-108750000D02*
X125600000Y-109400000D01*
X127500000Y-106700000D02*
X126250000Y-107950000D01*
%TO.N,USB_DN*%
X116350000Y-109900000D02*
X118200000Y-109900000D01*
X118200000Y-109900000D02*
X122900000Y-114600000D01*
X122900000Y-114600000D02*
X124200000Y-114600000D01*
%TO.N,USB_DP*%
X121800000Y-112600000D02*
X124200000Y-112600000D01*
X116350000Y-107850000D02*
X117050000Y-107850000D01*
X117050000Y-107850000D02*
X121800000Y-112600000D01*
%TO.N,USB_VBUS*%
X115800000Y-107100000D02*
X115800000Y-112375000D01*
X124200000Y-105400000D02*
X117500000Y-105400000D01*
X117500000Y-105400000D02*
X115800000Y-107100000D01*
X115800000Y-112375000D02*
X115950000Y-112525000D01*
%TO.N,RP2040_RX*%
X134675000Y-106275000D02*
X134525003Y-106125003D01*
X135100000Y-106275000D02*
X134675000Y-106275000D01*
X130800000Y-105000000D02*
X130800000Y-103400000D01*
X131925003Y-106125003D02*
X130800000Y-105000000D01*
X134525003Y-106125003D02*
X131925003Y-106125003D01*
%TO.N,RP2040_TX*%
X137025000Y-103300000D02*
X132900000Y-103300000D01*
X137400000Y-103675000D02*
X137025000Y-103300000D01*
X132900000Y-103300000D02*
X132800000Y-103400000D01*
%TO.N,RP2040_RX_NO*%
X141500000Y-107100000D02*
X147800000Y-107100000D01*
X150700000Y-105600000D02*
X152900000Y-103400000D01*
X147800000Y-107100000D02*
X149300000Y-105600000D01*
X149300000Y-105600000D02*
X150700000Y-105600000D01*
%TO.N,RP2040_TX_NO*%
X141950000Y-106600000D02*
X147150000Y-106600000D01*
X150350000Y-103400000D02*
X150900000Y-103400000D01*
X147150000Y-106600000D02*
X150350000Y-103400000D01*
X141500000Y-106150000D02*
X141950000Y-106600000D01*
%TD*%
%TA.AperFunction,Conductor*%
%TO.N,GND*%
G36*
X150104137Y-104140128D02*
G01*
X150108532Y-104145168D01*
X150109759Y-104146786D01*
X150128500Y-104171500D01*
X150246342Y-104260862D01*
X150383923Y-104315117D01*
X150383926Y-104315117D01*
X150383928Y-104315118D01*
X150383927Y-104315118D01*
X150470379Y-104325500D01*
X150470382Y-104325500D01*
X151329621Y-104325500D01*
X151416072Y-104315118D01*
X151416073Y-104315117D01*
X151416077Y-104315117D01*
X151434205Y-104307968D01*
X151471700Y-104308607D01*
X151497763Y-104335573D01*
X151497124Y-104373071D01*
X151486828Y-104388199D01*
X150589881Y-105285148D01*
X150555233Y-105299500D01*
X149260436Y-105299500D01*
X149184010Y-105319979D01*
X149184008Y-105319979D01*
X149115488Y-105359540D01*
X149115488Y-105359541D01*
X147689881Y-106785148D01*
X147655233Y-106799500D01*
X147493767Y-106799500D01*
X147459119Y-106785148D01*
X147444767Y-106750500D01*
X147459119Y-106715852D01*
X148098504Y-106076467D01*
X150034842Y-104140127D01*
X150069489Y-104125776D01*
X150104137Y-104140128D01*
G37*
%TD.AperFunction*%
%TA.AperFunction,Conductor*%
G36*
X159285648Y-101614352D02*
G01*
X159300000Y-101649000D01*
X159300000Y-116051000D01*
X159285648Y-116085648D01*
X159251000Y-116100000D01*
X151949000Y-116100000D01*
X151914352Y-116085648D01*
X151900000Y-116051000D01*
X151900000Y-113100000D01*
X147105433Y-113100000D01*
X147070785Y-113085648D01*
X147056433Y-113051000D01*
X147058830Y-113035861D01*
X147059716Y-113033131D01*
X147059719Y-113033126D01*
X147080804Y-112900000D01*
X147059719Y-112766874D01*
X147024895Y-112698528D01*
X146998532Y-112646786D01*
X146998527Y-112646779D01*
X146903220Y-112551472D01*
X146903213Y-112551467D01*
X146783128Y-112490282D01*
X146783127Y-112490281D01*
X146783126Y-112490281D01*
X146650000Y-112469196D01*
X146516874Y-112490281D01*
X146516872Y-112490281D01*
X146516871Y-112490282D01*
X146396786Y-112551467D01*
X146396779Y-112551472D01*
X146301472Y-112646779D01*
X146301467Y-112646786D01*
X146240282Y-112766871D01*
X146240281Y-112766872D01*
X146240281Y-112766874D01*
X146227625Y-112846780D01*
X146219196Y-112900000D01*
X146240281Y-113033126D01*
X146241170Y-113035861D01*
X146238225Y-113073249D01*
X146209706Y-113097603D01*
X146194567Y-113100000D01*
X144300000Y-113100000D01*
X144300000Y-116051000D01*
X144285648Y-116085648D01*
X144251000Y-116100000D01*
X123544166Y-116100000D01*
X123543783Y-116099999D01*
X123414540Y-116098988D01*
X123411336Y-116098858D01*
X123283951Y-116089508D01*
X123281143Y-116089220D01*
X123219235Y-116081071D01*
X123216071Y-116080549D01*
X122964463Y-116030504D01*
X122958272Y-116028845D01*
X122716880Y-115946907D01*
X122710958Y-115944454D01*
X122482325Y-115831708D01*
X122476775Y-115828503D01*
X122263486Y-115685992D01*
X122260880Y-115684125D01*
X122211320Y-115646098D01*
X122209127Y-115644313D01*
X122112307Y-115560724D01*
X122110220Y-115558814D01*
X122104149Y-115552928D01*
X122103879Y-115552664D01*
X122025001Y-115475001D01*
X121946047Y-115397273D01*
X121946001Y-115397229D01*
X121945963Y-115397191D01*
X121938763Y-115390213D01*
X121938753Y-115390204D01*
X121938750Y-115390201D01*
X121839782Y-115304771D01*
X121787847Y-115264922D01*
X121740263Y-115233128D01*
X121570547Y-115119729D01*
X121570546Y-115119729D01*
X121569253Y-115118865D01*
X121566943Y-115117952D01*
X121336153Y-115004142D01*
X121226352Y-114966871D01*
X121074095Y-114915188D01*
X121069410Y-114916280D01*
X121067844Y-114915995D01*
X120832354Y-114869156D01*
X120767444Y-114860612D01*
X120767431Y-114860611D01*
X120637067Y-114851034D01*
X120637051Y-114851033D01*
X120637049Y-114851033D01*
X120637047Y-114851032D01*
X120637029Y-114851032D01*
X120506149Y-114850000D01*
X120506089Y-114850000D01*
X111449416Y-114850000D01*
X111448816Y-114849996D01*
X111447405Y-114849978D01*
X111353275Y-114848825D01*
X111348476Y-114848531D01*
X111255633Y-114838237D01*
X111251473Y-114837593D01*
X111207742Y-114828894D01*
X111203078Y-114827726D01*
X111022854Y-114773055D01*
X111013980Y-114769379D01*
X110850029Y-114681746D01*
X110842042Y-114676410D01*
X110698326Y-114558466D01*
X110691533Y-114551673D01*
X110573589Y-114407957D01*
X110568253Y-114399970D01*
X110480618Y-114236015D01*
X110476944Y-114227145D01*
X110459724Y-114170378D01*
X110422269Y-114046907D01*
X110421108Y-114042271D01*
X110412403Y-113998508D01*
X110411764Y-113994384D01*
X110401467Y-113901509D01*
X110401174Y-113896734D01*
X110400004Y-113801184D01*
X110400000Y-113800584D01*
X110400000Y-112350000D01*
X115419196Y-112350000D01*
X115440281Y-112483126D01*
X115440281Y-112483127D01*
X115440282Y-112483128D01*
X115501467Y-112603213D01*
X115501472Y-112603220D01*
X115596779Y-112698527D01*
X115596786Y-112698532D01*
X115638903Y-112719991D01*
X115716874Y-112759719D01*
X115716872Y-112759719D01*
X115738144Y-112763087D01*
X115761195Y-112766738D01*
X115778028Y-112772699D01*
X115834012Y-112805021D01*
X115834016Y-112805022D01*
X115910436Y-112825500D01*
X115910438Y-112825500D01*
X115989564Y-112825500D01*
X116036330Y-112812967D01*
X116065988Y-112805021D01*
X116134511Y-112765460D01*
X116190460Y-112709511D01*
X116230021Y-112640988D01*
X116250500Y-112564562D01*
X116250500Y-112512983D01*
X116255841Y-112490737D01*
X116256077Y-112490272D01*
X116259719Y-112483126D01*
X116280804Y-112350000D01*
X116259719Y-112216874D01*
X116236028Y-112170378D01*
X116198532Y-112096786D01*
X116198526Y-112096778D01*
X116114852Y-112013103D01*
X116100500Y-111978455D01*
X116100500Y-110330384D01*
X116114852Y-110295736D01*
X116149500Y-110281384D01*
X116171746Y-110286725D01*
X116216874Y-110309719D01*
X116350000Y-110330804D01*
X116483126Y-110309719D01*
X116579017Y-110260860D01*
X116603213Y-110248532D01*
X116603215Y-110248530D01*
X116603220Y-110248528D01*
X116636896Y-110214852D01*
X116671544Y-110200500D01*
X118055233Y-110200500D01*
X118089881Y-110214852D01*
X122715489Y-114840460D01*
X122784012Y-114880022D01*
X122844286Y-114896172D01*
X122860434Y-114900499D01*
X122860435Y-114900500D01*
X122860438Y-114900500D01*
X123225500Y-114900500D01*
X123260148Y-114914852D01*
X123274500Y-114949500D01*
X123274500Y-115029621D01*
X123284881Y-115116072D01*
X123339139Y-115253660D01*
X123348807Y-115266409D01*
X123428500Y-115371500D01*
X123546342Y-115460862D01*
X123683923Y-115515117D01*
X123683926Y-115515117D01*
X123683928Y-115515118D01*
X123683927Y-115515118D01*
X123770379Y-115525500D01*
X123770382Y-115525500D01*
X124629621Y-115525500D01*
X124716072Y-115515118D01*
X124716073Y-115515117D01*
X124716077Y-115515117D01*
X124853658Y-115460862D01*
X124971500Y-115371500D01*
X125060862Y-115253658D01*
X125082022Y-115200000D01*
X127169196Y-115200000D01*
X127190281Y-115333126D01*
X127190281Y-115333127D01*
X127190282Y-115333128D01*
X127251467Y-115453213D01*
X127251472Y-115453220D01*
X127346779Y-115548527D01*
X127346786Y-115548532D01*
X127399878Y-115575583D01*
X127466874Y-115609719D01*
X127600000Y-115630804D01*
X127733126Y-115609719D01*
X127833033Y-115558814D01*
X127853213Y-115548532D01*
X127853215Y-115548530D01*
X127853220Y-115548528D01*
X127948528Y-115453220D01*
X127950920Y-115448527D01*
X127967278Y-115416420D01*
X128009719Y-115333126D01*
X128030804Y-115200000D01*
X129869196Y-115200000D01*
X129890281Y-115333126D01*
X129890281Y-115333127D01*
X129890282Y-115333128D01*
X129951467Y-115453213D01*
X129951472Y-115453220D01*
X130046779Y-115548527D01*
X130046786Y-115548532D01*
X130099878Y-115575583D01*
X130166874Y-115609719D01*
X130300000Y-115630804D01*
X130433126Y-115609719D01*
X130533033Y-115558814D01*
X130553213Y-115548532D01*
X130553215Y-115548530D01*
X130553220Y-115548528D01*
X130648528Y-115453220D01*
X130650920Y-115448527D01*
X130667278Y-115416420D01*
X130709719Y-115333126D01*
X130730804Y-115200000D01*
X130709719Y-115066874D01*
X130689322Y-115026842D01*
X130648532Y-114946786D01*
X130648527Y-114946779D01*
X130553220Y-114851472D01*
X130553213Y-114851467D01*
X130433128Y-114790282D01*
X130433127Y-114790281D01*
X130433126Y-114790281D01*
X130300000Y-114769196D01*
X130166874Y-114790281D01*
X130166872Y-114790281D01*
X130166871Y-114790282D01*
X130046786Y-114851467D01*
X130046779Y-114851472D01*
X129951472Y-114946779D01*
X129951467Y-114946786D01*
X129890282Y-115066871D01*
X129890281Y-115066872D01*
X129890281Y-115066874D01*
X129869196Y-115200000D01*
X128030804Y-115200000D01*
X128009719Y-115066874D01*
X127989322Y-115026842D01*
X127948532Y-114946786D01*
X127948527Y-114946779D01*
X127853220Y-114851472D01*
X127853213Y-114851467D01*
X127733128Y-114790282D01*
X127733127Y-114790281D01*
X127733126Y-114790281D01*
X127600000Y-114769196D01*
X127466874Y-114790281D01*
X127466872Y-114790281D01*
X127466871Y-114790282D01*
X127346786Y-114851467D01*
X127346779Y-114851472D01*
X127251472Y-114946779D01*
X127251467Y-114946786D01*
X127190282Y-115066871D01*
X127190281Y-115066872D01*
X127190281Y-115066874D01*
X127169196Y-115200000D01*
X125082022Y-115200000D01*
X125115117Y-115116077D01*
X125116274Y-115106450D01*
X125125500Y-115029621D01*
X125125500Y-114170378D01*
X125115118Y-114083927D01*
X125115117Y-114083925D01*
X125115117Y-114083923D01*
X125060862Y-113946342D01*
X124971500Y-113828500D01*
X124899090Y-113773590D01*
X124853660Y-113739139D01*
X124853658Y-113739138D01*
X124817807Y-113725000D01*
X125419675Y-113725000D01*
X125440760Y-113858126D01*
X125440760Y-113858127D01*
X125440761Y-113858128D01*
X125501946Y-113978213D01*
X125501951Y-113978220D01*
X125597258Y-114073527D01*
X125597265Y-114073532D01*
X125658720Y-114104844D01*
X125717353Y-114134719D01*
X125850479Y-114155804D01*
X125983605Y-114134719D01*
X126084263Y-114083430D01*
X126121651Y-114080488D01*
X126150168Y-114104844D01*
X126153111Y-114142232D01*
X126150169Y-114149335D01*
X126090281Y-114266873D01*
X126078654Y-114340282D01*
X126069196Y-114400000D01*
X126090281Y-114533126D01*
X126090281Y-114533127D01*
X126090282Y-114533128D01*
X126151467Y-114653213D01*
X126151472Y-114653220D01*
X126246779Y-114748527D01*
X126246786Y-114748532D01*
X126326842Y-114789322D01*
X126366874Y-114809719D01*
X126500000Y-114830804D01*
X126633126Y-114809719D01*
X126716420Y-114767278D01*
X126750332Y-114750000D01*
X135719196Y-114750000D01*
X135740281Y-114883126D01*
X135740281Y-114883127D01*
X135740282Y-114883128D01*
X135801467Y-115003213D01*
X135801472Y-115003220D01*
X135896779Y-115098527D01*
X135896786Y-115098532D01*
X135976842Y-115139322D01*
X136016874Y-115159719D01*
X136150000Y-115180804D01*
X136283126Y-115159719D01*
X136368788Y-115116072D01*
X136400332Y-115100000D01*
X136969196Y-115100000D01*
X136990281Y-115233126D01*
X136990281Y-115233127D01*
X136990282Y-115233128D01*
X137051467Y-115353213D01*
X137051472Y-115353220D01*
X137146779Y-115448527D01*
X137146786Y-115448532D01*
X137226842Y-115489322D01*
X137266874Y-115509719D01*
X137400000Y-115530804D01*
X137533126Y-115509719D01*
X137629017Y-115460860D01*
X137653213Y-115448532D01*
X137653215Y-115448530D01*
X137653220Y-115448528D01*
X137748528Y-115353220D01*
X137758766Y-115333128D01*
X137773214Y-115304771D01*
X137809719Y-115233126D01*
X137830804Y-115100000D01*
X137809719Y-114966874D01*
X137783384Y-114915188D01*
X137748532Y-114846786D01*
X137748527Y-114846779D01*
X137653220Y-114751472D01*
X137653213Y-114751467D01*
X137533128Y-114690282D01*
X137533127Y-114690281D01*
X137533126Y-114690281D01*
X137400000Y-114669196D01*
X137266874Y-114690281D01*
X137266872Y-114690281D01*
X137266871Y-114690282D01*
X137146786Y-114751467D01*
X137146779Y-114751472D01*
X137051472Y-114846779D01*
X137051467Y-114846786D01*
X136990282Y-114966871D01*
X136990281Y-114966872D01*
X136990281Y-114966874D01*
X136969196Y-115100000D01*
X136400332Y-115100000D01*
X136403213Y-115098532D01*
X136403215Y-115098530D01*
X136403220Y-115098528D01*
X136498528Y-115003220D01*
X136559719Y-114883126D01*
X136580804Y-114750000D01*
X136559719Y-114616874D01*
X136529959Y-114558466D01*
X136510359Y-114519999D01*
X138444417Y-114519999D01*
X138444417Y-114520000D01*
X138464700Y-114725934D01*
X138464700Y-114725935D01*
X138490115Y-114809717D01*
X138524768Y-114923954D01*
X138622315Y-115106450D01*
X138753590Y-115266410D01*
X138913550Y-115397685D01*
X139096046Y-115495232D01*
X139294066Y-115555300D01*
X139500000Y-115575583D01*
X139705934Y-115555300D01*
X139903954Y-115495232D01*
X140086450Y-115397685D01*
X140246410Y-115266410D01*
X140377685Y-115106450D01*
X140475232Y-114923954D01*
X140535300Y-114725934D01*
X140555583Y-114520000D01*
X140535300Y-114314066D01*
X140475232Y-114116046D01*
X140377685Y-113933550D01*
X140246410Y-113773590D01*
X140086450Y-113642315D01*
X139903954Y-113544768D01*
X139705934Y-113484700D01*
X139500000Y-113464417D01*
X139294065Y-113484700D01*
X139294064Y-113484700D01*
X139096043Y-113544769D01*
X138913548Y-113642316D01*
X138753590Y-113773590D01*
X138622316Y-113933548D01*
X138524769Y-114116043D01*
X138464700Y-114314064D01*
X138464700Y-114314065D01*
X138444417Y-114519999D01*
X136510359Y-114519999D01*
X136498532Y-114496786D01*
X136498527Y-114496779D01*
X136403220Y-114401472D01*
X136403213Y-114401467D01*
X136283128Y-114340282D01*
X136283127Y-114340281D01*
X136283126Y-114340281D01*
X136150000Y-114319196D01*
X136016874Y-114340281D01*
X136016872Y-114340281D01*
X136016871Y-114340282D01*
X135896786Y-114401467D01*
X135896779Y-114401472D01*
X135801472Y-114496779D01*
X135801467Y-114496786D01*
X135740282Y-114616871D01*
X135740281Y-114616872D01*
X135740281Y-114616874D01*
X135719196Y-114750000D01*
X126750332Y-114750000D01*
X126753213Y-114748532D01*
X126753215Y-114748530D01*
X126753220Y-114748528D01*
X126848528Y-114653220D01*
X126909719Y-114533126D01*
X126930804Y-114400000D01*
X126909719Y-114266874D01*
X126860552Y-114170378D01*
X126848532Y-114146786D01*
X126848527Y-114146779D01*
X126786396Y-114084648D01*
X126772044Y-114050000D01*
X126786396Y-114015352D01*
X126812261Y-113989487D01*
X126848528Y-113953220D01*
X126858551Y-113933550D01*
X126877309Y-113896734D01*
X126909719Y-113833126D01*
X126930804Y-113700000D01*
X126909719Y-113566874D01*
X126883348Y-113515118D01*
X126848532Y-113446786D01*
X126848526Y-113446778D01*
X126753220Y-113351472D01*
X126753213Y-113351467D01*
X126633128Y-113290282D01*
X126633127Y-113290281D01*
X126633126Y-113290281D01*
X126500000Y-113269196D01*
X126366874Y-113290281D01*
X126366872Y-113290281D01*
X126366871Y-113290282D01*
X126246786Y-113351467D01*
X126246782Y-113351470D01*
X126246780Y-113351472D01*
X126197385Y-113400865D01*
X126162739Y-113415216D01*
X126128091Y-113400864D01*
X126103699Y-113376472D01*
X126103692Y-113376467D01*
X125983607Y-113315282D01*
X125983606Y-113315281D01*
X125983605Y-113315281D01*
X125850479Y-113294196D01*
X125717353Y-113315281D01*
X125717351Y-113315281D01*
X125717350Y-113315282D01*
X125597265Y-113376467D01*
X125597258Y-113376472D01*
X125501951Y-113471779D01*
X125501946Y-113471786D01*
X125440761Y-113591871D01*
X125440760Y-113591872D01*
X125440760Y-113591874D01*
X125419675Y-113725000D01*
X124817807Y-113725000D01*
X124716077Y-113684883D01*
X124716075Y-113684882D01*
X124716071Y-113684881D01*
X124716072Y-113684881D01*
X124629621Y-113674500D01*
X124629618Y-113674500D01*
X123770382Y-113674500D01*
X123770379Y-113674500D01*
X123683927Y-113684881D01*
X123546339Y-113739139D01*
X123428500Y-113828500D01*
X123339139Y-113946339D01*
X123284881Y-114083927D01*
X123274500Y-114170378D01*
X123274500Y-114250500D01*
X123260148Y-114285148D01*
X123225500Y-114299500D01*
X123044767Y-114299500D01*
X123010119Y-114285148D01*
X121705378Y-112980407D01*
X121691026Y-112945759D01*
X121705378Y-112911111D01*
X121740026Y-112896759D01*
X121752708Y-112898428D01*
X121760438Y-112900500D01*
X121839562Y-112900500D01*
X123225500Y-112900500D01*
X123260148Y-112914852D01*
X123274500Y-112949500D01*
X123274500Y-113029621D01*
X123284881Y-113116072D01*
X123339139Y-113253660D01*
X123366910Y-113290281D01*
X123428500Y-113371500D01*
X123546342Y-113460862D01*
X123683923Y-113515117D01*
X123683926Y-113515117D01*
X123683928Y-113515118D01*
X123683927Y-113515118D01*
X123770379Y-113525500D01*
X123770382Y-113525500D01*
X124629621Y-113525500D01*
X124716072Y-113515118D01*
X124716073Y-113515117D01*
X124716077Y-113515117D01*
X124853658Y-113460862D01*
X124971500Y-113371500D01*
X125060862Y-113253658D01*
X125115117Y-113116077D01*
X125117048Y-113100000D01*
X127569196Y-113100000D01*
X127590281Y-113233126D01*
X127590281Y-113233127D01*
X127590282Y-113233128D01*
X127651467Y-113353213D01*
X127651472Y-113353220D01*
X127746779Y-113448527D01*
X127746786Y-113448532D01*
X127792426Y-113471786D01*
X127866874Y-113509719D01*
X128000000Y-113530804D01*
X128133126Y-113509719D01*
X128229017Y-113460860D01*
X128253213Y-113448532D01*
X128253215Y-113448530D01*
X128253220Y-113448528D01*
X128348528Y-113353220D01*
X128356340Y-113337887D01*
X128384858Y-113313531D01*
X128422245Y-113316473D01*
X128443660Y-113337888D01*
X128451470Y-113353217D01*
X128451472Y-113353220D01*
X128546779Y-113448527D01*
X128546786Y-113448532D01*
X128592426Y-113471786D01*
X128666874Y-113509719D01*
X128800000Y-113530804D01*
X128933126Y-113509719D01*
X129029017Y-113460860D01*
X129053213Y-113448532D01*
X129053215Y-113448530D01*
X129053220Y-113448528D01*
X129148528Y-113353220D01*
X129149422Y-113351467D01*
X129178602Y-113294196D01*
X129209719Y-113233126D01*
X129230804Y-113100000D01*
X129369196Y-113100000D01*
X129390281Y-113233126D01*
X129390281Y-113233127D01*
X129390282Y-113233128D01*
X129451467Y-113353213D01*
X129451472Y-113353220D01*
X129546779Y-113448527D01*
X129546786Y-113448532D01*
X129592426Y-113471786D01*
X129666874Y-113509719D01*
X129800000Y-113530804D01*
X129933126Y-113509719D01*
X130029017Y-113460860D01*
X130053213Y-113448532D01*
X130053215Y-113448530D01*
X130053220Y-113448528D01*
X130148528Y-113353220D01*
X130149422Y-113351467D01*
X130178602Y-113294196D01*
X130209719Y-113233126D01*
X130230804Y-113100000D01*
X130209719Y-112966874D01*
X130189322Y-112926842D01*
X130148532Y-112846786D01*
X130148527Y-112846779D01*
X130053220Y-112751472D01*
X130053213Y-112751467D01*
X130050334Y-112750000D01*
X137819196Y-112750000D01*
X137840281Y-112883126D01*
X137840281Y-112883127D01*
X137840282Y-112883128D01*
X137901467Y-113003213D01*
X137901472Y-113003220D01*
X137996779Y-113098527D01*
X137996786Y-113098532D01*
X138076842Y-113139322D01*
X138116874Y-113159719D01*
X138250000Y-113180804D01*
X138383126Y-113159719D01*
X138468788Y-113116072D01*
X138503213Y-113098532D01*
X138503215Y-113098530D01*
X138503220Y-113098528D01*
X138598528Y-113003220D01*
X138659719Y-112883126D01*
X138679105Y-112760721D01*
X138698701Y-112728746D01*
X138735167Y-112719991D01*
X138758584Y-112730508D01*
X138913550Y-112857685D01*
X139096046Y-112955232D01*
X139294066Y-113015300D01*
X139500000Y-113035583D01*
X139705934Y-113015300D01*
X139903954Y-112955232D01*
X140086450Y-112857685D01*
X140246410Y-112726410D01*
X140377685Y-112566450D01*
X140475232Y-112383954D01*
X140531033Y-112200000D01*
X144269196Y-112200000D01*
X144290281Y-112333126D01*
X144290281Y-112333127D01*
X144290282Y-112333128D01*
X144351467Y-112453213D01*
X144351472Y-112453220D01*
X144446779Y-112548527D01*
X144446786Y-112548532D01*
X144526842Y-112589322D01*
X144566874Y-112609719D01*
X144700000Y-112630804D01*
X144833126Y-112609719D01*
X144921752Y-112564562D01*
X144953213Y-112548532D01*
X144953215Y-112548530D01*
X144953220Y-112548528D01*
X145048528Y-112453220D01*
X145050920Y-112448527D01*
X145074897Y-112401467D01*
X145109719Y-112333126D01*
X145130804Y-112200000D01*
X145114966Y-112100000D01*
X149769196Y-112100000D01*
X149790281Y-112233126D01*
X149790281Y-112233127D01*
X149790282Y-112233128D01*
X149851467Y-112353213D01*
X149851472Y-112353220D01*
X149946779Y-112448527D01*
X149946786Y-112448532D01*
X150014682Y-112483126D01*
X150066874Y-112509719D01*
X150200000Y-112530804D01*
X150333126Y-112509719D01*
X150416420Y-112467278D01*
X150453213Y-112448532D01*
X150453215Y-112448530D01*
X150453220Y-112448528D01*
X150548528Y-112353220D01*
X150550920Y-112348527D01*
X150583212Y-112285148D01*
X150609719Y-112233126D01*
X150614966Y-112200000D01*
X154032935Y-112200000D01*
X154054020Y-112333126D01*
X154054020Y-112333127D01*
X154054021Y-112333128D01*
X154115206Y-112453213D01*
X154115211Y-112453220D01*
X154210518Y-112548527D01*
X154210525Y-112548532D01*
X154290581Y-112589322D01*
X154330613Y-112609719D01*
X154463739Y-112630804D01*
X154596865Y-112609719D01*
X154685491Y-112564562D01*
X154716952Y-112548532D01*
X154716954Y-112548530D01*
X154716959Y-112548528D01*
X154812267Y-112453220D01*
X154838210Y-112402302D01*
X154866726Y-112377948D01*
X154904114Y-112380889D01*
X154925528Y-112402304D01*
X154951467Y-112453213D01*
X154951472Y-112453220D01*
X155046779Y-112548527D01*
X155046786Y-112548532D01*
X155126842Y-112589322D01*
X155166874Y-112609719D01*
X155300000Y-112630804D01*
X155433126Y-112609719D01*
X155521752Y-112564562D01*
X155553213Y-112548532D01*
X155553215Y-112548530D01*
X155553220Y-112548528D01*
X155648528Y-112453220D01*
X155650920Y-112448527D01*
X155674897Y-112401467D01*
X155709719Y-112333126D01*
X155730804Y-112200000D01*
X155717485Y-112115911D01*
X155726240Y-112079447D01*
X155758216Y-112059851D01*
X155788127Y-112064589D01*
X155835814Y-112088886D01*
X155866894Y-112104722D01*
X156000020Y-112125807D01*
X156133146Y-112104722D01*
X156221210Y-112059851D01*
X156253233Y-112043535D01*
X156253235Y-112043533D01*
X156253240Y-112043531D01*
X156348548Y-111948223D01*
X156367861Y-111910317D01*
X156396377Y-111885962D01*
X156433765Y-111888904D01*
X156446168Y-111897916D01*
X156496779Y-111948527D01*
X156496786Y-111948532D01*
X156555515Y-111978455D01*
X156616874Y-112009719D01*
X156750000Y-112030804D01*
X156883126Y-112009719D01*
X156967220Y-111966871D01*
X157003213Y-111948532D01*
X157003215Y-111948530D01*
X157003220Y-111948528D01*
X157098528Y-111853220D01*
X157099422Y-111851467D01*
X157117719Y-111815556D01*
X157159719Y-111733126D01*
X157180804Y-111600000D01*
X157159719Y-111466874D01*
X157124895Y-111398528D01*
X157098532Y-111346786D01*
X157098527Y-111346779D01*
X157003220Y-111251472D01*
X157003213Y-111251467D01*
X156883128Y-111190282D01*
X156883127Y-111190281D01*
X156883126Y-111190281D01*
X156750000Y-111169196D01*
X156616874Y-111190281D01*
X156616872Y-111190281D01*
X156616871Y-111190282D01*
X156496786Y-111251467D01*
X156496779Y-111251472D01*
X156401475Y-111346776D01*
X156401472Y-111346780D01*
X156382158Y-111384685D01*
X156353640Y-111409040D01*
X156316252Y-111406097D01*
X156303851Y-111397086D01*
X156253240Y-111346475D01*
X156253233Y-111346470D01*
X156133148Y-111285285D01*
X156133147Y-111285284D01*
X156133146Y-111285284D01*
X156000020Y-111264199D01*
X155866894Y-111285284D01*
X155866892Y-111285284D01*
X155866891Y-111285285D01*
X155746806Y-111346470D01*
X155746799Y-111346475D01*
X155651492Y-111441782D01*
X155651487Y-111441789D01*
X155590302Y-111561874D01*
X155590301Y-111561875D01*
X155590301Y-111561877D01*
X155569216Y-111695003D01*
X155577416Y-111746779D01*
X155582534Y-111779089D01*
X155573779Y-111815556D01*
X155541802Y-111835151D01*
X155511892Y-111830414D01*
X155433126Y-111790281D01*
X155300000Y-111769196D01*
X155166874Y-111790281D01*
X155166872Y-111790281D01*
X155166871Y-111790282D01*
X155046786Y-111851467D01*
X155046779Y-111851472D01*
X154951474Y-111946778D01*
X154951468Y-111946784D01*
X154925528Y-111997696D01*
X154897011Y-112022052D01*
X154859623Y-112019109D01*
X154838210Y-111997696D01*
X154812267Y-111946780D01*
X154716959Y-111851472D01*
X154716952Y-111851467D01*
X154596867Y-111790282D01*
X154596866Y-111790281D01*
X154596865Y-111790281D01*
X154463739Y-111769196D01*
X154330613Y-111790281D01*
X154330611Y-111790281D01*
X154330610Y-111790282D01*
X154210525Y-111851467D01*
X154210518Y-111851472D01*
X154115213Y-111946778D01*
X154115206Y-111946786D01*
X154054021Y-112066871D01*
X154054020Y-112066872D01*
X154054020Y-112066874D01*
X154032935Y-112200000D01*
X150614966Y-112200000D01*
X150630804Y-112100000D01*
X150609719Y-111966874D01*
X150574583Y-111897916D01*
X150548532Y-111846786D01*
X150548527Y-111846779D01*
X150453220Y-111751472D01*
X150453213Y-111751467D01*
X150333128Y-111690282D01*
X150333127Y-111690281D01*
X150333126Y-111690281D01*
X150200000Y-111669196D01*
X150066874Y-111690281D01*
X150066872Y-111690281D01*
X150066871Y-111690282D01*
X149946786Y-111751467D01*
X149946779Y-111751472D01*
X149851472Y-111846779D01*
X149851467Y-111846786D01*
X149790282Y-111966871D01*
X149790281Y-111966872D01*
X149790281Y-111966874D01*
X149769196Y-112100000D01*
X145114966Y-112100000D01*
X145109719Y-112066874D01*
X145086881Y-112022052D01*
X145048532Y-111946786D01*
X145048526Y-111946778D01*
X144953220Y-111851472D01*
X144953213Y-111851467D01*
X144833128Y-111790282D01*
X144833127Y-111790281D01*
X144833126Y-111790281D01*
X144700000Y-111769196D01*
X144566874Y-111790281D01*
X144566872Y-111790281D01*
X144566871Y-111790282D01*
X144446786Y-111851467D01*
X144446779Y-111851472D01*
X144351474Y-111946778D01*
X144351467Y-111946786D01*
X144290282Y-112066871D01*
X144290281Y-112066872D01*
X144290281Y-112066874D01*
X144269196Y-112200000D01*
X140531033Y-112200000D01*
X140535300Y-112185934D01*
X140555583Y-111980000D01*
X140535300Y-111774066D01*
X140475232Y-111576046D01*
X140377685Y-111393550D01*
X140246410Y-111233590D01*
X140086450Y-111102315D01*
X139988576Y-111050000D01*
X141069196Y-111050000D01*
X141090281Y-111183126D01*
X141090281Y-111183127D01*
X141090282Y-111183128D01*
X141151467Y-111303213D01*
X141151472Y-111303220D01*
X141246779Y-111398527D01*
X141246786Y-111398532D01*
X141314682Y-111433126D01*
X141366874Y-111459719D01*
X141500000Y-111480804D01*
X141633126Y-111459719D01*
X141732589Y-111409040D01*
X141753213Y-111398532D01*
X141753215Y-111398530D01*
X141753220Y-111398528D01*
X141848528Y-111303220D01*
X141857667Y-111285285D01*
X141876395Y-111248527D01*
X141901121Y-111200000D01*
X148894196Y-111200000D01*
X148915281Y-111333126D01*
X148915281Y-111333127D01*
X148915282Y-111333128D01*
X148976467Y-111453213D01*
X148976472Y-111453220D01*
X149071779Y-111548527D01*
X149071786Y-111548532D01*
X149151842Y-111589322D01*
X149191874Y-111609719D01*
X149325000Y-111630804D01*
X149458126Y-111609719D01*
X149552027Y-111561874D01*
X149578213Y-111548532D01*
X149578215Y-111548530D01*
X149578220Y-111548528D01*
X149673528Y-111453220D01*
X149673613Y-111453055D01*
X149701395Y-111398527D01*
X149734719Y-111333126D01*
X149755804Y-111200000D01*
X149734719Y-111066874D01*
X149703075Y-111004769D01*
X149673532Y-110946786D01*
X149673527Y-110946779D01*
X149626748Y-110900000D01*
X149869196Y-110900000D01*
X149890281Y-111033126D01*
X149890281Y-111033127D01*
X149890282Y-111033128D01*
X149951467Y-111153213D01*
X149951472Y-111153220D01*
X150046779Y-111248527D01*
X150046786Y-111248532D01*
X150126842Y-111289322D01*
X150166874Y-111309719D01*
X150300000Y-111330804D01*
X150433126Y-111309719D01*
X150522464Y-111264199D01*
X150553213Y-111248532D01*
X150553215Y-111248530D01*
X150553220Y-111248528D01*
X150576748Y-111225000D01*
X151894196Y-111225000D01*
X151915281Y-111358126D01*
X151915281Y-111358127D01*
X151915282Y-111358128D01*
X151976467Y-111478213D01*
X151976472Y-111478220D01*
X152071779Y-111573527D01*
X152071786Y-111573532D01*
X152123734Y-111600000D01*
X152191874Y-111634719D01*
X152325000Y-111655804D01*
X152458126Y-111634719D01*
X152541420Y-111592278D01*
X152578213Y-111573532D01*
X152578215Y-111573530D01*
X152578220Y-111573528D01*
X152673528Y-111478220D01*
X152734719Y-111358126D01*
X152755804Y-111225000D01*
X152734719Y-111091874D01*
X152712633Y-111048527D01*
X152673532Y-110971786D01*
X152673527Y-110971779D01*
X152578220Y-110876472D01*
X152578213Y-110876467D01*
X152458128Y-110815282D01*
X152458127Y-110815281D01*
X152458126Y-110815281D01*
X152325000Y-110794196D01*
X152191874Y-110815281D01*
X152191872Y-110815281D01*
X152191871Y-110815282D01*
X152071786Y-110876467D01*
X152071779Y-110876472D01*
X151976472Y-110971779D01*
X151976467Y-110971786D01*
X151915282Y-111091871D01*
X151915281Y-111091872D01*
X151915281Y-111091874D01*
X151894196Y-111225000D01*
X150576748Y-111225000D01*
X150648528Y-111153220D01*
X150709719Y-111033126D01*
X150730804Y-110900000D01*
X150709719Y-110766874D01*
X150676395Y-110701472D01*
X150648532Y-110646786D01*
X150648527Y-110646779D01*
X150553220Y-110551472D01*
X150553213Y-110551467D01*
X150433128Y-110490282D01*
X150433127Y-110490281D01*
X150433126Y-110490281D01*
X150300000Y-110469196D01*
X150166874Y-110490281D01*
X150166872Y-110490281D01*
X150166871Y-110490282D01*
X150046786Y-110551467D01*
X150046779Y-110551472D01*
X149951472Y-110646779D01*
X149951467Y-110646786D01*
X149890282Y-110766871D01*
X149890281Y-110766872D01*
X149890281Y-110766874D01*
X149869196Y-110900000D01*
X149626748Y-110900000D01*
X149578220Y-110851472D01*
X149578213Y-110851467D01*
X149458128Y-110790282D01*
X149458127Y-110790281D01*
X149458126Y-110790281D01*
X149325000Y-110769196D01*
X149191874Y-110790281D01*
X149191872Y-110790281D01*
X149191871Y-110790282D01*
X149071786Y-110851467D01*
X149071779Y-110851472D01*
X148976472Y-110946779D01*
X148976467Y-110946786D01*
X148915282Y-111066871D01*
X148915281Y-111066872D01*
X148915281Y-111066874D01*
X148894196Y-111200000D01*
X141901121Y-111200000D01*
X141909719Y-111183126D01*
X141930804Y-111050000D01*
X141909719Y-110916874D01*
X141881493Y-110861477D01*
X141848532Y-110796786D01*
X141848527Y-110796779D01*
X141753220Y-110701472D01*
X141753213Y-110701467D01*
X141633128Y-110640282D01*
X141633127Y-110640281D01*
X141633126Y-110640281D01*
X141500000Y-110619196D01*
X141366874Y-110640281D01*
X141366872Y-110640281D01*
X141366871Y-110640282D01*
X141246786Y-110701467D01*
X141246779Y-110701472D01*
X141151472Y-110796779D01*
X141151467Y-110796786D01*
X141090282Y-110916871D01*
X141090281Y-110916872D01*
X141090281Y-110916874D01*
X141069196Y-111050000D01*
X139988576Y-111050000D01*
X139903954Y-111004768D01*
X139705934Y-110944700D01*
X139500000Y-110924417D01*
X139294065Y-110944700D01*
X139294064Y-110944700D01*
X139096043Y-111004769D01*
X138913548Y-111102316D01*
X138753590Y-111233590D01*
X138622316Y-111393548D01*
X138524769Y-111576043D01*
X138464700Y-111774064D01*
X138464700Y-111774065D01*
X138444417Y-111979999D01*
X138444417Y-111980000D01*
X138464700Y-112185934D01*
X138464700Y-112185935D01*
X138501585Y-112307529D01*
X138497909Y-112344852D01*
X138468919Y-112368643D01*
X138432450Y-112365413D01*
X138402200Y-112350000D01*
X138383126Y-112340281D01*
X138250000Y-112319196D01*
X138116874Y-112340281D01*
X138116872Y-112340281D01*
X138116871Y-112340282D01*
X137996786Y-112401467D01*
X137996779Y-112401472D01*
X137901472Y-112496779D01*
X137901467Y-112496786D01*
X137840282Y-112616871D01*
X137840281Y-112616872D01*
X137840281Y-112616874D01*
X137819196Y-112750000D01*
X130050334Y-112750000D01*
X129933128Y-112690282D01*
X129933127Y-112690281D01*
X129933126Y-112690281D01*
X129800000Y-112669196D01*
X129666874Y-112690281D01*
X129666872Y-112690281D01*
X129666871Y-112690282D01*
X129546786Y-112751467D01*
X129546779Y-112751472D01*
X129451472Y-112846779D01*
X129451467Y-112846786D01*
X129390282Y-112966871D01*
X129390281Y-112966872D01*
X129390281Y-112966874D01*
X129369196Y-113100000D01*
X129230804Y-113100000D01*
X129209719Y-112966874D01*
X129189322Y-112926842D01*
X129148532Y-112846786D01*
X129148527Y-112846779D01*
X129053220Y-112751472D01*
X129053213Y-112751467D01*
X128933128Y-112690282D01*
X128933127Y-112690281D01*
X128933126Y-112690281D01*
X128800000Y-112669196D01*
X128666874Y-112690281D01*
X128666872Y-112690281D01*
X128666871Y-112690282D01*
X128546786Y-112751467D01*
X128546779Y-112751472D01*
X128451472Y-112846779D01*
X128451468Y-112846784D01*
X128443659Y-112862112D01*
X128415141Y-112886468D01*
X128377754Y-112883525D01*
X128356341Y-112862112D01*
X128348531Y-112846784D01*
X128348527Y-112846779D01*
X128253220Y-112751472D01*
X128253213Y-112751467D01*
X128133128Y-112690282D01*
X128133127Y-112690281D01*
X128133126Y-112690281D01*
X128000000Y-112669196D01*
X127866874Y-112690281D01*
X127866872Y-112690281D01*
X127866871Y-112690282D01*
X127746786Y-112751467D01*
X127746779Y-112751472D01*
X127651472Y-112846779D01*
X127651467Y-112846786D01*
X127590282Y-112966871D01*
X127590281Y-112966872D01*
X127590281Y-112966874D01*
X127569196Y-113100000D01*
X125117048Y-113100000D01*
X125117225Y-113098528D01*
X125125500Y-113029621D01*
X125125500Y-112170378D01*
X125115118Y-112083927D01*
X125115117Y-112083925D01*
X125115117Y-112083923D01*
X125060862Y-111946342D01*
X124971500Y-111828500D01*
X124869923Y-111751472D01*
X124853660Y-111739139D01*
X124853658Y-111739138D01*
X124716077Y-111684883D01*
X124716075Y-111684882D01*
X124716071Y-111684881D01*
X124716072Y-111684881D01*
X124629621Y-111674500D01*
X124629618Y-111674500D01*
X123770382Y-111674500D01*
X123770379Y-111674500D01*
X123683927Y-111684881D01*
X123546339Y-111739139D01*
X123428500Y-111828500D01*
X123339139Y-111946339D01*
X123284881Y-112083927D01*
X123274500Y-112170378D01*
X123274500Y-112250500D01*
X123260148Y-112285148D01*
X123225500Y-112299500D01*
X121944767Y-112299500D01*
X121910119Y-112285148D01*
X119674968Y-110049997D01*
X121969196Y-110049997D01*
X121990281Y-110183123D01*
X121990281Y-110183124D01*
X121990282Y-110183125D01*
X122051467Y-110303210D01*
X122051472Y-110303217D01*
X122088605Y-110340350D01*
X122102957Y-110374998D01*
X122088606Y-110409645D01*
X122083022Y-110415230D01*
X122051470Y-110446782D01*
X122051467Y-110446786D01*
X121990282Y-110566871D01*
X121990281Y-110566872D01*
X121990281Y-110566874D01*
X121969196Y-110700000D01*
X121990281Y-110833126D01*
X121990281Y-110833127D01*
X121990282Y-110833128D01*
X122051467Y-110953213D01*
X122051472Y-110953220D01*
X122146779Y-111048527D01*
X122146786Y-111048532D01*
X122226842Y-111089322D01*
X122266874Y-111109719D01*
X122400000Y-111130804D01*
X122533126Y-111109719D01*
X122543314Y-111104528D01*
X123470528Y-111104528D01*
X123491613Y-111237654D01*
X123491613Y-111237655D01*
X123491614Y-111237656D01*
X123552799Y-111357741D01*
X123552804Y-111357748D01*
X123648111Y-111453055D01*
X123648118Y-111453060D01*
X123702570Y-111480804D01*
X123768206Y-111514247D01*
X123901332Y-111535332D01*
X124034458Y-111514247D01*
X124127439Y-111466871D01*
X124154545Y-111453060D01*
X124154547Y-111453058D01*
X124154552Y-111453056D01*
X124249860Y-111357748D01*
X124255446Y-111346786D01*
X124279284Y-111300000D01*
X126669196Y-111300000D01*
X126690281Y-111433126D01*
X126690281Y-111433127D01*
X126690282Y-111433128D01*
X126751467Y-111553213D01*
X126751473Y-111553221D01*
X126813603Y-111615352D01*
X126827955Y-111650000D01*
X126813603Y-111684648D01*
X126751473Y-111746778D01*
X126751467Y-111746786D01*
X126690282Y-111866871D01*
X126690281Y-111866872D01*
X126690281Y-111866874D01*
X126669196Y-112000000D01*
X126690281Y-112133126D01*
X126690281Y-112133127D01*
X126690282Y-112133128D01*
X126751467Y-112253213D01*
X126751472Y-112253220D01*
X126846779Y-112348527D01*
X126846786Y-112348532D01*
X126910292Y-112380889D01*
X126966874Y-112409719D01*
X127100000Y-112430804D01*
X127233126Y-112409719D01*
X127320081Y-112365413D01*
X127353213Y-112348532D01*
X127353215Y-112348530D01*
X127353220Y-112348528D01*
X127448528Y-112253220D01*
X127458766Y-112233128D01*
X127490738Y-112170378D01*
X127509719Y-112133126D01*
X127530804Y-112000000D01*
X127509719Y-111866874D01*
X127483571Y-111815556D01*
X127448532Y-111746786D01*
X127448527Y-111746779D01*
X127386396Y-111684648D01*
X127372044Y-111650000D01*
X127386396Y-111615352D01*
X127401748Y-111600000D01*
X127448528Y-111553220D01*
X127450920Y-111548527D01*
X127468387Y-111514245D01*
X127509719Y-111433126D01*
X127530804Y-111300000D01*
X127509719Y-111166874D01*
X127471503Y-111091871D01*
X127448532Y-111046786D01*
X127448526Y-111046778D01*
X127353218Y-110951470D01*
X127347970Y-110948797D01*
X127323614Y-110920280D01*
X127326555Y-110882892D01*
X127347970Y-110861477D01*
X127366986Y-110851789D01*
X127462294Y-110756481D01*
X127462540Y-110756000D01*
X127481044Y-110719681D01*
X127523485Y-110636387D01*
X127544570Y-110503261D01*
X127523485Y-110370135D01*
X127513226Y-110350000D01*
X131669196Y-110350000D01*
X131690281Y-110483126D01*
X131690281Y-110483127D01*
X131690282Y-110483128D01*
X131751467Y-110603213D01*
X131751472Y-110603220D01*
X131846779Y-110698527D01*
X131846786Y-110698532D01*
X131926842Y-110739322D01*
X131966874Y-110759719D01*
X132100000Y-110780804D01*
X132233126Y-110759719D01*
X132316420Y-110717278D01*
X132353213Y-110698532D01*
X132353215Y-110698530D01*
X132353220Y-110698528D01*
X132448528Y-110603220D01*
X132509719Y-110483126D01*
X132530804Y-110350000D01*
X132509719Y-110216874D01*
X132477282Y-110153213D01*
X132448532Y-110096786D01*
X132448527Y-110096779D01*
X132353220Y-110001472D01*
X132353213Y-110001467D01*
X132233128Y-109940282D01*
X132233127Y-109940281D01*
X132233126Y-109940281D01*
X132100000Y-109919196D01*
X131966874Y-109940281D01*
X131966872Y-109940281D01*
X131966871Y-109940282D01*
X131846786Y-110001467D01*
X131846779Y-110001472D01*
X131751472Y-110096779D01*
X131751467Y-110096786D01*
X131690282Y-110216871D01*
X131690281Y-110216872D01*
X131690281Y-110216874D01*
X131669196Y-110350000D01*
X127513226Y-110350000D01*
X127503231Y-110330384D01*
X127462218Y-110249889D01*
X127459275Y-110212502D01*
X127483632Y-110183985D01*
X127483632Y-110183984D01*
X127553220Y-110148528D01*
X127648528Y-110053220D01*
X127650171Y-110049997D01*
X127674897Y-110001467D01*
X127709719Y-109933126D01*
X127730804Y-109800000D01*
X127709719Y-109666874D01*
X127677296Y-109603240D01*
X127675645Y-109600000D01*
X134769196Y-109600000D01*
X134790281Y-109733126D01*
X134790281Y-109733127D01*
X134790282Y-109733128D01*
X134851467Y-109853213D01*
X134851472Y-109853220D01*
X134946779Y-109948527D01*
X134946786Y-109948532D01*
X135026842Y-109989322D01*
X135066874Y-110009719D01*
X135200000Y-110030804D01*
X135333126Y-110009719D01*
X135416420Y-109967278D01*
X135453213Y-109948532D01*
X135453215Y-109948530D01*
X135453220Y-109948528D01*
X135515352Y-109886396D01*
X135550000Y-109872044D01*
X135584648Y-109886396D01*
X135646779Y-109948527D01*
X135646786Y-109948532D01*
X135726842Y-109989322D01*
X135766874Y-110009719D01*
X135900000Y-110030804D01*
X136033126Y-110009719D01*
X136116420Y-109967278D01*
X136153213Y-109948532D01*
X136153215Y-109948530D01*
X136153220Y-109948528D01*
X136215352Y-109886396D01*
X136250000Y-109872044D01*
X136284648Y-109886396D01*
X136346779Y-109948527D01*
X136346786Y-109948532D01*
X136426842Y-109989322D01*
X136466874Y-110009719D01*
X136600000Y-110030804D01*
X136733126Y-110009719D01*
X136816420Y-109967278D01*
X136853213Y-109948532D01*
X136853215Y-109948530D01*
X136853220Y-109948528D01*
X136948528Y-109853220D01*
X136953249Y-109843956D01*
X136977287Y-109796777D01*
X137009719Y-109733126D01*
X137030804Y-109600000D01*
X137009719Y-109466874D01*
X136996026Y-109439999D01*
X138444417Y-109439999D01*
X138444417Y-109440000D01*
X138464700Y-109645934D01*
X138464700Y-109645935D01*
X138464958Y-109646786D01*
X138524768Y-109843954D01*
X138622315Y-110026450D01*
X138753590Y-110186410D01*
X138913550Y-110317685D01*
X139096046Y-110415232D01*
X139294066Y-110475300D01*
X139500000Y-110495583D01*
X139705934Y-110475300D01*
X139903954Y-110415232D01*
X140086450Y-110317685D01*
X140246410Y-110186410D01*
X140377685Y-110026450D01*
X140445275Y-109900000D01*
X149869196Y-109900000D01*
X149890281Y-110033126D01*
X149890281Y-110033127D01*
X149890282Y-110033128D01*
X149951467Y-110153213D01*
X149951472Y-110153220D01*
X150046779Y-110248527D01*
X150046786Y-110248532D01*
X150111263Y-110281384D01*
X150166874Y-110309719D01*
X150300000Y-110330804D01*
X150433126Y-110309719D01*
X150529017Y-110260860D01*
X150553213Y-110248532D01*
X150553215Y-110248530D01*
X150553220Y-110248528D01*
X150648528Y-110153220D01*
X150650919Y-110148529D01*
X150667278Y-110116420D01*
X150709719Y-110033126D01*
X150730804Y-109900000D01*
X150709719Y-109766874D01*
X150689322Y-109726842D01*
X150648532Y-109646786D01*
X150648527Y-109646779D01*
X150553220Y-109551472D01*
X150553213Y-109551467D01*
X150433128Y-109490282D01*
X150433127Y-109490281D01*
X150433126Y-109490281D01*
X150300000Y-109469196D01*
X150166874Y-109490281D01*
X150166872Y-109490281D01*
X150166871Y-109490282D01*
X150046786Y-109551467D01*
X150046779Y-109551472D01*
X149951472Y-109646779D01*
X149951467Y-109646786D01*
X149890282Y-109766871D01*
X149890281Y-109766872D01*
X149890281Y-109766874D01*
X149869196Y-109900000D01*
X140445275Y-109900000D01*
X140475232Y-109843954D01*
X140535300Y-109645934D01*
X140555583Y-109440000D01*
X140535300Y-109234066D01*
X140524966Y-109200000D01*
X150869196Y-109200000D01*
X150890281Y-109333126D01*
X150890281Y-109333127D01*
X150890282Y-109333128D01*
X150951467Y-109453213D01*
X150951473Y-109453221D01*
X151013603Y-109515352D01*
X151027955Y-109550000D01*
X151013603Y-109584648D01*
X150951473Y-109646778D01*
X150951467Y-109646786D01*
X150890282Y-109766871D01*
X150890281Y-109766872D01*
X150890281Y-109766874D01*
X150869196Y-109900000D01*
X150890281Y-110033126D01*
X150890281Y-110033127D01*
X150890282Y-110033128D01*
X150951467Y-110153213D01*
X150951472Y-110153220D01*
X151046779Y-110248527D01*
X151046786Y-110248532D01*
X151111263Y-110281384D01*
X151166874Y-110309719D01*
X151300000Y-110330804D01*
X151433126Y-110309719D01*
X151529017Y-110260860D01*
X151553213Y-110248532D01*
X151553215Y-110248530D01*
X151553220Y-110248528D01*
X151648528Y-110153220D01*
X151650919Y-110148529D01*
X151667278Y-110116420D01*
X151709719Y-110033126D01*
X151730804Y-109900000D01*
X151709719Y-109766874D01*
X151689322Y-109726842D01*
X151648532Y-109646786D01*
X151648527Y-109646779D01*
X151586396Y-109584648D01*
X151572044Y-109550000D01*
X151586396Y-109515352D01*
X151611467Y-109490281D01*
X151648528Y-109453220D01*
X151649418Y-109451475D01*
X151667278Y-109416420D01*
X151709719Y-109333126D01*
X151730804Y-109200000D01*
X151709719Y-109066874D01*
X151680922Y-109010356D01*
X151667873Y-108984745D01*
X151664930Y-108947358D01*
X151689285Y-108918842D01*
X151778220Y-108873528D01*
X151873528Y-108778220D01*
X151884272Y-108757135D01*
X151916649Y-108693590D01*
X151934719Y-108658126D01*
X151955804Y-108525000D01*
X151934719Y-108391874D01*
X151912633Y-108348527D01*
X151873532Y-108271786D01*
X151873527Y-108271779D01*
X151778220Y-108176472D01*
X151778215Y-108176468D01*
X151725854Y-108149789D01*
X151701498Y-108121272D01*
X151704441Y-108083884D01*
X151725854Y-108062471D01*
X151753220Y-108048528D01*
X151848528Y-107953220D01*
X151909719Y-107833126D01*
X151930804Y-107700000D01*
X151909719Y-107566874D01*
X151876395Y-107501472D01*
X151848532Y-107446786D01*
X151848526Y-107446778D01*
X151753220Y-107351472D01*
X151753213Y-107351467D01*
X151633128Y-107290282D01*
X151633127Y-107290281D01*
X151633126Y-107290281D01*
X151500000Y-107269196D01*
X151366874Y-107290281D01*
X151366872Y-107290281D01*
X151366871Y-107290282D01*
X151246786Y-107351467D01*
X151246779Y-107351472D01*
X151151474Y-107446778D01*
X151151467Y-107446786D01*
X151090282Y-107566871D01*
X151090281Y-107566872D01*
X151090281Y-107566874D01*
X151069196Y-107700000D01*
X151090281Y-107833126D01*
X151090281Y-107833127D01*
X151090282Y-107833128D01*
X151151467Y-107953213D01*
X151151472Y-107953220D01*
X151246780Y-108048528D01*
X151299145Y-108075209D01*
X151323501Y-108103725D01*
X151320559Y-108141113D01*
X151299146Y-108162527D01*
X151271782Y-108176470D01*
X151271779Y-108176472D01*
X151176472Y-108271779D01*
X151176467Y-108271786D01*
X151115282Y-108391871D01*
X151115281Y-108391872D01*
X151115281Y-108391874D01*
X151094196Y-108525000D01*
X151115281Y-108658126D01*
X151115281Y-108658127D01*
X151115282Y-108658128D01*
X151157126Y-108740253D01*
X151160069Y-108777640D01*
X151135713Y-108806157D01*
X151046784Y-108851468D01*
X151046779Y-108851472D01*
X150951472Y-108946779D01*
X150951467Y-108946786D01*
X150890282Y-109066871D01*
X150890281Y-109066872D01*
X150890281Y-109066874D01*
X150869196Y-109200000D01*
X140524966Y-109200000D01*
X140475232Y-109036046D01*
X140377685Y-108853550D01*
X140246410Y-108693590D01*
X140086450Y-108562315D01*
X139903954Y-108464768D01*
X139705934Y-108404700D01*
X139500000Y-108384417D01*
X139294065Y-108404700D01*
X139294064Y-108404700D01*
X139096043Y-108464769D01*
X138913548Y-108562316D01*
X138753590Y-108693590D01*
X138622316Y-108853548D01*
X138524769Y-109036043D01*
X138524768Y-109036045D01*
X138524768Y-109036046D01*
X138517011Y-109061616D01*
X138464700Y-109234064D01*
X138464700Y-109234065D01*
X138444417Y-109439999D01*
X136996026Y-109439999D01*
X136987338Y-109422948D01*
X136948532Y-109346786D01*
X136948527Y-109346779D01*
X136853220Y-109251472D01*
X136853213Y-109251467D01*
X136733128Y-109190282D01*
X136733127Y-109190281D01*
X136733126Y-109190281D01*
X136600000Y-109169196D01*
X136466874Y-109190281D01*
X136466872Y-109190281D01*
X136466871Y-109190282D01*
X136346786Y-109251467D01*
X136346778Y-109251473D01*
X136284648Y-109313603D01*
X136250000Y-109327955D01*
X136215352Y-109313603D01*
X136153221Y-109251473D01*
X136153213Y-109251467D01*
X136033128Y-109190282D01*
X136033127Y-109190281D01*
X136033126Y-109190281D01*
X135900000Y-109169196D01*
X135766874Y-109190281D01*
X135766872Y-109190281D01*
X135766871Y-109190282D01*
X135646786Y-109251467D01*
X135646778Y-109251473D01*
X135584648Y-109313603D01*
X135550000Y-109327955D01*
X135515352Y-109313603D01*
X135453221Y-109251473D01*
X135453213Y-109251467D01*
X135333128Y-109190282D01*
X135333127Y-109190281D01*
X135333126Y-109190281D01*
X135200000Y-109169196D01*
X135066874Y-109190281D01*
X135066872Y-109190281D01*
X135066871Y-109190282D01*
X134946786Y-109251467D01*
X134946779Y-109251472D01*
X134851472Y-109346779D01*
X134851467Y-109346786D01*
X134790282Y-109466871D01*
X134790281Y-109466872D01*
X134790281Y-109466874D01*
X134769196Y-109600000D01*
X127675645Y-109600000D01*
X127648532Y-109546786D01*
X127648527Y-109546779D01*
X127553220Y-109451472D01*
X127550096Y-109449202D01*
X127550641Y-109448451D01*
X127528868Y-109422948D01*
X127531818Y-109385561D01*
X127553229Y-109364155D01*
X127563576Y-109358884D01*
X127658884Y-109263576D01*
X127665052Y-109251472D01*
X127677634Y-109226776D01*
X127720075Y-109143482D01*
X127741160Y-109010356D01*
X127720075Y-108877230D01*
X127696419Y-108830803D01*
X127658888Y-108757142D01*
X127658883Y-108757135D01*
X127563576Y-108661828D01*
X127563569Y-108661823D01*
X127443484Y-108600638D01*
X127443483Y-108600637D01*
X127443482Y-108600637D01*
X127310356Y-108579552D01*
X127177230Y-108600637D01*
X127177228Y-108600637D01*
X127177227Y-108600638D01*
X127057142Y-108661823D01*
X127057135Y-108661828D01*
X126961828Y-108757135D01*
X126961823Y-108757142D01*
X126900638Y-108877227D01*
X126900637Y-108877228D01*
X126900637Y-108877230D01*
X126879552Y-109010356D01*
X126900637Y-109143482D01*
X126900637Y-109143483D01*
X126900638Y-109143484D01*
X126961823Y-109263569D01*
X126961828Y-109263576D01*
X127057136Y-109358884D01*
X127057138Y-109358885D01*
X127060258Y-109361152D01*
X127059710Y-109361905D01*
X127081482Y-109387390D01*
X127078546Y-109424778D01*
X127057132Y-109446197D01*
X127046781Y-109451471D01*
X127046776Y-109451475D01*
X126951472Y-109546779D01*
X126951467Y-109546786D01*
X126890282Y-109666871D01*
X126890281Y-109666872D01*
X126890281Y-109666874D01*
X126874443Y-109766871D01*
X126869196Y-109800000D01*
X126890281Y-109933126D01*
X126951548Y-110053371D01*
X126954490Y-110090758D01*
X126930134Y-110119275D01*
X126860550Y-110154729D01*
X126860545Y-110154733D01*
X126765238Y-110250040D01*
X126765233Y-110250047D01*
X126704048Y-110370132D01*
X126704047Y-110370133D01*
X126704047Y-110370135D01*
X126682962Y-110503261D01*
X126704047Y-110636387D01*
X126704047Y-110636388D01*
X126704048Y-110636389D01*
X126765233Y-110756474D01*
X126765238Y-110756481D01*
X126860546Y-110851789D01*
X126865793Y-110854462D01*
X126890151Y-110882978D01*
X126887211Y-110920366D01*
X126865797Y-110941781D01*
X126846785Y-110951468D01*
X126846776Y-110951475D01*
X126751474Y-111046778D01*
X126751467Y-111046786D01*
X126690282Y-111166871D01*
X126690281Y-111166872D01*
X126690281Y-111166874D01*
X126669196Y-111300000D01*
X124279284Y-111300000D01*
X124311051Y-111237654D01*
X124332136Y-111104528D01*
X124311051Y-110971402D01*
X124283266Y-110916871D01*
X124249864Y-110851314D01*
X124249859Y-110851307D01*
X124154552Y-110756000D01*
X124154545Y-110755995D01*
X124034460Y-110694810D01*
X124034459Y-110694809D01*
X124034458Y-110694809D01*
X123901332Y-110673724D01*
X123768206Y-110694809D01*
X123768204Y-110694809D01*
X123768203Y-110694810D01*
X123648118Y-110755995D01*
X123648111Y-110756000D01*
X123552804Y-110851307D01*
X123552799Y-110851314D01*
X123491614Y-110971399D01*
X123491613Y-110971400D01*
X123491613Y-110971402D01*
X123470528Y-111104528D01*
X122543314Y-111104528D01*
X122617220Y-111066871D01*
X122653213Y-111048532D01*
X122653215Y-111048530D01*
X122653220Y-111048528D01*
X122748528Y-110953220D01*
X122749418Y-110951475D01*
X122767278Y-110916420D01*
X122809719Y-110833126D01*
X122830804Y-110700000D01*
X122809719Y-110566874D01*
X122777307Y-110503261D01*
X122748532Y-110446786D01*
X122748527Y-110446779D01*
X122711394Y-110409646D01*
X122697042Y-110374998D01*
X122711394Y-110340350D01*
X122711395Y-110340349D01*
X122720941Y-110330804D01*
X122748528Y-110303217D01*
X122759653Y-110281384D01*
X122775619Y-110250047D01*
X122809719Y-110183123D01*
X122830804Y-110049997D01*
X122809719Y-109916871D01*
X122789322Y-109876839D01*
X122748532Y-109796783D01*
X122748527Y-109796776D01*
X122653220Y-109701469D01*
X122653213Y-109701464D01*
X122533128Y-109640279D01*
X122533127Y-109640278D01*
X122533126Y-109640278D01*
X122400000Y-109619193D01*
X122266874Y-109640278D01*
X122266872Y-109640278D01*
X122266871Y-109640279D01*
X122146786Y-109701464D01*
X122146779Y-109701469D01*
X122051472Y-109796776D01*
X122051467Y-109796783D01*
X121990282Y-109916868D01*
X121990281Y-109916869D01*
X121990281Y-109916871D01*
X121969196Y-110049997D01*
X119674968Y-110049997D01*
X118595349Y-108970378D01*
X123274500Y-108970378D01*
X123274500Y-109829621D01*
X123284881Y-109916072D01*
X123284883Y-109916077D01*
X123318558Y-110001472D01*
X123339139Y-110053660D01*
X123371838Y-110096780D01*
X123428500Y-110171500D01*
X123546342Y-110260862D01*
X123683923Y-110315117D01*
X123683926Y-110315117D01*
X123683928Y-110315118D01*
X123683927Y-110315118D01*
X123770379Y-110325500D01*
X123770382Y-110325500D01*
X124629621Y-110325500D01*
X124716072Y-110315118D01*
X124716073Y-110315117D01*
X124716077Y-110315117D01*
X124853658Y-110260862D01*
X124971500Y-110171500D01*
X125060862Y-110053658D01*
X125115117Y-109916077D01*
X125118682Y-109886396D01*
X125125500Y-109829621D01*
X125125500Y-109749500D01*
X125139852Y-109714852D01*
X125174500Y-109700500D01*
X125639564Y-109700500D01*
X125666230Y-109693354D01*
X125715989Y-109680021D01*
X125784511Y-109640460D01*
X125840460Y-109584511D01*
X126490460Y-108934511D01*
X126502934Y-108912905D01*
X126530020Y-108865991D01*
X126530020Y-108865990D01*
X126530021Y-108865989D01*
X126546053Y-108806157D01*
X126550500Y-108789563D01*
X126550500Y-108094767D01*
X126564852Y-108060119D01*
X126671758Y-107953213D01*
X126809583Y-107815387D01*
X126844230Y-107801036D01*
X126878878Y-107815388D01*
X126893230Y-107850036D01*
X126890834Y-107865171D01*
X126890282Y-107866869D01*
X126890281Y-107866873D01*
X126890281Y-107866874D01*
X126869196Y-108000000D01*
X126890281Y-108133126D01*
X126890281Y-108133127D01*
X126890282Y-108133128D01*
X126951467Y-108253213D01*
X126951472Y-108253220D01*
X127046779Y-108348527D01*
X127046786Y-108348532D01*
X127117216Y-108384417D01*
X127166874Y-108409719D01*
X127300000Y-108430804D01*
X127433126Y-108409719D01*
X127516420Y-108367278D01*
X127553213Y-108348532D01*
X127553215Y-108348530D01*
X127553220Y-108348528D01*
X127648528Y-108253220D01*
X127650920Y-108248527D01*
X127690166Y-108171500D01*
X127709719Y-108133126D01*
X127730804Y-108000000D01*
X128019196Y-108000000D01*
X128040281Y-108133126D01*
X128040281Y-108133127D01*
X128040282Y-108133128D01*
X128101467Y-108253213D01*
X128101472Y-108253220D01*
X128196779Y-108348527D01*
X128196786Y-108348532D01*
X128267216Y-108384417D01*
X128316874Y-108409719D01*
X128450000Y-108430804D01*
X128583126Y-108409719D01*
X128666420Y-108367278D01*
X128703213Y-108348532D01*
X128703215Y-108348530D01*
X128703220Y-108348528D01*
X128798528Y-108253220D01*
X128800920Y-108248527D01*
X128840166Y-108171500D01*
X128859719Y-108133126D01*
X128880804Y-108000000D01*
X128876844Y-107975000D01*
X131619196Y-107975000D01*
X131640281Y-108108126D01*
X131640281Y-108108127D01*
X131640282Y-108108128D01*
X131701467Y-108228213D01*
X131701472Y-108228220D01*
X131796779Y-108323527D01*
X131796786Y-108323532D01*
X131876842Y-108364322D01*
X131916874Y-108384719D01*
X132050000Y-108405804D01*
X132086645Y-108400000D01*
X135269196Y-108400000D01*
X135290281Y-108533126D01*
X135290281Y-108533127D01*
X135290282Y-108533128D01*
X135351467Y-108653213D01*
X135351472Y-108653220D01*
X135446779Y-108748527D01*
X135446786Y-108748532D01*
X135526842Y-108789322D01*
X135566874Y-108809719D01*
X135700000Y-108830804D01*
X135833126Y-108809719D01*
X135916420Y-108767278D01*
X135953213Y-108748532D01*
X135953215Y-108748530D01*
X135953220Y-108748528D01*
X136015352Y-108686396D01*
X136050000Y-108672044D01*
X136084648Y-108686396D01*
X136146779Y-108748527D01*
X136146786Y-108748532D01*
X136226842Y-108789322D01*
X136266874Y-108809719D01*
X136400000Y-108830804D01*
X136533126Y-108809719D01*
X136616420Y-108767278D01*
X136653213Y-108748532D01*
X136653215Y-108748530D01*
X136653220Y-108748528D01*
X136748528Y-108653220D01*
X136756340Y-108637887D01*
X136784858Y-108613531D01*
X136822245Y-108616473D01*
X136843660Y-108637888D01*
X136851470Y-108653217D01*
X136851472Y-108653220D01*
X136946779Y-108748527D01*
X136946786Y-108748532D01*
X137026842Y-108789322D01*
X137066874Y-108809719D01*
X137200000Y-108830804D01*
X137333126Y-108809719D01*
X137416420Y-108767278D01*
X137453213Y-108748532D01*
X137453215Y-108748530D01*
X137453220Y-108748528D01*
X137548528Y-108653220D01*
X137561124Y-108628500D01*
X137568751Y-108613531D01*
X137609719Y-108533126D01*
X137630804Y-108400000D01*
X137609719Y-108266874D01*
X137589322Y-108226842D01*
X137548532Y-108146786D01*
X137548527Y-108146779D01*
X137453220Y-108051472D01*
X137453213Y-108051467D01*
X137333128Y-107990282D01*
X137333127Y-107990281D01*
X137333126Y-107990281D01*
X137200000Y-107969196D01*
X137066874Y-107990281D01*
X137066872Y-107990281D01*
X137066871Y-107990282D01*
X136946786Y-108051467D01*
X136946779Y-108051472D01*
X136851472Y-108146779D01*
X136851468Y-108146784D01*
X136843659Y-108162112D01*
X136815141Y-108186468D01*
X136777754Y-108183525D01*
X136756341Y-108162112D01*
X136748531Y-108146784D01*
X136748527Y-108146779D01*
X136653220Y-108051472D01*
X136653213Y-108051467D01*
X136533128Y-107990282D01*
X136533127Y-107990281D01*
X136533126Y-107990281D01*
X136400000Y-107969196D01*
X136266874Y-107990281D01*
X136266872Y-107990281D01*
X136266871Y-107990282D01*
X136146786Y-108051467D01*
X136146778Y-108051473D01*
X136084648Y-108113603D01*
X136050000Y-108127955D01*
X136015352Y-108113603D01*
X135953221Y-108051473D01*
X135953213Y-108051467D01*
X135833128Y-107990282D01*
X135833127Y-107990281D01*
X135833126Y-107990281D01*
X135700000Y-107969196D01*
X135566874Y-107990281D01*
X135566872Y-107990281D01*
X135566871Y-107990282D01*
X135446786Y-108051467D01*
X135446779Y-108051472D01*
X135351472Y-108146779D01*
X135351467Y-108146786D01*
X135290282Y-108266871D01*
X135290281Y-108266872D01*
X135290281Y-108266874D01*
X135269196Y-108400000D01*
X132086645Y-108400000D01*
X132183126Y-108384719D01*
X132266420Y-108342278D01*
X132303213Y-108323532D01*
X132303215Y-108323530D01*
X132303220Y-108323528D01*
X132398528Y-108228220D01*
X132459719Y-108108126D01*
X132480804Y-107975000D01*
X132459719Y-107841874D01*
X132420799Y-107765489D01*
X132398532Y-107721786D01*
X132398527Y-107721779D01*
X132303220Y-107626472D01*
X132303213Y-107626467D01*
X132183128Y-107565282D01*
X132183127Y-107565281D01*
X132183126Y-107565281D01*
X132050000Y-107544196D01*
X131916874Y-107565281D01*
X131916872Y-107565281D01*
X131916871Y-107565282D01*
X131796786Y-107626467D01*
X131796779Y-107626472D01*
X131701472Y-107721779D01*
X131701467Y-107721786D01*
X131640282Y-107841871D01*
X131640281Y-107841872D01*
X131640281Y-107841874D01*
X131619196Y-107975000D01*
X128876844Y-107975000D01*
X128859719Y-107866874D01*
X128826173Y-107801036D01*
X128798532Y-107746786D01*
X128798527Y-107746779D01*
X128703220Y-107651472D01*
X128703213Y-107651467D01*
X128583128Y-107590282D01*
X128583127Y-107590281D01*
X128583126Y-107590281D01*
X128450000Y-107569196D01*
X128316874Y-107590281D01*
X128316872Y-107590281D01*
X128316871Y-107590282D01*
X128196786Y-107651467D01*
X128196779Y-107651472D01*
X128101472Y-107746779D01*
X128101467Y-107746786D01*
X128040282Y-107866871D01*
X128040281Y-107866872D01*
X128040281Y-107866874D01*
X128019196Y-108000000D01*
X127730804Y-108000000D01*
X127709719Y-107866874D01*
X127676173Y-107801036D01*
X127648532Y-107746786D01*
X127648527Y-107746779D01*
X127553220Y-107651472D01*
X127553213Y-107651467D01*
X127433128Y-107590282D01*
X127433127Y-107590281D01*
X127433126Y-107590281D01*
X127300000Y-107569196D01*
X127166874Y-107590281D01*
X127166873Y-107590281D01*
X127166869Y-107590282D01*
X127165171Y-107590834D01*
X127163979Y-107590740D01*
X127163065Y-107590885D01*
X127163030Y-107590665D01*
X127127784Y-107587886D01*
X127103432Y-107559365D01*
X127106380Y-107521978D01*
X127115385Y-107509585D01*
X127610119Y-107014852D01*
X127644767Y-107000500D01*
X132495092Y-107000500D01*
X132529740Y-107014852D01*
X132544092Y-107049500D01*
X132538751Y-107071745D01*
X132490282Y-107166871D01*
X132490281Y-107166872D01*
X132490281Y-107166874D01*
X132469196Y-107300000D01*
X132490281Y-107433126D01*
X132490281Y-107433127D01*
X132490282Y-107433128D01*
X132551467Y-107553213D01*
X132551472Y-107553220D01*
X132646779Y-107648527D01*
X132646786Y-107648532D01*
X132708586Y-107680020D01*
X132766874Y-107709719D01*
X132900000Y-107730804D01*
X133033126Y-107709719D01*
X133116420Y-107667278D01*
X133153213Y-107648532D01*
X133153215Y-107648530D01*
X133153220Y-107648528D01*
X133248528Y-107553220D01*
X133250424Y-107549500D01*
X133275861Y-107499576D01*
X133309719Y-107433126D01*
X133330804Y-107300000D01*
X133309719Y-107166874D01*
X133275645Y-107100000D01*
X133261249Y-107071745D01*
X133258306Y-107034358D01*
X133282663Y-107005841D01*
X133304908Y-107000500D01*
X133928456Y-107000500D01*
X133963104Y-107014852D01*
X133996779Y-107048527D01*
X133996786Y-107048532D01*
X134068651Y-107085148D01*
X134116874Y-107109719D01*
X134250000Y-107130804D01*
X134383126Y-107109719D01*
X134467220Y-107066871D01*
X134503213Y-107048532D01*
X134503215Y-107048530D01*
X134503220Y-107048528D01*
X134598528Y-106953220D01*
X134601807Y-106946786D01*
X134617753Y-106915488D01*
X134659719Y-106833126D01*
X134680804Y-106700000D01*
X134670060Y-106632165D01*
X134678815Y-106595698D01*
X134710792Y-106576103D01*
X134718457Y-106575500D01*
X134778456Y-106575500D01*
X134813104Y-106589852D01*
X134846779Y-106623527D01*
X134846786Y-106623532D01*
X134926842Y-106664322D01*
X134966874Y-106684719D01*
X135100000Y-106705804D01*
X135233126Y-106684719D01*
X135336269Y-106632165D01*
X135353213Y-106623532D01*
X135353215Y-106623530D01*
X135353220Y-106623528D01*
X135448528Y-106528220D01*
X135452510Y-106520406D01*
X135476395Y-106473527D01*
X135509719Y-106408126D01*
X135530804Y-106275000D01*
X135509719Y-106141874D01*
X135487520Y-106098306D01*
X135448532Y-106021786D01*
X135448527Y-106021779D01*
X135426748Y-106000000D01*
X136669196Y-106000000D01*
X136690281Y-106133126D01*
X136690281Y-106133127D01*
X136690282Y-106133128D01*
X136751467Y-106253213D01*
X136751472Y-106253220D01*
X136846779Y-106348527D01*
X136846786Y-106348532D01*
X136918651Y-106385148D01*
X136966874Y-106409719D01*
X137100000Y-106430804D01*
X137233126Y-106409719D01*
X137319983Y-106365463D01*
X137353213Y-106348532D01*
X137353215Y-106348530D01*
X137353220Y-106348528D01*
X137448528Y-106253220D01*
X137501121Y-106150000D01*
X141069196Y-106150000D01*
X141090281Y-106283126D01*
X141090281Y-106283127D01*
X141090282Y-106283128D01*
X141151467Y-106403213D01*
X141151472Y-106403220D01*
X141246779Y-106498527D01*
X141246786Y-106498532D01*
X141317805Y-106534717D01*
X141366874Y-106559719D01*
X141473480Y-106576603D01*
X141505455Y-106596197D01*
X141514210Y-106632664D01*
X141494615Y-106664641D01*
X141473479Y-106673396D01*
X141412147Y-106683110D01*
X141366874Y-106690281D01*
X141366872Y-106690281D01*
X141366870Y-106690282D01*
X141246786Y-106751467D01*
X141246779Y-106751472D01*
X141151472Y-106846779D01*
X141151467Y-106846786D01*
X141090282Y-106966871D01*
X141090281Y-106966872D01*
X141090281Y-106966874D01*
X141069196Y-107100000D01*
X141090281Y-107233126D01*
X141090281Y-107233127D01*
X141090282Y-107233128D01*
X141151467Y-107353213D01*
X141151472Y-107353220D01*
X141246779Y-107448527D01*
X141246786Y-107448532D01*
X141326842Y-107489322D01*
X141366874Y-107509719D01*
X141500000Y-107530804D01*
X141633126Y-107509719D01*
X141718501Y-107466218D01*
X141753213Y-107448532D01*
X141753215Y-107448530D01*
X141753220Y-107448528D01*
X141786896Y-107414852D01*
X141821544Y-107400500D01*
X147839564Y-107400500D01*
X147866230Y-107393354D01*
X147915989Y-107380021D01*
X147984511Y-107340460D01*
X148040460Y-107284511D01*
X148124971Y-107200000D01*
X149769196Y-107200000D01*
X149790281Y-107333126D01*
X149790281Y-107333127D01*
X149790282Y-107333128D01*
X149851467Y-107453213D01*
X149851473Y-107453221D01*
X149913603Y-107515352D01*
X149927955Y-107550000D01*
X149913603Y-107584648D01*
X149851473Y-107646778D01*
X149851467Y-107646786D01*
X149790282Y-107766871D01*
X149790281Y-107766872D01*
X149790281Y-107766874D01*
X149769196Y-107900000D01*
X149790281Y-108033126D01*
X149790281Y-108033127D01*
X149790282Y-108033128D01*
X149851467Y-108153213D01*
X149851472Y-108153220D01*
X149946779Y-108248527D01*
X149946786Y-108248532D01*
X150010123Y-108280803D01*
X150066874Y-108309719D01*
X150200000Y-108330804D01*
X150333126Y-108309719D01*
X150429017Y-108260860D01*
X150453213Y-108248532D01*
X150453215Y-108248530D01*
X150453220Y-108248528D01*
X150548528Y-108153220D01*
X150550277Y-108149789D01*
X150570693Y-108109719D01*
X150609719Y-108033126D01*
X150630804Y-107900000D01*
X150609719Y-107766874D01*
X150589322Y-107726842D01*
X150548532Y-107646786D01*
X150548526Y-107646778D01*
X150486396Y-107584648D01*
X150472044Y-107550000D01*
X150486396Y-107515352D01*
X150502172Y-107499576D01*
X150548528Y-107453220D01*
X150550920Y-107448527D01*
X150575390Y-107400500D01*
X150609719Y-107333126D01*
X150630804Y-107200000D01*
X150609719Y-107066874D01*
X150589322Y-107026842D01*
X150548532Y-106946786D01*
X150548527Y-106946779D01*
X150453220Y-106851472D01*
X150453213Y-106851467D01*
X150333128Y-106790282D01*
X150333127Y-106790281D01*
X150333126Y-106790281D01*
X150200000Y-106769196D01*
X150066874Y-106790281D01*
X150066872Y-106790281D01*
X150066871Y-106790282D01*
X149946786Y-106851467D01*
X149946779Y-106851472D01*
X149851472Y-106946779D01*
X149851467Y-106946786D01*
X149790282Y-107066871D01*
X149790281Y-107066872D01*
X149790281Y-107066874D01*
X149769196Y-107200000D01*
X148124971Y-107200000D01*
X148826985Y-106497984D01*
X148861632Y-106483633D01*
X148896280Y-106497985D01*
X148910028Y-106524965D01*
X148914913Y-106555804D01*
X148915282Y-106558130D01*
X148915282Y-106558131D01*
X148976467Y-106678213D01*
X148976472Y-106678220D01*
X149071779Y-106773527D01*
X149071786Y-106773532D01*
X149151842Y-106814322D01*
X149191874Y-106834719D01*
X149325000Y-106855804D01*
X149458126Y-106834719D01*
X149541420Y-106792278D01*
X149578213Y-106773532D01*
X149578215Y-106773530D01*
X149578220Y-106773528D01*
X149673528Y-106678220D01*
X149734719Y-106558126D01*
X149753400Y-106440175D01*
X149772996Y-106408199D01*
X149809462Y-106399444D01*
X149836445Y-106413193D01*
X149896779Y-106473527D01*
X149896786Y-106473532D01*
X149964480Y-106508023D01*
X150016874Y-106534719D01*
X150150000Y-106555804D01*
X150283126Y-106534719D01*
X150383388Y-106483633D01*
X150403213Y-106473532D01*
X150403215Y-106473530D01*
X150403220Y-106473528D01*
X150498528Y-106378220D01*
X150559719Y-106258126D01*
X150572093Y-106180000D01*
X154994196Y-106180000D01*
X155015281Y-106313126D01*
X155015281Y-106313127D01*
X155015282Y-106313128D01*
X155076467Y-106433213D01*
X155076472Y-106433220D01*
X155171779Y-106528527D01*
X155171786Y-106528532D01*
X155251842Y-106569322D01*
X155291874Y-106589719D01*
X155425000Y-106610804D01*
X155558126Y-106589719D01*
X155657397Y-106539138D01*
X155678213Y-106528532D01*
X155678215Y-106528530D01*
X155678220Y-106528528D01*
X155773528Y-106433220D01*
X155775177Y-106429985D01*
X155815153Y-106351526D01*
X155834719Y-106313126D01*
X155855804Y-106180000D01*
X155834719Y-106046874D01*
X155814322Y-106006842D01*
X155773532Y-105926786D01*
X155773527Y-105926779D01*
X155678220Y-105831472D01*
X155678213Y-105831467D01*
X155558128Y-105770282D01*
X155558127Y-105770281D01*
X155558126Y-105770281D01*
X155425000Y-105749196D01*
X155291874Y-105770281D01*
X155291872Y-105770281D01*
X155291871Y-105770282D01*
X155171786Y-105831467D01*
X155171779Y-105831472D01*
X155076472Y-105926779D01*
X155076467Y-105926786D01*
X155015282Y-106046871D01*
X155015281Y-106046872D01*
X155015281Y-106046874D01*
X154994196Y-106180000D01*
X150572093Y-106180000D01*
X150580804Y-106125000D01*
X150559719Y-105991874D01*
X150549462Y-105971745D01*
X150546520Y-105934358D01*
X150570876Y-105905841D01*
X150593122Y-105900500D01*
X150739564Y-105900500D01*
X150766230Y-105893354D01*
X150815989Y-105880021D01*
X150884511Y-105840460D01*
X150940460Y-105784511D01*
X151899970Y-104825000D01*
X154294196Y-104825000D01*
X154315281Y-104958126D01*
X154315281Y-104958127D01*
X154315282Y-104958128D01*
X154376467Y-105078213D01*
X154376472Y-105078220D01*
X154471779Y-105173527D01*
X154471786Y-105173532D01*
X154523734Y-105200000D01*
X154591874Y-105234719D01*
X154725000Y-105255804D01*
X154858126Y-105234719D01*
X154941420Y-105192278D01*
X154978213Y-105173532D01*
X154978215Y-105173530D01*
X154978220Y-105173528D01*
X155073528Y-105078220D01*
X155089548Y-105046780D01*
X155113383Y-105000000D01*
X155134719Y-104958126D01*
X155155804Y-104825000D01*
X155134719Y-104691874D01*
X155103953Y-104631492D01*
X155073532Y-104571786D01*
X155073527Y-104571779D01*
X154978220Y-104476472D01*
X154978213Y-104476467D01*
X154858128Y-104415282D01*
X154858127Y-104415281D01*
X154858126Y-104415281D01*
X154725000Y-104394196D01*
X154591874Y-104415281D01*
X154591872Y-104415281D01*
X154591871Y-104415282D01*
X154471786Y-104476467D01*
X154471779Y-104476472D01*
X154376472Y-104571779D01*
X154376467Y-104571786D01*
X154315282Y-104691871D01*
X154315281Y-104691872D01*
X154315281Y-104691874D01*
X154294196Y-104825000D01*
X151899970Y-104825000D01*
X152390231Y-104334738D01*
X152424878Y-104320387D01*
X152430721Y-104320737D01*
X152470380Y-104325500D01*
X152470382Y-104325500D01*
X153329621Y-104325500D01*
X153416072Y-104315118D01*
X153416073Y-104315117D01*
X153416077Y-104315117D01*
X153553658Y-104260862D01*
X153671500Y-104171500D01*
X153760862Y-104053658D01*
X153815117Y-103916077D01*
X153816401Y-103905391D01*
X153825500Y-103829621D01*
X153825500Y-102970378D01*
X153815118Y-102883927D01*
X153815117Y-102883925D01*
X153815117Y-102883923D01*
X153760862Y-102746342D01*
X153671500Y-102628500D01*
X153569923Y-102551472D01*
X153553660Y-102539139D01*
X153553658Y-102539138D01*
X153416077Y-102484883D01*
X153416075Y-102484882D01*
X153416071Y-102484881D01*
X153416072Y-102484881D01*
X153329621Y-102474500D01*
X153329618Y-102474500D01*
X152470382Y-102474500D01*
X152470379Y-102474500D01*
X152383927Y-102484881D01*
X152246339Y-102539139D01*
X152128500Y-102628500D01*
X152039139Y-102746339D01*
X151984881Y-102883927D01*
X151974500Y-102970378D01*
X151974500Y-102970382D01*
X151974500Y-103829618D01*
X151976888Y-103849506D01*
X151979262Y-103869279D01*
X151969142Y-103905391D01*
X151965259Y-103909768D01*
X151888199Y-103986828D01*
X151853551Y-104001180D01*
X151818903Y-103986828D01*
X151804551Y-103952180D01*
X151807966Y-103934208D01*
X151815117Y-103916077D01*
X151816401Y-103905391D01*
X151825500Y-103829621D01*
X151825500Y-102970378D01*
X151815118Y-102883927D01*
X151815117Y-102883925D01*
X151815117Y-102883923D01*
X151760862Y-102746342D01*
X151671500Y-102628500D01*
X151569923Y-102551472D01*
X151553660Y-102539139D01*
X151553658Y-102539138D01*
X151416077Y-102484883D01*
X151416075Y-102484882D01*
X151416071Y-102484881D01*
X151416072Y-102484881D01*
X151329621Y-102474500D01*
X151329618Y-102474500D01*
X150470382Y-102474500D01*
X150470379Y-102474500D01*
X150383927Y-102484881D01*
X150246339Y-102539139D01*
X150128500Y-102628500D01*
X150039139Y-102746339D01*
X149984881Y-102883927D01*
X149974500Y-102970378D01*
X149974500Y-103330232D01*
X149960148Y-103364880D01*
X149440399Y-103884628D01*
X149405751Y-103898980D01*
X149371103Y-103884628D01*
X149362125Y-103869976D01*
X149361470Y-103870310D01*
X149298532Y-103746786D01*
X149298527Y-103746779D01*
X149203220Y-103651472D01*
X149203213Y-103651467D01*
X149083128Y-103590282D01*
X149083127Y-103590281D01*
X149083126Y-103590281D01*
X148950000Y-103569196D01*
X148816874Y-103590281D01*
X148816872Y-103590281D01*
X148816871Y-103590282D01*
X148696786Y-103651467D01*
X148696779Y-103651472D01*
X148601472Y-103746779D01*
X148601467Y-103746786D01*
X148540282Y-103866871D01*
X148540281Y-103866872D01*
X148540281Y-103866874D01*
X148519196Y-104000000D01*
X148540281Y-104133126D01*
X148540281Y-104133127D01*
X148540282Y-104133128D01*
X148601467Y-104253213D01*
X148601472Y-104253220D01*
X148696779Y-104348527D01*
X148696786Y-104348532D01*
X148820310Y-104411470D01*
X148819560Y-104412941D01*
X148843637Y-104433501D01*
X148846583Y-104470888D01*
X148834628Y-104490399D01*
X147039881Y-106285148D01*
X147005233Y-106299500D01*
X142094767Y-106299500D01*
X142060119Y-106285148D01*
X141943159Y-106168188D01*
X141929411Y-106141207D01*
X141909719Y-106016874D01*
X141883378Y-105965177D01*
X141848532Y-105896786D01*
X141848527Y-105896779D01*
X141753220Y-105801472D01*
X141753213Y-105801467D01*
X141633128Y-105740282D01*
X141633127Y-105740281D01*
X141633126Y-105740281D01*
X141500000Y-105719196D01*
X141366874Y-105740281D01*
X141366872Y-105740281D01*
X141366871Y-105740282D01*
X141246786Y-105801467D01*
X141246779Y-105801472D01*
X141151472Y-105896779D01*
X141151467Y-105896786D01*
X141090282Y-106016871D01*
X141090281Y-106016872D01*
X141090281Y-106016874D01*
X141069196Y-106150000D01*
X137501121Y-106150000D01*
X137509719Y-106133126D01*
X137530804Y-106000000D01*
X137509719Y-105866874D01*
X137476395Y-105801472D01*
X137448532Y-105746786D01*
X137448527Y-105746779D01*
X137353220Y-105651472D01*
X137353213Y-105651467D01*
X137233128Y-105590282D01*
X137233127Y-105590281D01*
X137233126Y-105590281D01*
X137100000Y-105569196D01*
X136966874Y-105590281D01*
X136966872Y-105590281D01*
X136966871Y-105590282D01*
X136846786Y-105651467D01*
X136846779Y-105651472D01*
X136751472Y-105746779D01*
X136751467Y-105746786D01*
X136690282Y-105866871D01*
X136690281Y-105866872D01*
X136690281Y-105866874D01*
X136669196Y-106000000D01*
X135426748Y-106000000D01*
X135398896Y-105972148D01*
X135384544Y-105937500D01*
X135398896Y-105902852D01*
X135421728Y-105880020D01*
X135448528Y-105853220D01*
X135450573Y-105849208D01*
X135474897Y-105801467D01*
X135509719Y-105733126D01*
X135530804Y-105600000D01*
X135509719Y-105466874D01*
X135480596Y-105409717D01*
X135448532Y-105346786D01*
X135448526Y-105346778D01*
X135353220Y-105251472D01*
X135353213Y-105251467D01*
X135233128Y-105190282D01*
X135233127Y-105190281D01*
X135233126Y-105190281D01*
X135100000Y-105169196D01*
X134966874Y-105190281D01*
X134966872Y-105190281D01*
X134966871Y-105190282D01*
X134846786Y-105251467D01*
X134846779Y-105251472D01*
X134751474Y-105346778D01*
X134751467Y-105346786D01*
X134690282Y-105466871D01*
X134690281Y-105466872D01*
X134690281Y-105466874D01*
X134677348Y-105548532D01*
X134669196Y-105600000D01*
X134690281Y-105733126D01*
X134716471Y-105784527D01*
X134719413Y-105821914D01*
X134695056Y-105850432D01*
X134657669Y-105853374D01*
X134648312Y-105849208D01*
X134640992Y-105844982D01*
X134564567Y-105824503D01*
X134564565Y-105824503D01*
X132069770Y-105824503D01*
X132035122Y-105810151D01*
X131114852Y-104889881D01*
X131100500Y-104855233D01*
X131100500Y-104374500D01*
X131114852Y-104339852D01*
X131149500Y-104325500D01*
X131229621Y-104325500D01*
X131316072Y-104315118D01*
X131316073Y-104315117D01*
X131316077Y-104315117D01*
X131453658Y-104260862D01*
X131571500Y-104171500D01*
X131660862Y-104053658D01*
X131715117Y-103916077D01*
X131716401Y-103905391D01*
X131725500Y-103829621D01*
X131725500Y-102970378D01*
X131874500Y-102970378D01*
X131874500Y-103829621D01*
X131884881Y-103916072D01*
X131884883Y-103916077D01*
X131905830Y-103969196D01*
X131939139Y-104053660D01*
X131962692Y-104084719D01*
X132028500Y-104171500D01*
X132146342Y-104260862D01*
X132283923Y-104315117D01*
X132283926Y-104315117D01*
X132283928Y-104315118D01*
X132283927Y-104315118D01*
X132370379Y-104325500D01*
X132370382Y-104325500D01*
X133229621Y-104325500D01*
X133316072Y-104315118D01*
X133316073Y-104315117D01*
X133316077Y-104315117D01*
X133453658Y-104260862D01*
X133571500Y-104171500D01*
X133660862Y-104053658D01*
X133715117Y-103916077D01*
X133716401Y-103905391D01*
X133725500Y-103829621D01*
X133725500Y-103649500D01*
X133739852Y-103614852D01*
X133774500Y-103600500D01*
X134795092Y-103600500D01*
X134829740Y-103614852D01*
X134844092Y-103649500D01*
X134838751Y-103671746D01*
X134790929Y-103765601D01*
X134762412Y-103789957D01*
X134737081Y-103789959D01*
X134736935Y-103790885D01*
X134733127Y-103790282D01*
X134733126Y-103790281D01*
X134600000Y-103769196D01*
X134466874Y-103790281D01*
X134466872Y-103790281D01*
X134466871Y-103790282D01*
X134346786Y-103851467D01*
X134346779Y-103851472D01*
X134251474Y-103946778D01*
X134251467Y-103946786D01*
X134190282Y-104066871D01*
X134190281Y-104066872D01*
X134190281Y-104066874D01*
X134169196Y-104200000D01*
X134190281Y-104333126D01*
X134190281Y-104333127D01*
X134190282Y-104333128D01*
X134251467Y-104453213D01*
X134251472Y-104453220D01*
X134346779Y-104548527D01*
X134346786Y-104548532D01*
X134392426Y-104571786D01*
X134466874Y-104609719D01*
X134600000Y-104630804D01*
X134733126Y-104609719D01*
X134816420Y-104567278D01*
X134853213Y-104548532D01*
X134853215Y-104548530D01*
X134853220Y-104548528D01*
X134948528Y-104453220D01*
X135009071Y-104334396D01*
X135037587Y-104310042D01*
X135062918Y-104310042D01*
X135063065Y-104309115D01*
X135066871Y-104309717D01*
X135066874Y-104309719D01*
X135200000Y-104330804D01*
X135333126Y-104309719D01*
X135429017Y-104260860D01*
X135453213Y-104248532D01*
X135453215Y-104248530D01*
X135453220Y-104248528D01*
X135548528Y-104153220D01*
X135551807Y-104146786D01*
X135583432Y-104084717D01*
X135609719Y-104033126D01*
X135630804Y-103900000D01*
X135609719Y-103766874D01*
X135578504Y-103705611D01*
X135561249Y-103671745D01*
X135558306Y-103634358D01*
X135582663Y-103605841D01*
X135604908Y-103600500D01*
X136880233Y-103600500D01*
X136914881Y-103614852D01*
X136956839Y-103656810D01*
X136970588Y-103683793D01*
X136975728Y-103716249D01*
X136966972Y-103752716D01*
X136934996Y-103772311D01*
X136919668Y-103772311D01*
X136900000Y-103769196D01*
X136766874Y-103790281D01*
X136766872Y-103790281D01*
X136766871Y-103790282D01*
X136646786Y-103851467D01*
X136646779Y-103851472D01*
X136551474Y-103946778D01*
X136551467Y-103946786D01*
X136490282Y-104066871D01*
X136490281Y-104066872D01*
X136490281Y-104066874D01*
X136469196Y-104200000D01*
X136490281Y-104333126D01*
X136490281Y-104333127D01*
X136490282Y-104333128D01*
X136551467Y-104453213D01*
X136551472Y-104453220D01*
X136646779Y-104548527D01*
X136646786Y-104548532D01*
X136692426Y-104571786D01*
X136766874Y-104609719D01*
X136900000Y-104630804D01*
X136950928Y-104622737D01*
X136987393Y-104631492D01*
X137006989Y-104663468D01*
X137002252Y-104693378D01*
X136990281Y-104716872D01*
X136969196Y-104850000D01*
X136990281Y-104983126D01*
X136990281Y-104983127D01*
X136990282Y-104983128D01*
X137051467Y-105103213D01*
X137051472Y-105103220D01*
X137146779Y-105198527D01*
X137146786Y-105198532D01*
X137217805Y-105234717D01*
X137266874Y-105259719D01*
X137400000Y-105280804D01*
X137533126Y-105259719D01*
X137616420Y-105217278D01*
X137653213Y-105198532D01*
X137653215Y-105198530D01*
X137653220Y-105198528D01*
X137748528Y-105103220D01*
X137750424Y-105099500D01*
X137775390Y-105050500D01*
X137801121Y-105000000D01*
X139969196Y-105000000D01*
X139990281Y-105133126D01*
X139990281Y-105133127D01*
X139990282Y-105133128D01*
X140051467Y-105253213D01*
X140051472Y-105253220D01*
X140146779Y-105348527D01*
X140146786Y-105348532D01*
X140226842Y-105389322D01*
X140266874Y-105409719D01*
X140400000Y-105430804D01*
X140533126Y-105409719D01*
X140631608Y-105359540D01*
X140653213Y-105348532D01*
X140653215Y-105348530D01*
X140653220Y-105348528D01*
X140748528Y-105253220D01*
X140749422Y-105251467D01*
X140776395Y-105198527D01*
X140809719Y-105133126D01*
X140830804Y-105000000D01*
X142869196Y-105000000D01*
X142890281Y-105133126D01*
X142890281Y-105133127D01*
X142890282Y-105133128D01*
X142951467Y-105253213D01*
X142951472Y-105253220D01*
X143046779Y-105348527D01*
X143046786Y-105348532D01*
X143126842Y-105389322D01*
X143166874Y-105409719D01*
X143300000Y-105430804D01*
X143433126Y-105409719D01*
X143531608Y-105359540D01*
X143553213Y-105348532D01*
X143553215Y-105348530D01*
X143553220Y-105348528D01*
X143648528Y-105253220D01*
X143649422Y-105251467D01*
X143675645Y-105200000D01*
X144569196Y-105200000D01*
X144590281Y-105333126D01*
X144590281Y-105333127D01*
X144590282Y-105333128D01*
X144651467Y-105453213D01*
X144651472Y-105453220D01*
X144746779Y-105548527D01*
X144746786Y-105548532D01*
X144826842Y-105589322D01*
X144866874Y-105609719D01*
X145000000Y-105630804D01*
X145133126Y-105609719D01*
X145216420Y-105567278D01*
X145253213Y-105548532D01*
X145253215Y-105548530D01*
X145253220Y-105548528D01*
X145348528Y-105453220D01*
X145358766Y-105433128D01*
X145370694Y-105409717D01*
X145409719Y-105333126D01*
X145414966Y-105300000D01*
X145769196Y-105300000D01*
X145790281Y-105433126D01*
X145790281Y-105433127D01*
X145790282Y-105433128D01*
X145851467Y-105553213D01*
X145851472Y-105553220D01*
X145946779Y-105648527D01*
X145946786Y-105648532D01*
X146025400Y-105688587D01*
X146066874Y-105709719D01*
X146200000Y-105730804D01*
X146333126Y-105709719D01*
X146416420Y-105667278D01*
X146453213Y-105648532D01*
X146453215Y-105648530D01*
X146453220Y-105648528D01*
X146548528Y-105553220D01*
X146550920Y-105548527D01*
X146567278Y-105516420D01*
X146609719Y-105433126D01*
X146630804Y-105300000D01*
X146609719Y-105166874D01*
X146577282Y-105103213D01*
X146548532Y-105046786D01*
X146548527Y-105046779D01*
X146453220Y-104951472D01*
X146453213Y-104951467D01*
X146333128Y-104890282D01*
X146333127Y-104890281D01*
X146333126Y-104890281D01*
X146200000Y-104869196D01*
X146066874Y-104890281D01*
X146066872Y-104890281D01*
X146066871Y-104890282D01*
X145946786Y-104951467D01*
X145946779Y-104951472D01*
X145851472Y-105046779D01*
X145851467Y-105046786D01*
X145790282Y-105166871D01*
X145790281Y-105166872D01*
X145790281Y-105166874D01*
X145769196Y-105300000D01*
X145414966Y-105300000D01*
X145430804Y-105200000D01*
X145409719Y-105066874D01*
X145375645Y-105000000D01*
X145348532Y-104946786D01*
X145348527Y-104946779D01*
X145253220Y-104851472D01*
X145253213Y-104851467D01*
X145133128Y-104790282D01*
X145133127Y-104790281D01*
X145133126Y-104790281D01*
X145000000Y-104769196D01*
X144866874Y-104790281D01*
X144866872Y-104790281D01*
X144866871Y-104790282D01*
X144746786Y-104851467D01*
X144746779Y-104851472D01*
X144651472Y-104946779D01*
X144651467Y-104946786D01*
X144590282Y-105066871D01*
X144590281Y-105066872D01*
X144590281Y-105066874D01*
X144569196Y-105200000D01*
X143675645Y-105200000D01*
X143676395Y-105198527D01*
X143709719Y-105133126D01*
X143730804Y-105000000D01*
X143709719Y-104866874D01*
X143680596Y-104809717D01*
X143648532Y-104746786D01*
X143648526Y-104746778D01*
X143553220Y-104651472D01*
X143553213Y-104651467D01*
X143433128Y-104590282D01*
X143433127Y-104590281D01*
X143433126Y-104590281D01*
X143300000Y-104569196D01*
X143166874Y-104590281D01*
X143166872Y-104590281D01*
X143166871Y-104590282D01*
X143046786Y-104651467D01*
X143046779Y-104651472D01*
X142951474Y-104746778D01*
X142951467Y-104746786D01*
X142890282Y-104866871D01*
X142890281Y-104866872D01*
X142890281Y-104866874D01*
X142869196Y-105000000D01*
X140830804Y-105000000D01*
X140809719Y-104866874D01*
X140780596Y-104809717D01*
X140748532Y-104746786D01*
X140748526Y-104746778D01*
X140653220Y-104651472D01*
X140653213Y-104651467D01*
X140533128Y-104590282D01*
X140533127Y-104590281D01*
X140533126Y-104590281D01*
X140400000Y-104569196D01*
X140266874Y-104590281D01*
X140266872Y-104590281D01*
X140266871Y-104590282D01*
X140146786Y-104651467D01*
X140146779Y-104651472D01*
X140051474Y-104746778D01*
X140051467Y-104746786D01*
X139990282Y-104866871D01*
X139990281Y-104866872D01*
X139990281Y-104866874D01*
X139969196Y-105000000D01*
X137801121Y-105000000D01*
X137809719Y-104983126D01*
X137830804Y-104850000D01*
X137809719Y-104716874D01*
X137776395Y-104651472D01*
X137748532Y-104596786D01*
X137748527Y-104596779D01*
X137653220Y-104501472D01*
X137653213Y-104501467D01*
X137533128Y-104440282D01*
X137533127Y-104440281D01*
X137533126Y-104440281D01*
X137400000Y-104419196D01*
X137399999Y-104419196D01*
X137349072Y-104427262D01*
X137312605Y-104418507D01*
X137293010Y-104386530D01*
X137297747Y-104356621D01*
X137309719Y-104333126D01*
X137330804Y-104200000D01*
X137324270Y-104158749D01*
X137333025Y-104122284D01*
X137365001Y-104102688D01*
X137380334Y-104102689D01*
X137399997Y-104105804D01*
X137399998Y-104105804D01*
X137399998Y-104105803D01*
X137400000Y-104105804D01*
X137533126Y-104084719D01*
X137634383Y-104033126D01*
X137653213Y-104023532D01*
X137653215Y-104023530D01*
X137653220Y-104023528D01*
X137748528Y-103928220D01*
X137809719Y-103808126D01*
X137826844Y-103700000D01*
X143769196Y-103700000D01*
X143790281Y-103833126D01*
X143790281Y-103833127D01*
X143790282Y-103833128D01*
X143851467Y-103953213D01*
X143851472Y-103953220D01*
X143946779Y-104048527D01*
X143946786Y-104048532D01*
X144017805Y-104084717D01*
X144066874Y-104109719D01*
X144200000Y-104130804D01*
X144333126Y-104109719D01*
X144417220Y-104066871D01*
X144453213Y-104048532D01*
X144453215Y-104048530D01*
X144453220Y-104048528D01*
X144548528Y-103953220D01*
X144550920Y-103948527D01*
X144575943Y-103899415D01*
X144609719Y-103833126D01*
X144630804Y-103700000D01*
X144609719Y-103566874D01*
X144561810Y-103472847D01*
X144548532Y-103446786D01*
X144548527Y-103446779D01*
X144453220Y-103351472D01*
X144453213Y-103351467D01*
X144333128Y-103290282D01*
X144333127Y-103290281D01*
X144333126Y-103290281D01*
X144200000Y-103269196D01*
X144066874Y-103290281D01*
X144066872Y-103290281D01*
X144066871Y-103290282D01*
X143946786Y-103351467D01*
X143946779Y-103351472D01*
X143851472Y-103446779D01*
X143851467Y-103446786D01*
X143790282Y-103566871D01*
X143790281Y-103566872D01*
X143790281Y-103566874D01*
X143769196Y-103700000D01*
X137826844Y-103700000D01*
X137830804Y-103675000D01*
X137809719Y-103541874D01*
X137770034Y-103463987D01*
X137748532Y-103421786D01*
X137748527Y-103421779D01*
X137653220Y-103326472D01*
X137653213Y-103326467D01*
X137533129Y-103265282D01*
X137533127Y-103265281D01*
X137533126Y-103265281D01*
X137470083Y-103255296D01*
X137408792Y-103245588D01*
X137381810Y-103231839D01*
X137209513Y-103059542D01*
X137209507Y-103059537D01*
X137163763Y-103033128D01*
X137163760Y-103033126D01*
X137140989Y-103019979D01*
X137140988Y-103019978D01*
X137140987Y-103019978D01*
X137064564Y-102999500D01*
X137064562Y-102999500D01*
X134643122Y-102999500D01*
X134608474Y-102985148D01*
X134594122Y-102950500D01*
X134599463Y-102928254D01*
X134609719Y-102908126D01*
X134630804Y-102775000D01*
X134609719Y-102641874D01*
X134589322Y-102601842D01*
X134548532Y-102521786D01*
X134548527Y-102521779D01*
X134453220Y-102426472D01*
X134453213Y-102426467D01*
X134333128Y-102365282D01*
X134333127Y-102365281D01*
X134333126Y-102365281D01*
X134200000Y-102344196D01*
X134066874Y-102365281D01*
X134066872Y-102365281D01*
X134066871Y-102365282D01*
X133946786Y-102426467D01*
X133946779Y-102426472D01*
X133851472Y-102521779D01*
X133851467Y-102521786D01*
X133790282Y-102641870D01*
X133790281Y-102641872D01*
X133790281Y-102641874D01*
X133781729Y-102695871D01*
X133769486Y-102773167D01*
X133749890Y-102805143D01*
X133713423Y-102813898D01*
X133681447Y-102794302D01*
X133675507Y-102783481D01*
X133660862Y-102746342D01*
X133660861Y-102746341D01*
X133660861Y-102746340D01*
X133622589Y-102695871D01*
X133571500Y-102628500D01*
X133469923Y-102551472D01*
X133453660Y-102539139D01*
X133453658Y-102539138D01*
X133316077Y-102484883D01*
X133316075Y-102484882D01*
X133316071Y-102484881D01*
X133316072Y-102484881D01*
X133229621Y-102474500D01*
X133229618Y-102474500D01*
X132370382Y-102474500D01*
X132370379Y-102474500D01*
X132283927Y-102484881D01*
X132146339Y-102539139D01*
X132028500Y-102628500D01*
X131939139Y-102746339D01*
X131884881Y-102883927D01*
X131874500Y-102970378D01*
X131725500Y-102970378D01*
X131715118Y-102883927D01*
X131715117Y-102883925D01*
X131715117Y-102883923D01*
X131660862Y-102746342D01*
X131571500Y-102628500D01*
X131469923Y-102551472D01*
X131453660Y-102539139D01*
X131453658Y-102539138D01*
X131316077Y-102484883D01*
X131316075Y-102484882D01*
X131316071Y-102484881D01*
X131316072Y-102484881D01*
X131229621Y-102474500D01*
X131229618Y-102474500D01*
X130370382Y-102474500D01*
X130370379Y-102474500D01*
X130283927Y-102484881D01*
X130146339Y-102539139D01*
X130028500Y-102628500D01*
X129939139Y-102746339D01*
X129884881Y-102883927D01*
X129874500Y-102970378D01*
X129874500Y-103829621D01*
X129884881Y-103916072D01*
X129884883Y-103916077D01*
X129905830Y-103969196D01*
X129939139Y-104053660D01*
X129962692Y-104084719D01*
X130028500Y-104171500D01*
X130146342Y-104260862D01*
X130283923Y-104315117D01*
X130283926Y-104315117D01*
X130283928Y-104315118D01*
X130283927Y-104315118D01*
X130370379Y-104325500D01*
X130370382Y-104325500D01*
X130450500Y-104325500D01*
X130485148Y-104339852D01*
X130499500Y-104374500D01*
X130499500Y-105039563D01*
X130519979Y-105115989D01*
X130519979Y-105115991D01*
X130545123Y-105159540D01*
X130559540Y-105184511D01*
X131690881Y-106315852D01*
X131705233Y-106350500D01*
X131690881Y-106385148D01*
X131656233Y-106399500D01*
X127460436Y-106399500D01*
X127384010Y-106419979D01*
X127384008Y-106419979D01*
X127337590Y-106446780D01*
X127315488Y-106459540D01*
X127315488Y-106459541D01*
X126009541Y-107765488D01*
X126009540Y-107765488D01*
X125969979Y-107834008D01*
X125969979Y-107834010D01*
X125949500Y-107910436D01*
X125949500Y-108605233D01*
X125935148Y-108639881D01*
X125489881Y-109085148D01*
X125455233Y-109099500D01*
X125174500Y-109099500D01*
X125139852Y-109085148D01*
X125125500Y-109050500D01*
X125125500Y-108970378D01*
X125115118Y-108883927D01*
X125115117Y-108883925D01*
X125115117Y-108883923D01*
X125060862Y-108746342D01*
X124971500Y-108628500D01*
X124870883Y-108552200D01*
X124853660Y-108539139D01*
X124853658Y-108539138D01*
X124716077Y-108484883D01*
X124716075Y-108484882D01*
X124716071Y-108484881D01*
X124716072Y-108484881D01*
X124629621Y-108474500D01*
X124629618Y-108474500D01*
X123770382Y-108474500D01*
X123770379Y-108474500D01*
X123683927Y-108484881D01*
X123546339Y-108539139D01*
X123428500Y-108628500D01*
X123339139Y-108746339D01*
X123284881Y-108883927D01*
X123274500Y-108970378D01*
X118595349Y-108970378D01*
X118024971Y-108400000D01*
X121569196Y-108400000D01*
X121590281Y-108533126D01*
X121590281Y-108533127D01*
X121590282Y-108533128D01*
X121651467Y-108653213D01*
X121651472Y-108653220D01*
X121746779Y-108748527D01*
X121746786Y-108748532D01*
X121826842Y-108789322D01*
X121866874Y-108809719D01*
X122000000Y-108830804D01*
X122133126Y-108809719D01*
X122216420Y-108767278D01*
X122253213Y-108748532D01*
X122253215Y-108748530D01*
X122253220Y-108748528D01*
X122348528Y-108653220D01*
X122361124Y-108628500D01*
X122368751Y-108613531D01*
X122409719Y-108533126D01*
X122430804Y-108400000D01*
X122409719Y-108266874D01*
X122389322Y-108226842D01*
X122348532Y-108146786D01*
X122348527Y-108146779D01*
X122253220Y-108051472D01*
X122253213Y-108051467D01*
X122133128Y-107990282D01*
X122133127Y-107990281D01*
X122133126Y-107990281D01*
X122000000Y-107969196D01*
X121866874Y-107990281D01*
X121866872Y-107990281D01*
X121866871Y-107990282D01*
X121746786Y-108051467D01*
X121746779Y-108051472D01*
X121651472Y-108146779D01*
X121651467Y-108146786D01*
X121590282Y-108266871D01*
X121590281Y-108266872D01*
X121590281Y-108266874D01*
X121569196Y-108400000D01*
X118024971Y-108400000D01*
X117234511Y-107609540D01*
X117165990Y-107569979D01*
X117089564Y-107549500D01*
X117089562Y-107549500D01*
X116671544Y-107549500D01*
X116636896Y-107535148D01*
X116603220Y-107501472D01*
X116603213Y-107501467D01*
X116483128Y-107440282D01*
X116483127Y-107440281D01*
X116483126Y-107440281D01*
X116350000Y-107419196D01*
X116216874Y-107440281D01*
X116216872Y-107440281D01*
X116216871Y-107440282D01*
X116171745Y-107463275D01*
X116134358Y-107466218D01*
X116105841Y-107441861D01*
X116100500Y-107419616D01*
X116100500Y-107244767D01*
X116114852Y-107210119D01*
X116354593Y-106970378D01*
X123274500Y-106970378D01*
X123274500Y-107829621D01*
X123284881Y-107916072D01*
X123284883Y-107916077D01*
X123338276Y-108051473D01*
X123339139Y-108053660D01*
X123345820Y-108062470D01*
X123428500Y-108171500D01*
X123520925Y-108241588D01*
X123544834Y-108259719D01*
X123546342Y-108260862D01*
X123683923Y-108315117D01*
X123683926Y-108315117D01*
X123683928Y-108315118D01*
X123683927Y-108315118D01*
X123770379Y-108325500D01*
X123770382Y-108325500D01*
X124629621Y-108325500D01*
X124716072Y-108315118D01*
X124716073Y-108315117D01*
X124716077Y-108315117D01*
X124853658Y-108260862D01*
X124971500Y-108171500D01*
X125060862Y-108053658D01*
X125115117Y-107916077D01*
X125115795Y-107910438D01*
X125125500Y-107829621D01*
X125125500Y-107749500D01*
X125139852Y-107714852D01*
X125174500Y-107700500D01*
X125439564Y-107700500D01*
X125466230Y-107693354D01*
X125515989Y-107680021D01*
X125584511Y-107640460D01*
X125640460Y-107584511D01*
X128381812Y-104843157D01*
X128408789Y-104829411D01*
X128533126Y-104809719D01*
X128616420Y-104767278D01*
X128653213Y-104748532D01*
X128653215Y-104748530D01*
X128653220Y-104748528D01*
X128748528Y-104653220D01*
X128749422Y-104651467D01*
X128774814Y-104601630D01*
X128809719Y-104533126D01*
X128830804Y-104400000D01*
X128809719Y-104266874D01*
X128775645Y-104200000D01*
X128748532Y-104146786D01*
X128748527Y-104146779D01*
X128653220Y-104051472D01*
X128653213Y-104051467D01*
X128533128Y-103990282D01*
X128533127Y-103990281D01*
X128533126Y-103990281D01*
X128400000Y-103969196D01*
X128266874Y-103990281D01*
X128266872Y-103990281D01*
X128266871Y-103990282D01*
X128146786Y-104051467D01*
X128146779Y-104051472D01*
X128051472Y-104146779D01*
X128051467Y-104146786D01*
X127990282Y-104266870D01*
X127990281Y-104266872D01*
X127990281Y-104266874D01*
X127977348Y-104348528D01*
X127970589Y-104391205D01*
X127956840Y-104418187D01*
X126304685Y-106070342D01*
X126270037Y-106084694D01*
X126235389Y-106070342D01*
X126221641Y-106043362D01*
X126209259Y-105965180D01*
X126179024Y-105905841D01*
X126148072Y-105845092D01*
X126148067Y-105845085D01*
X126052760Y-105749778D01*
X126052753Y-105749773D01*
X125932668Y-105688588D01*
X125932667Y-105688587D01*
X125932666Y-105688587D01*
X125799540Y-105667502D01*
X125666414Y-105688587D01*
X125666412Y-105688587D01*
X125666411Y-105688588D01*
X125546326Y-105749773D01*
X125546319Y-105749778D01*
X125451012Y-105845085D01*
X125451007Y-105845092D01*
X125389822Y-105965177D01*
X125389821Y-105965178D01*
X125389821Y-105965180D01*
X125368736Y-106098306D01*
X125389821Y-106231432D01*
X125389821Y-106231433D01*
X125389822Y-106231434D01*
X125451007Y-106351519D01*
X125451012Y-106351526D01*
X125546319Y-106446833D01*
X125546326Y-106446838D01*
X125618542Y-106483633D01*
X125666414Y-106508025D01*
X125744595Y-106520407D01*
X125776570Y-106540001D01*
X125785325Y-106576468D01*
X125771576Y-106603451D01*
X125289881Y-107085148D01*
X125255233Y-107099500D01*
X125174500Y-107099500D01*
X125139852Y-107085148D01*
X125125500Y-107050500D01*
X125125500Y-106970378D01*
X125115118Y-106883927D01*
X125115117Y-106883925D01*
X125115117Y-106883923D01*
X125060862Y-106746342D01*
X124971500Y-106628500D01*
X124901410Y-106575349D01*
X124853660Y-106539139D01*
X124853658Y-106539138D01*
X124716077Y-106484883D01*
X124716075Y-106484882D01*
X124716071Y-106484881D01*
X124716072Y-106484881D01*
X124629621Y-106474500D01*
X124629618Y-106474500D01*
X123770382Y-106474500D01*
X123770379Y-106474500D01*
X123683927Y-106484881D01*
X123546339Y-106539139D01*
X123428500Y-106628500D01*
X123339139Y-106746339D01*
X123284881Y-106883927D01*
X123274500Y-106970378D01*
X116354593Y-106970378D01*
X117610119Y-105714852D01*
X117644767Y-105700500D01*
X123225500Y-105700500D01*
X123260148Y-105714852D01*
X123274500Y-105749500D01*
X123274500Y-105829621D01*
X123284881Y-105916072D01*
X123284883Y-105916077D01*
X123324004Y-106015282D01*
X123339139Y-106053660D01*
X123356438Y-106076472D01*
X123428500Y-106171500D01*
X123507533Y-106231432D01*
X123542736Y-106258128D01*
X123546342Y-106260862D01*
X123683923Y-106315117D01*
X123683926Y-106315117D01*
X123683928Y-106315118D01*
X123683927Y-106315118D01*
X123770379Y-106325500D01*
X123770382Y-106325500D01*
X124629621Y-106325500D01*
X124716072Y-106315118D01*
X124716073Y-106315117D01*
X124716077Y-106315117D01*
X124853658Y-106260862D01*
X124971500Y-106171500D01*
X125060862Y-106053658D01*
X125115117Y-105916077D01*
X125115265Y-105914852D01*
X125125500Y-105829621D01*
X125125500Y-105000000D01*
X125369196Y-105000000D01*
X125390281Y-105133126D01*
X125390281Y-105133127D01*
X125390282Y-105133128D01*
X125451467Y-105253213D01*
X125451472Y-105253220D01*
X125546779Y-105348527D01*
X125546786Y-105348532D01*
X125626842Y-105389322D01*
X125666874Y-105409719D01*
X125800000Y-105430804D01*
X125933126Y-105409719D01*
X126031608Y-105359540D01*
X126053213Y-105348532D01*
X126053215Y-105348530D01*
X126053220Y-105348528D01*
X126148528Y-105253220D01*
X126149422Y-105251467D01*
X126176395Y-105198527D01*
X126209719Y-105133126D01*
X126230804Y-105000000D01*
X126209719Y-104866874D01*
X126180596Y-104809717D01*
X126148532Y-104746786D01*
X126148526Y-104746778D01*
X126053220Y-104651472D01*
X126053213Y-104651467D01*
X125933128Y-104590282D01*
X125933127Y-104590281D01*
X125933126Y-104590281D01*
X125800000Y-104569196D01*
X125666874Y-104590281D01*
X125666872Y-104590281D01*
X125666871Y-104590282D01*
X125546786Y-104651467D01*
X125546779Y-104651472D01*
X125451474Y-104746778D01*
X125451467Y-104746786D01*
X125390282Y-104866871D01*
X125390281Y-104866872D01*
X125390281Y-104866874D01*
X125369196Y-105000000D01*
X125125500Y-105000000D01*
X125125500Y-104970378D01*
X125115118Y-104883927D01*
X125115117Y-104883925D01*
X125115117Y-104883923D01*
X125060862Y-104746342D01*
X124971500Y-104628500D01*
X124866041Y-104548528D01*
X124853660Y-104539139D01*
X124853658Y-104539138D01*
X124716077Y-104484883D01*
X124716075Y-104484882D01*
X124716071Y-104484881D01*
X124716072Y-104484881D01*
X124629621Y-104474500D01*
X124629618Y-104474500D01*
X123770382Y-104474500D01*
X123770379Y-104474500D01*
X123683927Y-104484881D01*
X123546339Y-104539139D01*
X123428500Y-104628500D01*
X123339139Y-104746339D01*
X123284881Y-104883927D01*
X123274500Y-104970378D01*
X123274500Y-105050500D01*
X123260148Y-105085148D01*
X123225500Y-105099500D01*
X117460436Y-105099500D01*
X117384010Y-105119979D01*
X117384008Y-105119979D01*
X117315488Y-105159540D01*
X115559541Y-106915488D01*
X115559540Y-106915488D01*
X115519979Y-106984008D01*
X115519979Y-106984010D01*
X115499500Y-107060436D01*
X115499500Y-112088886D01*
X115494159Y-112111131D01*
X115440282Y-112216871D01*
X115440281Y-112216872D01*
X115440281Y-112216874D01*
X115419196Y-112350000D01*
X110400000Y-112350000D01*
X110400000Y-103899415D01*
X110400004Y-103898815D01*
X110400395Y-103866871D01*
X110401174Y-103803264D01*
X110401467Y-103798491D01*
X110411765Y-103705611D01*
X110412402Y-103701494D01*
X110421109Y-103657723D01*
X110422268Y-103653097D01*
X110476946Y-103472847D01*
X110480616Y-103463987D01*
X110568257Y-103300022D01*
X110573585Y-103292047D01*
X110691537Y-103148321D01*
X110698321Y-103141537D01*
X110842047Y-103023585D01*
X110850022Y-103018257D01*
X111013987Y-102930616D01*
X111022847Y-102926946D01*
X111111676Y-102900000D01*
X124969196Y-102900000D01*
X124990281Y-103033126D01*
X124990281Y-103033127D01*
X124990282Y-103033128D01*
X125051467Y-103153213D01*
X125051473Y-103153221D01*
X125113603Y-103215352D01*
X125127955Y-103250000D01*
X125113603Y-103284648D01*
X125051473Y-103346778D01*
X125051467Y-103346786D01*
X124990282Y-103466871D01*
X124990281Y-103466872D01*
X124990281Y-103466874D01*
X124969196Y-103600000D01*
X124990281Y-103733126D01*
X124990281Y-103733127D01*
X124990282Y-103733128D01*
X125051467Y-103853213D01*
X125051472Y-103853220D01*
X125146779Y-103948527D01*
X125146786Y-103948532D01*
X125221948Y-103986828D01*
X125266874Y-104009719D01*
X125400000Y-104030804D01*
X125533126Y-104009719D01*
X125616420Y-103967278D01*
X125653213Y-103948532D01*
X125653215Y-103948530D01*
X125653220Y-103948528D01*
X125748528Y-103853220D01*
X125749422Y-103851467D01*
X125767278Y-103816420D01*
X125809719Y-103733126D01*
X125830804Y-103600000D01*
X125809719Y-103466874D01*
X125789322Y-103426842D01*
X125748532Y-103346786D01*
X125748527Y-103346779D01*
X125686396Y-103284648D01*
X125672044Y-103250000D01*
X125686396Y-103215352D01*
X125748528Y-103153220D01*
X125751025Y-103148321D01*
X125796260Y-103059540D01*
X125809719Y-103033126D01*
X125830804Y-102900000D01*
X125809719Y-102766874D01*
X125789322Y-102726842D01*
X125748532Y-102646786D01*
X125748527Y-102646779D01*
X125653220Y-102551472D01*
X125653213Y-102551467D01*
X125533128Y-102490282D01*
X125533127Y-102490281D01*
X125533126Y-102490281D01*
X125400000Y-102469196D01*
X125266874Y-102490281D01*
X125266872Y-102490281D01*
X125266871Y-102490282D01*
X125146786Y-102551467D01*
X125146779Y-102551472D01*
X125051472Y-102646779D01*
X125051467Y-102646786D01*
X124990282Y-102766871D01*
X124990281Y-102766872D01*
X124990281Y-102766874D01*
X124969196Y-102900000D01*
X111111676Y-102900000D01*
X111203097Y-102872268D01*
X111207723Y-102871109D01*
X111251494Y-102862402D01*
X111255611Y-102861765D01*
X111348491Y-102851467D01*
X111353264Y-102851174D01*
X111448816Y-102850004D01*
X111449416Y-102850000D01*
X120506154Y-102850000D01*
X120588916Y-102849352D01*
X120605320Y-102849224D01*
X120609669Y-102850985D01*
X120637041Y-102848976D01*
X120637050Y-102848976D01*
X120637049Y-102848977D01*
X120767450Y-102839406D01*
X120832360Y-102830861D01*
X121088685Y-102779878D01*
X121336162Y-102695875D01*
X121336161Y-102695875D01*
X121336168Y-102695871D01*
X121358913Y-102688151D01*
X121368752Y-102679803D01*
X121570556Y-102580288D01*
X121570557Y-102580287D01*
X121570559Y-102580285D01*
X121570631Y-102580250D01*
X121571193Y-102579861D01*
X121787859Y-102435094D01*
X121787876Y-102435080D01*
X121787883Y-102435076D01*
X121839795Y-102395243D01*
X121839794Y-102395243D01*
X121839799Y-102395240D01*
X121938769Y-102309795D01*
X121945969Y-102302815D01*
X122025000Y-102225000D01*
X122104037Y-102147191D01*
X122110233Y-102141185D01*
X122112290Y-102139303D01*
X122209166Y-102055678D01*
X122211309Y-102053934D01*
X122260911Y-102015874D01*
X122263461Y-102014047D01*
X122476791Y-101871507D01*
X122482316Y-101868317D01*
X122710980Y-101755555D01*
X122716872Y-101753115D01*
X122958275Y-101671172D01*
X122964458Y-101669515D01*
X123216105Y-101619462D01*
X123219211Y-101618950D01*
X123281163Y-101610795D01*
X123283957Y-101610509D01*
X123411363Y-101601149D01*
X123414548Y-101601020D01*
X123543658Y-101600001D01*
X123544043Y-101600000D01*
X159251000Y-101600000D01*
X159285648Y-101614352D01*
G37*
%TD.AperFunction*%
%TD*%
%TA.AperFunction,NonConductor*%
G36*
X116939881Y-108164852D02*
G01*
X118294621Y-109519592D01*
X118308973Y-109554240D01*
X118294621Y-109588888D01*
X118259973Y-109603240D01*
X118247292Y-109601571D01*
X118239563Y-109599500D01*
X118239562Y-109599500D01*
X116671544Y-109599500D01*
X116636896Y-109585148D01*
X116603220Y-109551472D01*
X116603213Y-109551467D01*
X116483128Y-109490282D01*
X116483127Y-109490281D01*
X116483126Y-109490281D01*
X116350000Y-109469196D01*
X116216874Y-109490281D01*
X116216872Y-109490281D01*
X116216871Y-109490282D01*
X116171745Y-109513275D01*
X116134358Y-109516218D01*
X116105841Y-109491861D01*
X116100500Y-109469616D01*
X116100500Y-108280384D01*
X116114852Y-108245736D01*
X116149500Y-108231384D01*
X116171746Y-108236725D01*
X116216874Y-108259719D01*
X116350000Y-108280804D01*
X116483126Y-108259719D01*
X116566420Y-108217278D01*
X116603213Y-108198532D01*
X116603215Y-108198530D01*
X116603220Y-108198528D01*
X116636896Y-108164852D01*
X116671544Y-108150500D01*
X116905233Y-108150500D01*
X116939881Y-108164852D01*
G37*
%TD.AperFunction*%
M02*
