%TF.GenerationSoftware,KiCad,Pcbnew,8.0.4*%
%TF.CreationDate,2024-10-06T23:59:02+02:00*%
%TF.ProjectId,elrs-sim,656c7273-2d73-4696-9d2e-6b696361645f,rev?*%
%TF.SameCoordinates,Original*%
%TF.FileFunction,Copper,L5,Inr*%
%TF.FilePolarity,Positive*%
%FSLAX46Y46*%
G04 Gerber Fmt 4.6, Leading zero omitted, Abs format (unit mm)*
G04 Created by KiCad (PCBNEW 8.0.4) date 2024-10-06 23:59:02*
%MOMM*%
%LPD*%
G01*
G04 APERTURE LIST*
G04 Aperture macros list*
%AMRoundRect*
0 Rectangle with rounded corners*
0 $1 Rounding radius*
0 $2 $3 $4 $5 $6 $7 $8 $9 X,Y pos of 4 corners*
0 Add a 4 corners polygon primitive as box body*
4,1,4,$2,$3,$4,$5,$6,$7,$8,$9,$2,$3,0*
0 Add four circle primitives for the rounded corners*
1,1,$1+$1,$2,$3*
1,1,$1+$1,$4,$5*
1,1,$1+$1,$6,$7*
1,1,$1+$1,$8,$9*
0 Add four rect primitives between the rounded corners*
20,1,$1+$1,$2,$3,$4,$5,0*
20,1,$1+$1,$4,$5,$6,$7,0*
20,1,$1+$1,$6,$7,$8,$9,0*
20,1,$1+$1,$8,$9,$2,$3,0*%
G04 Aperture macros list end*
%TA.AperFunction,ComponentPad*%
%ADD10R,1.700000X1.700000*%
%TD*%
%TA.AperFunction,ComponentPad*%
%ADD11O,1.700000X1.700000*%
%TD*%
%TA.AperFunction,ComponentPad*%
%ADD12RoundRect,0.500000X-3.500000X0.500000X-3.500000X-0.500000X3.500000X-0.500000X3.500000X0.500000X0*%
%TD*%
%TA.AperFunction,ComponentPad*%
%ADD13RoundRect,0.500000X-3.000000X0.250000X-3.000000X-0.250000X3.000000X-0.250000X3.000000X0.250000X0*%
%TD*%
%TA.AperFunction,ViaPad*%
%ADD14C,0.450000*%
%TD*%
G04 APERTURE END LIST*
D10*
%TO.N,GND*%
%TO.C,J2*%
X139300000Y-106900000D03*
D11*
%TO.N,USB_VBUS*%
X139300000Y-109440000D03*
%TO.N,Net-(J2-Pin_3)*%
X139300000Y-111980000D03*
%TO.N,Net-(J2-Pin_4)*%
X139300000Y-114520000D03*
%TD*%
D12*
%TO.N,unconnected-(J3-Pin_1-Pad1)*%
%TO.C,J3*%
X169000000Y-105500000D03*
D13*
%TO.N,unconnected-(J3-Pin_2-Pad2)*%
X168500000Y-107950000D03*
%TO.N,unconnected-(J3-Pin_3-Pad3)*%
X168500000Y-110000000D03*
D12*
%TO.N,unconnected-(J3-Pin_4-Pad4)*%
X169000000Y-112450000D03*
%TD*%
D14*
%TO.N,GND*%
X146825000Y-108625000D03*
X129700000Y-110500000D03*
X149905000Y-105025000D03*
X134450000Y-111750000D03*
X154325000Y-109325000D03*
X147605000Y-112225000D03*
X134900000Y-107950000D03*
%TO.N,+3.3V*%
X127600000Y-115200000D03*
X134250000Y-104300000D03*
X132350000Y-110350000D03*
X130300000Y-115200000D03*
X128900000Y-105900000D03*
X140200000Y-105100000D03*
X136150000Y-114750000D03*
X130700000Y-104400000D03*
X127600000Y-105900000D03*
X123900000Y-111750000D03*
%TO.N,IRS*%
X155425000Y-106180000D03*
X152325000Y-111225000D03*
%TO.N,BUSY*%
X150150000Y-106525000D03*
X145125000Y-105425000D03*
%TO.N,NRST*%
X150025000Y-107925000D03*
X154725000Y-104825000D03*
%TO.N,ESP_SCK*%
X156000020Y-111695003D03*
X149325000Y-110925000D03*
%TO.N,ESP_MOSI*%
X154698938Y-112924436D03*
X150025000Y-108925000D03*
%TO.N,ESP_MISO*%
X154725000Y-112325000D03*
X150025000Y-109925000D03*
%TO.N,DIO_1*%
X149325000Y-106425000D03*
X151525000Y-108525000D03*
%TO.N,+3.3V_SW*%
X134250000Y-106700000D03*
X144800000Y-111900000D03*
X150200000Y-112100000D03*
X148950000Y-104000000D03*
X144325000Y-109125000D03*
X137000000Y-103900000D03*
X143300000Y-104900000D03*
X146300000Y-111800000D03*
X150625003Y-109925000D03*
X141500000Y-111050000D03*
%TO.N,NSS*%
X156750000Y-112400000D03*
X151525000Y-107925000D03*
%TO.N,ESP_LED*%
X144200000Y-103700000D03*
X149325000Y-111525000D03*
%TO.N,ESP_BOOT*%
X146200000Y-105300000D03*
X150025000Y-107325000D03*
%TO.N,USB_DN*%
X124750000Y-103600000D03*
X117000000Y-110075000D03*
%TO.N,USB_DP*%
X117000000Y-108025000D03*
X124050000Y-103600000D03*
%TO.N,USB_VBUS*%
X116500000Y-112525000D03*
X125500000Y-114000000D03*
%TO.N,RP2040_RX*%
X135200000Y-106125003D03*
X130850000Y-113150000D03*
%TO.N,RP2040_TX*%
X136100000Y-103325000D03*
X130350000Y-112650000D03*
%TO.N,Net-(U1-VREG_VOUT)*%
X127100000Y-110350003D03*
X127100000Y-108549997D03*
X123900000Y-111149997D03*
X132050000Y-107975000D03*
X122000000Y-108400000D03*
%TO.N,RP2040_LED*%
X128450000Y-108000000D03*
X133150000Y-104000000D03*
%TO.N,QSPI_SS*%
X125500000Y-113400000D03*
X136900247Y-108300000D03*
X132900000Y-107300000D03*
%TO.N,QSPI_SD2*%
X125500000Y-112400000D03*
X135700241Y-108300000D03*
%TO.N,QSPI_SD3*%
X127200000Y-111000000D03*
X136400003Y-109700000D03*
%TO.N,QSPI_SD1*%
X136300244Y-108300000D03*
X127200000Y-113000000D03*
%TO.N,QSPI_SD0*%
X135200000Y-109700000D03*
X127200000Y-112000000D03*
%TO.N,QSPI_SCLK*%
X135800000Y-109700000D03*
X125499381Y-111400341D03*
%TO.N,RP2040_RX_NO*%
X135200000Y-105525000D03*
X141500000Y-107100000D03*
%TO.N,RP2040_TX_NC*%
X137400000Y-115100000D03*
X137400000Y-104850000D03*
%TO.N,Net-(U1-USB_DP)*%
X125750000Y-104950000D03*
X127100000Y-109750000D03*
%TO.N,Net-(U1-USB_DM)*%
X125450000Y-103600000D03*
X127100000Y-109150000D03*
%TO.N,RP2040_TX_NO*%
X141500000Y-106150000D03*
X135200000Y-103900000D03*
%TO.N,RP2040_RX_NC*%
X136950000Y-106100000D03*
X138250000Y-112750000D03*
%TD*%
M02*
