%TF.GenerationSoftware,KiCad,Pcbnew,8.0.4*%
%TF.CreationDate,2024-09-10T22:50:24+02:00*%
%TF.ProjectId,elrs-sim,656c7273-2d73-4696-9d2e-6b696361645f,rev?*%
%TF.SameCoordinates,Original*%
%TF.FileFunction,Soldermask,Bot*%
%TF.FilePolarity,Negative*%
%FSLAX46Y46*%
G04 Gerber Fmt 4.6, Leading zero omitted, Abs format (unit mm)*
G04 Created by KiCad (PCBNEW 8.0.4) date 2024-09-10 22:50:24*
%MOMM*%
%LPD*%
G01*
G04 APERTURE LIST*
G04 Aperture macros list*
%AMRoundRect*
0 Rectangle with rounded corners*
0 $1 Rounding radius*
0 $2 $3 $4 $5 $6 $7 $8 $9 X,Y pos of 4 corners*
0 Add a 4 corners polygon primitive as box body*
4,1,4,$2,$3,$4,$5,$6,$7,$8,$9,$2,$3,0*
0 Add four circle primitives for the rounded corners*
1,1,$1+$1,$2,$3*
1,1,$1+$1,$4,$5*
1,1,$1+$1,$6,$7*
1,1,$1+$1,$8,$9*
0 Add four rect primitives between the rounded corners*
20,1,$1+$1,$2,$3,$4,$5,0*
20,1,$1+$1,$4,$5,$6,$7,0*
20,1,$1+$1,$6,$7,$8,$9,0*
20,1,$1+$1,$8,$9,$2,$3,0*%
G04 Aperture macros list end*
%ADD10C,0.200000*%
%ADD11C,0.300000*%
%ADD12R,1.700000X1.700000*%
%ADD13O,1.700000X1.700000*%
%ADD14RoundRect,0.500000X-3.500000X0.500000X-3.500000X-0.500000X3.500000X-0.500000X3.500000X0.500000X0*%
%ADD15RoundRect,0.500000X-3.000000X0.250000X-3.000000X-0.250000X3.000000X-0.250000X3.000000X0.250000X0*%
%ADD16RoundRect,0.387500X-0.387500X0.387500X-0.387500X-0.387500X0.387500X-0.387500X0.387500X0.387500X0*%
G04 APERTURE END LIST*
D10*
G36*
X158693510Y-113395631D02*
G01*
X158131360Y-113395631D01*
X158131360Y-113552533D01*
X158531137Y-113552533D01*
X158531137Y-113728387D01*
X158177278Y-113728387D01*
X158177278Y-113885094D01*
X158531137Y-113885094D01*
X158531137Y-114063293D01*
X158115729Y-114063293D01*
X158115729Y-114220000D01*
X158693510Y-114220000D01*
X158693510Y-113395631D01*
G37*
G36*
X157947885Y-113395631D02*
G01*
X157785512Y-113395631D01*
X157785512Y-114063293D01*
X157398046Y-114063293D01*
X157398046Y-114220000D01*
X157947885Y-114220000D01*
X157947885Y-113395631D01*
G37*
G36*
X157230397Y-114220000D02*
G01*
X157068025Y-114220000D01*
X157068025Y-113957976D01*
X156959905Y-113957976D01*
X156785875Y-114220000D01*
X156596538Y-114220000D01*
X156788512Y-113920349D01*
X156786168Y-113919153D01*
X156751290Y-113894928D01*
X156722568Y-113866140D01*
X156706667Y-113844867D01*
X156687305Y-113810850D01*
X156673328Y-113774305D01*
X156668149Y-113755401D01*
X156660603Y-113714441D01*
X156658423Y-113678953D01*
X156826127Y-113678953D01*
X156832379Y-113717641D01*
X156834019Y-113722794D01*
X156852505Y-113757501D01*
X156859165Y-113765475D01*
X156891193Y-113788764D01*
X156913228Y-113796734D01*
X156952742Y-113801074D01*
X157068025Y-113801074D01*
X157068025Y-113552533D01*
X156951570Y-113552533D01*
X156922068Y-113554593D01*
X156883768Y-113567187D01*
X156873357Y-113573840D01*
X156846252Y-113602944D01*
X156844018Y-113606933D01*
X156830034Y-113644954D01*
X156826127Y-113678953D01*
X156658423Y-113678953D01*
X156658087Y-113673482D01*
X156659772Y-113638561D01*
X156666407Y-113598652D01*
X156679385Y-113558590D01*
X156691268Y-113534007D01*
X156713717Y-113500567D01*
X156741716Y-113471249D01*
X156769167Y-113450175D01*
X156803814Y-113430785D01*
X156843126Y-113415366D01*
X156858483Y-113410741D01*
X156899172Y-113401875D01*
X156938598Y-113397192D01*
X156980683Y-113395631D01*
X157230397Y-113395631D01*
X157230397Y-114220000D01*
G37*
G36*
X156022079Y-113595129D02*
G01*
X156057616Y-113577049D01*
X156093593Y-113561496D01*
X156117822Y-113552533D01*
X156156353Y-113541653D01*
X156195612Y-113536139D01*
X156209071Y-113535729D01*
X156248101Y-113539244D01*
X156286044Y-113553221D01*
X156291919Y-113557027D01*
X156316408Y-113587664D01*
X156322205Y-113620725D01*
X156310395Y-113659447D01*
X156299344Y-113672896D01*
X156267280Y-113698321D01*
X156239944Y-113713733D01*
X156202770Y-113730830D01*
X156164326Y-113746168D01*
X156126347Y-113761927D01*
X156093203Y-113778213D01*
X156059692Y-113798876D01*
X156029895Y-113824131D01*
X156004738Y-113854905D01*
X155986211Y-113889967D01*
X155985150Y-113892519D01*
X155973662Y-113931767D01*
X155968936Y-113971005D01*
X155968346Y-113992561D01*
X155972178Y-114034643D01*
X155983676Y-114074647D01*
X156000781Y-114109211D01*
X156024011Y-114140772D01*
X156053156Y-114168287D01*
X156088216Y-114191757D01*
X156095938Y-114195966D01*
X156133522Y-114211929D01*
X156175712Y-114222667D01*
X156217080Y-114227827D01*
X156250495Y-114228988D01*
X156292035Y-114227155D01*
X156331211Y-114222172D01*
X156346434Y-114219413D01*
X156385706Y-114209990D01*
X156424463Y-114197277D01*
X156442177Y-114190300D01*
X156479763Y-114172650D01*
X156516317Y-114151454D01*
X156532840Y-114140474D01*
X156461130Y-114013859D01*
X156426770Y-114036211D01*
X156397822Y-114051374D01*
X156361381Y-114066565D01*
X156329043Y-114076580D01*
X156289740Y-114084085D01*
X156265150Y-114085568D01*
X156224841Y-114081597D01*
X156206336Y-114077166D01*
X156170301Y-114060072D01*
X156157096Y-114048639D01*
X156139289Y-114013485D01*
X156137362Y-113992561D01*
X156148907Y-113954214D01*
X156153579Y-113947815D01*
X156182747Y-113920601D01*
X156197348Y-113910886D01*
X156233526Y-113891636D01*
X156257138Y-113881772D01*
X156293374Y-113867089D01*
X156330640Y-113850517D01*
X156335687Y-113848164D01*
X156372349Y-113828549D01*
X156406865Y-113805242D01*
X156411304Y-113801856D01*
X156441358Y-113773108D01*
X156464140Y-113741008D01*
X156468360Y-113733468D01*
X156483319Y-113694048D01*
X156489474Y-113654664D01*
X156490244Y-113633035D01*
X156487133Y-113590190D01*
X156477803Y-113551046D01*
X156460354Y-113512263D01*
X156458394Y-113508960D01*
X156433270Y-113475299D01*
X156401958Y-113446856D01*
X156368122Y-113425526D01*
X156329975Y-113408903D01*
X156288316Y-113397622D01*
X156247821Y-113392037D01*
X156233691Y-113391137D01*
X156191889Y-113392268D01*
X156148511Y-113396332D01*
X156109823Y-113403351D01*
X156071905Y-113414780D01*
X156034329Y-113430312D01*
X155999273Y-113447600D01*
X155963620Y-113468644D01*
X155960530Y-113470662D01*
X156022079Y-113595129D01*
G37*
G36*
X155006029Y-113595129D02*
G01*
X155041566Y-113577049D01*
X155077543Y-113561496D01*
X155101772Y-113552533D01*
X155140303Y-113541653D01*
X155179562Y-113536139D01*
X155193021Y-113535729D01*
X155232051Y-113539244D01*
X155269994Y-113553221D01*
X155275868Y-113557027D01*
X155300357Y-113587664D01*
X155306154Y-113620725D01*
X155294344Y-113659447D01*
X155283293Y-113672896D01*
X155251230Y-113698321D01*
X155223893Y-113713733D01*
X155186720Y-113730830D01*
X155148276Y-113746168D01*
X155110297Y-113761927D01*
X155077152Y-113778213D01*
X155043642Y-113798876D01*
X155013845Y-113824131D01*
X154988688Y-113854905D01*
X154970160Y-113889967D01*
X154969099Y-113892519D01*
X154957612Y-113931767D01*
X154952886Y-113971005D01*
X154952295Y-113992561D01*
X154956128Y-114034643D01*
X154967626Y-114074647D01*
X154984731Y-114109211D01*
X155007961Y-114140772D01*
X155037106Y-114168287D01*
X155072166Y-114191757D01*
X155079888Y-114195966D01*
X155117472Y-114211929D01*
X155159661Y-114222667D01*
X155201030Y-114227827D01*
X155234445Y-114228988D01*
X155275985Y-114227155D01*
X155315161Y-114222172D01*
X155330383Y-114219413D01*
X155369656Y-114209990D01*
X155408413Y-114197277D01*
X155426127Y-114190300D01*
X155463712Y-114172650D01*
X155500266Y-114151454D01*
X155516789Y-114140474D01*
X155445080Y-114013859D01*
X155410719Y-114036211D01*
X155381772Y-114051374D01*
X155345331Y-114066565D01*
X155312993Y-114076580D01*
X155273689Y-114084085D01*
X155249099Y-114085568D01*
X155208791Y-114081597D01*
X155190286Y-114077166D01*
X155154251Y-114060072D01*
X155141046Y-114048639D01*
X155123239Y-114013485D01*
X155121311Y-113992561D01*
X155132857Y-113954214D01*
X155137529Y-113947815D01*
X155166697Y-113920601D01*
X155181297Y-113910886D01*
X155217476Y-113891636D01*
X155241088Y-113881772D01*
X155277324Y-113867089D01*
X155314590Y-113850517D01*
X155319637Y-113848164D01*
X155356299Y-113828549D01*
X155390814Y-113805242D01*
X155395254Y-113801856D01*
X155425308Y-113773108D01*
X155448089Y-113741008D01*
X155452309Y-113733468D01*
X155467269Y-113694048D01*
X155473424Y-113654664D01*
X155474193Y-113633035D01*
X155471083Y-113590190D01*
X155461752Y-113551046D01*
X155444304Y-113512263D01*
X155442344Y-113508960D01*
X155417220Y-113475299D01*
X155385907Y-113446856D01*
X155352072Y-113425526D01*
X155313924Y-113408903D01*
X155272266Y-113397622D01*
X155231771Y-113392037D01*
X155217641Y-113391137D01*
X155175839Y-113392268D01*
X155132461Y-113396332D01*
X155093773Y-113403351D01*
X155055854Y-113414780D01*
X155018279Y-113430312D01*
X154983223Y-113447600D01*
X154947570Y-113468644D01*
X154944480Y-113470662D01*
X155006029Y-113595129D01*
G37*
G36*
X154819232Y-113730537D02*
G01*
X154662526Y-113730537D01*
X154662526Y-114220000D01*
X154819232Y-114220000D01*
X154819232Y-113730537D01*
G37*
G36*
X154822749Y-113559567D02*
G01*
X154812063Y-113520976D01*
X154795394Y-113502512D01*
X154759429Y-113483201D01*
X154736385Y-113480041D01*
X154697456Y-113489719D01*
X154678743Y-113502512D01*
X154656075Y-113535240D01*
X154652365Y-113559567D01*
X154662669Y-113598005D01*
X154678743Y-113616231D01*
X154713624Y-113634870D01*
X154736385Y-113637920D01*
X154775991Y-113628579D01*
X154795394Y-113616231D01*
X154818902Y-113583838D01*
X154822749Y-113559567D01*
G37*
G36*
X154358883Y-113730537D02*
G01*
X154346573Y-113816706D01*
X154348918Y-113810062D01*
X154325049Y-113776210D01*
X154297114Y-113748513D01*
X154276231Y-113733468D01*
X154240877Y-113716679D01*
X154200467Y-113707639D01*
X154170718Y-113705917D01*
X154130653Y-113709116D01*
X154099790Y-113717250D01*
X154064940Y-113735370D01*
X154047620Y-113750272D01*
X154025473Y-113784376D01*
X154018506Y-113806741D01*
X154023977Y-113807913D01*
X153998716Y-113776003D01*
X153969829Y-113749148D01*
X153948555Y-113734054D01*
X153911904Y-113715836D01*
X153871064Y-113706604D01*
X153856133Y-113705917D01*
X153813502Y-113709905D01*
X153773351Y-113723504D01*
X153740265Y-113746755D01*
X153715541Y-113777693D01*
X153700745Y-113814358D01*
X153695910Y-113852658D01*
X153695910Y-114220000D01*
X153851639Y-114220000D01*
X153851639Y-113917529D01*
X153856769Y-113878472D01*
X153861605Y-113864382D01*
X153895286Y-113842348D01*
X153903028Y-113841521D01*
X153942183Y-113849867D01*
X153967508Y-113867899D01*
X153991730Y-113899854D01*
X154006782Y-113934919D01*
X154016039Y-113973848D01*
X154019628Y-114014065D01*
X154019678Y-114019525D01*
X154019678Y-114220000D01*
X154176385Y-114220000D01*
X154176385Y-113917529D01*
X154182522Y-113878472D01*
X154188304Y-113864382D01*
X154221689Y-113842646D01*
X154231290Y-113841521D01*
X154271011Y-113850820D01*
X154293426Y-113867899D01*
X154316733Y-113899744D01*
X154331528Y-113934528D01*
X154340784Y-113972779D01*
X154344373Y-114012060D01*
X154344424Y-114017376D01*
X154344424Y-114220000D01*
X154501130Y-114220000D01*
X154501130Y-113730537D01*
X154358883Y-113730537D01*
G37*
G36*
X158253482Y-114939129D02*
G01*
X158289019Y-114921049D01*
X158324996Y-114905496D01*
X158349225Y-114896533D01*
X158387756Y-114885653D01*
X158427015Y-114880139D01*
X158440474Y-114879729D01*
X158479504Y-114883244D01*
X158517447Y-114897221D01*
X158523321Y-114901027D01*
X158547810Y-114931664D01*
X158553607Y-114964725D01*
X158541797Y-115003447D01*
X158530746Y-115016896D01*
X158498682Y-115042321D01*
X158471346Y-115057733D01*
X158434173Y-115074830D01*
X158395729Y-115090168D01*
X158357750Y-115105927D01*
X158324605Y-115122213D01*
X158291095Y-115142876D01*
X158261297Y-115168131D01*
X158236140Y-115198905D01*
X158217613Y-115233967D01*
X158216552Y-115236519D01*
X158205065Y-115275767D01*
X158200339Y-115315005D01*
X158199748Y-115336561D01*
X158203581Y-115378643D01*
X158215079Y-115418647D01*
X158232184Y-115453211D01*
X158255414Y-115484772D01*
X158284559Y-115512287D01*
X158319619Y-115535757D01*
X158327341Y-115539966D01*
X158364925Y-115555929D01*
X158407114Y-115566667D01*
X158448483Y-115571827D01*
X158481898Y-115572988D01*
X158523438Y-115571155D01*
X158562614Y-115566172D01*
X158577836Y-115563413D01*
X158617109Y-115553990D01*
X158655866Y-115541277D01*
X158673579Y-115534300D01*
X158711165Y-115516650D01*
X158747719Y-115495454D01*
X158764242Y-115484474D01*
X158692533Y-115357859D01*
X158658172Y-115380211D01*
X158629225Y-115395374D01*
X158592783Y-115410565D01*
X158560446Y-115420580D01*
X158521142Y-115428085D01*
X158496552Y-115429568D01*
X158456244Y-115425597D01*
X158437739Y-115421166D01*
X158401704Y-115404072D01*
X158388499Y-115392639D01*
X158370692Y-115357485D01*
X158368764Y-115336561D01*
X158380310Y-115298214D01*
X158384982Y-115291815D01*
X158414150Y-115264601D01*
X158428750Y-115254886D01*
X158464929Y-115235636D01*
X158488541Y-115225772D01*
X158524777Y-115211089D01*
X158562043Y-115194517D01*
X158567090Y-115192164D01*
X158603752Y-115172549D01*
X158638267Y-115149242D01*
X158642707Y-115145856D01*
X158672760Y-115117108D01*
X158695542Y-115085008D01*
X158699762Y-115077468D01*
X158714722Y-115038048D01*
X158720877Y-114998664D01*
X158721646Y-114977035D01*
X158718536Y-114934190D01*
X158709205Y-114895046D01*
X158691757Y-114856263D01*
X158689797Y-114852960D01*
X158664673Y-114819299D01*
X158633360Y-114790856D01*
X158599525Y-114769526D01*
X158561377Y-114752903D01*
X158519719Y-114741622D01*
X158479224Y-114736037D01*
X158465094Y-114735137D01*
X158423292Y-114736268D01*
X158379914Y-114740332D01*
X158341226Y-114747351D01*
X158303307Y-114758780D01*
X158265732Y-114774312D01*
X158230676Y-114791600D01*
X158195023Y-114812644D01*
X158191933Y-114814662D01*
X158253482Y-114939129D01*
G37*
G36*
X158020767Y-114859603D02*
G01*
X157864061Y-114859603D01*
X157864061Y-115072387D01*
X157745261Y-115072387D01*
X157745261Y-115194314D01*
X157864061Y-115194314D01*
X157864061Y-115564000D01*
X158020767Y-115564000D01*
X158020767Y-115194314D01*
X158096971Y-115194314D01*
X158096971Y-115072387D01*
X158020767Y-115072387D01*
X158020767Y-114859603D01*
G37*
G36*
X157625875Y-115074537D02*
G01*
X157469169Y-115074537D01*
X157469169Y-115564000D01*
X157625875Y-115564000D01*
X157625875Y-115074537D01*
G37*
G36*
X157629392Y-114903567D02*
G01*
X157618707Y-114864976D01*
X157602037Y-114846512D01*
X157566072Y-114827201D01*
X157543028Y-114824041D01*
X157504099Y-114833719D01*
X157485387Y-114846512D01*
X157462718Y-114879240D01*
X157459009Y-114903567D01*
X157469313Y-114942005D01*
X157485387Y-114960231D01*
X157520268Y-114978870D01*
X157543028Y-114981920D01*
X157582634Y-114972579D01*
X157602037Y-114960231D01*
X157625546Y-114927838D01*
X157629392Y-114903567D01*
G37*
G36*
X156892365Y-115520231D02*
G01*
X156926380Y-115542222D01*
X156964634Y-115558795D01*
X156973649Y-115561850D01*
X157012890Y-115571971D01*
X157054499Y-115577100D01*
X157069197Y-115577482D01*
X157109851Y-115575564D01*
X157152347Y-115568824D01*
X157191411Y-115557230D01*
X157215547Y-115546805D01*
X157251653Y-115524895D01*
X157282302Y-115497758D01*
X157307493Y-115465392D01*
X157311877Y-115458291D01*
X157329806Y-115419815D01*
X157340264Y-115381206D01*
X157345344Y-115338826D01*
X157345875Y-115318780D01*
X157343567Y-115279359D01*
X157335453Y-115238631D01*
X157321496Y-115201735D01*
X157308946Y-115179268D01*
X157283632Y-115145914D01*
X157253854Y-115117902D01*
X157219610Y-115095233D01*
X157212226Y-115091341D01*
X157174124Y-115075370D01*
X157134801Y-115065314D01*
X157094256Y-115061173D01*
X157086001Y-115061055D01*
X157046422Y-115062810D01*
X157006808Y-115068796D01*
X156971304Y-115079031D01*
X156933969Y-115095475D01*
X156899027Y-115117295D01*
X156887871Y-115126121D01*
X156964075Y-115226944D01*
X156998938Y-115205754D01*
X157007257Y-115201739D01*
X157045191Y-115190656D01*
X157071542Y-115188842D01*
X157111757Y-115196079D01*
X157130942Y-115205646D01*
X157161364Y-115233003D01*
X157173538Y-115251564D01*
X157186589Y-115289305D01*
X157189169Y-115318780D01*
X157183245Y-115359313D01*
X157172365Y-115384823D01*
X157147864Y-115416241D01*
X157125861Y-115432499D01*
X157089110Y-115446403D01*
X157055910Y-115449694D01*
X157016578Y-115444921D01*
X157008234Y-115442464D01*
X156972697Y-115423413D01*
X156970718Y-115421752D01*
X156892365Y-115520231D01*
G37*
G36*
X156771612Y-115564000D02*
G01*
X156771612Y-114680231D01*
X156614905Y-114680231D01*
X156614905Y-115564000D01*
X156771612Y-115564000D01*
G37*
G36*
X156490635Y-115231438D02*
G01*
X156268862Y-115564000D01*
X156451360Y-115564000D01*
X156593607Y-115320929D01*
X156490635Y-115231438D01*
G37*
G36*
X156661995Y-115428396D02*
G01*
X156677627Y-115279505D01*
X156381995Y-115062227D01*
X156286643Y-115146247D01*
X156661995Y-115428396D01*
G37*
G36*
X155595380Y-115574160D02*
G01*
X155888862Y-115074537D01*
X155702847Y-115074537D01*
X155535980Y-115412764D01*
X155632309Y-115409443D01*
X155487913Y-115074537D01*
X155313035Y-115074537D01*
X155590886Y-115574160D01*
X155595380Y-115574160D01*
G37*
G36*
X154954575Y-114812531D02*
G01*
X154995417Y-114814707D01*
X155034312Y-114820507D01*
X155074849Y-114831076D01*
X155109040Y-114845036D01*
X155143255Y-114866122D01*
X155173914Y-114893211D01*
X155181628Y-114901633D01*
X155204984Y-114933354D01*
X155224714Y-114970685D01*
X155239371Y-115009080D01*
X155242211Y-115018254D01*
X155251736Y-115057699D01*
X155258331Y-115101541D01*
X155261697Y-115143509D01*
X155262819Y-115188842D01*
X155261641Y-115229780D01*
X155257409Y-115273613D01*
X155250100Y-115314295D01*
X155238199Y-115356295D01*
X155233421Y-115369415D01*
X155217151Y-115406176D01*
X155195666Y-115442454D01*
X155170593Y-115473923D01*
X155142306Y-115500538D01*
X155108194Y-115524436D01*
X155070942Y-115542702D01*
X155031131Y-115555495D01*
X154989611Y-115562977D01*
X154950383Y-115565172D01*
X154911232Y-115563092D01*
X154869973Y-115556000D01*
X154830607Y-115543874D01*
X154796779Y-115528216D01*
X154762390Y-115505570D01*
X154730956Y-115477244D01*
X154722917Y-115468513D01*
X154698554Y-115436059D01*
X154677931Y-115398453D01*
X154662568Y-115360203D01*
X154659586Y-115351130D01*
X154649585Y-115312656D01*
X154642660Y-115270689D01*
X154639126Y-115231103D01*
X154637948Y-115188842D01*
X154638077Y-115184348D01*
X154806964Y-115184348D01*
X154807984Y-115218748D01*
X154812001Y-115258400D01*
X154819860Y-115298654D01*
X154823374Y-115311162D01*
X154838801Y-115347133D01*
X154864214Y-115379743D01*
X154872418Y-115386704D01*
X154910088Y-115404541D01*
X154951556Y-115409443D01*
X154964916Y-115408979D01*
X155003276Y-115401061D01*
X155037920Y-115379743D01*
X155045440Y-115371994D01*
X155068363Y-115337172D01*
X155081493Y-115299631D01*
X155087443Y-115270393D01*
X155092348Y-115228669D01*
X155093803Y-115187670D01*
X155093033Y-115157665D01*
X155088994Y-115115542D01*
X155081493Y-115076882D01*
X155079018Y-115067791D01*
X155063065Y-115030092D01*
X155037920Y-114998333D01*
X155029689Y-114991510D01*
X154992297Y-114974024D01*
X154951556Y-114969219D01*
X154937924Y-114969668D01*
X154898976Y-114977326D01*
X154864214Y-114997942D01*
X154858479Y-115003465D01*
X154834697Y-115036280D01*
X154819860Y-115074732D01*
X154813626Y-115102836D01*
X154808488Y-115143626D01*
X154806964Y-115184348D01*
X154638077Y-115184348D01*
X154639126Y-115147905D01*
X154643357Y-115104072D01*
X154650666Y-115063390D01*
X154662568Y-115021390D01*
X154667347Y-115008270D01*
X154683643Y-114971509D01*
X154705193Y-114935231D01*
X154730369Y-114903762D01*
X154758572Y-114877063D01*
X154792680Y-114853160D01*
X154830020Y-114834983D01*
X154869720Y-114822190D01*
X154911175Y-114814707D01*
X154950383Y-114812513D01*
X154954575Y-114812531D01*
G37*
G36*
X154581870Y-115483302D02*
G01*
X154572024Y-115444421D01*
X154556664Y-115425270D01*
X154523172Y-115404952D01*
X154501172Y-115401627D01*
X154462419Y-115413841D01*
X154448025Y-115425270D01*
X154426363Y-115458929D01*
X154422819Y-115483302D01*
X154431705Y-115521851D01*
X154448025Y-115542115D01*
X154482285Y-115561414D01*
X154501172Y-115564000D01*
X154540414Y-115553656D01*
X154556664Y-115542115D01*
X154578325Y-115508883D01*
X154581870Y-115483302D01*
G37*
G36*
X154058887Y-114812531D02*
G01*
X154099729Y-114814707D01*
X154138625Y-114820507D01*
X154179162Y-114831076D01*
X154213352Y-114845036D01*
X154247567Y-114866122D01*
X154278227Y-114893211D01*
X154285941Y-114901633D01*
X154309296Y-114933354D01*
X154329027Y-114970685D01*
X154343684Y-115009080D01*
X154346523Y-115018254D01*
X154356049Y-115057699D01*
X154362643Y-115101541D01*
X154366009Y-115143509D01*
X154367131Y-115188842D01*
X154365953Y-115229780D01*
X154361722Y-115273613D01*
X154354413Y-115314295D01*
X154342512Y-115356295D01*
X154337734Y-115369415D01*
X154321464Y-115406176D01*
X154299978Y-115442454D01*
X154274905Y-115473923D01*
X154246619Y-115500538D01*
X154212507Y-115524436D01*
X154175254Y-115542702D01*
X154135443Y-115555495D01*
X154093924Y-115562977D01*
X154054696Y-115565172D01*
X154015545Y-115563092D01*
X153974285Y-115556000D01*
X153934919Y-115543874D01*
X153901092Y-115528216D01*
X153866702Y-115505570D01*
X153835268Y-115477244D01*
X153827230Y-115468513D01*
X153802867Y-115436059D01*
X153782243Y-115398453D01*
X153766880Y-115360203D01*
X153763899Y-115351130D01*
X153753897Y-115312656D01*
X153746973Y-115270689D01*
X153743439Y-115231103D01*
X153742260Y-115188842D01*
X153742389Y-115184348D01*
X153911277Y-115184348D01*
X153912297Y-115218748D01*
X153916314Y-115258400D01*
X153924173Y-115298654D01*
X153927687Y-115311162D01*
X153943113Y-115347133D01*
X153968527Y-115379743D01*
X153976731Y-115386704D01*
X154014400Y-115404541D01*
X154055868Y-115409443D01*
X154069228Y-115408979D01*
X154107588Y-115401061D01*
X154142233Y-115379743D01*
X154149752Y-115371994D01*
X154172676Y-115337172D01*
X154185806Y-115299631D01*
X154191756Y-115270393D01*
X154196661Y-115228669D01*
X154198115Y-115187670D01*
X154197346Y-115157665D01*
X154193307Y-115115542D01*
X154185806Y-115076882D01*
X154183331Y-115067791D01*
X154167377Y-115030092D01*
X154142233Y-114998333D01*
X154134002Y-114991510D01*
X154096610Y-114974024D01*
X154055868Y-114969219D01*
X154042237Y-114969668D01*
X154003289Y-114977326D01*
X153968527Y-114997942D01*
X153962792Y-115003465D01*
X153939010Y-115036280D01*
X153924173Y-115074732D01*
X153917939Y-115102836D01*
X153912800Y-115143626D01*
X153911277Y-115184348D01*
X153742389Y-115184348D01*
X153743439Y-115147905D01*
X153747670Y-115104072D01*
X153754979Y-115063390D01*
X153766880Y-115021390D01*
X153771660Y-115008270D01*
X153787955Y-114971509D01*
X153809506Y-114935231D01*
X153834682Y-114903762D01*
X153862884Y-114877063D01*
X153896993Y-114853160D01*
X153934333Y-114834983D01*
X153974033Y-114822190D01*
X154015487Y-114814707D01*
X154054696Y-114812513D01*
X154058887Y-114812531D01*
G37*
G36*
X153686182Y-115483302D02*
G01*
X153676336Y-115444421D01*
X153660976Y-115425270D01*
X153627485Y-115404952D01*
X153605484Y-115401627D01*
X153566732Y-115413841D01*
X153552337Y-115425270D01*
X153530676Y-115458929D01*
X153527131Y-115483302D01*
X153536017Y-115521851D01*
X153552337Y-115542115D01*
X153586598Y-115561414D01*
X153605484Y-115564000D01*
X153644727Y-115553656D01*
X153660976Y-115542115D01*
X153682638Y-115508883D01*
X153686182Y-115483302D01*
G37*
G36*
X153454640Y-114821501D02*
G01*
X153231891Y-114821501D01*
X153231891Y-115564000D01*
X153395436Y-115564000D01*
X153395436Y-114978207D01*
X153454640Y-114978207D01*
X153454640Y-114821501D01*
G37*
D11*
G36*
X157255000Y-111724005D02*
G01*
X158861507Y-111026814D01*
X158861507Y-111009961D01*
X157255000Y-110312770D01*
X157255000Y-110665579D01*
X158384867Y-111110712D01*
X158536175Y-110890527D01*
X157255000Y-111423953D01*
X157255000Y-111724005D01*
G37*
G36*
X157813705Y-111247365D02*
G01*
X157813705Y-110783182D01*
X157557250Y-110676204D01*
X157557250Y-111341887D01*
X157813705Y-111247365D01*
G37*
G36*
X157235949Y-109812317D02*
G01*
X158172742Y-110362596D01*
X158172742Y-110013817D01*
X157538565Y-109700942D01*
X157544794Y-109881559D01*
X158172742Y-109610816D01*
X158172742Y-109282920D01*
X157235949Y-109803890D01*
X157235949Y-109812317D01*
G37*
G36*
X157751532Y-108175945D02*
G01*
X157826803Y-108184108D01*
X157904998Y-108204666D01*
X157977470Y-108237317D01*
X157991206Y-108245266D01*
X158054303Y-108291327D01*
X158108099Y-108347906D01*
X158152592Y-108415003D01*
X158174381Y-108459748D01*
X158198611Y-108532372D01*
X158212699Y-108611603D01*
X158216706Y-108687578D01*
X158215140Y-108735359D01*
X158204434Y-108816948D01*
X158183584Y-108892856D01*
X158152592Y-108963084D01*
X158140221Y-108985011D01*
X158098084Y-109045190D01*
X158042428Y-109102198D01*
X157977470Y-109148831D01*
X157949168Y-109164287D01*
X157874407Y-109193911D01*
X157802228Y-109209560D01*
X157725411Y-109214776D01*
X157677941Y-109213140D01*
X157597905Y-109201944D01*
X157524824Y-109180141D01*
X157458698Y-109147732D01*
X157444981Y-109139107D01*
X157382534Y-109090012D01*
X157330320Y-109030972D01*
X157288339Y-108961985D01*
X157268418Y-108916326D01*
X157246264Y-108843537D01*
X157233384Y-108765591D01*
X157229921Y-108696005D01*
X157469323Y-108696005D01*
X157474011Y-108741514D01*
X157502662Y-108809578D01*
X157533978Y-108846973D01*
X157593886Y-108889445D01*
X157647131Y-108909481D01*
X157723213Y-108918754D01*
X157780203Y-108913917D01*
X157853272Y-108889445D01*
X157892616Y-108864303D01*
X157943764Y-108809578D01*
X157964304Y-108769907D01*
X157977470Y-108696005D01*
X157972730Y-108646752D01*
X157943764Y-108576570D01*
X157915239Y-108541948D01*
X157853272Y-108498901D01*
X157796595Y-108479178D01*
X157723213Y-108471423D01*
X157667404Y-108475958D01*
X157593886Y-108498901D01*
X157554096Y-108522531D01*
X157502662Y-108576570D01*
X157481076Y-108620495D01*
X157469323Y-108696005D01*
X157229921Y-108696005D01*
X157229720Y-108691975D01*
X157232013Y-108633010D01*
X157242203Y-108559440D01*
X157263409Y-108483570D01*
X157294933Y-108415003D01*
X157303268Y-108400742D01*
X157350437Y-108335748D01*
X157406766Y-108281273D01*
X157472254Y-108237317D01*
X157500813Y-108222805D01*
X157576068Y-108194992D01*
X157648508Y-108180299D01*
X157725411Y-108175401D01*
X157751532Y-108175945D01*
G37*
G36*
X158912065Y-107944592D02*
G01*
X158912065Y-107650767D01*
X157255000Y-107650767D01*
X157255000Y-107944592D01*
X158912065Y-107944592D01*
G37*
G36*
X157751532Y-106380760D02*
G01*
X157826803Y-106388923D01*
X157904998Y-106409481D01*
X157977470Y-106442132D01*
X157991206Y-106450081D01*
X158054303Y-106496142D01*
X158108099Y-106552721D01*
X158152592Y-106619818D01*
X158174381Y-106664563D01*
X158198611Y-106737187D01*
X158212699Y-106816419D01*
X158216706Y-106892393D01*
X158215140Y-106940175D01*
X158204434Y-107021763D01*
X158183584Y-107097671D01*
X158152592Y-107167899D01*
X158140221Y-107189826D01*
X158098084Y-107250005D01*
X158042428Y-107307013D01*
X157977470Y-107353646D01*
X157949168Y-107369102D01*
X157874407Y-107398726D01*
X157802228Y-107414375D01*
X157725411Y-107419592D01*
X157677941Y-107417955D01*
X157597905Y-107406759D01*
X157524824Y-107384956D01*
X157458698Y-107352547D01*
X157444981Y-107343922D01*
X157382534Y-107294827D01*
X157330320Y-107235787D01*
X157288339Y-107166800D01*
X157268418Y-107121141D01*
X157246264Y-107048353D01*
X157233384Y-106970406D01*
X157229921Y-106900820D01*
X157469323Y-106900820D01*
X157474011Y-106946329D01*
X157502662Y-107014393D01*
X157533978Y-107051788D01*
X157593886Y-107094260D01*
X157647131Y-107114296D01*
X157723213Y-107123569D01*
X157780203Y-107118732D01*
X157853272Y-107094260D01*
X157892616Y-107069118D01*
X157943764Y-107014393D01*
X157964304Y-106974722D01*
X157977470Y-106900820D01*
X157972730Y-106851567D01*
X157943764Y-106781385D01*
X157915239Y-106746764D01*
X157853272Y-106703716D01*
X157796595Y-106683993D01*
X157723213Y-106676238D01*
X157667404Y-106680773D01*
X157593886Y-106703716D01*
X157554096Y-106727346D01*
X157502662Y-106781385D01*
X157481076Y-106825310D01*
X157469323Y-106900820D01*
X157229921Y-106900820D01*
X157229720Y-106896790D01*
X157232013Y-106837825D01*
X157242203Y-106764255D01*
X157263409Y-106688385D01*
X157294933Y-106619818D01*
X157303268Y-106605557D01*
X157350437Y-106540563D01*
X157406766Y-106486088D01*
X157472254Y-106442132D01*
X157500813Y-106427620D01*
X157576068Y-106399807D01*
X157648508Y-106385114D01*
X157725411Y-106380216D01*
X157751532Y-106380760D01*
G37*
D12*
%TO.C,J2*%
X139300000Y-106900000D03*
D13*
X139300000Y-109440000D03*
X139300000Y-111980000D03*
X139300000Y-114520000D03*
%TD*%
D14*
%TO.C,J3*%
X169000000Y-105500000D03*
D15*
X168500000Y-107950000D03*
X168500000Y-110000000D03*
D14*
X169000000Y-112450000D03*
%TD*%
D16*
%TO.C,J7*%
X129600000Y-103400000D03*
%TD*%
%TO.C,J4*%
X122900000Y-105400000D03*
%TD*%
%TO.C,J8*%
X131600000Y-103400000D03*
%TD*%
%TO.C,J11*%
X122900000Y-103400000D03*
%TD*%
%TO.C,J14*%
X122900000Y-114600000D03*
%TD*%
%TO.C,J12*%
X122900000Y-107400000D03*
%TD*%
%TO.C,J6*%
X122900000Y-109400000D03*
%TD*%
%TO.C,J10*%
X152900000Y-103400000D03*
%TD*%
%TO.C,J9*%
X150900000Y-103400000D03*
%TD*%
%TO.C,J13*%
X122900000Y-112600000D03*
%TD*%
M02*
