%TF.GenerationSoftware,KiCad,Pcbnew,8.0.4*%
%TF.CreationDate,2024-09-02T22:56:13+02:00*%
%TF.ProjectId,elrs-sim,656c7273-2d73-4696-9d2e-6b696361645f,rev?*%
%TF.SameCoordinates,Original*%
%TF.FileFunction,Copper,L2,Inr*%
%TF.FilePolarity,Positive*%
%FSLAX46Y46*%
G04 Gerber Fmt 4.6, Leading zero omitted, Abs format (unit mm)*
G04 Created by KiCad (PCBNEW 8.0.4) date 2024-09-02 22:56:13*
%MOMM*%
%LPD*%
G01*
G04 APERTURE LIST*
G04 Aperture macros list*
%AMRoundRect*
0 Rectangle with rounded corners*
0 $1 Rounding radius*
0 $2 $3 $4 $5 $6 $7 $8 $9 X,Y pos of 4 corners*
0 Add a 4 corners polygon primitive as box body*
4,1,4,$2,$3,$4,$5,$6,$7,$8,$9,$2,$3,0*
0 Add four circle primitives for the rounded corners*
1,1,$1+$1,$2,$3*
1,1,$1+$1,$4,$5*
1,1,$1+$1,$6,$7*
1,1,$1+$1,$8,$9*
0 Add four rect primitives between the rounded corners*
20,1,$1+$1,$2,$3,$4,$5,0*
20,1,$1+$1,$4,$5,$6,$7,0*
20,1,$1+$1,$6,$7,$8,$9,0*
20,1,$1+$1,$8,$9,$2,$3,0*%
G04 Aperture macros list end*
%TA.AperFunction,ComponentPad*%
%ADD10R,1.700000X1.700000*%
%TD*%
%TA.AperFunction,ComponentPad*%
%ADD11O,1.700000X1.700000*%
%TD*%
%TA.AperFunction,ComponentPad*%
%ADD12RoundRect,0.500000X-3.500000X0.500000X-3.500000X-0.500000X3.500000X-0.500000X3.500000X0.500000X0*%
%TD*%
%TA.AperFunction,ComponentPad*%
%ADD13RoundRect,0.500000X-3.000000X0.250000X-3.000000X-0.250000X3.000000X-0.250000X3.000000X0.250000X0*%
%TD*%
%TA.AperFunction,ViaPad*%
%ADD14C,0.450000*%
%TD*%
%TA.AperFunction,Conductor*%
%ADD15C,0.200000*%
%TD*%
G04 APERTURE END LIST*
D10*
%TO.N,GND*%
%TO.C,J2*%
X139100000Y-106900000D03*
D11*
%TO.N,USB_VBUS*%
X139100000Y-109440000D03*
%TO.N,RP2040_RX*%
X139100000Y-111980000D03*
%TO.N,RP2040_TX*%
X139100000Y-114520000D03*
%TD*%
D12*
%TO.N,unconnected-(J3-Pin_1-Pad1)*%
%TO.C,J3*%
X169000000Y-105500000D03*
D13*
%TO.N,unconnected-(J3-Pin_2-Pad2)*%
X168500000Y-107950000D03*
%TO.N,unconnected-(J3-Pin_3-Pad3)*%
X168500000Y-110000000D03*
D12*
%TO.N,unconnected-(J3-Pin_4-Pad4)*%
X169000000Y-112450000D03*
%TD*%
D14*
%TO.N,+3.3V*%
X140400000Y-110200000D03*
%TO.N,GND*%
X146825000Y-108625000D03*
X129700000Y-110500000D03*
X135000000Y-111500000D03*
X154325000Y-109325000D03*
%TO.N,+3.3V*%
X127600000Y-115200000D03*
X130300000Y-115200000D03*
X130700000Y-107975000D03*
X134700000Y-102900000D03*
X137000000Y-112300000D03*
X127600000Y-105900000D03*
X123700000Y-113400000D03*
X133935903Y-110110460D03*
%TO.N,IRS*%
X156025000Y-106625000D03*
X152325000Y-111225000D03*
%TO.N,BUSY*%
X150725000Y-106525000D03*
X145125000Y-105425000D03*
%TO.N,NRST*%
X150025000Y-107925000D03*
X154725000Y-104825000D03*
%TO.N,ESP_SCK*%
X154725000Y-112925003D03*
X149325000Y-110925000D03*
%TO.N,ESP_MOSI*%
X155325000Y-112325000D03*
X150025000Y-108925000D03*
%TO.N,ESP_MISO*%
X154725000Y-112325000D03*
X150025000Y-109925000D03*
%TO.N,DIO_1*%
X149325000Y-106425000D03*
X151525000Y-108525000D03*
%TO.N,NSS*%
X156725000Y-111025000D03*
X151525000Y-107925000D03*
%TO.N,ESP_LED*%
X144200000Y-103700000D03*
X149325000Y-111525000D03*
%TO.N,ESP_RX*%
X143100000Y-106600000D03*
X133000000Y-103700000D03*
%TO.N,ESP_TX*%
X143100000Y-107200000D03*
X137000000Y-106300000D03*
%TO.N,ESP_BOOT*%
X146200000Y-105300000D03*
X150025000Y-107325000D03*
%TO.N,USB_DN*%
X117000000Y-110075000D03*
X127100000Y-108900000D03*
%TO.N,USB_DP*%
X127100000Y-108300000D03*
X117000000Y-108025000D03*
%TO.N,USB_VBUS*%
X116500000Y-112525000D03*
X135500000Y-104200000D03*
X124600000Y-114600000D03*
%TO.N,RP2040_RX*%
X136300000Y-106300000D03*
%TO.N,RP2040_TX*%
X133300000Y-104700000D03*
X133400003Y-114500000D03*
%TO.N,SW_EN*%
X134200000Y-106300000D03*
X138800000Y-105100000D03*
%TO.N,RP2040_LED*%
X129100000Y-108000000D03*
X133300000Y-105500000D03*
%TO.N,QSPI_SS*%
X125500000Y-113400000D03*
X136900247Y-108300000D03*
%TO.N,QSPI_SD2*%
X125500000Y-112400000D03*
X135700241Y-108300000D03*
%TO.N,QSPI_SD3*%
X127200000Y-111000000D03*
X136400003Y-109700000D03*
%TO.N,QSPI_SD1*%
X136300244Y-108300000D03*
X127200000Y-113000000D03*
%TO.N,QSPI_SD0*%
X135200000Y-109700000D03*
X127200000Y-112000000D03*
%TO.N,QSPI_SCLK*%
X135800000Y-109700000D03*
X125499381Y-111400341D03*
%TO.N,+3.3V_SW*%
X146625000Y-112825000D03*
X150225000Y-112225000D03*
X149525000Y-104025000D03*
X144325000Y-109125000D03*
X134000000Y-102900000D03*
X150625003Y-109925000D03*
%TO.N,Net-(U1-GPIO5)*%
X133100000Y-113900000D03*
X129700000Y-114900000D03*
%TO.N,Net-(U1-GPIO4)*%
X132800000Y-114500000D03*
X128900000Y-114900000D03*
%TO.N,+3.3V_SW*%
X144700000Y-111125000D03*
%TD*%
D15*
%TO.N,BUSY*%
X145600000Y-105900000D02*
X145125000Y-105425000D01*
X149471752Y-105900000D02*
X145600000Y-105900000D01*
X150725000Y-106525000D02*
X150096752Y-106525000D01*
X150096752Y-106525000D02*
X149471752Y-105900000D01*
%TO.N,NRST*%
X154725000Y-104825000D02*
X154725000Y-106125000D01*
X153725000Y-107125000D02*
X150896752Y-107125000D01*
X150896752Y-107125000D02*
X150096752Y-107925000D01*
X150096752Y-107925000D02*
X150025000Y-107925000D01*
X154725000Y-106125000D02*
X153725000Y-107125000D01*
%TO.N,ESP_SCK*%
X149596752Y-110925000D02*
X149325000Y-110925000D01*
X151596755Y-112925003D02*
X149596752Y-110925000D01*
X154725000Y-112925003D02*
X151596755Y-112925003D01*
%TO.N,ESP_MOSI*%
X152150000Y-111850000D02*
X151100003Y-110800003D01*
X150296755Y-108925000D02*
X150025000Y-108925000D01*
X151100003Y-109728248D02*
X150296755Y-108925000D01*
X155325000Y-112253248D02*
X154921752Y-111850000D01*
X154921752Y-111850000D02*
X152150000Y-111850000D01*
X151100003Y-110800003D02*
X151100003Y-109728248D01*
X155325000Y-112325000D02*
X155325000Y-112253248D01*
%TO.N,ESP_MISO*%
X151925000Y-112325000D02*
X150025000Y-110425000D01*
X154725000Y-112325000D02*
X151925000Y-112325000D01*
X150025000Y-110425000D02*
X150025000Y-109925000D01*
%TO.N,DIO_1*%
X149325000Y-107896752D02*
X149853248Y-108425000D01*
X149325000Y-106425000D02*
X149325000Y-107896752D01*
X149853248Y-108425000D02*
X151425000Y-108425000D01*
X151425000Y-108425000D02*
X151525000Y-108525000D01*
%TO.N,NSS*%
X156725000Y-110525000D02*
X154125000Y-107925000D01*
X154125000Y-107925000D02*
X151525000Y-107925000D01*
X156725000Y-111025000D02*
X156725000Y-110525000D01*
%TO.N,ESP_RX*%
X140200000Y-103700000D02*
X143100000Y-106600000D01*
X133000000Y-103700000D02*
X140200000Y-103700000D01*
%TO.N,ESP_TX*%
X141628248Y-105800000D02*
X143028248Y-107200000D01*
X143028248Y-107200000D02*
X143100000Y-107200000D01*
X137500000Y-105800000D02*
X141628248Y-105800000D01*
X137000000Y-106300000D02*
X137500000Y-105800000D01*
%TO.N,USB_DN*%
X117000000Y-110075000D02*
X125925000Y-110075000D01*
X125925000Y-110075000D02*
X127100000Y-108900000D01*
%TO.N,USB_DP*%
X126825000Y-108025000D02*
X127100000Y-108300000D01*
X117000000Y-108025000D02*
X126825000Y-108025000D01*
%TO.N,USB_VBUS*%
X138365000Y-110175000D02*
X139100000Y-109440000D01*
X128100000Y-114000000D02*
X132550000Y-109550000D01*
X116500000Y-112525000D02*
X118575000Y-114600000D01*
X118575000Y-114600000D02*
X124600000Y-114600000D01*
X132550000Y-109550000D02*
X134378248Y-109550000D01*
X124600000Y-114600000D02*
X125200000Y-114000000D01*
X125200000Y-114000000D02*
X128100000Y-114000000D01*
X135003248Y-110175000D02*
X138365000Y-110175000D01*
X134378248Y-109550000D02*
X135003248Y-110175000D01*
%TO.N,RP2040_TX*%
X133400003Y-114500000D02*
X133420003Y-114520000D01*
X133420003Y-114520000D02*
X139100000Y-114520000D01*
%TO.N,SW_EN*%
X134200000Y-106300000D02*
X135400000Y-105100000D01*
X135400000Y-105100000D02*
X138800000Y-105100000D01*
%TO.N,RP2040_LED*%
X130900000Y-105500000D02*
X129100000Y-107300000D01*
X129100000Y-107300000D02*
X129100000Y-108000000D01*
X133300000Y-105500000D02*
X130900000Y-105500000D01*
%TO.N,QSPI_SS*%
X136900247Y-108300000D02*
X136900247Y-108371749D01*
X128650000Y-112750000D02*
X127925000Y-113475000D01*
X136900247Y-108371749D02*
X136071996Y-109200000D01*
X136071996Y-109200000D02*
X130100000Y-109200000D01*
X127925000Y-113475000D02*
X125575000Y-113475000D01*
X128650000Y-110650000D02*
X128650000Y-112750000D01*
X125575000Y-113475000D02*
X125500000Y-113400000D01*
X130100000Y-109200000D02*
X128650000Y-110650000D01*
%TO.N,QSPI_SD2*%
X127900000Y-110200000D02*
X129650000Y-108450000D01*
X125500000Y-112400000D02*
X125600000Y-112400000D01*
X135550241Y-108450000D02*
X135700241Y-108300000D01*
X127900000Y-112300000D02*
X127900000Y-110200000D01*
X125675000Y-112475000D02*
X127725000Y-112475000D01*
X129650000Y-108450000D02*
X135550241Y-108450000D01*
X127725000Y-112475000D02*
X127900000Y-112300000D01*
X125600000Y-112400000D02*
X125675000Y-112475000D01*
%TO.N,QSPI_SD1*%
X127800000Y-113000000D02*
X127200000Y-113000000D01*
X136300244Y-108300000D02*
X136300244Y-108371749D01*
X135871993Y-108800000D02*
X129900000Y-108800000D01*
X129900000Y-108800000D02*
X128300000Y-110400000D01*
X128300000Y-112500000D02*
X127800000Y-113000000D01*
X128300000Y-110400000D02*
X128300000Y-112500000D01*
X136300244Y-108371749D02*
X135871993Y-108800000D01*
%TO.N,Net-(U1-GPIO5)*%
X133100000Y-113900000D02*
X130700000Y-113900000D01*
X130700000Y-113900000D02*
X129700000Y-114900000D01*
%TO.N,Net-(U1-GPIO4)*%
X129375000Y-115675000D02*
X128900000Y-115200000D01*
X132800000Y-114500000D02*
X131625000Y-115675000D01*
X128900000Y-115200000D02*
X128900000Y-114900000D01*
X131625000Y-115675000D02*
X129375000Y-115675000D01*
%TD*%
%TA.AperFunction,Conductor*%
%TO.N,GND*%
G36*
X132211591Y-109464852D02*
G01*
X132225943Y-109499500D01*
X132211591Y-109534148D01*
X128984148Y-112761590D01*
X128949500Y-112775942D01*
X128914852Y-112761590D01*
X128900500Y-112726942D01*
X128900500Y-110774056D01*
X128914852Y-110739408D01*
X130189408Y-109464852D01*
X130224056Y-109450500D01*
X132176943Y-109450500D01*
X132211591Y-109464852D01*
G37*
%TD.AperFunction*%
%TA.AperFunction,Conductor*%
G36*
X162500612Y-102000015D02*
G01*
X162594042Y-102002303D01*
X162602388Y-102003229D01*
X162786257Y-102039803D01*
X162795436Y-102042586D01*
X162968082Y-102114099D01*
X162976547Y-102118624D01*
X163131916Y-102222438D01*
X163139341Y-102228532D01*
X163271467Y-102360658D01*
X163277561Y-102368083D01*
X163378947Y-102519819D01*
X163381373Y-102523449D01*
X163385901Y-102531920D01*
X163454891Y-102698476D01*
X163457410Y-102704556D01*
X163460198Y-102713749D01*
X163496769Y-102897605D01*
X163497696Y-102905964D01*
X163500000Y-103000000D01*
X173499412Y-103000000D01*
X173500612Y-103000015D01*
X173594042Y-103002303D01*
X173602388Y-103003229D01*
X173786257Y-103039803D01*
X173795436Y-103042586D01*
X173968082Y-103114099D01*
X173976547Y-103118624D01*
X174131916Y-103222438D01*
X174139341Y-103228532D01*
X174271467Y-103360658D01*
X174277561Y-103368083D01*
X174381373Y-103523449D01*
X174385901Y-103531920D01*
X174393080Y-103549251D01*
X174430774Y-103640253D01*
X174457410Y-103704556D01*
X174460198Y-103713749D01*
X174496769Y-103897605D01*
X174497696Y-103905964D01*
X174499985Y-103999387D01*
X174500000Y-104000587D01*
X174500000Y-113999412D01*
X174499985Y-114000612D01*
X174497696Y-114094035D01*
X174496769Y-114102394D01*
X174460198Y-114286250D01*
X174457410Y-114295443D01*
X174385901Y-114468079D01*
X174381373Y-114476550D01*
X174277561Y-114631916D01*
X174271467Y-114639341D01*
X174139341Y-114771467D01*
X174131916Y-114777561D01*
X173976550Y-114881373D01*
X173968079Y-114885901D01*
X173795443Y-114957410D01*
X173786250Y-114960198D01*
X173602394Y-114996769D01*
X173594035Y-114997696D01*
X173500612Y-114999985D01*
X173499412Y-115000000D01*
X163500000Y-115000000D01*
X163497696Y-115094035D01*
X163496769Y-115102394D01*
X163460198Y-115286250D01*
X163457410Y-115295443D01*
X163385901Y-115468079D01*
X163381373Y-115476550D01*
X163277561Y-115631916D01*
X163271467Y-115639341D01*
X163139341Y-115771467D01*
X163131916Y-115777561D01*
X162976550Y-115881373D01*
X162968079Y-115885901D01*
X162795443Y-115957410D01*
X162786250Y-115960198D01*
X162602394Y-115996769D01*
X162594035Y-115997696D01*
X162500612Y-115999985D01*
X162499412Y-116000000D01*
X131741309Y-116000000D01*
X131706661Y-115985648D01*
X131692309Y-115951000D01*
X131706661Y-115916352D01*
X131722557Y-115905730D01*
X131766897Y-115887364D01*
X132759968Y-114894290D01*
X132794615Y-114879939D01*
X132797688Y-114880181D01*
X132799998Y-114880181D01*
X132799999Y-114880180D01*
X132800000Y-114880181D01*
X132917482Y-114861574D01*
X132999431Y-114819819D01*
X133023460Y-114807576D01*
X133023462Y-114807574D01*
X133023465Y-114807573D01*
X133065352Y-114765684D01*
X133100000Y-114751332D01*
X133134648Y-114765683D01*
X133176537Y-114807572D01*
X133176544Y-114807577D01*
X133237090Y-114838426D01*
X133282521Y-114861574D01*
X133400003Y-114880181D01*
X133517485Y-114861574D01*
X133599434Y-114819819D01*
X133623461Y-114807577D01*
X133623463Y-114807575D01*
X133623468Y-114807573D01*
X133646189Y-114784852D01*
X133680837Y-114770500D01*
X138094127Y-114770500D01*
X138128775Y-114784852D01*
X138141017Y-114805276D01*
X138165475Y-114885901D01*
X138171186Y-114904727D01*
X138236944Y-115027752D01*
X138264092Y-115078541D01*
X138264094Y-115078544D01*
X138309411Y-115133762D01*
X138389117Y-115230883D01*
X138456582Y-115286250D01*
X138541455Y-115355905D01*
X138541458Y-115355907D01*
X138541462Y-115355910D01*
X138715273Y-115448814D01*
X138903868Y-115506024D01*
X139100000Y-115525341D01*
X139296132Y-115506024D01*
X139484727Y-115448814D01*
X139658538Y-115355910D01*
X139810883Y-115230883D01*
X139935910Y-115078538D01*
X140028814Y-114904727D01*
X140086024Y-114716132D01*
X140105341Y-114520000D01*
X140098520Y-114450748D01*
X163552402Y-114450748D01*
X163552402Y-114450750D01*
X163552402Y-114549250D01*
X163552402Y-114549252D01*
X163552403Y-114549253D01*
X163590096Y-114640253D01*
X163590098Y-114640256D01*
X163659744Y-114709902D01*
X163659746Y-114709903D01*
X163659747Y-114709904D01*
X163750750Y-114747598D01*
X163849248Y-114747598D01*
X163849250Y-114747598D01*
X163940253Y-114709904D01*
X163940254Y-114709902D01*
X163940256Y-114709902D01*
X164009902Y-114640256D01*
X164009902Y-114640255D01*
X164009904Y-114640253D01*
X164047598Y-114549250D01*
X164050000Y-114500000D01*
X164047598Y-114450750D01*
X164009904Y-114359747D01*
X164009902Y-114359745D01*
X164009902Y-114359744D01*
X163940256Y-114290098D01*
X163940253Y-114290096D01*
X163849253Y-114252403D01*
X163849251Y-114252402D01*
X163849250Y-114252402D01*
X163849248Y-114252402D01*
X163750752Y-114252402D01*
X163750750Y-114252402D01*
X163750748Y-114252402D01*
X163750746Y-114252403D01*
X163659746Y-114290096D01*
X163590096Y-114359746D01*
X163552403Y-114450746D01*
X163552402Y-114450748D01*
X140098520Y-114450748D01*
X140086024Y-114323868D01*
X140028814Y-114135273D01*
X139935910Y-113961462D01*
X139935907Y-113961458D01*
X139935905Y-113961455D01*
X139855710Y-113863739D01*
X139810883Y-113809117D01*
X139708996Y-113725500D01*
X139658544Y-113684094D01*
X139658541Y-113684092D01*
X139658539Y-113684091D01*
X139658538Y-113684090D01*
X139509797Y-113604586D01*
X139509793Y-113604584D01*
X163552402Y-113604584D01*
X163552402Y-113604586D01*
X163552402Y-113703086D01*
X163552402Y-113703088D01*
X163552403Y-113703089D01*
X163590096Y-113794089D01*
X163590098Y-113794092D01*
X163659744Y-113863738D01*
X163659746Y-113863739D01*
X163659747Y-113863740D01*
X163750750Y-113901434D01*
X163849248Y-113901434D01*
X163849250Y-113901434D01*
X163940253Y-113863740D01*
X163940254Y-113863738D01*
X163940256Y-113863738D01*
X164009902Y-113794092D01*
X164009902Y-113794091D01*
X164009904Y-113794089D01*
X164047598Y-113703086D01*
X164050000Y-113653836D01*
X164047598Y-113604586D01*
X164009904Y-113513583D01*
X164009902Y-113513581D01*
X164009902Y-113513580D01*
X163940256Y-113443934D01*
X163940253Y-113443932D01*
X163849253Y-113406239D01*
X163849251Y-113406238D01*
X163849250Y-113406238D01*
X163849248Y-113406238D01*
X163750752Y-113406238D01*
X163750750Y-113406238D01*
X163750748Y-113406238D01*
X163750746Y-113406239D01*
X163659746Y-113443932D01*
X163590096Y-113513582D01*
X163552403Y-113604582D01*
X163552402Y-113604584D01*
X139509793Y-113604584D01*
X139484726Y-113591185D01*
X139296132Y-113533976D01*
X139100000Y-113514659D01*
X138903867Y-113533976D01*
X138903866Y-113533976D01*
X138715273Y-113591185D01*
X138541458Y-113684092D01*
X138541455Y-113684094D01*
X138389117Y-113809117D01*
X138264094Y-113961455D01*
X138264092Y-113961458D01*
X138171188Y-114135268D01*
X138171185Y-114135275D01*
X138141017Y-114234724D01*
X138117225Y-114263714D01*
X138094127Y-114269500D01*
X133720837Y-114269500D01*
X133686189Y-114255148D01*
X133623468Y-114192427D01*
X133623461Y-114192422D01*
X133517488Y-114138427D01*
X133517486Y-114138426D01*
X133517485Y-114138426D01*
X133475336Y-114131750D01*
X133443362Y-114112155D01*
X133434607Y-114075688D01*
X133439345Y-114061108D01*
X133461574Y-114017482D01*
X133480181Y-113900000D01*
X133461574Y-113782518D01*
X133423388Y-113707573D01*
X133407577Y-113676541D01*
X133407572Y-113676534D01*
X133323465Y-113592427D01*
X133323458Y-113592422D01*
X133217484Y-113538427D01*
X133217483Y-113538426D01*
X133217482Y-113538426D01*
X133100000Y-113519819D01*
X132982518Y-113538426D01*
X132982516Y-113538426D01*
X132982515Y-113538427D01*
X132876541Y-113592422D01*
X132876534Y-113592427D01*
X132833814Y-113635148D01*
X132799166Y-113649500D01*
X130755537Y-113649500D01*
X130755529Y-113649499D01*
X130749828Y-113649499D01*
X130650173Y-113649499D01*
X130650171Y-113649499D01*
X130596240Y-113671839D01*
X130558101Y-113687636D01*
X130558100Y-113687637D01*
X130487636Y-113758103D01*
X130487635Y-113758104D01*
X129740029Y-114505708D01*
X129705381Y-114520060D01*
X129702311Y-114519819D01*
X129700001Y-114519819D01*
X129700000Y-114519819D01*
X129582518Y-114538426D01*
X129582516Y-114538426D01*
X129582515Y-114538427D01*
X129476541Y-114592422D01*
X129476534Y-114592427D01*
X129392427Y-114676534D01*
X129392422Y-114676541D01*
X129343659Y-114772246D01*
X129315142Y-114796603D01*
X129277755Y-114793660D01*
X129256341Y-114772246D01*
X129207577Y-114676541D01*
X129207572Y-114676534D01*
X129123465Y-114592427D01*
X129123458Y-114592422D01*
X129017484Y-114538427D01*
X129017483Y-114538426D01*
X129017482Y-114538426D01*
X128900000Y-114519819D01*
X128782518Y-114538426D01*
X128782516Y-114538426D01*
X128782515Y-114538427D01*
X128676541Y-114592422D01*
X128676534Y-114592427D01*
X128592427Y-114676534D01*
X128592422Y-114676541D01*
X128538427Y-114782515D01*
X128538426Y-114782516D01*
X128538426Y-114782518D01*
X128519819Y-114900000D01*
X128538426Y-115017482D01*
X128538426Y-115017483D01*
X128538427Y-115017484D01*
X128592422Y-115123458D01*
X128592427Y-115123465D01*
X128635148Y-115166186D01*
X128649500Y-115200834D01*
X128649500Y-115249829D01*
X128664586Y-115286250D01*
X128687636Y-115341897D01*
X128687637Y-115341898D01*
X128687637Y-115341899D01*
X129162636Y-115816897D01*
X129233100Y-115887362D01*
X129233101Y-115887362D01*
X129233103Y-115887364D01*
X129277443Y-115905730D01*
X129303961Y-115932249D01*
X129303961Y-115969752D01*
X129277442Y-115996270D01*
X129258691Y-116000000D01*
X122500588Y-116000000D01*
X122499388Y-115999985D01*
X122405964Y-115997696D01*
X122397605Y-115996769D01*
X122213749Y-115960198D01*
X122204556Y-115957410D01*
X122031920Y-115885901D01*
X122023449Y-115881373D01*
X121868083Y-115777561D01*
X121860658Y-115771467D01*
X121728532Y-115639341D01*
X121722438Y-115631916D01*
X121618624Y-115476547D01*
X121614098Y-115468079D01*
X121542586Y-115295436D01*
X121539803Y-115286257D01*
X121522645Y-115200000D01*
X127219819Y-115200000D01*
X127238426Y-115317482D01*
X127238426Y-115317483D01*
X127238427Y-115317484D01*
X127292422Y-115423458D01*
X127292427Y-115423465D01*
X127376534Y-115507572D01*
X127376541Y-115507577D01*
X127447190Y-115543573D01*
X127482518Y-115561574D01*
X127600000Y-115580181D01*
X127717482Y-115561574D01*
X127790988Y-115524120D01*
X127823458Y-115507577D01*
X127823460Y-115507575D01*
X127823465Y-115507573D01*
X127907573Y-115423465D01*
X127914359Y-115410148D01*
X127941995Y-115355907D01*
X127961574Y-115317482D01*
X127980181Y-115200000D01*
X127961574Y-115082518D01*
X127943573Y-115047190D01*
X127907577Y-114976541D01*
X127907572Y-114976534D01*
X127823465Y-114892427D01*
X127823458Y-114892422D01*
X127717484Y-114838427D01*
X127717483Y-114838426D01*
X127717482Y-114838426D01*
X127600000Y-114819819D01*
X127482518Y-114838426D01*
X127482516Y-114838426D01*
X127482515Y-114838427D01*
X127376541Y-114892422D01*
X127376534Y-114892427D01*
X127292427Y-114976534D01*
X127292422Y-114976541D01*
X127238427Y-115082515D01*
X127238426Y-115082516D01*
X127238426Y-115082518D01*
X127219819Y-115200000D01*
X121522645Y-115200000D01*
X121503229Y-115102388D01*
X121502303Y-115094042D01*
X121500000Y-115000000D01*
X112000588Y-115000000D01*
X111999388Y-114999985D01*
X111905964Y-114997696D01*
X111897605Y-114996769D01*
X111713749Y-114960198D01*
X111704556Y-114957410D01*
X111531920Y-114885901D01*
X111523449Y-114881373D01*
X111368083Y-114777561D01*
X111360658Y-114771467D01*
X111228532Y-114639341D01*
X111222438Y-114631916D01*
X111198536Y-114596144D01*
X111118624Y-114476547D01*
X111114098Y-114468079D01*
X111106920Y-114450750D01*
X111042586Y-114295436D01*
X111039803Y-114286257D01*
X111003229Y-114102388D01*
X111002303Y-114094042D01*
X111000015Y-114000612D01*
X111000000Y-113999412D01*
X111000000Y-112525000D01*
X116119819Y-112525000D01*
X116138426Y-112642482D01*
X116138426Y-112642483D01*
X116138427Y-112642484D01*
X116192422Y-112748458D01*
X116192427Y-112748465D01*
X116276534Y-112832572D01*
X116276541Y-112832577D01*
X116324344Y-112856933D01*
X116382518Y-112886574D01*
X116500000Y-112905181D01*
X116500001Y-112905180D01*
X116500002Y-112905181D01*
X116503856Y-112905181D01*
X116503856Y-112907018D01*
X116534176Y-112914292D01*
X116540030Y-112919291D01*
X118362636Y-114741897D01*
X118433100Y-114812362D01*
X118433101Y-114812362D01*
X118433103Y-114812364D01*
X118525172Y-114850500D01*
X124299166Y-114850500D01*
X124333814Y-114864852D01*
X124376534Y-114907572D01*
X124376541Y-114907577D01*
X124447190Y-114943573D01*
X124482518Y-114961574D01*
X124600000Y-114980181D01*
X124717482Y-114961574D01*
X124790988Y-114924120D01*
X124823458Y-114907577D01*
X124823460Y-114907575D01*
X124823465Y-114907573D01*
X124907573Y-114823465D01*
X124913230Y-114812364D01*
X124927247Y-114784852D01*
X124961574Y-114717482D01*
X124980181Y-114600000D01*
X124980181Y-114599998D01*
X124980181Y-114596144D01*
X124982015Y-114596144D01*
X124989297Y-114565814D01*
X124994284Y-114559975D01*
X125289409Y-114264852D01*
X125324057Y-114250500D01*
X128149826Y-114250500D01*
X128149828Y-114250500D01*
X128241897Y-114212364D01*
X130154261Y-112300000D01*
X136619819Y-112300000D01*
X136638426Y-112417482D01*
X136638426Y-112417483D01*
X136638427Y-112417484D01*
X136692422Y-112523458D01*
X136692427Y-112523465D01*
X136776534Y-112607572D01*
X136776541Y-112607577D01*
X136825598Y-112632572D01*
X136882518Y-112661574D01*
X137000000Y-112680181D01*
X137117482Y-112661574D01*
X137194299Y-112622434D01*
X137223458Y-112607577D01*
X137223460Y-112607575D01*
X137223465Y-112607573D01*
X137307573Y-112523465D01*
X137310621Y-112517484D01*
X137324120Y-112490988D01*
X137361574Y-112417482D01*
X137380181Y-112300000D01*
X137361574Y-112182518D01*
X137323360Y-112107518D01*
X137307577Y-112076541D01*
X137307572Y-112076534D01*
X137223465Y-111992427D01*
X137223458Y-111992422D01*
X137199076Y-111979999D01*
X138094659Y-111979999D01*
X138094659Y-111980000D01*
X138113976Y-112176132D01*
X138113976Y-112176133D01*
X138171185Y-112364726D01*
X138194058Y-112407518D01*
X138263462Y-112537364D01*
X138264092Y-112538541D01*
X138264094Y-112538544D01*
X138318782Y-112605180D01*
X138389117Y-112690883D01*
X138475251Y-112761572D01*
X138541455Y-112815905D01*
X138541458Y-112815907D01*
X138541462Y-112815910D01*
X138715273Y-112908814D01*
X138903868Y-112966024D01*
X139100000Y-112985341D01*
X139296132Y-112966024D01*
X139484727Y-112908814D01*
X139641532Y-112825000D01*
X146244819Y-112825000D01*
X146263426Y-112942482D01*
X146263426Y-112942483D01*
X146263427Y-112942484D01*
X146317422Y-113048458D01*
X146317427Y-113048465D01*
X146401534Y-113132572D01*
X146401541Y-113132577D01*
X146472190Y-113168573D01*
X146507518Y-113186574D01*
X146625000Y-113205181D01*
X146742482Y-113186574D01*
X146817283Y-113148461D01*
X146848458Y-113132577D01*
X146848460Y-113132575D01*
X146848465Y-113132573D01*
X146932573Y-113048465D01*
X146986574Y-112942482D01*
X147005181Y-112825000D01*
X146986574Y-112707518D01*
X146963979Y-112663172D01*
X146932577Y-112601541D01*
X146932572Y-112601534D01*
X146848465Y-112517427D01*
X146848458Y-112517422D01*
X146742484Y-112463427D01*
X146742483Y-112463426D01*
X146742482Y-112463426D01*
X146625000Y-112444819D01*
X146507518Y-112463426D01*
X146507516Y-112463426D01*
X146507515Y-112463427D01*
X146401541Y-112517422D01*
X146401534Y-112517427D01*
X146317427Y-112601534D01*
X146317422Y-112601541D01*
X146263427Y-112707515D01*
X146263426Y-112707516D01*
X146263426Y-112707518D01*
X146244819Y-112825000D01*
X139641532Y-112825000D01*
X139658538Y-112815910D01*
X139810883Y-112690883D01*
X139935910Y-112538538D01*
X140028814Y-112364727D01*
X140086024Y-112176132D01*
X140105341Y-111980000D01*
X140086024Y-111783868D01*
X140028814Y-111595273D01*
X139935910Y-111421462D01*
X139935907Y-111421458D01*
X139935905Y-111421455D01*
X139882537Y-111356427D01*
X139810883Y-111269117D01*
X139710350Y-111186611D01*
X139658544Y-111144094D01*
X139658541Y-111144092D01*
X139658539Y-111144091D01*
X139658538Y-111144090D01*
X139622823Y-111125000D01*
X144319819Y-111125000D01*
X144338426Y-111242482D01*
X144338426Y-111242483D01*
X144338427Y-111242484D01*
X144392422Y-111348458D01*
X144392427Y-111348465D01*
X144476534Y-111432572D01*
X144476541Y-111432577D01*
X144520032Y-111454736D01*
X144582518Y-111486574D01*
X144700000Y-111505181D01*
X144817482Y-111486574D01*
X144892289Y-111448458D01*
X144923458Y-111432577D01*
X144923460Y-111432575D01*
X144923465Y-111432573D01*
X145007573Y-111348465D01*
X145007680Y-111348256D01*
X145028406Y-111307577D01*
X145061574Y-111242482D01*
X145080181Y-111125000D01*
X145061574Y-111007518D01*
X145043573Y-110972190D01*
X145007577Y-110901541D01*
X145007572Y-110901534D01*
X144923465Y-110817427D01*
X144923458Y-110817422D01*
X144817484Y-110763427D01*
X144817483Y-110763426D01*
X144817482Y-110763426D01*
X144700000Y-110744819D01*
X144582518Y-110763426D01*
X144582516Y-110763426D01*
X144582515Y-110763427D01*
X144476541Y-110817422D01*
X144476534Y-110817427D01*
X144392427Y-110901534D01*
X144392422Y-110901541D01*
X144338427Y-111007515D01*
X144338426Y-111007516D01*
X144338426Y-111007518D01*
X144319819Y-111125000D01*
X139622823Y-111125000D01*
X139578592Y-111101358D01*
X139484726Y-111051185D01*
X139296132Y-110993976D01*
X139100000Y-110974659D01*
X138903867Y-110993976D01*
X138903866Y-110993976D01*
X138715273Y-111051185D01*
X138541458Y-111144092D01*
X138541455Y-111144094D01*
X138389117Y-111269117D01*
X138264094Y-111421455D01*
X138264092Y-111421458D01*
X138171185Y-111595273D01*
X138113976Y-111783866D01*
X138113976Y-111783867D01*
X138094659Y-111979999D01*
X137199076Y-111979999D01*
X137117484Y-111938427D01*
X137117483Y-111938426D01*
X137117482Y-111938426D01*
X137000000Y-111919819D01*
X136882518Y-111938426D01*
X136882516Y-111938426D01*
X136882515Y-111938427D01*
X136776541Y-111992422D01*
X136776534Y-111992427D01*
X136692427Y-112076534D01*
X136692422Y-112076541D01*
X136638427Y-112182515D01*
X136638426Y-112182516D01*
X136638426Y-112182518D01*
X136619819Y-112300000D01*
X130154261Y-112300000D01*
X132639409Y-109814852D01*
X132674057Y-109800500D01*
X133596529Y-109800500D01*
X133631177Y-109814852D01*
X133645529Y-109849500D01*
X133631177Y-109884148D01*
X133628330Y-109886994D01*
X133628325Y-109887001D01*
X133574330Y-109992975D01*
X133574329Y-109992976D01*
X133574329Y-109992978D01*
X133555722Y-110110460D01*
X133574329Y-110227942D01*
X133574329Y-110227943D01*
X133574330Y-110227944D01*
X133628325Y-110333918D01*
X133628330Y-110333925D01*
X133712437Y-110418032D01*
X133712444Y-110418037D01*
X133766033Y-110445341D01*
X133818421Y-110472034D01*
X133935903Y-110490641D01*
X134053385Y-110472034D01*
X134143687Y-110426023D01*
X134159361Y-110418037D01*
X134159363Y-110418035D01*
X134159368Y-110418033D01*
X134243476Y-110333925D01*
X134247770Y-110325499D01*
X134267201Y-110287362D01*
X134297477Y-110227942D01*
X134316084Y-110110460D01*
X134297477Y-109992978D01*
X134262841Y-109925000D01*
X134261859Y-109923072D01*
X134258916Y-109885685D01*
X134283273Y-109857168D01*
X134320660Y-109854225D01*
X134340166Y-109866179D01*
X134861348Y-110387362D01*
X134861349Y-110387362D01*
X134861351Y-110387364D01*
X134953420Y-110425500D01*
X134953422Y-110425500D01*
X138414826Y-110425500D01*
X138414828Y-110425500D01*
X138506897Y-110387364D01*
X138565872Y-110328388D01*
X138600518Y-110314037D01*
X138623617Y-110319822D01*
X138715273Y-110368814D01*
X138903868Y-110426024D01*
X139100000Y-110445341D01*
X139296132Y-110426024D01*
X139484727Y-110368814D01*
X139658538Y-110275910D01*
X139751034Y-110200000D01*
X140019819Y-110200000D01*
X140038426Y-110317482D01*
X140038426Y-110317483D01*
X140038427Y-110317484D01*
X140092422Y-110423458D01*
X140092427Y-110423465D01*
X140176534Y-110507572D01*
X140176541Y-110507577D01*
X140247190Y-110543573D01*
X140282518Y-110561574D01*
X140400000Y-110580181D01*
X140517482Y-110561574D01*
X140617921Y-110510398D01*
X140623458Y-110507577D01*
X140623460Y-110507575D01*
X140623465Y-110507573D01*
X140707573Y-110423465D01*
X140710342Y-110418032D01*
X140728406Y-110382577D01*
X140761574Y-110317482D01*
X140780181Y-110200000D01*
X140761574Y-110082518D01*
X140730548Y-110021626D01*
X140707577Y-109976541D01*
X140707572Y-109976534D01*
X140623465Y-109892427D01*
X140623458Y-109892422D01*
X140517484Y-109838427D01*
X140517483Y-109838426D01*
X140517482Y-109838426D01*
X140400000Y-109819819D01*
X140282518Y-109838426D01*
X140282516Y-109838426D01*
X140282515Y-109838427D01*
X140176541Y-109892422D01*
X140176534Y-109892427D01*
X140092427Y-109976534D01*
X140092422Y-109976541D01*
X140038427Y-110082515D01*
X140038426Y-110082516D01*
X140038426Y-110082518D01*
X140019819Y-110200000D01*
X139751034Y-110200000D01*
X139810883Y-110150883D01*
X139935910Y-109998538D01*
X140028814Y-109824727D01*
X140086024Y-109636132D01*
X140105341Y-109440000D01*
X140086024Y-109243868D01*
X140049966Y-109125000D01*
X143944819Y-109125000D01*
X143963426Y-109242482D01*
X143963426Y-109242483D01*
X143963427Y-109242484D01*
X144017422Y-109348458D01*
X144017427Y-109348465D01*
X144101534Y-109432572D01*
X144101541Y-109432577D01*
X144164886Y-109464852D01*
X144207518Y-109486574D01*
X144325000Y-109505181D01*
X144442482Y-109486574D01*
X144533891Y-109439999D01*
X144548458Y-109432577D01*
X144548460Y-109432575D01*
X144548465Y-109432573D01*
X144632573Y-109348465D01*
X144632741Y-109348137D01*
X144654628Y-109305180D01*
X144686574Y-109242482D01*
X144705181Y-109125000D01*
X144686574Y-109007518D01*
X144668573Y-108972190D01*
X144632577Y-108901541D01*
X144632572Y-108901534D01*
X144548465Y-108817427D01*
X144548458Y-108817422D01*
X144442484Y-108763427D01*
X144442483Y-108763426D01*
X144442482Y-108763426D01*
X144325000Y-108744819D01*
X144207518Y-108763426D01*
X144207516Y-108763426D01*
X144207515Y-108763427D01*
X144101541Y-108817422D01*
X144101534Y-108817427D01*
X144017427Y-108901534D01*
X144017422Y-108901541D01*
X143963427Y-109007515D01*
X143963426Y-109007516D01*
X143963426Y-109007518D01*
X143944819Y-109125000D01*
X140049966Y-109125000D01*
X140028814Y-109055273D01*
X139935910Y-108881462D01*
X139935907Y-108881458D01*
X139935905Y-108881455D01*
X139870486Y-108801743D01*
X139810883Y-108729117D01*
X139700217Y-108638295D01*
X139658544Y-108604094D01*
X139658541Y-108604092D01*
X139658539Y-108604091D01*
X139658538Y-108604090D01*
X139515559Y-108527666D01*
X139484726Y-108511185D01*
X139296132Y-108453976D01*
X139100000Y-108434659D01*
X138903867Y-108453976D01*
X138903866Y-108453976D01*
X138715273Y-108511185D01*
X138541458Y-108604092D01*
X138541455Y-108604094D01*
X138389117Y-108729117D01*
X138264094Y-108881455D01*
X138264092Y-108881458D01*
X138171185Y-109055273D01*
X138113976Y-109243866D01*
X138113976Y-109243867D01*
X138094659Y-109439999D01*
X138094659Y-109440000D01*
X138113976Y-109636132D01*
X138113976Y-109636133D01*
X138171185Y-109824724D01*
X138171188Y-109824731D01*
X138185978Y-109852401D01*
X138189654Y-109889724D01*
X138165863Y-109918714D01*
X138142764Y-109924500D01*
X136787009Y-109924500D01*
X136752361Y-109910148D01*
X136738009Y-109875500D01*
X136743350Y-109853254D01*
X136744226Y-109851535D01*
X136761577Y-109817482D01*
X136780184Y-109700000D01*
X136761577Y-109582518D01*
X136736931Y-109534148D01*
X136707580Y-109476541D01*
X136707575Y-109476534D01*
X136623468Y-109392427D01*
X136623461Y-109392422D01*
X136517487Y-109338427D01*
X136517486Y-109338426D01*
X136517485Y-109338426D01*
X136414212Y-109322069D01*
X136382236Y-109302474D01*
X136373481Y-109266008D01*
X136387229Y-109239026D01*
X136943442Y-108682812D01*
X136970422Y-108669065D01*
X137017729Y-108661574D01*
X137074999Y-108632393D01*
X137123705Y-108607577D01*
X137123707Y-108607575D01*
X137123712Y-108607573D01*
X137207820Y-108523465D01*
X137214077Y-108511186D01*
X137224367Y-108490988D01*
X137261821Y-108417482D01*
X137280428Y-108300000D01*
X137261821Y-108182518D01*
X137221435Y-108103255D01*
X137207824Y-108076541D01*
X137207819Y-108076534D01*
X137123712Y-107992427D01*
X137123705Y-107992422D01*
X137017731Y-107938427D01*
X137017730Y-107938426D01*
X137017729Y-107938426D01*
X136900247Y-107919819D01*
X136782765Y-107938426D01*
X136782763Y-107938426D01*
X136782762Y-107938427D01*
X136676788Y-107992422D01*
X136676784Y-107992425D01*
X136676782Y-107992427D01*
X136634892Y-108034316D01*
X136600244Y-108048667D01*
X136565597Y-108034315D01*
X136523709Y-107992427D01*
X136523702Y-107992422D01*
X136417728Y-107938427D01*
X136417727Y-107938426D01*
X136417726Y-107938426D01*
X136300244Y-107919819D01*
X136182762Y-107938426D01*
X136182760Y-107938426D01*
X136182759Y-107938427D01*
X136076785Y-107992422D01*
X136076781Y-107992425D01*
X136076779Y-107992427D01*
X136034889Y-108034316D01*
X136000241Y-108048667D01*
X135965594Y-108034315D01*
X135923706Y-107992427D01*
X135923699Y-107992422D01*
X135817725Y-107938427D01*
X135817724Y-107938426D01*
X135817723Y-107938426D01*
X135700241Y-107919819D01*
X135582759Y-107938426D01*
X135582757Y-107938426D01*
X135582756Y-107938427D01*
X135476782Y-107992422D01*
X135476775Y-107992427D01*
X135392668Y-108076534D01*
X135392663Y-108076541D01*
X135343646Y-108172745D01*
X135315129Y-108197102D01*
X135299987Y-108199500D01*
X131087006Y-108199500D01*
X131052358Y-108185148D01*
X131038006Y-108150500D01*
X131043347Y-108128254D01*
X131048836Y-108117482D01*
X131061574Y-108092482D01*
X131080181Y-107975000D01*
X131061574Y-107857518D01*
X131038706Y-107812637D01*
X131007577Y-107751541D01*
X131007572Y-107751534D01*
X130923465Y-107667427D01*
X130923458Y-107667422D01*
X130817484Y-107613427D01*
X130817483Y-107613426D01*
X130817482Y-107613426D01*
X130700000Y-107594819D01*
X130582518Y-107613426D01*
X130582516Y-107613426D01*
X130582515Y-107613427D01*
X130476541Y-107667422D01*
X130476534Y-107667427D01*
X130392427Y-107751534D01*
X130392422Y-107751541D01*
X130338427Y-107857515D01*
X130338426Y-107857516D01*
X130338426Y-107857518D01*
X130319819Y-107975000D01*
X130338426Y-108092483D01*
X130356653Y-108128254D01*
X130359596Y-108165642D01*
X130335240Y-108194159D01*
X130312994Y-108199500D01*
X129705537Y-108199500D01*
X129705529Y-108199499D01*
X129699828Y-108199499D01*
X129600172Y-108199499D01*
X129600170Y-108199499D01*
X129542315Y-108223465D01*
X129508101Y-108237637D01*
X129508097Y-108237639D01*
X129507173Y-108238564D01*
X129505965Y-108239063D01*
X129504087Y-108240319D01*
X129503837Y-108239945D01*
X129472523Y-108252912D01*
X129437877Y-108238556D01*
X129423529Y-108203906D01*
X129428869Y-108181668D01*
X129461574Y-108117482D01*
X129480181Y-108000000D01*
X129461574Y-107882518D01*
X129443438Y-107846924D01*
X129407577Y-107776541D01*
X129407572Y-107776534D01*
X129364852Y-107733814D01*
X129350500Y-107699166D01*
X129350500Y-107424057D01*
X129364852Y-107389409D01*
X130989409Y-105764852D01*
X131024057Y-105750500D01*
X132999166Y-105750500D01*
X133033814Y-105764852D01*
X133076534Y-105807572D01*
X133076541Y-105807577D01*
X133117718Y-105828557D01*
X133182518Y-105861574D01*
X133300000Y-105880181D01*
X133417482Y-105861574D01*
X133500467Y-105819291D01*
X133523458Y-105807577D01*
X133523460Y-105807575D01*
X133523465Y-105807573D01*
X133607573Y-105723465D01*
X133661574Y-105617482D01*
X133680181Y-105500000D01*
X133661574Y-105382518D01*
X133631485Y-105323465D01*
X133607577Y-105276541D01*
X133607572Y-105276534D01*
X133523465Y-105192427D01*
X133523458Y-105192422D01*
X133427753Y-105143659D01*
X133403396Y-105115142D01*
X133406339Y-105077755D01*
X133427753Y-105056341D01*
X133523458Y-105007577D01*
X133523460Y-105007575D01*
X133523465Y-105007573D01*
X133607573Y-104923465D01*
X133620838Y-104897432D01*
X133631485Y-104876535D01*
X133661574Y-104817482D01*
X133680181Y-104700000D01*
X133661574Y-104582518D01*
X133623388Y-104507573D01*
X133607577Y-104476541D01*
X133607572Y-104476534D01*
X133523465Y-104392427D01*
X133523458Y-104392422D01*
X133417484Y-104338427D01*
X133417483Y-104338426D01*
X133417482Y-104338426D01*
X133300000Y-104319819D01*
X133182518Y-104338426D01*
X133182516Y-104338426D01*
X133182515Y-104338427D01*
X133076541Y-104392422D01*
X133076534Y-104392427D01*
X132992427Y-104476534D01*
X132992422Y-104476541D01*
X132938427Y-104582515D01*
X132938426Y-104582516D01*
X132938426Y-104582518D01*
X132919819Y-104700000D01*
X132938426Y-104817482D01*
X132938426Y-104817483D01*
X132938427Y-104817484D01*
X132992422Y-104923458D01*
X132992427Y-104923465D01*
X133076534Y-105007572D01*
X133076541Y-105007577D01*
X133172246Y-105056341D01*
X133196603Y-105084858D01*
X133193660Y-105122245D01*
X133172246Y-105143659D01*
X133076541Y-105192422D01*
X133076534Y-105192427D01*
X133033814Y-105235148D01*
X132999166Y-105249500D01*
X130850170Y-105249500D01*
X130758101Y-105287637D01*
X130758100Y-105287637D01*
X128958103Y-107087636D01*
X128887637Y-107158100D01*
X128887637Y-107158101D01*
X128849500Y-107250170D01*
X128849500Y-107699166D01*
X128835148Y-107733814D01*
X128792427Y-107776534D01*
X128792422Y-107776541D01*
X128738427Y-107882515D01*
X128738426Y-107882516D01*
X128738426Y-107882518D01*
X128719819Y-108000000D01*
X128738426Y-108117482D01*
X128738426Y-108117483D01*
X128738427Y-108117484D01*
X128792422Y-108223458D01*
X128792427Y-108223465D01*
X128876534Y-108307572D01*
X128876541Y-108307577D01*
X128925598Y-108332572D01*
X128982518Y-108361574D01*
X129100000Y-108380181D01*
X129217482Y-108361574D01*
X129281669Y-108328868D01*
X129319054Y-108325926D01*
X129347572Y-108350282D01*
X129350515Y-108387669D01*
X129338561Y-108407176D01*
X127751211Y-109994527D01*
X127687637Y-110058101D01*
X127649500Y-110150170D01*
X127649500Y-110850983D01*
X127635148Y-110885631D01*
X127600500Y-110899983D01*
X127565852Y-110885631D01*
X127556841Y-110873228D01*
X127507577Y-110776541D01*
X127507572Y-110776534D01*
X127423465Y-110692427D01*
X127423458Y-110692422D01*
X127317484Y-110638427D01*
X127317483Y-110638426D01*
X127317482Y-110638426D01*
X127200000Y-110619819D01*
X127082518Y-110638426D01*
X127082516Y-110638426D01*
X127082515Y-110638427D01*
X126976541Y-110692422D01*
X126976534Y-110692427D01*
X126892427Y-110776534D01*
X126892422Y-110776541D01*
X126838427Y-110882515D01*
X126838426Y-110882516D01*
X126838426Y-110882518D01*
X126819819Y-111000000D01*
X126838426Y-111117482D01*
X126838426Y-111117483D01*
X126838427Y-111117484D01*
X126892422Y-111223458D01*
X126892427Y-111223465D01*
X126976534Y-111307572D01*
X126976541Y-111307577D01*
X127025598Y-111332572D01*
X127082518Y-111361574D01*
X127200000Y-111380181D01*
X127317482Y-111361574D01*
X127390988Y-111324120D01*
X127423458Y-111307577D01*
X127423460Y-111307575D01*
X127423465Y-111307573D01*
X127507573Y-111223465D01*
X127556841Y-111126769D01*
X127585358Y-111102414D01*
X127622745Y-111105356D01*
X127647102Y-111133874D01*
X127649500Y-111149016D01*
X127649500Y-111850983D01*
X127635148Y-111885631D01*
X127600500Y-111899983D01*
X127565852Y-111885631D01*
X127556841Y-111873228D01*
X127507577Y-111776541D01*
X127507572Y-111776534D01*
X127423465Y-111692427D01*
X127423458Y-111692422D01*
X127317484Y-111638427D01*
X127317483Y-111638426D01*
X127317482Y-111638426D01*
X127200000Y-111619819D01*
X127082518Y-111638426D01*
X127082516Y-111638426D01*
X127082515Y-111638427D01*
X126976541Y-111692422D01*
X126976534Y-111692427D01*
X126892427Y-111776534D01*
X126892422Y-111776541D01*
X126838427Y-111882515D01*
X126838426Y-111882516D01*
X126838426Y-111882518D01*
X126829571Y-111938426D01*
X126819819Y-112000000D01*
X126838426Y-112117483D01*
X126856653Y-112153254D01*
X126859596Y-112190642D01*
X126835240Y-112219159D01*
X126812994Y-112224500D01*
X125862039Y-112224500D01*
X125827391Y-112210148D01*
X125818379Y-112197744D01*
X125817612Y-112196239D01*
X125807573Y-112176535D01*
X125723465Y-112092427D01*
X125723458Y-112092422D01*
X125617484Y-112038427D01*
X125617483Y-112038426D01*
X125617482Y-112038426D01*
X125500000Y-112019819D01*
X125382518Y-112038426D01*
X125382516Y-112038426D01*
X125382515Y-112038427D01*
X125276541Y-112092422D01*
X125276534Y-112092427D01*
X125192427Y-112176534D01*
X125192422Y-112176541D01*
X125138427Y-112282515D01*
X125138426Y-112282516D01*
X125138426Y-112282518D01*
X125119819Y-112400000D01*
X125138426Y-112517482D01*
X125138426Y-112517483D01*
X125138427Y-112517484D01*
X125192422Y-112623458D01*
X125192427Y-112623465D01*
X125276534Y-112707572D01*
X125276541Y-112707577D01*
X125339886Y-112739852D01*
X125382518Y-112761574D01*
X125500000Y-112780181D01*
X125617482Y-112761574D01*
X125660114Y-112739852D01*
X125677800Y-112730841D01*
X125700045Y-112725500D01*
X125724828Y-112725500D01*
X126838469Y-112725500D01*
X126873117Y-112739852D01*
X126887469Y-112774500D01*
X126882129Y-112796745D01*
X126838426Y-112882517D01*
X126819819Y-113000000D01*
X126838426Y-113117483D01*
X126856653Y-113153254D01*
X126859596Y-113190642D01*
X126835240Y-113219159D01*
X126812994Y-113224500D01*
X125862039Y-113224500D01*
X125827391Y-113210148D01*
X125818379Y-113197744D01*
X125807574Y-113176537D01*
X125807573Y-113176535D01*
X125723465Y-113092427D01*
X125723458Y-113092422D01*
X125617484Y-113038427D01*
X125617483Y-113038426D01*
X125617482Y-113038426D01*
X125500000Y-113019819D01*
X125382518Y-113038426D01*
X125382516Y-113038426D01*
X125382515Y-113038427D01*
X125276541Y-113092422D01*
X125276534Y-113092427D01*
X125192427Y-113176534D01*
X125192422Y-113176541D01*
X125138427Y-113282515D01*
X125138426Y-113282516D01*
X125138426Y-113282518D01*
X125119819Y-113400000D01*
X125138426Y-113517482D01*
X125138426Y-113517483D01*
X125138427Y-113517484D01*
X125192422Y-113623458D01*
X125192427Y-113623465D01*
X125234814Y-113665852D01*
X125249166Y-113700500D01*
X125234814Y-113735148D01*
X125200166Y-113749500D01*
X125150170Y-113749500D01*
X125058101Y-113787637D01*
X125058099Y-113787638D01*
X124640029Y-114205708D01*
X124605381Y-114220060D01*
X124602311Y-114219819D01*
X124600001Y-114219819D01*
X124600000Y-114219819D01*
X124482518Y-114238426D01*
X124482516Y-114238426D01*
X124482515Y-114238427D01*
X124376541Y-114292422D01*
X124376534Y-114292427D01*
X124333814Y-114335148D01*
X124299166Y-114349500D01*
X118699057Y-114349500D01*
X118664409Y-114335148D01*
X117729261Y-113400000D01*
X123319819Y-113400000D01*
X123338426Y-113517482D01*
X123338426Y-113517483D01*
X123338427Y-113517484D01*
X123392422Y-113623458D01*
X123392427Y-113623465D01*
X123476534Y-113707572D01*
X123476541Y-113707577D01*
X123530654Y-113735148D01*
X123582518Y-113761574D01*
X123700000Y-113780181D01*
X123817482Y-113761574D01*
X123890988Y-113724120D01*
X123923458Y-113707577D01*
X123923460Y-113707575D01*
X123923465Y-113707573D01*
X124007573Y-113623465D01*
X124017193Y-113604586D01*
X124024120Y-113590988D01*
X124061574Y-113517482D01*
X124080181Y-113400000D01*
X124061574Y-113282518D01*
X124043573Y-113247190D01*
X124007577Y-113176541D01*
X124007572Y-113176534D01*
X123923465Y-113092427D01*
X123923458Y-113092422D01*
X123817484Y-113038427D01*
X123817483Y-113038426D01*
X123817482Y-113038426D01*
X123700000Y-113019819D01*
X123582518Y-113038426D01*
X123582516Y-113038426D01*
X123582515Y-113038427D01*
X123476541Y-113092422D01*
X123476534Y-113092427D01*
X123392427Y-113176534D01*
X123392422Y-113176541D01*
X123338427Y-113282515D01*
X123338426Y-113282516D01*
X123338426Y-113282518D01*
X123319819Y-113400000D01*
X117729261Y-113400000D01*
X116894291Y-112565030D01*
X116879939Y-112530382D01*
X116880181Y-112527312D01*
X116880181Y-112525001D01*
X116879937Y-112523458D01*
X116861574Y-112407518D01*
X116839771Y-112364727D01*
X116807577Y-112301541D01*
X116807572Y-112301534D01*
X116723465Y-112217427D01*
X116723458Y-112217422D01*
X116617484Y-112163427D01*
X116617483Y-112163426D01*
X116617482Y-112163426D01*
X116500000Y-112144819D01*
X116382518Y-112163426D01*
X116382516Y-112163426D01*
X116382515Y-112163427D01*
X116276541Y-112217422D01*
X116276534Y-112217427D01*
X116192427Y-112301534D01*
X116192422Y-112301541D01*
X116138427Y-112407515D01*
X116138426Y-112407516D01*
X116138426Y-112407518D01*
X116119819Y-112525000D01*
X111000000Y-112525000D01*
X111000000Y-111400341D01*
X125119200Y-111400341D01*
X125137807Y-111517823D01*
X125137807Y-111517824D01*
X125137808Y-111517825D01*
X125191803Y-111623799D01*
X125191808Y-111623806D01*
X125275915Y-111707913D01*
X125275922Y-111707918D01*
X125346571Y-111743914D01*
X125381899Y-111761915D01*
X125499381Y-111780522D01*
X125616863Y-111761915D01*
X125690369Y-111724461D01*
X125722839Y-111707918D01*
X125722841Y-111707916D01*
X125722846Y-111707914D01*
X125806954Y-111623806D01*
X125808986Y-111619819D01*
X125845510Y-111548135D01*
X125860955Y-111517823D01*
X125879562Y-111400341D01*
X125860955Y-111282859D01*
X125832668Y-111227342D01*
X125806958Y-111176882D01*
X125806953Y-111176875D01*
X125722846Y-111092768D01*
X125722839Y-111092763D01*
X125616865Y-111038768D01*
X125616864Y-111038767D01*
X125616863Y-111038767D01*
X125499381Y-111020160D01*
X125381899Y-111038767D01*
X125381897Y-111038767D01*
X125381896Y-111038768D01*
X125275922Y-111092763D01*
X125275915Y-111092768D01*
X125191808Y-111176875D01*
X125191803Y-111176882D01*
X125137808Y-111282856D01*
X125137807Y-111282857D01*
X125137807Y-111282859D01*
X125119200Y-111400341D01*
X111000000Y-111400341D01*
X111000000Y-108025000D01*
X116619819Y-108025000D01*
X116638426Y-108142482D01*
X116638426Y-108142483D01*
X116638427Y-108142484D01*
X116692422Y-108248458D01*
X116692427Y-108248465D01*
X116776534Y-108332572D01*
X116776541Y-108332577D01*
X116844129Y-108367014D01*
X116882518Y-108386574D01*
X117000000Y-108405181D01*
X117117482Y-108386574D01*
X117190988Y-108349120D01*
X117223458Y-108332577D01*
X117223460Y-108332575D01*
X117223465Y-108332573D01*
X117266186Y-108289852D01*
X117300834Y-108275500D01*
X126674089Y-108275500D01*
X126708737Y-108289852D01*
X126722485Y-108316833D01*
X126738426Y-108417482D01*
X126738426Y-108417483D01*
X126738427Y-108417484D01*
X126792422Y-108523458D01*
X126792427Y-108523465D01*
X126834314Y-108565352D01*
X126848666Y-108600000D01*
X126834314Y-108634648D01*
X126792427Y-108676534D01*
X126792422Y-108676541D01*
X126738427Y-108782515D01*
X126738426Y-108782516D01*
X126738426Y-108782518D01*
X126719819Y-108900000D01*
X126719819Y-108900001D01*
X126719819Y-108903856D01*
X126717988Y-108903856D01*
X126710689Y-108934201D01*
X126705708Y-108940030D01*
X125835591Y-109810148D01*
X125800943Y-109824500D01*
X117300834Y-109824500D01*
X117266186Y-109810148D01*
X117223465Y-109767427D01*
X117223458Y-109767422D01*
X117117484Y-109713427D01*
X117117483Y-109713426D01*
X117117482Y-109713426D01*
X117000000Y-109694819D01*
X116882518Y-109713426D01*
X116882516Y-109713426D01*
X116882515Y-109713427D01*
X116776541Y-109767422D01*
X116776534Y-109767427D01*
X116692427Y-109851534D01*
X116692422Y-109851541D01*
X116638427Y-109957515D01*
X116638426Y-109957516D01*
X116638426Y-109957518D01*
X116619819Y-110075000D01*
X116638426Y-110192482D01*
X116638426Y-110192483D01*
X116638427Y-110192484D01*
X116692422Y-110298458D01*
X116692427Y-110298465D01*
X116776534Y-110382572D01*
X116776541Y-110382577D01*
X116829337Y-110409477D01*
X116882518Y-110436574D01*
X117000000Y-110455181D01*
X117117482Y-110436574D01*
X117190988Y-110399120D01*
X117223458Y-110382577D01*
X117223460Y-110382575D01*
X117223465Y-110382573D01*
X117266186Y-110339852D01*
X117300834Y-110325500D01*
X125974826Y-110325500D01*
X125974828Y-110325500D01*
X126066897Y-110287364D01*
X127059968Y-109294290D01*
X127094615Y-109279939D01*
X127097688Y-109280181D01*
X127099998Y-109280181D01*
X127099999Y-109280180D01*
X127100000Y-109280181D01*
X127217482Y-109261574D01*
X127290988Y-109224120D01*
X127323458Y-109207577D01*
X127323460Y-109207575D01*
X127323465Y-109207573D01*
X127407573Y-109123465D01*
X127461574Y-109017482D01*
X127480181Y-108900000D01*
X127461574Y-108782518D01*
X127434365Y-108729117D01*
X127407577Y-108676541D01*
X127407572Y-108676534D01*
X127365686Y-108634648D01*
X127351334Y-108600000D01*
X127365686Y-108565352D01*
X127407573Y-108523465D01*
X127413830Y-108511186D01*
X127424120Y-108490988D01*
X127461574Y-108417482D01*
X127480181Y-108300000D01*
X127461574Y-108182518D01*
X127421188Y-108103255D01*
X127407577Y-108076541D01*
X127407572Y-108076534D01*
X127323465Y-107992427D01*
X127323458Y-107992422D01*
X127217484Y-107938427D01*
X127217483Y-107938426D01*
X127217482Y-107938426D01*
X127100000Y-107919819D01*
X127099999Y-107919819D01*
X127096145Y-107919819D01*
X127096145Y-107917991D01*
X127065790Y-107910683D01*
X127059969Y-107905708D01*
X126966899Y-107812637D01*
X126874829Y-107774500D01*
X126874828Y-107774500D01*
X117300834Y-107774500D01*
X117266186Y-107760148D01*
X117223465Y-107717427D01*
X117223458Y-107717422D01*
X117117484Y-107663427D01*
X117117483Y-107663426D01*
X117117482Y-107663426D01*
X117000000Y-107644819D01*
X116882518Y-107663426D01*
X116882516Y-107663426D01*
X116882515Y-107663427D01*
X116776541Y-107717422D01*
X116776534Y-107717427D01*
X116692427Y-107801534D01*
X116692422Y-107801541D01*
X116638427Y-107907515D01*
X116638426Y-107907516D01*
X116638426Y-107907518D01*
X116619819Y-108025000D01*
X111000000Y-108025000D01*
X111000000Y-105900000D01*
X127219819Y-105900000D01*
X127238426Y-106017482D01*
X127238426Y-106017483D01*
X127238427Y-106017484D01*
X127292422Y-106123458D01*
X127292427Y-106123465D01*
X127376534Y-106207572D01*
X127376541Y-106207577D01*
X127437087Y-106238426D01*
X127482518Y-106261574D01*
X127600000Y-106280181D01*
X127717482Y-106261574D01*
X127803019Y-106217991D01*
X127823458Y-106207577D01*
X127823460Y-106207575D01*
X127823465Y-106207573D01*
X127907573Y-106123465D01*
X127913230Y-106112364D01*
X127931485Y-106076535D01*
X127961574Y-106017482D01*
X127980181Y-105900000D01*
X127961574Y-105782518D01*
X127931485Y-105723465D01*
X127907577Y-105676541D01*
X127907572Y-105676534D01*
X127823465Y-105592427D01*
X127823458Y-105592422D01*
X127717484Y-105538427D01*
X127717483Y-105538426D01*
X127717482Y-105538426D01*
X127600000Y-105519819D01*
X127482518Y-105538426D01*
X127482516Y-105538426D01*
X127482515Y-105538427D01*
X127376541Y-105592422D01*
X127376534Y-105592427D01*
X127292427Y-105676534D01*
X127292422Y-105676541D01*
X127238427Y-105782515D01*
X127238426Y-105782516D01*
X127238426Y-105782518D01*
X127219819Y-105900000D01*
X111000000Y-105900000D01*
X111000000Y-104000587D01*
X111000015Y-103999387D01*
X111000861Y-103964852D01*
X111002303Y-103905956D01*
X111003229Y-103897612D01*
X111039803Y-103713739D01*
X111042585Y-103704566D01*
X111044476Y-103700000D01*
X132619819Y-103700000D01*
X132638426Y-103817482D01*
X132638426Y-103817483D01*
X132638427Y-103817484D01*
X132692422Y-103923458D01*
X132692427Y-103923465D01*
X132776534Y-104007572D01*
X132776541Y-104007577D01*
X132847190Y-104043573D01*
X132882518Y-104061574D01*
X133000000Y-104080181D01*
X133117482Y-104061574D01*
X133195651Y-104021745D01*
X133223458Y-104007577D01*
X133223460Y-104007575D01*
X133223465Y-104007573D01*
X133266186Y-103964852D01*
X133300834Y-103950500D01*
X135125732Y-103950500D01*
X135160380Y-103964852D01*
X135174732Y-103999500D01*
X135169391Y-104021745D01*
X135138427Y-104082515D01*
X135138426Y-104082516D01*
X135138426Y-104082518D01*
X135119819Y-104200000D01*
X135138426Y-104317482D01*
X135138426Y-104317483D01*
X135138427Y-104317484D01*
X135192422Y-104423458D01*
X135192427Y-104423465D01*
X135276534Y-104507572D01*
X135276541Y-104507577D01*
X135347190Y-104543573D01*
X135382518Y-104561574D01*
X135500000Y-104580181D01*
X135617482Y-104561574D01*
X135690988Y-104524120D01*
X135723458Y-104507577D01*
X135723460Y-104507575D01*
X135723465Y-104507573D01*
X135807573Y-104423465D01*
X135861574Y-104317482D01*
X135880181Y-104200000D01*
X135861574Y-104082518D01*
X135830609Y-104021745D01*
X135827666Y-103984358D01*
X135852023Y-103955841D01*
X135874268Y-103950500D01*
X140075943Y-103950500D01*
X140110591Y-103964852D01*
X141611591Y-105465852D01*
X141625943Y-105500500D01*
X141611591Y-105535148D01*
X141576943Y-105549500D01*
X138949017Y-105549500D01*
X138914369Y-105535148D01*
X138900017Y-105500500D01*
X138914369Y-105465852D01*
X138926772Y-105456841D01*
X139023458Y-105407577D01*
X139023460Y-105407575D01*
X139023465Y-105407573D01*
X139107573Y-105323465D01*
X139115699Y-105307518D01*
X139131485Y-105276535D01*
X139161574Y-105217482D01*
X139180181Y-105100000D01*
X139161574Y-104982518D01*
X139139108Y-104938426D01*
X139107577Y-104876541D01*
X139107572Y-104876534D01*
X139023465Y-104792427D01*
X139023458Y-104792422D01*
X138917484Y-104738427D01*
X138917483Y-104738426D01*
X138917482Y-104738426D01*
X138800000Y-104719819D01*
X138682518Y-104738426D01*
X138682516Y-104738426D01*
X138682515Y-104738427D01*
X138576541Y-104792422D01*
X138576534Y-104792427D01*
X138533814Y-104835148D01*
X138499166Y-104849500D01*
X135350170Y-104849500D01*
X135258101Y-104887637D01*
X135258099Y-104887638D01*
X134240029Y-105905708D01*
X134205381Y-105920060D01*
X134202311Y-105919819D01*
X134200001Y-105919819D01*
X134200000Y-105919819D01*
X134082518Y-105938426D01*
X134082516Y-105938426D01*
X134082515Y-105938427D01*
X133976541Y-105992422D01*
X133976534Y-105992427D01*
X133892427Y-106076534D01*
X133892422Y-106076541D01*
X133838427Y-106182515D01*
X133838426Y-106182516D01*
X133838426Y-106182518D01*
X133819819Y-106300000D01*
X133838426Y-106417482D01*
X133838426Y-106417483D01*
X133838427Y-106417484D01*
X133892422Y-106523458D01*
X133892427Y-106523465D01*
X133976534Y-106607572D01*
X133976541Y-106607577D01*
X134034316Y-106637014D01*
X134082518Y-106661574D01*
X134200000Y-106680181D01*
X134317482Y-106661574D01*
X134390988Y-106624120D01*
X134423458Y-106607577D01*
X134423460Y-106607575D01*
X134423465Y-106607573D01*
X134507573Y-106523465D01*
X134510317Y-106518081D01*
X134524120Y-106490988D01*
X134561574Y-106417482D01*
X134580181Y-106300000D01*
X134580181Y-106299998D01*
X134580181Y-106296144D01*
X134582015Y-106296144D01*
X134589297Y-106265814D01*
X134594285Y-106259974D01*
X135489409Y-105364852D01*
X135524057Y-105350500D01*
X138499166Y-105350500D01*
X138533814Y-105364852D01*
X138576534Y-105407572D01*
X138576541Y-105407577D01*
X138673228Y-105456841D01*
X138697585Y-105485358D01*
X138694642Y-105522745D01*
X138666125Y-105547102D01*
X138650983Y-105549500D01*
X137555537Y-105549500D01*
X137555529Y-105549499D01*
X137549828Y-105549499D01*
X137450172Y-105549499D01*
X137450170Y-105549499D01*
X137450167Y-105549500D01*
X137385070Y-105576463D01*
X137385071Y-105576464D01*
X137358104Y-105587635D01*
X137358100Y-105587638D01*
X137287635Y-105658104D01*
X137040030Y-105905708D01*
X137005382Y-105920060D01*
X137002312Y-105919819D01*
X137000002Y-105919819D01*
X137000000Y-105919819D01*
X136882518Y-105938426D01*
X136882516Y-105938426D01*
X136882515Y-105938427D01*
X136776541Y-105992422D01*
X136776534Y-105992427D01*
X136692430Y-106076531D01*
X136690161Y-106079655D01*
X136688549Y-106078484D01*
X136665131Y-106098476D01*
X136627744Y-106095525D01*
X136611017Y-106078798D01*
X136609839Y-106079655D01*
X136607575Y-106076540D01*
X136607573Y-106076535D01*
X136523465Y-105992427D01*
X136523458Y-105992422D01*
X136417484Y-105938427D01*
X136417483Y-105938426D01*
X136417482Y-105938426D01*
X136300000Y-105919819D01*
X136182518Y-105938426D01*
X136182516Y-105938426D01*
X136182515Y-105938427D01*
X136076541Y-105992422D01*
X136076534Y-105992427D01*
X135992427Y-106076534D01*
X135992422Y-106076541D01*
X135938427Y-106182515D01*
X135938426Y-106182516D01*
X135938426Y-106182518D01*
X135919819Y-106300000D01*
X135938426Y-106417482D01*
X135938426Y-106417483D01*
X135938427Y-106417484D01*
X135992422Y-106523458D01*
X135992427Y-106523465D01*
X136076534Y-106607572D01*
X136076541Y-106607577D01*
X136134316Y-106637014D01*
X136182518Y-106661574D01*
X136300000Y-106680181D01*
X136417482Y-106661574D01*
X136490988Y-106624120D01*
X136523458Y-106607577D01*
X136523460Y-106607575D01*
X136523465Y-106607573D01*
X136607573Y-106523465D01*
X136607577Y-106523458D01*
X136609843Y-106520341D01*
X136611458Y-106521515D01*
X136634851Y-106501530D01*
X136672239Y-106504467D01*
X136688973Y-106521201D01*
X136690157Y-106520341D01*
X136692427Y-106523465D01*
X136776534Y-106607572D01*
X136776541Y-106607577D01*
X136834316Y-106637014D01*
X136882518Y-106661574D01*
X137000000Y-106680181D01*
X137117482Y-106661574D01*
X137190988Y-106624120D01*
X137223458Y-106607577D01*
X137223460Y-106607575D01*
X137223465Y-106607573D01*
X137307573Y-106523465D01*
X137310317Y-106518081D01*
X137324120Y-106490988D01*
X137361574Y-106417482D01*
X137380181Y-106300000D01*
X137380181Y-106299998D01*
X137380181Y-106296142D01*
X137382017Y-106296142D01*
X137389294Y-106265817D01*
X137394284Y-106259974D01*
X137589408Y-106064852D01*
X137624056Y-106050500D01*
X141504191Y-106050500D01*
X141538839Y-106064852D01*
X142717184Y-107243197D01*
X142730932Y-107270178D01*
X142738425Y-107317482D01*
X142738426Y-107317484D01*
X142792422Y-107423458D01*
X142792427Y-107423465D01*
X142876534Y-107507572D01*
X142876541Y-107507577D01*
X142947190Y-107543573D01*
X142982518Y-107561574D01*
X143100000Y-107580181D01*
X143217482Y-107561574D01*
X143297386Y-107520861D01*
X143323458Y-107507577D01*
X143323460Y-107507575D01*
X143323465Y-107507573D01*
X143407573Y-107423465D01*
X143461574Y-107317482D01*
X143480181Y-107200000D01*
X143461574Y-107082518D01*
X143432200Y-107024868D01*
X143407577Y-106976541D01*
X143407572Y-106976534D01*
X143365686Y-106934648D01*
X143351334Y-106900000D01*
X143365686Y-106865352D01*
X143382580Y-106848458D01*
X143407573Y-106823465D01*
X143461574Y-106717482D01*
X143480181Y-106600000D01*
X143461574Y-106482518D01*
X143423360Y-106407518D01*
X143407577Y-106376541D01*
X143407572Y-106376534D01*
X143323465Y-106292427D01*
X143323458Y-106292422D01*
X143217484Y-106238427D01*
X143217483Y-106238426D01*
X143217482Y-106238426D01*
X143100000Y-106219819D01*
X143099999Y-106219819D01*
X143096145Y-106219819D01*
X143096145Y-106217991D01*
X143065790Y-106210683D01*
X143059969Y-106205708D01*
X142279261Y-105425000D01*
X144744819Y-105425000D01*
X144763426Y-105542482D01*
X144763426Y-105542483D01*
X144763427Y-105542484D01*
X144817422Y-105648458D01*
X144817427Y-105648465D01*
X144901534Y-105732572D01*
X144901541Y-105732577D01*
X144964886Y-105764852D01*
X145007518Y-105786574D01*
X145125000Y-105805181D01*
X145125001Y-105805180D01*
X145125002Y-105805181D01*
X145128856Y-105805181D01*
X145128856Y-105807018D01*
X145159176Y-105814292D01*
X145165030Y-105819291D01*
X145387636Y-106041897D01*
X145458100Y-106112362D01*
X145458101Y-106112362D01*
X145458103Y-106112364D01*
X145550172Y-106150500D01*
X148963469Y-106150500D01*
X148998117Y-106164852D01*
X149012469Y-106199500D01*
X149007129Y-106221745D01*
X148963426Y-106307517D01*
X148958699Y-106337364D01*
X148944819Y-106425000D01*
X148963426Y-106542482D01*
X148963426Y-106542483D01*
X148963427Y-106542484D01*
X149017422Y-106648458D01*
X149017427Y-106648465D01*
X149060148Y-106691186D01*
X149074500Y-106725834D01*
X149074500Y-107846924D01*
X149074500Y-107946580D01*
X149112636Y-108038649D01*
X149112637Y-108038650D01*
X149112637Y-108038651D01*
X149640884Y-108566897D01*
X149712281Y-108638295D01*
X149726633Y-108672943D01*
X149718561Y-108697785D01*
X149719177Y-108698099D01*
X149663427Y-108807515D01*
X149663426Y-108807516D01*
X149663426Y-108807518D01*
X149644819Y-108925000D01*
X149663426Y-109042482D01*
X149663426Y-109042483D01*
X149663427Y-109042484D01*
X149717422Y-109148458D01*
X149717427Y-109148465D01*
X149801534Y-109232572D01*
X149801541Y-109232577D01*
X149867155Y-109266008D01*
X149907518Y-109286574D01*
X150025000Y-109305181D01*
X150142482Y-109286574D01*
X150217807Y-109248193D01*
X150255192Y-109245251D01*
X150274699Y-109257205D01*
X150508455Y-109490961D01*
X150522807Y-109525609D01*
X150508455Y-109560257D01*
X150496053Y-109569268D01*
X150401542Y-109617423D01*
X150401538Y-109617427D01*
X150359648Y-109659316D01*
X150325000Y-109673667D01*
X150290353Y-109659315D01*
X150248465Y-109617427D01*
X150248458Y-109617422D01*
X150142484Y-109563427D01*
X150142483Y-109563426D01*
X150142482Y-109563426D01*
X150025000Y-109544819D01*
X149907518Y-109563426D01*
X149907516Y-109563426D01*
X149907515Y-109563427D01*
X149801541Y-109617422D01*
X149801534Y-109617427D01*
X149717427Y-109701534D01*
X149717422Y-109701541D01*
X149663427Y-109807515D01*
X149663426Y-109807516D01*
X149663426Y-109807518D01*
X149644819Y-109925000D01*
X149663426Y-110042482D01*
X149663426Y-110042483D01*
X149663427Y-110042484D01*
X149717422Y-110148458D01*
X149717427Y-110148465D01*
X149760148Y-110191186D01*
X149774500Y-110225834D01*
X149774500Y-110474829D01*
X149781050Y-110490641D01*
X149812636Y-110566897D01*
X149812637Y-110566898D01*
X149812637Y-110566899D01*
X151709840Y-112464100D01*
X151709843Y-112464104D01*
X151783100Y-112537362D01*
X151783101Y-112537363D01*
X151783102Y-112537363D01*
X151783103Y-112537364D01*
X151809903Y-112548465D01*
X151875172Y-112575501D01*
X151875174Y-112575501D01*
X151980529Y-112575501D01*
X151980537Y-112575500D01*
X154424166Y-112575500D01*
X154458814Y-112589852D01*
X154459314Y-112590352D01*
X154473666Y-112625000D01*
X154459383Y-112659579D01*
X154458882Y-112660082D01*
X154424263Y-112674503D01*
X151720812Y-112674503D01*
X151686164Y-112660151D01*
X149738651Y-110712637D01*
X149646581Y-110674500D01*
X149646580Y-110674500D01*
X149625834Y-110674500D01*
X149591186Y-110660148D01*
X149548465Y-110617427D01*
X149548458Y-110617422D01*
X149442484Y-110563427D01*
X149442483Y-110563426D01*
X149442482Y-110563426D01*
X149325000Y-110544819D01*
X149207518Y-110563426D01*
X149207516Y-110563426D01*
X149207515Y-110563427D01*
X149101541Y-110617422D01*
X149101534Y-110617427D01*
X149017427Y-110701534D01*
X149017422Y-110701541D01*
X148963427Y-110807515D01*
X148963426Y-110807516D01*
X148963426Y-110807518D01*
X148944819Y-110925000D01*
X148963426Y-111042482D01*
X148963426Y-111042483D01*
X148963427Y-111042484D01*
X149017422Y-111148458D01*
X149017427Y-111148465D01*
X149059314Y-111190352D01*
X149073666Y-111225000D01*
X149059314Y-111259648D01*
X149017427Y-111301534D01*
X149017422Y-111301541D01*
X148963427Y-111407515D01*
X148963426Y-111407516D01*
X148963426Y-111407518D01*
X148944819Y-111525000D01*
X148963426Y-111642482D01*
X148963426Y-111642483D01*
X148963427Y-111642484D01*
X149017422Y-111748458D01*
X149017427Y-111748465D01*
X149101534Y-111832572D01*
X149101541Y-111832577D01*
X149155868Y-111860257D01*
X149207518Y-111886574D01*
X149325000Y-111905181D01*
X149442482Y-111886574D01*
X149519305Y-111847431D01*
X149548458Y-111832577D01*
X149548460Y-111832575D01*
X149548465Y-111832573D01*
X149632573Y-111748465D01*
X149686574Y-111642482D01*
X149705181Y-111525000D01*
X149702931Y-111510796D01*
X149711686Y-111474332D01*
X149743662Y-111454736D01*
X149780129Y-111463491D01*
X149785976Y-111468485D01*
X150108452Y-111790961D01*
X150122804Y-111825609D01*
X150108452Y-111860257D01*
X150096050Y-111869268D01*
X150001539Y-111917423D01*
X150001534Y-111917427D01*
X149917427Y-112001534D01*
X149917422Y-112001541D01*
X149863427Y-112107515D01*
X149863426Y-112107516D01*
X149863426Y-112107518D01*
X149844819Y-112225000D01*
X149863426Y-112342482D01*
X149863426Y-112342483D01*
X149863427Y-112342484D01*
X149917422Y-112448458D01*
X149917427Y-112448465D01*
X150001534Y-112532572D01*
X150001541Y-112532577D01*
X150055530Y-112560085D01*
X150107518Y-112586574D01*
X150225000Y-112605181D01*
X150342482Y-112586574D01*
X150417289Y-112548458D01*
X150448458Y-112532577D01*
X150448460Y-112532575D01*
X150448465Y-112532573D01*
X150532573Y-112448465D01*
X150580731Y-112353948D01*
X150609248Y-112329593D01*
X150646635Y-112332535D01*
X150659038Y-112341547D01*
X151384391Y-113066900D01*
X151454855Y-113137365D01*
X151454856Y-113137365D01*
X151454858Y-113137367D01*
X151546927Y-113175503D01*
X154424166Y-113175503D01*
X154458814Y-113189855D01*
X154501534Y-113232575D01*
X154501541Y-113232580D01*
X154572190Y-113268576D01*
X154607518Y-113286577D01*
X154725000Y-113305184D01*
X154842482Y-113286577D01*
X154915988Y-113249123D01*
X154948458Y-113232580D01*
X154948460Y-113232578D01*
X154948465Y-113232576D01*
X155032573Y-113148468D01*
X155038230Y-113137367D01*
X155061130Y-113092422D01*
X155086574Y-113042485D01*
X155105181Y-112925003D01*
X155086574Y-112807521D01*
X155063162Y-112761572D01*
X155061562Y-112758431D01*
X163552402Y-112758431D01*
X163552402Y-112758433D01*
X163552402Y-112856933D01*
X163552402Y-112856935D01*
X163552403Y-112856936D01*
X163590096Y-112947936D01*
X163590098Y-112947939D01*
X163659744Y-113017585D01*
X163659746Y-113017586D01*
X163659747Y-113017587D01*
X163750750Y-113055281D01*
X163849248Y-113055281D01*
X163849250Y-113055281D01*
X163940253Y-113017587D01*
X163940254Y-113017585D01*
X163940256Y-113017585D01*
X164009902Y-112947939D01*
X164009902Y-112947938D01*
X164009904Y-112947936D01*
X164047598Y-112856933D01*
X164050000Y-112807683D01*
X164047598Y-112758433D01*
X164009904Y-112667430D01*
X164009902Y-112667428D01*
X164009902Y-112667427D01*
X163940256Y-112597781D01*
X163940253Y-112597779D01*
X163849253Y-112560086D01*
X163849251Y-112560085D01*
X163849250Y-112560085D01*
X163849248Y-112560085D01*
X163750752Y-112560085D01*
X163750750Y-112560085D01*
X163750748Y-112560085D01*
X163750746Y-112560086D01*
X163659746Y-112597779D01*
X163590096Y-112667429D01*
X163552403Y-112758429D01*
X163552402Y-112758431D01*
X155061562Y-112758431D01*
X155032577Y-112701544D01*
X155031192Y-112699638D01*
X155022433Y-112663172D01*
X155042025Y-112631193D01*
X155078491Y-112622434D01*
X155099639Y-112631195D01*
X155101540Y-112632577D01*
X155181545Y-112673340D01*
X155207518Y-112686574D01*
X155325000Y-112705181D01*
X155442482Y-112686574D01*
X155529014Y-112642484D01*
X155548458Y-112632577D01*
X155548460Y-112632575D01*
X155548465Y-112632573D01*
X155632573Y-112548465D01*
X155638230Y-112537364D01*
X155649120Y-112515988D01*
X155686574Y-112442482D01*
X155705181Y-112325000D01*
X155686574Y-112207518D01*
X155658925Y-112153254D01*
X155632577Y-112101541D01*
X155632572Y-112101534D01*
X155548465Y-112017427D01*
X155548458Y-112017422D01*
X155442484Y-111963426D01*
X155442482Y-111963425D01*
X155395178Y-111955932D01*
X155368197Y-111942184D01*
X155338291Y-111912278D01*
X163552402Y-111912278D01*
X163552402Y-111912280D01*
X163552402Y-112010780D01*
X163552402Y-112010782D01*
X163552403Y-112010783D01*
X163590096Y-112101783D01*
X163590098Y-112101786D01*
X163659744Y-112171432D01*
X163659746Y-112171433D01*
X163659747Y-112171434D01*
X163750750Y-112209128D01*
X163849248Y-112209128D01*
X163849250Y-112209128D01*
X163940253Y-112171434D01*
X163940254Y-112171432D01*
X163940256Y-112171432D01*
X164009902Y-112101786D01*
X164009902Y-112101785D01*
X164009904Y-112101783D01*
X164047598Y-112010780D01*
X164050000Y-111961530D01*
X164047598Y-111912280D01*
X164036010Y-111884303D01*
X164849500Y-111884303D01*
X164849500Y-113015696D01*
X164852401Y-113052567D01*
X164852401Y-113052569D01*
X164898256Y-113210399D01*
X164943308Y-113286577D01*
X164981919Y-113351865D01*
X165098135Y-113468081D01*
X165239600Y-113551743D01*
X165239601Y-113551743D01*
X165239602Y-113551744D01*
X165397431Y-113597598D01*
X165434306Y-113600500D01*
X165434317Y-113600500D01*
X172565683Y-113600500D01*
X172565694Y-113600500D01*
X172602569Y-113597598D01*
X172760398Y-113551744D01*
X172901865Y-113468081D01*
X173018081Y-113351865D01*
X173101744Y-113210398D01*
X173147598Y-113052569D01*
X173150500Y-113015694D01*
X173150500Y-111884306D01*
X173147598Y-111847431D01*
X173143282Y-111832577D01*
X173108813Y-111713933D01*
X173101744Y-111689602D01*
X173018081Y-111548135D01*
X172901865Y-111431919D01*
X172884176Y-111421458D01*
X172760398Y-111348256D01*
X172760400Y-111348256D01*
X172602568Y-111302401D01*
X172565696Y-111299500D01*
X172565694Y-111299500D01*
X165434306Y-111299500D01*
X165434303Y-111299500D01*
X165397432Y-111302401D01*
X165397430Y-111302401D01*
X165239600Y-111348256D01*
X165098137Y-111431917D01*
X165098132Y-111431921D01*
X164981921Y-111548132D01*
X164981917Y-111548137D01*
X164898256Y-111689600D01*
X164852401Y-111847430D01*
X164852401Y-111847432D01*
X164849500Y-111884303D01*
X164036010Y-111884303D01*
X164009904Y-111821277D01*
X164009902Y-111821275D01*
X164009902Y-111821274D01*
X163940256Y-111751628D01*
X163940253Y-111751626D01*
X163849253Y-111713933D01*
X163849251Y-111713932D01*
X163849250Y-111713932D01*
X163849248Y-111713932D01*
X163750752Y-111713932D01*
X163750750Y-111713932D01*
X163750748Y-111713932D01*
X163750746Y-111713933D01*
X163659746Y-111751626D01*
X163590096Y-111821276D01*
X163552403Y-111912276D01*
X163552402Y-111912278D01*
X155338291Y-111912278D01*
X155063651Y-111637637D01*
X154971581Y-111599500D01*
X154971580Y-111599500D01*
X152599834Y-111599500D01*
X152565186Y-111585148D01*
X152550834Y-111550500D01*
X152565186Y-111515852D01*
X152594466Y-111486572D01*
X152632573Y-111448465D01*
X152640669Y-111432577D01*
X152649120Y-111415988D01*
X152686574Y-111342482D01*
X152705181Y-111225000D01*
X152686574Y-111107518D01*
X152665482Y-111066123D01*
X152632577Y-111001541D01*
X152632572Y-111001534D01*
X152548465Y-110917427D01*
X152548458Y-110917422D01*
X152442484Y-110863427D01*
X152442483Y-110863426D01*
X152442482Y-110863426D01*
X152325000Y-110844819D01*
X152207518Y-110863426D01*
X152207516Y-110863426D01*
X152207515Y-110863427D01*
X152101541Y-110917422D01*
X152101534Y-110917427D01*
X152017427Y-111001534D01*
X152017422Y-111001541D01*
X151963427Y-111107514D01*
X151963426Y-111107516D01*
X151963426Y-111107518D01*
X151954381Y-111164627D01*
X151950899Y-111186611D01*
X151931303Y-111218587D01*
X151894836Y-111227342D01*
X151867854Y-111213593D01*
X151364855Y-110710594D01*
X151350503Y-110675946D01*
X151350503Y-109678422D01*
X151350502Y-109678418D01*
X151337667Y-109647431D01*
X151312367Y-109586351D01*
X151312365Y-109586349D01*
X151312365Y-109586348D01*
X151241900Y-109515884D01*
X150485165Y-108759148D01*
X150470813Y-108724500D01*
X150485165Y-108689852D01*
X150519813Y-108675500D01*
X151150223Y-108675500D01*
X151184871Y-108689852D01*
X151193880Y-108702251D01*
X151217427Y-108748465D01*
X151217428Y-108748466D01*
X151301534Y-108832572D01*
X151301541Y-108832577D01*
X151372190Y-108868573D01*
X151407518Y-108886574D01*
X151525000Y-108905181D01*
X151642482Y-108886574D01*
X151718977Y-108847598D01*
X151748458Y-108832577D01*
X151748460Y-108832575D01*
X151748465Y-108832573D01*
X151832573Y-108748465D01*
X151886574Y-108642482D01*
X151905181Y-108525000D01*
X151886574Y-108407518D01*
X151865936Y-108367014D01*
X151832577Y-108301541D01*
X151832572Y-108301534D01*
X151790686Y-108259648D01*
X151776334Y-108225000D01*
X151790686Y-108190352D01*
X151791186Y-108189852D01*
X151825834Y-108175500D01*
X154000943Y-108175500D01*
X154035591Y-108189852D01*
X156460148Y-110614409D01*
X156474500Y-110649057D01*
X156474500Y-110724166D01*
X156460148Y-110758814D01*
X156417427Y-110801534D01*
X156417422Y-110801541D01*
X156363427Y-110907515D01*
X156363426Y-110907516D01*
X156363426Y-110907518D01*
X156344819Y-111025000D01*
X156363426Y-111142482D01*
X156363426Y-111142483D01*
X156363427Y-111142484D01*
X156417422Y-111248458D01*
X156417427Y-111248465D01*
X156501534Y-111332572D01*
X156501541Y-111332577D01*
X156561202Y-111362975D01*
X156607518Y-111386574D01*
X156725000Y-111405181D01*
X156842482Y-111386574D01*
X156929014Y-111342484D01*
X156948458Y-111332577D01*
X156948460Y-111332575D01*
X156948465Y-111332573D01*
X157032573Y-111248465D01*
X157035621Y-111242484D01*
X157069049Y-111176876D01*
X157086574Y-111142482D01*
X157098668Y-111066125D01*
X163552402Y-111066125D01*
X163552402Y-111066127D01*
X163552402Y-111164627D01*
X163552402Y-111164629D01*
X163552403Y-111164630D01*
X163590096Y-111255630D01*
X163590098Y-111255633D01*
X163659744Y-111325279D01*
X163659746Y-111325280D01*
X163659747Y-111325281D01*
X163750750Y-111362975D01*
X163849248Y-111362975D01*
X163849250Y-111362975D01*
X163940253Y-111325281D01*
X163940254Y-111325279D01*
X163940256Y-111325279D01*
X164009902Y-111255633D01*
X164009902Y-111255632D01*
X164009904Y-111255630D01*
X164047598Y-111164627D01*
X164050000Y-111115377D01*
X164047598Y-111066127D01*
X164009904Y-110975124D01*
X164009902Y-110975122D01*
X164009902Y-110975121D01*
X163940256Y-110905475D01*
X163940253Y-110905473D01*
X163849253Y-110867780D01*
X163849251Y-110867779D01*
X163849250Y-110867779D01*
X163849248Y-110867779D01*
X163750752Y-110867779D01*
X163750750Y-110867779D01*
X163750748Y-110867779D01*
X163750746Y-110867780D01*
X163659746Y-110905473D01*
X163590096Y-110975123D01*
X163552403Y-111066123D01*
X163552402Y-111066125D01*
X157098668Y-111066125D01*
X157105181Y-111025000D01*
X157086574Y-110907518D01*
X157068573Y-110872190D01*
X157032577Y-110801541D01*
X157032572Y-110801534D01*
X156989852Y-110758814D01*
X156975500Y-110724166D01*
X156975500Y-110475174D01*
X156975499Y-110475170D01*
X156975358Y-110474829D01*
X156937364Y-110383103D01*
X156937362Y-110383101D01*
X156937362Y-110383100D01*
X156866897Y-110312636D01*
X156774233Y-110219972D01*
X163552402Y-110219972D01*
X163552402Y-110219974D01*
X163552402Y-110318474D01*
X163552402Y-110318476D01*
X163552403Y-110318477D01*
X163590096Y-110409477D01*
X163590098Y-110409480D01*
X163659744Y-110479126D01*
X163659746Y-110479127D01*
X163659747Y-110479128D01*
X163750750Y-110516822D01*
X163849248Y-110516822D01*
X163849250Y-110516822D01*
X163940253Y-110479128D01*
X163940254Y-110479126D01*
X163940256Y-110479126D01*
X164009902Y-110409480D01*
X164009902Y-110409479D01*
X164009904Y-110409477D01*
X164047598Y-110318474D01*
X164050000Y-110269224D01*
X164047598Y-110219974D01*
X164009904Y-110128971D01*
X164009902Y-110128969D01*
X164009902Y-110128968D01*
X163940256Y-110059322D01*
X163940253Y-110059320D01*
X163849253Y-110021627D01*
X163849251Y-110021626D01*
X163849250Y-110021626D01*
X163849248Y-110021626D01*
X163750752Y-110021626D01*
X163750750Y-110021626D01*
X163750748Y-110021626D01*
X163750746Y-110021627D01*
X163659746Y-110059320D01*
X163590096Y-110128970D01*
X163552403Y-110219970D01*
X163552402Y-110219972D01*
X156774233Y-110219972D01*
X156238565Y-109684303D01*
X164849500Y-109684303D01*
X164849500Y-110315696D01*
X164852401Y-110352567D01*
X164852401Y-110352569D01*
X164898256Y-110510399D01*
X164962967Y-110619819D01*
X164981919Y-110651865D01*
X165098135Y-110768081D01*
X165239600Y-110851743D01*
X165239601Y-110851743D01*
X165239602Y-110851744D01*
X165397431Y-110897598D01*
X165434306Y-110900500D01*
X165434317Y-110900500D01*
X171565683Y-110900500D01*
X171565694Y-110900500D01*
X171602569Y-110897598D01*
X171760398Y-110851744D01*
X171901865Y-110768081D01*
X172018081Y-110651865D01*
X172101744Y-110510398D01*
X172147598Y-110352569D01*
X172150500Y-110315694D01*
X172150500Y-109684306D01*
X172147598Y-109647431D01*
X172144315Y-109636132D01*
X172112205Y-109525609D01*
X172101744Y-109489602D01*
X172018081Y-109348135D01*
X171901865Y-109231919D01*
X171901616Y-109231772D01*
X171760398Y-109148256D01*
X171760400Y-109148256D01*
X171602568Y-109102401D01*
X171565696Y-109099500D01*
X171565694Y-109099500D01*
X165434306Y-109099500D01*
X165434303Y-109099500D01*
X165397432Y-109102401D01*
X165397430Y-109102401D01*
X165239600Y-109148256D01*
X165098137Y-109231917D01*
X165098132Y-109231921D01*
X164981921Y-109348132D01*
X164981917Y-109348137D01*
X164898256Y-109489600D01*
X164852401Y-109647430D01*
X164852401Y-109647432D01*
X164849500Y-109684303D01*
X156238565Y-109684303D01*
X155928081Y-109373819D01*
X163552402Y-109373819D01*
X163552402Y-109373821D01*
X163552402Y-109472321D01*
X163552402Y-109472323D01*
X163552403Y-109472324D01*
X163590096Y-109563324D01*
X163590098Y-109563327D01*
X163659744Y-109632973D01*
X163659746Y-109632974D01*
X163659747Y-109632975D01*
X163750750Y-109670669D01*
X163849248Y-109670669D01*
X163849250Y-109670669D01*
X163940253Y-109632975D01*
X163940254Y-109632973D01*
X163940256Y-109632973D01*
X164009902Y-109563327D01*
X164009902Y-109563326D01*
X164009904Y-109563324D01*
X164047598Y-109472321D01*
X164050000Y-109423071D01*
X164047598Y-109373821D01*
X164009904Y-109282818D01*
X164009902Y-109282816D01*
X164009902Y-109282815D01*
X163940256Y-109213169D01*
X163940253Y-109213167D01*
X163849253Y-109175474D01*
X163849251Y-109175473D01*
X163849250Y-109175473D01*
X163849248Y-109175473D01*
X163750752Y-109175473D01*
X163750750Y-109175473D01*
X163750748Y-109175473D01*
X163750746Y-109175474D01*
X163659746Y-109213167D01*
X163590096Y-109282817D01*
X163552403Y-109373817D01*
X163552402Y-109373819D01*
X155928081Y-109373819D01*
X155081928Y-108527666D01*
X163552402Y-108527666D01*
X163552402Y-108527668D01*
X163552402Y-108626168D01*
X163552402Y-108626170D01*
X163552403Y-108626171D01*
X163590096Y-108717171D01*
X163590098Y-108717174D01*
X163659744Y-108786820D01*
X163659746Y-108786821D01*
X163659747Y-108786822D01*
X163750750Y-108824516D01*
X163849248Y-108824516D01*
X163849250Y-108824516D01*
X163940253Y-108786822D01*
X163940254Y-108786820D01*
X163940256Y-108786820D01*
X164009902Y-108717174D01*
X164009902Y-108717173D01*
X164009904Y-108717171D01*
X164047598Y-108626168D01*
X164050000Y-108576918D01*
X164047598Y-108527668D01*
X164009904Y-108436665D01*
X164009902Y-108436663D01*
X164009902Y-108436662D01*
X163940256Y-108367016D01*
X163940253Y-108367014D01*
X163849253Y-108329321D01*
X163849251Y-108329320D01*
X163849250Y-108329320D01*
X163849248Y-108329320D01*
X163750752Y-108329320D01*
X163750750Y-108329320D01*
X163750748Y-108329320D01*
X163750746Y-108329321D01*
X163659746Y-108367014D01*
X163590096Y-108436664D01*
X163552403Y-108527664D01*
X163552402Y-108527666D01*
X155081928Y-108527666D01*
X154266899Y-107712637D01*
X154191760Y-107681513D01*
X163552402Y-107681513D01*
X163552402Y-107681515D01*
X163552402Y-107780015D01*
X163552402Y-107780017D01*
X163552403Y-107780018D01*
X163590096Y-107871018D01*
X163590098Y-107871021D01*
X163659744Y-107940667D01*
X163659746Y-107940668D01*
X163659747Y-107940669D01*
X163750750Y-107978363D01*
X163849248Y-107978363D01*
X163849250Y-107978363D01*
X163940253Y-107940669D01*
X163940254Y-107940667D01*
X163940256Y-107940667D01*
X164009902Y-107871021D01*
X164009902Y-107871020D01*
X164009904Y-107871018D01*
X164047598Y-107780015D01*
X164050000Y-107730765D01*
X164047598Y-107681515D01*
X164028043Y-107634303D01*
X164849500Y-107634303D01*
X164849500Y-108265696D01*
X164852401Y-108302567D01*
X164852401Y-108302569D01*
X164898256Y-108460399D01*
X164938038Y-108527666D01*
X164981919Y-108601865D01*
X165098135Y-108718081D01*
X165239600Y-108801743D01*
X165239601Y-108801743D01*
X165239602Y-108801744D01*
X165397431Y-108847598D01*
X165434306Y-108850500D01*
X165434317Y-108850500D01*
X171565683Y-108850500D01*
X171565694Y-108850500D01*
X171602569Y-108847598D01*
X171760398Y-108801744D01*
X171901865Y-108718081D01*
X172018081Y-108601865D01*
X172101744Y-108460398D01*
X172147598Y-108302569D01*
X172150500Y-108265694D01*
X172150500Y-107634306D01*
X172147598Y-107597431D01*
X172145587Y-107590510D01*
X172121493Y-107507577D01*
X172101744Y-107439602D01*
X172018081Y-107298135D01*
X171901865Y-107181919D01*
X171760398Y-107098256D01*
X171760400Y-107098256D01*
X171602568Y-107052401D01*
X171565696Y-107049500D01*
X171565694Y-107049500D01*
X165434306Y-107049500D01*
X165434303Y-107049500D01*
X165397432Y-107052401D01*
X165397430Y-107052401D01*
X165239600Y-107098256D01*
X165098137Y-107181917D01*
X165098132Y-107181921D01*
X164981921Y-107298132D01*
X164981917Y-107298137D01*
X164898256Y-107439600D01*
X164852401Y-107597430D01*
X164852401Y-107597432D01*
X164849500Y-107634303D01*
X164028043Y-107634303D01*
X164009904Y-107590512D01*
X164009902Y-107590510D01*
X164009902Y-107590509D01*
X163940256Y-107520863D01*
X163940253Y-107520861D01*
X163849253Y-107483168D01*
X163849251Y-107483167D01*
X163849250Y-107483167D01*
X163849248Y-107483167D01*
X163750752Y-107483167D01*
X163750750Y-107483167D01*
X163750748Y-107483167D01*
X163750746Y-107483168D01*
X163659746Y-107520861D01*
X163590096Y-107590511D01*
X163552403Y-107681511D01*
X163552402Y-107681513D01*
X154191760Y-107681513D01*
X154174829Y-107674500D01*
X154174828Y-107674500D01*
X151825834Y-107674500D01*
X151791186Y-107660148D01*
X151748465Y-107617427D01*
X151748458Y-107617422D01*
X151642484Y-107563427D01*
X151642483Y-107563426D01*
X151642482Y-107563426D01*
X151525000Y-107544819D01*
X151407518Y-107563426D01*
X151407516Y-107563426D01*
X151407515Y-107563427D01*
X151301541Y-107617422D01*
X151301534Y-107617427D01*
X151217427Y-107701534D01*
X151217422Y-107701541D01*
X151163427Y-107807515D01*
X151163426Y-107807516D01*
X151163426Y-107807518D01*
X151144819Y-107925000D01*
X151163426Y-108042482D01*
X151163426Y-108042483D01*
X151163427Y-108042484D01*
X151194391Y-108103255D01*
X151197334Y-108140642D01*
X151172977Y-108169159D01*
X151150732Y-108174500D01*
X150399268Y-108174500D01*
X150364620Y-108160148D01*
X150350268Y-108125500D01*
X150355609Y-108103255D01*
X150373081Y-108068963D01*
X150386574Y-108042482D01*
X150394065Y-107995179D01*
X150407812Y-107968199D01*
X150986160Y-107389852D01*
X151020808Y-107375500D01*
X153774826Y-107375500D01*
X153774828Y-107375500D01*
X153866897Y-107337364D01*
X154579259Y-106625000D01*
X155644819Y-106625000D01*
X155663426Y-106742482D01*
X155663426Y-106742483D01*
X155663427Y-106742484D01*
X155717422Y-106848458D01*
X155717427Y-106848465D01*
X155801534Y-106932572D01*
X155801541Y-106932577D01*
X155862087Y-106963426D01*
X155907518Y-106986574D01*
X156025000Y-107005181D01*
X156142482Y-106986574D01*
X156244393Y-106934648D01*
X156248458Y-106932577D01*
X156248460Y-106932575D01*
X156248465Y-106932573D01*
X156332573Y-106848465D01*
X156339250Y-106835362D01*
X156339251Y-106835360D01*
X163552402Y-106835360D01*
X163552402Y-106835362D01*
X163552402Y-106933862D01*
X163552402Y-106933864D01*
X163552403Y-106933865D01*
X163590096Y-107024865D01*
X163590098Y-107024868D01*
X163659744Y-107094514D01*
X163659746Y-107094515D01*
X163659747Y-107094516D01*
X163750750Y-107132210D01*
X163849248Y-107132210D01*
X163849250Y-107132210D01*
X163940253Y-107094516D01*
X163940254Y-107094514D01*
X163940256Y-107094514D01*
X164009902Y-107024868D01*
X164009902Y-107024867D01*
X164009904Y-107024865D01*
X164047598Y-106933862D01*
X164050000Y-106884612D01*
X164047598Y-106835362D01*
X164009904Y-106744359D01*
X164009902Y-106744357D01*
X164009902Y-106744356D01*
X163940256Y-106674710D01*
X163940253Y-106674708D01*
X163849253Y-106637015D01*
X163849251Y-106637014D01*
X163849250Y-106637014D01*
X163849248Y-106637014D01*
X163750752Y-106637014D01*
X163750750Y-106637014D01*
X163750748Y-106637014D01*
X163750746Y-106637015D01*
X163659746Y-106674708D01*
X163590096Y-106744358D01*
X163552403Y-106835358D01*
X163552402Y-106835360D01*
X156339251Y-106835360D01*
X156361928Y-106790852D01*
X156386574Y-106742482D01*
X156405181Y-106625000D01*
X156386574Y-106507518D01*
X156368573Y-106472190D01*
X156332577Y-106401541D01*
X156332572Y-106401534D01*
X156248465Y-106317427D01*
X156248458Y-106317422D01*
X156142484Y-106263427D01*
X156142483Y-106263426D01*
X156142482Y-106263426D01*
X156025000Y-106244819D01*
X155907518Y-106263426D01*
X155907516Y-106263426D01*
X155907515Y-106263427D01*
X155801541Y-106317422D01*
X155801534Y-106317427D01*
X155717427Y-106401534D01*
X155717422Y-106401541D01*
X155663427Y-106507515D01*
X155663426Y-106507516D01*
X155663426Y-106507518D01*
X155644819Y-106625000D01*
X154579259Y-106625000D01*
X154860004Y-106344254D01*
X154860007Y-106344253D01*
X154866896Y-106337364D01*
X154866897Y-106337364D01*
X154937364Y-106266897D01*
X154961937Y-106207573D01*
X154975501Y-106174827D01*
X154975501Y-106075172D01*
X154975501Y-106071229D01*
X154975500Y-106071215D01*
X154975500Y-105989207D01*
X163552402Y-105989207D01*
X163552402Y-105989209D01*
X163552402Y-106087709D01*
X163552402Y-106087711D01*
X163552403Y-106087712D01*
X163590096Y-106178712D01*
X163590098Y-106178715D01*
X163659744Y-106248361D01*
X163659746Y-106248362D01*
X163659747Y-106248363D01*
X163750750Y-106286057D01*
X163849248Y-106286057D01*
X163849250Y-106286057D01*
X163940253Y-106248363D01*
X163940254Y-106248361D01*
X163940256Y-106248361D01*
X164009902Y-106178715D01*
X164009902Y-106178714D01*
X164009904Y-106178712D01*
X164047598Y-106087709D01*
X164050000Y-106038459D01*
X164047598Y-105989209D01*
X164009904Y-105898206D01*
X164009902Y-105898204D01*
X164009902Y-105898203D01*
X163940256Y-105828557D01*
X163940253Y-105828555D01*
X163849253Y-105790862D01*
X163849251Y-105790861D01*
X163849250Y-105790861D01*
X163849248Y-105790861D01*
X163750752Y-105790861D01*
X163750750Y-105790861D01*
X163750748Y-105790861D01*
X163750746Y-105790862D01*
X163659746Y-105828555D01*
X163590096Y-105898205D01*
X163552403Y-105989205D01*
X163552402Y-105989207D01*
X154975500Y-105989207D01*
X154975500Y-105143054D01*
X163552402Y-105143054D01*
X163552402Y-105143056D01*
X163552402Y-105241556D01*
X163552402Y-105241558D01*
X163552403Y-105241559D01*
X163590096Y-105332559D01*
X163590098Y-105332562D01*
X163659744Y-105402208D01*
X163659746Y-105402209D01*
X163659747Y-105402210D01*
X163750750Y-105439904D01*
X163849248Y-105439904D01*
X163849250Y-105439904D01*
X163940253Y-105402210D01*
X163940254Y-105402208D01*
X163940256Y-105402208D01*
X164009902Y-105332562D01*
X164009902Y-105332561D01*
X164009904Y-105332559D01*
X164047598Y-105241556D01*
X164050000Y-105192306D01*
X164047598Y-105143056D01*
X164009904Y-105052053D01*
X164009902Y-105052051D01*
X164009902Y-105052050D01*
X163940256Y-104982404D01*
X163940253Y-104982402D01*
X163849253Y-104944709D01*
X163849251Y-104944708D01*
X163849250Y-104944708D01*
X163849248Y-104944708D01*
X163750752Y-104944708D01*
X163750750Y-104944708D01*
X163750748Y-104944708D01*
X163750746Y-104944709D01*
X163659746Y-104982402D01*
X163590096Y-105052052D01*
X163552403Y-105143052D01*
X163552402Y-105143054D01*
X154975500Y-105143054D01*
X154975500Y-105125834D01*
X154989852Y-105091186D01*
X155004504Y-105076534D01*
X155032573Y-105048465D01*
X155086574Y-104942482D01*
X155087869Y-104934303D01*
X164849500Y-104934303D01*
X164849500Y-106065696D01*
X164852401Y-106102567D01*
X164852401Y-106102569D01*
X164898256Y-106260399D01*
X164966938Y-106376534D01*
X164981919Y-106401865D01*
X165098135Y-106518081D01*
X165239600Y-106601743D01*
X165239601Y-106601743D01*
X165239602Y-106601744D01*
X165397431Y-106647598D01*
X165434306Y-106650500D01*
X165434317Y-106650500D01*
X172565683Y-106650500D01*
X172565694Y-106650500D01*
X172602569Y-106647598D01*
X172760398Y-106601744D01*
X172901865Y-106518081D01*
X173018081Y-106401865D01*
X173101744Y-106260398D01*
X173147598Y-106102569D01*
X173150500Y-106065694D01*
X173150500Y-104934306D01*
X173147598Y-104897431D01*
X173144752Y-104887636D01*
X173101743Y-104739600D01*
X173018082Y-104598137D01*
X173018081Y-104598135D01*
X172901865Y-104481919D01*
X172892771Y-104476541D01*
X172760398Y-104398256D01*
X172760400Y-104398256D01*
X172602568Y-104352401D01*
X172565696Y-104349500D01*
X172565694Y-104349500D01*
X165434306Y-104349500D01*
X165434303Y-104349500D01*
X165397432Y-104352401D01*
X165397430Y-104352401D01*
X165239600Y-104398256D01*
X165098137Y-104481917D01*
X165098132Y-104481921D01*
X164981921Y-104598132D01*
X164981917Y-104598137D01*
X164898256Y-104739600D01*
X164852401Y-104897430D01*
X164852401Y-104897432D01*
X164849500Y-104934303D01*
X155087869Y-104934303D01*
X155105181Y-104825000D01*
X155086574Y-104707518D01*
X155068573Y-104672190D01*
X155032577Y-104601541D01*
X155032572Y-104601534D01*
X154948465Y-104517427D01*
X154948458Y-104517422D01*
X154842484Y-104463427D01*
X154842483Y-104463426D01*
X154842482Y-104463426D01*
X154725000Y-104444819D01*
X154607518Y-104463426D01*
X154607516Y-104463426D01*
X154607515Y-104463427D01*
X154501541Y-104517422D01*
X154501534Y-104517427D01*
X154417427Y-104601534D01*
X154417422Y-104601541D01*
X154363427Y-104707515D01*
X154363426Y-104707516D01*
X154363426Y-104707518D01*
X154344819Y-104825000D01*
X154363426Y-104942482D01*
X154363426Y-104942483D01*
X154363427Y-104942484D01*
X154417422Y-105048458D01*
X154417427Y-105048465D01*
X154460148Y-105091186D01*
X154474500Y-105125834D01*
X154474500Y-106000943D01*
X154460148Y-106035591D01*
X153635591Y-106860148D01*
X153600943Y-106874500D01*
X151024834Y-106874500D01*
X150990186Y-106860148D01*
X150975834Y-106825500D01*
X150990186Y-106790852D01*
X151005539Y-106775499D01*
X151032573Y-106748465D01*
X151034667Y-106744357D01*
X151067365Y-106680181D01*
X151086574Y-106642482D01*
X151105181Y-106525000D01*
X151086574Y-106407518D01*
X151050829Y-106337364D01*
X151032577Y-106301541D01*
X151032572Y-106301534D01*
X150948465Y-106217427D01*
X150948458Y-106217422D01*
X150842484Y-106163427D01*
X150842483Y-106163426D01*
X150842482Y-106163426D01*
X150725000Y-106144819D01*
X150607518Y-106163426D01*
X150607516Y-106163426D01*
X150607515Y-106163427D01*
X150501541Y-106217422D01*
X150501534Y-106217427D01*
X150458814Y-106260148D01*
X150424166Y-106274500D01*
X150220809Y-106274500D01*
X150186161Y-106260148D01*
X149613651Y-105687637D01*
X149521581Y-105649500D01*
X149521580Y-105649500D01*
X146499834Y-105649500D01*
X146465186Y-105635148D01*
X146450834Y-105600500D01*
X146465186Y-105565852D01*
X146483936Y-105547102D01*
X146507573Y-105523465D01*
X146561574Y-105417482D01*
X146580181Y-105300000D01*
X146561574Y-105182518D01*
X146532692Y-105125834D01*
X146507577Y-105076541D01*
X146507572Y-105076534D01*
X146423465Y-104992427D01*
X146423458Y-104992422D01*
X146317484Y-104938427D01*
X146317483Y-104938426D01*
X146317482Y-104938426D01*
X146200000Y-104919819D01*
X146082518Y-104938426D01*
X146082516Y-104938426D01*
X146082515Y-104938427D01*
X145976541Y-104992422D01*
X145976534Y-104992427D01*
X145892427Y-105076534D01*
X145892422Y-105076541D01*
X145838427Y-105182515D01*
X145838426Y-105182516D01*
X145838426Y-105182518D01*
X145819819Y-105300000D01*
X145838426Y-105417482D01*
X145838426Y-105417483D01*
X145838427Y-105417484D01*
X145892422Y-105523458D01*
X145892427Y-105523465D01*
X145934814Y-105565852D01*
X145949166Y-105600500D01*
X145934814Y-105635148D01*
X145900166Y-105649500D01*
X145724057Y-105649500D01*
X145689409Y-105635148D01*
X145519291Y-105465030D01*
X145504939Y-105430382D01*
X145505181Y-105427312D01*
X145505181Y-105425001D01*
X145505181Y-105425000D01*
X145486574Y-105307518D01*
X145468573Y-105272190D01*
X145432577Y-105201541D01*
X145432572Y-105201534D01*
X145348465Y-105117427D01*
X145348458Y-105117422D01*
X145242484Y-105063427D01*
X145242483Y-105063426D01*
X145242482Y-105063426D01*
X145125000Y-105044819D01*
X145007518Y-105063426D01*
X145007516Y-105063426D01*
X145007515Y-105063427D01*
X144901541Y-105117422D01*
X144901534Y-105117427D01*
X144817427Y-105201534D01*
X144817422Y-105201541D01*
X144763427Y-105307515D01*
X144763426Y-105307516D01*
X144763426Y-105307518D01*
X144744819Y-105425000D01*
X142279261Y-105425000D01*
X140554262Y-103700000D01*
X143819819Y-103700000D01*
X143838426Y-103817482D01*
X143838426Y-103817483D01*
X143838427Y-103817484D01*
X143892422Y-103923458D01*
X143892427Y-103923465D01*
X143976534Y-104007572D01*
X143976541Y-104007577D01*
X144047190Y-104043573D01*
X144082518Y-104061574D01*
X144200000Y-104080181D01*
X144317482Y-104061574D01*
X144389263Y-104025000D01*
X149144819Y-104025000D01*
X149163426Y-104142482D01*
X149163426Y-104142483D01*
X149163427Y-104142484D01*
X149217422Y-104248458D01*
X149217427Y-104248465D01*
X149301534Y-104332572D01*
X149301541Y-104332577D01*
X149372190Y-104368573D01*
X149407518Y-104386574D01*
X149525000Y-104405181D01*
X149642482Y-104386574D01*
X149736978Y-104338426D01*
X149748458Y-104332577D01*
X149748460Y-104332575D01*
X149748465Y-104332573D01*
X149784137Y-104296901D01*
X163552402Y-104296901D01*
X163552402Y-104296903D01*
X163552402Y-104395403D01*
X163552402Y-104395405D01*
X163552403Y-104395406D01*
X163590096Y-104486406D01*
X163590098Y-104486409D01*
X163659744Y-104556055D01*
X163659746Y-104556056D01*
X163659747Y-104556057D01*
X163750750Y-104593751D01*
X163849248Y-104593751D01*
X163849250Y-104593751D01*
X163940253Y-104556057D01*
X163940254Y-104556055D01*
X163940256Y-104556055D01*
X164009902Y-104486409D01*
X164009902Y-104486408D01*
X164009904Y-104486406D01*
X164047598Y-104395403D01*
X164050000Y-104346153D01*
X164047598Y-104296903D01*
X164009904Y-104205900D01*
X164009902Y-104205898D01*
X164009902Y-104205897D01*
X163940256Y-104136251D01*
X163940253Y-104136249D01*
X163849253Y-104098556D01*
X163849251Y-104098555D01*
X163849250Y-104098555D01*
X163849248Y-104098555D01*
X163750752Y-104098555D01*
X163750750Y-104098555D01*
X163750748Y-104098555D01*
X163750746Y-104098556D01*
X163659746Y-104136249D01*
X163590096Y-104205899D01*
X163552403Y-104296899D01*
X163552402Y-104296901D01*
X149784137Y-104296901D01*
X149832573Y-104248465D01*
X149886574Y-104142482D01*
X149905181Y-104025000D01*
X149886574Y-103907518D01*
X149868573Y-103872190D01*
X149832577Y-103801541D01*
X149832572Y-103801534D01*
X149748465Y-103717427D01*
X149748458Y-103717422D01*
X149642484Y-103663427D01*
X149642483Y-103663426D01*
X149642482Y-103663426D01*
X149525000Y-103644819D01*
X149407518Y-103663426D01*
X149407516Y-103663426D01*
X149407515Y-103663427D01*
X149301541Y-103717422D01*
X149301534Y-103717427D01*
X149217427Y-103801534D01*
X149217422Y-103801541D01*
X149163427Y-103907515D01*
X149163426Y-103907516D01*
X149163426Y-103907518D01*
X149144819Y-104025000D01*
X144389263Y-104025000D01*
X144395651Y-104021745D01*
X144423458Y-104007577D01*
X144423460Y-104007575D01*
X144423465Y-104007573D01*
X144507573Y-103923465D01*
X144515699Y-103907518D01*
X144524120Y-103890988D01*
X144561574Y-103817482D01*
X144580181Y-103700000D01*
X144561574Y-103582518D01*
X144535793Y-103531920D01*
X144507577Y-103476541D01*
X144507572Y-103476534D01*
X144481786Y-103450748D01*
X163552402Y-103450748D01*
X163552402Y-103450750D01*
X163552402Y-103549250D01*
X163552402Y-103549252D01*
X163552403Y-103549253D01*
X163590096Y-103640253D01*
X163590098Y-103640256D01*
X163659744Y-103709902D01*
X163659746Y-103709903D01*
X163659747Y-103709904D01*
X163750750Y-103747598D01*
X163849248Y-103747598D01*
X163849250Y-103747598D01*
X163940253Y-103709904D01*
X163940254Y-103709902D01*
X163940256Y-103709902D01*
X164009902Y-103640256D01*
X164009902Y-103640255D01*
X164009904Y-103640253D01*
X164047598Y-103549250D01*
X164050000Y-103500000D01*
X164047598Y-103450750D01*
X164009904Y-103359747D01*
X164009902Y-103359745D01*
X164009902Y-103359744D01*
X163940256Y-103290098D01*
X163940253Y-103290096D01*
X163849253Y-103252403D01*
X163849251Y-103252402D01*
X163849250Y-103252402D01*
X163849248Y-103252402D01*
X163750752Y-103252402D01*
X163750750Y-103252402D01*
X163750748Y-103252402D01*
X163750746Y-103252403D01*
X163659746Y-103290096D01*
X163590096Y-103359746D01*
X163552403Y-103450746D01*
X163552402Y-103450748D01*
X144481786Y-103450748D01*
X144423465Y-103392427D01*
X144423458Y-103392422D01*
X144317484Y-103338427D01*
X144317483Y-103338426D01*
X144317482Y-103338426D01*
X144200000Y-103319819D01*
X144082518Y-103338426D01*
X144082516Y-103338426D01*
X144082515Y-103338427D01*
X143976541Y-103392422D01*
X143976534Y-103392427D01*
X143892427Y-103476534D01*
X143892422Y-103476541D01*
X143838427Y-103582515D01*
X143838426Y-103582516D01*
X143838426Y-103582518D01*
X143819819Y-103700000D01*
X140554262Y-103700000D01*
X140341899Y-103487637D01*
X140249829Y-103449500D01*
X140249828Y-103449500D01*
X133300834Y-103449500D01*
X133266186Y-103435148D01*
X133223465Y-103392427D01*
X133223458Y-103392422D01*
X133117484Y-103338427D01*
X133117483Y-103338426D01*
X133117482Y-103338426D01*
X133000000Y-103319819D01*
X132882518Y-103338426D01*
X132882516Y-103338426D01*
X132882515Y-103338427D01*
X132776541Y-103392422D01*
X132776534Y-103392427D01*
X132692427Y-103476534D01*
X132692422Y-103476541D01*
X132638427Y-103582515D01*
X132638426Y-103582516D01*
X132638426Y-103582518D01*
X132619819Y-103700000D01*
X111044476Y-103700000D01*
X111114101Y-103531913D01*
X111118621Y-103523456D01*
X111222443Y-103368076D01*
X111228527Y-103360663D01*
X111360663Y-103228527D01*
X111368076Y-103222443D01*
X111523456Y-103118621D01*
X111531913Y-103114101D01*
X111704566Y-103042585D01*
X111713739Y-103039803D01*
X111897612Y-103003229D01*
X111905956Y-103002303D01*
X111999388Y-103000015D01*
X112000588Y-103000000D01*
X121500000Y-103000000D01*
X121502303Y-102905956D01*
X121502964Y-102900000D01*
X133619819Y-102900000D01*
X133638426Y-103017482D01*
X133638426Y-103017483D01*
X133638427Y-103017484D01*
X133692422Y-103123458D01*
X133692427Y-103123465D01*
X133776534Y-103207572D01*
X133776541Y-103207577D01*
X133817669Y-103228532D01*
X133882518Y-103261574D01*
X134000000Y-103280181D01*
X134117482Y-103261574D01*
X134194291Y-103222438D01*
X134223458Y-103207577D01*
X134223460Y-103207575D01*
X134223465Y-103207573D01*
X134307573Y-103123465D01*
X134307577Y-103123458D01*
X134309843Y-103120341D01*
X134311458Y-103121515D01*
X134334851Y-103101530D01*
X134372239Y-103104467D01*
X134388973Y-103121201D01*
X134390157Y-103120341D01*
X134392427Y-103123465D01*
X134476534Y-103207572D01*
X134476541Y-103207577D01*
X134517669Y-103228532D01*
X134582518Y-103261574D01*
X134700000Y-103280181D01*
X134817482Y-103261574D01*
X134894291Y-103222438D01*
X134923458Y-103207577D01*
X134923460Y-103207575D01*
X134923465Y-103207573D01*
X135007573Y-103123465D01*
X135010042Y-103118621D01*
X135024120Y-103090988D01*
X135061574Y-103017482D01*
X135080181Y-102900000D01*
X135061574Y-102782518D01*
X135043573Y-102747190D01*
X135007577Y-102676541D01*
X135007572Y-102676534D01*
X134923465Y-102592427D01*
X134923458Y-102592422D01*
X134817484Y-102538427D01*
X134817483Y-102538426D01*
X134817482Y-102538426D01*
X134700000Y-102519819D01*
X134582518Y-102538426D01*
X134582516Y-102538426D01*
X134582515Y-102538427D01*
X134476541Y-102592422D01*
X134476534Y-102592427D01*
X134392430Y-102676531D01*
X134390161Y-102679655D01*
X134388549Y-102678484D01*
X134365131Y-102698476D01*
X134327744Y-102695525D01*
X134311017Y-102678798D01*
X134309839Y-102679655D01*
X134307575Y-102676540D01*
X134307573Y-102676535D01*
X134223465Y-102592427D01*
X134223458Y-102592422D01*
X134117484Y-102538427D01*
X134117483Y-102538426D01*
X134117482Y-102538426D01*
X134000000Y-102519819D01*
X133882518Y-102538426D01*
X133882516Y-102538426D01*
X133882515Y-102538427D01*
X133776541Y-102592422D01*
X133776534Y-102592427D01*
X133692427Y-102676534D01*
X133692422Y-102676541D01*
X133638427Y-102782515D01*
X133638426Y-102782516D01*
X133638426Y-102782518D01*
X133619819Y-102900000D01*
X121502964Y-102900000D01*
X121503229Y-102897612D01*
X121539803Y-102713739D01*
X121542585Y-102704566D01*
X121614101Y-102531913D01*
X121618621Y-102523456D01*
X121722443Y-102368076D01*
X121728527Y-102360663D01*
X121860663Y-102228527D01*
X121868076Y-102222443D01*
X122023456Y-102118621D01*
X122031913Y-102114101D01*
X122204566Y-102042585D01*
X122213739Y-102039803D01*
X122397612Y-102003229D01*
X122405956Y-102002303D01*
X122499388Y-102000015D01*
X122500588Y-102000000D01*
X162499412Y-102000000D01*
X162500612Y-102000015D01*
G37*
%TD.AperFunction*%
%TA.AperFunction,Conductor*%
G36*
X132534814Y-114164852D02*
G01*
X132549166Y-114199500D01*
X132534814Y-114234148D01*
X132492427Y-114276534D01*
X132492422Y-114276541D01*
X132438427Y-114382515D01*
X132438426Y-114382516D01*
X132438426Y-114382518D01*
X132424875Y-114468079D01*
X132419819Y-114500001D01*
X132419819Y-114503856D01*
X132417988Y-114503856D01*
X132410689Y-114534201D01*
X132405708Y-114540030D01*
X131535591Y-115410148D01*
X131500943Y-115424500D01*
X130687006Y-115424500D01*
X130652358Y-115410148D01*
X130638006Y-115375500D01*
X130643347Y-115353254D01*
X130649134Y-115341897D01*
X130661574Y-115317482D01*
X130680181Y-115200000D01*
X130661574Y-115082518D01*
X130643573Y-115047190D01*
X130607577Y-114976541D01*
X130607572Y-114976534D01*
X130523465Y-114892427D01*
X130523458Y-114892422D01*
X130417484Y-114838427D01*
X130417483Y-114838426D01*
X130417482Y-114838426D01*
X130300000Y-114819819D01*
X130299999Y-114819819D01*
X130252233Y-114827384D01*
X130215766Y-114818628D01*
X130196171Y-114786652D01*
X130204927Y-114750185D01*
X130209914Y-114744345D01*
X130789408Y-114164852D01*
X130824056Y-114150500D01*
X132500166Y-114150500D01*
X132534814Y-114164852D01*
G37*
%TD.AperFunction*%
%TD*%
M02*
