%TF.GenerationSoftware,KiCad,Pcbnew,8.0.4*%
%TF.CreationDate,2024-09-02T22:56:13+02:00*%
%TF.ProjectId,elrs-sim,656c7273-2d73-4696-9d2e-6b696361645f,rev?*%
%TF.SameCoordinates,Original*%
%TF.FileFunction,Soldermask,Top*%
%TF.FilePolarity,Negative*%
%FSLAX46Y46*%
G04 Gerber Fmt 4.6, Leading zero omitted, Abs format (unit mm)*
G04 Created by KiCad (PCBNEW 8.0.4) date 2024-09-02 22:56:13*
%MOMM*%
%LPD*%
G01*
G04 APERTURE LIST*
G04 Aperture macros list*
%AMRoundRect*
0 Rectangle with rounded corners*
0 $1 Rounding radius*
0 $2 $3 $4 $5 $6 $7 $8 $9 X,Y pos of 4 corners*
0 Add a 4 corners polygon primitive as box body*
4,1,4,$2,$3,$4,$5,$6,$7,$8,$9,$2,$3,0*
0 Add four circle primitives for the rounded corners*
1,1,$1+$1,$2,$3*
1,1,$1+$1,$4,$5*
1,1,$1+$1,$6,$7*
1,1,$1+$1,$8,$9*
0 Add four rect primitives between the rounded corners*
20,1,$1+$1,$2,$3,$4,$5,0*
20,1,$1+$1,$4,$5,$6,$7,0*
20,1,$1+$1,$6,$7,$8,$9,0*
20,1,$1+$1,$8,$9,$2,$3,0*%
%AMFreePoly0*
4,1,6,1.000000,0.000000,0.500000,-0.750000,-0.500000,-0.750000,-0.500000,0.750000,0.500000,0.750000,1.000000,0.000000,1.000000,0.000000,$1*%
%AMFreePoly1*
4,1,6,0.500000,-0.750000,-0.650000,-0.750000,-0.150000,0.000000,-0.650000,0.750000,0.500000,0.750000,0.500000,-0.750000,0.500000,-0.750000,$1*%
G04 Aperture macros list end*
%ADD10RoundRect,0.102000X0.323000X-0.373000X0.323000X0.373000X-0.323000X0.373000X-0.323000X-0.373000X0*%
%ADD11R,0.240000X0.900000*%
%ADD12R,0.900000X0.240000*%
%ADD13R,0.900000X1.400000*%
%ADD14RoundRect,0.102000X0.373000X0.323000X-0.373000X0.323000X-0.373000X-0.323000X0.373000X-0.323000X0*%
%ADD15RoundRect,0.135000X0.135000X0.185000X-0.135000X0.185000X-0.135000X-0.185000X0.135000X-0.185000X0*%
%ADD16R,0.600000X0.600000*%
%ADD17R,0.300000X1.450000*%
%ADD18RoundRect,0.218750X-0.218750X-0.256250X0.218750X-0.256250X0.218750X0.256250X-0.218750X0.256250X0*%
%ADD19RoundRect,0.135000X-0.135000X-0.185000X0.135000X-0.185000X0.135000X0.185000X-0.135000X0.185000X0*%
%ADD20RoundRect,0.140000X0.140000X0.170000X-0.140000X0.170000X-0.140000X-0.170000X0.140000X-0.170000X0*%
%ADD21RoundRect,0.140000X-0.140000X-0.170000X0.140000X-0.170000X0.140000X0.170000X-0.140000X0.170000X0*%
%ADD22R,1.000000X2.300000*%
%ADD23R,0.300000X0.850000*%
%ADD24R,0.850000X0.300000*%
%ADD25R,2.650000X2.650000*%
%ADD26RoundRect,0.150000X-0.150000X0.512500X-0.150000X-0.512500X0.150000X-0.512500X0.150000X0.512500X0*%
%ADD27RoundRect,0.102000X-0.373000X-0.323000X0.373000X-0.323000X0.373000X0.323000X-0.373000X0.323000X0*%
%ADD28RoundRect,0.050000X0.050000X-0.387500X0.050000X0.387500X-0.050000X0.387500X-0.050000X-0.387500X0*%
%ADD29RoundRect,0.050000X0.387500X-0.050000X0.387500X0.050000X-0.387500X0.050000X-0.387500X-0.050000X0*%
%ADD30R,3.200000X3.200000*%
%ADD31RoundRect,0.500000X3.500000X-0.500000X3.500000X0.500000X-3.500000X0.500000X-3.500000X-0.500000X0*%
%ADD32RoundRect,0.500000X3.000000X-0.250000X3.000000X0.250000X-3.000000X0.250000X-3.000000X-0.250000X0*%
%ADD33FreePoly0,180.000000*%
%ADD34FreePoly1,180.000000*%
%ADD35RoundRect,0.140000X-0.170000X0.140000X-0.170000X-0.140000X0.170000X-0.140000X0.170000X0.140000X0*%
%ADD36R,0.900000X1.700000*%
%ADD37RoundRect,0.062500X-0.062500X0.387500X-0.062500X-0.387500X0.062500X-0.387500X0.062500X0.387500X0*%
%ADD38R,1.600000X0.200000*%
%ADD39RoundRect,0.140000X0.170000X-0.140000X0.170000X0.140000X-0.170000X0.140000X-0.170000X-0.140000X0*%
%ADD40R,1.700000X1.700000*%
%ADD41O,1.700000X1.700000*%
%ADD42RoundRect,0.500000X-3.500000X0.500000X-3.500000X-0.500000X3.500000X-0.500000X3.500000X0.500000X0*%
%ADD43RoundRect,0.500000X-3.000000X0.250000X-3.000000X-0.250000X3.000000X-0.250000X3.000000X0.250000X0*%
%ADD44RoundRect,0.135000X0.185000X-0.135000X0.185000X0.135000X-0.185000X0.135000X-0.185000X-0.135000X0*%
%ADD45R,0.300000X0.800000*%
%ADD46R,0.800000X0.300000*%
%ADD47R,3.750000X3.750000*%
%ADD48R,2.300000X1.000000*%
G04 APERTURE END LIST*
D10*
%TO.C,X2*%
X141825000Y-109925000D03*
X141825000Y-108475000D03*
X142975000Y-108475000D03*
X142975000Y-109925000D03*
%TD*%
D11*
%TO.C,IC3*%
X135250000Y-103050000D03*
D12*
X134200000Y-103600000D03*
X134200000Y-104100000D03*
X134200000Y-104600000D03*
X134200000Y-105100000D03*
X134200000Y-105600000D03*
D11*
X135250000Y-106150000D03*
X135750000Y-106150000D03*
D12*
X136800000Y-105600000D03*
X136800000Y-105100000D03*
X136800000Y-104600000D03*
X136800000Y-104100000D03*
X136800000Y-103600000D03*
D11*
X135750000Y-103050000D03*
D13*
X135500000Y-104600000D03*
%TD*%
D14*
%TO.C,X1*%
X136150000Y-114000000D03*
X134700000Y-114000000D03*
X134700000Y-112850000D03*
X136150000Y-112850000D03*
%TD*%
D15*
%TO.C,R6*%
X145135000Y-112225000D03*
X144115000Y-112225000D03*
%TD*%
D16*
%TO.C,ANT1*%
X157787000Y-109025000D03*
D17*
X158400000Y-109025000D03*
D16*
X159013000Y-109025000D03*
%TD*%
D18*
%TO.C,D2*%
X131212500Y-102800000D03*
X132787500Y-102800000D03*
%TD*%
D19*
%TO.C,R10*%
X131490000Y-105900000D03*
X132510000Y-105900000D03*
%TD*%
D15*
%TO.C,R7*%
X148035000Y-105025000D03*
X147015000Y-105025000D03*
%TD*%
D20*
%TO.C,C1*%
X127000000Y-115200000D03*
X126040000Y-115200000D03*
%TD*%
%TO.C,C5*%
X136800000Y-111600000D03*
X135840000Y-111600000D03*
%TD*%
D21*
%TO.C,C10*%
X146645000Y-112225000D03*
X147605000Y-112225000D03*
%TD*%
%TO.C,C14*%
X130740000Y-115200000D03*
X131700000Y-115200000D03*
%TD*%
D20*
%TO.C,C13*%
X125080000Y-109300000D03*
X124120000Y-109300000D03*
%TD*%
%TO.C,C12*%
X143205000Y-112225000D03*
X142245000Y-112225000D03*
%TD*%
D22*
%TO.C,L2*%
X143785000Y-114175000D03*
X148865000Y-114175000D03*
%TD*%
D23*
%TO.C,IC1*%
X155575000Y-107375000D03*
X155075000Y-107375000D03*
X154575000Y-107375000D03*
X154075000Y-107375000D03*
X153575000Y-107375000D03*
X153075000Y-107375000D03*
D24*
X152375000Y-108075000D03*
X152375000Y-108575000D03*
X152375000Y-109075000D03*
X152375000Y-109575000D03*
X152375000Y-110075000D03*
X152375000Y-110575000D03*
D23*
X153075000Y-111275000D03*
X153575000Y-111275000D03*
X154075000Y-111275000D03*
X154575000Y-111275000D03*
X155075000Y-111275000D03*
X155575000Y-111275000D03*
D24*
X156275000Y-110575000D03*
X156275000Y-110075000D03*
X156275000Y-109575000D03*
X156275000Y-109075000D03*
X156275000Y-108575000D03*
X156275000Y-108075000D03*
D25*
X154325000Y-109325000D03*
%TD*%
D20*
%TO.C,C6*%
X154025000Y-112425000D03*
X153065000Y-112425000D03*
%TD*%
D26*
%TO.C,U3*%
X124650000Y-112362500D03*
X122750000Y-112362500D03*
X123700000Y-114637500D03*
%TD*%
D20*
%TO.C,C4*%
X125085000Y-110300000D03*
X124125000Y-110300000D03*
%TD*%
D19*
%TO.C,R8*%
X146990000Y-104025000D03*
X148010000Y-104025000D03*
%TD*%
D27*
%TO.C,Y1*%
X152200000Y-105900000D03*
X153650000Y-105900000D03*
X153650000Y-104750000D03*
X152200000Y-104750000D03*
%TD*%
D28*
%TO.C,U1*%
X127100000Y-113987500D03*
X127500000Y-113987500D03*
X127900000Y-113987500D03*
X128300000Y-113987500D03*
X128700000Y-113987500D03*
X129100000Y-113987500D03*
X129500000Y-113987500D03*
X129900000Y-113987500D03*
X130300000Y-113987500D03*
X130700000Y-113987500D03*
X131100000Y-113987500D03*
X131500000Y-113987500D03*
X131900000Y-113987500D03*
X132300000Y-113987500D03*
D29*
X133137500Y-113150000D03*
X133137500Y-112750000D03*
X133137500Y-112350000D03*
X133137500Y-111950000D03*
X133137500Y-111550000D03*
X133137500Y-111150000D03*
X133137500Y-110750000D03*
X133137500Y-110350000D03*
X133137500Y-109950000D03*
X133137500Y-109550000D03*
X133137500Y-109150000D03*
X133137500Y-108750000D03*
X133137500Y-108350000D03*
X133137500Y-107950000D03*
D28*
X132300000Y-107112500D03*
X131900000Y-107112500D03*
X131500000Y-107112500D03*
X131100000Y-107112500D03*
X130700000Y-107112500D03*
X130300000Y-107112500D03*
X129900000Y-107112500D03*
X129500000Y-107112500D03*
X129100000Y-107112500D03*
X128700000Y-107112500D03*
X128300000Y-107112500D03*
X127900000Y-107112500D03*
X127500000Y-107112500D03*
X127100000Y-107112500D03*
D29*
X126262500Y-107950000D03*
X126262500Y-108350000D03*
X126262500Y-108750000D03*
X126262500Y-109150000D03*
X126262500Y-109550000D03*
X126262500Y-109950000D03*
X126262500Y-110350000D03*
X126262500Y-110750000D03*
X126262500Y-111150000D03*
X126262500Y-111550000D03*
X126262500Y-111950000D03*
X126262500Y-112350000D03*
X126262500Y-112750000D03*
X126262500Y-113150000D03*
D30*
X129700000Y-110550000D03*
%TD*%
D20*
%TO.C,C2*%
X125080000Y-108300000D03*
X124120000Y-108300000D03*
%TD*%
D31*
%TO.C,J1*%
X116500000Y-112525000D03*
D32*
X117000000Y-110075000D03*
X117000000Y-108025000D03*
D31*
X116500000Y-105575000D03*
%TD*%
D33*
%TO.C,JP1*%
X140225000Y-103700000D03*
D34*
X138775000Y-103700000D03*
%TD*%
D35*
%TO.C,C9*%
X151125000Y-110725000D03*
X151125000Y-111685000D03*
%TD*%
D19*
%TO.C,R4*%
X132590000Y-115200000D03*
X133610000Y-115200000D03*
%TD*%
D20*
%TO.C,C16*%
X125080000Y-107300000D03*
X124120000Y-107300000D03*
%TD*%
D36*
%TO.C,SW2*%
X126300000Y-103700000D03*
X129700000Y-103700000D03*
%TD*%
D19*
%TO.C,R5*%
X142215000Y-111225000D03*
X143235000Y-111225000D03*
%TD*%
D37*
%TO.C,U2*%
X136800000Y-107550000D03*
X136300000Y-107550000D03*
X135800000Y-107550000D03*
X135300000Y-107550000D03*
X135300000Y-110400000D03*
X135800000Y-110400000D03*
X136300000Y-110400000D03*
X136800000Y-110400000D03*
D38*
X136050000Y-108975000D03*
%TD*%
D39*
%TO.C,C15*%
X134300000Y-109680000D03*
X134300000Y-108720000D03*
%TD*%
D35*
%TO.C,C7*%
X155425000Y-105045000D03*
X155425000Y-106005000D03*
%TD*%
D18*
%TO.C,D1*%
X147312500Y-102800000D03*
X148887500Y-102800000D03*
%TD*%
D19*
%TO.C,R1*%
X148515000Y-112225000D03*
X149535000Y-112225000D03*
%TD*%
%TO.C,R3*%
X134500000Y-115200000D03*
X135520000Y-115200000D03*
%TD*%
D20*
%TO.C,C17*%
X127060000Y-105900000D03*
X126100000Y-105900000D03*
%TD*%
D21*
%TO.C,C11*%
X148945000Y-105025000D03*
X149905000Y-105025000D03*
%TD*%
D40*
%TO.C,J2*%
X139100000Y-106900000D03*
D41*
X139100000Y-109440000D03*
X139100000Y-111980000D03*
X139100000Y-114520000D03*
%TD*%
D35*
%TO.C,C8*%
X156525000Y-105045000D03*
X156525000Y-106005000D03*
%TD*%
D42*
%TO.C,J3*%
X169000000Y-105500000D03*
D43*
X168500000Y-107950000D03*
X168500000Y-110000000D03*
D42*
X169000000Y-112450000D03*
%TD*%
D36*
%TO.C,SW1*%
X145800000Y-103700000D03*
X142400000Y-103700000D03*
%TD*%
D44*
%TO.C,R2*%
X150725000Y-108325000D03*
X150725000Y-107305000D03*
%TD*%
D45*
%TO.C,IC2*%
X145075000Y-111125000D03*
X145575000Y-111125000D03*
X146075000Y-111125000D03*
X146575000Y-111125000D03*
X147075000Y-111125000D03*
X147575000Y-111125000D03*
X148075000Y-111125000D03*
X148575000Y-111125000D03*
D46*
X149325000Y-110375000D03*
X149325000Y-109875000D03*
X149325000Y-109375000D03*
X149325000Y-108875000D03*
X149325000Y-108375000D03*
X149325000Y-107875000D03*
X149325000Y-107375000D03*
X149325000Y-106875000D03*
D45*
X148575000Y-106125000D03*
X148075000Y-106125000D03*
X147575000Y-106125000D03*
X147075000Y-106125000D03*
X146575000Y-106125000D03*
X146075000Y-106125000D03*
X145575000Y-106125000D03*
X145075000Y-106125000D03*
D46*
X144325000Y-106875000D03*
X144325000Y-107375000D03*
X144325000Y-107875000D03*
X144325000Y-108375000D03*
X144325000Y-108875000D03*
X144325000Y-109375000D03*
X144325000Y-109875000D03*
X144325000Y-110375000D03*
D47*
X146825000Y-108625000D03*
%TD*%
D48*
%TO.C,L1*%
X161500000Y-111540000D03*
X161500000Y-106460000D03*
%TD*%
D20*
%TO.C,C3*%
X130600000Y-105900000D03*
X129640000Y-105900000D03*
%TD*%
D15*
%TO.C,R9*%
X132510000Y-104900000D03*
X131490000Y-104900000D03*
%TD*%
M02*
