%TF.GenerationSoftware,KiCad,Pcbnew,8.0.4*%
%TF.CreationDate,2024-09-10T22:43:07+02:00*%
%TF.ProjectId,elrs-sim,656c7273-2d73-4696-9d2e-6b696361645f,rev?*%
%TF.SameCoordinates,Original*%
%TF.FileFunction,Legend,Top*%
%TF.FilePolarity,Positive*%
%FSLAX46Y46*%
G04 Gerber Fmt 4.6, Leading zero omitted, Abs format (unit mm)*
G04 Created by KiCad (PCBNEW 8.0.4) date 2024-09-10 22:43:07*
%MOMM*%
%LPD*%
G01*
G04 APERTURE LIST*
G04 Aperture macros list*
%AMRoundRect*
0 Rectangle with rounded corners*
0 $1 Rounding radius*
0 $2 $3 $4 $5 $6 $7 $8 $9 X,Y pos of 4 corners*
0 Add a 4 corners polygon primitive as box body*
4,1,4,$2,$3,$4,$5,$6,$7,$8,$9,$2,$3,0*
0 Add four circle primitives for the rounded corners*
1,1,$1+$1,$2,$3*
1,1,$1+$1,$4,$5*
1,1,$1+$1,$6,$7*
1,1,$1+$1,$8,$9*
0 Add four rect primitives between the rounded corners*
20,1,$1+$1,$2,$3,$4,$5,0*
20,1,$1+$1,$4,$5,$6,$7,0*
20,1,$1+$1,$6,$7,$8,$9,0*
20,1,$1+$1,$8,$9,$2,$3,0*%
%AMFreePoly0*
4,1,6,1.000000,0.000000,0.500000,-0.750000,-0.500000,-0.750000,-0.500000,0.750000,0.500000,0.750000,1.000000,0.000000,1.000000,0.000000,$1*%
%AMFreePoly1*
4,1,6,0.500000,-0.750000,-0.650000,-0.750000,-0.150000,0.000000,-0.650000,0.750000,0.500000,0.750000,0.500000,-0.750000,0.500000,-0.750000,$1*%
G04 Aperture macros list end*
%ADD10C,0.120000*%
%ADD11C,0.100000*%
%ADD12C,0.250000*%
%ADD13RoundRect,0.135000X0.185000X-0.135000X0.185000X0.135000X-0.185000X0.135000X-0.185000X-0.135000X0*%
%ADD14R,0.600000X0.600000*%
%ADD15R,1.450000X0.300000*%
%ADD16RoundRect,0.140000X0.170000X-0.140000X0.170000X0.140000X-0.170000X0.140000X-0.170000X-0.140000X0*%
%ADD17RoundRect,0.218750X-0.218750X-0.256250X0.218750X-0.256250X0.218750X0.256250X-0.218750X0.256250X0*%
%ADD18RoundRect,0.135000X-0.135000X-0.185000X0.135000X-0.185000X0.135000X0.185000X-0.135000X0.185000X0*%
%ADD19RoundRect,0.135000X0.135000X0.185000X-0.135000X0.185000X-0.135000X-0.185000X0.135000X-0.185000X0*%
%ADD20RoundRect,0.140000X0.140000X0.170000X-0.140000X0.170000X-0.140000X-0.170000X0.140000X-0.170000X0*%
%ADD21RoundRect,0.140000X-0.140000X-0.170000X0.140000X-0.170000X0.140000X0.170000X-0.140000X0.170000X0*%
%ADD22RoundRect,0.102000X0.373000X0.323000X-0.373000X0.323000X-0.373000X-0.323000X0.373000X-0.323000X0*%
%ADD23RoundRect,0.102000X0.323000X-0.373000X0.323000X0.373000X-0.323000X0.373000X-0.323000X-0.373000X0*%
%ADD24RoundRect,0.102000X-0.373000X-0.323000X0.373000X-0.323000X0.373000X0.323000X-0.373000X0.323000X0*%
%ADD25RoundRect,0.140000X-0.170000X0.140000X-0.170000X-0.140000X0.170000X-0.140000X0.170000X0.140000X0*%
%ADD26R,1.000000X2.300000*%
%ADD27R,0.300000X0.850000*%
%ADD28R,0.850000X0.300000*%
%ADD29R,2.650000X2.650000*%
%ADD30RoundRect,0.050000X-0.350000X-0.050000X0.350000X-0.050000X0.350000X0.050000X-0.350000X0.050000X0*%
%ADD31RoundRect,0.050000X-0.050000X-0.325000X0.050000X-0.325000X0.050000X0.325000X-0.050000X0.325000X0*%
%ADD32RoundRect,0.135000X-0.185000X0.135000X-0.185000X-0.135000X0.185000X-0.135000X0.185000X0.135000X0*%
%ADD33RoundRect,0.050000X0.050000X-0.387500X0.050000X0.387500X-0.050000X0.387500X-0.050000X-0.387500X0*%
%ADD34RoundRect,0.050000X0.387500X-0.050000X0.387500X0.050000X-0.387500X0.050000X-0.387500X-0.050000X0*%
%ADD35R,3.200000X3.200000*%
%ADD36RoundRect,0.150000X0.150000X-0.512500X0.150000X0.512500X-0.150000X0.512500X-0.150000X-0.512500X0*%
%ADD37RoundRect,0.500000X3.500000X-0.500000X3.500000X0.500000X-3.500000X0.500000X-3.500000X-0.500000X0*%
%ADD38RoundRect,0.500000X3.000000X-0.250000X3.000000X0.250000X-3.000000X0.250000X-3.000000X-0.250000X0*%
%ADD39FreePoly0,180.000000*%
%ADD40FreePoly1,180.000000*%
%ADD41R,0.900000X1.700000*%
%ADD42RoundRect,0.062500X-0.062500X0.387500X-0.062500X-0.387500X0.062500X-0.387500X0.062500X0.387500X0*%
%ADD43R,1.600000X0.200000*%
%ADD44R,1.700000X1.700000*%
%ADD45O,1.700000X1.700000*%
%ADD46RoundRect,0.500000X-3.500000X0.500000X-3.500000X-0.500000X3.500000X-0.500000X3.500000X0.500000X0*%
%ADD47RoundRect,0.500000X-3.000000X0.250000X-3.000000X-0.250000X3.000000X-0.250000X3.000000X0.250000X0*%
%ADD48R,0.300000X0.800000*%
%ADD49R,0.800000X0.300000*%
%ADD50R,3.750000X3.750000*%
%ADD51R,2.300000X1.000000*%
G04 APERTURE END LIST*
D10*
%TO.C,R6*%
X142920000Y-112863641D02*
X142920000Y-112556359D01*
X143680000Y-112863641D02*
X143680000Y-112556359D01*
D11*
%TO.C,ANT1*%
X158300000Y-108213000D02*
X158300000Y-108213000D01*
X158300000Y-108313000D02*
X158300000Y-108313000D01*
X158300000Y-108213000D02*
G75*
G02*
X158300000Y-108313000I0J-50000D01*
G01*
X158300000Y-108313000D02*
G75*
G02*
X158300000Y-108213000I0J50000D01*
G01*
D10*
%TO.C,C18*%
X133990000Y-105557836D02*
X133990000Y-105342164D01*
X134710000Y-105557836D02*
X134710000Y-105342164D01*
%TO.C,D2*%
X130515000Y-102065000D02*
X130515000Y-103535000D01*
X130515000Y-103535000D02*
X132800000Y-103535000D01*
X132800000Y-102065000D02*
X130515000Y-102065000D01*
%TO.C,R10*%
X131846359Y-105520000D02*
X132153641Y-105520000D01*
X131846359Y-106280000D02*
X132153641Y-106280000D01*
%TO.C,R14*%
X124496359Y-104020000D02*
X124803641Y-104020000D01*
X124496359Y-104780000D02*
X124803641Y-104780000D01*
%TO.C,R7*%
X147678641Y-104645000D02*
X147371359Y-104645000D01*
X147678641Y-105405000D02*
X147371359Y-105405000D01*
%TO.C,C1*%
X126627836Y-114840000D02*
X126412164Y-114840000D01*
X126627836Y-115560000D02*
X126412164Y-115560000D01*
%TO.C,C5*%
X135857836Y-111240000D02*
X135642164Y-111240000D01*
X135857836Y-111960000D02*
X135642164Y-111960000D01*
%TO.C,C10*%
X147017164Y-111865000D02*
X147232836Y-111865000D01*
X147017164Y-112585000D02*
X147232836Y-112585000D01*
%TO.C,R11*%
X133020000Y-105603641D02*
X133020000Y-105296359D01*
X133780000Y-105603641D02*
X133780000Y-105296359D01*
%TO.C,C14*%
X131112164Y-114840000D02*
X131327836Y-114840000D01*
X131112164Y-115560000D02*
X131327836Y-115560000D01*
%TO.C,C13*%
X124707836Y-108940000D02*
X124492164Y-108940000D01*
X124707836Y-109660000D02*
X124492164Y-109660000D01*
%TO.C,X1*%
X136825000Y-112225000D02*
X134025000Y-112225000D01*
X136825000Y-114625000D02*
X136825000Y-112225000D01*
%TO.C,X2*%
X141200000Y-110600000D02*
X143600000Y-110600000D01*
X143600000Y-110600000D02*
X143600000Y-107800000D01*
%TO.C,C19*%
X122840000Y-108207836D02*
X122840000Y-107992164D01*
X123560000Y-108207836D02*
X123560000Y-107992164D01*
%TO.C,X3*%
X151550000Y-104200000D02*
X151550000Y-106600000D01*
X151550000Y-106600000D02*
X154350000Y-106600000D01*
%TO.C,C12*%
X141940000Y-112572164D02*
X141940000Y-112787836D01*
X142660000Y-112572164D02*
X142660000Y-112787836D01*
%TO.C,C22*%
X133990000Y-108542164D02*
X133990000Y-108757836D01*
X134710000Y-108542164D02*
X134710000Y-108757836D01*
%TO.C,C21*%
X124727836Y-105990000D02*
X124512164Y-105990000D01*
X124727836Y-106710000D02*
X124512164Y-106710000D01*
D12*
%TO.C,L2*%
X145500000Y-113020000D02*
X150700000Y-113020000D01*
X146320000Y-113890000D02*
X146320000Y-114910000D01*
X146320000Y-114910000D02*
X147080000Y-114910000D01*
X147080000Y-113890000D02*
X146320000Y-113890000D01*
X147080000Y-114910000D02*
X147080000Y-113890000D01*
X150640000Y-115780000D02*
X145440000Y-115780000D01*
%TO.C,IC1*%
X156450000Y-106950000D02*
G75*
G02*
X156200000Y-106950000I-125000J0D01*
G01*
X156200000Y-106950000D02*
G75*
G02*
X156450000Y-106950000I125000J0D01*
G01*
D10*
%TO.C,C6*%
X153640000Y-112792164D02*
X153640000Y-113007836D01*
X154360000Y-112792164D02*
X154360000Y-113007836D01*
%TO.C,R4*%
X137020000Y-114153641D02*
X137020000Y-113846359D01*
X137780000Y-114153641D02*
X137780000Y-113846359D01*
%TO.C,R15*%
X142903641Y-105770000D02*
X142596359Y-105770000D01*
X142903641Y-106530000D02*
X142596359Y-106530000D01*
%TO.C,S1*%
X135100000Y-104465000D02*
X135100000Y-104255000D01*
X135340000Y-106035000D02*
X135340000Y-105585000D01*
X136860000Y-104015000D02*
X136860000Y-104465000D01*
X136860000Y-106035000D02*
X136860000Y-105585000D01*
X135100000Y-104015000D02*
X134860000Y-103685000D01*
X135340000Y-103685000D01*
X135100000Y-104015000D01*
G36*
X135100000Y-104015000D02*
G01*
X134860000Y-103685000D01*
X135340000Y-103685000D01*
X135100000Y-104015000D01*
G37*
%TO.C,R2*%
X155420000Y-112746359D02*
X155420000Y-113053641D01*
X156180000Y-112746359D02*
X156180000Y-113053641D01*
%TO.C,C4*%
X124712836Y-109940000D02*
X124497164Y-109940000D01*
X124712836Y-110660000D02*
X124497164Y-110660000D01*
%TO.C,R8*%
X147346359Y-103645000D02*
X147653641Y-103645000D01*
X147346359Y-104405000D02*
X147653641Y-104405000D01*
%TO.C,U1*%
X126090000Y-106940000D02*
X126740000Y-106940000D01*
X126090000Y-107590000D02*
X126090000Y-106940000D01*
X126090000Y-113510000D02*
X126090000Y-113860000D01*
X126740000Y-114160000D02*
X126330000Y-114160000D01*
X133310000Y-106940000D02*
X132660000Y-106940000D01*
X133310000Y-107590000D02*
X133310000Y-106940000D01*
X133310000Y-113510000D02*
X133310000Y-114160000D01*
X133310000Y-114160000D02*
X132660000Y-114160000D01*
X126090000Y-114160000D02*
X125760000Y-114400000D01*
X125760000Y-113920000D01*
X126090000Y-114160000D01*
G36*
X126090000Y-114160000D02*
G01*
X125760000Y-114400000D01*
X125760000Y-113920000D01*
X126090000Y-114160000D01*
G37*
%TO.C,PS1*%
X122290000Y-112950000D02*
X122290000Y-112150000D01*
X122290000Y-112950000D02*
X122290000Y-113750000D01*
X125410000Y-112950000D02*
X125410000Y-112150000D01*
X125410000Y-112950000D02*
X125410000Y-113750000D01*
X122340000Y-114250000D02*
X122010000Y-114490000D01*
X122010000Y-114010000D01*
X122340000Y-114250000D01*
G36*
X122340000Y-114250000D02*
G01*
X122010000Y-114490000D01*
X122010000Y-114010000D01*
X122340000Y-114250000D01*
G37*
%TO.C,R16*%
X137020000Y-112253641D02*
X137020000Y-111946359D01*
X137780000Y-112253641D02*
X137780000Y-111946359D01*
%TO.C,C2*%
X124707836Y-107940000D02*
X124492164Y-107940000D01*
X124707836Y-108660000D02*
X124492164Y-108660000D01*
%TO.C,R13*%
X124446359Y-105020000D02*
X124753641Y-105020000D01*
X124446359Y-105780000D02*
X124753641Y-105780000D01*
%TO.C,JP1*%
X138100000Y-102700000D02*
X140900000Y-102700000D01*
X138100000Y-104700000D02*
X138100000Y-102700000D01*
X140900000Y-102700000D02*
X140900000Y-104700000D01*
X140900000Y-104700000D02*
X138100000Y-104700000D01*
%TO.C,C9*%
X150765000Y-111097164D02*
X150765000Y-111312836D01*
X151485000Y-111097164D02*
X151485000Y-111312836D01*
%TO.C,C20*%
X122840000Y-109842164D02*
X122840000Y-110057836D01*
X123560000Y-109842164D02*
X123560000Y-110057836D01*
%TO.C,C16*%
X124707836Y-106940000D02*
X124492164Y-106940000D01*
X124707836Y-107660000D02*
X124492164Y-107660000D01*
%TO.C,R3*%
X142843641Y-106720000D02*
X142536359Y-106720000D01*
X142843641Y-107480000D02*
X142536359Y-107480000D01*
%TO.C,SW2*%
X126350000Y-102300000D02*
X129650000Y-102300000D01*
X126350000Y-102600000D02*
X126350000Y-102300000D01*
X126350000Y-104800000D02*
X126350000Y-105100000D01*
X126350000Y-105100000D02*
X129650000Y-105100000D01*
X129650000Y-102300000D02*
X129650000Y-102600000D01*
X129650000Y-105100000D02*
X129650000Y-104800000D01*
%TO.C,R5*%
X142571359Y-110845000D02*
X142878641Y-110845000D01*
X142571359Y-111605000D02*
X142878641Y-111605000D01*
%TO.C,U2*%
X134965000Y-107475000D02*
X134965000Y-110475000D01*
X137235000Y-107475000D02*
X137235000Y-110475000D01*
X137430000Y-106925000D02*
X137150000Y-106925000D01*
X137150000Y-106645000D01*
X137430000Y-106925000D01*
G36*
X137430000Y-106925000D02*
G01*
X137150000Y-106925000D01*
X137150000Y-106645000D01*
X137430000Y-106925000D01*
G37*
%TO.C,C15*%
X133990000Y-110442164D02*
X133990000Y-110657836D01*
X134710000Y-110442164D02*
X134710000Y-110657836D01*
%TO.C,C7*%
X155065000Y-105417164D02*
X155065000Y-105632836D01*
X155785000Y-105417164D02*
X155785000Y-105632836D01*
%TO.C,D1*%
X146615000Y-102065000D02*
X146615000Y-103535000D01*
X146615000Y-103535000D02*
X148900000Y-103535000D01*
X148900000Y-102065000D02*
X146615000Y-102065000D01*
%TO.C,R1*%
X148871359Y-111845000D02*
X149178641Y-111845000D01*
X148871359Y-112605000D02*
X149178641Y-112605000D01*
%TO.C,C17*%
X126687836Y-105540000D02*
X126472164Y-105540000D01*
X126687836Y-106260000D02*
X126472164Y-106260000D01*
%TO.C,C11*%
X149317164Y-104665000D02*
X149532836Y-104665000D01*
X149317164Y-105385000D02*
X149532836Y-105385000D01*
%TO.C,J2*%
X137970000Y-105570000D02*
X139300000Y-105570000D01*
X137970000Y-106900000D02*
X137970000Y-105570000D01*
X137970000Y-108170000D02*
X137970000Y-115850000D01*
X137970000Y-108170000D02*
X140630000Y-108170000D01*
X137970000Y-115850000D02*
X140630000Y-115850000D01*
X140630000Y-108170000D02*
X140630000Y-115850000D01*
%TO.C,C8*%
X156165000Y-105417164D02*
X156165000Y-105632836D01*
X156885000Y-105417164D02*
X156885000Y-105632836D01*
%TO.C,SW1*%
X142450000Y-102300000D02*
X142450000Y-102600000D01*
X142450000Y-105100000D02*
X142450000Y-104800000D01*
X145750000Y-102300000D02*
X142450000Y-102300000D01*
X145750000Y-102600000D02*
X145750000Y-102300000D01*
X145750000Y-104800000D02*
X145750000Y-105100000D01*
X145750000Y-105100000D02*
X142450000Y-105100000D01*
D12*
%TO.C,IC2*%
X144450000Y-111525000D02*
G75*
G02*
X144200000Y-111525000I-125000J0D01*
G01*
X144200000Y-111525000D02*
G75*
G02*
X144450000Y-111525000I125000J0D01*
G01*
%TO.C,L1*%
X160120000Y-111600000D02*
X160120000Y-106400000D01*
X160990000Y-110020000D02*
X160990000Y-110780000D01*
X160990000Y-110780000D02*
X162010000Y-110780000D01*
X162010000Y-110020000D02*
X160990000Y-110020000D01*
X162010000Y-110780000D02*
X162010000Y-110020000D01*
X162880000Y-106460000D02*
X162880000Y-111660000D01*
D10*
%TO.C,C3*%
X130227836Y-105540000D02*
X130012164Y-105540000D01*
X130227836Y-106260000D02*
X130012164Y-106260000D01*
%TO.C,R12*%
X132143641Y-104570000D02*
X131836359Y-104570000D01*
X132143641Y-105330000D02*
X131836359Y-105330000D01*
%TO.C,R9*%
X132153641Y-103620000D02*
X131846359Y-103620000D01*
X132153641Y-104380000D02*
X131846359Y-104380000D01*
%TD*%
%LPC*%
D13*
%TO.C,R6*%
X143300000Y-113220000D03*
X143300000Y-112200000D03*
%TD*%
D14*
%TO.C,ANT1*%
X158300000Y-109100000D03*
D15*
X158300000Y-109713000D03*
D14*
X158300000Y-110326000D03*
%TD*%
D16*
%TO.C,C18*%
X134350000Y-105930000D03*
X134350000Y-104970000D03*
%TD*%
D17*
%TO.C,D2*%
X131212500Y-102800000D03*
X132787500Y-102800000D03*
%TD*%
D18*
%TO.C,R10*%
X131490000Y-105900000D03*
X132510000Y-105900000D03*
%TD*%
%TO.C,R14*%
X124140000Y-104400000D03*
X125160000Y-104400000D03*
%TD*%
D19*
%TO.C,R7*%
X148035000Y-105025000D03*
X147015000Y-105025000D03*
%TD*%
D20*
%TO.C,C1*%
X127000000Y-115200000D03*
X126040000Y-115200000D03*
%TD*%
%TO.C,C5*%
X136230000Y-111600000D03*
X135270000Y-111600000D03*
%TD*%
D21*
%TO.C,C10*%
X146645000Y-112225000D03*
X147605000Y-112225000D03*
%TD*%
D13*
%TO.C,R11*%
X133400000Y-105960000D03*
X133400000Y-104940000D03*
%TD*%
D21*
%TO.C,C14*%
X130740000Y-115200000D03*
X131700000Y-115200000D03*
%TD*%
D20*
%TO.C,C13*%
X125080000Y-109300000D03*
X124120000Y-109300000D03*
%TD*%
D22*
%TO.C,X1*%
X136150000Y-112850000D03*
X134700000Y-112850000D03*
X134700000Y-114000000D03*
X136150000Y-114000000D03*
%TD*%
D23*
%TO.C,X2*%
X142975000Y-109925000D03*
X142975000Y-108475000D03*
X141825000Y-108475000D03*
X141825000Y-109925000D03*
%TD*%
D16*
%TO.C,C19*%
X123200000Y-108580000D03*
X123200000Y-107620000D03*
%TD*%
D24*
%TO.C,X3*%
X152225000Y-105975000D03*
X153675000Y-105975000D03*
X153675000Y-104825000D03*
X152225000Y-104825000D03*
%TD*%
D25*
%TO.C,C12*%
X142300000Y-112200000D03*
X142300000Y-113160000D03*
%TD*%
%TO.C,C22*%
X134350000Y-108170000D03*
X134350000Y-109130000D03*
%TD*%
D20*
%TO.C,C21*%
X125100000Y-106350000D03*
X124140000Y-106350000D03*
%TD*%
D26*
%TO.C,L2*%
X145560000Y-114400000D03*
X150640000Y-114400000D03*
%TD*%
D27*
%TO.C,IC1*%
X155575000Y-107375000D03*
X155075000Y-107375000D03*
X154575000Y-107375000D03*
X154075000Y-107375000D03*
X153575000Y-107375000D03*
X153075000Y-107375000D03*
D28*
X152375000Y-108075000D03*
X152375000Y-108575000D03*
X152375000Y-109075000D03*
X152375000Y-109575000D03*
X152375000Y-110075000D03*
X152375000Y-110575000D03*
D27*
X153075000Y-111275000D03*
X153575000Y-111275000D03*
X154075000Y-111275000D03*
X154575000Y-111275000D03*
X155075000Y-111275000D03*
X155575000Y-111275000D03*
D28*
X156275000Y-110575000D03*
X156275000Y-110075000D03*
X156275000Y-109575000D03*
X156275000Y-109075000D03*
X156275000Y-108575000D03*
X156275000Y-108075000D03*
D29*
X154325000Y-109325000D03*
%TD*%
D25*
%TO.C,C6*%
X154000000Y-112420000D03*
X154000000Y-113380000D03*
%TD*%
D13*
%TO.C,R4*%
X137400000Y-114510000D03*
X137400000Y-113490000D03*
%TD*%
D19*
%TO.C,R15*%
X143260000Y-106150000D03*
X142240000Y-106150000D03*
%TD*%
D30*
%TO.C,S1*%
X135500000Y-104825000D03*
X135500000Y-105225000D03*
D31*
X135700000Y-105900000D03*
X136100000Y-105900000D03*
X136500000Y-105900000D03*
D30*
X136700000Y-105225000D03*
X136700000Y-104825000D03*
D31*
X136500000Y-104150000D03*
X136100000Y-104150000D03*
X135700000Y-104150000D03*
%TD*%
D32*
%TO.C,R2*%
X155800000Y-112390000D03*
X155800000Y-113410000D03*
%TD*%
D20*
%TO.C,C4*%
X125085000Y-110300000D03*
X124125000Y-110300000D03*
%TD*%
D18*
%TO.C,R8*%
X146990000Y-104025000D03*
X148010000Y-104025000D03*
%TD*%
D33*
%TO.C,U1*%
X127100000Y-113987500D03*
X127500000Y-113987500D03*
X127900000Y-113987500D03*
X128300000Y-113987500D03*
X128700000Y-113987500D03*
X129100000Y-113987500D03*
X129500000Y-113987500D03*
X129900000Y-113987500D03*
X130300000Y-113987500D03*
X130700000Y-113987500D03*
X131100000Y-113987500D03*
X131500000Y-113987500D03*
X131900000Y-113987500D03*
X132300000Y-113987500D03*
D34*
X133137500Y-113150000D03*
X133137500Y-112750000D03*
X133137500Y-112350000D03*
X133137500Y-111950000D03*
X133137500Y-111550000D03*
X133137500Y-111150000D03*
X133137500Y-110750000D03*
X133137500Y-110350000D03*
X133137500Y-109950000D03*
X133137500Y-109550000D03*
X133137500Y-109150000D03*
X133137500Y-108750000D03*
X133137500Y-108350000D03*
X133137500Y-107950000D03*
D33*
X132300000Y-107112500D03*
X131900000Y-107112500D03*
X131500000Y-107112500D03*
X131100000Y-107112500D03*
X130700000Y-107112500D03*
X130300000Y-107112500D03*
X129900000Y-107112500D03*
X129500000Y-107112500D03*
X129100000Y-107112500D03*
X128700000Y-107112500D03*
X128300000Y-107112500D03*
X127900000Y-107112500D03*
X127500000Y-107112500D03*
X127100000Y-107112500D03*
D34*
X126262500Y-107950000D03*
X126262500Y-108350000D03*
X126262500Y-108750000D03*
X126262500Y-109150000D03*
X126262500Y-109550000D03*
X126262500Y-109950000D03*
X126262500Y-110350000D03*
X126262500Y-110750000D03*
X126262500Y-111150000D03*
X126262500Y-111550000D03*
X126262500Y-111950000D03*
X126262500Y-112350000D03*
X126262500Y-112750000D03*
X126262500Y-113150000D03*
D35*
X129700000Y-110550000D03*
%TD*%
D36*
%TO.C,PS1*%
X122900000Y-114087500D03*
X123850000Y-114087500D03*
X124800000Y-114087500D03*
X124800000Y-111812500D03*
X122900000Y-111812500D03*
%TD*%
D13*
%TO.C,R16*%
X137400000Y-112610000D03*
X137400000Y-111590000D03*
%TD*%
D20*
%TO.C,C2*%
X125080000Y-108300000D03*
X124120000Y-108300000D03*
%TD*%
D18*
%TO.C,R13*%
X124090000Y-105400000D03*
X125110000Y-105400000D03*
%TD*%
D37*
%TO.C,J1*%
X116500000Y-112525000D03*
D38*
X117000000Y-110075000D03*
X117000000Y-108025000D03*
D37*
X116500000Y-105575000D03*
%TD*%
D39*
%TO.C,JP1*%
X140225000Y-103700000D03*
D40*
X138775000Y-103700000D03*
%TD*%
D25*
%TO.C,C9*%
X151125000Y-110725000D03*
X151125000Y-111685000D03*
%TD*%
%TO.C,C20*%
X123200000Y-109470000D03*
X123200000Y-110430000D03*
%TD*%
D20*
%TO.C,C16*%
X125080000Y-107300000D03*
X124120000Y-107300000D03*
%TD*%
D19*
%TO.C,R3*%
X143200000Y-107100000D03*
X142180000Y-107100000D03*
%TD*%
D41*
%TO.C,SW2*%
X126300000Y-103700000D03*
X129700000Y-103700000D03*
%TD*%
D18*
%TO.C,R5*%
X142215000Y-111225000D03*
X143235000Y-111225000D03*
%TD*%
D42*
%TO.C,U2*%
X136850000Y-107550000D03*
X136350000Y-107550000D03*
X135850000Y-107550000D03*
X135350000Y-107550000D03*
X135350000Y-110400000D03*
X135850000Y-110400000D03*
X136350000Y-110400000D03*
X136850000Y-110400000D03*
D43*
X136100000Y-108975000D03*
%TD*%
D25*
%TO.C,C15*%
X134350000Y-110070000D03*
X134350000Y-111030000D03*
%TD*%
%TO.C,C7*%
X155425000Y-105045000D03*
X155425000Y-106005000D03*
%TD*%
D17*
%TO.C,D1*%
X147312500Y-102800000D03*
X148887500Y-102800000D03*
%TD*%
D18*
%TO.C,R1*%
X148515000Y-112225000D03*
X149535000Y-112225000D03*
%TD*%
D20*
%TO.C,C17*%
X127060000Y-105900000D03*
X126100000Y-105900000D03*
%TD*%
D21*
%TO.C,C11*%
X148945000Y-105025000D03*
X149905000Y-105025000D03*
%TD*%
D44*
%TO.C,J2*%
X139300000Y-106900000D03*
D45*
X139300000Y-109440000D03*
X139300000Y-111980000D03*
X139300000Y-114520000D03*
%TD*%
D25*
%TO.C,C8*%
X156525000Y-105045000D03*
X156525000Y-106005000D03*
%TD*%
D46*
%TO.C,J3*%
X169000000Y-105500000D03*
D47*
X168500000Y-107950000D03*
X168500000Y-110000000D03*
D46*
X169000000Y-112450000D03*
%TD*%
D41*
%TO.C,SW1*%
X145800000Y-103700000D03*
X142400000Y-103700000D03*
%TD*%
D48*
%TO.C,IC2*%
X145075000Y-111125000D03*
X145575000Y-111125000D03*
X146075000Y-111125000D03*
X146575000Y-111125000D03*
X147075000Y-111125000D03*
X147575000Y-111125000D03*
X148075000Y-111125000D03*
X148575000Y-111125000D03*
D49*
X149325000Y-110375000D03*
X149325000Y-109875000D03*
X149325000Y-109375000D03*
X149325000Y-108875000D03*
X149325000Y-108375000D03*
X149325000Y-107875000D03*
X149325000Y-107375000D03*
X149325000Y-106875000D03*
D48*
X148575000Y-106125000D03*
X148075000Y-106125000D03*
X147575000Y-106125000D03*
X147075000Y-106125000D03*
X146575000Y-106125000D03*
X146075000Y-106125000D03*
X145575000Y-106125000D03*
X145075000Y-106125000D03*
D49*
X144325000Y-106875000D03*
X144325000Y-107375000D03*
X144325000Y-107875000D03*
X144325000Y-108375000D03*
X144325000Y-108875000D03*
X144325000Y-109375000D03*
X144325000Y-109875000D03*
X144325000Y-110375000D03*
D50*
X146825000Y-108625000D03*
%TD*%
D51*
%TO.C,L1*%
X161500000Y-111540000D03*
X161500000Y-106460000D03*
%TD*%
D20*
%TO.C,C3*%
X130600000Y-105900000D03*
X129640000Y-105900000D03*
%TD*%
D19*
%TO.C,R12*%
X132500000Y-104950000D03*
X131480000Y-104950000D03*
%TD*%
%TO.C,R9*%
X132510000Y-104000000D03*
X131490000Y-104000000D03*
%TD*%
%LPD*%
M02*
