%TF.GenerationSoftware,KiCad,Pcbnew,8.0.4*%
%TF.CreationDate,2024-10-09T21:29:51+02:00*%
%TF.ProjectId,elrs-sim,656c7273-2d73-4696-9d2e-6b696361645f,rev?*%
%TF.SameCoordinates,Original*%
%TF.FileFunction,Copper,L3,Inr*%
%TF.FilePolarity,Positive*%
%FSLAX46Y46*%
G04 Gerber Fmt 4.6, Leading zero omitted, Abs format (unit mm)*
G04 Created by KiCad (PCBNEW 8.0.4) date 2024-10-09 21:29:51*
%MOMM*%
%LPD*%
G01*
G04 APERTURE LIST*
G04 Aperture macros list*
%AMRoundRect*
0 Rectangle with rounded corners*
0 $1 Rounding radius*
0 $2 $3 $4 $5 $6 $7 $8 $9 X,Y pos of 4 corners*
0 Add a 4 corners polygon primitive as box body*
4,1,4,$2,$3,$4,$5,$6,$7,$8,$9,$2,$3,0*
0 Add four circle primitives for the rounded corners*
1,1,$1+$1,$2,$3*
1,1,$1+$1,$4,$5*
1,1,$1+$1,$6,$7*
1,1,$1+$1,$8,$9*
0 Add four rect primitives between the rounded corners*
20,1,$1+$1,$2,$3,$4,$5,0*
20,1,$1+$1,$4,$5,$6,$7,0*
20,1,$1+$1,$6,$7,$8,$9,0*
20,1,$1+$1,$8,$9,$2,$3,0*%
G04 Aperture macros list end*
%TA.AperFunction,ComponentPad*%
%ADD10R,1.700000X1.700000*%
%TD*%
%TA.AperFunction,ComponentPad*%
%ADD11O,1.700000X1.700000*%
%TD*%
%TA.AperFunction,ComponentPad*%
%ADD12RoundRect,0.500000X-3.500000X0.500000X-3.500000X-0.500000X3.500000X-0.500000X3.500000X0.500000X0*%
%TD*%
%TA.AperFunction,ComponentPad*%
%ADD13RoundRect,0.500000X-3.000000X0.250000X-3.000000X-0.250000X3.000000X-0.250000X3.000000X0.250000X0*%
%TD*%
%TA.AperFunction,ViaPad*%
%ADD14C,0.450000*%
%TD*%
%TA.AperFunction,Conductor*%
%ADD15C,0.200000*%
%TD*%
%TA.AperFunction,Conductor*%
%ADD16C,0.500000*%
%TD*%
G04 APERTURE END LIST*
D10*
%TO.N,GND*%
%TO.C,J2*%
X139500000Y-106900000D03*
D11*
%TO.N,USB_VBUS*%
X139500000Y-109440000D03*
%TO.N,Net-(J2-Pin_3)*%
X139500000Y-111980000D03*
%TO.N,Net-(J2-Pin_4)*%
X139500000Y-114520000D03*
%TD*%
D12*
%TO.N,unconnected-(J3-Pin_1-Pad1)*%
%TO.C,J3*%
X169000000Y-105325000D03*
D13*
%TO.N,unconnected-(J3-Pin_2-Pad2)*%
X168500000Y-107775000D03*
%TO.N,unconnected-(J3-Pin_3-Pad3)*%
X168500000Y-109825000D03*
D12*
%TO.N,unconnected-(J3-Pin_4-Pad4)*%
X169000000Y-112275000D03*
%TD*%
D14*
%TO.N,GND*%
X146825000Y-108625000D03*
X129700000Y-110500000D03*
X128500000Y-106100000D03*
X149905000Y-105025000D03*
X133700000Y-107300000D03*
X134600000Y-112100000D03*
X154325000Y-109325000D03*
X147605000Y-112900000D03*
X128000000Y-103700000D03*
%TO.N,+3.3V*%
X127600000Y-115200000D03*
X134600000Y-104200000D03*
X132100000Y-110350000D03*
X130300000Y-115200000D03*
X128400000Y-104400000D03*
X140400000Y-105000000D03*
X136150000Y-114750000D03*
X122400000Y-110700000D03*
%TO.N,IRS*%
X155425000Y-106180000D03*
X152325000Y-111225000D03*
%TO.N,BUSY*%
X150150000Y-106125000D03*
X145000000Y-105200000D03*
%TO.N,NRST*%
X150200000Y-107900000D03*
X154725000Y-104825000D03*
%TO.N,ESP_SCK*%
X156000020Y-111695003D03*
X150300000Y-110900000D03*
%TO.N,ESP_MOSI*%
X155300000Y-112200000D03*
X151300000Y-109200000D03*
%TO.N,ESP_MISO*%
X154463739Y-112200000D03*
X150300000Y-109900000D03*
%TO.N,DIO_1*%
X149325000Y-106425000D03*
X151525000Y-108525000D03*
%TO.N,+3.3V_SW*%
X134250000Y-106700000D03*
X144700000Y-112200000D03*
X150200000Y-112100000D03*
X148950000Y-104000000D03*
X136900000Y-104200000D03*
X146650000Y-112900000D03*
X143300000Y-105000000D03*
X151300000Y-109900000D03*
X141500000Y-111050000D03*
%TO.N,NSS*%
X156750000Y-111600000D03*
X151500000Y-107700000D03*
%TO.N,ESP_LED*%
X144200000Y-103700000D03*
X149325000Y-111200000D03*
%TO.N,ESP_BOOT*%
X146200000Y-105300000D03*
X150200000Y-107200000D03*
%TO.N,USB_DN*%
X125400000Y-103600000D03*
X116350000Y-109900000D03*
%TO.N,USB_DP*%
X116350000Y-107850000D03*
X125400000Y-102900000D03*
%TO.N,USB_VBUS*%
X115850000Y-112350000D03*
X126500000Y-114400000D03*
%TO.N,RP2040_RX*%
X135100000Y-106275000D03*
X129800000Y-113100000D03*
%TO.N,RP2040_TX*%
X137400000Y-103675000D03*
X128800000Y-113100000D03*
%TO.N,Net-(U1-VREG_VOUT)*%
X127113766Y-110503261D03*
X127300000Y-108000000D03*
X122400000Y-110049997D03*
X132050000Y-107975000D03*
X122000000Y-108400000D03*
%TO.N,RP2040_LED*%
X128450000Y-108000000D03*
X134200000Y-102775000D03*
%TO.N,QSPI_SS*%
X126500000Y-113700000D03*
X137200000Y-108400000D03*
X132900000Y-107300000D03*
%TO.N,QSPI_SD2*%
X125850479Y-113725000D03*
X135700000Y-108400000D03*
%TO.N,QSPI_SD3*%
X127100000Y-111300000D03*
X136600000Y-109600000D03*
%TO.N,QSPI_SD1*%
X128000000Y-113100000D03*
X136400000Y-108400000D03*
%TO.N,QSPI_SD0*%
X135200000Y-109600000D03*
X127100000Y-112000000D03*
%TO.N,QSPI_SCLK*%
X135900000Y-109600000D03*
X123901332Y-111104528D03*
%TO.N,RP2040_RX_NO*%
X135100000Y-105600000D03*
X141500000Y-107100000D03*
%TO.N,RP2040_TX_NC*%
X137400000Y-115100000D03*
X137400000Y-104850000D03*
%TO.N,Net-(U1-USB_DP)*%
X125799540Y-106098306D03*
X127300000Y-109800000D03*
%TO.N,Net-(U1-USB_DM)*%
X125800000Y-105000000D03*
X127310356Y-109010356D03*
%TO.N,RP2040_TX_NO*%
X141500000Y-106150000D03*
X135200000Y-103900000D03*
%TO.N,RP2040_RX_NC*%
X137100000Y-106000000D03*
X138250000Y-112750000D03*
%TD*%
D15*
%TO.N,IRS*%
X155425000Y-106180000D02*
X155425000Y-110075000D01*
X155425000Y-110075000D02*
X154275000Y-111225000D01*
X154275000Y-111225000D02*
X152325000Y-111225000D01*
%TO.N,ESP_BOOT*%
X147700000Y-107200000D02*
X146200000Y-105700000D01*
X150200000Y-107200000D02*
X147700000Y-107200000D01*
X146200000Y-105700000D02*
X146200000Y-105300000D01*
D16*
%TO.N,USB_VBUS*%
X126500000Y-114400000D02*
X134900000Y-114400000D01*
X139500000Y-109800000D02*
X139500000Y-109440000D01*
X134900000Y-114400000D02*
X139500000Y-109800000D01*
D15*
%TO.N,RP2040_RX*%
X130100000Y-113400000D02*
X129800000Y-113100000D01*
X137800000Y-108100000D02*
X137800000Y-109800000D01*
X135100000Y-106275000D02*
X135975000Y-106275000D01*
X137800000Y-109800000D02*
X134200000Y-113400000D01*
X135975000Y-106275000D02*
X137800000Y-108100000D01*
X134200000Y-113400000D02*
X130100000Y-113400000D01*
%TO.N,RP2040_TX*%
X134600000Y-113800000D02*
X129500000Y-113800000D01*
X137400000Y-103675000D02*
X138075000Y-103675000D01*
X129500000Y-113800000D02*
X128800000Y-113100000D01*
X138075000Y-103675000D02*
X138200000Y-103800000D01*
X138200000Y-110200000D02*
X134600000Y-113800000D01*
X138200000Y-103800000D02*
X138200000Y-110200000D01*
%TO.N,Net-(U1-VREG_VOUT)*%
X122617463Y-110175000D02*
X122925000Y-110482537D01*
X122400000Y-110049997D02*
X122525003Y-110175000D01*
X122525003Y-110175000D02*
X122617463Y-110175000D01*
X122925000Y-110482537D02*
X122925000Y-110500000D01*
X126775000Y-108525000D02*
X126775000Y-110164495D01*
X127110505Y-110500000D02*
X127113766Y-110503261D01*
X122925000Y-110500000D02*
X127110505Y-110500000D01*
X127300000Y-108000000D02*
X126900000Y-108400000D01*
X126900000Y-108400000D02*
X122000000Y-108400000D01*
X126775000Y-110164495D02*
X127113766Y-110503261D01*
X126900000Y-108400000D02*
X126775000Y-108525000D01*
%TO.N,QSPI_SD3*%
X127375000Y-111025000D02*
X127100000Y-111300000D01*
X132875000Y-111025000D02*
X127375000Y-111025000D01*
X136600000Y-109600000D02*
X136600000Y-109400000D01*
X136600000Y-109400000D02*
X136200000Y-109000000D01*
X134900000Y-109000000D02*
X132875000Y-111025000D01*
X136200000Y-109000000D02*
X134900000Y-109000000D01*
%TO.N,QSPI_SD0*%
X135200000Y-109700000D02*
X132900000Y-112000000D01*
X132900000Y-112000000D02*
X127100000Y-112000000D01*
X135200000Y-109600000D02*
X135200000Y-109700000D01*
%TO.N,QSPI_SCLK*%
X126625000Y-112525000D02*
X125204528Y-111104528D01*
X135900000Y-109900000D02*
X133275000Y-112525000D01*
X125204528Y-111104528D02*
X123901332Y-111104528D01*
X135900000Y-109600000D02*
X135900000Y-109900000D01*
X133275000Y-112525000D02*
X126625000Y-112525000D01*
%TO.N,RP2040_TX_NO*%
X141500000Y-106150000D02*
X141500000Y-105000000D01*
X135200000Y-103482537D02*
X135200000Y-103900000D01*
X139600000Y-103100000D02*
X135582537Y-103100000D01*
X141500000Y-105000000D02*
X139600000Y-103100000D01*
X135582537Y-103100000D02*
X135200000Y-103482537D01*
%TD*%
%TA.AperFunction,Conductor*%
%TO.N,+3.3V_SW*%
G36*
X162150551Y-101600012D02*
G01*
X162242353Y-101602012D01*
X162276681Y-101617115D01*
X162290274Y-101652067D01*
X162275171Y-101686395D01*
X162241286Y-101700000D01*
X159300000Y-101700000D01*
X159300000Y-116051000D01*
X159285648Y-116085648D01*
X159251000Y-116100000D01*
X151949000Y-116100000D01*
X151914352Y-116085648D01*
X151900000Y-116051000D01*
X151900000Y-113100000D01*
X148060433Y-113100000D01*
X148025785Y-113085648D01*
X148011433Y-113051000D01*
X148013830Y-113035861D01*
X148014716Y-113033131D01*
X148014719Y-113033126D01*
X148035804Y-112900000D01*
X148014719Y-112766874D01*
X147994322Y-112726842D01*
X147953532Y-112646786D01*
X147953527Y-112646779D01*
X147858220Y-112551472D01*
X147858213Y-112551467D01*
X147738128Y-112490282D01*
X147738127Y-112490281D01*
X147738126Y-112490281D01*
X147605000Y-112469196D01*
X147471874Y-112490281D01*
X147471872Y-112490281D01*
X147471871Y-112490282D01*
X147351786Y-112551467D01*
X147351779Y-112551472D01*
X147256472Y-112646779D01*
X147256467Y-112646786D01*
X147195282Y-112766871D01*
X147195281Y-112766872D01*
X147195281Y-112766874D01*
X147174196Y-112900000D01*
X147195281Y-113033126D01*
X147196170Y-113035861D01*
X147193225Y-113073249D01*
X147164706Y-113097603D01*
X147149567Y-113100000D01*
X144300000Y-113100000D01*
X144300000Y-116051000D01*
X144285648Y-116085648D01*
X144251000Y-116100000D01*
X140949000Y-116100000D01*
X140914352Y-116085648D01*
X140900000Y-116051000D01*
X140900000Y-112200000D01*
X154032935Y-112200000D01*
X154054020Y-112333126D01*
X154054020Y-112333127D01*
X154054021Y-112333128D01*
X154115206Y-112453213D01*
X154115211Y-112453220D01*
X154210518Y-112548527D01*
X154210525Y-112548532D01*
X154290581Y-112589322D01*
X154330613Y-112609719D01*
X154463739Y-112630804D01*
X154596865Y-112609719D01*
X154680159Y-112567278D01*
X154716952Y-112548532D01*
X154716954Y-112548530D01*
X154716959Y-112548528D01*
X154812267Y-112453220D01*
X154838210Y-112402302D01*
X154866726Y-112377948D01*
X154904114Y-112380889D01*
X154925528Y-112402304D01*
X154951467Y-112453213D01*
X154951472Y-112453220D01*
X155046779Y-112548527D01*
X155046786Y-112548532D01*
X155126842Y-112589322D01*
X155166874Y-112609719D01*
X155300000Y-112630804D01*
X155433126Y-112609719D01*
X155516420Y-112567278D01*
X155553213Y-112548532D01*
X155553215Y-112548530D01*
X155553220Y-112548528D01*
X155648528Y-112453220D01*
X155709719Y-112333126D01*
X155730804Y-112200000D01*
X155717485Y-112115911D01*
X155726240Y-112079447D01*
X155758216Y-112059851D01*
X155788127Y-112064589D01*
X155838234Y-112090119D01*
X155866894Y-112104722D01*
X156000020Y-112125807D01*
X156133146Y-112104722D01*
X156221210Y-112059851D01*
X156253233Y-112043535D01*
X156253235Y-112043533D01*
X156253240Y-112043531D01*
X156348548Y-111948223D01*
X156367861Y-111910317D01*
X156396377Y-111885962D01*
X156433765Y-111888904D01*
X156446168Y-111897916D01*
X156496779Y-111948527D01*
X156496786Y-111948532D01*
X156576842Y-111989322D01*
X156616874Y-112009719D01*
X156750000Y-112030804D01*
X156883126Y-112009719D01*
X156966420Y-111967278D01*
X157003213Y-111948532D01*
X157003215Y-111948530D01*
X157003220Y-111948528D01*
X157098528Y-111853220D01*
X157099422Y-111851467D01*
X157117719Y-111815556D01*
X157159719Y-111733126D01*
X157180804Y-111600000D01*
X157159719Y-111466874D01*
X157128752Y-111406097D01*
X157098532Y-111346786D01*
X157098527Y-111346779D01*
X157003220Y-111251472D01*
X157003213Y-111251467D01*
X156883128Y-111190282D01*
X156883127Y-111190281D01*
X156883126Y-111190281D01*
X156750000Y-111169196D01*
X156616874Y-111190281D01*
X156616872Y-111190281D01*
X156616871Y-111190282D01*
X156496786Y-111251467D01*
X156496779Y-111251472D01*
X156401475Y-111346776D01*
X156401472Y-111346780D01*
X156382158Y-111384685D01*
X156353640Y-111409040D01*
X156316252Y-111406097D01*
X156303851Y-111397086D01*
X156253240Y-111346475D01*
X156253233Y-111346470D01*
X156133148Y-111285285D01*
X156133147Y-111285284D01*
X156133146Y-111285284D01*
X156000020Y-111264199D01*
X155866894Y-111285284D01*
X155866892Y-111285284D01*
X155866891Y-111285285D01*
X155746806Y-111346470D01*
X155746799Y-111346475D01*
X155651492Y-111441782D01*
X155651487Y-111441789D01*
X155590302Y-111561874D01*
X155590301Y-111561875D01*
X155590301Y-111561877D01*
X155569216Y-111695003D01*
X155582534Y-111779089D01*
X155573779Y-111815556D01*
X155541802Y-111835151D01*
X155511892Y-111830414D01*
X155433126Y-111790281D01*
X155300000Y-111769196D01*
X155166874Y-111790281D01*
X155166872Y-111790281D01*
X155166871Y-111790282D01*
X155046786Y-111851467D01*
X155046779Y-111851472D01*
X154951474Y-111946778D01*
X154951468Y-111946784D01*
X154925528Y-111997696D01*
X154897011Y-112022052D01*
X154859623Y-112019109D01*
X154838210Y-111997696D01*
X154812267Y-111946780D01*
X154716959Y-111851472D01*
X154716952Y-111851467D01*
X154596867Y-111790282D01*
X154596866Y-111790281D01*
X154596865Y-111790281D01*
X154463739Y-111769196D01*
X154330613Y-111790281D01*
X154330611Y-111790281D01*
X154330610Y-111790282D01*
X154210525Y-111851467D01*
X154210518Y-111851472D01*
X154115213Y-111946778D01*
X154115206Y-111946786D01*
X154054021Y-112066871D01*
X154054020Y-112066872D01*
X154054020Y-112066874D01*
X154032935Y-112200000D01*
X140900000Y-112200000D01*
X140900000Y-111200000D01*
X148894196Y-111200000D01*
X148915281Y-111333126D01*
X148915281Y-111333127D01*
X148915282Y-111333128D01*
X148976467Y-111453213D01*
X148976472Y-111453220D01*
X149071779Y-111548527D01*
X149071786Y-111548532D01*
X149151842Y-111589322D01*
X149191874Y-111609719D01*
X149325000Y-111630804D01*
X149458126Y-111609719D01*
X149552027Y-111561874D01*
X149578213Y-111548532D01*
X149578215Y-111548530D01*
X149578220Y-111548528D01*
X149673528Y-111453220D01*
X149679353Y-111441789D01*
X149697538Y-111406097D01*
X149734719Y-111333126D01*
X149755804Y-111200000D01*
X149734719Y-111066874D01*
X149714322Y-111026842D01*
X149673532Y-110946786D01*
X149673527Y-110946779D01*
X149626748Y-110900000D01*
X149869196Y-110900000D01*
X149890281Y-111033126D01*
X149890281Y-111033127D01*
X149890282Y-111033128D01*
X149951467Y-111153213D01*
X149951472Y-111153220D01*
X150046779Y-111248527D01*
X150046786Y-111248532D01*
X150126842Y-111289322D01*
X150166874Y-111309719D01*
X150300000Y-111330804D01*
X150433126Y-111309719D01*
X150522464Y-111264199D01*
X150553213Y-111248532D01*
X150553215Y-111248530D01*
X150553220Y-111248528D01*
X150576748Y-111225000D01*
X151894196Y-111225000D01*
X151915281Y-111358126D01*
X151915281Y-111358127D01*
X151915282Y-111358128D01*
X151976467Y-111478213D01*
X151976472Y-111478220D01*
X152071779Y-111573527D01*
X152071786Y-111573532D01*
X152123734Y-111600000D01*
X152191874Y-111634719D01*
X152325000Y-111655804D01*
X152458126Y-111634719D01*
X152541420Y-111592278D01*
X152578213Y-111573532D01*
X152578215Y-111573530D01*
X152578220Y-111573528D01*
X152611896Y-111539852D01*
X152646544Y-111525500D01*
X154314564Y-111525500D01*
X154341230Y-111518354D01*
X154390989Y-111505021D01*
X154459511Y-111465460D01*
X154515460Y-111409511D01*
X155665460Y-110259511D01*
X155705022Y-110190988D01*
X155725499Y-110114565D01*
X155725500Y-110114565D01*
X155725500Y-106501544D01*
X155739852Y-106466896D01*
X155773528Y-106433220D01*
X155777717Y-106425000D01*
X155801555Y-106378213D01*
X155834719Y-106313126D01*
X155855804Y-106180000D01*
X155834719Y-106046874D01*
X155806693Y-105991870D01*
X155773532Y-105926786D01*
X155773527Y-105926779D01*
X155678220Y-105831472D01*
X155678213Y-105831467D01*
X155558128Y-105770282D01*
X155558127Y-105770281D01*
X155558126Y-105770281D01*
X155425000Y-105749196D01*
X155291874Y-105770281D01*
X155291872Y-105770281D01*
X155291871Y-105770282D01*
X155171786Y-105831467D01*
X155171779Y-105831472D01*
X155076472Y-105926779D01*
X155076467Y-105926786D01*
X155015282Y-106046871D01*
X155015281Y-106046872D01*
X155015281Y-106046874D01*
X154994196Y-106180000D01*
X155015281Y-106313126D01*
X155015281Y-106313127D01*
X155015282Y-106313128D01*
X155076467Y-106433213D01*
X155076472Y-106433220D01*
X155110148Y-106466896D01*
X155124500Y-106501544D01*
X155124500Y-109930233D01*
X155110148Y-109964881D01*
X154164881Y-110910148D01*
X154130233Y-110924500D01*
X152646544Y-110924500D01*
X152611896Y-110910148D01*
X152578220Y-110876472D01*
X152578213Y-110876467D01*
X152458128Y-110815282D01*
X152458127Y-110815281D01*
X152458126Y-110815281D01*
X152325000Y-110794196D01*
X152191874Y-110815281D01*
X152191872Y-110815281D01*
X152191871Y-110815282D01*
X152071786Y-110876467D01*
X152071779Y-110876472D01*
X151976472Y-110971779D01*
X151976467Y-110971786D01*
X151915282Y-111091871D01*
X151915281Y-111091872D01*
X151915281Y-111091874D01*
X151894196Y-111225000D01*
X150576748Y-111225000D01*
X150648528Y-111153220D01*
X150709719Y-111033126D01*
X150730804Y-110900000D01*
X150709719Y-110766874D01*
X150689322Y-110726842D01*
X150648532Y-110646786D01*
X150648527Y-110646779D01*
X150553220Y-110551472D01*
X150553213Y-110551467D01*
X150433128Y-110490282D01*
X150433127Y-110490281D01*
X150433126Y-110490281D01*
X150300000Y-110469196D01*
X150166874Y-110490281D01*
X150166872Y-110490281D01*
X150166871Y-110490282D01*
X150046786Y-110551467D01*
X150046779Y-110551472D01*
X149951472Y-110646779D01*
X149951467Y-110646786D01*
X149890282Y-110766871D01*
X149890281Y-110766872D01*
X149890281Y-110766874D01*
X149869196Y-110900000D01*
X149626748Y-110900000D01*
X149578220Y-110851472D01*
X149578213Y-110851467D01*
X149458128Y-110790282D01*
X149458127Y-110790281D01*
X149458126Y-110790281D01*
X149325000Y-110769196D01*
X149191874Y-110790281D01*
X149191872Y-110790281D01*
X149191871Y-110790282D01*
X149071786Y-110851467D01*
X149071779Y-110851472D01*
X148976472Y-110946779D01*
X148976467Y-110946786D01*
X148915282Y-111066871D01*
X148915281Y-111066872D01*
X148915281Y-111066874D01*
X148894196Y-111200000D01*
X140900000Y-111200000D01*
X140900000Y-109900000D01*
X149869196Y-109900000D01*
X149890281Y-110033126D01*
X149890281Y-110033127D01*
X149890282Y-110033128D01*
X149951467Y-110153213D01*
X149951472Y-110153220D01*
X150046779Y-110248527D01*
X150046786Y-110248532D01*
X150126842Y-110289322D01*
X150166874Y-110309719D01*
X150300000Y-110330804D01*
X150433126Y-110309719D01*
X150531665Y-110259511D01*
X150553213Y-110248532D01*
X150553215Y-110248530D01*
X150553220Y-110248528D01*
X150648528Y-110153220D01*
X150709719Y-110033126D01*
X150730804Y-109900000D01*
X150709719Y-109766874D01*
X150662157Y-109673528D01*
X150648532Y-109646786D01*
X150648527Y-109646779D01*
X150553220Y-109551472D01*
X150553213Y-109551467D01*
X150433128Y-109490282D01*
X150433127Y-109490281D01*
X150433126Y-109490281D01*
X150300000Y-109469196D01*
X150166874Y-109490281D01*
X150166872Y-109490281D01*
X150166871Y-109490282D01*
X150046786Y-109551467D01*
X150046779Y-109551472D01*
X149951472Y-109646779D01*
X149951467Y-109646786D01*
X149890282Y-109766871D01*
X149890281Y-109766872D01*
X149890281Y-109766874D01*
X149869196Y-109900000D01*
X140900000Y-109900000D01*
X140900000Y-109200000D01*
X150869196Y-109200000D01*
X150890281Y-109333126D01*
X150890281Y-109333127D01*
X150890282Y-109333128D01*
X150951467Y-109453213D01*
X150951472Y-109453220D01*
X151046779Y-109548527D01*
X151046786Y-109548532D01*
X151126842Y-109589322D01*
X151166874Y-109609719D01*
X151300000Y-109630804D01*
X151433126Y-109609719D01*
X151516420Y-109567278D01*
X151553213Y-109548532D01*
X151553215Y-109548530D01*
X151553220Y-109548528D01*
X151648528Y-109453220D01*
X151709719Y-109333126D01*
X151711006Y-109325000D01*
X153894196Y-109325000D01*
X153915281Y-109458126D01*
X153915281Y-109458127D01*
X153915282Y-109458128D01*
X153976467Y-109578213D01*
X153976472Y-109578220D01*
X154071779Y-109673527D01*
X154071786Y-109673532D01*
X154151842Y-109714322D01*
X154191874Y-109734719D01*
X154325000Y-109755804D01*
X154458126Y-109734719D01*
X154541420Y-109692278D01*
X154578213Y-109673532D01*
X154578215Y-109673530D01*
X154578220Y-109673528D01*
X154673528Y-109578220D01*
X154734719Y-109458126D01*
X154755804Y-109325000D01*
X154734719Y-109191874D01*
X154714322Y-109151842D01*
X154673532Y-109071786D01*
X154673527Y-109071779D01*
X154578220Y-108976472D01*
X154578213Y-108976467D01*
X154458128Y-108915282D01*
X154458127Y-108915281D01*
X154458126Y-108915281D01*
X154325000Y-108894196D01*
X154191874Y-108915281D01*
X154191872Y-108915281D01*
X154191871Y-108915282D01*
X154071786Y-108976467D01*
X154071779Y-108976472D01*
X153976472Y-109071779D01*
X153976467Y-109071786D01*
X153915282Y-109191871D01*
X153915281Y-109191872D01*
X153915281Y-109191874D01*
X153894196Y-109325000D01*
X151711006Y-109325000D01*
X151730804Y-109200000D01*
X151709719Y-109066874D01*
X151693334Y-109034717D01*
X151667873Y-108984745D01*
X151664930Y-108947358D01*
X151689285Y-108918842D01*
X151778220Y-108873528D01*
X151873528Y-108778220D01*
X151883766Y-108758128D01*
X151892873Y-108740253D01*
X151934719Y-108658126D01*
X151955804Y-108525000D01*
X151934719Y-108391874D01*
X151914322Y-108351842D01*
X151873532Y-108271786D01*
X151873527Y-108271779D01*
X151778220Y-108176472D01*
X151778215Y-108176468D01*
X151725854Y-108149789D01*
X151701498Y-108121272D01*
X151704441Y-108083884D01*
X151725854Y-108062471D01*
X151753220Y-108048528D01*
X151848528Y-107953220D01*
X151909719Y-107833126D01*
X151930804Y-107700000D01*
X151909719Y-107566874D01*
X151883467Y-107515351D01*
X151848532Y-107446786D01*
X151848526Y-107446778D01*
X151753220Y-107351472D01*
X151753213Y-107351467D01*
X151633128Y-107290282D01*
X151633127Y-107290281D01*
X151633126Y-107290281D01*
X151500000Y-107269196D01*
X151366874Y-107290281D01*
X151366872Y-107290281D01*
X151366871Y-107290282D01*
X151246786Y-107351467D01*
X151246779Y-107351472D01*
X151151474Y-107446778D01*
X151151467Y-107446786D01*
X151090282Y-107566871D01*
X151090281Y-107566872D01*
X151090281Y-107566874D01*
X151069196Y-107700000D01*
X151090281Y-107833126D01*
X151090281Y-107833127D01*
X151090282Y-107833128D01*
X151151467Y-107953213D01*
X151151472Y-107953220D01*
X151246780Y-108048528D01*
X151299145Y-108075209D01*
X151323501Y-108103725D01*
X151320559Y-108141113D01*
X151299146Y-108162527D01*
X151271782Y-108176470D01*
X151271779Y-108176472D01*
X151176472Y-108271779D01*
X151176467Y-108271786D01*
X151115282Y-108391871D01*
X151115281Y-108391872D01*
X151115281Y-108391874D01*
X151094196Y-108525000D01*
X151115281Y-108658126D01*
X151115281Y-108658127D01*
X151115282Y-108658128D01*
X151157126Y-108740253D01*
X151160069Y-108777640D01*
X151135713Y-108806157D01*
X151046784Y-108851468D01*
X151046779Y-108851472D01*
X150951472Y-108946779D01*
X150951467Y-108946786D01*
X150890282Y-109066871D01*
X150890281Y-109066872D01*
X150890281Y-109066874D01*
X150869196Y-109200000D01*
X140900000Y-109200000D01*
X140900000Y-108625000D01*
X146394196Y-108625000D01*
X146415281Y-108758126D01*
X146415281Y-108758127D01*
X146415282Y-108758128D01*
X146476467Y-108878213D01*
X146476472Y-108878220D01*
X146571779Y-108973527D01*
X146571786Y-108973532D01*
X146651842Y-109014322D01*
X146691874Y-109034719D01*
X146825000Y-109055804D01*
X146958126Y-109034719D01*
X147041420Y-108992278D01*
X147078213Y-108973532D01*
X147078215Y-108973530D01*
X147078220Y-108973528D01*
X147173528Y-108878220D01*
X147175919Y-108873529D01*
X147219844Y-108787319D01*
X147234719Y-108758126D01*
X147255804Y-108625000D01*
X147234719Y-108491874D01*
X147214322Y-108451842D01*
X147173532Y-108371786D01*
X147173527Y-108371779D01*
X147078220Y-108276472D01*
X147078213Y-108276467D01*
X146958128Y-108215282D01*
X146958127Y-108215281D01*
X146958126Y-108215281D01*
X146825000Y-108194196D01*
X146691874Y-108215281D01*
X146691872Y-108215281D01*
X146691871Y-108215282D01*
X146571786Y-108276467D01*
X146571779Y-108276472D01*
X146476472Y-108371779D01*
X146476467Y-108371786D01*
X146415282Y-108491871D01*
X146415281Y-108491872D01*
X146415281Y-108491874D01*
X146394196Y-108625000D01*
X140900000Y-108625000D01*
X140900000Y-107100000D01*
X141069196Y-107100000D01*
X141090281Y-107233126D01*
X141090281Y-107233127D01*
X141090282Y-107233128D01*
X141151467Y-107353213D01*
X141151472Y-107353220D01*
X141246779Y-107448527D01*
X141246786Y-107448532D01*
X141308586Y-107480020D01*
X141366874Y-107509719D01*
X141500000Y-107530804D01*
X141633126Y-107509719D01*
X141716420Y-107467278D01*
X141753213Y-107448532D01*
X141753215Y-107448530D01*
X141753220Y-107448528D01*
X141848528Y-107353220D01*
X141849422Y-107351467D01*
X141867278Y-107316420D01*
X141909719Y-107233126D01*
X141930804Y-107100000D01*
X141909719Y-106966874D01*
X141889322Y-106926842D01*
X141848532Y-106846786D01*
X141848527Y-106846779D01*
X141753220Y-106751472D01*
X141753213Y-106751467D01*
X141633128Y-106690282D01*
X141633127Y-106690281D01*
X141633126Y-106690281D01*
X141526519Y-106673396D01*
X141499424Y-106656791D01*
X141494614Y-106664642D01*
X141473479Y-106673396D01*
X141366874Y-106690281D01*
X141366872Y-106690281D01*
X141366871Y-106690282D01*
X141246786Y-106751467D01*
X141246779Y-106751472D01*
X141151472Y-106846779D01*
X141151467Y-106846786D01*
X141090282Y-106966871D01*
X141090281Y-106966872D01*
X141090281Y-106966874D01*
X141069196Y-107100000D01*
X140900000Y-107100000D01*
X140900000Y-104943267D01*
X140914352Y-104908619D01*
X140949000Y-104894267D01*
X140983648Y-104908619D01*
X141185148Y-105110119D01*
X141199500Y-105144767D01*
X141199500Y-105828456D01*
X141185148Y-105863104D01*
X141151472Y-105896779D01*
X141151467Y-105896786D01*
X141090282Y-106016871D01*
X141090281Y-106016872D01*
X141090281Y-106016874D01*
X141069196Y-106150000D01*
X141090281Y-106283126D01*
X141090281Y-106283127D01*
X141090282Y-106283128D01*
X141151467Y-106403213D01*
X141151472Y-106403220D01*
X141246779Y-106498527D01*
X141246786Y-106498532D01*
X141317805Y-106534717D01*
X141366874Y-106559719D01*
X141473478Y-106576603D01*
X141500574Y-106593208D01*
X141505385Y-106585358D01*
X141526519Y-106576603D01*
X141633126Y-106559719D01*
X141747301Y-106501544D01*
X141753213Y-106498532D01*
X141753215Y-106498530D01*
X141753220Y-106498528D01*
X141848528Y-106403220D01*
X141909719Y-106283126D01*
X141930804Y-106150000D01*
X141909719Y-106016874D01*
X141863814Y-105926780D01*
X141848532Y-105896786D01*
X141848527Y-105896779D01*
X141814852Y-105863104D01*
X141800500Y-105828456D01*
X141800500Y-105200000D01*
X144569196Y-105200000D01*
X144590281Y-105333126D01*
X144590281Y-105333127D01*
X144590282Y-105333128D01*
X144651467Y-105453213D01*
X144651472Y-105453220D01*
X144746779Y-105548527D01*
X144746786Y-105548532D01*
X144822081Y-105586896D01*
X144866874Y-105609719D01*
X145000000Y-105630804D01*
X145133126Y-105609719D01*
X145216420Y-105567278D01*
X145253213Y-105548532D01*
X145253215Y-105548530D01*
X145253220Y-105548528D01*
X145348528Y-105453220D01*
X145358766Y-105433128D01*
X145389133Y-105373528D01*
X145409719Y-105333126D01*
X145414966Y-105300000D01*
X145769196Y-105300000D01*
X145790281Y-105433126D01*
X145790281Y-105433127D01*
X145790282Y-105433128D01*
X145851467Y-105553213D01*
X145851472Y-105553220D01*
X145885148Y-105586896D01*
X145899500Y-105621544D01*
X145899500Y-105739563D01*
X145919979Y-105815989D01*
X145919979Y-105815991D01*
X145928915Y-105831467D01*
X145935285Y-105842500D01*
X145959540Y-105884511D01*
X147459540Y-107384511D01*
X147515489Y-107440460D01*
X147584011Y-107480021D01*
X147619478Y-107489524D01*
X147660436Y-107500500D01*
X147660438Y-107500500D01*
X149878456Y-107500500D01*
X149913104Y-107514852D01*
X149913603Y-107515351D01*
X149927955Y-107549999D01*
X149913604Y-107584647D01*
X149851470Y-107646782D01*
X149851467Y-107646786D01*
X149790282Y-107766871D01*
X149790281Y-107766872D01*
X149790281Y-107766874D01*
X149769196Y-107900000D01*
X149790281Y-108033126D01*
X149790281Y-108033127D01*
X149790282Y-108033128D01*
X149851467Y-108153213D01*
X149851472Y-108153220D01*
X149946779Y-108248527D01*
X149946786Y-108248532D01*
X149992426Y-108271786D01*
X150066874Y-108309719D01*
X150200000Y-108330804D01*
X150333126Y-108309719D01*
X150416420Y-108267278D01*
X150453213Y-108248532D01*
X150453215Y-108248530D01*
X150453220Y-108248528D01*
X150548528Y-108153220D01*
X150550277Y-108149789D01*
X150594767Y-108062470D01*
X150609719Y-108033126D01*
X150630804Y-107900000D01*
X150609719Y-107766874D01*
X150575645Y-107700000D01*
X150548532Y-107646786D01*
X150548527Y-107646779D01*
X150486396Y-107584648D01*
X150472044Y-107550000D01*
X150486396Y-107515352D01*
X150501248Y-107500500D01*
X150548528Y-107453220D01*
X150550920Y-107448527D01*
X150583537Y-107384511D01*
X150609719Y-107333126D01*
X150630804Y-107200000D01*
X150609719Y-107066874D01*
X150589322Y-107026842D01*
X150548532Y-106946786D01*
X150548527Y-106946779D01*
X150453220Y-106851472D01*
X150453213Y-106851467D01*
X150333128Y-106790282D01*
X150333127Y-106790281D01*
X150333126Y-106790281D01*
X150200000Y-106769196D01*
X150066874Y-106790281D01*
X150066872Y-106790281D01*
X150066871Y-106790282D01*
X149946786Y-106851467D01*
X149946779Y-106851472D01*
X149913104Y-106885148D01*
X149878456Y-106899500D01*
X149535086Y-106899500D01*
X149500438Y-106885148D01*
X149486086Y-106850500D01*
X149500438Y-106815852D01*
X149512841Y-106806841D01*
X149578213Y-106773532D01*
X149578215Y-106773530D01*
X149578220Y-106773528D01*
X149673528Y-106678220D01*
X149675986Y-106673397D01*
X149692278Y-106641420D01*
X149734719Y-106558126D01*
X149753400Y-106440175D01*
X149772996Y-106408199D01*
X149809462Y-106399444D01*
X149836445Y-106413193D01*
X149896779Y-106473527D01*
X149896786Y-106473532D01*
X149951764Y-106501544D01*
X150016874Y-106534719D01*
X150150000Y-106555804D01*
X150283126Y-106534719D01*
X150388069Y-106481248D01*
X150403213Y-106473532D01*
X150403215Y-106473530D01*
X150403220Y-106473528D01*
X150498528Y-106378220D01*
X150559719Y-106258126D01*
X150580804Y-106125000D01*
X150559719Y-105991874D01*
X150526552Y-105926780D01*
X150498532Y-105871786D01*
X150498527Y-105871779D01*
X150403220Y-105776472D01*
X150403213Y-105776467D01*
X150283128Y-105715282D01*
X150283127Y-105715281D01*
X150283126Y-105715281D01*
X150150000Y-105694196D01*
X150016874Y-105715281D01*
X150016872Y-105715281D01*
X150016871Y-105715282D01*
X149896786Y-105776467D01*
X149896779Y-105776472D01*
X149801472Y-105871779D01*
X149801467Y-105871786D01*
X149740282Y-105991870D01*
X149740281Y-105991872D01*
X149740281Y-105991874D01*
X149733427Y-106035147D01*
X149721599Y-106109824D01*
X149702003Y-106141800D01*
X149665536Y-106150555D01*
X149638554Y-106136806D01*
X149578220Y-106076472D01*
X149578213Y-106076467D01*
X149458128Y-106015282D01*
X149458127Y-106015281D01*
X149458126Y-106015281D01*
X149325000Y-105994196D01*
X149191874Y-106015281D01*
X149191872Y-106015281D01*
X149191871Y-106015282D01*
X149071786Y-106076467D01*
X149071779Y-106076472D01*
X148976472Y-106171779D01*
X148976467Y-106171786D01*
X148915282Y-106291871D01*
X148915281Y-106291872D01*
X148915281Y-106291874D01*
X148894196Y-106425000D01*
X148915281Y-106558126D01*
X148915281Y-106558127D01*
X148915282Y-106558128D01*
X148976467Y-106678213D01*
X148976472Y-106678220D01*
X149071779Y-106773527D01*
X149071786Y-106773532D01*
X149137159Y-106806841D01*
X149161516Y-106835358D01*
X149158573Y-106872745D01*
X149130056Y-106897102D01*
X149114914Y-106899500D01*
X147844767Y-106899500D01*
X147810119Y-106885148D01*
X146548007Y-105623036D01*
X146533655Y-105588388D01*
X146546773Y-105556717D01*
X146546259Y-105556343D01*
X146547817Y-105554197D01*
X146548006Y-105553741D01*
X146548528Y-105553220D01*
X146609719Y-105433126D01*
X146630804Y-105300000D01*
X146609719Y-105166874D01*
X146580801Y-105110119D01*
X146548532Y-105046786D01*
X146548527Y-105046779D01*
X146526748Y-105025000D01*
X149474196Y-105025000D01*
X149495281Y-105158126D01*
X149495281Y-105158127D01*
X149495282Y-105158128D01*
X149556467Y-105278213D01*
X149556472Y-105278220D01*
X149651779Y-105373527D01*
X149651786Y-105373532D01*
X149731842Y-105414322D01*
X149771874Y-105434719D01*
X149905000Y-105455804D01*
X150038126Y-105434719D01*
X150121420Y-105392278D01*
X150158213Y-105373532D01*
X150158215Y-105373530D01*
X150158220Y-105373528D01*
X150253528Y-105278220D01*
X150314719Y-105158126D01*
X150335804Y-105025000D01*
X150314719Y-104891874D01*
X150280645Y-104825000D01*
X154294196Y-104825000D01*
X154315281Y-104958126D01*
X154315281Y-104958127D01*
X154315282Y-104958128D01*
X154376467Y-105078213D01*
X154376472Y-105078220D01*
X154471779Y-105173527D01*
X154471786Y-105173532D01*
X154523734Y-105200000D01*
X154591874Y-105234719D01*
X154725000Y-105255804D01*
X154858126Y-105234719D01*
X154941420Y-105192278D01*
X154978213Y-105173532D01*
X154978215Y-105173530D01*
X154978220Y-105173528D01*
X155073528Y-105078220D01*
X155089548Y-105046780D01*
X155100645Y-105025000D01*
X155134719Y-104958126D01*
X155155804Y-104825000D01*
X155134719Y-104691874D01*
X155114322Y-104651842D01*
X155073532Y-104571786D01*
X155073527Y-104571779D01*
X154978220Y-104476472D01*
X154978213Y-104476467D01*
X154858128Y-104415282D01*
X154858127Y-104415281D01*
X154858126Y-104415281D01*
X154725000Y-104394196D01*
X154591874Y-104415281D01*
X154591872Y-104415281D01*
X154591871Y-104415282D01*
X154471786Y-104476467D01*
X154471779Y-104476472D01*
X154376472Y-104571779D01*
X154376467Y-104571786D01*
X154315282Y-104691871D01*
X154315281Y-104691872D01*
X154315281Y-104691874D01*
X154294196Y-104825000D01*
X150280645Y-104825000D01*
X150275799Y-104815489D01*
X150253532Y-104771786D01*
X150253527Y-104771779D01*
X150158220Y-104676472D01*
X150158213Y-104676467D01*
X150038128Y-104615282D01*
X150038127Y-104615281D01*
X150038126Y-104615281D01*
X149905000Y-104594196D01*
X149771874Y-104615281D01*
X149771872Y-104615281D01*
X149771871Y-104615282D01*
X149651786Y-104676467D01*
X149651779Y-104676472D01*
X149556472Y-104771779D01*
X149556467Y-104771786D01*
X149495282Y-104891871D01*
X149495281Y-104891872D01*
X149495281Y-104891874D01*
X149474196Y-105025000D01*
X146526748Y-105025000D01*
X146453220Y-104951472D01*
X146453213Y-104951467D01*
X146333128Y-104890282D01*
X146333127Y-104890281D01*
X146333126Y-104890281D01*
X146200000Y-104869196D01*
X146066874Y-104890281D01*
X146066872Y-104890281D01*
X146066871Y-104890282D01*
X145946786Y-104951467D01*
X145946779Y-104951472D01*
X145851472Y-105046779D01*
X145851467Y-105046786D01*
X145790282Y-105166871D01*
X145790281Y-105166872D01*
X145790281Y-105166874D01*
X145769196Y-105300000D01*
X145414966Y-105300000D01*
X145430804Y-105200000D01*
X145409719Y-105066874D01*
X145388383Y-105025000D01*
X145348532Y-104946786D01*
X145348527Y-104946779D01*
X145253220Y-104851472D01*
X145253213Y-104851467D01*
X145133128Y-104790282D01*
X145133127Y-104790281D01*
X145133126Y-104790281D01*
X145000000Y-104769196D01*
X144866874Y-104790281D01*
X144866872Y-104790281D01*
X144866871Y-104790282D01*
X144746786Y-104851467D01*
X144746779Y-104851472D01*
X144651472Y-104946779D01*
X144651467Y-104946786D01*
X144590282Y-105066871D01*
X144590281Y-105066872D01*
X144590281Y-105066874D01*
X144569196Y-105200000D01*
X141800500Y-105200000D01*
X141800500Y-104960435D01*
X141800499Y-104960434D01*
X141782770Y-104894267D01*
X141780022Y-104884012D01*
X141740460Y-104815489D01*
X140914352Y-103989381D01*
X140900000Y-103954733D01*
X140900000Y-103700000D01*
X143769196Y-103700000D01*
X143790281Y-103833126D01*
X143790281Y-103833127D01*
X143790282Y-103833128D01*
X143851467Y-103953213D01*
X143851472Y-103953220D01*
X143946779Y-104048527D01*
X143946786Y-104048532D01*
X144026842Y-104089322D01*
X144066874Y-104109719D01*
X144200000Y-104130804D01*
X144333126Y-104109719D01*
X144416420Y-104067278D01*
X144453213Y-104048532D01*
X144453215Y-104048530D01*
X144453220Y-104048528D01*
X144548528Y-103953220D01*
X144609719Y-103833126D01*
X144630804Y-103700000D01*
X144609719Y-103566874D01*
X144589322Y-103526842D01*
X144548532Y-103446786D01*
X144548527Y-103446779D01*
X144453220Y-103351472D01*
X144453213Y-103351467D01*
X144333128Y-103290282D01*
X144333127Y-103290281D01*
X144333126Y-103290281D01*
X144200000Y-103269196D01*
X144066874Y-103290281D01*
X144066872Y-103290281D01*
X144066871Y-103290282D01*
X143946786Y-103351467D01*
X143946779Y-103351472D01*
X143851472Y-103446779D01*
X143851467Y-103446786D01*
X143790282Y-103566871D01*
X143790281Y-103566872D01*
X143790281Y-103566874D01*
X143769196Y-103700000D01*
X140900000Y-103700000D01*
X140900000Y-101649000D01*
X140914352Y-101614352D01*
X140949000Y-101600000D01*
X162149484Y-101600000D01*
X162150551Y-101600012D01*
G37*
%TD.AperFunction*%
%TD*%
%TA.AperFunction,Conductor*%
%TO.N,+3.3V*%
G36*
X140585648Y-101614352D02*
G01*
X140600000Y-101649000D01*
X140600000Y-103556733D01*
X140585648Y-103591381D01*
X140551000Y-103605733D01*
X140516352Y-103591381D01*
X139784511Y-102859540D01*
X139715990Y-102819979D01*
X139639564Y-102799500D01*
X139639562Y-102799500D01*
X135542975Y-102799500D01*
X135542973Y-102799500D01*
X135466547Y-102819979D01*
X135466545Y-102819979D01*
X135398025Y-102859540D01*
X135398025Y-102859541D01*
X134959541Y-103298025D01*
X134959540Y-103298025D01*
X134919979Y-103366545D01*
X134919979Y-103366547D01*
X134899500Y-103442973D01*
X134899500Y-103578456D01*
X134885148Y-103613104D01*
X134851472Y-103646779D01*
X134851467Y-103646786D01*
X134790282Y-103766871D01*
X134790281Y-103766872D01*
X134790281Y-103766874D01*
X134769196Y-103900000D01*
X134790281Y-104033126D01*
X134790281Y-104033127D01*
X134790282Y-104033128D01*
X134851467Y-104153213D01*
X134851472Y-104153220D01*
X134946779Y-104248527D01*
X134946786Y-104248532D01*
X135026842Y-104289322D01*
X135066874Y-104309719D01*
X135200000Y-104330804D01*
X135333126Y-104309719D01*
X135416420Y-104267278D01*
X135453213Y-104248532D01*
X135453215Y-104248530D01*
X135453220Y-104248528D01*
X135548528Y-104153220D01*
X135609719Y-104033126D01*
X135630804Y-103900000D01*
X135609719Y-103766874D01*
X135562907Y-103675000D01*
X135548532Y-103646786D01*
X135548527Y-103646779D01*
X135539276Y-103637528D01*
X135524924Y-103602880D01*
X135539276Y-103568232D01*
X135692656Y-103414852D01*
X135727304Y-103400500D01*
X136982354Y-103400500D01*
X137017002Y-103414852D01*
X137031354Y-103449500D01*
X137026013Y-103471745D01*
X136990282Y-103541871D01*
X136990281Y-103541872D01*
X136990281Y-103541874D01*
X136978622Y-103615488D01*
X136969196Y-103675000D01*
X136975729Y-103716249D01*
X136966974Y-103752716D01*
X136934997Y-103772311D01*
X136919668Y-103772311D01*
X136900000Y-103769196D01*
X136766874Y-103790281D01*
X136766872Y-103790281D01*
X136766871Y-103790282D01*
X136646786Y-103851467D01*
X136646779Y-103851472D01*
X136551474Y-103946778D01*
X136551467Y-103946786D01*
X136490282Y-104066871D01*
X136490281Y-104066872D01*
X136490281Y-104066874D01*
X136469196Y-104200000D01*
X136490281Y-104333126D01*
X136490281Y-104333127D01*
X136490282Y-104333128D01*
X136551467Y-104453213D01*
X136551472Y-104453220D01*
X136646779Y-104548527D01*
X136646786Y-104548532D01*
X136726842Y-104589322D01*
X136766874Y-104609719D01*
X136900000Y-104630804D01*
X136950928Y-104622737D01*
X136987393Y-104631492D01*
X137006989Y-104663468D01*
X137002252Y-104693378D01*
X136990281Y-104716872D01*
X136985544Y-104746780D01*
X136969196Y-104850000D01*
X136990281Y-104983126D01*
X136990281Y-104983127D01*
X136990282Y-104983128D01*
X137051467Y-105103213D01*
X137051472Y-105103220D01*
X137146779Y-105198527D01*
X137146786Y-105198532D01*
X137226842Y-105239322D01*
X137266874Y-105259719D01*
X137400000Y-105280804D01*
X137533126Y-105259719D01*
X137616420Y-105217278D01*
X137653213Y-105198532D01*
X137653215Y-105198530D01*
X137653220Y-105198528D01*
X137748528Y-105103220D01*
X137780964Y-105039562D01*
X137806841Y-104988775D01*
X137835358Y-104964418D01*
X137872745Y-104967361D01*
X137897102Y-104995878D01*
X137899500Y-105011020D01*
X137899500Y-107656233D01*
X137885148Y-107690881D01*
X137850500Y-107705233D01*
X137815852Y-107690881D01*
X136159511Y-106034540D01*
X136137410Y-106021780D01*
X136099686Y-106000000D01*
X136669196Y-106000000D01*
X136690281Y-106133126D01*
X136690281Y-106133127D01*
X136690282Y-106133128D01*
X136751467Y-106253213D01*
X136751472Y-106253220D01*
X136846779Y-106348527D01*
X136846786Y-106348532D01*
X136926842Y-106389322D01*
X136966874Y-106409719D01*
X137100000Y-106430804D01*
X137233126Y-106409719D01*
X137316420Y-106367278D01*
X137353213Y-106348532D01*
X137353215Y-106348530D01*
X137353220Y-106348528D01*
X137448528Y-106253220D01*
X137458766Y-106233128D01*
X137467278Y-106216420D01*
X137509719Y-106133126D01*
X137530804Y-106000000D01*
X137509719Y-105866874D01*
X137484470Y-105817320D01*
X137448532Y-105746786D01*
X137448527Y-105746779D01*
X137353220Y-105651472D01*
X137353213Y-105651467D01*
X137233128Y-105590282D01*
X137233127Y-105590281D01*
X137233126Y-105590281D01*
X137100000Y-105569196D01*
X136966874Y-105590281D01*
X136966872Y-105590281D01*
X136966871Y-105590282D01*
X136846786Y-105651467D01*
X136846779Y-105651472D01*
X136751472Y-105746779D01*
X136751467Y-105746786D01*
X136690282Y-105866871D01*
X136690281Y-105866872D01*
X136690281Y-105866874D01*
X136669196Y-106000000D01*
X136099686Y-106000000D01*
X136090990Y-105994979D01*
X136014564Y-105974500D01*
X136014562Y-105974500D01*
X135445544Y-105974500D01*
X135410896Y-105960148D01*
X135396544Y-105925500D01*
X135410896Y-105890852D01*
X135448528Y-105853220D01*
X135450424Y-105849500D01*
X135467278Y-105816420D01*
X135509719Y-105733126D01*
X135530804Y-105600000D01*
X135509719Y-105466874D01*
X135480596Y-105409717D01*
X135448532Y-105346786D01*
X135448526Y-105346778D01*
X135353220Y-105251472D01*
X135353213Y-105251467D01*
X135233128Y-105190282D01*
X135233127Y-105190281D01*
X135233126Y-105190281D01*
X135100000Y-105169196D01*
X134966874Y-105190281D01*
X134966872Y-105190281D01*
X134966871Y-105190282D01*
X134846786Y-105251467D01*
X134846779Y-105251472D01*
X134751474Y-105346778D01*
X134751467Y-105346786D01*
X134690282Y-105466871D01*
X134690281Y-105466872D01*
X134690281Y-105466874D01*
X134669196Y-105600000D01*
X134690281Y-105733126D01*
X134690281Y-105733127D01*
X134690282Y-105733128D01*
X134751467Y-105853213D01*
X134751472Y-105853220D01*
X134801104Y-105902852D01*
X134815456Y-105937500D01*
X134801104Y-105972148D01*
X134751472Y-106021779D01*
X134751467Y-106021786D01*
X134690282Y-106141871D01*
X134690281Y-106141872D01*
X134690281Y-106141874D01*
X134669196Y-106275000D01*
X134690281Y-106408126D01*
X134690281Y-106408127D01*
X134690282Y-106408128D01*
X134751467Y-106528213D01*
X134751472Y-106528220D01*
X134846779Y-106623527D01*
X134846786Y-106623532D01*
X134926842Y-106664322D01*
X134966874Y-106684719D01*
X135100000Y-106705804D01*
X135233126Y-106684719D01*
X135316420Y-106642278D01*
X135353213Y-106623532D01*
X135353215Y-106623530D01*
X135353220Y-106623528D01*
X135386896Y-106589852D01*
X135421544Y-106575500D01*
X135830233Y-106575500D01*
X135864881Y-106589852D01*
X137170177Y-107895148D01*
X137184529Y-107929796D01*
X137170177Y-107964444D01*
X137143195Y-107978192D01*
X137066874Y-107990281D01*
X137066872Y-107990281D01*
X137066870Y-107990282D01*
X136946786Y-108051467D01*
X136946779Y-108051472D01*
X136851472Y-108146779D01*
X136851468Y-108146784D01*
X136843659Y-108162112D01*
X136815141Y-108186468D01*
X136777754Y-108183525D01*
X136756341Y-108162112D01*
X136748531Y-108146784D01*
X136748527Y-108146779D01*
X136653220Y-108051472D01*
X136653213Y-108051467D01*
X136533128Y-107990282D01*
X136533127Y-107990281D01*
X136533126Y-107990281D01*
X136400000Y-107969196D01*
X136266874Y-107990281D01*
X136266872Y-107990281D01*
X136266871Y-107990282D01*
X136146786Y-108051467D01*
X136146778Y-108051473D01*
X136084648Y-108113603D01*
X136050000Y-108127955D01*
X136015352Y-108113603D01*
X135953221Y-108051473D01*
X135953213Y-108051467D01*
X135833128Y-107990282D01*
X135833127Y-107990281D01*
X135833126Y-107990281D01*
X135700000Y-107969196D01*
X135566874Y-107990281D01*
X135566872Y-107990281D01*
X135566871Y-107990282D01*
X135446786Y-108051467D01*
X135446779Y-108051472D01*
X135351472Y-108146779D01*
X135351467Y-108146786D01*
X135290282Y-108266871D01*
X135290281Y-108266872D01*
X135290281Y-108266874D01*
X135269196Y-108400000D01*
X135290281Y-108533126D01*
X135290281Y-108533127D01*
X135290282Y-108533128D01*
X135338751Y-108628255D01*
X135341694Y-108665642D01*
X135317337Y-108694159D01*
X135295092Y-108699500D01*
X134860436Y-108699500D01*
X134784012Y-108719978D01*
X134784008Y-108719980D01*
X134719654Y-108757135D01*
X134719653Y-108757136D01*
X134715492Y-108759537D01*
X134715486Y-108759542D01*
X132764881Y-110710148D01*
X132730233Y-110724500D01*
X130143122Y-110724500D01*
X130108474Y-110710148D01*
X130094122Y-110675500D01*
X130099463Y-110653254D01*
X130101743Y-110648779D01*
X130109719Y-110633126D01*
X130130804Y-110500000D01*
X130109719Y-110366874D01*
X130050190Y-110250041D01*
X130048532Y-110246786D01*
X130048526Y-110246778D01*
X129953220Y-110151472D01*
X129953213Y-110151467D01*
X129833128Y-110090282D01*
X129833127Y-110090281D01*
X129833126Y-110090281D01*
X129700000Y-110069196D01*
X129566874Y-110090281D01*
X129566872Y-110090281D01*
X129566871Y-110090282D01*
X129446786Y-110151467D01*
X129446779Y-110151472D01*
X129351474Y-110246778D01*
X129351467Y-110246786D01*
X129290282Y-110366871D01*
X129290281Y-110366872D01*
X129290281Y-110366874D01*
X129282622Y-110415232D01*
X129269196Y-110500000D01*
X129290281Y-110633127D01*
X129300537Y-110653254D01*
X129303480Y-110690642D01*
X129279124Y-110719159D01*
X129256878Y-110724500D01*
X127558550Y-110724500D01*
X127523902Y-110710148D01*
X127509550Y-110675500D01*
X127514891Y-110653254D01*
X127520017Y-110643193D01*
X127523485Y-110636387D01*
X127544570Y-110503261D01*
X127523485Y-110370135D01*
X127503444Y-110330803D01*
X127462218Y-110249889D01*
X127459275Y-110212502D01*
X127483632Y-110183985D01*
X127483632Y-110183984D01*
X127553220Y-110148528D01*
X127648528Y-110053220D01*
X127650171Y-110049997D01*
X127670694Y-110009717D01*
X127709719Y-109933126D01*
X127730804Y-109800000D01*
X127709719Y-109666874D01*
X127675645Y-109600000D01*
X127648532Y-109546786D01*
X127648527Y-109546779D01*
X127553220Y-109451472D01*
X127550096Y-109449202D01*
X127550641Y-109448451D01*
X127528868Y-109422948D01*
X127531818Y-109385561D01*
X127553229Y-109364155D01*
X127563576Y-109358884D01*
X127658884Y-109263576D01*
X127720075Y-109143482D01*
X127741160Y-109010356D01*
X127720075Y-108877230D01*
X127686569Y-108811470D01*
X127658888Y-108757142D01*
X127658883Y-108757135D01*
X127563576Y-108661828D01*
X127563569Y-108661823D01*
X127443484Y-108600638D01*
X127443483Y-108600637D01*
X127443482Y-108600637D01*
X127310356Y-108579552D01*
X127310355Y-108579552D01*
X127263326Y-108587000D01*
X127226860Y-108578244D01*
X127207265Y-108546267D01*
X127216021Y-108509801D01*
X127221005Y-108503965D01*
X127281812Y-108443157D01*
X127308789Y-108429411D01*
X127433126Y-108409719D01*
X127516420Y-108367278D01*
X127553213Y-108348532D01*
X127553215Y-108348530D01*
X127553220Y-108348528D01*
X127648528Y-108253220D01*
X127651291Y-108247799D01*
X127684039Y-108183525D01*
X127709719Y-108133126D01*
X127730804Y-108000000D01*
X128019196Y-108000000D01*
X128040281Y-108133126D01*
X128040281Y-108133127D01*
X128040282Y-108133128D01*
X128101467Y-108253213D01*
X128101472Y-108253220D01*
X128196779Y-108348527D01*
X128196786Y-108348532D01*
X128267216Y-108384417D01*
X128316874Y-108409719D01*
X128450000Y-108430804D01*
X128583126Y-108409719D01*
X128666420Y-108367278D01*
X128703213Y-108348532D01*
X128703215Y-108348530D01*
X128703220Y-108348528D01*
X128798528Y-108253220D01*
X128801291Y-108247799D01*
X128834039Y-108183525D01*
X128859719Y-108133126D01*
X128880804Y-108000000D01*
X128876844Y-107975000D01*
X131619196Y-107975000D01*
X131640281Y-108108126D01*
X131640281Y-108108127D01*
X131640282Y-108108128D01*
X131701467Y-108228213D01*
X131701472Y-108228220D01*
X131796779Y-108323527D01*
X131796786Y-108323532D01*
X131876842Y-108364322D01*
X131916874Y-108384719D01*
X132050000Y-108405804D01*
X132183126Y-108384719D01*
X132266420Y-108342278D01*
X132303213Y-108323532D01*
X132303215Y-108323530D01*
X132303220Y-108323528D01*
X132398528Y-108228220D01*
X132459719Y-108108126D01*
X132480804Y-107975000D01*
X132459719Y-107841874D01*
X132422969Y-107769748D01*
X132398532Y-107721786D01*
X132398527Y-107721779D01*
X132303220Y-107626472D01*
X132303213Y-107626467D01*
X132183128Y-107565282D01*
X132183127Y-107565281D01*
X132183126Y-107565281D01*
X132050000Y-107544196D01*
X131916874Y-107565281D01*
X131916872Y-107565281D01*
X131916871Y-107565282D01*
X131796786Y-107626467D01*
X131796779Y-107626472D01*
X131701472Y-107721779D01*
X131701467Y-107721786D01*
X131640282Y-107841871D01*
X131640281Y-107841872D01*
X131640281Y-107841874D01*
X131619196Y-107975000D01*
X128876844Y-107975000D01*
X128859719Y-107866874D01*
X128810231Y-107769748D01*
X128798532Y-107746786D01*
X128798527Y-107746779D01*
X128703220Y-107651472D01*
X128703213Y-107651467D01*
X128583128Y-107590282D01*
X128583127Y-107590281D01*
X128583126Y-107590281D01*
X128450000Y-107569196D01*
X128316874Y-107590281D01*
X128316872Y-107590281D01*
X128316871Y-107590282D01*
X128196786Y-107651467D01*
X128196779Y-107651472D01*
X128101472Y-107746779D01*
X128101467Y-107746786D01*
X128040282Y-107866871D01*
X128040281Y-107866872D01*
X128040281Y-107866874D01*
X128019196Y-108000000D01*
X127730804Y-108000000D01*
X127709719Y-107866874D01*
X127660231Y-107769748D01*
X127648532Y-107746786D01*
X127648527Y-107746779D01*
X127553220Y-107651472D01*
X127553213Y-107651467D01*
X127433128Y-107590282D01*
X127433127Y-107590281D01*
X127433126Y-107590281D01*
X127300000Y-107569196D01*
X127166874Y-107590281D01*
X127166872Y-107590281D01*
X127166871Y-107590282D01*
X127046786Y-107651467D01*
X127046779Y-107651472D01*
X126951472Y-107746779D01*
X126951467Y-107746786D01*
X126890282Y-107866870D01*
X126890281Y-107866872D01*
X126890281Y-107866874D01*
X126874075Y-107969196D01*
X126870589Y-107991205D01*
X126856840Y-108018187D01*
X126789880Y-108085148D01*
X126755234Y-108099500D01*
X122321544Y-108099500D01*
X122286896Y-108085148D01*
X122253220Y-108051472D01*
X122253213Y-108051467D01*
X122133128Y-107990282D01*
X122133127Y-107990281D01*
X122133126Y-107990281D01*
X122000000Y-107969196D01*
X121866874Y-107990281D01*
X121866872Y-107990281D01*
X121866871Y-107990282D01*
X121746786Y-108051467D01*
X121746779Y-108051472D01*
X121651472Y-108146779D01*
X121651467Y-108146786D01*
X121590282Y-108266871D01*
X121590281Y-108266872D01*
X121590281Y-108266874D01*
X121569196Y-108400000D01*
X121590281Y-108533126D01*
X121590281Y-108533127D01*
X121590282Y-108533128D01*
X121651467Y-108653213D01*
X121651472Y-108653220D01*
X121746779Y-108748527D01*
X121746786Y-108748532D01*
X121826842Y-108789322D01*
X121866874Y-108809719D01*
X122000000Y-108830804D01*
X122133126Y-108809719D01*
X122234030Y-108758306D01*
X122253213Y-108748532D01*
X122253215Y-108748530D01*
X122253220Y-108748528D01*
X122286896Y-108714852D01*
X122321544Y-108700500D01*
X126425500Y-108700500D01*
X126460148Y-108714852D01*
X126474500Y-108749500D01*
X126474500Y-110150500D01*
X126460148Y-110185148D01*
X126425500Y-110199500D01*
X123087230Y-110199500D01*
X123052582Y-110185148D01*
X122825759Y-109958325D01*
X122812010Y-109931339D01*
X122809719Y-109916871D01*
X122748532Y-109796783D01*
X122748527Y-109796776D01*
X122653220Y-109701469D01*
X122653213Y-109701464D01*
X122533128Y-109640279D01*
X122533127Y-109640278D01*
X122533126Y-109640278D01*
X122400000Y-109619193D01*
X122266874Y-109640278D01*
X122266872Y-109640278D01*
X122266871Y-109640279D01*
X122146786Y-109701464D01*
X122146779Y-109701469D01*
X122051472Y-109796776D01*
X122051467Y-109796783D01*
X121990282Y-109916868D01*
X121990281Y-109916869D01*
X121990281Y-109916871D01*
X121969196Y-110049997D01*
X121990281Y-110183123D01*
X121990281Y-110183124D01*
X121990282Y-110183125D01*
X122051467Y-110303210D01*
X122051472Y-110303217D01*
X122146779Y-110398524D01*
X122146786Y-110398529D01*
X122226842Y-110439319D01*
X122266874Y-110459716D01*
X122400000Y-110480801D01*
X122455847Y-110471955D01*
X122476189Y-110473020D01*
X122483075Y-110474866D01*
X122505039Y-110487547D01*
X122656123Y-110638631D01*
X122663910Y-110648779D01*
X122684540Y-110684511D01*
X122740489Y-110740460D01*
X122809011Y-110780021D01*
X122844478Y-110789524D01*
X122885436Y-110800500D01*
X122885438Y-110800500D01*
X123498731Y-110800500D01*
X123533379Y-110814852D01*
X123547731Y-110849500D01*
X123542390Y-110871745D01*
X123491614Y-110971399D01*
X123491613Y-110971400D01*
X123491613Y-110971402D01*
X123470528Y-111104528D01*
X123491613Y-111237654D01*
X123491613Y-111237655D01*
X123491614Y-111237656D01*
X123552799Y-111357741D01*
X123552804Y-111357748D01*
X123648111Y-111453055D01*
X123648118Y-111453060D01*
X123725668Y-111492573D01*
X123768206Y-111514247D01*
X123901332Y-111535332D01*
X124034458Y-111514247D01*
X124117752Y-111471806D01*
X124154545Y-111453060D01*
X124154547Y-111453058D01*
X124154552Y-111453056D01*
X124188228Y-111419380D01*
X124222876Y-111405028D01*
X125059761Y-111405028D01*
X125094409Y-111419380D01*
X126440489Y-112765460D01*
X126490648Y-112794420D01*
X126509008Y-112805020D01*
X126509012Y-112805022D01*
X126569286Y-112821172D01*
X126585434Y-112825499D01*
X126585435Y-112825500D01*
X126585438Y-112825500D01*
X127582354Y-112825500D01*
X127617002Y-112839852D01*
X127631354Y-112874500D01*
X127626013Y-112896745D01*
X127590282Y-112966871D01*
X127590281Y-112966872D01*
X127590281Y-112966874D01*
X127569196Y-113100000D01*
X127590281Y-113233126D01*
X127590281Y-113233127D01*
X127590282Y-113233128D01*
X127651467Y-113353213D01*
X127651472Y-113353220D01*
X127746779Y-113448527D01*
X127746786Y-113448532D01*
X127792426Y-113471786D01*
X127866874Y-113509719D01*
X128000000Y-113530804D01*
X128133126Y-113509719D01*
X128222036Y-113464417D01*
X128253213Y-113448532D01*
X128253215Y-113448530D01*
X128253220Y-113448528D01*
X128348528Y-113353220D01*
X128356340Y-113337887D01*
X128384858Y-113313531D01*
X128422245Y-113316473D01*
X128443660Y-113337888D01*
X128451470Y-113353217D01*
X128451472Y-113353220D01*
X128546779Y-113448527D01*
X128546786Y-113448532D01*
X128592426Y-113471786D01*
X128666874Y-113509719D01*
X128791207Y-113529411D01*
X128818188Y-113543159D01*
X129140881Y-113865852D01*
X129155233Y-113900500D01*
X129140881Y-113935148D01*
X129106233Y-113949500D01*
X126930384Y-113949500D01*
X126895736Y-113935148D01*
X126881384Y-113900500D01*
X126886725Y-113878254D01*
X126893044Y-113865852D01*
X126909719Y-113833126D01*
X126930804Y-113700000D01*
X126909719Y-113566874D01*
X126880596Y-113509717D01*
X126848532Y-113446786D01*
X126848526Y-113446778D01*
X126753220Y-113351472D01*
X126753213Y-113351467D01*
X126633128Y-113290282D01*
X126633127Y-113290281D01*
X126633126Y-113290281D01*
X126500000Y-113269196D01*
X126366874Y-113290281D01*
X126366872Y-113290281D01*
X126366871Y-113290282D01*
X126246786Y-113351467D01*
X126246782Y-113351470D01*
X126246780Y-113351472D01*
X126197385Y-113400865D01*
X126162739Y-113415216D01*
X126128091Y-113400864D01*
X126103699Y-113376472D01*
X126103692Y-113376467D01*
X125983607Y-113315282D01*
X125983606Y-113315281D01*
X125983605Y-113315281D01*
X125850479Y-113294196D01*
X125717353Y-113315281D01*
X125717351Y-113315281D01*
X125717350Y-113315282D01*
X125597265Y-113376467D01*
X125597258Y-113376472D01*
X125501951Y-113471779D01*
X125501946Y-113471786D01*
X125440761Y-113591871D01*
X125440760Y-113591872D01*
X125440760Y-113591874D01*
X125419675Y-113725000D01*
X125440760Y-113858126D01*
X125440760Y-113858127D01*
X125440761Y-113858128D01*
X125501946Y-113978213D01*
X125501951Y-113978220D01*
X125597258Y-114073527D01*
X125597265Y-114073532D01*
X125677321Y-114114322D01*
X125717353Y-114134719D01*
X125850479Y-114155804D01*
X125983605Y-114134719D01*
X126047829Y-114101994D01*
X126085216Y-114099052D01*
X126113733Y-114123408D01*
X126116676Y-114160796D01*
X126112509Y-114170154D01*
X126080201Y-114226111D01*
X126080200Y-114226115D01*
X126049500Y-114340688D01*
X126049500Y-114459311D01*
X126080200Y-114573884D01*
X126080201Y-114573887D01*
X126135229Y-114669196D01*
X126139511Y-114676613D01*
X126223387Y-114760489D01*
X126326114Y-114819799D01*
X126350324Y-114826286D01*
X126440688Y-114850500D01*
X126440691Y-114850500D01*
X134959311Y-114850500D01*
X134989430Y-114842428D01*
X135049673Y-114826286D01*
X135073887Y-114819799D01*
X135176614Y-114760489D01*
X138479178Y-111457924D01*
X138513824Y-111443573D01*
X138548472Y-111457925D01*
X138562824Y-111492573D01*
X138557038Y-111515671D01*
X138524770Y-111576040D01*
X138524769Y-111576041D01*
X138464700Y-111774064D01*
X138464700Y-111774065D01*
X138444417Y-111979999D01*
X138444417Y-111980000D01*
X138464700Y-112185934D01*
X138464700Y-112185935D01*
X138501585Y-112307529D01*
X138497909Y-112344852D01*
X138468919Y-112368643D01*
X138432450Y-112365413D01*
X138402200Y-112350000D01*
X138383126Y-112340281D01*
X138250000Y-112319196D01*
X138116874Y-112340281D01*
X138116872Y-112340281D01*
X138116871Y-112340282D01*
X137996786Y-112401467D01*
X137996779Y-112401472D01*
X137901472Y-112496779D01*
X137901467Y-112496786D01*
X137840282Y-112616871D01*
X137840281Y-112616872D01*
X137840281Y-112616874D01*
X137819196Y-112750000D01*
X137840281Y-112883126D01*
X137840281Y-112883127D01*
X137840282Y-112883128D01*
X137901467Y-113003213D01*
X137901472Y-113003220D01*
X137996779Y-113098527D01*
X137996786Y-113098532D01*
X138076842Y-113139322D01*
X138116874Y-113159719D01*
X138250000Y-113180804D01*
X138383126Y-113159719D01*
X138466420Y-113117278D01*
X138503213Y-113098532D01*
X138503215Y-113098530D01*
X138503220Y-113098528D01*
X138598528Y-113003220D01*
X138659719Y-112883126D01*
X138679105Y-112760721D01*
X138698701Y-112728746D01*
X138735167Y-112719991D01*
X138758584Y-112730508D01*
X138913550Y-112857685D01*
X139096046Y-112955232D01*
X139294066Y-113015300D01*
X139500000Y-113035583D01*
X139705934Y-113015300D01*
X139903954Y-112955232D01*
X140086450Y-112857685D01*
X140246410Y-112726410D01*
X140377685Y-112566450D01*
X140475232Y-112383954D01*
X140504110Y-112288753D01*
X140527901Y-112259764D01*
X140565224Y-112256088D01*
X140594214Y-112279879D01*
X140600000Y-112302978D01*
X140600000Y-114197021D01*
X140585648Y-114231669D01*
X140551000Y-114246021D01*
X140516352Y-114231669D01*
X140504110Y-114211245D01*
X140491645Y-114170154D01*
X140475232Y-114116046D01*
X140377685Y-113933550D01*
X140246410Y-113773590D01*
X140086450Y-113642315D01*
X139903954Y-113544768D01*
X139705934Y-113484700D01*
X139500000Y-113464417D01*
X139294065Y-113484700D01*
X139294064Y-113484700D01*
X139096043Y-113544769D01*
X138913548Y-113642316D01*
X138753590Y-113773590D01*
X138622316Y-113933548D01*
X138524769Y-114116043D01*
X138464700Y-114314064D01*
X138464700Y-114314065D01*
X138464700Y-114314066D01*
X138444417Y-114520000D01*
X138464700Y-114725934D01*
X138524768Y-114923954D01*
X138622315Y-115106450D01*
X138753590Y-115266410D01*
X138913550Y-115397685D01*
X139096046Y-115495232D01*
X139294066Y-115555300D01*
X139500000Y-115575583D01*
X139705934Y-115555300D01*
X139903954Y-115495232D01*
X140086450Y-115397685D01*
X140246410Y-115266410D01*
X140377685Y-115106450D01*
X140475232Y-114923954D01*
X140504110Y-114828753D01*
X140527901Y-114799764D01*
X140565224Y-114796088D01*
X140594214Y-114819879D01*
X140600000Y-114842978D01*
X140600000Y-116051000D01*
X140585648Y-116085648D01*
X140551000Y-116100000D01*
X123478820Y-116100000D01*
X123478047Y-116099994D01*
X123350297Y-116097978D01*
X123344675Y-116097565D01*
X123090991Y-116064170D01*
X123084711Y-116062921D01*
X122837921Y-115996796D01*
X122831864Y-115994740D01*
X122595829Y-115896975D01*
X122590080Y-115894140D01*
X122368829Y-115766403D01*
X122363500Y-115762843D01*
X122160496Y-115607076D01*
X122156233Y-115603396D01*
X122064445Y-115514438D01*
X122063958Y-115513958D01*
X121985796Y-115435795D01*
X121891757Y-115344628D01*
X121683962Y-115185185D01*
X121536414Y-115100000D01*
X136969196Y-115100000D01*
X136990281Y-115233126D01*
X136990281Y-115233127D01*
X136990282Y-115233128D01*
X137051467Y-115353213D01*
X137051472Y-115353220D01*
X137146779Y-115448527D01*
X137146786Y-115448532D01*
X137226842Y-115489322D01*
X137266874Y-115509719D01*
X137400000Y-115530804D01*
X137533126Y-115509719D01*
X137616420Y-115467278D01*
X137653213Y-115448532D01*
X137653215Y-115448530D01*
X137653220Y-115448528D01*
X137748528Y-115353220D01*
X137809719Y-115233126D01*
X137830804Y-115100000D01*
X137809719Y-114966874D01*
X137768628Y-114886228D01*
X137748532Y-114846786D01*
X137748527Y-114846779D01*
X137653220Y-114751472D01*
X137653213Y-114751467D01*
X137533128Y-114690282D01*
X137533127Y-114690281D01*
X137533126Y-114690281D01*
X137400000Y-114669196D01*
X137266874Y-114690281D01*
X137266872Y-114690281D01*
X137266871Y-114690282D01*
X137146786Y-114751467D01*
X137146779Y-114751472D01*
X137051472Y-114846779D01*
X137051467Y-114846786D01*
X136990282Y-114966871D01*
X136990281Y-114966872D01*
X136990281Y-114966874D01*
X136969196Y-115100000D01*
X121536414Y-115100000D01*
X121457150Y-115054238D01*
X121457151Y-115054238D01*
X121215184Y-114954016D01*
X121215182Y-114954015D01*
X121215178Y-114954014D01*
X121215176Y-114954013D01*
X121088684Y-114920121D01*
X120962187Y-114886228D01*
X120702518Y-114852046D01*
X120702527Y-114852046D01*
X120571574Y-114850000D01*
X120571573Y-114850000D01*
X111400588Y-114850000D01*
X111399388Y-114849985D01*
X111305964Y-114847696D01*
X111297605Y-114846769D01*
X111113749Y-114810198D01*
X111104556Y-114807410D01*
X110931920Y-114735901D01*
X110923449Y-114731373D01*
X110915310Y-114725935D01*
X110768083Y-114627561D01*
X110760658Y-114621467D01*
X110628532Y-114489341D01*
X110622438Y-114481916D01*
X110518626Y-114326550D01*
X110514098Y-114318079D01*
X110442586Y-114145436D01*
X110439803Y-114136257D01*
X110403229Y-113952388D01*
X110402303Y-113944042D01*
X110400015Y-113850612D01*
X110400000Y-113849412D01*
X110400000Y-112350000D01*
X115419196Y-112350000D01*
X115440281Y-112483126D01*
X115440281Y-112483127D01*
X115440282Y-112483128D01*
X115501467Y-112603213D01*
X115501472Y-112603220D01*
X115596779Y-112698527D01*
X115596786Y-112698532D01*
X115638903Y-112719991D01*
X115716874Y-112759719D01*
X115850000Y-112780804D01*
X115983126Y-112759719D01*
X116081665Y-112709511D01*
X116103213Y-112698532D01*
X116103215Y-112698530D01*
X116103220Y-112698528D01*
X116198528Y-112603220D01*
X116211446Y-112577868D01*
X116230026Y-112541402D01*
X116259719Y-112483126D01*
X116280804Y-112350000D01*
X116259719Y-112216874D01*
X116239322Y-112176842D01*
X116198532Y-112096786D01*
X116198527Y-112096779D01*
X116103220Y-112001472D01*
X116103213Y-112001467D01*
X115983128Y-111940282D01*
X115983127Y-111940281D01*
X115983126Y-111940281D01*
X115850000Y-111919196D01*
X115716874Y-111940281D01*
X115716872Y-111940281D01*
X115716871Y-111940282D01*
X115596786Y-112001467D01*
X115596779Y-112001472D01*
X115501472Y-112096779D01*
X115501467Y-112096786D01*
X115440282Y-112216871D01*
X115440281Y-112216872D01*
X115440281Y-112216874D01*
X115419196Y-112350000D01*
X110400000Y-112350000D01*
X110400000Y-109900000D01*
X115919196Y-109900000D01*
X115940281Y-110033126D01*
X115940281Y-110033127D01*
X115940282Y-110033128D01*
X116001467Y-110153213D01*
X116001472Y-110153220D01*
X116096779Y-110248527D01*
X116096786Y-110248532D01*
X116176842Y-110289322D01*
X116216874Y-110309719D01*
X116350000Y-110330804D01*
X116483126Y-110309719D01*
X116600251Y-110250041D01*
X116603213Y-110248532D01*
X116603215Y-110248530D01*
X116603220Y-110248528D01*
X116698528Y-110153220D01*
X116699422Y-110151467D01*
X116717278Y-110116420D01*
X116759719Y-110033126D01*
X116780804Y-109900000D01*
X116759719Y-109766874D01*
X116727259Y-109703168D01*
X116698532Y-109646786D01*
X116698527Y-109646779D01*
X116603220Y-109551472D01*
X116603213Y-109551467D01*
X116483128Y-109490282D01*
X116483127Y-109490281D01*
X116483126Y-109490281D01*
X116350000Y-109469196D01*
X116216874Y-109490281D01*
X116216872Y-109490281D01*
X116216871Y-109490282D01*
X116096786Y-109551467D01*
X116096779Y-109551472D01*
X116001472Y-109646779D01*
X116001467Y-109646786D01*
X115940282Y-109766871D01*
X115940281Y-109766872D01*
X115940281Y-109766874D01*
X115919196Y-109900000D01*
X110400000Y-109900000D01*
X110400000Y-107850000D01*
X115919196Y-107850000D01*
X115940281Y-107983126D01*
X115940281Y-107983127D01*
X115940282Y-107983128D01*
X116001467Y-108103213D01*
X116001472Y-108103220D01*
X116096779Y-108198527D01*
X116096786Y-108198532D01*
X116176842Y-108239322D01*
X116216874Y-108259719D01*
X116350000Y-108280804D01*
X116483126Y-108259719D01*
X116566420Y-108217278D01*
X116603213Y-108198532D01*
X116603215Y-108198530D01*
X116603220Y-108198528D01*
X116698528Y-108103220D01*
X116700424Y-108099500D01*
X116724897Y-108051467D01*
X116759719Y-107983126D01*
X116780804Y-107850000D01*
X116759719Y-107716874D01*
X116726395Y-107651472D01*
X116698532Y-107596786D01*
X116698527Y-107596779D01*
X116603220Y-107501472D01*
X116603213Y-107501467D01*
X116483128Y-107440282D01*
X116483127Y-107440281D01*
X116483126Y-107440281D01*
X116350000Y-107419196D01*
X116216874Y-107440281D01*
X116216872Y-107440281D01*
X116216871Y-107440282D01*
X116096786Y-107501467D01*
X116096779Y-107501472D01*
X116001472Y-107596779D01*
X116001467Y-107596786D01*
X115940282Y-107716871D01*
X115940281Y-107716872D01*
X115940281Y-107716874D01*
X115919196Y-107850000D01*
X110400000Y-107850000D01*
X110400000Y-107300000D01*
X132469196Y-107300000D01*
X132490281Y-107433126D01*
X132490281Y-107433127D01*
X132490282Y-107433128D01*
X132551467Y-107553213D01*
X132551472Y-107553220D01*
X132646779Y-107648527D01*
X132646786Y-107648532D01*
X132726842Y-107689322D01*
X132766874Y-107709719D01*
X132900000Y-107730804D01*
X133033126Y-107709719D01*
X133116420Y-107667278D01*
X133153213Y-107648532D01*
X133153215Y-107648530D01*
X133153220Y-107648528D01*
X133248528Y-107553220D01*
X133256340Y-107537887D01*
X133284858Y-107513531D01*
X133322245Y-107516473D01*
X133343660Y-107537888D01*
X133351470Y-107553217D01*
X133351472Y-107553220D01*
X133446779Y-107648527D01*
X133446786Y-107648532D01*
X133526842Y-107689322D01*
X133566874Y-107709719D01*
X133700000Y-107730804D01*
X133833126Y-107709719D01*
X133916420Y-107667278D01*
X133953213Y-107648532D01*
X133953215Y-107648530D01*
X133953220Y-107648528D01*
X134048528Y-107553220D01*
X134109719Y-107433126D01*
X134130804Y-107300000D01*
X134110799Y-107173695D01*
X134119554Y-107137231D01*
X134151531Y-107117635D01*
X134166854Y-107117635D01*
X134250000Y-107130804D01*
X134383126Y-107109719D01*
X134476560Y-107062112D01*
X134503213Y-107048532D01*
X134503215Y-107048530D01*
X134503220Y-107048528D01*
X134598528Y-106953220D01*
X134599422Y-106951467D01*
X134617877Y-106915246D01*
X134659719Y-106833126D01*
X134680804Y-106700000D01*
X134659719Y-106566874D01*
X134629733Y-106508023D01*
X134598532Y-106446786D01*
X134598526Y-106446778D01*
X134503220Y-106351472D01*
X134503213Y-106351467D01*
X134383128Y-106290282D01*
X134383127Y-106290281D01*
X134383126Y-106290281D01*
X134250000Y-106269196D01*
X134116874Y-106290281D01*
X134116872Y-106290281D01*
X134116871Y-106290282D01*
X133996786Y-106351467D01*
X133996779Y-106351472D01*
X133901474Y-106446778D01*
X133901467Y-106446786D01*
X133840282Y-106566871D01*
X133840281Y-106566872D01*
X133840281Y-106566874D01*
X133821617Y-106684717D01*
X133819196Y-106700000D01*
X133839200Y-106826302D01*
X133830445Y-106862769D01*
X133798468Y-106882364D01*
X133783140Y-106882364D01*
X133700000Y-106869196D01*
X133566874Y-106890281D01*
X133566872Y-106890281D01*
X133566871Y-106890282D01*
X133446786Y-106951467D01*
X133446779Y-106951472D01*
X133351474Y-107046778D01*
X133351468Y-107046784D01*
X133343659Y-107062112D01*
X133315141Y-107086468D01*
X133277754Y-107083525D01*
X133256341Y-107062112D01*
X133248531Y-107046784D01*
X133248526Y-107046778D01*
X133153220Y-106951472D01*
X133153213Y-106951467D01*
X133033128Y-106890282D01*
X133033127Y-106890281D01*
X133033126Y-106890281D01*
X132900000Y-106869196D01*
X132766874Y-106890281D01*
X132766872Y-106890281D01*
X132766871Y-106890282D01*
X132646786Y-106951467D01*
X132646779Y-106951472D01*
X132551474Y-107046778D01*
X132551467Y-107046786D01*
X132490282Y-107166871D01*
X132490281Y-107166872D01*
X132490281Y-107166874D01*
X132469196Y-107300000D01*
X110400000Y-107300000D01*
X110400000Y-106098306D01*
X125368736Y-106098306D01*
X125389821Y-106231432D01*
X125389821Y-106231433D01*
X125389822Y-106231434D01*
X125451007Y-106351519D01*
X125451012Y-106351526D01*
X125546319Y-106446833D01*
X125546326Y-106446838D01*
X125626382Y-106487628D01*
X125666414Y-106508025D01*
X125799540Y-106529110D01*
X125932666Y-106508025D01*
X126015960Y-106465584D01*
X126052753Y-106446838D01*
X126052755Y-106446836D01*
X126052760Y-106446834D01*
X126148068Y-106351526D01*
X126209259Y-106231432D01*
X126230076Y-106100000D01*
X128069196Y-106100000D01*
X128090281Y-106233126D01*
X128090281Y-106233127D01*
X128090282Y-106233128D01*
X128151467Y-106353213D01*
X128151472Y-106353220D01*
X128246779Y-106448527D01*
X128246786Y-106448532D01*
X128326842Y-106489322D01*
X128366874Y-106509719D01*
X128500000Y-106530804D01*
X128633126Y-106509719D01*
X128716420Y-106467278D01*
X128753213Y-106448532D01*
X128753215Y-106448530D01*
X128753220Y-106448528D01*
X128848528Y-106353220D01*
X128849392Y-106351526D01*
X128867278Y-106316420D01*
X128909719Y-106233126D01*
X128930804Y-106100000D01*
X128909719Y-105966874D01*
X128878421Y-105905448D01*
X128848532Y-105846786D01*
X128848527Y-105846779D01*
X128753220Y-105751472D01*
X128753213Y-105751467D01*
X128633128Y-105690282D01*
X128633127Y-105690281D01*
X128633126Y-105690281D01*
X128500000Y-105669196D01*
X128366874Y-105690281D01*
X128366872Y-105690281D01*
X128366871Y-105690282D01*
X128246786Y-105751467D01*
X128246779Y-105751472D01*
X128151472Y-105846779D01*
X128151467Y-105846786D01*
X128090282Y-105966871D01*
X128090281Y-105966872D01*
X128090281Y-105966874D01*
X128069196Y-106100000D01*
X126230076Y-106100000D01*
X126230344Y-106098306D01*
X126209259Y-105965180D01*
X126178824Y-105905448D01*
X126148072Y-105845092D01*
X126148067Y-105845085D01*
X126052760Y-105749778D01*
X126052753Y-105749773D01*
X125932668Y-105688588D01*
X125932667Y-105688587D01*
X125932666Y-105688587D01*
X125799540Y-105667502D01*
X125666414Y-105688587D01*
X125666412Y-105688587D01*
X125666411Y-105688588D01*
X125546326Y-105749773D01*
X125546319Y-105749778D01*
X125451012Y-105845085D01*
X125451007Y-105845092D01*
X125389822Y-105965177D01*
X125389821Y-105965178D01*
X125389821Y-105965180D01*
X125368736Y-106098306D01*
X110400000Y-106098306D01*
X110400000Y-105000000D01*
X125369196Y-105000000D01*
X125390281Y-105133126D01*
X125390281Y-105133127D01*
X125390282Y-105133128D01*
X125451467Y-105253213D01*
X125451472Y-105253220D01*
X125546779Y-105348527D01*
X125546786Y-105348532D01*
X125626842Y-105389322D01*
X125666874Y-105409719D01*
X125800000Y-105430804D01*
X125933126Y-105409719D01*
X126016420Y-105367278D01*
X126053213Y-105348532D01*
X126053215Y-105348530D01*
X126053220Y-105348528D01*
X126148528Y-105253220D01*
X126149422Y-105251467D01*
X126176395Y-105198527D01*
X126209719Y-105133126D01*
X126230804Y-105000000D01*
X126209719Y-104866874D01*
X126183537Y-104815489D01*
X126148532Y-104746786D01*
X126148527Y-104746779D01*
X126053220Y-104651472D01*
X126053213Y-104651467D01*
X125933128Y-104590282D01*
X125933127Y-104590281D01*
X125933126Y-104590281D01*
X125800000Y-104569196D01*
X125666874Y-104590281D01*
X125666872Y-104590281D01*
X125666871Y-104590282D01*
X125546786Y-104651467D01*
X125546779Y-104651472D01*
X125451472Y-104746779D01*
X125451467Y-104746786D01*
X125390282Y-104866871D01*
X125390281Y-104866872D01*
X125390281Y-104866874D01*
X125369196Y-105000000D01*
X110400000Y-105000000D01*
X110400000Y-103850587D01*
X110400015Y-103849387D01*
X110401903Y-103772311D01*
X110402303Y-103755956D01*
X110403229Y-103747612D01*
X110439803Y-103563739D01*
X110442585Y-103554566D01*
X110514101Y-103381913D01*
X110518621Y-103373456D01*
X110622443Y-103218076D01*
X110628527Y-103210663D01*
X110760663Y-103078527D01*
X110768076Y-103072443D01*
X110923456Y-102968621D01*
X110931913Y-102964101D01*
X111086665Y-102900000D01*
X124969196Y-102900000D01*
X124990281Y-103033126D01*
X124990281Y-103033127D01*
X124990282Y-103033128D01*
X125051467Y-103153213D01*
X125051473Y-103153221D01*
X125113603Y-103215352D01*
X125127955Y-103250000D01*
X125113603Y-103284648D01*
X125051473Y-103346778D01*
X125051467Y-103346786D01*
X124990282Y-103466871D01*
X124990281Y-103466872D01*
X124990281Y-103466874D01*
X124969196Y-103600000D01*
X124990281Y-103733126D01*
X124990281Y-103733127D01*
X124990282Y-103733128D01*
X125051467Y-103853213D01*
X125051472Y-103853220D01*
X125146779Y-103948527D01*
X125146786Y-103948532D01*
X125199715Y-103975500D01*
X125266874Y-104009719D01*
X125400000Y-104030804D01*
X125533126Y-104009719D01*
X125616420Y-103967278D01*
X125653213Y-103948532D01*
X125653215Y-103948530D01*
X125653220Y-103948528D01*
X125748528Y-103853220D01*
X125749422Y-103851467D01*
X125767278Y-103816420D01*
X125809719Y-103733126D01*
X125814966Y-103700000D01*
X127569196Y-103700000D01*
X127590281Y-103833126D01*
X127590281Y-103833127D01*
X127590282Y-103833128D01*
X127651467Y-103953213D01*
X127651472Y-103953220D01*
X127746779Y-104048527D01*
X127746786Y-104048532D01*
X127817805Y-104084717D01*
X127866874Y-104109719D01*
X128000000Y-104130804D01*
X128133126Y-104109719D01*
X128217220Y-104066871D01*
X128253213Y-104048532D01*
X128253215Y-104048530D01*
X128253220Y-104048528D01*
X128348528Y-103953220D01*
X128350920Y-103948527D01*
X128375645Y-103900000D01*
X128409719Y-103833126D01*
X128430804Y-103700000D01*
X128409719Y-103566874D01*
X128367568Y-103484148D01*
X128348532Y-103446786D01*
X128348527Y-103446779D01*
X128253220Y-103351472D01*
X128253213Y-103351467D01*
X128133128Y-103290282D01*
X128133127Y-103290281D01*
X128133126Y-103290281D01*
X128000000Y-103269196D01*
X127866874Y-103290281D01*
X127866872Y-103290281D01*
X127866871Y-103290282D01*
X127746786Y-103351467D01*
X127746779Y-103351472D01*
X127651472Y-103446779D01*
X127651467Y-103446786D01*
X127590282Y-103566871D01*
X127590281Y-103566872D01*
X127590281Y-103566874D01*
X127569196Y-103700000D01*
X125814966Y-103700000D01*
X125830804Y-103600000D01*
X125809719Y-103466874D01*
X125786742Y-103421780D01*
X125748532Y-103346786D01*
X125748527Y-103346779D01*
X125686396Y-103284648D01*
X125672044Y-103250000D01*
X125686396Y-103215352D01*
X125717031Y-103184717D01*
X125748528Y-103153220D01*
X125809719Y-103033126D01*
X125830804Y-102900000D01*
X125811006Y-102775000D01*
X133769196Y-102775000D01*
X133790281Y-102908126D01*
X133790281Y-102908127D01*
X133790282Y-102908128D01*
X133851467Y-103028213D01*
X133851472Y-103028220D01*
X133946779Y-103123527D01*
X133946786Y-103123532D01*
X134026842Y-103164322D01*
X134066874Y-103184719D01*
X134200000Y-103205804D01*
X134333126Y-103184719D01*
X134416420Y-103142278D01*
X134453213Y-103123532D01*
X134453215Y-103123530D01*
X134453220Y-103123528D01*
X134548528Y-103028220D01*
X134609719Y-102908126D01*
X134630804Y-102775000D01*
X134609719Y-102641874D01*
X134563657Y-102551472D01*
X134548532Y-102521786D01*
X134548527Y-102521779D01*
X134453220Y-102426472D01*
X134453213Y-102426467D01*
X134333128Y-102365282D01*
X134333127Y-102365281D01*
X134333126Y-102365281D01*
X134200000Y-102344196D01*
X134066874Y-102365281D01*
X134066872Y-102365281D01*
X134066871Y-102365282D01*
X133946786Y-102426467D01*
X133946779Y-102426472D01*
X133851472Y-102521779D01*
X133851467Y-102521786D01*
X133790282Y-102641871D01*
X133790281Y-102641872D01*
X133790281Y-102641874D01*
X133769196Y-102775000D01*
X125811006Y-102775000D01*
X125809719Y-102766874D01*
X125789322Y-102726842D01*
X125748532Y-102646786D01*
X125748527Y-102646779D01*
X125653220Y-102551472D01*
X125653213Y-102551467D01*
X125533128Y-102490282D01*
X125533127Y-102490281D01*
X125533126Y-102490281D01*
X125400000Y-102469196D01*
X125266874Y-102490281D01*
X125266872Y-102490281D01*
X125266871Y-102490282D01*
X125146786Y-102551467D01*
X125146779Y-102551472D01*
X125051472Y-102646779D01*
X125051467Y-102646786D01*
X124990282Y-102766871D01*
X124990281Y-102766872D01*
X124990281Y-102766874D01*
X124969196Y-102900000D01*
X111086665Y-102900000D01*
X111104566Y-102892585D01*
X111113739Y-102889803D01*
X111297612Y-102853229D01*
X111305956Y-102852303D01*
X111399388Y-102850015D01*
X111400588Y-102850000D01*
X120571567Y-102850000D01*
X120571573Y-102850000D01*
X120702525Y-102847934D01*
X120962189Y-102813752D01*
X121215169Y-102745969D01*
X121457138Y-102645746D01*
X121457140Y-102645744D01*
X121457142Y-102645744D01*
X121620429Y-102551472D01*
X121683955Y-102514796D01*
X121891739Y-102355361D01*
X121985786Y-102264214D01*
X122064001Y-102185998D01*
X122064413Y-102185592D01*
X122156219Y-102096590D01*
X122160482Y-102092909D01*
X122363497Y-101937134D01*
X122368810Y-101933585D01*
X122590084Y-101805835D01*
X122595806Y-101803013D01*
X122831861Y-101705240D01*
X122837913Y-101703185D01*
X123084709Y-101637059D01*
X123090990Y-101635810D01*
X123344686Y-101602413D01*
X123350286Y-101602003D01*
X123478043Y-101600005D01*
X123478809Y-101600000D01*
X140551000Y-101600000D01*
X140585648Y-101614352D01*
G37*
%TD.AperFunction*%
%TA.AperFunction,Conductor*%
G36*
X139489881Y-103414852D02*
G01*
X140585648Y-104510619D01*
X140600000Y-104545267D01*
X140600000Y-105901730D01*
X140585648Y-105936378D01*
X140551000Y-105950730D01*
X140516352Y-105936378D01*
X140510258Y-105928953D01*
X140494552Y-105905447D01*
X140454795Y-105878882D01*
X140428231Y-105861133D01*
X140369748Y-105849500D01*
X138630252Y-105849500D01*
X138571769Y-105861133D01*
X138568253Y-105862590D01*
X138530750Y-105862591D01*
X138504230Y-105836073D01*
X138500500Y-105817320D01*
X138500500Y-103760436D01*
X138495621Y-103742230D01*
X138493182Y-103733126D01*
X138480022Y-103684012D01*
X138440460Y-103615489D01*
X138309119Y-103484148D01*
X138294767Y-103449500D01*
X138309119Y-103414852D01*
X138343767Y-103400500D01*
X139455233Y-103400500D01*
X139489881Y-103414852D01*
G37*
%TD.AperFunction*%
%TD*%
M02*
