%TF.GenerationSoftware,KiCad,Pcbnew,8.0.4*%
%TF.CreationDate,2024-10-09T21:29:51+02:00*%
%TF.ProjectId,elrs-sim,656c7273-2d73-4696-9d2e-6b696361645f,rev?*%
%TF.SameCoordinates,Original*%
%TF.FileFunction,Profile,NP*%
%FSLAX46Y46*%
G04 Gerber Fmt 4.6, Leading zero omitted, Abs format (unit mm)*
G04 Created by KiCad (PCBNEW 8.0.4) date 2024-10-09 21:29:51*
%MOMM*%
%LPD*%
G01*
G04 APERTURE LIST*
%TA.AperFunction,Profile*%
%ADD10C,0.100000*%
%TD*%
G04 APERTURE END LIST*
D10*
X123478427Y-116100000D02*
G75*
G02*
X122064200Y-115514228I-27J2000000D01*
G01*
X164000000Y-103850000D02*
G75*
G02*
X163400000Y-103850000I-300000J0D01*
G01*
X163400000Y-103850000D02*
G75*
G02*
X164000000Y-103850000I300000J0D01*
G01*
X121985786Y-102264214D02*
X122064214Y-102185786D01*
X164000000Y-102850000D02*
X173400000Y-102850000D01*
X110400000Y-108850000D02*
X110400000Y-103850000D01*
X164000000Y-106850000D02*
G75*
G02*
X163400000Y-106850000I-300000J0D01*
G01*
X163400000Y-106850000D02*
G75*
G02*
X164000000Y-106850000I300000J0D01*
G01*
X164000000Y-114850000D02*
X173400000Y-114850000D01*
X110400000Y-108850000D02*
X110400000Y-113850000D01*
X121985786Y-115435786D02*
X122064214Y-115514214D01*
X164000000Y-107850000D02*
G75*
G02*
X163400000Y-107850000I-300000J0D01*
G01*
X163400000Y-107850000D02*
G75*
G02*
X164000000Y-107850000I300000J0D01*
G01*
X111400000Y-102850000D02*
X120571573Y-102850000D01*
X164000000Y-102850000D02*
G75*
G02*
X163400000Y-102850000I-300000J0D01*
G01*
X163400000Y-114850000D02*
G75*
G02*
X162150000Y-116100000I-1250000J0D01*
G01*
X123478427Y-116100000D02*
X162150000Y-116100000D01*
X174400000Y-113850000D02*
X174400000Y-108850000D01*
X164000000Y-109850000D02*
G75*
G02*
X163400000Y-109850000I-300000J0D01*
G01*
X163400000Y-109850000D02*
G75*
G02*
X164000000Y-109850000I300000J0D01*
G01*
X111400000Y-114850000D02*
G75*
G02*
X110400000Y-113850000I0J1000000D01*
G01*
X173400000Y-102850000D02*
G75*
G02*
X174400000Y-103850000I0J-1000000D01*
G01*
X164000000Y-110850000D02*
G75*
G02*
X163400000Y-110850000I-300000J0D01*
G01*
X163400000Y-110850000D02*
G75*
G02*
X164000000Y-110850000I300000J0D01*
G01*
X164000000Y-111850000D02*
G75*
G02*
X163400000Y-111850000I-300000J0D01*
G01*
X163400000Y-111850000D02*
G75*
G02*
X164000000Y-111850000I300000J0D01*
G01*
X162150000Y-101600000D02*
G75*
G02*
X163400000Y-102850000I0J-1250000D01*
G01*
X111400000Y-114850000D02*
X120571573Y-114850000D01*
X110400000Y-103850000D02*
G75*
G02*
X111400000Y-102850000I1000000J0D01*
G01*
X164000000Y-104850000D02*
G75*
G02*
X163400000Y-104850000I-300000J0D01*
G01*
X163400000Y-104850000D02*
G75*
G02*
X164000000Y-104850000I300000J0D01*
G01*
X174400000Y-113850000D02*
G75*
G02*
X173400000Y-114850000I-1000000J0D01*
G01*
X120571573Y-114850000D02*
G75*
G02*
X121985800Y-115435772I27J-2000000D01*
G01*
X123478427Y-101600000D02*
X162150000Y-101600000D01*
X164000000Y-112850000D02*
G75*
G02*
X163400000Y-112850000I-300000J0D01*
G01*
X163400000Y-112850000D02*
G75*
G02*
X164000000Y-112850000I300000J0D01*
G01*
X164000000Y-105850000D02*
G75*
G02*
X163400000Y-105850000I-300000J0D01*
G01*
X163400000Y-105850000D02*
G75*
G02*
X164000000Y-105850000I300000J0D01*
G01*
X121985786Y-102264214D02*
G75*
G02*
X120571573Y-102849981I-1414186J1414214D01*
G01*
X164000000Y-108850000D02*
G75*
G02*
X163400000Y-108850000I-300000J0D01*
G01*
X163400000Y-108850000D02*
G75*
G02*
X164000000Y-108850000I300000J0D01*
G01*
X122064214Y-102185786D02*
G75*
G02*
X123478427Y-101600019I1414186J-1414214D01*
G01*
X164000000Y-113850000D02*
G75*
G02*
X163400000Y-113850000I-300000J0D01*
G01*
X163400000Y-113850000D02*
G75*
G02*
X164000000Y-113850000I300000J0D01*
G01*
X163400000Y-114850000D02*
G75*
G02*
X164000000Y-114850000I300000J0D01*
G01*
X174400000Y-103850000D02*
X174400000Y-108850000D01*
M02*
