%TF.GenerationSoftware,KiCad,Pcbnew,8.0.4*%
%TF.CreationDate,2024-09-02T22:56:13+02:00*%
%TF.ProjectId,elrs-sim,656c7273-2d73-4696-9d2e-6b696361645f,rev?*%
%TF.SameCoordinates,Original*%
%TF.FileFunction,Copper,L1,Top*%
%TF.FilePolarity,Positive*%
%FSLAX46Y46*%
G04 Gerber Fmt 4.6, Leading zero omitted, Abs format (unit mm)*
G04 Created by KiCad (PCBNEW 8.0.4) date 2024-09-02 22:56:13*
%MOMM*%
%LPD*%
G01*
G04 APERTURE LIST*
G04 Aperture macros list*
%AMRoundRect*
0 Rectangle with rounded corners*
0 $1 Rounding radius*
0 $2 $3 $4 $5 $6 $7 $8 $9 X,Y pos of 4 corners*
0 Add a 4 corners polygon primitive as box body*
4,1,4,$2,$3,$4,$5,$6,$7,$8,$9,$2,$3,0*
0 Add four circle primitives for the rounded corners*
1,1,$1+$1,$2,$3*
1,1,$1+$1,$4,$5*
1,1,$1+$1,$6,$7*
1,1,$1+$1,$8,$9*
0 Add four rect primitives between the rounded corners*
20,1,$1+$1,$2,$3,$4,$5,0*
20,1,$1+$1,$4,$5,$6,$7,0*
20,1,$1+$1,$6,$7,$8,$9,0*
20,1,$1+$1,$8,$9,$2,$3,0*%
%AMFreePoly0*
4,1,6,1.000000,0.000000,0.500000,-0.750000,-0.500000,-0.750000,-0.500000,0.750000,0.500000,0.750000,1.000000,0.000000,1.000000,0.000000,$1*%
%AMFreePoly1*
4,1,6,0.500000,-0.750000,-0.650000,-0.750000,-0.150000,0.000000,-0.650000,0.750000,0.500000,0.750000,0.500000,-0.750000,0.500000,-0.750000,$1*%
G04 Aperture macros list end*
%TA.AperFunction,Conductor*%
%ADD10C,0.300000*%
%TD*%
%TA.AperFunction,SMDPad,CuDef*%
%ADD11RoundRect,0.102000X0.323000X-0.373000X0.323000X0.373000X-0.323000X0.373000X-0.323000X-0.373000X0*%
%TD*%
%TA.AperFunction,SMDPad,CuDef*%
%ADD12R,0.240000X0.900000*%
%TD*%
%TA.AperFunction,SMDPad,CuDef*%
%ADD13R,0.900000X0.240000*%
%TD*%
%TA.AperFunction,SMDPad,CuDef*%
%ADD14R,0.900000X1.400000*%
%TD*%
%TA.AperFunction,SMDPad,CuDef*%
%ADD15RoundRect,0.102000X0.373000X0.323000X-0.373000X0.323000X-0.373000X-0.323000X0.373000X-0.323000X0*%
%TD*%
%TA.AperFunction,SMDPad,CuDef*%
%ADD16RoundRect,0.135000X0.135000X0.185000X-0.135000X0.185000X-0.135000X-0.185000X0.135000X-0.185000X0*%
%TD*%
%TA.AperFunction,SMDPad,CuDef*%
%ADD17R,0.600000X0.600000*%
%TD*%
%TA.AperFunction,SMDPad,CuDef*%
%ADD18R,0.300000X1.450000*%
%TD*%
%TA.AperFunction,SMDPad,CuDef*%
%ADD19RoundRect,0.218750X-0.218750X-0.256250X0.218750X-0.256250X0.218750X0.256250X-0.218750X0.256250X0*%
%TD*%
%TA.AperFunction,SMDPad,CuDef*%
%ADD20RoundRect,0.135000X-0.135000X-0.185000X0.135000X-0.185000X0.135000X0.185000X-0.135000X0.185000X0*%
%TD*%
%TA.AperFunction,SMDPad,CuDef*%
%ADD21RoundRect,0.140000X0.140000X0.170000X-0.140000X0.170000X-0.140000X-0.170000X0.140000X-0.170000X0*%
%TD*%
%TA.AperFunction,SMDPad,CuDef*%
%ADD22RoundRect,0.140000X-0.140000X-0.170000X0.140000X-0.170000X0.140000X0.170000X-0.140000X0.170000X0*%
%TD*%
%TA.AperFunction,SMDPad,CuDef*%
%ADD23R,1.000000X2.300000*%
%TD*%
%TA.AperFunction,SMDPad,CuDef*%
%ADD24R,0.300000X0.850000*%
%TD*%
%TA.AperFunction,SMDPad,CuDef*%
%ADD25R,0.850000X0.300000*%
%TD*%
%TA.AperFunction,SMDPad,CuDef*%
%ADD26R,2.650000X2.650000*%
%TD*%
%TA.AperFunction,SMDPad,CuDef*%
%ADD27RoundRect,0.150000X-0.150000X0.512500X-0.150000X-0.512500X0.150000X-0.512500X0.150000X0.512500X0*%
%TD*%
%TA.AperFunction,SMDPad,CuDef*%
%ADD28RoundRect,0.102000X-0.373000X-0.323000X0.373000X-0.323000X0.373000X0.323000X-0.373000X0.323000X0*%
%TD*%
%TA.AperFunction,SMDPad,CuDef*%
%ADD29RoundRect,0.050000X0.050000X-0.387500X0.050000X0.387500X-0.050000X0.387500X-0.050000X-0.387500X0*%
%TD*%
%TA.AperFunction,SMDPad,CuDef*%
%ADD30RoundRect,0.050000X0.387500X-0.050000X0.387500X0.050000X-0.387500X0.050000X-0.387500X-0.050000X0*%
%TD*%
%TA.AperFunction,HeatsinkPad*%
%ADD31R,3.200000X3.200000*%
%TD*%
%TA.AperFunction,SMDPad,CuDef*%
%ADD32RoundRect,0.500000X3.500000X-0.500000X3.500000X0.500000X-3.500000X0.500000X-3.500000X-0.500000X0*%
%TD*%
%TA.AperFunction,SMDPad,CuDef*%
%ADD33RoundRect,0.500000X3.000000X-0.250000X3.000000X0.250000X-3.000000X0.250000X-3.000000X-0.250000X0*%
%TD*%
%TA.AperFunction,SMDPad,CuDef*%
%ADD34FreePoly0,180.000000*%
%TD*%
%TA.AperFunction,SMDPad,CuDef*%
%ADD35FreePoly1,180.000000*%
%TD*%
%TA.AperFunction,SMDPad,CuDef*%
%ADD36RoundRect,0.140000X-0.170000X0.140000X-0.170000X-0.140000X0.170000X-0.140000X0.170000X0.140000X0*%
%TD*%
%TA.AperFunction,SMDPad,CuDef*%
%ADD37R,0.900000X1.700000*%
%TD*%
%TA.AperFunction,SMDPad,CuDef*%
%ADD38RoundRect,0.062500X-0.062500X0.387500X-0.062500X-0.387500X0.062500X-0.387500X0.062500X0.387500X0*%
%TD*%
%TA.AperFunction,HeatsinkPad*%
%ADD39R,1.600000X0.200000*%
%TD*%
%TA.AperFunction,SMDPad,CuDef*%
%ADD40RoundRect,0.140000X0.170000X-0.140000X0.170000X0.140000X-0.170000X0.140000X-0.170000X-0.140000X0*%
%TD*%
%TA.AperFunction,ComponentPad*%
%ADD41R,1.700000X1.700000*%
%TD*%
%TA.AperFunction,ComponentPad*%
%ADD42O,1.700000X1.700000*%
%TD*%
%TA.AperFunction,ComponentPad*%
%ADD43RoundRect,0.500000X-3.500000X0.500000X-3.500000X-0.500000X3.500000X-0.500000X3.500000X0.500000X0*%
%TD*%
%TA.AperFunction,ComponentPad*%
%ADD44RoundRect,0.500000X-3.000000X0.250000X-3.000000X-0.250000X3.000000X-0.250000X3.000000X0.250000X0*%
%TD*%
%TA.AperFunction,SMDPad,CuDef*%
%ADD45RoundRect,0.135000X0.185000X-0.135000X0.185000X0.135000X-0.185000X0.135000X-0.185000X-0.135000X0*%
%TD*%
%TA.AperFunction,SMDPad,CuDef*%
%ADD46R,0.300000X0.800000*%
%TD*%
%TA.AperFunction,SMDPad,CuDef*%
%ADD47R,0.800000X0.300000*%
%TD*%
%TA.AperFunction,SMDPad,CuDef*%
%ADD48R,3.750000X3.750000*%
%TD*%
%TA.AperFunction,SMDPad,CuDef*%
%ADD49R,2.300000X1.000000*%
%TD*%
%TA.AperFunction,ViaPad*%
%ADD50C,0.450000*%
%TD*%
%TA.AperFunction,Conductor*%
%ADD51C,0.200000*%
%TD*%
G04 APERTURE END LIST*
D10*
%TO.N,Net-(ANT1-OUT_(TO_ANTENNA))*%
X159300000Y-109000000D02*
G75*
G02*
X161450000Y-111150000I0J-2150000D01*
G01*
%TD*%
D11*
%TO.P,X2,4,Vdd*%
%TO.N,+3.3V*%
X141825000Y-109925000D03*
%TO.P,X2,3,OUT*%
%TO.N,Net-(IC2-XTAL_IN)*%
X141825000Y-108475000D03*
%TO.P,X2,2,GND*%
%TO.N,GND*%
X142975000Y-108475000D03*
%TO.P,X2,1,EN*%
%TO.N,unconnected-(X2-EN-Pad1)*%
X142975000Y-109925000D03*
%TD*%
D12*
%TO.P,IC3,1,1Y*%
%TO.N,+3.3V*%
X135250000Y-103050000D03*
D13*
%TO.P,IC3,2,1Z*%
%TO.N,+3.3V_SW*%
X134200000Y-103600000D03*
%TO.P,IC3,3,2Z*%
%TO.N,ESP_RX*%
X134200000Y-104100000D03*
%TO.P,IC3,4,2Y*%
%TO.N,RP2040_TX*%
X134200000Y-104600000D03*
%TO.P,IC3,5,2E*%
%TO.N,SW_EN*%
X134200000Y-105100000D03*
%TO.P,IC3,6,3E*%
X134200000Y-105600000D03*
D12*
%TO.P,IC3,7,GND*%
%TO.N,GND*%
X135250000Y-106150000D03*
%TO.P,IC3,8,3Y*%
%TO.N,RP2040_RX*%
X135750000Y-106150000D03*
D13*
%TO.P,IC3,9,3Z*%
%TO.N,ESP_TX*%
X136800000Y-105600000D03*
%TO.P,IC3,10,4Z*%
%TO.N,unconnected-(IC3-4Z-Pad10)*%
X136800000Y-105100000D03*
%TO.P,IC3,11,4Y*%
%TO.N,unconnected-(IC3-4Y-Pad11)*%
X136800000Y-104600000D03*
%TO.P,IC3,12,4E*%
%TO.N,GND*%
X136800000Y-104100000D03*
%TO.P,IC3,13,1E*%
%TO.N,SW_EN*%
X136800000Y-103600000D03*
D12*
%TO.P,IC3,14,VCC_1*%
%TO.N,USB_VBUS*%
X135750000Y-103050000D03*
D14*
%TO.P,IC3,15,VCC_2*%
X135500000Y-104600000D03*
%TD*%
D15*
%TO.P,X1,4,Vdd*%
%TO.N,+3.3V*%
X136150000Y-114000000D03*
%TO.P,X1,3,OUT*%
%TO.N,Net-(U1-XIN)*%
X134700000Y-114000000D03*
%TO.P,X1,2,GND*%
%TO.N,GND*%
X134700000Y-112850000D03*
%TO.P,X1,1,EN*%
%TO.N,unconnected-(X1-EN-Pad1)*%
X136150000Y-112850000D03*
%TD*%
D16*
%TO.P,R6,1*%
%TO.N,+3.3V_SW*%
X145135000Y-112225000D03*
%TO.P,R6,2*%
%TO.N,Net-(IC2-EXT_RSTB)*%
X144115000Y-112225000D03*
%TD*%
D17*
%TO.P,ANT1,1,IN_(TO_RFIC)*%
%TO.N,Net-(ANT1-IN_(TO_RFIC))*%
X157787000Y-109025000D03*
D18*
%TO.P,ANT1,2,GND*%
%TO.N,GND*%
X158400000Y-109025000D03*
D17*
%TO.P,ANT1,3,OUT_(TO_ANTENNA)*%
%TO.N,Net-(ANT1-OUT_(TO_ANTENNA))*%
X159013000Y-109025000D03*
%TD*%
D19*
%TO.P,D2,1,K*%
%TO.N,GND*%
X131212500Y-102800000D03*
%TO.P,D2,2,A*%
%TO.N,Net-(D2-A)*%
X132787500Y-102800000D03*
%TD*%
D20*
%TO.P,R10,1*%
%TO.N,Net-(SW2-B)*%
X131490000Y-105900000D03*
%TO.P,R10,2*%
%TO.N,QSPI_SS*%
X132510000Y-105900000D03*
%TD*%
D16*
%TO.P,R7,1*%
%TO.N,+3.3V_SW*%
X148035000Y-105025000D03*
%TO.P,R7,2*%
%TO.N,ESP_BOOT*%
X147015000Y-105025000D03*
%TD*%
D21*
%TO.P,C1,1*%
%TO.N,+3.3V*%
X127000000Y-115200000D03*
%TO.P,C1,2*%
%TO.N,GND*%
X126040000Y-115200000D03*
%TD*%
%TO.P,C5,1*%
%TO.N,+3.3V*%
X136800000Y-111600000D03*
%TO.P,C5,2*%
%TO.N,GND*%
X135840000Y-111600000D03*
%TD*%
D22*
%TO.P,C10,1*%
%TO.N,+3.3V_SW*%
X146645000Y-112225000D03*
%TO.P,C10,2*%
%TO.N,GND*%
X147605000Y-112225000D03*
%TD*%
%TO.P,C14,1*%
%TO.N,+3.3V*%
X130740000Y-115200000D03*
%TO.P,C14,2*%
%TO.N,GND*%
X131700000Y-115200000D03*
%TD*%
D21*
%TO.P,C13,1*%
%TO.N,+3.3V*%
X125080000Y-109300000D03*
%TO.P,C13,2*%
%TO.N,GND*%
X124120000Y-109300000D03*
%TD*%
%TO.P,C12,1*%
%TO.N,Net-(IC2-EXT_RSTB)*%
X143205000Y-112225000D03*
%TO.P,C12,2*%
%TO.N,GND*%
X142245000Y-112225000D03*
%TD*%
D23*
%TO.P,L2,1,ANT*%
%TO.N,LNA*%
X143785000Y-114175000D03*
%TO.P,L2,2,2*%
%TO.N,unconnected-(L2-Pad2)*%
X148865000Y-114175000D03*
%TD*%
D24*
%TO.P,IC1,1,VR_PA*%
%TO.N,Net-(IC1-VR_PA)*%
X155575000Y-107375000D03*
%TO.P,IC1,2,VDD_IN*%
%TO.N,IRS*%
X155075000Y-107375000D03*
%TO.P,IC1,3,NRESET*%
%TO.N,NRST*%
X154575000Y-107375000D03*
%TO.P,IC1,4,XTA*%
%TO.N,Net-(IC1-XTA)*%
X154075000Y-107375000D03*
%TO.P,IC1,5,GND_1*%
%TO.N,GND*%
X153575000Y-107375000D03*
%TO.P,IC1,6,XTB*%
%TO.N,Net-(IC1-XTB)*%
X153075000Y-107375000D03*
D25*
%TO.P,IC1,7,BUSY*%
%TO.N,BUSY*%
X152375000Y-108075000D03*
%TO.P,IC1,8,DIO1*%
%TO.N,DIO_1*%
X152375000Y-108575000D03*
%TO.P,IC1,9,DIO2*%
%TO.N,unconnected-(IC1-DIO2-Pad9)*%
X152375000Y-109075000D03*
%TO.P,IC1,10,DIO3*%
%TO.N,unconnected-(IC1-DIO3-Pad10)*%
X152375000Y-109575000D03*
%TO.P,IC1,11,VBAT_IO*%
%TO.N,+3.3V_SW*%
X152375000Y-110075000D03*
%TO.P,IC1,12,DCC_FB*%
%TO.N,IRS*%
X152375000Y-110575000D03*
D24*
%TO.P,IC1,13,GND_2*%
%TO.N,GND*%
X153075000Y-111275000D03*
%TO.P,IC1,14,DCC_SW*%
%TO.N,unconnected-(IC1-DCC_SW-Pad14)*%
X153575000Y-111275000D03*
%TO.P,IC1,15,VBAT*%
%TO.N,+3.3V_SW*%
X154075000Y-111275000D03*
%TO.P,IC1,16,MISO_TX*%
%TO.N,ESP_MISO*%
X154575000Y-111275000D03*
%TO.P,IC1,17,MOSI_RX*%
%TO.N,ESP_MOSI*%
X155075000Y-111275000D03*
%TO.P,IC1,18,SCK_RTSN*%
%TO.N,ESP_SCK*%
X155575000Y-111275000D03*
D25*
%TO.P,IC1,19,NSS_CTS*%
%TO.N,NSS*%
X156275000Y-110575000D03*
%TO.P,IC1,20,GND_3*%
%TO.N,GND*%
X156275000Y-110075000D03*
%TO.P,IC1,21,GND_4*%
X156275000Y-109575000D03*
%TO.P,IC1,22,RFIO*%
%TO.N,Net-(ANT1-IN_(TO_RFIC))*%
X156275000Y-109075000D03*
%TO.P,IC1,23,GND_5*%
%TO.N,GND*%
X156275000Y-108575000D03*
%TO.P,IC1,24,GND_6*%
X156275000Y-108075000D03*
D26*
%TO.P,IC1,25,EP*%
X154325000Y-109325000D03*
%TD*%
D21*
%TO.P,C6,1*%
%TO.N,+3.3V_SW*%
X154025000Y-112425000D03*
%TO.P,C6,2*%
%TO.N,GND*%
X153065000Y-112425000D03*
%TD*%
D27*
%TO.P,U3,1,GND*%
%TO.N,GND*%
X124650000Y-112362500D03*
%TO.P,U3,2,VO*%
%TO.N,+3.3V*%
X122750000Y-112362500D03*
%TO.P,U3,3,VI*%
%TO.N,USB_VBUS*%
X123700000Y-114637500D03*
%TD*%
D21*
%TO.P,C4,1*%
%TO.N,+3.3V*%
X125085000Y-110300000D03*
%TO.P,C4,2*%
%TO.N,GND*%
X124125000Y-110300000D03*
%TD*%
D20*
%TO.P,R8,1*%
%TO.N,ESP_LED*%
X146990000Y-104025000D03*
%TO.P,R8,2*%
%TO.N,Net-(D1-A)*%
X148010000Y-104025000D03*
%TD*%
D28*
%TO.P,Y1,1,1*%
%TO.N,Net-(IC1-XTB)*%
X152200000Y-105900000D03*
%TO.P,Y1,2,2*%
%TO.N,GND*%
X153650000Y-105900000D03*
%TO.P,Y1,3,3*%
%TO.N,Net-(IC1-XTA)*%
X153650000Y-104750000D03*
%TO.P,Y1,4,4*%
%TO.N,GND*%
X152200000Y-104750000D03*
%TD*%
D29*
%TO.P,U1,1,IOVDD*%
%TO.N,+3.3V*%
X127100000Y-113987500D03*
%TO.P,U1,2,GPIO0*%
%TO.N,unconnected-(U1-GPIO0-Pad2)*%
X127500000Y-113987500D03*
%TO.P,U1,3,GPIO1*%
%TO.N,unconnected-(U1-GPIO1-Pad3)*%
X127900000Y-113987500D03*
%TO.P,U1,4,GPIO2*%
%TO.N,unconnected-(U1-GPIO2-Pad4)*%
X128300000Y-113987500D03*
%TO.P,U1,5,GPIO3*%
%TO.N,unconnected-(U1-GPIO3-Pad5)*%
X128700000Y-113987500D03*
%TO.P,U1,6,GPIO4*%
%TO.N,Net-(U1-GPIO4)*%
X129100000Y-113987500D03*
%TO.P,U1,7,GPIO5*%
%TO.N,Net-(U1-GPIO5)*%
X129500000Y-113987500D03*
%TO.P,U1,8,GPIO6*%
%TO.N,unconnected-(U1-GPIO6-Pad8)*%
X129900000Y-113987500D03*
%TO.P,U1,9,GPIO7*%
%TO.N,unconnected-(U1-GPIO7-Pad9)*%
X130300000Y-113987500D03*
%TO.P,U1,10,IOVDD*%
%TO.N,+3.3V*%
X130700000Y-113987500D03*
%TO.P,U1,11,GPIO8*%
%TO.N,unconnected-(U1-GPIO8-Pad11)*%
X131100000Y-113987500D03*
%TO.P,U1,12,GPIO9*%
%TO.N,unconnected-(U1-GPIO9-Pad12)*%
X131500000Y-113987500D03*
%TO.P,U1,13,GPIO10*%
%TO.N,unconnected-(U1-GPIO10-Pad13)*%
X131900000Y-113987500D03*
%TO.P,U1,14,GPIO11*%
%TO.N,unconnected-(U1-GPIO11-Pad14)*%
X132300000Y-113987500D03*
D30*
%TO.P,U1,15,GPIO12*%
%TO.N,unconnected-(U1-GPIO12-Pad15)*%
X133137500Y-113150000D03*
%TO.P,U1,16,GPIO13*%
%TO.N,unconnected-(U1-GPIO13-Pad16)*%
X133137500Y-112750000D03*
%TO.P,U1,17,GPIO14*%
%TO.N,unconnected-(U1-GPIO14-Pad17)*%
X133137500Y-112350000D03*
%TO.P,U1,18,GPIO15*%
%TO.N,unconnected-(U1-GPIO15-Pad18)*%
X133137500Y-111950000D03*
%TO.P,U1,19,TESTEN*%
%TO.N,GND*%
X133137500Y-111550000D03*
%TO.P,U1,20,XIN*%
%TO.N,Net-(U1-XIN)*%
X133137500Y-111150000D03*
%TO.P,U1,21,XOUT*%
%TO.N,unconnected-(U1-XOUT-Pad21)*%
X133137500Y-110750000D03*
%TO.P,U1,22,IOVDD*%
%TO.N,+3.3V*%
X133137500Y-110350000D03*
%TO.P,U1,23,DVDD*%
%TO.N,GND*%
X133137500Y-109950000D03*
%TO.P,U1,24,SWCLK*%
%TO.N,unconnected-(U1-SWCLK-Pad24)*%
X133137500Y-109550000D03*
%TO.P,U1,25,SWD*%
%TO.N,unconnected-(U1-SWD-Pad25)*%
X133137500Y-109150000D03*
%TO.P,U1,26,RUN*%
%TO.N,unconnected-(U1-RUN-Pad26)*%
X133137500Y-108750000D03*
%TO.P,U1,27,GPIO16*%
%TO.N,unconnected-(U1-GPIO16-Pad27)*%
X133137500Y-108350000D03*
%TO.P,U1,28,GPIO17*%
%TO.N,unconnected-(U1-GPIO17-Pad28)*%
X133137500Y-107950000D03*
D29*
%TO.P,U1,29,GPIO18*%
%TO.N,unconnected-(U1-GPIO18-Pad29)*%
X132300000Y-107112500D03*
%TO.P,U1,30,GPIO19*%
%TO.N,unconnected-(U1-GPIO19-Pad30)*%
X131900000Y-107112500D03*
%TO.P,U1,31,GPIO20*%
%TO.N,unconnected-(U1-GPIO20-Pad31)*%
X131500000Y-107112500D03*
%TO.P,U1,32,GPIO21*%
%TO.N,unconnected-(U1-GPIO21-Pad32)*%
X131100000Y-107112500D03*
%TO.P,U1,33,IOVDD*%
%TO.N,+3.3V*%
X130700000Y-107112500D03*
%TO.P,U1,34,GPIO22*%
%TO.N,unconnected-(U1-GPIO22-Pad34)*%
X130300000Y-107112500D03*
%TO.P,U1,35,GPIO23*%
%TO.N,unconnected-(U1-GPIO23-Pad35)*%
X129900000Y-107112500D03*
%TO.P,U1,36,GPIO24*%
%TO.N,unconnected-(U1-GPIO24-Pad36)*%
X129500000Y-107112500D03*
%TO.P,U1,37,GPIO25*%
%TO.N,RP2040_LED*%
X129100000Y-107112500D03*
%TO.P,U1,38,GPIO26_ADC0*%
%TO.N,unconnected-(U1-GPIO26_ADC0-Pad38)*%
X128700000Y-107112500D03*
%TO.P,U1,39,GPIO27_ADC1*%
%TO.N,unconnected-(U1-GPIO27_ADC1-Pad39)*%
X128300000Y-107112500D03*
%TO.P,U1,40,GPIO28_ADC2*%
%TO.N,unconnected-(U1-GPIO28_ADC2-Pad40)*%
X127900000Y-107112500D03*
%TO.P,U1,41,GPIO29_ADC3*%
%TO.N,unconnected-(U1-GPIO29_ADC3-Pad41)*%
X127500000Y-107112500D03*
%TO.P,U1,42,IOVDD*%
%TO.N,+3.3V*%
X127100000Y-107112500D03*
D30*
%TO.P,U1,43,ADC_AVDD*%
X126262500Y-107950000D03*
%TO.P,U1,44,VREG_IN*%
X126262500Y-108350000D03*
%TO.P,U1,45,VREG_VOUT*%
%TO.N,unconnected-(U1-VREG_VOUT-Pad45)*%
X126262500Y-108750000D03*
%TO.P,U1,46,USB_DM*%
%TO.N,USB_DN*%
X126262500Y-109150000D03*
%TO.P,U1,47,USB_DP*%
%TO.N,USB_DP*%
X126262500Y-109550000D03*
%TO.P,U1,48,USB_VDD*%
%TO.N,+3.3V*%
X126262500Y-109950000D03*
%TO.P,U1,49,IOVDD*%
X126262500Y-110350000D03*
%TO.P,U1,50,DVDD*%
%TO.N,GND*%
X126262500Y-110750000D03*
%TO.P,U1,51,QSPI_SD3*%
%TO.N,QSPI_SD3*%
X126262500Y-111150000D03*
%TO.P,U1,52,QSPI_SCLK*%
%TO.N,QSPI_SCLK*%
X126262500Y-111550000D03*
%TO.P,U1,53,QSPI_SD0*%
%TO.N,QSPI_SD0*%
X126262500Y-111950000D03*
%TO.P,U1,54,QSPI_SD2*%
%TO.N,QSPI_SD2*%
X126262500Y-112350000D03*
%TO.P,U1,55,QSPI_SD1*%
%TO.N,QSPI_SD1*%
X126262500Y-112750000D03*
%TO.P,U1,56,QSPI_SS*%
%TO.N,QSPI_SS*%
X126262500Y-113150000D03*
D31*
%TO.P,U1,57,GND*%
%TO.N,GND*%
X129700000Y-110550000D03*
%TD*%
D21*
%TO.P,C2,1*%
%TO.N,+3.3V*%
X125080000Y-108300000D03*
%TO.P,C2,2*%
%TO.N,GND*%
X124120000Y-108300000D03*
%TD*%
D32*
%TO.P,J1,1,Pin_1*%
%TO.N,USB_VBUS*%
X116500000Y-112525000D03*
D33*
%TO.P,J1,2,Pin_2*%
%TO.N,USB_DN*%
X117000000Y-110075000D03*
%TO.P,J1,3,Pin_3*%
%TO.N,USB_DP*%
X117000000Y-108025000D03*
D32*
%TO.P,J1,4,Pin_4*%
%TO.N,GND*%
X116500000Y-105575000D03*
%TD*%
D34*
%TO.P,JP1,1,A*%
%TO.N,USB_VBUS*%
X140225000Y-103700000D03*
D35*
%TO.P,JP1,2,B*%
%TO.N,SW_EN*%
X138775000Y-103700000D03*
%TD*%
D36*
%TO.P,C9,1*%
%TO.N,IRS*%
X151125000Y-110725000D03*
%TO.P,C9,2*%
%TO.N,GND*%
X151125000Y-111685000D03*
%TD*%
D20*
%TO.P,R4,1*%
%TO.N,Net-(U1-GPIO4)*%
X132590000Y-115200000D03*
%TO.P,R4,2*%
%TO.N,RP2040_TX*%
X133610000Y-115200000D03*
%TD*%
D21*
%TO.P,C16,1*%
%TO.N,+3.3V*%
X125080000Y-107300000D03*
%TO.P,C16,2*%
%TO.N,GND*%
X124120000Y-107300000D03*
%TD*%
D37*
%TO.P,SW2,1,A*%
%TO.N,GND*%
X126300000Y-103700000D03*
%TO.P,SW2,2,B*%
%TO.N,Net-(SW2-B)*%
X129700000Y-103700000D03*
%TD*%
D20*
%TO.P,R5,1*%
%TO.N,GND*%
X142215000Y-111225000D03*
%TO.P,R5,2*%
%TO.N,Net-(IC2-RES12K)*%
X143235000Y-111225000D03*
%TD*%
D38*
%TO.P,U2,1,~{CS}*%
%TO.N,QSPI_SS*%
X136800000Y-107550000D03*
%TO.P,U2,2,DO(IO1)*%
%TO.N,QSPI_SD1*%
X136300000Y-107550000D03*
%TO.P,U2,3,IO2*%
%TO.N,QSPI_SD2*%
X135800000Y-107550000D03*
%TO.P,U2,4,GND*%
%TO.N,GND*%
X135300000Y-107550000D03*
%TO.P,U2,5,DI(IO0)*%
%TO.N,QSPI_SD0*%
X135300000Y-110400000D03*
%TO.P,U2,6,CLK*%
%TO.N,QSPI_SCLK*%
X135800000Y-110400000D03*
%TO.P,U2,7,IO3*%
%TO.N,QSPI_SD3*%
X136300000Y-110400000D03*
%TO.P,U2,8,VCC*%
%TO.N,+3.3V*%
X136800000Y-110400000D03*
D39*
%TO.P,U2,9*%
%TO.N,N/C*%
X136050000Y-108975000D03*
%TD*%
D40*
%TO.P,C15,1*%
%TO.N,+3.3V*%
X134300000Y-109680000D03*
%TO.P,C15,2*%
%TO.N,GND*%
X134300000Y-108720000D03*
%TD*%
D36*
%TO.P,C7,1*%
%TO.N,GND*%
X155425000Y-105045000D03*
%TO.P,C7,2*%
%TO.N,IRS*%
X155425000Y-106005000D03*
%TD*%
D19*
%TO.P,D1,1,K*%
%TO.N,GND*%
X147312500Y-102800000D03*
%TO.P,D1,2,A*%
%TO.N,Net-(D1-A)*%
X148887500Y-102800000D03*
%TD*%
D20*
%TO.P,R1,1*%
%TO.N,Net-(IC2-CHIP_EN)*%
X148515000Y-112225000D03*
%TO.P,R1,2*%
%TO.N,+3.3V_SW*%
X149535000Y-112225000D03*
%TD*%
%TO.P,R3,1*%
%TO.N,Net-(U1-GPIO5)*%
X134500000Y-115200000D03*
%TO.P,R3,2*%
%TO.N,RP2040_RX*%
X135520000Y-115200000D03*
%TD*%
D21*
%TO.P,C17,1*%
%TO.N,+3.3V*%
X127060000Y-105900000D03*
%TO.P,C17,2*%
%TO.N,GND*%
X126100000Y-105900000D03*
%TD*%
D22*
%TO.P,C11,1*%
%TO.N,+3.3V_SW*%
X148945000Y-105025000D03*
%TO.P,C11,2*%
%TO.N,GND*%
X149905000Y-105025000D03*
%TD*%
D41*
%TO.P,J2,1,Pin_1*%
%TO.N,GND*%
X139100000Y-106900000D03*
D42*
%TO.P,J2,2,Pin_2*%
%TO.N,USB_VBUS*%
X139100000Y-109440000D03*
%TO.P,J2,3,Pin_3*%
%TO.N,RP2040_RX*%
X139100000Y-111980000D03*
%TO.P,J2,4,Pin_4*%
%TO.N,RP2040_TX*%
X139100000Y-114520000D03*
%TD*%
D36*
%TO.P,C8,1*%
%TO.N,GND*%
X156525000Y-105045000D03*
%TO.P,C8,2*%
%TO.N,Net-(IC1-VR_PA)*%
X156525000Y-106005000D03*
%TD*%
D43*
%TO.P,J3,1,Pin_1*%
%TO.N,unconnected-(J3-Pin_1-Pad1)*%
X169000000Y-105500000D03*
D44*
%TO.P,J3,2,Pin_2*%
%TO.N,unconnected-(J3-Pin_2-Pad2)*%
X168500000Y-107950000D03*
%TO.P,J3,3,Pin_3*%
%TO.N,unconnected-(J3-Pin_3-Pad3)*%
X168500000Y-110000000D03*
D43*
%TO.P,J3,4,Pin_4*%
%TO.N,unconnected-(J3-Pin_4-Pad4)*%
X169000000Y-112450000D03*
%TD*%
D37*
%TO.P,SW1,1,A*%
%TO.N,ESP_BOOT*%
X145800000Y-103700000D03*
%TO.P,SW1,2,B*%
%TO.N,GND*%
X142400000Y-103700000D03*
%TD*%
D45*
%TO.P,R2,1*%
%TO.N,NSS*%
X150725000Y-108325000D03*
%TO.P,R2,2*%
%TO.N,GND*%
X150725000Y-107305000D03*
%TD*%
D46*
%TO.P,IC2,1,VDDA_1*%
%TO.N,+3.3V_SW*%
X145075000Y-111125000D03*
%TO.P,IC2,2,LNA*%
%TO.N,LNA*%
X145575000Y-111125000D03*
%TO.P,IC2,3,VDD3P3_1*%
%TO.N,+3.3V_SW*%
X146075000Y-111125000D03*
%TO.P,IC2,4,VDD3P3_2*%
X146575000Y-111125000D03*
%TO.P,IC2,5,VDD_RTC*%
%TO.N,unconnected-(IC2-VDD_RTC-Pad5)*%
X147075000Y-111125000D03*
%TO.P,IC2,6,TOUT*%
%TO.N,unconnected-(IC2-TOUT-Pad6)*%
X147575000Y-111125000D03*
%TO.P,IC2,7,CHIP_EN*%
%TO.N,Net-(IC2-CHIP_EN)*%
X148075000Y-111125000D03*
%TO.P,IC2,8,XDP_DCDC*%
%TO.N,ESP_LED*%
X148575000Y-111125000D03*
D47*
%TO.P,IC2,9,MTMS*%
%TO.N,ESP_SCK*%
X149325000Y-110375000D03*
%TO.P,IC2,10,MTDI*%
%TO.N,ESP_MISO*%
X149325000Y-109875000D03*
%TO.P,IC2,11,VDDPST_1*%
%TO.N,+3.3V_SW*%
X149325000Y-109375000D03*
%TO.P,IC2,12,MTCK*%
%TO.N,ESP_MOSI*%
X149325000Y-108875000D03*
%TO.P,IC2,13,MTDO*%
%TO.N,NSS*%
X149325000Y-108375000D03*
%TO.P,IC2,14,GPIO2*%
%TO.N,NRST*%
X149325000Y-107875000D03*
%TO.P,IC2,15,GPIO0*%
%TO.N,ESP_BOOT*%
X149325000Y-107375000D03*
%TO.P,IC2,16,GPIO4*%
%TO.N,DIO_1*%
X149325000Y-106875000D03*
D46*
%TO.P,IC2,17,VDDPST_2*%
%TO.N,+3.3V_SW*%
X148575000Y-106125000D03*
%TO.P,IC2,18,SD_DATA_2*%
%TO.N,unconnected-(IC2-SD_DATA_2-Pad18)*%
X148075000Y-106125000D03*
%TO.P,IC2,19,SD_DATA_3*%
%TO.N,unconnected-(IC2-SD_DATA_3-Pad19)*%
X147575000Y-106125000D03*
%TO.P,IC2,20,SD_CMD*%
%TO.N,unconnected-(IC2-SD_CMD-Pad20)*%
X147075000Y-106125000D03*
%TO.P,IC2,21,SD_CLK*%
%TO.N,unconnected-(IC2-SD_CLK-Pad21)*%
X146575000Y-106125000D03*
%TO.P,IC2,22,SD_DATA_0*%
%TO.N,unconnected-(IC2-SD_DATA_0-Pad22)*%
X146075000Y-106125000D03*
%TO.P,IC2,23,SD_DATA_1*%
%TO.N,unconnected-(IC2-SD_DATA_1-Pad23)*%
X145575000Y-106125000D03*
%TO.P,IC2,24,GPIO5*%
%TO.N,BUSY*%
X145075000Y-106125000D03*
D47*
%TO.P,IC2,25,U0RXD*%
%TO.N,ESP_RX*%
X144325000Y-106875000D03*
%TO.P,IC2,26,U0TXD*%
%TO.N,ESP_TX*%
X144325000Y-107375000D03*
%TO.P,IC2,27,XTAL_OUT*%
%TO.N,unconnected-(IC2-XTAL_OUT-Pad27)*%
X144325000Y-107875000D03*
%TO.P,IC2,28,XTAL_IN*%
%TO.N,Net-(IC2-XTAL_IN)*%
X144325000Y-108375000D03*
%TO.P,IC2,29,VDDD*%
%TO.N,+3.3V_SW*%
X144325000Y-108875000D03*
%TO.P,IC2,30,VDDA_2*%
X144325000Y-109375000D03*
%TO.P,IC2,31,RES12K*%
%TO.N,Net-(IC2-RES12K)*%
X144325000Y-109875000D03*
%TO.P,IC2,32,EXT_RSTB*%
%TO.N,Net-(IC2-EXT_RSTB)*%
X144325000Y-110375000D03*
D48*
%TO.P,IC2,33,EP*%
%TO.N,GND*%
X146825000Y-108625000D03*
%TD*%
D49*
%TO.P,L1,1,ANT*%
%TO.N,Net-(ANT1-OUT_(TO_ANTENNA))*%
X161500000Y-111540000D03*
%TO.P,L1,2,2*%
%TO.N,unconnected-(L1-Pad2)*%
X161500000Y-106460000D03*
%TD*%
D21*
%TO.P,C3,1*%
%TO.N,+3.3V*%
X130600000Y-105900000D03*
%TO.P,C3,2*%
%TO.N,GND*%
X129640000Y-105900000D03*
%TD*%
D16*
%TO.P,R9,1*%
%TO.N,RP2040_LED*%
X132510000Y-104900000D03*
%TO.P,R9,2*%
%TO.N,Net-(D2-A)*%
X131490000Y-104900000D03*
%TD*%
D50*
%TO.N,+3.3V*%
X140400000Y-110200000D03*
%TO.N,GND*%
X146825000Y-108625000D03*
X129700000Y-110500000D03*
X135000000Y-111500000D03*
X154325000Y-109325000D03*
%TO.N,+3.3V*%
X127600000Y-115200000D03*
X130300000Y-115200000D03*
X130700000Y-107975000D03*
X134700000Y-102900000D03*
X137000000Y-112300000D03*
X127600000Y-105900000D03*
X123700000Y-113400000D03*
X133935903Y-110110460D03*
%TO.N,IRS*%
X156025000Y-106625000D03*
X152325000Y-111225000D03*
%TO.N,BUSY*%
X150725000Y-106525000D03*
X145125000Y-105425000D03*
%TO.N,NRST*%
X150025000Y-107925000D03*
X154725000Y-104825000D03*
%TO.N,ESP_SCK*%
X154725000Y-112925003D03*
X149325000Y-110925000D03*
%TO.N,ESP_MOSI*%
X155325000Y-112325000D03*
X150025000Y-108925000D03*
%TO.N,ESP_MISO*%
X154725000Y-112325000D03*
X150025000Y-109925000D03*
%TO.N,DIO_1*%
X149325000Y-106425000D03*
X151525000Y-108525000D03*
%TO.N,NSS*%
X156725000Y-111025000D03*
X151525000Y-107925000D03*
%TO.N,ESP_LED*%
X144200000Y-103700000D03*
X149325000Y-111525000D03*
%TO.N,ESP_RX*%
X143100000Y-106600000D03*
X133000000Y-103700000D03*
%TO.N,ESP_TX*%
X143100000Y-107200000D03*
X137000000Y-106300000D03*
%TO.N,ESP_BOOT*%
X146200000Y-105300000D03*
X150025000Y-107325000D03*
%TO.N,USB_DN*%
X117000000Y-110075000D03*
X127100000Y-108900000D03*
%TO.N,USB_DP*%
X127100000Y-108300000D03*
X117000000Y-108025000D03*
%TO.N,USB_VBUS*%
X116500000Y-112525000D03*
X135500000Y-104200000D03*
X124600000Y-114600000D03*
%TO.N,RP2040_RX*%
X136300000Y-106300000D03*
%TO.N,RP2040_TX*%
X133300000Y-104700000D03*
X133400003Y-114500000D03*
%TO.N,SW_EN*%
X134200000Y-106300000D03*
X138800000Y-105100000D03*
%TO.N,RP2040_LED*%
X129100000Y-108000000D03*
X133300000Y-105500000D03*
%TO.N,QSPI_SS*%
X125500000Y-113400000D03*
X136900247Y-108300000D03*
%TO.N,QSPI_SD2*%
X125500000Y-112400000D03*
X135700241Y-108300000D03*
%TO.N,QSPI_SD3*%
X127200000Y-111000000D03*
X136400003Y-109700000D03*
%TO.N,QSPI_SD1*%
X136300244Y-108300000D03*
X127200000Y-113000000D03*
%TO.N,QSPI_SD0*%
X135200000Y-109700000D03*
X127200000Y-112000000D03*
%TO.N,QSPI_SCLK*%
X135800000Y-109700000D03*
X125499381Y-111400341D03*
%TO.N,+3.3V_SW*%
X146625000Y-112825000D03*
X150225000Y-112225000D03*
X149525000Y-104025000D03*
X144325000Y-109125000D03*
X134000000Y-102900000D03*
X150625003Y-109925000D03*
%TO.N,Net-(U1-GPIO5)*%
X133100000Y-113900000D03*
X129700000Y-114900000D03*
%TO.N,Net-(U1-GPIO4)*%
X132800000Y-114500000D03*
X128900000Y-114900000D03*
%TO.N,+3.3V_SW*%
X144700000Y-111125000D03*
%TD*%
D51*
%TO.N,+3.3V*%
X140675000Y-109925000D02*
X140400000Y-110200000D01*
X141825000Y-109925000D02*
X140675000Y-109925000D01*
%TO.N,Net-(IC2-XTAL_IN)*%
X143675000Y-108175000D02*
X143875000Y-108375000D01*
X142100001Y-107725000D02*
X143500000Y-107725000D01*
X141825000Y-108000001D02*
X142100001Y-107725000D01*
X143500000Y-107725000D02*
X143675000Y-107900000D01*
X143675000Y-107900000D02*
X143675000Y-108175000D01*
X141825000Y-108475000D02*
X141825000Y-108000001D01*
X143875000Y-108375000D02*
X144325000Y-108375000D01*
%TO.N,Net-(IC2-RES12K)*%
X143850000Y-109875000D02*
X144325000Y-109875000D01*
X143675000Y-111025000D02*
X143675000Y-110050000D01*
X143475000Y-111225000D02*
X143675000Y-111025000D01*
X143235000Y-111225000D02*
X143475000Y-111225000D01*
X143675000Y-110050000D02*
X143850000Y-109875000D01*
%TO.N,Net-(IC2-EXT_RSTB)*%
X144115000Y-110585000D02*
X144115000Y-112225000D01*
X144325000Y-110375000D02*
X144115000Y-110585000D01*
%TO.N,+3.3V_SW*%
X145075000Y-111125000D02*
X144700000Y-111125000D01*
%TO.N,+3.3V*%
X137000000Y-113624999D02*
X137000000Y-112300000D01*
X136624999Y-114000000D02*
X137000000Y-113624999D01*
X136150000Y-114000000D02*
X136624999Y-114000000D01*
%TO.N,Net-(U1-XIN)*%
X133900000Y-113674999D02*
X133900000Y-111449350D01*
X133600650Y-111150000D02*
X133137500Y-111150000D01*
X134700000Y-114000000D02*
X134225001Y-114000000D01*
X134225001Y-114000000D02*
X133900000Y-113674999D01*
X133900000Y-111449350D02*
X133600650Y-111150000D01*
%TO.N,GND*%
X135100000Y-111600000D02*
X135000000Y-111500000D01*
X129700000Y-110550000D02*
X129700000Y-110500000D01*
X135840000Y-111600000D02*
X135100000Y-111600000D01*
%TO.N,Net-(ANT1-IN_(TO_RFIC))*%
X156275000Y-109075000D02*
X157737000Y-109075000D01*
X157737000Y-109075000D02*
X157787000Y-109025000D01*
%TO.N,+3.3V*%
X126262500Y-108350000D02*
X125130000Y-108350000D01*
X123417658Y-112362500D02*
X125085000Y-110695158D01*
X136800000Y-111600000D02*
X136800000Y-112100000D01*
X130700000Y-107975000D02*
X130700000Y-106000000D01*
X125135000Y-110350000D02*
X125085000Y-110300000D01*
X125085000Y-110300000D02*
X125085000Y-108305000D01*
X125080000Y-108300000D02*
X125080000Y-107300000D01*
X125730000Y-109950000D02*
X125080000Y-109300000D01*
X126262500Y-107950000D02*
X125730000Y-107950000D01*
X133137500Y-110350000D02*
X133696363Y-110350000D01*
X133696363Y-110350000D02*
X133935903Y-110110460D01*
X125085000Y-110300000D02*
X125085000Y-109305000D01*
X134300000Y-109746363D02*
X133935903Y-110110460D01*
X130740000Y-115200000D02*
X130300000Y-115200000D01*
X125130000Y-108350000D02*
X125080000Y-108300000D01*
X127100000Y-113987500D02*
X127100000Y-115100000D01*
X127100000Y-115100000D02*
X127000000Y-115200000D01*
X125085000Y-109305000D02*
X125080000Y-109300000D01*
X127100000Y-107112500D02*
X127100000Y-105940000D01*
X136800000Y-111600000D02*
X136800000Y-110400000D01*
X122750000Y-112450000D02*
X123700000Y-113400000D01*
X134300000Y-109680000D02*
X134300000Y-109746363D01*
X127100000Y-105940000D02*
X127060000Y-105900000D01*
X127000000Y-115200000D02*
X127600000Y-115200000D01*
X126262500Y-109950000D02*
X125730000Y-109950000D01*
X135100000Y-102900000D02*
X134700000Y-102900000D01*
X125730000Y-107950000D02*
X125080000Y-107300000D01*
X125085000Y-108305000D02*
X125080000Y-108300000D01*
X122750000Y-112362500D02*
X122750000Y-112450000D01*
X130700000Y-107112500D02*
X130700000Y-106000000D01*
X135250000Y-103050000D02*
X135100000Y-102900000D01*
X125085000Y-110695158D02*
X125085000Y-110300000D01*
X126262500Y-110350000D02*
X125135000Y-110350000D01*
X130700000Y-115160000D02*
X130740000Y-115200000D01*
X130700000Y-113987500D02*
X130700000Y-115160000D01*
X130700000Y-106000000D02*
X130600000Y-105900000D01*
X136800000Y-112100000D02*
X137000000Y-112300000D01*
X122750000Y-112362500D02*
X123417658Y-112362500D01*
X127060000Y-105900000D02*
X127600000Y-105900000D01*
%TO.N,IRS*%
X155075000Y-106800000D02*
X155250000Y-106625000D01*
X155850000Y-106450000D02*
X155425000Y-106450000D01*
X152375000Y-110575000D02*
X151275000Y-110575000D01*
X152375000Y-111175000D02*
X152325000Y-111225000D01*
X155075000Y-107375000D02*
X155075000Y-106800000D01*
X156025000Y-106625000D02*
X155850000Y-106450000D01*
X155425000Y-106005000D02*
X155425000Y-106450000D01*
X151275000Y-110575000D02*
X151125000Y-110725000D01*
X155425000Y-106450000D02*
X155250000Y-106625000D01*
X152375000Y-110575000D02*
X152375000Y-111175000D01*
%TO.N,Net-(IC1-VR_PA)*%
X156525000Y-106925000D02*
X156525000Y-106005000D01*
X155575000Y-107375000D02*
X156075000Y-107375000D01*
X156075000Y-107375000D02*
X156525000Y-106925000D01*
%TO.N,Net-(IC2-EXT_RSTB)*%
X143205000Y-112225000D02*
X144115000Y-112225000D01*
%TO.N,Net-(D1-A)*%
X148010000Y-104025000D02*
X148010000Y-103677500D01*
X148010000Y-103677500D02*
X148887500Y-102800000D01*
%TO.N,Net-(D2-A)*%
X131490000Y-104900000D02*
X131490000Y-104097500D01*
X131490000Y-104097500D02*
X132787500Y-102800000D01*
%TO.N,BUSY*%
X151325000Y-106525000D02*
X152375000Y-107575000D01*
X152375000Y-107575000D02*
X152375000Y-108075000D01*
X150725000Y-106525000D02*
X151325000Y-106525000D01*
X145075000Y-106125000D02*
X145075000Y-105475000D01*
X145075000Y-105475000D02*
X145125000Y-105425000D01*
%TO.N,NRST*%
X154775000Y-106575001D02*
X154575000Y-106775001D01*
X154775000Y-104875000D02*
X154775000Y-106575001D01*
X149325000Y-107875000D02*
X149975000Y-107875000D01*
X154575000Y-106775001D02*
X154575000Y-107375000D01*
X154725000Y-104825000D02*
X154775000Y-104875000D01*
X149975000Y-107875000D02*
X150025000Y-107925000D01*
%TO.N,Net-(IC1-XTA)*%
X153850000Y-104750000D02*
X153650000Y-104750000D01*
X154425000Y-106430026D02*
X154425000Y-105325000D01*
X154075000Y-106780026D02*
X154425000Y-106430026D01*
X154425000Y-105325000D02*
X153850000Y-104750000D01*
X154075000Y-107375000D02*
X154075000Y-106780026D01*
%TO.N,ESP_SCK*%
X149325000Y-110375000D02*
X149325000Y-110925000D01*
X155800000Y-112521752D02*
X155396749Y-112925003D01*
X155396749Y-112925003D02*
X154725000Y-112925003D01*
X155575000Y-111275000D02*
X155800000Y-111500000D01*
X155800000Y-111500000D02*
X155800000Y-112521752D01*
%TO.N,ESP_MOSI*%
X155325000Y-112325000D02*
X155325000Y-112253248D01*
X149325000Y-108875000D02*
X149975000Y-108875000D01*
X155075000Y-112003248D02*
X155075000Y-111275000D01*
X149975000Y-108875000D02*
X150025000Y-108925000D01*
X155325000Y-112253248D02*
X155075000Y-112003248D01*
%TO.N,ESP_MISO*%
X149975000Y-109875000D02*
X150025000Y-109925000D01*
X154575000Y-111275000D02*
X154575000Y-112175000D01*
X154575000Y-112175000D02*
X154725000Y-112325000D01*
X149325000Y-109875000D02*
X149975000Y-109875000D01*
%TO.N,DIO_1*%
X152375000Y-108575000D02*
X151575000Y-108575000D01*
X151575000Y-108575000D02*
X151525000Y-108525000D01*
X149325000Y-106875000D02*
X149325000Y-106425000D01*
%TO.N,Net-(IC1-XTB)*%
X152200000Y-106500000D02*
X153075000Y-107375000D01*
X152200000Y-105900000D02*
X152200000Y-106500000D01*
%TO.N,NSS*%
X151125000Y-107925000D02*
X150725000Y-108325000D01*
X151525000Y-107925000D02*
X151125000Y-107925000D01*
X156725000Y-111025000D02*
X156275000Y-110575000D01*
X150650000Y-108400000D02*
X150725000Y-108325000D01*
X149325000Y-108375000D02*
X149350000Y-108400000D01*
X149350000Y-108400000D02*
X150650000Y-108400000D01*
%TO.N,LNA*%
X145575000Y-111725000D02*
X145825000Y-111975000D01*
X144675000Y-114175000D02*
X143785000Y-114175000D01*
X145825000Y-113025000D02*
X144675000Y-114175000D01*
X145575000Y-111125000D02*
X145575000Y-111725000D01*
X145825000Y-111975000D02*
X145825000Y-113025000D01*
%TO.N,Net-(IC2-CHIP_EN)*%
X148075000Y-111785000D02*
X148515000Y-112225000D01*
X148075000Y-111125000D02*
X148075000Y-111785000D01*
%TO.N,ESP_LED*%
X146200000Y-102400000D02*
X144800000Y-102400000D01*
X146500000Y-102700000D02*
X146200000Y-102400000D01*
X144800000Y-102400000D02*
X144200000Y-103000000D01*
X146990000Y-104025000D02*
X146500000Y-103535000D01*
X148575000Y-111125000D02*
X148575000Y-111275000D01*
X148575000Y-111275000D02*
X148825000Y-111525000D01*
X148825000Y-111525000D02*
X149325000Y-111525000D01*
X144200000Y-103000000D02*
X144200000Y-103700000D01*
X146500000Y-103535000D02*
X146500000Y-102700000D01*
%TO.N,ESP_RX*%
X133400000Y-104100000D02*
X133000000Y-103700000D01*
X143400000Y-106600000D02*
X143100000Y-106600000D01*
X134200000Y-104100000D02*
X133400000Y-104100000D01*
X144325000Y-106875000D02*
X143675000Y-106875000D01*
X143675000Y-106875000D02*
X143400000Y-106600000D01*
%TO.N,ESP_TX*%
X143275000Y-107375000D02*
X143100000Y-107200000D01*
X144325000Y-107375000D02*
X143275000Y-107375000D01*
X137000000Y-106300000D02*
X136800000Y-106100000D01*
X136800000Y-106100000D02*
X136800000Y-105600000D01*
%TO.N,ESP_BOOT*%
X149975000Y-107375000D02*
X150025000Y-107325000D01*
X146475000Y-105025000D02*
X147015000Y-105025000D01*
X149325000Y-107375000D02*
X149975000Y-107375000D01*
X146200000Y-105300000D02*
X146475000Y-105025000D01*
X146200000Y-105300000D02*
X145800000Y-104900000D01*
X145800000Y-104900000D02*
X145800000Y-103700000D01*
%TO.N,USB_DN*%
X126850000Y-109150000D02*
X126262500Y-109150000D01*
X127100000Y-108900000D02*
X126850000Y-109150000D01*
%TO.N,USB_DP*%
X127575000Y-109096752D02*
X127121752Y-109550000D01*
X127575000Y-108703248D02*
X127575000Y-109096752D01*
X127121752Y-109550000D02*
X126262500Y-109550000D01*
X127100000Y-108300000D02*
X127171752Y-108300000D01*
X127171752Y-108300000D02*
X127575000Y-108703248D01*
%TO.N,USB_VBUS*%
X140225000Y-108315000D02*
X140225000Y-103700000D01*
X135750000Y-103050000D02*
X135750000Y-104350000D01*
X139100000Y-109440000D02*
X140225000Y-108315000D01*
X135750000Y-104350000D02*
X135500000Y-104600000D01*
X123700000Y-114637500D02*
X124562500Y-114637500D01*
X140225000Y-102945000D02*
X139930000Y-102650000D01*
X136150000Y-102650000D02*
X135750000Y-103050000D01*
X140225000Y-103700000D02*
X140225000Y-102945000D01*
X124562500Y-114637500D02*
X124600000Y-114600000D01*
X139930000Y-102650000D02*
X136150000Y-102650000D01*
%TO.N,RP2040_RX*%
X139100000Y-112380000D02*
X139100000Y-111980000D01*
X136150000Y-106150000D02*
X135750000Y-106150000D01*
X136300000Y-106300000D02*
X136150000Y-106150000D01*
X135520000Y-115200000D02*
X136280000Y-115200000D01*
X136280000Y-115200000D02*
X139100000Y-112380000D01*
%TO.N,RP2040_TX*%
X133400003Y-114500000D02*
X133400003Y-114990003D01*
X133400003Y-114990003D02*
X133610000Y-115200000D01*
X134100000Y-104700000D02*
X134200000Y-104600000D01*
X133300000Y-104700000D02*
X134100000Y-104700000D01*
%TO.N,SW_EN*%
X138800000Y-105100000D02*
X138800000Y-103725000D01*
X138800000Y-103725000D02*
X138775000Y-103700000D01*
X134200000Y-105600000D02*
X134200000Y-105100000D01*
X138675000Y-103600000D02*
X138775000Y-103700000D01*
X134200000Y-105600000D02*
X134200000Y-106300000D01*
X136800000Y-103600000D02*
X138675000Y-103600000D01*
%TO.N,RP2040_LED*%
X132510000Y-104900000D02*
X132700000Y-104900000D01*
X132700000Y-104900000D02*
X133300000Y-105500000D01*
X129100000Y-107112500D02*
X129100000Y-108000000D01*
%TO.N,Net-(SW2-B)*%
X129700000Y-104000000D02*
X131490000Y-105790000D01*
X131490000Y-105790000D02*
X131490000Y-105900000D01*
X129700000Y-103700000D02*
X129700000Y-104000000D01*
%TO.N,QSPI_SS*%
X125750000Y-113150000D02*
X126262500Y-113150000D01*
X132510000Y-105900000D02*
X133460000Y-106850000D01*
X136800000Y-107156326D02*
X136800000Y-107550000D01*
X136800000Y-108199753D02*
X136800000Y-107550000D01*
X136900247Y-108300000D02*
X136800000Y-108199753D01*
X125500000Y-113400000D02*
X125750000Y-113150000D01*
X133460000Y-106850000D02*
X136493674Y-106850000D01*
X136493674Y-106850000D02*
X136800000Y-107156326D01*
%TO.N,QSPI_SD2*%
X135800000Y-108200241D02*
X135800000Y-107550000D01*
X125550000Y-112350000D02*
X125500000Y-112400000D01*
X135700241Y-108300000D02*
X135800000Y-108200241D01*
X126262500Y-112350000D02*
X125550000Y-112350000D01*
%TO.N,QSPI_SD3*%
X127050000Y-111150000D02*
X126262500Y-111150000D01*
X136300000Y-109800003D02*
X136300000Y-110400000D01*
X136400003Y-109700000D02*
X136300000Y-109800003D01*
X127200000Y-111000000D02*
X127050000Y-111150000D01*
%TO.N,QSPI_SD1*%
X136300244Y-108300000D02*
X136300000Y-108299756D01*
X126950000Y-112750000D02*
X127200000Y-113000000D01*
X126262500Y-112750000D02*
X126950000Y-112750000D01*
X136300000Y-108299756D02*
X136300000Y-107550000D01*
%TO.N,QSPI_SD0*%
X127150000Y-111950000D02*
X126262500Y-111950000D01*
X127200000Y-112000000D02*
X127150000Y-111950000D01*
X135300000Y-109800000D02*
X135300000Y-110400000D01*
X135200000Y-109700000D02*
X135300000Y-109800000D01*
%TO.N,QSPI_SCLK*%
X125649040Y-111550000D02*
X125499381Y-111400341D01*
X135800000Y-109700000D02*
X135800000Y-110400000D01*
X126262500Y-111550000D02*
X125649040Y-111550000D01*
%TO.N,+3.3V_SW*%
X154025000Y-112425000D02*
X154025000Y-111325000D01*
X152375000Y-110075000D02*
X150775003Y-110075000D01*
X144325000Y-109375000D02*
X144325000Y-109125000D01*
X144325000Y-108875000D02*
X144325000Y-109375000D01*
X146645000Y-112225000D02*
X146645000Y-112805000D01*
X145075000Y-112165000D02*
X145135000Y-112225000D01*
X134200000Y-103100000D02*
X134200000Y-103600000D01*
X154025000Y-111325000D02*
X154075000Y-111275000D01*
X134000000Y-102900000D02*
X134200000Y-103100000D01*
X150775003Y-110075000D02*
X150625003Y-109925000D01*
X150206021Y-109400000D02*
X150625003Y-109818982D01*
X146075000Y-111655000D02*
X146075000Y-111125000D01*
X149325000Y-109375000D02*
X149350000Y-109400000D01*
X148035000Y-105025000D02*
X148945000Y-105025000D01*
X146575000Y-111125000D02*
X146075000Y-111125000D01*
X148945000Y-105025000D02*
X149525000Y-104445000D01*
X145075000Y-111125000D02*
X145075000Y-112165000D01*
X146645000Y-112225000D02*
X146075000Y-111655000D01*
X148575000Y-106125000D02*
X148575000Y-105395000D01*
X149525000Y-104445000D02*
X149525000Y-104025000D01*
X146645000Y-112805000D02*
X146625000Y-112825000D01*
X148575000Y-105395000D02*
X148945000Y-105025000D01*
X150985000Y-112985000D02*
X150225000Y-112225000D01*
X153465000Y-112985000D02*
X150985000Y-112985000D01*
X150625003Y-109818982D02*
X150625003Y-109925000D01*
X149350000Y-109400000D02*
X150206021Y-109400000D01*
X149535000Y-112225000D02*
X150225000Y-112225000D01*
X154025000Y-112425000D02*
X153465000Y-112985000D01*
%TO.N,Net-(U1-GPIO5)*%
X129500000Y-113987500D02*
X129500000Y-114700000D01*
X133875003Y-114303248D02*
X133471755Y-113900000D01*
X133471755Y-113900000D02*
X133100000Y-113900000D01*
X129500000Y-114700000D02*
X129700000Y-114900000D01*
X134500000Y-115200000D02*
X133875003Y-114575003D01*
X133875003Y-114575003D02*
X133875003Y-114303248D01*
%TO.N,Net-(U1-GPIO4)*%
X132800000Y-114990000D02*
X132590000Y-115200000D01*
X129100000Y-113987500D02*
X129100000Y-114700000D01*
X132800000Y-114500000D02*
X132800000Y-114990000D01*
X129100000Y-114700000D02*
X128900000Y-114900000D01*
%TD*%
%TA.AperFunction,Conductor*%
%TO.N,GND*%
G36*
X148352219Y-106657373D02*
G01*
X148366278Y-106666767D01*
X148410180Y-106675500D01*
X148725500Y-106675500D01*
X148760148Y-106689852D01*
X148774500Y-106724500D01*
X148774500Y-107039823D01*
X148783232Y-107083720D01*
X148792625Y-107097780D01*
X148799939Y-107134562D01*
X148792625Y-107152220D01*
X148783232Y-107166279D01*
X148774500Y-107210176D01*
X148774500Y-107539823D01*
X148783232Y-107583720D01*
X148792625Y-107597780D01*
X148799939Y-107634562D01*
X148792625Y-107652220D01*
X148783232Y-107666279D01*
X148774500Y-107710176D01*
X148774500Y-108039823D01*
X148783232Y-108083720D01*
X148792625Y-108097780D01*
X148799939Y-108134562D01*
X148792625Y-108152220D01*
X148783232Y-108166279D01*
X148774500Y-108210176D01*
X148774500Y-108539823D01*
X148783232Y-108583720D01*
X148792625Y-108597780D01*
X148799939Y-108634562D01*
X148792625Y-108652220D01*
X148783232Y-108666279D01*
X148774500Y-108710176D01*
X148774500Y-109039823D01*
X148783232Y-109083720D01*
X148792625Y-109097780D01*
X148799939Y-109134562D01*
X148792625Y-109152220D01*
X148783232Y-109166279D01*
X148774500Y-109210176D01*
X148774500Y-109539823D01*
X148783232Y-109583720D01*
X148792625Y-109597780D01*
X148799939Y-109634562D01*
X148792625Y-109652220D01*
X148783232Y-109666279D01*
X148774500Y-109710176D01*
X148774500Y-110039823D01*
X148783232Y-110083720D01*
X148792625Y-110097780D01*
X148799939Y-110134562D01*
X148792625Y-110152220D01*
X148783232Y-110166279D01*
X148774500Y-110210176D01*
X148774500Y-110525500D01*
X148760148Y-110560148D01*
X148725500Y-110574500D01*
X148410176Y-110574500D01*
X148366279Y-110583232D01*
X148352220Y-110592625D01*
X148315438Y-110599939D01*
X148297780Y-110592625D01*
X148286962Y-110585398D01*
X148283722Y-110583233D01*
X148283721Y-110583232D01*
X148283720Y-110583232D01*
X148239823Y-110574500D01*
X148239820Y-110574500D01*
X147910180Y-110574500D01*
X147910176Y-110574500D01*
X147866279Y-110583232D01*
X147852220Y-110592625D01*
X147815438Y-110599939D01*
X147797780Y-110592625D01*
X147786962Y-110585398D01*
X147783722Y-110583233D01*
X147783721Y-110583232D01*
X147783720Y-110583232D01*
X147739823Y-110574500D01*
X147739820Y-110574500D01*
X147410180Y-110574500D01*
X147410176Y-110574500D01*
X147366279Y-110583232D01*
X147352220Y-110592625D01*
X147315438Y-110599939D01*
X147297780Y-110592625D01*
X147286962Y-110585398D01*
X147283722Y-110583233D01*
X147283721Y-110583232D01*
X147283720Y-110583232D01*
X147239823Y-110574500D01*
X147239820Y-110574500D01*
X146910180Y-110574500D01*
X146910176Y-110574500D01*
X146866279Y-110583232D01*
X146852220Y-110592625D01*
X146815438Y-110599939D01*
X146797780Y-110592625D01*
X146786962Y-110585398D01*
X146783722Y-110583233D01*
X146783721Y-110583232D01*
X146783720Y-110583232D01*
X146739823Y-110574500D01*
X146739820Y-110574500D01*
X146410180Y-110574500D01*
X146410176Y-110574500D01*
X146366279Y-110583232D01*
X146352220Y-110592625D01*
X146315438Y-110599939D01*
X146297780Y-110592625D01*
X146286962Y-110585398D01*
X146283722Y-110583233D01*
X146283721Y-110583232D01*
X146283720Y-110583232D01*
X146239823Y-110574500D01*
X146239820Y-110574500D01*
X145910180Y-110574500D01*
X145910176Y-110574500D01*
X145866279Y-110583232D01*
X145852220Y-110592625D01*
X145815438Y-110599939D01*
X145797780Y-110592625D01*
X145786962Y-110585398D01*
X145783722Y-110583233D01*
X145783721Y-110583232D01*
X145783720Y-110583232D01*
X145739823Y-110574500D01*
X145739820Y-110574500D01*
X145410180Y-110574500D01*
X145410176Y-110574500D01*
X145366279Y-110583232D01*
X145352220Y-110592625D01*
X145315438Y-110599939D01*
X145297780Y-110592625D01*
X145286962Y-110585398D01*
X145283722Y-110583233D01*
X145283721Y-110583232D01*
X145283720Y-110583232D01*
X145239823Y-110574500D01*
X145239820Y-110574500D01*
X144924500Y-110574500D01*
X144889852Y-110560148D01*
X144875500Y-110525500D01*
X144875500Y-110210180D01*
X144875499Y-110210176D01*
X144871622Y-110190685D01*
X144866767Y-110166278D01*
X144857374Y-110152220D01*
X144850058Y-110115441D01*
X144857373Y-110097780D01*
X144866767Y-110083722D01*
X144875500Y-110039820D01*
X144875500Y-109710180D01*
X144866767Y-109666278D01*
X144857374Y-109652220D01*
X144850058Y-109615441D01*
X144857373Y-109597780D01*
X144866767Y-109583722D01*
X144875500Y-109539820D01*
X144875500Y-109210180D01*
X144866767Y-109166278D01*
X144857374Y-109152220D01*
X144850058Y-109115441D01*
X144857373Y-109097780D01*
X144866767Y-109083722D01*
X144875500Y-109039820D01*
X144875500Y-108710180D01*
X144866767Y-108666278D01*
X144857374Y-108652220D01*
X144850058Y-108615441D01*
X144857373Y-108597780D01*
X144866767Y-108583722D01*
X144875500Y-108539820D01*
X144875500Y-108210180D01*
X144866767Y-108166278D01*
X144857374Y-108152220D01*
X144850058Y-108115441D01*
X144857373Y-108097780D01*
X144866767Y-108083722D01*
X144875500Y-108039820D01*
X144875500Y-107710180D01*
X144866767Y-107666278D01*
X144857374Y-107652220D01*
X144850058Y-107615441D01*
X144857373Y-107597780D01*
X144866767Y-107583722D01*
X144875500Y-107539820D01*
X144875500Y-107210180D01*
X144866767Y-107166278D01*
X144857374Y-107152220D01*
X144850058Y-107115441D01*
X144857373Y-107097780D01*
X144866767Y-107083722D01*
X144875500Y-107039820D01*
X144875500Y-106724500D01*
X144889852Y-106689852D01*
X144924500Y-106675500D01*
X145239820Y-106675500D01*
X145283722Y-106666767D01*
X145297778Y-106657374D01*
X145334559Y-106650058D01*
X145352219Y-106657373D01*
X145366278Y-106666767D01*
X145410180Y-106675500D01*
X145739820Y-106675500D01*
X145783722Y-106666767D01*
X145797778Y-106657374D01*
X145834559Y-106650058D01*
X145852219Y-106657373D01*
X145866278Y-106666767D01*
X145910180Y-106675500D01*
X146239820Y-106675500D01*
X146283722Y-106666767D01*
X146297778Y-106657374D01*
X146334559Y-106650058D01*
X146352219Y-106657373D01*
X146366278Y-106666767D01*
X146410180Y-106675500D01*
X146739820Y-106675500D01*
X146783722Y-106666767D01*
X146797778Y-106657374D01*
X146834559Y-106650058D01*
X146852219Y-106657373D01*
X146866278Y-106666767D01*
X146910180Y-106675500D01*
X147239820Y-106675500D01*
X147283722Y-106666767D01*
X147297778Y-106657374D01*
X147334559Y-106650058D01*
X147352219Y-106657373D01*
X147366278Y-106666767D01*
X147410180Y-106675500D01*
X147739820Y-106675500D01*
X147783722Y-106666767D01*
X147797778Y-106657374D01*
X147834559Y-106650058D01*
X147852219Y-106657373D01*
X147866278Y-106666767D01*
X147910180Y-106675500D01*
X148239820Y-106675500D01*
X148283722Y-106666767D01*
X148297778Y-106657374D01*
X148334559Y-106650058D01*
X148352219Y-106657373D01*
G37*
%TD.AperFunction*%
%TA.AperFunction,Conductor*%
G36*
X162500612Y-102000015D02*
G01*
X162594042Y-102002303D01*
X162602388Y-102003229D01*
X162786257Y-102039803D01*
X162795436Y-102042586D01*
X162968082Y-102114099D01*
X162976547Y-102118624D01*
X163131916Y-102222438D01*
X163139341Y-102228532D01*
X163271467Y-102360658D01*
X163277561Y-102368083D01*
X163378947Y-102519819D01*
X163381373Y-102523449D01*
X163385901Y-102531920D01*
X163454891Y-102698476D01*
X163457410Y-102704556D01*
X163460198Y-102713749D01*
X163496769Y-102897605D01*
X163497696Y-102905964D01*
X163500000Y-103000000D01*
X173499412Y-103000000D01*
X173500612Y-103000015D01*
X173594042Y-103002303D01*
X173602388Y-103003229D01*
X173786257Y-103039803D01*
X173795436Y-103042586D01*
X173968082Y-103114099D01*
X173976547Y-103118624D01*
X174131916Y-103222438D01*
X174139341Y-103228532D01*
X174271467Y-103360658D01*
X174277561Y-103368083D01*
X174381373Y-103523449D01*
X174385901Y-103531920D01*
X174421655Y-103618238D01*
X174430774Y-103640253D01*
X174457410Y-103704556D01*
X174460198Y-103713749D01*
X174496769Y-103897605D01*
X174497696Y-103905964D01*
X174499985Y-103999387D01*
X174500000Y-104000587D01*
X174500000Y-113999412D01*
X174499985Y-114000612D01*
X174497696Y-114094035D01*
X174496769Y-114102394D01*
X174460198Y-114286250D01*
X174457410Y-114295443D01*
X174385901Y-114468079D01*
X174381373Y-114476550D01*
X174277561Y-114631916D01*
X174271467Y-114639341D01*
X174139341Y-114771467D01*
X174131916Y-114777561D01*
X173976550Y-114881373D01*
X173968079Y-114885901D01*
X173795443Y-114957410D01*
X173786250Y-114960198D01*
X173602394Y-114996769D01*
X173594035Y-114997696D01*
X173500612Y-114999985D01*
X173499412Y-115000000D01*
X163500000Y-115000000D01*
X163497696Y-115094035D01*
X163496769Y-115102394D01*
X163460198Y-115286250D01*
X163457410Y-115295443D01*
X163385901Y-115468079D01*
X163381373Y-115476550D01*
X163277561Y-115631916D01*
X163271467Y-115639341D01*
X163139341Y-115771467D01*
X163131916Y-115777561D01*
X162976550Y-115881373D01*
X162968079Y-115885901D01*
X162795443Y-115957410D01*
X162786250Y-115960198D01*
X162602394Y-115996769D01*
X162594035Y-115997696D01*
X162500612Y-115999985D01*
X162499412Y-116000000D01*
X122500588Y-116000000D01*
X122499388Y-115999985D01*
X122405964Y-115997696D01*
X122397605Y-115996769D01*
X122213749Y-115960198D01*
X122204556Y-115957410D01*
X122031920Y-115885901D01*
X122023449Y-115881373D01*
X121868083Y-115777561D01*
X121860658Y-115771467D01*
X121728532Y-115639341D01*
X121722438Y-115631916D01*
X121710342Y-115613813D01*
X121618624Y-115476547D01*
X121614098Y-115468079D01*
X121613555Y-115466767D01*
X121542586Y-115295436D01*
X121539803Y-115286257D01*
X121503229Y-115102388D01*
X121502303Y-115094042D01*
X121500000Y-115000000D01*
X112000588Y-115000000D01*
X111999388Y-114999985D01*
X111905964Y-114997696D01*
X111897605Y-114996769D01*
X111713749Y-114960198D01*
X111704556Y-114957410D01*
X111655282Y-114937000D01*
X111571636Y-114902352D01*
X111531920Y-114885901D01*
X111523449Y-114881373D01*
X111477778Y-114850857D01*
X111431327Y-114819819D01*
X111368083Y-114777561D01*
X111360658Y-114771467D01*
X111228532Y-114639341D01*
X111222438Y-114631916D01*
X111217483Y-114624500D01*
X111118624Y-114476547D01*
X111114098Y-114468079D01*
X111106920Y-114450750D01*
X111042586Y-114295436D01*
X111039803Y-114286257D01*
X111003229Y-114102388D01*
X111002303Y-114094042D01*
X111000015Y-114000612D01*
X111000000Y-113999412D01*
X111000000Y-111959303D01*
X112349500Y-111959303D01*
X112349500Y-113090696D01*
X112352401Y-113127567D01*
X112352401Y-113127569D01*
X112398256Y-113285399D01*
X112481917Y-113426862D01*
X112481919Y-113426865D01*
X112598135Y-113543081D01*
X112739600Y-113626743D01*
X112739601Y-113626743D01*
X112739602Y-113626744D01*
X112897431Y-113672598D01*
X112934306Y-113675500D01*
X112934317Y-113675500D01*
X120065683Y-113675500D01*
X120065694Y-113675500D01*
X120102569Y-113672598D01*
X120260398Y-113626744D01*
X120401865Y-113543081D01*
X120518081Y-113426865D01*
X120601744Y-113285398D01*
X120647598Y-113127569D01*
X120650500Y-113090694D01*
X120650500Y-111959306D01*
X120647598Y-111922431D01*
X120646644Y-111919149D01*
X120624798Y-111843954D01*
X120613520Y-111805134D01*
X122299500Y-111805134D01*
X122299500Y-112919858D01*
X122299501Y-112919868D01*
X122302415Y-112944992D01*
X122347794Y-113047766D01*
X122427233Y-113127205D01*
X122530006Y-113172584D01*
X122530009Y-113172585D01*
X122555135Y-113175500D01*
X122944864Y-113175499D01*
X122969991Y-113172585D01*
X123042185Y-113140707D01*
X123079678Y-113139842D01*
X123096625Y-113150885D01*
X123305708Y-113359968D01*
X123320060Y-113394616D01*
X123319819Y-113397692D01*
X123319819Y-113399998D01*
X123319819Y-113400000D01*
X123338426Y-113517482D01*
X123338426Y-113517483D01*
X123338427Y-113517484D01*
X123392422Y-113623458D01*
X123392427Y-113623465D01*
X123476535Y-113707573D01*
X123524347Y-113731934D01*
X123548704Y-113760452D01*
X123545762Y-113797839D01*
X123517244Y-113822196D01*
X123506527Y-113824213D01*
X123506542Y-113824338D01*
X123480007Y-113827415D01*
X123377233Y-113872794D01*
X123297794Y-113952233D01*
X123252415Y-114055006D01*
X123249500Y-114080134D01*
X123249500Y-115194858D01*
X123249501Y-115194868D01*
X123252415Y-115219992D01*
X123297794Y-115322766D01*
X123377233Y-115402205D01*
X123480006Y-115447584D01*
X123480009Y-115447585D01*
X123505135Y-115450500D01*
X123894864Y-115450499D01*
X123919991Y-115447585D01*
X124022765Y-115402206D01*
X124102206Y-115322765D01*
X124147585Y-115219991D01*
X124150500Y-115194865D01*
X124150500Y-114937000D01*
X124164852Y-114902352D01*
X124199500Y-114888000D01*
X124336666Y-114888000D01*
X124371314Y-114902352D01*
X124376534Y-114907572D01*
X124376541Y-114907577D01*
X124440520Y-114940175D01*
X124482518Y-114961574D01*
X124600000Y-114980181D01*
X124717482Y-114961574D01*
X124798503Y-114920292D01*
X124823458Y-114907577D01*
X124823460Y-114907575D01*
X124823465Y-114907573D01*
X124907573Y-114823465D01*
X124911505Y-114815749D01*
X124927671Y-114784021D01*
X124961574Y-114717482D01*
X124980181Y-114600000D01*
X124961574Y-114482518D01*
X124932522Y-114425500D01*
X124907577Y-114376541D01*
X124907572Y-114376534D01*
X124823465Y-114292427D01*
X124823458Y-114292422D01*
X124717484Y-114238427D01*
X124717483Y-114238426D01*
X124717482Y-114238426D01*
X124600000Y-114219819D01*
X124482518Y-114238426D01*
X124482516Y-114238426D01*
X124482515Y-114238427D01*
X124376541Y-114292422D01*
X124376534Y-114292427D01*
X124296314Y-114372648D01*
X124261666Y-114387000D01*
X124199499Y-114387000D01*
X124164851Y-114372648D01*
X124150499Y-114338000D01*
X124150499Y-114080141D01*
X124150498Y-114080135D01*
X124147585Y-114055009D01*
X124102206Y-113952235D01*
X124102205Y-113952234D01*
X124102205Y-113952233D01*
X124022766Y-113872794D01*
X124022767Y-113872794D01*
X123919993Y-113827415D01*
X123902378Y-113825371D01*
X123894865Y-113824500D01*
X123894864Y-113824500D01*
X123893459Y-113824337D01*
X123893525Y-113823767D01*
X123861303Y-113808177D01*
X123848981Y-113772756D01*
X123865315Y-113738997D01*
X123875648Y-113731936D01*
X123923465Y-113707573D01*
X124007573Y-113623465D01*
X124017193Y-113604586D01*
X124024120Y-113590988D01*
X124061574Y-113517482D01*
X124080181Y-113400000D01*
X124061574Y-113282518D01*
X124037617Y-113235499D01*
X124007577Y-113176541D01*
X124007572Y-113176534D01*
X123923465Y-113092427D01*
X123923458Y-113092422D01*
X123817484Y-113038427D01*
X123817483Y-113038426D01*
X123817482Y-113038426D01*
X123700000Y-113019819D01*
X123699998Y-113019819D01*
X123696144Y-113019819D01*
X123696144Y-113017991D01*
X123665789Y-113010683D01*
X123659968Y-113005708D01*
X123350909Y-112696648D01*
X123336557Y-112662000D01*
X123350909Y-112627352D01*
X123385557Y-112613000D01*
X123467484Y-112613000D01*
X123467486Y-112613000D01*
X123559555Y-112574864D01*
X124734076Y-111400341D01*
X125119200Y-111400341D01*
X125137807Y-111517823D01*
X125137807Y-111517824D01*
X125137808Y-111517825D01*
X125191803Y-111623799D01*
X125191808Y-111623806D01*
X125275915Y-111707913D01*
X125275922Y-111707918D01*
X125333715Y-111737364D01*
X125381899Y-111761915D01*
X125499381Y-111780522D01*
X125523060Y-111776771D01*
X125549472Y-111779897D01*
X125599212Y-111800501D01*
X125599214Y-111800501D01*
X125630657Y-111800501D01*
X125665305Y-111814853D01*
X125679657Y-111849501D01*
X125678715Y-111859060D01*
X125674500Y-111880246D01*
X125674500Y-111990085D01*
X125660148Y-112024733D01*
X125625500Y-112039085D01*
X125617835Y-112038482D01*
X125617482Y-112038426D01*
X125500000Y-112019819D01*
X125382518Y-112038426D01*
X125382516Y-112038426D01*
X125382515Y-112038427D01*
X125276541Y-112092422D01*
X125276534Y-112092427D01*
X125192427Y-112176534D01*
X125192422Y-112176541D01*
X125138427Y-112282515D01*
X125138426Y-112282516D01*
X125138426Y-112282518D01*
X125119819Y-112400000D01*
X125138426Y-112517482D01*
X125138426Y-112517483D01*
X125138427Y-112517484D01*
X125192422Y-112623458D01*
X125192427Y-112623465D01*
X125276534Y-112707572D01*
X125276541Y-112707577D01*
X125325498Y-112732521D01*
X125382518Y-112761574D01*
X125500000Y-112780181D01*
X125617482Y-112761574D01*
X125617485Y-112761572D01*
X125617835Y-112761517D01*
X125654301Y-112770272D01*
X125673897Y-112802249D01*
X125674500Y-112809914D01*
X125674500Y-112819748D01*
X125681897Y-112856933D01*
X125683265Y-112863813D01*
X125675948Y-112900596D01*
X125653958Y-112918642D01*
X125608103Y-112937636D01*
X125540029Y-113005709D01*
X125505380Y-113020060D01*
X125502310Y-113019819D01*
X125500001Y-113019819D01*
X125500000Y-113019819D01*
X125382518Y-113038426D01*
X125382516Y-113038426D01*
X125382515Y-113038427D01*
X125276541Y-113092422D01*
X125276534Y-113092427D01*
X125192427Y-113176534D01*
X125192422Y-113176541D01*
X125138427Y-113282515D01*
X125138426Y-113282516D01*
X125138426Y-113282518D01*
X125119819Y-113400000D01*
X125138426Y-113517482D01*
X125138426Y-113517483D01*
X125138427Y-113517484D01*
X125192422Y-113623458D01*
X125192427Y-113623465D01*
X125276534Y-113707572D01*
X125276541Y-113707577D01*
X125324344Y-113731933D01*
X125382518Y-113761574D01*
X125500000Y-113780181D01*
X125617482Y-113761574D01*
X125692238Y-113723484D01*
X125723458Y-113707577D01*
X125723460Y-113707575D01*
X125723465Y-113707573D01*
X125807573Y-113623465D01*
X125817193Y-113604586D01*
X125834196Y-113571214D01*
X125861574Y-113517482D01*
X125873555Y-113441833D01*
X125893151Y-113409858D01*
X125921952Y-113400500D01*
X126669745Y-113400500D01*
X126669748Y-113400500D01*
X126728231Y-113388867D01*
X126794552Y-113344552D01*
X126838867Y-113278231D01*
X126838954Y-113277792D01*
X126839204Y-113277417D01*
X126840715Y-113273771D01*
X126841439Y-113274071D01*
X126859784Y-113246609D01*
X126896566Y-113239287D01*
X126921661Y-113252699D01*
X126976536Y-113307574D01*
X126987126Y-113312969D01*
X126995473Y-113317222D01*
X127019829Y-113345739D01*
X127016888Y-113383127D01*
X126988371Y-113407483D01*
X126982790Y-113408940D01*
X126971770Y-113411132D01*
X126905447Y-113455447D01*
X126862436Y-113519819D01*
X126861133Y-113521769D01*
X126849500Y-113580252D01*
X126849500Y-113580255D01*
X126849500Y-114692042D01*
X126835148Y-114726690D01*
X126806148Y-114740715D01*
X126792340Y-114742317D01*
X126792337Y-114742318D01*
X126692982Y-114786187D01*
X126616187Y-114862982D01*
X126572318Y-114962335D01*
X126572316Y-114962341D01*
X126569501Y-114986609D01*
X126569500Y-114986629D01*
X126569500Y-115413367D01*
X126569501Y-115413374D01*
X126572318Y-115437663D01*
X126616187Y-115537017D01*
X126692982Y-115613812D01*
X126792335Y-115657681D01*
X126792341Y-115657683D01*
X126816609Y-115660498D01*
X126816610Y-115660498D01*
X126816627Y-115660500D01*
X127183372Y-115660499D01*
X127207662Y-115657682D01*
X127307016Y-115613813D01*
X127375688Y-115545141D01*
X127410336Y-115530789D01*
X127432582Y-115536130D01*
X127482518Y-115561574D01*
X127600000Y-115580181D01*
X127717482Y-115561574D01*
X127790988Y-115524120D01*
X127823458Y-115507577D01*
X127823460Y-115507575D01*
X127823465Y-115507573D01*
X127907573Y-115423465D01*
X127912707Y-115413390D01*
X127927823Y-115383722D01*
X127961574Y-115317482D01*
X127980181Y-115200000D01*
X127961574Y-115082518D01*
X127943573Y-115047190D01*
X127907577Y-114976541D01*
X127907572Y-114976534D01*
X127823465Y-114892427D01*
X127823458Y-114892422D01*
X127717484Y-114838427D01*
X127717483Y-114838426D01*
X127717482Y-114838426D01*
X127600000Y-114819819D01*
X127482517Y-114838426D01*
X127432581Y-114863870D01*
X127395194Y-114866812D01*
X127375688Y-114854858D01*
X127364852Y-114844022D01*
X127350500Y-114809374D01*
X127350500Y-114619342D01*
X127364852Y-114584694D01*
X127399500Y-114570342D01*
X127409052Y-114571283D01*
X127430252Y-114575500D01*
X127430253Y-114575500D01*
X127569745Y-114575500D01*
X127569748Y-114575500D01*
X127628231Y-114563867D01*
X127672778Y-114534100D01*
X127709559Y-114526784D01*
X127727219Y-114534099D01*
X127771769Y-114563867D01*
X127830252Y-114575500D01*
X127830255Y-114575500D01*
X127969745Y-114575500D01*
X127969748Y-114575500D01*
X128028231Y-114563867D01*
X128072778Y-114534100D01*
X128109559Y-114526784D01*
X128127219Y-114534099D01*
X128171769Y-114563867D01*
X128230252Y-114575500D01*
X128230255Y-114575500D01*
X128369745Y-114575500D01*
X128369748Y-114575500D01*
X128428231Y-114563867D01*
X128472778Y-114534100D01*
X128509559Y-114526784D01*
X128527219Y-114534099D01*
X128571769Y-114563867D01*
X128593064Y-114568102D01*
X128624246Y-114588938D01*
X128631563Y-114625720D01*
X128618153Y-114650809D01*
X128592425Y-114676537D01*
X128592422Y-114676541D01*
X128538427Y-114782515D01*
X128538426Y-114782516D01*
X128538426Y-114782518D01*
X128519819Y-114900000D01*
X128538426Y-115017482D01*
X128538426Y-115017483D01*
X128538427Y-115017484D01*
X128592422Y-115123458D01*
X128592427Y-115123465D01*
X128676534Y-115207572D01*
X128676541Y-115207577D01*
X128722283Y-115230883D01*
X128782518Y-115261574D01*
X128900000Y-115280181D01*
X129017482Y-115261574D01*
X129090988Y-115224120D01*
X129123458Y-115207577D01*
X129123460Y-115207575D01*
X129123465Y-115207573D01*
X129207573Y-115123465D01*
X129218310Y-115102394D01*
X129256341Y-115027753D01*
X129284858Y-115003396D01*
X129322245Y-115006339D01*
X129343659Y-115027753D01*
X129392422Y-115123458D01*
X129392427Y-115123465D01*
X129476534Y-115207572D01*
X129476541Y-115207577D01*
X129522283Y-115230883D01*
X129582518Y-115261574D01*
X129700000Y-115280181D01*
X129817482Y-115261574D01*
X129861111Y-115239343D01*
X129898494Y-115236401D01*
X129927013Y-115260756D01*
X129931750Y-115275336D01*
X129938426Y-115317482D01*
X129938426Y-115317483D01*
X129938427Y-115317485D01*
X129992422Y-115423458D01*
X129992427Y-115423465D01*
X130076534Y-115507572D01*
X130076541Y-115507577D01*
X130132581Y-115536130D01*
X130182518Y-115561574D01*
X130300000Y-115580181D01*
X130361109Y-115570501D01*
X130397574Y-115579256D01*
X130403415Y-115584244D01*
X130432983Y-115613812D01*
X130432984Y-115613813D01*
X130532335Y-115657681D01*
X130532341Y-115657683D01*
X130556609Y-115660498D01*
X130556610Y-115660498D01*
X130556627Y-115660500D01*
X130923372Y-115660499D01*
X130947662Y-115657682D01*
X131047016Y-115613813D01*
X131123813Y-115537016D01*
X131167682Y-115437662D01*
X131167682Y-115437660D01*
X131167683Y-115437658D01*
X131170498Y-115413390D01*
X131170497Y-115413390D01*
X131170500Y-115413373D01*
X131170499Y-114986628D01*
X131167682Y-114962338D01*
X131123813Y-114862984D01*
X131123812Y-114862983D01*
X131123812Y-114862982D01*
X131047017Y-114786187D01*
X131047018Y-114786187D01*
X130979708Y-114756467D01*
X130953809Y-114729343D01*
X130950500Y-114711642D01*
X130950500Y-114619342D01*
X130964852Y-114584694D01*
X130999500Y-114570342D01*
X131009052Y-114571283D01*
X131030252Y-114575500D01*
X131030253Y-114575500D01*
X131169745Y-114575500D01*
X131169748Y-114575500D01*
X131228231Y-114563867D01*
X131272778Y-114534100D01*
X131309559Y-114526784D01*
X131327219Y-114534099D01*
X131371769Y-114563867D01*
X131430252Y-114575500D01*
X131430255Y-114575500D01*
X131569745Y-114575500D01*
X131569748Y-114575500D01*
X131628231Y-114563867D01*
X131672778Y-114534100D01*
X131709559Y-114526784D01*
X131727219Y-114534099D01*
X131771769Y-114563867D01*
X131830252Y-114575500D01*
X131830255Y-114575500D01*
X131969745Y-114575500D01*
X131969748Y-114575500D01*
X132028231Y-114563867D01*
X132072778Y-114534100D01*
X132109559Y-114526784D01*
X132127219Y-114534099D01*
X132171769Y-114563867D01*
X132230252Y-114575500D01*
X132230255Y-114575500D01*
X132369747Y-114575500D01*
X132369748Y-114575500D01*
X132379898Y-114573481D01*
X132416680Y-114580797D01*
X132437516Y-114611979D01*
X132437854Y-114613872D01*
X132438425Y-114617479D01*
X132438425Y-114617480D01*
X132438426Y-114617482D01*
X132450030Y-114640256D01*
X132459201Y-114658255D01*
X132462143Y-114695642D01*
X132437786Y-114724160D01*
X132415552Y-114729500D01*
X132412387Y-114729500D01*
X132412373Y-114729501D01*
X132388500Y-114732270D01*
X132290857Y-114775384D01*
X132215384Y-114850857D01*
X132172270Y-114948499D01*
X132172268Y-114948505D01*
X132169501Y-114972359D01*
X132169500Y-114972379D01*
X132169500Y-115427617D01*
X132169501Y-115427626D01*
X132172270Y-115451499D01*
X132215384Y-115549142D01*
X132290857Y-115624615D01*
X132388499Y-115667729D01*
X132388505Y-115667731D01*
X132412359Y-115670498D01*
X132412360Y-115670498D01*
X132412377Y-115670500D01*
X132767622Y-115670499D01*
X132791498Y-115667730D01*
X132889141Y-115624616D01*
X132964616Y-115549141D01*
X133007730Y-115451498D01*
X133007730Y-115451496D01*
X133007731Y-115451494D01*
X133010498Y-115427640D01*
X133010497Y-115427640D01*
X133010500Y-115427623D01*
X133010499Y-115146144D01*
X133014228Y-115127395D01*
X133050500Y-115039828D01*
X133050500Y-114800834D01*
X133064816Y-114766221D01*
X133065320Y-114765716D01*
X133099952Y-114751332D01*
X133134613Y-114765648D01*
X133134649Y-114765684D01*
X133135151Y-114766186D01*
X133149503Y-114800834D01*
X133149503Y-114940175D01*
X133149503Y-115039831D01*
X133185770Y-115127389D01*
X133189500Y-115146138D01*
X133189500Y-115427617D01*
X133189501Y-115427626D01*
X133192270Y-115451499D01*
X133235384Y-115549142D01*
X133310857Y-115624615D01*
X133408499Y-115667729D01*
X133408505Y-115667731D01*
X133432359Y-115670498D01*
X133432360Y-115670498D01*
X133432377Y-115670500D01*
X133787622Y-115670499D01*
X133811498Y-115667730D01*
X133909141Y-115624616D01*
X133984616Y-115549141D01*
X134010175Y-115491256D01*
X134037299Y-115465357D01*
X134074792Y-115466223D01*
X134099825Y-115491256D01*
X134125384Y-115549142D01*
X134200857Y-115624615D01*
X134298499Y-115667729D01*
X134298505Y-115667731D01*
X134322359Y-115670498D01*
X134322360Y-115670498D01*
X134322377Y-115670500D01*
X134677622Y-115670499D01*
X134701498Y-115667730D01*
X134799141Y-115624616D01*
X134874616Y-115549141D01*
X134917730Y-115451498D01*
X134917730Y-115451496D01*
X134917731Y-115451494D01*
X134920498Y-115427640D01*
X134920497Y-115427640D01*
X134920500Y-115427623D01*
X134920499Y-114972378D01*
X134917730Y-114948502D01*
X134874616Y-114850859D01*
X134874615Y-114850858D01*
X134874615Y-114850857D01*
X134799142Y-114775384D01*
X134701500Y-114732270D01*
X134701494Y-114732268D01*
X134677640Y-114729501D01*
X134677625Y-114729500D01*
X134677623Y-114729500D01*
X134677620Y-114729500D01*
X134404057Y-114729500D01*
X134369409Y-114715148D01*
X134313409Y-114659148D01*
X134299057Y-114624500D01*
X134313409Y-114589852D01*
X134348057Y-114575500D01*
X135097867Y-114575500D01*
X135097870Y-114575500D01*
X135171521Y-114560850D01*
X135255043Y-114505043D01*
X135310850Y-114421521D01*
X135325500Y-114347870D01*
X135325500Y-113652130D01*
X135310850Y-113578479D01*
X135287196Y-113543078D01*
X135255043Y-113494956D01*
X135171521Y-113439150D01*
X135097870Y-113424500D01*
X134302130Y-113424500D01*
X134275430Y-113429811D01*
X134228476Y-113439150D01*
X134226719Y-113440325D01*
X134224647Y-113440736D01*
X134224022Y-113440996D01*
X134223970Y-113440871D01*
X134189936Y-113447639D01*
X134158756Y-113426800D01*
X134150500Y-113399581D01*
X134150500Y-111399524D01*
X134150499Y-111399520D01*
X134146901Y-111390834D01*
X134112364Y-111307453D01*
X134112362Y-111307451D01*
X134112362Y-111307450D01*
X134039107Y-111234196D01*
X134039100Y-111234190D01*
X133742549Y-110937637D01*
X133742545Y-110937635D01*
X133742280Y-110937525D01*
X133742077Y-110937322D01*
X133738537Y-110934957D01*
X133739007Y-110934252D01*
X133715764Y-110911004D01*
X133712978Y-110882697D01*
X133713866Y-110878232D01*
X133713867Y-110878231D01*
X133725500Y-110819748D01*
X133725500Y-110680252D01*
X133720264Y-110653929D01*
X133727580Y-110617148D01*
X133749571Y-110599100D01*
X133771562Y-110589991D01*
X133838260Y-110562364D01*
X133895873Y-110504750D01*
X133930519Y-110490399D01*
X133933592Y-110490641D01*
X133935901Y-110490641D01*
X133935901Y-110490640D01*
X133935903Y-110490641D01*
X134053385Y-110472034D01*
X134140653Y-110427569D01*
X134159361Y-110418037D01*
X134159363Y-110418035D01*
X134159368Y-110418033D01*
X134243476Y-110333925D01*
X134247829Y-110325383D01*
X134297477Y-110227942D01*
X134309531Y-110151834D01*
X134329126Y-110119857D01*
X134357928Y-110110499D01*
X134513368Y-110110499D01*
X134513372Y-110110499D01*
X134537662Y-110107682D01*
X134637016Y-110063813D01*
X134713813Y-109987016D01*
X134757682Y-109887662D01*
X134760500Y-109863373D01*
X134760499Y-109863363D01*
X134760595Y-109862545D01*
X134778843Y-109829782D01*
X134814915Y-109819517D01*
X134847678Y-109837765D01*
X134852928Y-109845946D01*
X134892422Y-109923458D01*
X134892427Y-109923465D01*
X134976535Y-110007573D01*
X134997744Y-110018379D01*
X135022101Y-110046896D01*
X135024500Y-110062039D01*
X135024500Y-110808480D01*
X135033106Y-110851744D01*
X135036858Y-110870609D01*
X135083934Y-110941065D01*
X135110998Y-110959148D01*
X135154391Y-110988142D01*
X135216520Y-111000500D01*
X135216523Y-111000500D01*
X135383477Y-111000500D01*
X135383480Y-111000500D01*
X135445609Y-110988142D01*
X135502693Y-110950000D01*
X135520078Y-110938384D01*
X135520830Y-110939509D01*
X135550000Y-110927427D01*
X135579169Y-110939509D01*
X135579922Y-110938384D01*
X135597307Y-110950000D01*
X135654391Y-110988142D01*
X135716520Y-111000500D01*
X135716523Y-111000500D01*
X135883477Y-111000500D01*
X135883480Y-111000500D01*
X135945609Y-110988142D01*
X136002693Y-110950000D01*
X136020078Y-110938384D01*
X136020830Y-110939509D01*
X136050000Y-110927427D01*
X136079169Y-110939509D01*
X136079922Y-110938384D01*
X136097307Y-110950000D01*
X136154391Y-110988142D01*
X136216520Y-111000500D01*
X136216523Y-111000500D01*
X136383477Y-111000500D01*
X136383480Y-111000500D01*
X136445609Y-110988142D01*
X136473278Y-110969653D01*
X136510059Y-110962337D01*
X136541242Y-110983173D01*
X136549500Y-111010396D01*
X136549500Y-111129303D01*
X136535148Y-111163951D01*
X136520294Y-111174127D01*
X136492982Y-111186187D01*
X136416187Y-111262982D01*
X136372318Y-111362335D01*
X136372316Y-111362341D01*
X136369501Y-111386609D01*
X136369500Y-111386629D01*
X136369500Y-111813367D01*
X136369501Y-111813374D01*
X136372318Y-111837663D01*
X136416187Y-111937017D01*
X136492983Y-112013813D01*
X136520291Y-112025870D01*
X136546191Y-112052993D01*
X136549500Y-112070695D01*
X136549500Y-112149828D01*
X136549500Y-112149830D01*
X136549501Y-112149831D01*
X136573077Y-112206749D01*
X136573077Y-112244251D01*
X136546558Y-112270770D01*
X136527807Y-112274500D01*
X135752130Y-112274500D01*
X135711836Y-112282515D01*
X135678478Y-112289150D01*
X135594956Y-112344956D01*
X135539150Y-112428478D01*
X135537182Y-112438372D01*
X135524500Y-112502130D01*
X135524500Y-113197870D01*
X135533726Y-113244253D01*
X135539150Y-113271521D01*
X135594956Y-113355043D01*
X135638680Y-113384258D01*
X135659515Y-113415440D01*
X135652199Y-113452223D01*
X135638680Y-113465742D01*
X135594956Y-113494956D01*
X135539150Y-113578478D01*
X135539150Y-113578479D01*
X135524500Y-113652130D01*
X135524500Y-114347870D01*
X135532356Y-114387364D01*
X135539150Y-114421521D01*
X135594956Y-114505043D01*
X135627495Y-114526784D01*
X135678479Y-114560850D01*
X135752130Y-114575500D01*
X135752133Y-114575500D01*
X136431942Y-114575500D01*
X136466590Y-114589852D01*
X136480942Y-114624500D01*
X136466590Y-114659148D01*
X136190591Y-114935148D01*
X136155943Y-114949500D01*
X135970099Y-114949500D01*
X135935451Y-114935148D01*
X135925274Y-114920292D01*
X135912461Y-114891273D01*
X135894616Y-114850859D01*
X135894615Y-114850858D01*
X135894615Y-114850857D01*
X135819142Y-114775384D01*
X135721500Y-114732270D01*
X135721494Y-114732268D01*
X135697640Y-114729501D01*
X135697625Y-114729500D01*
X135697623Y-114729500D01*
X135697620Y-114729500D01*
X135342382Y-114729500D01*
X135342373Y-114729501D01*
X135318500Y-114732270D01*
X135220857Y-114775384D01*
X135145384Y-114850857D01*
X135102270Y-114948499D01*
X135102268Y-114948505D01*
X135099501Y-114972359D01*
X135099500Y-114972379D01*
X135099500Y-115427617D01*
X135099501Y-115427626D01*
X135102270Y-115451499D01*
X135145384Y-115549142D01*
X135220857Y-115624615D01*
X135318499Y-115667729D01*
X135318505Y-115667731D01*
X135342359Y-115670498D01*
X135342360Y-115670498D01*
X135342377Y-115670500D01*
X135697622Y-115670499D01*
X135721498Y-115667730D01*
X135819141Y-115624616D01*
X135894616Y-115549141D01*
X135925274Y-115479708D01*
X135952398Y-115453809D01*
X135970099Y-115450500D01*
X136329826Y-115450500D01*
X136329828Y-115450500D01*
X136421897Y-115412364D01*
X137314261Y-114519999D01*
X138094659Y-114519999D01*
X138094659Y-114520000D01*
X138113976Y-114716132D01*
X138113976Y-114716133D01*
X138171185Y-114904726D01*
X138214963Y-114986628D01*
X138243397Y-115039825D01*
X138264092Y-115078541D01*
X138264094Y-115078544D01*
X138319568Y-115146138D01*
X138389117Y-115230883D01*
X138456582Y-115286250D01*
X138541455Y-115355905D01*
X138541458Y-115355907D01*
X138541462Y-115355910D01*
X138715273Y-115448814D01*
X138903868Y-115506024D01*
X139100000Y-115525341D01*
X139296132Y-115506024D01*
X139484727Y-115448814D01*
X139658538Y-115355910D01*
X139810883Y-115230883D01*
X139935910Y-115078538D01*
X140028814Y-114904727D01*
X140086024Y-114716132D01*
X140105341Y-114520000D01*
X140086024Y-114323868D01*
X140028814Y-114135273D01*
X139935910Y-113961462D01*
X139935907Y-113961458D01*
X139935905Y-113961455D01*
X139865362Y-113875500D01*
X139810883Y-113809117D01*
X139716835Y-113731933D01*
X139658544Y-113684094D01*
X139658541Y-113684092D01*
X139658539Y-113684091D01*
X139658538Y-113684090D01*
X139566974Y-113635148D01*
X139484726Y-113591185D01*
X139296132Y-113533976D01*
X139100000Y-113514659D01*
X138903867Y-113533976D01*
X138903866Y-113533976D01*
X138715273Y-113591185D01*
X138541458Y-113684092D01*
X138541455Y-113684094D01*
X138389117Y-113809117D01*
X138264094Y-113961455D01*
X138264092Y-113961458D01*
X138171185Y-114135273D01*
X138113976Y-114323866D01*
X138113976Y-114323867D01*
X138094659Y-114519999D01*
X137314261Y-114519999D01*
X138855762Y-112978497D01*
X138890409Y-112964146D01*
X138901458Y-112965785D01*
X138901505Y-112965554D01*
X138903860Y-112966021D01*
X138903868Y-112966024D01*
X139100000Y-112985341D01*
X139296132Y-112966024D01*
X139484727Y-112908814D01*
X139658538Y-112815910D01*
X139810883Y-112690883D01*
X139935910Y-112538538D01*
X140028814Y-112364727D01*
X140086024Y-112176132D01*
X140105341Y-111980000D01*
X140086024Y-111783868D01*
X140028814Y-111595273D01*
X139935910Y-111421462D01*
X139935907Y-111421458D01*
X139935905Y-111421455D01*
X139882537Y-111356427D01*
X139810883Y-111269117D01*
X139709833Y-111186187D01*
X139658544Y-111144094D01*
X139658541Y-111144092D01*
X139658539Y-111144091D01*
X139658538Y-111144090D01*
X139578592Y-111101358D01*
X139484726Y-111051185D01*
X139296132Y-110993976D01*
X139100000Y-110974659D01*
X138903867Y-110993976D01*
X138903866Y-110993976D01*
X138715273Y-111051185D01*
X138541458Y-111144092D01*
X138541455Y-111144094D01*
X138389117Y-111269117D01*
X138264094Y-111421455D01*
X138264092Y-111421458D01*
X138171185Y-111595273D01*
X138113976Y-111783866D01*
X138113976Y-111783867D01*
X138094659Y-111979999D01*
X138094659Y-111980000D01*
X138113976Y-112176132D01*
X138113976Y-112176133D01*
X138171185Y-112364726D01*
X138221358Y-112458592D01*
X138263608Y-112537637D01*
X138264092Y-112538541D01*
X138264094Y-112538544D01*
X138315215Y-112600834D01*
X138380392Y-112680252D01*
X138381559Y-112681673D01*
X138392446Y-112717561D01*
X138378330Y-112747407D01*
X136859148Y-114266590D01*
X136824500Y-114280942D01*
X136789852Y-114266590D01*
X136775500Y-114231942D01*
X136775500Y-114224054D01*
X136789851Y-114189407D01*
X137135004Y-113844253D01*
X137135007Y-113844252D01*
X137141896Y-113837363D01*
X137141897Y-113837363D01*
X137212364Y-113766896D01*
X137236936Y-113707573D01*
X137250501Y-113674826D01*
X137250501Y-113575171D01*
X137250501Y-113571228D01*
X137250500Y-113571214D01*
X137250500Y-112600834D01*
X137264852Y-112566186D01*
X137284061Y-112546977D01*
X137307573Y-112523465D01*
X137308790Y-112521078D01*
X137328934Y-112481541D01*
X137361574Y-112417482D01*
X137380181Y-112300000D01*
X137361574Y-112182518D01*
X137333824Y-112128056D01*
X137307577Y-112076541D01*
X137307572Y-112076534D01*
X137223465Y-111992427D01*
X137223462Y-111992425D01*
X137212425Y-111986801D01*
X137188070Y-111958282D01*
X137189847Y-111923350D01*
X137192261Y-111917884D01*
X137227682Y-111837662D01*
X137227682Y-111837660D01*
X137227683Y-111837658D01*
X137230498Y-111813390D01*
X137230497Y-111813390D01*
X137230500Y-111813373D01*
X137230499Y-111386628D01*
X137227682Y-111362338D01*
X137183813Y-111262984D01*
X137183812Y-111262983D01*
X137183812Y-111262982D01*
X137107017Y-111186187D01*
X137079706Y-111174127D01*
X137053808Y-111147002D01*
X137050500Y-111129303D01*
X137050500Y-110904392D01*
X137058759Y-110877168D01*
X137059635Y-110875857D01*
X137063142Y-110870609D01*
X137075500Y-110808480D01*
X137075500Y-109991520D01*
X137063142Y-109929391D01*
X137020973Y-109866280D01*
X137016065Y-109858934D01*
X136945609Y-109811858D01*
X136937012Y-109810148D01*
X136883480Y-109799500D01*
X136883477Y-109799500D01*
X136821797Y-109799500D01*
X136787149Y-109785148D01*
X136772797Y-109750500D01*
X136773400Y-109742835D01*
X136777996Y-109713812D01*
X136780184Y-109700000D01*
X136761577Y-109582518D01*
X136733357Y-109527133D01*
X136707580Y-109476541D01*
X136707575Y-109476534D01*
X136623468Y-109392427D01*
X136623461Y-109392422D01*
X136575841Y-109368159D01*
X136551484Y-109339642D01*
X136554427Y-109302255D01*
X136582944Y-109277898D01*
X136598086Y-109275500D01*
X136869745Y-109275500D01*
X136869748Y-109275500D01*
X136928231Y-109263867D01*
X136994552Y-109219552D01*
X137038867Y-109153231D01*
X137050500Y-109094748D01*
X137050500Y-108855252D01*
X137038867Y-108796769D01*
X137022919Y-108772902D01*
X136996742Y-108733724D01*
X136989426Y-108696941D01*
X137010261Y-108665759D01*
X137015239Y-108662841D01*
X137017724Y-108661574D01*
X137017729Y-108661574D01*
X137123712Y-108607573D01*
X137207820Y-108523465D01*
X137214077Y-108511186D01*
X137230868Y-108478230D01*
X137261821Y-108417482D01*
X137280428Y-108300000D01*
X137261821Y-108182518D01*
X137232514Y-108125000D01*
X137207824Y-108076541D01*
X137207819Y-108076534D01*
X137123712Y-107992427D01*
X137123705Y-107992422D01*
X137102255Y-107981493D01*
X137077898Y-107952976D01*
X137075500Y-107937834D01*
X137075500Y-107141523D01*
X137075500Y-107141520D01*
X137063142Y-107079391D01*
X137026711Y-107024868D01*
X137016065Y-107008934D01*
X136992365Y-106993099D01*
X136984940Y-106987005D01*
X136941897Y-106943962D01*
X136635573Y-106637637D01*
X136635571Y-106637636D01*
X136602793Y-106624059D01*
X136576274Y-106597541D01*
X136576274Y-106560038D01*
X136586894Y-106544143D01*
X136607573Y-106523465D01*
X136607577Y-106523458D01*
X136609843Y-106520341D01*
X136611458Y-106521515D01*
X136634851Y-106501530D01*
X136672239Y-106504467D01*
X136688973Y-106521201D01*
X136690157Y-106520341D01*
X136692427Y-106523465D01*
X136776534Y-106607572D01*
X136776541Y-106607577D01*
X136838579Y-106639186D01*
X136882518Y-106661574D01*
X137000000Y-106680181D01*
X137117482Y-106661574D01*
X137205955Y-106616495D01*
X137223458Y-106607577D01*
X137223460Y-106607575D01*
X137223465Y-106607573D01*
X137307573Y-106523465D01*
X137310317Y-106518081D01*
X137324700Y-106489852D01*
X137361574Y-106417482D01*
X137380181Y-106300000D01*
X137361574Y-106182518D01*
X137338719Y-106137662D01*
X137307577Y-106076541D01*
X137307572Y-106076534D01*
X137223465Y-105992427D01*
X137223458Y-105992422D01*
X137166025Y-105963159D01*
X137141668Y-105934642D01*
X137144611Y-105897255D01*
X137173128Y-105872898D01*
X137188270Y-105870500D01*
X137264820Y-105870500D01*
X137308722Y-105861767D01*
X137358504Y-105828504D01*
X137391767Y-105778722D01*
X137400500Y-105734820D01*
X137400500Y-105465180D01*
X137391767Y-105421278D01*
X137362329Y-105377221D01*
X137355014Y-105340441D01*
X137362330Y-105322778D01*
X137391767Y-105278722D01*
X137400500Y-105234820D01*
X137400500Y-104965180D01*
X137391767Y-104921278D01*
X137362329Y-104877221D01*
X137355014Y-104840441D01*
X137362330Y-104822778D01*
X137391767Y-104778722D01*
X137400500Y-104734820D01*
X137400500Y-104465180D01*
X137391767Y-104421278D01*
X137378973Y-104402130D01*
X137358504Y-104371495D01*
X137308721Y-104338232D01*
X137264823Y-104329500D01*
X137264820Y-104329500D01*
X136335180Y-104329500D01*
X136335176Y-104329500D01*
X136291278Y-104338232D01*
X136241495Y-104371495D01*
X136208232Y-104421278D01*
X136199500Y-104465176D01*
X136199500Y-104734823D01*
X136208232Y-104778721D01*
X136237669Y-104822778D01*
X136244985Y-104859560D01*
X136237669Y-104877222D01*
X136208232Y-104921278D01*
X136199500Y-104965176D01*
X136199500Y-105234823D01*
X136208232Y-105278721D01*
X136237669Y-105322778D01*
X136244985Y-105359560D01*
X136237669Y-105377222D01*
X136208232Y-105421278D01*
X136199500Y-105465176D01*
X136199500Y-105734823D01*
X136208232Y-105778721D01*
X136238003Y-105823278D01*
X136245319Y-105860060D01*
X136224483Y-105891242D01*
X136197261Y-105899500D01*
X136069500Y-105899500D01*
X136034852Y-105885148D01*
X136020500Y-105850500D01*
X136020500Y-105685180D01*
X136020499Y-105685176D01*
X136020367Y-105684514D01*
X136011767Y-105641278D01*
X135997060Y-105619267D01*
X135978504Y-105591495D01*
X135928721Y-105558232D01*
X135884823Y-105549500D01*
X135884820Y-105549500D01*
X135615180Y-105549500D01*
X135615176Y-105549500D01*
X135571278Y-105558232D01*
X135521495Y-105591495D01*
X135488232Y-105641278D01*
X135479500Y-105685176D01*
X135479500Y-106550500D01*
X135465148Y-106585148D01*
X135430500Y-106599500D01*
X134548499Y-106599500D01*
X134513851Y-106585148D01*
X134499499Y-106550500D01*
X134506975Y-106527489D01*
X134505823Y-106526902D01*
X134539477Y-106460849D01*
X134561574Y-106417482D01*
X134580181Y-106300000D01*
X134561574Y-106182518D01*
X134538719Y-106137662D01*
X134507577Y-106076541D01*
X134507572Y-106076534D01*
X134464852Y-106033814D01*
X134450500Y-105999166D01*
X134450500Y-105919500D01*
X134464852Y-105884852D01*
X134499500Y-105870500D01*
X134664820Y-105870500D01*
X134708722Y-105861767D01*
X134758504Y-105828504D01*
X134791767Y-105778722D01*
X134800500Y-105734820D01*
X134800500Y-105465180D01*
X134791767Y-105421278D01*
X134762329Y-105377221D01*
X134755014Y-105340441D01*
X134762330Y-105322778D01*
X134791767Y-105278722D01*
X134800500Y-105234820D01*
X134800500Y-104965180D01*
X134791767Y-104921278D01*
X134762329Y-104877221D01*
X134755014Y-104840441D01*
X134762330Y-104822778D01*
X134791767Y-104778722D01*
X134800500Y-104734820D01*
X134800500Y-104465180D01*
X134791767Y-104421278D01*
X134762329Y-104377221D01*
X134755014Y-104340441D01*
X134762328Y-104322779D01*
X134791767Y-104278722D01*
X134800500Y-104234820D01*
X134800500Y-103965180D01*
X134791767Y-103921278D01*
X134762329Y-103877221D01*
X134755014Y-103840441D01*
X134762328Y-103822779D01*
X134791767Y-103778722D01*
X134800500Y-103734820D01*
X134800500Y-103465180D01*
X134791767Y-103421278D01*
X134784861Y-103410943D01*
X134758505Y-103371497D01*
X134758504Y-103371496D01*
X134740911Y-103359741D01*
X134720077Y-103328561D01*
X134727392Y-103291778D01*
X134758574Y-103270942D01*
X134760437Y-103270608D01*
X134817482Y-103261574D01*
X134908254Y-103215322D01*
X134945642Y-103212380D01*
X134974159Y-103236736D01*
X134979500Y-103258982D01*
X134979500Y-103514823D01*
X134988232Y-103558721D01*
X135021495Y-103608504D01*
X135067349Y-103639142D01*
X135071278Y-103641767D01*
X135115180Y-103650500D01*
X135384820Y-103650500D01*
X135428722Y-103641767D01*
X135428726Y-103641764D01*
X135431745Y-103640514D01*
X135469248Y-103640512D01*
X135495769Y-103667028D01*
X135499500Y-103685783D01*
X135499500Y-103700500D01*
X135485148Y-103735148D01*
X135450500Y-103749500D01*
X135035176Y-103749500D01*
X134991278Y-103758232D01*
X134941495Y-103791495D01*
X134908232Y-103841278D01*
X134899500Y-103885176D01*
X134899500Y-105314823D01*
X134908232Y-105358721D01*
X134941495Y-105408504D01*
X134986855Y-105438812D01*
X134991278Y-105441767D01*
X135035180Y-105450500D01*
X135964820Y-105450500D01*
X136008722Y-105441767D01*
X136058504Y-105408504D01*
X136091767Y-105358722D01*
X136100500Y-105314820D01*
X136100500Y-103885180D01*
X136091767Y-103841278D01*
X136079405Y-103822777D01*
X136058505Y-103791496D01*
X136022277Y-103767289D01*
X136001441Y-103736106D01*
X136000500Y-103726547D01*
X136000500Y-103590448D01*
X136008759Y-103563224D01*
X136011766Y-103558723D01*
X136011765Y-103558723D01*
X136011767Y-103558722D01*
X136020500Y-103514820D01*
X136020500Y-103154057D01*
X136034852Y-103119409D01*
X136239409Y-102914852D01*
X136274057Y-102900500D01*
X138070500Y-102900500D01*
X138105148Y-102914852D01*
X138119500Y-102949500D01*
X138119500Y-103300500D01*
X138105148Y-103335148D01*
X138070500Y-103349500D01*
X137340448Y-103349500D01*
X137313224Y-103341241D01*
X137308723Y-103338233D01*
X137308719Y-103338232D01*
X137264823Y-103329500D01*
X137264820Y-103329500D01*
X136335180Y-103329500D01*
X136335176Y-103329500D01*
X136291278Y-103338232D01*
X136241495Y-103371495D01*
X136208232Y-103421278D01*
X136199500Y-103465176D01*
X136199500Y-103734823D01*
X136208232Y-103778721D01*
X136241495Y-103828504D01*
X136286776Y-103858759D01*
X136291278Y-103861767D01*
X136335180Y-103870500D01*
X137264820Y-103870500D01*
X137308722Y-103861767D01*
X137313224Y-103858759D01*
X137340448Y-103850500D01*
X138070500Y-103850500D01*
X138105148Y-103864852D01*
X138119500Y-103899500D01*
X138119500Y-104450003D01*
X138140331Y-104527748D01*
X138140334Y-104527752D01*
X138197247Y-104584665D01*
X138197251Y-104584668D01*
X138274996Y-104605499D01*
X138274997Y-104605500D01*
X138275000Y-104605500D01*
X138500500Y-104605500D01*
X138535148Y-104619852D01*
X138549500Y-104654500D01*
X138549500Y-104799166D01*
X138535148Y-104833814D01*
X138492427Y-104876534D01*
X138492422Y-104876541D01*
X138438427Y-104982515D01*
X138438426Y-104982516D01*
X138438426Y-104982518D01*
X138419819Y-105100000D01*
X138438426Y-105217482D01*
X138438426Y-105217483D01*
X138438427Y-105217484D01*
X138492422Y-105323458D01*
X138492427Y-105323465D01*
X138576534Y-105407572D01*
X138576541Y-105407577D01*
X138644722Y-105442316D01*
X138682518Y-105461574D01*
X138800000Y-105480181D01*
X138917482Y-105461574D01*
X138990988Y-105424120D01*
X139023458Y-105407577D01*
X139023460Y-105407575D01*
X139023465Y-105407573D01*
X139107573Y-105323465D01*
X139111977Y-105314823D01*
X139130372Y-105278720D01*
X139161574Y-105217482D01*
X139180181Y-105100000D01*
X139161574Y-104982518D01*
X139137061Y-104934408D01*
X139107577Y-104876541D01*
X139107572Y-104876534D01*
X139064852Y-104833814D01*
X139050500Y-104799166D01*
X139050500Y-104654500D01*
X139064852Y-104619852D01*
X139099500Y-104605500D01*
X139424992Y-104605500D01*
X139425000Y-104605500D01*
X139435008Y-104605178D01*
X139511256Y-104579384D01*
X139536741Y-104550384D01*
X139570392Y-104533834D01*
X139605892Y-104545925D01*
X139607040Y-104546967D01*
X139647250Y-104584667D01*
X139647251Y-104584667D01*
X139647252Y-104584668D01*
X139724996Y-104605499D01*
X139724997Y-104605500D01*
X139725000Y-104605500D01*
X139925500Y-104605500D01*
X139960148Y-104619852D01*
X139974500Y-104654500D01*
X139974500Y-108190942D01*
X139960148Y-108225590D01*
X139634127Y-108551610D01*
X139599479Y-108565962D01*
X139576381Y-108560176D01*
X139484728Y-108511186D01*
X139296132Y-108453976D01*
X139100000Y-108434659D01*
X138903867Y-108453976D01*
X138903866Y-108453976D01*
X138715273Y-108511185D01*
X138541458Y-108604092D01*
X138541455Y-108604094D01*
X138389117Y-108729117D01*
X138264094Y-108881455D01*
X138264092Y-108881458D01*
X138171185Y-109055273D01*
X138113976Y-109243866D01*
X138113976Y-109243867D01*
X138094659Y-109439999D01*
X138094659Y-109440000D01*
X138113976Y-109636132D01*
X138113976Y-109636133D01*
X138171185Y-109824726D01*
X138207370Y-109892422D01*
X138260340Y-109991523D01*
X138264092Y-109998541D01*
X138264094Y-109998544D01*
X138316452Y-110062341D01*
X138389117Y-110150883D01*
X138461370Y-110210180D01*
X138541455Y-110275905D01*
X138541458Y-110275907D01*
X138541462Y-110275910D01*
X138715273Y-110368814D01*
X138903868Y-110426024D01*
X139100000Y-110445341D01*
X139296132Y-110426024D01*
X139484727Y-110368814D01*
X139658538Y-110275910D01*
X139751034Y-110200000D01*
X140019819Y-110200000D01*
X140038426Y-110317482D01*
X140038426Y-110317483D01*
X140038427Y-110317484D01*
X140092422Y-110423458D01*
X140092427Y-110423465D01*
X140176534Y-110507572D01*
X140176541Y-110507577D01*
X140235588Y-110537662D01*
X140282518Y-110561574D01*
X140400000Y-110580181D01*
X140517482Y-110561574D01*
X140590988Y-110524120D01*
X140623458Y-110507577D01*
X140623460Y-110507575D01*
X140623465Y-110507573D01*
X140707573Y-110423465D01*
X140710342Y-110418032D01*
X140743697Y-110352567D01*
X140761574Y-110317482D01*
X140777514Y-110216833D01*
X140797109Y-110184858D01*
X140825911Y-110175500D01*
X141200500Y-110175500D01*
X141235148Y-110189852D01*
X141249500Y-110224500D01*
X141249500Y-110322870D01*
X141258135Y-110366280D01*
X141264150Y-110396521D01*
X141319956Y-110480043D01*
X141361159Y-110507573D01*
X141403479Y-110535850D01*
X141477130Y-110550500D01*
X141477133Y-110550500D01*
X142172867Y-110550500D01*
X142172870Y-110550500D01*
X142246521Y-110535850D01*
X142330043Y-110480043D01*
X142330044Y-110480042D01*
X142359258Y-110436320D01*
X142390440Y-110415484D01*
X142427222Y-110422800D01*
X142440742Y-110436320D01*
X142469955Y-110480042D01*
X142511158Y-110507572D01*
X142553479Y-110535850D01*
X142627130Y-110550500D01*
X142627133Y-110550500D01*
X143322869Y-110550500D01*
X143322870Y-110550500D01*
X143329159Y-110549249D01*
X143365941Y-110541933D01*
X143402723Y-110549249D01*
X143423558Y-110580432D01*
X143424500Y-110589991D01*
X143424500Y-110705500D01*
X143410148Y-110740148D01*
X143375500Y-110754500D01*
X143057382Y-110754500D01*
X143057373Y-110754501D01*
X143033500Y-110757270D01*
X142935857Y-110800384D01*
X142860384Y-110875857D01*
X142817270Y-110973499D01*
X142817268Y-110973505D01*
X142814501Y-110997359D01*
X142814500Y-110997379D01*
X142814500Y-111452617D01*
X142814501Y-111452626D01*
X142817270Y-111476499D01*
X142860384Y-111574142D01*
X142935857Y-111649615D01*
X142998363Y-111677215D01*
X143024262Y-111704340D01*
X143023396Y-111741832D01*
X142998363Y-111766865D01*
X142897982Y-111811187D01*
X142821187Y-111887982D01*
X142777318Y-111987335D01*
X142777316Y-111987341D01*
X142774501Y-112011609D01*
X142774500Y-112011629D01*
X142774500Y-112438367D01*
X142774501Y-112438374D01*
X142777318Y-112462663D01*
X142821187Y-112562017D01*
X142897982Y-112638812D01*
X142997335Y-112682681D01*
X142997341Y-112682683D01*
X143021609Y-112685498D01*
X143021610Y-112685498D01*
X143021627Y-112685500D01*
X143388372Y-112685499D01*
X143412662Y-112682682D01*
X143512016Y-112638813D01*
X143588813Y-112562016D01*
X143605838Y-112523458D01*
X143614117Y-112504708D01*
X143641241Y-112478809D01*
X143658942Y-112475500D01*
X143664901Y-112475500D01*
X143699549Y-112489852D01*
X143709726Y-112504708D01*
X143740384Y-112574142D01*
X143815857Y-112649615D01*
X143913499Y-112692729D01*
X143913505Y-112692731D01*
X143937359Y-112695498D01*
X143937360Y-112695498D01*
X143937377Y-112695500D01*
X144292622Y-112695499D01*
X144316498Y-112692730D01*
X144414141Y-112649616D01*
X144489616Y-112574141D01*
X144532730Y-112476498D01*
X144532730Y-112476496D01*
X144532731Y-112476494D01*
X144535498Y-112452640D01*
X144535497Y-112452640D01*
X144535500Y-112452623D01*
X144535499Y-111997378D01*
X144532730Y-111973502D01*
X144489616Y-111875859D01*
X144489615Y-111875858D01*
X144489615Y-111875857D01*
X144414141Y-111800383D01*
X144394706Y-111791801D01*
X144368808Y-111764676D01*
X144365500Y-111746977D01*
X144365500Y-111439834D01*
X144379852Y-111405186D01*
X144414500Y-111390834D01*
X144449148Y-111405186D01*
X144476534Y-111432572D01*
X144476541Y-111432577D01*
X144547190Y-111468573D01*
X144582518Y-111486574D01*
X144700000Y-111505181D01*
X144719012Y-111502169D01*
X144755477Y-111510923D01*
X144774735Y-111541006D01*
X144783232Y-111583720D01*
X144783232Y-111583721D01*
X144783233Y-111583722D01*
X144785139Y-111586574D01*
X144816242Y-111633124D01*
X144824500Y-111660347D01*
X144824500Y-111791446D01*
X144810148Y-111826094D01*
X144760384Y-111875857D01*
X144717270Y-111973499D01*
X144717268Y-111973505D01*
X144714501Y-111997359D01*
X144714500Y-111997379D01*
X144714500Y-112452617D01*
X144714501Y-112452626D01*
X144717270Y-112476499D01*
X144760384Y-112574142D01*
X144835857Y-112649615D01*
X144933499Y-112692729D01*
X144933505Y-112692731D01*
X144957359Y-112695498D01*
X144957360Y-112695498D01*
X144957377Y-112695500D01*
X145312622Y-112695499D01*
X145336498Y-112692730D01*
X145434141Y-112649616D01*
X145461988Y-112621769D01*
X145490852Y-112592906D01*
X145525500Y-112578554D01*
X145560148Y-112592906D01*
X145574500Y-112627554D01*
X145574500Y-112900943D01*
X145560148Y-112935591D01*
X144585591Y-113910148D01*
X144550943Y-113924500D01*
X144484500Y-113924500D01*
X144449852Y-113910148D01*
X144435500Y-113875500D01*
X144435500Y-113010180D01*
X144435499Y-113010176D01*
X144434610Y-113005709D01*
X144426767Y-112966278D01*
X144419531Y-112955448D01*
X144393504Y-112916495D01*
X144343721Y-112883232D01*
X144299823Y-112874500D01*
X144299820Y-112874500D01*
X143270180Y-112874500D01*
X143270176Y-112874500D01*
X143226278Y-112883232D01*
X143176495Y-112916495D01*
X143143232Y-112966278D01*
X143134500Y-113010176D01*
X143134500Y-115339823D01*
X143143232Y-115383721D01*
X143176495Y-115433504D01*
X143224168Y-115465357D01*
X143226278Y-115466767D01*
X143270180Y-115475500D01*
X144299820Y-115475500D01*
X144343722Y-115466767D01*
X144393504Y-115433504D01*
X144426767Y-115383722D01*
X144435500Y-115339820D01*
X144435500Y-114474500D01*
X144449852Y-114439852D01*
X144484500Y-114425500D01*
X144724826Y-114425500D01*
X144724828Y-114425500D01*
X144816897Y-114387364D01*
X145960004Y-113244254D01*
X145960007Y-113244253D01*
X145966896Y-113237364D01*
X145966897Y-113237364D01*
X146037364Y-113166897D01*
X146065002Y-113100173D01*
X146075501Y-113074827D01*
X146075501Y-112975172D01*
X146075501Y-112971229D01*
X146075500Y-112971215D01*
X146075500Y-112128056D01*
X146089852Y-112093408D01*
X146124500Y-112079056D01*
X146159148Y-112093408D01*
X146200148Y-112134408D01*
X146214500Y-112169056D01*
X146214500Y-112438367D01*
X146214501Y-112438374D01*
X146217318Y-112462663D01*
X146261187Y-112562017D01*
X146286608Y-112587438D01*
X146300960Y-112622086D01*
X146295620Y-112644330D01*
X146263425Y-112707519D01*
X146245651Y-112819744D01*
X146244819Y-112825000D01*
X146263426Y-112942482D01*
X146263426Y-112942483D01*
X146263427Y-112942484D01*
X146317422Y-113048458D01*
X146317427Y-113048465D01*
X146401534Y-113132572D01*
X146401541Y-113132577D01*
X146468900Y-113166897D01*
X146507518Y-113186574D01*
X146625000Y-113205181D01*
X146742482Y-113186574D01*
X146831577Y-113141178D01*
X146848458Y-113132577D01*
X146848460Y-113132575D01*
X146848465Y-113132573D01*
X146932573Y-113048465D01*
X146932930Y-113047766D01*
X146952082Y-113010176D01*
X148214500Y-113010176D01*
X148214500Y-115339823D01*
X148223232Y-115383721D01*
X148256495Y-115433504D01*
X148304168Y-115465357D01*
X148306278Y-115466767D01*
X148350180Y-115475500D01*
X149379820Y-115475500D01*
X149423722Y-115466767D01*
X149473504Y-115433504D01*
X149506767Y-115383722D01*
X149515500Y-115339820D01*
X149515500Y-114450748D01*
X163552402Y-114450748D01*
X163552402Y-114450750D01*
X163552402Y-114549250D01*
X163552402Y-114549252D01*
X163552403Y-114549253D01*
X163590096Y-114640253D01*
X163590098Y-114640256D01*
X163659744Y-114709902D01*
X163659746Y-114709903D01*
X163659747Y-114709904D01*
X163750750Y-114747598D01*
X163849248Y-114747598D01*
X163849250Y-114747598D01*
X163940253Y-114709904D01*
X163940254Y-114709902D01*
X163940256Y-114709902D01*
X164009902Y-114640256D01*
X164009902Y-114640255D01*
X164009904Y-114640253D01*
X164047598Y-114549250D01*
X164050000Y-114500000D01*
X164047598Y-114450750D01*
X164009904Y-114359747D01*
X164009902Y-114359745D01*
X164009902Y-114359744D01*
X163940256Y-114290098D01*
X163940253Y-114290096D01*
X163849253Y-114252403D01*
X163849251Y-114252402D01*
X163849250Y-114252402D01*
X163849248Y-114252402D01*
X163750752Y-114252402D01*
X163750750Y-114252402D01*
X163750748Y-114252402D01*
X163750746Y-114252403D01*
X163659746Y-114290096D01*
X163590096Y-114359746D01*
X163552403Y-114450746D01*
X163552402Y-114450748D01*
X149515500Y-114450748D01*
X149515500Y-113604584D01*
X163552402Y-113604584D01*
X163552402Y-113604586D01*
X163552402Y-113703086D01*
X163552402Y-113703088D01*
X163552403Y-113703089D01*
X163590096Y-113794089D01*
X163590098Y-113794092D01*
X163659744Y-113863738D01*
X163659746Y-113863739D01*
X163659747Y-113863740D01*
X163750750Y-113901434D01*
X163849248Y-113901434D01*
X163849250Y-113901434D01*
X163940253Y-113863740D01*
X163940254Y-113863738D01*
X163940256Y-113863738D01*
X164009902Y-113794092D01*
X164009902Y-113794091D01*
X164009904Y-113794089D01*
X164047598Y-113703086D01*
X164050000Y-113653836D01*
X164047598Y-113604586D01*
X164009904Y-113513583D01*
X164009902Y-113513581D01*
X164009902Y-113513580D01*
X163940256Y-113443934D01*
X163940253Y-113443932D01*
X163849253Y-113406239D01*
X163849251Y-113406238D01*
X163849250Y-113406238D01*
X163849248Y-113406238D01*
X163750752Y-113406238D01*
X163750750Y-113406238D01*
X163750748Y-113406238D01*
X163750746Y-113406239D01*
X163659746Y-113443932D01*
X163590096Y-113513582D01*
X163552403Y-113604582D01*
X163552402Y-113604584D01*
X149515500Y-113604584D01*
X149515500Y-113010180D01*
X149506767Y-112966278D01*
X149499531Y-112955448D01*
X149473504Y-112916495D01*
X149423721Y-112883232D01*
X149379823Y-112874500D01*
X149379820Y-112874500D01*
X148350180Y-112874500D01*
X148350176Y-112874500D01*
X148306278Y-112883232D01*
X148256495Y-112916495D01*
X148223232Y-112966278D01*
X148214500Y-113010176D01*
X146952082Y-113010176D01*
X146964736Y-112985341D01*
X146986574Y-112942482D01*
X147005181Y-112825000D01*
X146986574Y-112707518D01*
X146973920Y-112682683D01*
X146967881Y-112670830D01*
X146964938Y-112633443D01*
X146976890Y-112613938D01*
X147028813Y-112562016D01*
X147072682Y-112462662D01*
X147072682Y-112462660D01*
X147072683Y-112462658D01*
X147075498Y-112438390D01*
X147075497Y-112438390D01*
X147075500Y-112438373D01*
X147075499Y-112011628D01*
X147072682Y-111987338D01*
X147028813Y-111887984D01*
X147028812Y-111887983D01*
X147028812Y-111887982D01*
X146952017Y-111811187D01*
X146952018Y-111811187D01*
X146852664Y-111767318D01*
X146852658Y-111767316D01*
X146828390Y-111764501D01*
X146828375Y-111764500D01*
X146828373Y-111764500D01*
X146828370Y-111764500D01*
X146789891Y-111764500D01*
X146755243Y-111750148D01*
X146740891Y-111715500D01*
X146755243Y-111680852D01*
X146780331Y-111667442D01*
X146781807Y-111667147D01*
X146783722Y-111666767D01*
X146797778Y-111657374D01*
X146834559Y-111650058D01*
X146852219Y-111657373D01*
X146866278Y-111666767D01*
X146910180Y-111675500D01*
X147239820Y-111675500D01*
X147283722Y-111666767D01*
X147297778Y-111657374D01*
X147334559Y-111650058D01*
X147352219Y-111657373D01*
X147366278Y-111666767D01*
X147410180Y-111675500D01*
X147739820Y-111675500D01*
X147765940Y-111670304D01*
X147802722Y-111677619D01*
X147823558Y-111708801D01*
X147824500Y-111718362D01*
X147824500Y-111834829D01*
X147835851Y-111862233D01*
X147862636Y-111926897D01*
X147862637Y-111926898D01*
X147862637Y-111926899D01*
X148080148Y-112144409D01*
X148094500Y-112179057D01*
X148094500Y-112452617D01*
X148094501Y-112452626D01*
X148097270Y-112476499D01*
X148140384Y-112574142D01*
X148215857Y-112649615D01*
X148313499Y-112692729D01*
X148313505Y-112692731D01*
X148337359Y-112695498D01*
X148337360Y-112695498D01*
X148337377Y-112695500D01*
X148692622Y-112695499D01*
X148716498Y-112692730D01*
X148814141Y-112649616D01*
X148889616Y-112574141D01*
X148932730Y-112476498D01*
X148932730Y-112476496D01*
X148932731Y-112476494D01*
X148935498Y-112452640D01*
X148935497Y-112452640D01*
X148935500Y-112452623D01*
X148935499Y-111997378D01*
X148932730Y-111973502D01*
X148889616Y-111875859D01*
X148889615Y-111875858D01*
X148889615Y-111875857D01*
X148872906Y-111859148D01*
X148858554Y-111824500D01*
X148872906Y-111789852D01*
X148907554Y-111775500D01*
X149024166Y-111775500D01*
X149058814Y-111789852D01*
X149101535Y-111832573D01*
X149123873Y-111843955D01*
X149148230Y-111872471D01*
X149146454Y-111907406D01*
X149117270Y-111973499D01*
X149117268Y-111973505D01*
X149114501Y-111997359D01*
X149114500Y-111997379D01*
X149114500Y-112452617D01*
X149114501Y-112452626D01*
X149117270Y-112476499D01*
X149160384Y-112574142D01*
X149235857Y-112649615D01*
X149333499Y-112692729D01*
X149333505Y-112692731D01*
X149357359Y-112695498D01*
X149357360Y-112695498D01*
X149357377Y-112695500D01*
X149712622Y-112695499D01*
X149736498Y-112692730D01*
X149834141Y-112649616D01*
X149909616Y-112574141D01*
X149921610Y-112546976D01*
X149948734Y-112521078D01*
X149986227Y-112521944D01*
X150001083Y-112532121D01*
X150001534Y-112532572D01*
X150001541Y-112532577D01*
X150054498Y-112559559D01*
X150107518Y-112586574D01*
X150225000Y-112605181D01*
X150225001Y-112605180D01*
X150225002Y-112605181D01*
X150228856Y-112605181D01*
X150228856Y-112607018D01*
X150259176Y-112614292D01*
X150265030Y-112619291D01*
X150772636Y-113126897D01*
X150843100Y-113197362D01*
X150843101Y-113197362D01*
X150843103Y-113197364D01*
X150935172Y-113235500D01*
X150935174Y-113235500D01*
X153514826Y-113235500D01*
X153514828Y-113235500D01*
X153606897Y-113197364D01*
X153904408Y-112899850D01*
X153939056Y-112885499D01*
X154208368Y-112885499D01*
X154208372Y-112885499D01*
X154232662Y-112882682D01*
X154278204Y-112862572D01*
X154315697Y-112861707D01*
X154342821Y-112887606D01*
X154346393Y-112915061D01*
X154344819Y-112925001D01*
X154344819Y-112925003D01*
X154363426Y-113042485D01*
X154363426Y-113042486D01*
X154363427Y-113042487D01*
X154417422Y-113148461D01*
X154417427Y-113148468D01*
X154501534Y-113232575D01*
X154501541Y-113232580D01*
X154572190Y-113268576D01*
X154607518Y-113286577D01*
X154725000Y-113305184D01*
X154842482Y-113286577D01*
X154935294Y-113239287D01*
X154948458Y-113232580D01*
X154948460Y-113232578D01*
X154948465Y-113232576D01*
X154991186Y-113189855D01*
X155025834Y-113175503D01*
X155446575Y-113175503D01*
X155446577Y-113175503D01*
X155538646Y-113137367D01*
X155538648Y-113137365D01*
X155538649Y-113137365D01*
X155917583Y-112758431D01*
X163552402Y-112758431D01*
X163552402Y-112758433D01*
X163552402Y-112856933D01*
X163552402Y-112856935D01*
X163552403Y-112856936D01*
X163590096Y-112947936D01*
X163590098Y-112947939D01*
X163659744Y-113017585D01*
X163659746Y-113017586D01*
X163659747Y-113017587D01*
X163750750Y-113055281D01*
X163849248Y-113055281D01*
X163849250Y-113055281D01*
X163940253Y-113017587D01*
X163940254Y-113017585D01*
X163940256Y-113017585D01*
X164009902Y-112947939D01*
X164009902Y-112947938D01*
X164009904Y-112947936D01*
X164047598Y-112856933D01*
X164050000Y-112807683D01*
X164047598Y-112758433D01*
X164009904Y-112667430D01*
X164009902Y-112667428D01*
X164009902Y-112667427D01*
X163940256Y-112597781D01*
X163940253Y-112597779D01*
X163849253Y-112560086D01*
X163849251Y-112560085D01*
X163849250Y-112560085D01*
X163849248Y-112560085D01*
X163750752Y-112560085D01*
X163750750Y-112560085D01*
X163750748Y-112560085D01*
X163750746Y-112560086D01*
X163659746Y-112597779D01*
X163590096Y-112667429D01*
X163552403Y-112758429D01*
X163552402Y-112758431D01*
X155917583Y-112758431D01*
X156012362Y-112663652D01*
X156012362Y-112663651D01*
X156012364Y-112663649D01*
X156050500Y-112571580D01*
X156050500Y-112471924D01*
X156050500Y-111450172D01*
X156012364Y-111358103D01*
X156012362Y-111358101D01*
X156012362Y-111358100D01*
X155941897Y-111287636D01*
X155889852Y-111235591D01*
X155875500Y-111200943D01*
X155875500Y-110924500D01*
X155889852Y-110889852D01*
X155924500Y-110875500D01*
X156200943Y-110875500D01*
X156235591Y-110889852D01*
X156330708Y-110984969D01*
X156345060Y-111019617D01*
X156344819Y-111022693D01*
X156344819Y-111024999D01*
X156344819Y-111025000D01*
X156363426Y-111142482D01*
X156363426Y-111142483D01*
X156363427Y-111142484D01*
X156417422Y-111248458D01*
X156417427Y-111248465D01*
X156501534Y-111332572D01*
X156501541Y-111332577D01*
X156559946Y-111362335D01*
X156607518Y-111386574D01*
X156725000Y-111405181D01*
X156842482Y-111386574D01*
X156929014Y-111342484D01*
X156948458Y-111332577D01*
X156948460Y-111332575D01*
X156948465Y-111332573D01*
X157032573Y-111248465D01*
X157038230Y-111237364D01*
X157049120Y-111215988D01*
X157086574Y-111142482D01*
X157105181Y-111025000D01*
X157086574Y-110907518D01*
X157067768Y-110870609D01*
X157032577Y-110801541D01*
X157032572Y-110801534D01*
X156948465Y-110717427D01*
X156948460Y-110717423D01*
X156877254Y-110681142D01*
X156852898Y-110652625D01*
X156850500Y-110637483D01*
X156850500Y-110410180D01*
X156850499Y-110410176D01*
X156850360Y-110409479D01*
X156841767Y-110366278D01*
X156825002Y-110341187D01*
X156808504Y-110316495D01*
X156758721Y-110283232D01*
X156714823Y-110274500D01*
X156714820Y-110274500D01*
X155835180Y-110274500D01*
X155835176Y-110274500D01*
X155791278Y-110283232D01*
X155741495Y-110316495D01*
X155708232Y-110366278D01*
X155699500Y-110410176D01*
X155699500Y-110650500D01*
X155685148Y-110685148D01*
X155650500Y-110699500D01*
X155410176Y-110699500D01*
X155366279Y-110708232D01*
X155352220Y-110717625D01*
X155315438Y-110724939D01*
X155297780Y-110717625D01*
X155286636Y-110710180D01*
X155283722Y-110708233D01*
X155283721Y-110708232D01*
X155283720Y-110708232D01*
X155239823Y-110699500D01*
X155239820Y-110699500D01*
X154910180Y-110699500D01*
X154910176Y-110699500D01*
X154866279Y-110708232D01*
X154852220Y-110717625D01*
X154815438Y-110724939D01*
X154797780Y-110717625D01*
X154786636Y-110710180D01*
X154783722Y-110708233D01*
X154783721Y-110708232D01*
X154783720Y-110708232D01*
X154739823Y-110699500D01*
X154739820Y-110699500D01*
X154410180Y-110699500D01*
X154410176Y-110699500D01*
X154366279Y-110708232D01*
X154352220Y-110717625D01*
X154315438Y-110724939D01*
X154297780Y-110717625D01*
X154286636Y-110710180D01*
X154283722Y-110708233D01*
X154283721Y-110708232D01*
X154283720Y-110708232D01*
X154239823Y-110699500D01*
X154239820Y-110699500D01*
X153910180Y-110699500D01*
X153910176Y-110699500D01*
X153866279Y-110708232D01*
X153852220Y-110717625D01*
X153815438Y-110724939D01*
X153797780Y-110717625D01*
X153786636Y-110710180D01*
X153783722Y-110708233D01*
X153783721Y-110708232D01*
X153783720Y-110708232D01*
X153739823Y-110699500D01*
X153739820Y-110699500D01*
X153410180Y-110699500D01*
X153410176Y-110699500D01*
X153366278Y-110708232D01*
X153316495Y-110741495D01*
X153283232Y-110791278D01*
X153274500Y-110835176D01*
X153274500Y-111714823D01*
X153283232Y-111758721D01*
X153316495Y-111808504D01*
X153355893Y-111834828D01*
X153366278Y-111841767D01*
X153410180Y-111850500D01*
X153725500Y-111850500D01*
X153760148Y-111864852D01*
X153774500Y-111899500D01*
X153774500Y-111954303D01*
X153760148Y-111988951D01*
X153745294Y-111999127D01*
X153717982Y-112011187D01*
X153641187Y-112087982D01*
X153597318Y-112187335D01*
X153597316Y-112187341D01*
X153594501Y-112211609D01*
X153594500Y-112211629D01*
X153594500Y-112480942D01*
X153580148Y-112515590D01*
X153375591Y-112720148D01*
X153340943Y-112734500D01*
X151109057Y-112734500D01*
X151074409Y-112720148D01*
X150619291Y-112265030D01*
X150604939Y-112230382D01*
X150605181Y-112227312D01*
X150605181Y-112225001D01*
X150602290Y-112206749D01*
X150586574Y-112107518D01*
X150551544Y-112038767D01*
X150532577Y-112001541D01*
X150532572Y-112001534D01*
X150448465Y-111917427D01*
X150448458Y-111917422D01*
X150342484Y-111863427D01*
X150342483Y-111863426D01*
X150342482Y-111863426D01*
X150225000Y-111844819D01*
X150107518Y-111863426D01*
X150107516Y-111863426D01*
X150107515Y-111863427D01*
X150001540Y-111917423D01*
X150001533Y-111917428D01*
X150001078Y-111917884D01*
X150000679Y-111918048D01*
X149998417Y-111919693D01*
X149998021Y-111919149D01*
X149966427Y-111932230D01*
X149931781Y-111917873D01*
X149921610Y-111903022D01*
X149909615Y-111875857D01*
X149834142Y-111800384D01*
X149736500Y-111757270D01*
X149736494Y-111757268D01*
X149712640Y-111754501D01*
X149712625Y-111754500D01*
X149712623Y-111754500D01*
X149712620Y-111754500D01*
X149709458Y-111754500D01*
X149674810Y-111740148D01*
X149660458Y-111705500D01*
X149665798Y-111683256D01*
X149686574Y-111642482D01*
X149705181Y-111525000D01*
X149686574Y-111407518D01*
X149663552Y-111362335D01*
X149632577Y-111301541D01*
X149632572Y-111301534D01*
X149590686Y-111259648D01*
X149576334Y-111225000D01*
X149590686Y-111190352D01*
X149606911Y-111174127D01*
X149632573Y-111148465D01*
X149633319Y-111147002D01*
X149652777Y-111108812D01*
X149686574Y-111042482D01*
X149705181Y-110925000D01*
X149686574Y-110807518D01*
X149661928Y-110759148D01*
X149655609Y-110746745D01*
X149652666Y-110709358D01*
X149677023Y-110680841D01*
X149699268Y-110675500D01*
X149739820Y-110675500D01*
X149783722Y-110666767D01*
X149833504Y-110633504D01*
X149866767Y-110583722D01*
X149875500Y-110539820D01*
X149875500Y-110338874D01*
X149889852Y-110304226D01*
X149924500Y-110289874D01*
X149932157Y-110290476D01*
X150025000Y-110305181D01*
X150142482Y-110286574D01*
X150215012Y-110249617D01*
X150248460Y-110232576D01*
X150248462Y-110232574D01*
X150248465Y-110232573D01*
X150290352Y-110190684D01*
X150325000Y-110176332D01*
X150359648Y-110190683D01*
X150401537Y-110232572D01*
X150401544Y-110232577D01*
X150472193Y-110268573D01*
X150507521Y-110286574D01*
X150625003Y-110305181D01*
X150625004Y-110305180D01*
X150625005Y-110305181D01*
X150625006Y-110305181D01*
X150641371Y-110302588D01*
X150648330Y-110301486D01*
X150674746Y-110304611D01*
X150712928Y-110320427D01*
X150739446Y-110346946D01*
X150739446Y-110384449D01*
X150728825Y-110400344D01*
X150711187Y-110417982D01*
X150667318Y-110517335D01*
X150667316Y-110517341D01*
X150664501Y-110541609D01*
X150664500Y-110541629D01*
X150664500Y-110908367D01*
X150664501Y-110908374D01*
X150667318Y-110932663D01*
X150711187Y-111032017D01*
X150787982Y-111108812D01*
X150787983Y-111108812D01*
X150787984Y-111108813D01*
X150807622Y-111117484D01*
X150887335Y-111152681D01*
X150887341Y-111152683D01*
X150911609Y-111155498D01*
X150911610Y-111155498D01*
X150911627Y-111155500D01*
X151338372Y-111155499D01*
X151362662Y-111152682D01*
X151462016Y-111108813D01*
X151538813Y-111032016D01*
X151582682Y-110932662D01*
X151582682Y-110932660D01*
X151582683Y-110932658D01*
X151585498Y-110908390D01*
X151585500Y-110908370D01*
X151585500Y-110874500D01*
X151599852Y-110839852D01*
X151634500Y-110825500D01*
X151814653Y-110825500D01*
X151841876Y-110833758D01*
X151891278Y-110866767D01*
X151935180Y-110875500D01*
X152025165Y-110875500D01*
X152059813Y-110889852D01*
X152074165Y-110924500D01*
X152059814Y-110959148D01*
X152017425Y-111001537D01*
X152017422Y-111001541D01*
X151963427Y-111107515D01*
X151963426Y-111107516D01*
X151963426Y-111107518D01*
X151944819Y-111225000D01*
X151963426Y-111342482D01*
X151963426Y-111342483D01*
X151963427Y-111342484D01*
X152017422Y-111448458D01*
X152017427Y-111448465D01*
X152101534Y-111532572D01*
X152101541Y-111532577D01*
X152172190Y-111568573D01*
X152207518Y-111586574D01*
X152325000Y-111605181D01*
X152442482Y-111586574D01*
X152517929Y-111548132D01*
X152548458Y-111532577D01*
X152548460Y-111532575D01*
X152548465Y-111532573D01*
X152632573Y-111448465D01*
X152640669Y-111432577D01*
X152649700Y-111414852D01*
X152686574Y-111342482D01*
X152705181Y-111225000D01*
X152686574Y-111107518D01*
X152644529Y-111025000D01*
X152630840Y-110998133D01*
X152625500Y-110975888D01*
X152625500Y-110924500D01*
X152639852Y-110889852D01*
X152674500Y-110875500D01*
X152814820Y-110875500D01*
X152858722Y-110866767D01*
X152908504Y-110833504D01*
X152941767Y-110783722D01*
X152950500Y-110739820D01*
X152950500Y-110410180D01*
X152941767Y-110366278D01*
X152932374Y-110352221D01*
X152925058Y-110315441D01*
X152932373Y-110297780D01*
X152941767Y-110283722D01*
X152950500Y-110239820D01*
X152950500Y-109910180D01*
X152941767Y-109866278D01*
X152932374Y-109852221D01*
X152925058Y-109815441D01*
X152932373Y-109797780D01*
X152941767Y-109783722D01*
X152950500Y-109739820D01*
X152950500Y-109410180D01*
X152941767Y-109366278D01*
X152932374Y-109352220D01*
X152925058Y-109315441D01*
X152932373Y-109297780D01*
X152941767Y-109283722D01*
X152950500Y-109239820D01*
X152950500Y-108910180D01*
X152950499Y-108910176D01*
X155699500Y-108910176D01*
X155699500Y-109239823D01*
X155708232Y-109283721D01*
X155741495Y-109333504D01*
X155788542Y-109364939D01*
X155791278Y-109366767D01*
X155835180Y-109375500D01*
X156714820Y-109375500D01*
X156758722Y-109366767D01*
X156808124Y-109333758D01*
X156835347Y-109325500D01*
X157293438Y-109325500D01*
X157328086Y-109339852D01*
X157341496Y-109364939D01*
X157345232Y-109383721D01*
X157378495Y-109433504D01*
X157401189Y-109448667D01*
X157428278Y-109466767D01*
X157472180Y-109475500D01*
X158101820Y-109475500D01*
X158145722Y-109466767D01*
X158195504Y-109433504D01*
X158228767Y-109383722D01*
X158237500Y-109339820D01*
X158237500Y-108710180D01*
X158237499Y-108710176D01*
X158562500Y-108710176D01*
X158562500Y-109339823D01*
X158571232Y-109383721D01*
X158604495Y-109433504D01*
X158627189Y-109448667D01*
X158654278Y-109466767D01*
X158698180Y-109475500D01*
X159327820Y-109475500D01*
X159371722Y-109466767D01*
X159421504Y-109433504D01*
X159454767Y-109383722D01*
X159460733Y-109353729D01*
X159481568Y-109322548D01*
X159511996Y-109314395D01*
X159538209Y-109316113D01*
X159544543Y-109316946D01*
X159775550Y-109362896D01*
X159781711Y-109364546D01*
X160004739Y-109440255D01*
X160010651Y-109442704D01*
X160221878Y-109546870D01*
X160227413Y-109550065D01*
X160392163Y-109660148D01*
X160423234Y-109680909D01*
X160428319Y-109684811D01*
X160460049Y-109712637D01*
X160582266Y-109819819D01*
X160605379Y-109840088D01*
X160609911Y-109844620D01*
X160765188Y-110021680D01*
X160769090Y-110026765D01*
X160812609Y-110091895D01*
X160898187Y-110219972D01*
X160899929Y-110222578D01*
X160903132Y-110228126D01*
X160930308Y-110283232D01*
X161007293Y-110439344D01*
X161009746Y-110445265D01*
X161085447Y-110668273D01*
X161087105Y-110674465D01*
X161118230Y-110830941D01*
X161110914Y-110867723D01*
X161079731Y-110888558D01*
X161070172Y-110889500D01*
X160335176Y-110889500D01*
X160291278Y-110898232D01*
X160241495Y-110931495D01*
X160208232Y-110981278D01*
X160199500Y-111025176D01*
X160199500Y-112054823D01*
X160208232Y-112098721D01*
X160241495Y-112148504D01*
X160282846Y-112176133D01*
X160291278Y-112181767D01*
X160335180Y-112190500D01*
X162664820Y-112190500D01*
X162708722Y-112181767D01*
X162758504Y-112148504D01*
X162791767Y-112098722D01*
X162800500Y-112054820D01*
X162800500Y-111912278D01*
X163552402Y-111912278D01*
X163552402Y-111912280D01*
X163552402Y-112010780D01*
X163552402Y-112010782D01*
X163552403Y-112010783D01*
X163590096Y-112101783D01*
X163590098Y-112101786D01*
X163659744Y-112171432D01*
X163659746Y-112171433D01*
X163659747Y-112171434D01*
X163750750Y-112209128D01*
X163849248Y-112209128D01*
X163849250Y-112209128D01*
X163940253Y-112171434D01*
X163940254Y-112171432D01*
X163940256Y-112171432D01*
X164009902Y-112101786D01*
X164009902Y-112101785D01*
X164009904Y-112101783D01*
X164047598Y-112010780D01*
X164050000Y-111961530D01*
X164047598Y-111912280D01*
X164036010Y-111884303D01*
X164849500Y-111884303D01*
X164849500Y-113015696D01*
X164852401Y-113052567D01*
X164852401Y-113052569D01*
X164898256Y-113210399D01*
X164943308Y-113286577D01*
X164981919Y-113351865D01*
X165098135Y-113468081D01*
X165239600Y-113551743D01*
X165239601Y-113551743D01*
X165239602Y-113551744D01*
X165397431Y-113597598D01*
X165434306Y-113600500D01*
X165434317Y-113600500D01*
X172565683Y-113600500D01*
X172565694Y-113600500D01*
X172602569Y-113597598D01*
X172760398Y-113551744D01*
X172901865Y-113468081D01*
X173018081Y-113351865D01*
X173101744Y-113210398D01*
X173147598Y-113052569D01*
X173150500Y-113015694D01*
X173150500Y-111884306D01*
X173147598Y-111847431D01*
X173146485Y-111843601D01*
X173121825Y-111758721D01*
X173101744Y-111689602D01*
X173094418Y-111677215D01*
X173018082Y-111548137D01*
X173018081Y-111548135D01*
X172901865Y-111431919D01*
X172885561Y-111422277D01*
X172760398Y-111348256D01*
X172760400Y-111348256D01*
X172602568Y-111302401D01*
X172565696Y-111299500D01*
X172565694Y-111299500D01*
X165434306Y-111299500D01*
X165434303Y-111299500D01*
X165397432Y-111302401D01*
X165397430Y-111302401D01*
X165239600Y-111348256D01*
X165098137Y-111431917D01*
X165098132Y-111431921D01*
X164981921Y-111548132D01*
X164981917Y-111548137D01*
X164898256Y-111689600D01*
X164852401Y-111847430D01*
X164852401Y-111847432D01*
X164849500Y-111884303D01*
X164036010Y-111884303D01*
X164009904Y-111821277D01*
X164009902Y-111821275D01*
X164009902Y-111821274D01*
X163940256Y-111751628D01*
X163940253Y-111751626D01*
X163849253Y-111713933D01*
X163849251Y-111713932D01*
X163849250Y-111713932D01*
X163849248Y-111713932D01*
X163750752Y-111713932D01*
X163750750Y-111713932D01*
X163750748Y-111713932D01*
X163750746Y-111713933D01*
X163659746Y-111751626D01*
X163590096Y-111821276D01*
X163552403Y-111912276D01*
X163552402Y-111912278D01*
X162800500Y-111912278D01*
X162800500Y-111066125D01*
X163552402Y-111066125D01*
X163552402Y-111066127D01*
X163552402Y-111164627D01*
X163552402Y-111164629D01*
X163552403Y-111164630D01*
X163590096Y-111255630D01*
X163590098Y-111255633D01*
X163659744Y-111325279D01*
X163659746Y-111325280D01*
X163659747Y-111325281D01*
X163750750Y-111362975D01*
X163849248Y-111362975D01*
X163849250Y-111362975D01*
X163940253Y-111325281D01*
X163940254Y-111325279D01*
X163940256Y-111325279D01*
X164009902Y-111255633D01*
X164009902Y-111255632D01*
X164009904Y-111255630D01*
X164047598Y-111164627D01*
X164050000Y-111115377D01*
X164047598Y-111066127D01*
X164009904Y-110975124D01*
X164009902Y-110975122D01*
X164009902Y-110975121D01*
X163940256Y-110905475D01*
X163940253Y-110905473D01*
X163849253Y-110867780D01*
X163849251Y-110867779D01*
X163849250Y-110867779D01*
X163849248Y-110867779D01*
X163750752Y-110867779D01*
X163750750Y-110867779D01*
X163750748Y-110867779D01*
X163750746Y-110867780D01*
X163659746Y-110905473D01*
X163590096Y-110975123D01*
X163552403Y-111066123D01*
X163552402Y-111066125D01*
X162800500Y-111066125D01*
X162800500Y-111025180D01*
X162791767Y-110981278D01*
X162777255Y-110959559D01*
X162758504Y-110931495D01*
X162708721Y-110898232D01*
X162664823Y-110889500D01*
X162664820Y-110889500D01*
X161780278Y-110889500D01*
X161745630Y-110875148D01*
X161731635Y-110846407D01*
X161731442Y-110844814D01*
X161714766Y-110707478D01*
X161643820Y-110419636D01*
X161568097Y-110219972D01*
X163552402Y-110219972D01*
X163552402Y-110219974D01*
X163552402Y-110318474D01*
X163552402Y-110318476D01*
X163552403Y-110318477D01*
X163590096Y-110409477D01*
X163590098Y-110409480D01*
X163659744Y-110479126D01*
X163659746Y-110479127D01*
X163659747Y-110479128D01*
X163750750Y-110516822D01*
X163849248Y-110516822D01*
X163849250Y-110516822D01*
X163940253Y-110479128D01*
X163940254Y-110479126D01*
X163940256Y-110479126D01*
X164009902Y-110409480D01*
X164009902Y-110409479D01*
X164009904Y-110409477D01*
X164047598Y-110318474D01*
X164050000Y-110269224D01*
X164047598Y-110219974D01*
X164009904Y-110128971D01*
X164009902Y-110128969D01*
X164009902Y-110128968D01*
X163940256Y-110059322D01*
X163940253Y-110059320D01*
X163849253Y-110021627D01*
X163849251Y-110021626D01*
X163849250Y-110021626D01*
X163849248Y-110021626D01*
X163750752Y-110021626D01*
X163750750Y-110021626D01*
X163750748Y-110021626D01*
X163750746Y-110021627D01*
X163659746Y-110059320D01*
X163590096Y-110128970D01*
X163552403Y-110219970D01*
X163552402Y-110219972D01*
X161568097Y-110219972D01*
X161538695Y-110142445D01*
X161400925Y-109879947D01*
X161395776Y-109872488D01*
X161265882Y-109684303D01*
X164849500Y-109684303D01*
X164849500Y-110315696D01*
X164852401Y-110352567D01*
X164852401Y-110352569D01*
X164898256Y-110510399D01*
X164981112Y-110650500D01*
X164981919Y-110651865D01*
X165098135Y-110768081D01*
X165239600Y-110851743D01*
X165239601Y-110851743D01*
X165239602Y-110851744D01*
X165397431Y-110897598D01*
X165434306Y-110900500D01*
X165434317Y-110900500D01*
X171565683Y-110900500D01*
X171565694Y-110900500D01*
X171602569Y-110897598D01*
X171760398Y-110851744D01*
X171901865Y-110768081D01*
X172018081Y-110651865D01*
X172101744Y-110510398D01*
X172147598Y-110352569D01*
X172150500Y-110315694D01*
X172150500Y-109684306D01*
X172147598Y-109647431D01*
X172146388Y-109643267D01*
X172119312Y-109550070D01*
X172101744Y-109489602D01*
X172096214Y-109480252D01*
X172059912Y-109418868D01*
X172018081Y-109348135D01*
X171901865Y-109231919D01*
X171880953Y-109219552D01*
X171760398Y-109148256D01*
X171760400Y-109148256D01*
X171602568Y-109102401D01*
X171565696Y-109099500D01*
X171565694Y-109099500D01*
X165434306Y-109099500D01*
X165434303Y-109099500D01*
X165397432Y-109102401D01*
X165397430Y-109102401D01*
X165239600Y-109148256D01*
X165098137Y-109231917D01*
X165098132Y-109231921D01*
X164981921Y-109348132D01*
X164981917Y-109348137D01*
X164898256Y-109489600D01*
X164852401Y-109647430D01*
X164852401Y-109647432D01*
X164849500Y-109684303D01*
X161265882Y-109684303D01*
X161232522Y-109635972D01*
X161232515Y-109635963D01*
X161156420Y-109550070D01*
X161035932Y-109414068D01*
X160990500Y-109373819D01*
X163552402Y-109373819D01*
X163552402Y-109373821D01*
X163552402Y-109472321D01*
X163552402Y-109472323D01*
X163552403Y-109472324D01*
X163590096Y-109563324D01*
X163590098Y-109563327D01*
X163659744Y-109632973D01*
X163659746Y-109632974D01*
X163659747Y-109632975D01*
X163750750Y-109670669D01*
X163849248Y-109670669D01*
X163849250Y-109670669D01*
X163940253Y-109632975D01*
X163940254Y-109632973D01*
X163940256Y-109632973D01*
X164009902Y-109563327D01*
X164009902Y-109563326D01*
X164009904Y-109563324D01*
X164047598Y-109472321D01*
X164050000Y-109423071D01*
X164047598Y-109373821D01*
X164009904Y-109282818D01*
X164009902Y-109282816D01*
X164009902Y-109282815D01*
X163940256Y-109213169D01*
X163940253Y-109213167D01*
X163849253Y-109175474D01*
X163849251Y-109175473D01*
X163849250Y-109175473D01*
X163849248Y-109175473D01*
X163750752Y-109175473D01*
X163750750Y-109175473D01*
X163750748Y-109175473D01*
X163750746Y-109175474D01*
X163659746Y-109213167D01*
X163590096Y-109282817D01*
X163552403Y-109373817D01*
X163552402Y-109373819D01*
X160990500Y-109373819D01*
X160882603Y-109278230D01*
X160814036Y-109217484D01*
X160814027Y-109217477D01*
X160570064Y-109049082D01*
X160570059Y-109049079D01*
X160570053Y-109049075D01*
X160307555Y-108911305D01*
X160291407Y-108905181D01*
X160215347Y-108876335D01*
X160030364Y-108806180D01*
X160030361Y-108806179D01*
X160030358Y-108806178D01*
X159742526Y-108735235D01*
X159742524Y-108735234D01*
X159496928Y-108705412D01*
X159464263Y-108686988D01*
X159456772Y-108670672D01*
X159456614Y-108670738D01*
X159454878Y-108666548D01*
X159454776Y-108666325D01*
X159454767Y-108666278D01*
X159454420Y-108665759D01*
X159421504Y-108616495D01*
X159371721Y-108583232D01*
X159327823Y-108574500D01*
X159327820Y-108574500D01*
X158698180Y-108574500D01*
X158698176Y-108574500D01*
X158654278Y-108583232D01*
X158604495Y-108616495D01*
X158571232Y-108666278D01*
X158562500Y-108710176D01*
X158237499Y-108710176D01*
X158228767Y-108666278D01*
X158228420Y-108665759D01*
X158195504Y-108616495D01*
X158145721Y-108583232D01*
X158101823Y-108574500D01*
X158101820Y-108574500D01*
X157472180Y-108574500D01*
X157472176Y-108574500D01*
X157428278Y-108583232D01*
X157378495Y-108616495D01*
X157345232Y-108666278D01*
X157336500Y-108710176D01*
X157336500Y-108775500D01*
X157322148Y-108810148D01*
X157287500Y-108824500D01*
X156835347Y-108824500D01*
X156808124Y-108816242D01*
X156778980Y-108796769D01*
X156758722Y-108783233D01*
X156758721Y-108783232D01*
X156758720Y-108783232D01*
X156714823Y-108774500D01*
X156714820Y-108774500D01*
X155835180Y-108774500D01*
X155835176Y-108774500D01*
X155791278Y-108783232D01*
X155741495Y-108816495D01*
X155708232Y-108866278D01*
X155699500Y-108910176D01*
X152950499Y-108910176D01*
X152941767Y-108866278D01*
X152932374Y-108852221D01*
X152925058Y-108815441D01*
X152932373Y-108797780D01*
X152941767Y-108783722D01*
X152950500Y-108739820D01*
X152950500Y-108527666D01*
X163552402Y-108527666D01*
X163552402Y-108527668D01*
X163552402Y-108626168D01*
X163552402Y-108626170D01*
X163552403Y-108626171D01*
X163590096Y-108717171D01*
X163590098Y-108717174D01*
X163659744Y-108786820D01*
X163659746Y-108786821D01*
X163659747Y-108786822D01*
X163750750Y-108824516D01*
X163849248Y-108824516D01*
X163849250Y-108824516D01*
X163940253Y-108786822D01*
X163940254Y-108786820D01*
X163940256Y-108786820D01*
X164009902Y-108717174D01*
X164009902Y-108717173D01*
X164009904Y-108717171D01*
X164047598Y-108626168D01*
X164050000Y-108576918D01*
X164047598Y-108527668D01*
X164009904Y-108436665D01*
X164009902Y-108436663D01*
X164009902Y-108436662D01*
X163940256Y-108367016D01*
X163940253Y-108367014D01*
X163849253Y-108329321D01*
X163849251Y-108329320D01*
X163849250Y-108329320D01*
X163849248Y-108329320D01*
X163750752Y-108329320D01*
X163750750Y-108329320D01*
X163750748Y-108329320D01*
X163750746Y-108329321D01*
X163659746Y-108367014D01*
X163590096Y-108436664D01*
X163552403Y-108527664D01*
X163552402Y-108527666D01*
X152950500Y-108527666D01*
X152950500Y-108410180D01*
X152941767Y-108366278D01*
X152932374Y-108352221D01*
X152925058Y-108315441D01*
X152932373Y-108297780D01*
X152941767Y-108283722D01*
X152950500Y-108239820D01*
X152950500Y-107999500D01*
X152964852Y-107964852D01*
X152999500Y-107950500D01*
X153239820Y-107950500D01*
X153283722Y-107941767D01*
X153333504Y-107908504D01*
X153366767Y-107858722D01*
X153375500Y-107814820D01*
X153375500Y-106935180D01*
X153366767Y-106891278D01*
X153362313Y-106884612D01*
X153333504Y-106841495D01*
X153283721Y-106808232D01*
X153239823Y-106799500D01*
X153239820Y-106799500D01*
X152910180Y-106799500D01*
X152904300Y-106800669D01*
X152888807Y-106803751D01*
X152852025Y-106796433D01*
X152844601Y-106790340D01*
X152605883Y-106551622D01*
X152591531Y-106516974D01*
X152605883Y-106482326D01*
X152630970Y-106468916D01*
X152671521Y-106460850D01*
X152755043Y-106405043D01*
X152810850Y-106321521D01*
X152825500Y-106247870D01*
X152825500Y-105552130D01*
X152810850Y-105478479D01*
X152785075Y-105439904D01*
X152755043Y-105394956D01*
X152671521Y-105339150D01*
X152597870Y-105324500D01*
X151802130Y-105324500D01*
X151746891Y-105335487D01*
X151728478Y-105339150D01*
X151644956Y-105394956D01*
X151589150Y-105478478D01*
X151586315Y-105492730D01*
X151574500Y-105552130D01*
X151574500Y-106247870D01*
X151579797Y-106274500D01*
X151585786Y-106304610D01*
X151578469Y-106341393D01*
X151547286Y-106362228D01*
X151510503Y-106354911D01*
X151503079Y-106348817D01*
X151466900Y-106312638D01*
X151466898Y-106312637D01*
X151466897Y-106312636D01*
X151412965Y-106290296D01*
X151374829Y-106274500D01*
X151374828Y-106274500D01*
X151025834Y-106274500D01*
X150991186Y-106260148D01*
X150948465Y-106217427D01*
X150948458Y-106217422D01*
X150842484Y-106163427D01*
X150842483Y-106163426D01*
X150842482Y-106163426D01*
X150725000Y-106144819D01*
X150607518Y-106163426D01*
X150607516Y-106163426D01*
X150607515Y-106163427D01*
X150501541Y-106217422D01*
X150501534Y-106217427D01*
X150417427Y-106301534D01*
X150417422Y-106301541D01*
X150363427Y-106407515D01*
X150363426Y-106407516D01*
X150363426Y-106407518D01*
X150344819Y-106525000D01*
X150363426Y-106642482D01*
X150363426Y-106642483D01*
X150363427Y-106642484D01*
X150417422Y-106748458D01*
X150417427Y-106748465D01*
X150501534Y-106832572D01*
X150501541Y-106832577D01*
X150565867Y-106865352D01*
X150607518Y-106886574D01*
X150725000Y-106905181D01*
X150842482Y-106886574D01*
X150915988Y-106849120D01*
X150948458Y-106832577D01*
X150948460Y-106832575D01*
X150948465Y-106832573D01*
X150991186Y-106789852D01*
X151025834Y-106775500D01*
X151200943Y-106775500D01*
X151235591Y-106789852D01*
X152110148Y-107664409D01*
X152124500Y-107699057D01*
X152124500Y-107725500D01*
X152110148Y-107760148D01*
X152075500Y-107774500D01*
X151935180Y-107774500D01*
X151917986Y-107777920D01*
X151912150Y-107779081D01*
X151875367Y-107771764D01*
X151858932Y-107753268D01*
X151832573Y-107701535D01*
X151748465Y-107617427D01*
X151748458Y-107617422D01*
X151642484Y-107563427D01*
X151642483Y-107563426D01*
X151642482Y-107563426D01*
X151525000Y-107544819D01*
X151407518Y-107563426D01*
X151407516Y-107563426D01*
X151407515Y-107563427D01*
X151301541Y-107617422D01*
X151301534Y-107617427D01*
X151258814Y-107660148D01*
X151224166Y-107674500D01*
X151075170Y-107674500D01*
X151009889Y-107701541D01*
X150989033Y-107710180D01*
X150983101Y-107712637D01*
X150983099Y-107712638D01*
X150805589Y-107890148D01*
X150770941Y-107904500D01*
X150497382Y-107904500D01*
X150497375Y-107904501D01*
X150473499Y-107907270D01*
X150465250Y-107910913D01*
X150427757Y-107911777D01*
X150400634Y-107885877D01*
X150397065Y-107873761D01*
X150386574Y-107807518D01*
X150372085Y-107779081D01*
X150332577Y-107701541D01*
X150332572Y-107701534D01*
X150290686Y-107659648D01*
X150276334Y-107625000D01*
X150290686Y-107590352D01*
X150302808Y-107578230D01*
X150332573Y-107548465D01*
X150336977Y-107539823D01*
X150365844Y-107483167D01*
X150386574Y-107442482D01*
X150405181Y-107325000D01*
X150386574Y-107207518D01*
X150358400Y-107152223D01*
X150332577Y-107101541D01*
X150332572Y-107101534D01*
X150248465Y-107017427D01*
X150248458Y-107017422D01*
X150142484Y-106963427D01*
X150142483Y-106963426D01*
X150142482Y-106963426D01*
X150025000Y-106944819D01*
X150024999Y-106944819D01*
X149932165Y-106959522D01*
X149895698Y-106950767D01*
X149876103Y-106918790D01*
X149875500Y-106911125D01*
X149875500Y-106710180D01*
X149875499Y-106710176D01*
X149866767Y-106666278D01*
X149833504Y-106616495D01*
X149783721Y-106583232D01*
X149739823Y-106574500D01*
X149739820Y-106574500D01*
X149738874Y-106574500D01*
X149738578Y-106574377D01*
X149737424Y-106574264D01*
X149737458Y-106573913D01*
X149704226Y-106560148D01*
X149689874Y-106525500D01*
X149690476Y-106517842D01*
X149705181Y-106425000D01*
X149686574Y-106307518D01*
X149665110Y-106265393D01*
X149632577Y-106201541D01*
X149632572Y-106201534D01*
X149548465Y-106117427D01*
X149548458Y-106117422D01*
X149442484Y-106063427D01*
X149442483Y-106063426D01*
X149442482Y-106063426D01*
X149325000Y-106044819D01*
X149207518Y-106063426D01*
X149207516Y-106063426D01*
X149207515Y-106063427D01*
X149101541Y-106117422D01*
X149101534Y-106117427D01*
X149017427Y-106201534D01*
X149017422Y-106201541D01*
X148968159Y-106298228D01*
X148939642Y-106322585D01*
X148902255Y-106319642D01*
X148877898Y-106291125D01*
X148875500Y-106275983D01*
X148875500Y-105710180D01*
X148875499Y-105710176D01*
X148873073Y-105697982D01*
X148866767Y-105666278D01*
X148833758Y-105616876D01*
X148825500Y-105589653D01*
X148825500Y-105534499D01*
X148839852Y-105499851D01*
X148874500Y-105485499D01*
X149128368Y-105485499D01*
X149128372Y-105485499D01*
X149152662Y-105482682D01*
X149252016Y-105438813D01*
X149328813Y-105362016D01*
X149372682Y-105262662D01*
X149372682Y-105262660D01*
X149372683Y-105262658D01*
X149375498Y-105238390D01*
X149375497Y-105238390D01*
X149375500Y-105238373D01*
X149375499Y-104969055D01*
X149389850Y-104934409D01*
X149660004Y-104664254D01*
X149660007Y-104664253D01*
X149666896Y-104657364D01*
X149666897Y-104657364D01*
X149737364Y-104586897D01*
X149775500Y-104494828D01*
X149775500Y-104402130D01*
X153024500Y-104402130D01*
X153024500Y-105097870D01*
X153035168Y-105151500D01*
X153039150Y-105171521D01*
X153094956Y-105255043D01*
X153134680Y-105281585D01*
X153178479Y-105310850D01*
X153252130Y-105325500D01*
X153252133Y-105325500D01*
X154050278Y-105325500D01*
X154050278Y-105326956D01*
X154081950Y-105336547D01*
X154085532Y-105339792D01*
X154160148Y-105414408D01*
X154174500Y-105449056D01*
X154174500Y-106305968D01*
X154160148Y-106340616D01*
X153862637Y-106638127D01*
X153862636Y-106638128D01*
X153862636Y-106638129D01*
X153860833Y-106642482D01*
X153824500Y-106730196D01*
X153824500Y-106814653D01*
X153816242Y-106841876D01*
X153783232Y-106891279D01*
X153774500Y-106935176D01*
X153774500Y-107814823D01*
X153783232Y-107858721D01*
X153816495Y-107908504D01*
X153860392Y-107937834D01*
X153866278Y-107941767D01*
X153910180Y-107950500D01*
X154239820Y-107950500D01*
X154283722Y-107941767D01*
X154297778Y-107932374D01*
X154334559Y-107925058D01*
X154352219Y-107932373D01*
X154366278Y-107941767D01*
X154410180Y-107950500D01*
X154739820Y-107950500D01*
X154783722Y-107941767D01*
X154797778Y-107932374D01*
X154834559Y-107925058D01*
X154852219Y-107932373D01*
X154866278Y-107941767D01*
X154910180Y-107950500D01*
X155239820Y-107950500D01*
X155283722Y-107941767D01*
X155297778Y-107932374D01*
X155334559Y-107925058D01*
X155352219Y-107932373D01*
X155366278Y-107941767D01*
X155410180Y-107950500D01*
X155739820Y-107950500D01*
X155783722Y-107941767D01*
X155833504Y-107908504D01*
X155866767Y-107858722D01*
X155875500Y-107814820D01*
X155875500Y-107681513D01*
X163552402Y-107681513D01*
X163552402Y-107681515D01*
X163552402Y-107780015D01*
X163552402Y-107780017D01*
X163552403Y-107780018D01*
X163590096Y-107871018D01*
X163590098Y-107871021D01*
X163659744Y-107940667D01*
X163659746Y-107940668D01*
X163659747Y-107940669D01*
X163750750Y-107978363D01*
X163849248Y-107978363D01*
X163849250Y-107978363D01*
X163940253Y-107940669D01*
X163940254Y-107940667D01*
X163940256Y-107940667D01*
X164009902Y-107871021D01*
X164009902Y-107871020D01*
X164009904Y-107871018D01*
X164047598Y-107780015D01*
X164050000Y-107730765D01*
X164047598Y-107681515D01*
X164028043Y-107634303D01*
X164849500Y-107634303D01*
X164849500Y-108265696D01*
X164852401Y-108302567D01*
X164852401Y-108302569D01*
X164898256Y-108460399D01*
X164973343Y-108587364D01*
X164981919Y-108601865D01*
X165098135Y-108718081D01*
X165239600Y-108801743D01*
X165239601Y-108801743D01*
X165239602Y-108801744D01*
X165397431Y-108847598D01*
X165434306Y-108850500D01*
X165434317Y-108850500D01*
X171565683Y-108850500D01*
X171565694Y-108850500D01*
X171602569Y-108847598D01*
X171760398Y-108801744D01*
X171901865Y-108718081D01*
X172018081Y-108601865D01*
X172101744Y-108460398D01*
X172147598Y-108302569D01*
X172150500Y-108265694D01*
X172150500Y-107634306D01*
X172147598Y-107597431D01*
X172145587Y-107590510D01*
X172122963Y-107512637D01*
X172101744Y-107439602D01*
X172097899Y-107433101D01*
X172018082Y-107298137D01*
X172018081Y-107298135D01*
X171901865Y-107181919D01*
X171875417Y-107166278D01*
X171760398Y-107098256D01*
X171760400Y-107098256D01*
X171602568Y-107052401D01*
X171565696Y-107049500D01*
X171565694Y-107049500D01*
X165434306Y-107049500D01*
X165434303Y-107049500D01*
X165397432Y-107052401D01*
X165397430Y-107052401D01*
X165239600Y-107098256D01*
X165098137Y-107181917D01*
X165098132Y-107181921D01*
X164981921Y-107298132D01*
X164981917Y-107298137D01*
X164898256Y-107439600D01*
X164852401Y-107597430D01*
X164852401Y-107597432D01*
X164849500Y-107634303D01*
X164028043Y-107634303D01*
X164009904Y-107590512D01*
X164009902Y-107590510D01*
X164009902Y-107590509D01*
X163940256Y-107520863D01*
X163940253Y-107520861D01*
X163849253Y-107483168D01*
X163849251Y-107483167D01*
X163849250Y-107483167D01*
X163849248Y-107483167D01*
X163750752Y-107483167D01*
X163750750Y-107483167D01*
X163750748Y-107483167D01*
X163750746Y-107483168D01*
X163659746Y-107520861D01*
X163590096Y-107590511D01*
X163552403Y-107681511D01*
X163552402Y-107681513D01*
X155875500Y-107681513D01*
X155875500Y-107674500D01*
X155889852Y-107639852D01*
X155924500Y-107625500D01*
X156124826Y-107625500D01*
X156124828Y-107625500D01*
X156216897Y-107587364D01*
X156216899Y-107587362D01*
X156216900Y-107587362D01*
X156737362Y-107066900D01*
X156737362Y-107066899D01*
X156737364Y-107066897D01*
X156775500Y-106974828D01*
X156775500Y-106875172D01*
X156775500Y-106458941D01*
X156789852Y-106424293D01*
X156804709Y-106414116D01*
X156819653Y-106407518D01*
X156862016Y-106388813D01*
X156862017Y-106388813D01*
X156938812Y-106312017D01*
X156938813Y-106312016D01*
X156982682Y-106212662D01*
X156982682Y-106212660D01*
X156982683Y-106212658D01*
X156985498Y-106188390D01*
X156985497Y-106188390D01*
X156985500Y-106188373D01*
X156985499Y-105945176D01*
X160199500Y-105945176D01*
X160199500Y-106974823D01*
X160208232Y-107018721D01*
X160241495Y-107068504D01*
X160280426Y-107094516D01*
X160291278Y-107101767D01*
X160335180Y-107110500D01*
X162664820Y-107110500D01*
X162708722Y-107101767D01*
X162758504Y-107068504D01*
X162791767Y-107018722D01*
X162800500Y-106974820D01*
X162800500Y-106835360D01*
X163552402Y-106835360D01*
X163552402Y-106835362D01*
X163552402Y-106933862D01*
X163552402Y-106933864D01*
X163552403Y-106933865D01*
X163590096Y-107024865D01*
X163590098Y-107024868D01*
X163659744Y-107094514D01*
X163659746Y-107094515D01*
X163659747Y-107094516D01*
X163750750Y-107132210D01*
X163849248Y-107132210D01*
X163849250Y-107132210D01*
X163940253Y-107094516D01*
X163940254Y-107094514D01*
X163940256Y-107094514D01*
X164009902Y-107024868D01*
X164009902Y-107024867D01*
X164009904Y-107024865D01*
X164047598Y-106933862D01*
X164050000Y-106884612D01*
X164047598Y-106835362D01*
X164009904Y-106744359D01*
X164009902Y-106744357D01*
X164009902Y-106744356D01*
X163940256Y-106674710D01*
X163940253Y-106674708D01*
X163849253Y-106637015D01*
X163849251Y-106637014D01*
X163849250Y-106637014D01*
X163849248Y-106637014D01*
X163750752Y-106637014D01*
X163750750Y-106637014D01*
X163750748Y-106637014D01*
X163750746Y-106637015D01*
X163659746Y-106674708D01*
X163590096Y-106744358D01*
X163552403Y-106835358D01*
X163552402Y-106835360D01*
X162800500Y-106835360D01*
X162800500Y-105989207D01*
X163552402Y-105989207D01*
X163552402Y-105989209D01*
X163552402Y-106087709D01*
X163552402Y-106087711D01*
X163552403Y-106087712D01*
X163590096Y-106178712D01*
X163590098Y-106178715D01*
X163659744Y-106248361D01*
X163659746Y-106248362D01*
X163659747Y-106248363D01*
X163750750Y-106286057D01*
X163849248Y-106286057D01*
X163849250Y-106286057D01*
X163940253Y-106248363D01*
X163940254Y-106248361D01*
X163940256Y-106248361D01*
X164009902Y-106178715D01*
X164009902Y-106178714D01*
X164009904Y-106178712D01*
X164047598Y-106087709D01*
X164050000Y-106038459D01*
X164047598Y-105989209D01*
X164009904Y-105898206D01*
X164009902Y-105898204D01*
X164009902Y-105898203D01*
X163940256Y-105828557D01*
X163940253Y-105828555D01*
X163849253Y-105790862D01*
X163849251Y-105790861D01*
X163849250Y-105790861D01*
X163849248Y-105790861D01*
X163750752Y-105790861D01*
X163750750Y-105790861D01*
X163750748Y-105790861D01*
X163750746Y-105790862D01*
X163659746Y-105828555D01*
X163590096Y-105898205D01*
X163552403Y-105989205D01*
X163552402Y-105989207D01*
X162800500Y-105989207D01*
X162800500Y-105945180D01*
X162791767Y-105901278D01*
X162785061Y-105891242D01*
X162758504Y-105851495D01*
X162708721Y-105818232D01*
X162664823Y-105809500D01*
X162664820Y-105809500D01*
X160335180Y-105809500D01*
X160335176Y-105809500D01*
X160291278Y-105818232D01*
X160241495Y-105851495D01*
X160208232Y-105901278D01*
X160199500Y-105945176D01*
X156985499Y-105945176D01*
X156985499Y-105821628D01*
X156982682Y-105797338D01*
X156938813Y-105697984D01*
X156938812Y-105697983D01*
X156938812Y-105697982D01*
X156862017Y-105621187D01*
X156862018Y-105621187D01*
X156762664Y-105577318D01*
X156762658Y-105577316D01*
X156738390Y-105574501D01*
X156738375Y-105574500D01*
X156738373Y-105574500D01*
X156738370Y-105574500D01*
X156311632Y-105574500D01*
X156311625Y-105574501D01*
X156287336Y-105577318D01*
X156187982Y-105621187D01*
X156111187Y-105697982D01*
X156067318Y-105797335D01*
X156067316Y-105797341D01*
X156064501Y-105821609D01*
X156064500Y-105821629D01*
X156064500Y-106188367D01*
X156064501Y-106188374D01*
X156064586Y-106189104D01*
X156064550Y-106189228D01*
X156064583Y-106189789D01*
X156064387Y-106189800D01*
X156054322Y-106225175D01*
X156021558Y-106243424D01*
X155997157Y-106237545D01*
X155996355Y-106239483D01*
X155991897Y-106237636D01*
X155915746Y-106206093D01*
X155889229Y-106179575D01*
X155885499Y-106160828D01*
X155885499Y-105821628D01*
X155882682Y-105797338D01*
X155838813Y-105697984D01*
X155838812Y-105697983D01*
X155838812Y-105697982D01*
X155762017Y-105621187D01*
X155762018Y-105621187D01*
X155662664Y-105577318D01*
X155662658Y-105577316D01*
X155638390Y-105574501D01*
X155638375Y-105574500D01*
X155638373Y-105574500D01*
X155638370Y-105574500D01*
X155211632Y-105574500D01*
X155211625Y-105574501D01*
X155187336Y-105577318D01*
X155094292Y-105618401D01*
X155056799Y-105619267D01*
X155029675Y-105593368D01*
X155025500Y-105573576D01*
X155025500Y-105143054D01*
X163552402Y-105143054D01*
X163552402Y-105143056D01*
X163552402Y-105241556D01*
X163552402Y-105241558D01*
X163552403Y-105241559D01*
X163590096Y-105332559D01*
X163590098Y-105332562D01*
X163659744Y-105402208D01*
X163659746Y-105402209D01*
X163659747Y-105402210D01*
X163750750Y-105439904D01*
X163849248Y-105439904D01*
X163849250Y-105439904D01*
X163940253Y-105402210D01*
X163940254Y-105402208D01*
X163940256Y-105402208D01*
X164009902Y-105332562D01*
X164009902Y-105332561D01*
X164009904Y-105332559D01*
X164047598Y-105241556D01*
X164050000Y-105192306D01*
X164047598Y-105143056D01*
X164009904Y-105052053D01*
X164009902Y-105052051D01*
X164009902Y-105052050D01*
X163940256Y-104982404D01*
X163940253Y-104982402D01*
X163849253Y-104944709D01*
X163849251Y-104944708D01*
X163849250Y-104944708D01*
X163849248Y-104944708D01*
X163750752Y-104944708D01*
X163750750Y-104944708D01*
X163750748Y-104944708D01*
X163750746Y-104944709D01*
X163659746Y-104982402D01*
X163590096Y-105052052D01*
X163552403Y-105143052D01*
X163552402Y-105143054D01*
X155025500Y-105143054D01*
X155025500Y-105074111D01*
X155030841Y-105051866D01*
X155057428Y-104999683D01*
X155086574Y-104942482D01*
X155087869Y-104934303D01*
X164849500Y-104934303D01*
X164849500Y-106065696D01*
X164852401Y-106102567D01*
X164852401Y-106102569D01*
X164898256Y-106260399D01*
X164973930Y-106388356D01*
X164981919Y-106401865D01*
X165098135Y-106518081D01*
X165239600Y-106601743D01*
X165239601Y-106601743D01*
X165239602Y-106601744D01*
X165397431Y-106647598D01*
X165434306Y-106650500D01*
X165434317Y-106650500D01*
X172565683Y-106650500D01*
X172565694Y-106650500D01*
X172602569Y-106647598D01*
X172760398Y-106601744D01*
X172901865Y-106518081D01*
X173018081Y-106401865D01*
X173101744Y-106260398D01*
X173147598Y-106102569D01*
X173150500Y-106065694D01*
X173150500Y-104934306D01*
X173147598Y-104897431D01*
X173147456Y-104896943D01*
X173122963Y-104812637D01*
X173101744Y-104739602D01*
X173018081Y-104598135D01*
X172901865Y-104481919D01*
X172892771Y-104476541D01*
X172760398Y-104398256D01*
X172760400Y-104398256D01*
X172602568Y-104352401D01*
X172565696Y-104349500D01*
X172565694Y-104349500D01*
X165434306Y-104349500D01*
X165434303Y-104349500D01*
X165397432Y-104352401D01*
X165397430Y-104352401D01*
X165239600Y-104398256D01*
X165098137Y-104481917D01*
X165098132Y-104481921D01*
X164981921Y-104598132D01*
X164981917Y-104598137D01*
X164898256Y-104739600D01*
X164852401Y-104897430D01*
X164852401Y-104897432D01*
X164849500Y-104934303D01*
X155087869Y-104934303D01*
X155105181Y-104825000D01*
X155086574Y-104707518D01*
X155068573Y-104672190D01*
X155032577Y-104601541D01*
X155032572Y-104601534D01*
X154948465Y-104517427D01*
X154948458Y-104517422D01*
X154842484Y-104463427D01*
X154842483Y-104463426D01*
X154842482Y-104463426D01*
X154725000Y-104444819D01*
X154607518Y-104463426D01*
X154607516Y-104463426D01*
X154607515Y-104463427D01*
X154501541Y-104517422D01*
X154501534Y-104517427D01*
X154417427Y-104601534D01*
X154417422Y-104601541D01*
X154368159Y-104698228D01*
X154339642Y-104722585D01*
X154302255Y-104719642D01*
X154277898Y-104691125D01*
X154275500Y-104675983D01*
X154275500Y-104402133D01*
X154275500Y-104402130D01*
X154260850Y-104328479D01*
X154239752Y-104296903D01*
X154239751Y-104296901D01*
X163552402Y-104296901D01*
X163552402Y-104296903D01*
X163552402Y-104395403D01*
X163552402Y-104395405D01*
X163552403Y-104395406D01*
X163590096Y-104486406D01*
X163590098Y-104486409D01*
X163659744Y-104556055D01*
X163659746Y-104556056D01*
X163659747Y-104556057D01*
X163750750Y-104593751D01*
X163849248Y-104593751D01*
X163849250Y-104593751D01*
X163940253Y-104556057D01*
X163940254Y-104556055D01*
X163940256Y-104556055D01*
X164009902Y-104486409D01*
X164009902Y-104486408D01*
X164009904Y-104486406D01*
X164047598Y-104395403D01*
X164050000Y-104346153D01*
X164047598Y-104296903D01*
X164009904Y-104205900D01*
X164009902Y-104205898D01*
X164009902Y-104205897D01*
X163940256Y-104136251D01*
X163940253Y-104136249D01*
X163849253Y-104098556D01*
X163849251Y-104098555D01*
X163849250Y-104098555D01*
X163849248Y-104098555D01*
X163750752Y-104098555D01*
X163750750Y-104098555D01*
X163750748Y-104098555D01*
X163750746Y-104098556D01*
X163659746Y-104136249D01*
X163590096Y-104205899D01*
X163552403Y-104296899D01*
X163552402Y-104296901D01*
X154239751Y-104296901D01*
X154205043Y-104244956D01*
X154121521Y-104189150D01*
X154047870Y-104174500D01*
X153252130Y-104174500D01*
X153196891Y-104185487D01*
X153178478Y-104189150D01*
X153094956Y-104244956D01*
X153039150Y-104328478D01*
X153039150Y-104328479D01*
X153024500Y-104402130D01*
X149775500Y-104402130D01*
X149775500Y-104325834D01*
X149789852Y-104291186D01*
X149804544Y-104276494D01*
X149832573Y-104248465D01*
X149833708Y-104246239D01*
X149854262Y-104205897D01*
X149886574Y-104142482D01*
X149905181Y-104025000D01*
X149886574Y-103907518D01*
X149863262Y-103861766D01*
X149832577Y-103801541D01*
X149832572Y-103801534D01*
X149748465Y-103717427D01*
X149748458Y-103717422D01*
X149642484Y-103663427D01*
X149642483Y-103663426D01*
X149642482Y-103663426D01*
X149525000Y-103644819D01*
X149407518Y-103663426D01*
X149407516Y-103663426D01*
X149407515Y-103663427D01*
X149301541Y-103717422D01*
X149301534Y-103717427D01*
X149217427Y-103801534D01*
X149217422Y-103801541D01*
X149163427Y-103907515D01*
X149163426Y-103907516D01*
X149163426Y-103907518D01*
X149144819Y-104025000D01*
X149163426Y-104142482D01*
X149163426Y-104142483D01*
X149163427Y-104142484D01*
X149217422Y-104248458D01*
X149217427Y-104248465D01*
X149257702Y-104288740D01*
X149272054Y-104323388D01*
X149257702Y-104358036D01*
X149065590Y-104550148D01*
X149030942Y-104564500D01*
X148761632Y-104564500D01*
X148761625Y-104564501D01*
X148737336Y-104567318D01*
X148637982Y-104611187D01*
X148561187Y-104687982D01*
X148535883Y-104745292D01*
X148508759Y-104771191D01*
X148491058Y-104774500D01*
X148485099Y-104774500D01*
X148450451Y-104760148D01*
X148440274Y-104745292D01*
X148409615Y-104675857D01*
X148334142Y-104600384D01*
X148252432Y-104564305D01*
X148226533Y-104537180D01*
X148227399Y-104499688D01*
X148252430Y-104474656D01*
X148309141Y-104449616D01*
X148384616Y-104374141D01*
X148427730Y-104276498D01*
X148427730Y-104276496D01*
X148427731Y-104276494D01*
X148430498Y-104252640D01*
X148430497Y-104252640D01*
X148430500Y-104252623D01*
X148430499Y-103797378D01*
X148427730Y-103773502D01*
X148392440Y-103693580D01*
X148391575Y-103656090D01*
X148402616Y-103639144D01*
X148591011Y-103450748D01*
X163552402Y-103450748D01*
X163552402Y-103450750D01*
X163552402Y-103549250D01*
X163552402Y-103549252D01*
X163552403Y-103549253D01*
X163590096Y-103640253D01*
X163590098Y-103640256D01*
X163659744Y-103709902D01*
X163659746Y-103709903D01*
X163659747Y-103709904D01*
X163750750Y-103747598D01*
X163849248Y-103747598D01*
X163849250Y-103747598D01*
X163940253Y-103709904D01*
X163940254Y-103709902D01*
X163940256Y-103709902D01*
X164009902Y-103640256D01*
X164009902Y-103640255D01*
X164009904Y-103640253D01*
X164047598Y-103549250D01*
X164050000Y-103500000D01*
X164047598Y-103450750D01*
X164009904Y-103359747D01*
X164009902Y-103359745D01*
X164009901Y-103359743D01*
X163940256Y-103290098D01*
X163940253Y-103290096D01*
X163849253Y-103252403D01*
X163849251Y-103252402D01*
X163849250Y-103252402D01*
X163849248Y-103252402D01*
X163750752Y-103252402D01*
X163750750Y-103252402D01*
X163750748Y-103252402D01*
X163750746Y-103252403D01*
X163659746Y-103290096D01*
X163590096Y-103359746D01*
X163552403Y-103450746D01*
X163552402Y-103450748D01*
X148591011Y-103450748D01*
X148601909Y-103439850D01*
X148636553Y-103425499D01*
X149141294Y-103425499D01*
X149141296Y-103425499D01*
X149189142Y-103418528D01*
X149213067Y-103415043D01*
X149323780Y-103360919D01*
X149410919Y-103273780D01*
X149465043Y-103163067D01*
X149475500Y-103091295D01*
X149475499Y-102508706D01*
X149472434Y-102487669D01*
X149465043Y-102436933D01*
X149465043Y-102436932D01*
X149427757Y-102360663D01*
X149410919Y-102326220D01*
X149323780Y-102239081D01*
X149268423Y-102212019D01*
X149213070Y-102184958D01*
X149213068Y-102184957D01*
X149141296Y-102174500D01*
X148633703Y-102174500D01*
X148561933Y-102184956D01*
X148561932Y-102184956D01*
X148451222Y-102239080D01*
X148451218Y-102239082D01*
X148364082Y-102326218D01*
X148364080Y-102326222D01*
X148309958Y-102436929D01*
X148309957Y-102436931D01*
X148299500Y-102508703D01*
X148299500Y-103013442D01*
X148285148Y-103048090D01*
X147868103Y-103465136D01*
X147797635Y-103535602D01*
X147791733Y-103549851D01*
X147766257Y-103575921D01*
X147710859Y-103600382D01*
X147710858Y-103600384D01*
X147635384Y-103675857D01*
X147592270Y-103773499D01*
X147592268Y-103773505D01*
X147589501Y-103797359D01*
X147589500Y-103797379D01*
X147589500Y-104252617D01*
X147589501Y-104252626D01*
X147592270Y-104276499D01*
X147635384Y-104374142D01*
X147710857Y-104449615D01*
X147710858Y-104449615D01*
X147710859Y-104449616D01*
X147720575Y-104453906D01*
X147792567Y-104485694D01*
X147818466Y-104512818D01*
X147817600Y-104550311D01*
X147792568Y-104575344D01*
X147735856Y-104600385D01*
X147660384Y-104675857D01*
X147617270Y-104773499D01*
X147617268Y-104773505D01*
X147614501Y-104797359D01*
X147614500Y-104797378D01*
X147614500Y-105252617D01*
X147614501Y-105252626D01*
X147617270Y-105276499D01*
X147660384Y-105374142D01*
X147735857Y-105449615D01*
X147833499Y-105492729D01*
X147833502Y-105492730D01*
X147844430Y-105493997D01*
X147877193Y-105512245D01*
X147887458Y-105548316D01*
X147869210Y-105581080D01*
X147866007Y-105583413D01*
X147852223Y-105592623D01*
X147815440Y-105599939D01*
X147797780Y-105592625D01*
X147783991Y-105583413D01*
X147783722Y-105583233D01*
X147783721Y-105583232D01*
X147783720Y-105583232D01*
X147739823Y-105574500D01*
X147739820Y-105574500D01*
X147410180Y-105574500D01*
X147410176Y-105574500D01*
X147366279Y-105583232D01*
X147352220Y-105592625D01*
X147315438Y-105599939D01*
X147297780Y-105592625D01*
X147283991Y-105583413D01*
X147283722Y-105583233D01*
X147283721Y-105583232D01*
X147283720Y-105583232D01*
X147248147Y-105576156D01*
X147216965Y-105555321D01*
X147209649Y-105518538D01*
X147230484Y-105487356D01*
X147237911Y-105483274D01*
X147314141Y-105449616D01*
X147389616Y-105374141D01*
X147432730Y-105276498D01*
X147432730Y-105276496D01*
X147432731Y-105276494D01*
X147435498Y-105252640D01*
X147435497Y-105252640D01*
X147435500Y-105252623D01*
X147435499Y-104797378D01*
X147432730Y-104773502D01*
X147389616Y-104675859D01*
X147389615Y-104675858D01*
X147389615Y-104675857D01*
X147314142Y-104600384D01*
X147232432Y-104564305D01*
X147206533Y-104537180D01*
X147207399Y-104499688D01*
X147232430Y-104474656D01*
X147289141Y-104449616D01*
X147364616Y-104374141D01*
X147407730Y-104276498D01*
X147407730Y-104276496D01*
X147407731Y-104276494D01*
X147410498Y-104252640D01*
X147410497Y-104252640D01*
X147410500Y-104252623D01*
X147410499Y-103797378D01*
X147407730Y-103773502D01*
X147364616Y-103675859D01*
X147364615Y-103675858D01*
X147364615Y-103675857D01*
X147289142Y-103600384D01*
X147191500Y-103557270D01*
X147191494Y-103557268D01*
X147167640Y-103554501D01*
X147167625Y-103554500D01*
X147167623Y-103554500D01*
X147167620Y-103554500D01*
X146894057Y-103554500D01*
X146859409Y-103540148D01*
X146764852Y-103445591D01*
X146750500Y-103410943D01*
X146750500Y-102650174D01*
X146750499Y-102650170D01*
X146726579Y-102592422D01*
X146712364Y-102558103D01*
X146712362Y-102558101D01*
X146712362Y-102558100D01*
X146641897Y-102487636D01*
X146341899Y-102187637D01*
X146335431Y-102184958D01*
X146310184Y-102174500D01*
X146249829Y-102149500D01*
X146249828Y-102149500D01*
X144849828Y-102149500D01*
X144750172Y-102149500D01*
X144750170Y-102149500D01*
X144673898Y-102181093D01*
X144664569Y-102184958D01*
X144658101Y-102187637D01*
X144658100Y-102187637D01*
X144058103Y-102787636D01*
X143987637Y-102858100D01*
X143987637Y-102858101D01*
X143949500Y-102950170D01*
X143949500Y-103399166D01*
X143935148Y-103433814D01*
X143892427Y-103476534D01*
X143892422Y-103476541D01*
X143838427Y-103582515D01*
X143838426Y-103582516D01*
X143838426Y-103582518D01*
X143819819Y-103700000D01*
X143838426Y-103817482D01*
X143838426Y-103817483D01*
X143838427Y-103817484D01*
X143892422Y-103923458D01*
X143892427Y-103923465D01*
X143976534Y-104007572D01*
X143976541Y-104007577D01*
X144047190Y-104043573D01*
X144082518Y-104061574D01*
X144200000Y-104080181D01*
X144317482Y-104061574D01*
X144390988Y-104024120D01*
X144423458Y-104007577D01*
X144423460Y-104007575D01*
X144423465Y-104007573D01*
X144507573Y-103923465D01*
X144508688Y-103921278D01*
X144533078Y-103873408D01*
X144561574Y-103817482D01*
X144580181Y-103700000D01*
X144561574Y-103582518D01*
X144543573Y-103547190D01*
X144507577Y-103476541D01*
X144507572Y-103476534D01*
X144464852Y-103433814D01*
X144450500Y-103399166D01*
X144450500Y-103124057D01*
X144464852Y-103089409D01*
X144889409Y-102664852D01*
X144924057Y-102650500D01*
X145216149Y-102650500D01*
X145250797Y-102664852D01*
X145265149Y-102699500D01*
X145250797Y-102734148D01*
X145243372Y-102740242D01*
X145241494Y-102741496D01*
X145208232Y-102791278D01*
X145199500Y-102835176D01*
X145199500Y-104564823D01*
X145208232Y-104608721D01*
X145241495Y-104658504D01*
X145267655Y-104675983D01*
X145291278Y-104691767D01*
X145335180Y-104700500D01*
X145500500Y-104700500D01*
X145535148Y-104714852D01*
X145549500Y-104749500D01*
X145549500Y-104949829D01*
X145562993Y-104982404D01*
X145587636Y-105041897D01*
X145587637Y-105041898D01*
X145587637Y-105041899D01*
X145805708Y-105259969D01*
X145820060Y-105294617D01*
X145819819Y-105297693D01*
X145819819Y-105299999D01*
X145819819Y-105300000D01*
X145838426Y-105417482D01*
X145838426Y-105417483D01*
X145838427Y-105417484D01*
X145888950Y-105516643D01*
X145891893Y-105554030D01*
X145869827Y-105579864D01*
X145870288Y-105580554D01*
X145867843Y-105582187D01*
X145867536Y-105582547D01*
X145866789Y-105582891D01*
X145852220Y-105592625D01*
X145815438Y-105599939D01*
X145797780Y-105592625D01*
X145783991Y-105583413D01*
X145783722Y-105583233D01*
X145783721Y-105583232D01*
X145783720Y-105583232D01*
X145739823Y-105574500D01*
X145739820Y-105574500D01*
X145538874Y-105574500D01*
X145504226Y-105560148D01*
X145489874Y-105525500D01*
X145490476Y-105517842D01*
X145505181Y-105425000D01*
X145486574Y-105307518D01*
X145459837Y-105255043D01*
X145432577Y-105201541D01*
X145432572Y-105201534D01*
X145348465Y-105117427D01*
X145348458Y-105117422D01*
X145242484Y-105063427D01*
X145242483Y-105063426D01*
X145242482Y-105063426D01*
X145125000Y-105044819D01*
X145007518Y-105063426D01*
X145007516Y-105063426D01*
X145007515Y-105063427D01*
X144901541Y-105117422D01*
X144901534Y-105117427D01*
X144817427Y-105201534D01*
X144817422Y-105201541D01*
X144763427Y-105307515D01*
X144763426Y-105307516D01*
X144763426Y-105307518D01*
X144744819Y-105425000D01*
X144763426Y-105542482D01*
X144782067Y-105579068D01*
X144794744Y-105603947D01*
X144797686Y-105641334D01*
X144791827Y-105653413D01*
X144783233Y-105666275D01*
X144783232Y-105666277D01*
X144774500Y-105710176D01*
X144774500Y-106525500D01*
X144760148Y-106560148D01*
X144725500Y-106574500D01*
X143910176Y-106574500D01*
X143866280Y-106583232D01*
X143866278Y-106583232D01*
X143866278Y-106583233D01*
X143863412Y-106585148D01*
X143822511Y-106612476D01*
X143785728Y-106619791D01*
X143760641Y-106606381D01*
X143541899Y-106387637D01*
X143449829Y-106349500D01*
X143449828Y-106349500D01*
X143400834Y-106349500D01*
X143366186Y-106335148D01*
X143323465Y-106292427D01*
X143323458Y-106292422D01*
X143217484Y-106238427D01*
X143217483Y-106238426D01*
X143217482Y-106238426D01*
X143100000Y-106219819D01*
X142982518Y-106238426D01*
X142982516Y-106238426D01*
X142982515Y-106238427D01*
X142876541Y-106292422D01*
X142876534Y-106292427D01*
X142792427Y-106376534D01*
X142792422Y-106376541D01*
X142738427Y-106482515D01*
X142738426Y-106482516D01*
X142738426Y-106482518D01*
X142719819Y-106600000D01*
X142738426Y-106717482D01*
X142738426Y-106717483D01*
X142738427Y-106717484D01*
X142792422Y-106823458D01*
X142792427Y-106823465D01*
X142834314Y-106865352D01*
X142848666Y-106900000D01*
X142834314Y-106934648D01*
X142792427Y-106976534D01*
X142792422Y-106976541D01*
X142738427Y-107082515D01*
X142738426Y-107082516D01*
X142738426Y-107082518D01*
X142727386Y-107152223D01*
X142719819Y-107200000D01*
X142738426Y-107317482D01*
X142782129Y-107403255D01*
X142785071Y-107440642D01*
X142760714Y-107469160D01*
X142738469Y-107474500D01*
X142050171Y-107474500D01*
X141958102Y-107512637D01*
X141958101Y-107512637D01*
X141683103Y-107787637D01*
X141635592Y-107835148D01*
X141600944Y-107849500D01*
X141477130Y-107849500D01*
X141436826Y-107857517D01*
X141403478Y-107864150D01*
X141319956Y-107919956D01*
X141264150Y-108003478D01*
X141264150Y-108003479D01*
X141249500Y-108077130D01*
X141249500Y-108872870D01*
X141259969Y-108925500D01*
X141264150Y-108946521D01*
X141319956Y-109030043D01*
X141368286Y-109062335D01*
X141403479Y-109085850D01*
X141477130Y-109100500D01*
X141477133Y-109100500D01*
X142172867Y-109100500D01*
X142172870Y-109100500D01*
X142246521Y-109085850D01*
X142330043Y-109030043D01*
X142385850Y-108946521D01*
X142400500Y-108872870D01*
X142400500Y-108077130D01*
X142400382Y-108076535D01*
X142391933Y-108034059D01*
X142399249Y-107997277D01*
X142430432Y-107976442D01*
X142439991Y-107975500D01*
X143375500Y-107975500D01*
X143410148Y-107989852D01*
X143424500Y-108024500D01*
X143424500Y-108224829D01*
X143426567Y-108229818D01*
X143462636Y-108316897D01*
X143462637Y-108316898D01*
X143462637Y-108316899D01*
X143659840Y-108514100D01*
X143659843Y-108514104D01*
X143733100Y-108587362D01*
X143733102Y-108587363D01*
X143733103Y-108587364D01*
X143758521Y-108597892D01*
X143785040Y-108624410D01*
X143785041Y-108661911D01*
X143783232Y-108666277D01*
X143774500Y-108710176D01*
X143774500Y-109039823D01*
X143783232Y-109083720D01*
X143792625Y-109097780D01*
X143799939Y-109134562D01*
X143792625Y-109152220D01*
X143783232Y-109166279D01*
X143774500Y-109210176D01*
X143774500Y-109210180D01*
X143774500Y-109539820D01*
X143779176Y-109563326D01*
X143784171Y-109588438D01*
X143776854Y-109625220D01*
X143754864Y-109643267D01*
X143708101Y-109662637D01*
X143634148Y-109736590D01*
X143599500Y-109750942D01*
X143564852Y-109736590D01*
X143550500Y-109701942D01*
X143550500Y-109527133D01*
X143550500Y-109527130D01*
X143535850Y-109453479D01*
X143509517Y-109414068D01*
X143480043Y-109369956D01*
X143396521Y-109314150D01*
X143322870Y-109299500D01*
X142627130Y-109299500D01*
X142571891Y-109310487D01*
X142553478Y-109314150D01*
X142469956Y-109369956D01*
X142440742Y-109413680D01*
X142409560Y-109434515D01*
X142372777Y-109427199D01*
X142359258Y-109413680D01*
X142330043Y-109369956D01*
X142246521Y-109314150D01*
X142172870Y-109299500D01*
X141477130Y-109299500D01*
X141421891Y-109310487D01*
X141403478Y-109314150D01*
X141319956Y-109369956D01*
X141264150Y-109453478D01*
X141264150Y-109453479D01*
X141249500Y-109527130D01*
X141249500Y-109527133D01*
X141249500Y-109625500D01*
X141235148Y-109660148D01*
X141200500Y-109674500D01*
X140730537Y-109674500D01*
X140730529Y-109674499D01*
X140724828Y-109674499D01*
X140625172Y-109674499D01*
X140625170Y-109674499D01*
X140576117Y-109694819D01*
X140539033Y-109710180D01*
X140533101Y-109712637D01*
X140533100Y-109712637D01*
X140462636Y-109783103D01*
X140462634Y-109783105D01*
X140440029Y-109805709D01*
X140405381Y-109820060D01*
X140402311Y-109819819D01*
X140400002Y-109819819D01*
X140400000Y-109819819D01*
X140282518Y-109838426D01*
X140282516Y-109838426D01*
X140282515Y-109838427D01*
X140176541Y-109892422D01*
X140176534Y-109892427D01*
X140092427Y-109976534D01*
X140092422Y-109976541D01*
X140038427Y-110082515D01*
X140038426Y-110082516D01*
X140038426Y-110082518D01*
X140019819Y-110200000D01*
X139751034Y-110200000D01*
X139810883Y-110150883D01*
X139935910Y-109998538D01*
X140028814Y-109824727D01*
X140086024Y-109636132D01*
X140105341Y-109440000D01*
X140086024Y-109243868D01*
X140028814Y-109055273D01*
X140025501Y-109049075D01*
X139979823Y-108963616D01*
X139976147Y-108926294D01*
X139988387Y-108905872D01*
X140437364Y-108456897D01*
X140475500Y-108364828D01*
X140475500Y-108265172D01*
X140475500Y-104654500D01*
X140489852Y-104619852D01*
X140524500Y-104605500D01*
X140725003Y-104605500D01*
X140725003Y-104605499D01*
X140752498Y-104598132D01*
X140802748Y-104584668D01*
X140802748Y-104584667D01*
X140802750Y-104584667D01*
X140859667Y-104527750D01*
X140862033Y-104518922D01*
X140875998Y-104466801D01*
X140880499Y-104450003D01*
X140880500Y-104450003D01*
X140880500Y-102949997D01*
X140880499Y-102949996D01*
X140859668Y-102872251D01*
X140859665Y-102872247D01*
X140802752Y-102815334D01*
X140802748Y-102815331D01*
X140725003Y-102794500D01*
X140725000Y-102794500D01*
X140449057Y-102794500D01*
X140414409Y-102780148D01*
X140366897Y-102732636D01*
X140071899Y-102437637D01*
X140070199Y-102436933D01*
X140044931Y-102426466D01*
X139979829Y-102399500D01*
X139979828Y-102399500D01*
X136199827Y-102399500D01*
X136100172Y-102399500D01*
X136100170Y-102399500D01*
X136008101Y-102437636D01*
X135992392Y-102453345D01*
X135957743Y-102467695D01*
X135930522Y-102459436D01*
X135928722Y-102458233D01*
X135928721Y-102458232D01*
X135928720Y-102458232D01*
X135884823Y-102449500D01*
X135884820Y-102449500D01*
X135615180Y-102449500D01*
X135615176Y-102449500D01*
X135571278Y-102458232D01*
X135527222Y-102487669D01*
X135490440Y-102494985D01*
X135472778Y-102487669D01*
X135428721Y-102458232D01*
X135384823Y-102449500D01*
X135384820Y-102449500D01*
X135115180Y-102449500D01*
X135115176Y-102449500D01*
X135071278Y-102458232D01*
X135021495Y-102491495D01*
X134988232Y-102541277D01*
X134985662Y-102554199D01*
X134964825Y-102585380D01*
X134928042Y-102592695D01*
X134915359Y-102588296D01*
X134817484Y-102538427D01*
X134817483Y-102538426D01*
X134817482Y-102538426D01*
X134700000Y-102519819D01*
X134582518Y-102538426D01*
X134582516Y-102538426D01*
X134582515Y-102538427D01*
X134476541Y-102592422D01*
X134476534Y-102592427D01*
X134392430Y-102676531D01*
X134390161Y-102679655D01*
X134388549Y-102678484D01*
X134365131Y-102698476D01*
X134327744Y-102695525D01*
X134311017Y-102678798D01*
X134309839Y-102679655D01*
X134307575Y-102676540D01*
X134307573Y-102676535D01*
X134223465Y-102592427D01*
X134223458Y-102592422D01*
X134117484Y-102538427D01*
X134117483Y-102538426D01*
X134117482Y-102538426D01*
X134000000Y-102519819D01*
X133882518Y-102538426D01*
X133882516Y-102538426D01*
X133882515Y-102538427D01*
X133776541Y-102592422D01*
X133776534Y-102592427D01*
X133692427Y-102676534D01*
X133692422Y-102676541D01*
X133638427Y-102782515D01*
X133638426Y-102782516D01*
X133638426Y-102782518D01*
X133619819Y-102900000D01*
X133638426Y-103017482D01*
X133638426Y-103017483D01*
X133638427Y-103017484D01*
X133692422Y-103123458D01*
X133692427Y-103123465D01*
X133776534Y-103207572D01*
X133776541Y-103207577D01*
X133833975Y-103236841D01*
X133858332Y-103265358D01*
X133855389Y-103302745D01*
X133826872Y-103327102D01*
X133811730Y-103329500D01*
X133735176Y-103329500D01*
X133691278Y-103338232D01*
X133641495Y-103371495D01*
X133608232Y-103421278D01*
X133599500Y-103465176D01*
X133599500Y-103734823D01*
X133608231Y-103778717D01*
X133609486Y-103781745D01*
X133609488Y-103819248D01*
X133582972Y-103845769D01*
X133564217Y-103849500D01*
X133524057Y-103849500D01*
X133489409Y-103835148D01*
X133394291Y-103740030D01*
X133379939Y-103705382D01*
X133380181Y-103702312D01*
X133380181Y-103700001D01*
X133380181Y-103700000D01*
X133361574Y-103582518D01*
X133343573Y-103547190D01*
X133307577Y-103476541D01*
X133307572Y-103476534D01*
X133242516Y-103411478D01*
X133228164Y-103376830D01*
X133242515Y-103342183D01*
X133310919Y-103273780D01*
X133365043Y-103163067D01*
X133375500Y-103091295D01*
X133375499Y-102508706D01*
X133372434Y-102487669D01*
X133365043Y-102436933D01*
X133365043Y-102436932D01*
X133327757Y-102360663D01*
X133310919Y-102326220D01*
X133223780Y-102239081D01*
X133168423Y-102212019D01*
X133113070Y-102184958D01*
X133113068Y-102184957D01*
X133041296Y-102174500D01*
X132533703Y-102174500D01*
X132461933Y-102184956D01*
X132461932Y-102184956D01*
X132351222Y-102239080D01*
X132351218Y-102239082D01*
X132264082Y-102326218D01*
X132264080Y-102326222D01*
X132209958Y-102436929D01*
X132209957Y-102436931D01*
X132199500Y-102508703D01*
X132199500Y-103013442D01*
X132185148Y-103048090D01*
X131348103Y-103885136D01*
X131277637Y-103955600D01*
X131277637Y-103955601D01*
X131239500Y-104047670D01*
X131239500Y-104421977D01*
X131225148Y-104456625D01*
X131210294Y-104466801D01*
X131190858Y-104475383D01*
X131190858Y-104475384D01*
X131115384Y-104550857D01*
X131072270Y-104648499D01*
X131072268Y-104648505D01*
X131069501Y-104672359D01*
X131069500Y-104672379D01*
X131069500Y-104896943D01*
X131055148Y-104931591D01*
X131020500Y-104945943D01*
X130985852Y-104931591D01*
X130314852Y-104260591D01*
X130300500Y-104225943D01*
X130300500Y-102835180D01*
X130300499Y-102835176D01*
X130291767Y-102791278D01*
X130258504Y-102741495D01*
X130208721Y-102708232D01*
X130164823Y-102699500D01*
X130164820Y-102699500D01*
X129235180Y-102699500D01*
X129235176Y-102699500D01*
X129191278Y-102708232D01*
X129141495Y-102741495D01*
X129108232Y-102791278D01*
X129099500Y-102835176D01*
X129099500Y-104564823D01*
X129108232Y-104608721D01*
X129141495Y-104658504D01*
X129167655Y-104675983D01*
X129191278Y-104691767D01*
X129235180Y-104700500D01*
X130025943Y-104700500D01*
X130060591Y-104714852D01*
X130701591Y-105355852D01*
X130715943Y-105390500D01*
X130701591Y-105425148D01*
X130666943Y-105439500D01*
X130416632Y-105439500D01*
X130416625Y-105439501D01*
X130392336Y-105442318D01*
X130292982Y-105486187D01*
X130216187Y-105562982D01*
X130172318Y-105662335D01*
X130172316Y-105662341D01*
X130169501Y-105686609D01*
X130169500Y-105686629D01*
X130169500Y-106113367D01*
X130169501Y-106113374D01*
X130172318Y-106137663D01*
X130216187Y-106237017D01*
X130292982Y-106313812D01*
X130292983Y-106313812D01*
X130292984Y-106313813D01*
X130309499Y-106321105D01*
X130392335Y-106357681D01*
X130392338Y-106357682D01*
X130406147Y-106359284D01*
X130438909Y-106377531D01*
X130449500Y-106407957D01*
X130449500Y-106480657D01*
X130435148Y-106515305D01*
X130400500Y-106529657D01*
X130390945Y-106528716D01*
X130369748Y-106524500D01*
X130230252Y-106524500D01*
X130171769Y-106536133D01*
X130127223Y-106565898D01*
X130090441Y-106573214D01*
X130072777Y-106565898D01*
X130061205Y-106558166D01*
X130028231Y-106536133D01*
X129969748Y-106524500D01*
X129830252Y-106524500D01*
X129771769Y-106536133D01*
X129727223Y-106565898D01*
X129690441Y-106573214D01*
X129672777Y-106565898D01*
X129661205Y-106558166D01*
X129628231Y-106536133D01*
X129569748Y-106524500D01*
X129430252Y-106524500D01*
X129371769Y-106536133D01*
X129327223Y-106565898D01*
X129290441Y-106573214D01*
X129272777Y-106565898D01*
X129261205Y-106558166D01*
X129228231Y-106536133D01*
X129169748Y-106524500D01*
X129030252Y-106524500D01*
X128971769Y-106536133D01*
X128927223Y-106565898D01*
X128890441Y-106573214D01*
X128872777Y-106565898D01*
X128861205Y-106558166D01*
X128828231Y-106536133D01*
X128769748Y-106524500D01*
X128630252Y-106524500D01*
X128571769Y-106536133D01*
X128527223Y-106565898D01*
X128490441Y-106573214D01*
X128472777Y-106565898D01*
X128461205Y-106558166D01*
X128428231Y-106536133D01*
X128369748Y-106524500D01*
X128230252Y-106524500D01*
X128171769Y-106536133D01*
X128127223Y-106565898D01*
X128090441Y-106573214D01*
X128072777Y-106565898D01*
X128061205Y-106558166D01*
X128028231Y-106536133D01*
X127969748Y-106524500D01*
X127830252Y-106524500D01*
X127771769Y-106536133D01*
X127727223Y-106565898D01*
X127690441Y-106573214D01*
X127672777Y-106565898D01*
X127661205Y-106558166D01*
X127628231Y-106536133D01*
X127569748Y-106524500D01*
X127430252Y-106524500D01*
X127409057Y-106528715D01*
X127372277Y-106521399D01*
X127351441Y-106490216D01*
X127350500Y-106480657D01*
X127350500Y-106350625D01*
X127364851Y-106315977D01*
X127367014Y-106313813D01*
X127367016Y-106313813D01*
X127415436Y-106265392D01*
X127450083Y-106251041D01*
X127472327Y-106256381D01*
X127482518Y-106261574D01*
X127600000Y-106280181D01*
X127717482Y-106261574D01*
X127799431Y-106219819D01*
X127823458Y-106207577D01*
X127823460Y-106207575D01*
X127823465Y-106207573D01*
X127907573Y-106123465D01*
X127961574Y-106017482D01*
X127980181Y-105900000D01*
X127961574Y-105782518D01*
X127937271Y-105734820D01*
X127907577Y-105676541D01*
X127907572Y-105676534D01*
X127823465Y-105592427D01*
X127823458Y-105592422D01*
X127717484Y-105538427D01*
X127717483Y-105538426D01*
X127717482Y-105538426D01*
X127600000Y-105519819D01*
X127599999Y-105519819D01*
X127482518Y-105538425D01*
X127472327Y-105543618D01*
X127434939Y-105546559D01*
X127415436Y-105534607D01*
X127367016Y-105486187D01*
X127367015Y-105486186D01*
X127267664Y-105442318D01*
X127267658Y-105442316D01*
X127243390Y-105439501D01*
X127243375Y-105439500D01*
X127243373Y-105439500D01*
X127243370Y-105439500D01*
X126876632Y-105439500D01*
X126876625Y-105439501D01*
X126852336Y-105442318D01*
X126752982Y-105486187D01*
X126676187Y-105562982D01*
X126632318Y-105662335D01*
X126632316Y-105662341D01*
X126629501Y-105686609D01*
X126629500Y-105686629D01*
X126629500Y-106113367D01*
X126629501Y-106113374D01*
X126632318Y-106137663D01*
X126676187Y-106237017D01*
X126752979Y-106313809D01*
X126752983Y-106313812D01*
X126752984Y-106313813D01*
X126820293Y-106343532D01*
X126846191Y-106370655D01*
X126849500Y-106388356D01*
X126849500Y-106705252D01*
X126849500Y-107519748D01*
X126861133Y-107578231D01*
X126878882Y-107604795D01*
X126905447Y-107644552D01*
X126916928Y-107652223D01*
X126971769Y-107688867D01*
X127030252Y-107700500D01*
X127030255Y-107700500D01*
X127169745Y-107700500D01*
X127169748Y-107700500D01*
X127228231Y-107688867D01*
X127272778Y-107659100D01*
X127309559Y-107651784D01*
X127327219Y-107659099D01*
X127371769Y-107688867D01*
X127430252Y-107700500D01*
X127430255Y-107700500D01*
X127569745Y-107700500D01*
X127569748Y-107700500D01*
X127628231Y-107688867D01*
X127672778Y-107659100D01*
X127709559Y-107651784D01*
X127727219Y-107659099D01*
X127771769Y-107688867D01*
X127830252Y-107700500D01*
X127830255Y-107700500D01*
X127969745Y-107700500D01*
X127969748Y-107700500D01*
X128028231Y-107688867D01*
X128072778Y-107659100D01*
X128109559Y-107651784D01*
X128127219Y-107659099D01*
X128171769Y-107688867D01*
X128230252Y-107700500D01*
X128230255Y-107700500D01*
X128369745Y-107700500D01*
X128369748Y-107700500D01*
X128428231Y-107688867D01*
X128472778Y-107659100D01*
X128509559Y-107651784D01*
X128527219Y-107659099D01*
X128571769Y-107688867D01*
X128630252Y-107700500D01*
X128630255Y-107700500D01*
X128751501Y-107700500D01*
X128786149Y-107714852D01*
X128800501Y-107749500D01*
X128793024Y-107772510D01*
X128794177Y-107773098D01*
X128738427Y-107882515D01*
X128738426Y-107882516D01*
X128738426Y-107882518D01*
X128719819Y-108000000D01*
X128738426Y-108117482D01*
X128738426Y-108117483D01*
X128738427Y-108117484D01*
X128792422Y-108223458D01*
X128792427Y-108223465D01*
X128876534Y-108307572D01*
X128876541Y-108307577D01*
X128947190Y-108343573D01*
X128982518Y-108361574D01*
X129100000Y-108380181D01*
X129217482Y-108361574D01*
X129305166Y-108316897D01*
X129323458Y-108307577D01*
X129323460Y-108307575D01*
X129323465Y-108307573D01*
X129407573Y-108223465D01*
X129408438Y-108221769D01*
X129424144Y-108190942D01*
X129461574Y-108117482D01*
X129480181Y-108000000D01*
X129461574Y-107882518D01*
X129446195Y-107852336D01*
X129405823Y-107773098D01*
X129407413Y-107772287D01*
X129400102Y-107741834D01*
X129419698Y-107709858D01*
X129448499Y-107700500D01*
X129569745Y-107700500D01*
X129569748Y-107700500D01*
X129628231Y-107688867D01*
X129672778Y-107659100D01*
X129709559Y-107651784D01*
X129727219Y-107659099D01*
X129771769Y-107688867D01*
X129830252Y-107700500D01*
X129830255Y-107700500D01*
X129969745Y-107700500D01*
X129969748Y-107700500D01*
X130028231Y-107688867D01*
X130072778Y-107659100D01*
X130109559Y-107651784D01*
X130127219Y-107659099D01*
X130171769Y-107688867D01*
X130230252Y-107700500D01*
X130230255Y-107700500D01*
X130338469Y-107700500D01*
X130373117Y-107714852D01*
X130387469Y-107749500D01*
X130382129Y-107771745D01*
X130338426Y-107857517D01*
X130323699Y-107950500D01*
X130319819Y-107975000D01*
X130338426Y-108092482D01*
X130338426Y-108092483D01*
X130338427Y-108092484D01*
X130392422Y-108198458D01*
X130392427Y-108198465D01*
X130476534Y-108282572D01*
X130476541Y-108282577D01*
X130515775Y-108302567D01*
X130582518Y-108336574D01*
X130700000Y-108355181D01*
X130817482Y-108336574D01*
X130890988Y-108299120D01*
X130923458Y-108282577D01*
X130923460Y-108282575D01*
X130923465Y-108282573D01*
X131007573Y-108198465D01*
X131015699Y-108182518D01*
X131024120Y-108165988D01*
X131061574Y-108092482D01*
X131080181Y-107975000D01*
X131061574Y-107857518D01*
X131022086Y-107780018D01*
X131017871Y-107771745D01*
X131014929Y-107734358D01*
X131039286Y-107705840D01*
X131061531Y-107700500D01*
X131169745Y-107700500D01*
X131169748Y-107700500D01*
X131228231Y-107688867D01*
X131272778Y-107659100D01*
X131309559Y-107651784D01*
X131327219Y-107659099D01*
X131371769Y-107688867D01*
X131430252Y-107700500D01*
X131430255Y-107700500D01*
X131569745Y-107700500D01*
X131569748Y-107700500D01*
X131628231Y-107688867D01*
X131672778Y-107659100D01*
X131709559Y-107651784D01*
X131727219Y-107659099D01*
X131771769Y-107688867D01*
X131830252Y-107700500D01*
X131830255Y-107700500D01*
X131969745Y-107700500D01*
X131969748Y-107700500D01*
X132028231Y-107688867D01*
X132072778Y-107659100D01*
X132109559Y-107651784D01*
X132127219Y-107659099D01*
X132171769Y-107688867D01*
X132230252Y-107700500D01*
X132230255Y-107700500D01*
X132369745Y-107700500D01*
X132369748Y-107700500D01*
X132428231Y-107688867D01*
X132494552Y-107644552D01*
X132538867Y-107578231D01*
X132550500Y-107519748D01*
X132550500Y-106705252D01*
X132538867Y-106646769D01*
X132508781Y-106601743D01*
X132494552Y-106580447D01*
X132454795Y-106553882D01*
X132428231Y-106536133D01*
X132369748Y-106524500D01*
X132230252Y-106524500D01*
X132171769Y-106536133D01*
X132127223Y-106565898D01*
X132090441Y-106573214D01*
X132072777Y-106565898D01*
X132061205Y-106558166D01*
X132028231Y-106536133D01*
X131969748Y-106524500D01*
X131830252Y-106524500D01*
X131771769Y-106536133D01*
X131727223Y-106565898D01*
X131690441Y-106573214D01*
X131672777Y-106565898D01*
X131661205Y-106558166D01*
X131628231Y-106536133D01*
X131569748Y-106524500D01*
X131430252Y-106524500D01*
X131371769Y-106536133D01*
X131327223Y-106565898D01*
X131290441Y-106573214D01*
X131272777Y-106565898D01*
X131261205Y-106558166D01*
X131228231Y-106536133D01*
X131169748Y-106524500D01*
X131030252Y-106524500D01*
X131009057Y-106528715D01*
X130972277Y-106521399D01*
X130951441Y-106490216D01*
X130950500Y-106480657D01*
X130950500Y-106290625D01*
X130964852Y-106255977D01*
X130983812Y-106237017D01*
X130983813Y-106237016D01*
X131002096Y-106195607D01*
X131029220Y-106169709D01*
X131066713Y-106170575D01*
X131091746Y-106195607D01*
X131101381Y-106217427D01*
X131115040Y-106248363D01*
X131115385Y-106249143D01*
X131190857Y-106324615D01*
X131190858Y-106324615D01*
X131190859Y-106324616D01*
X131216709Y-106336030D01*
X131288499Y-106367729D01*
X131288505Y-106367731D01*
X131312359Y-106370498D01*
X131312360Y-106370498D01*
X131312377Y-106370500D01*
X131667622Y-106370499D01*
X131691498Y-106367730D01*
X131789141Y-106324616D01*
X131864616Y-106249141D01*
X131907730Y-106151498D01*
X131907730Y-106151496D01*
X131907731Y-106151494D01*
X131910498Y-106127640D01*
X131910497Y-106127640D01*
X131910500Y-106127623D01*
X131910499Y-105672378D01*
X131907730Y-105648502D01*
X131864616Y-105550859D01*
X131864615Y-105550858D01*
X131864615Y-105550857D01*
X131789143Y-105475385D01*
X131719931Y-105444824D01*
X131694033Y-105417699D01*
X131694899Y-105380206D01*
X131719930Y-105355175D01*
X131789141Y-105324616D01*
X131864616Y-105249141D01*
X131907730Y-105151498D01*
X131907730Y-105151496D01*
X131907731Y-105151494D01*
X131910498Y-105127640D01*
X131910497Y-105127640D01*
X131910500Y-105127623D01*
X131910499Y-104672378D01*
X131907730Y-104648502D01*
X131864616Y-104550859D01*
X131864615Y-104550858D01*
X131864615Y-104550857D01*
X131789141Y-104475383D01*
X131769706Y-104466801D01*
X131743808Y-104439676D01*
X131740500Y-104421977D01*
X131740500Y-104221556D01*
X131754851Y-104186909D01*
X132501909Y-103439850D01*
X132536553Y-103425499D01*
X132638471Y-103425499D01*
X132673118Y-103439851D01*
X132687470Y-103474499D01*
X132682129Y-103496744D01*
X132638427Y-103582515D01*
X132638426Y-103582516D01*
X132638426Y-103582518D01*
X132619819Y-103700000D01*
X132638426Y-103817482D01*
X132638426Y-103817483D01*
X132638427Y-103817484D01*
X132692422Y-103923458D01*
X132692427Y-103923465D01*
X132776534Y-104007572D01*
X132776541Y-104007577D01*
X132847190Y-104043573D01*
X132882518Y-104061574D01*
X133000000Y-104080181D01*
X133000001Y-104080180D01*
X133000002Y-104080181D01*
X133003856Y-104080181D01*
X133003856Y-104082018D01*
X133034176Y-104089292D01*
X133040030Y-104094291D01*
X133187637Y-104241898D01*
X133202697Y-104256959D01*
X133217048Y-104291608D01*
X133202695Y-104326255D01*
X133185891Y-104336552D01*
X133185954Y-104336675D01*
X133184399Y-104337467D01*
X133183192Y-104338207D01*
X133182516Y-104338426D01*
X133076541Y-104392422D01*
X133076534Y-104392427D01*
X132992427Y-104476534D01*
X132992422Y-104476541D01*
X132961567Y-104537099D01*
X132933050Y-104561456D01*
X132895663Y-104558513D01*
X132883260Y-104549502D01*
X132809142Y-104475384D01*
X132711500Y-104432270D01*
X132711494Y-104432268D01*
X132687640Y-104429501D01*
X132687625Y-104429500D01*
X132687623Y-104429500D01*
X132687620Y-104429500D01*
X132332382Y-104429500D01*
X132332373Y-104429501D01*
X132308500Y-104432270D01*
X132210857Y-104475384D01*
X132135384Y-104550857D01*
X132092270Y-104648499D01*
X132092268Y-104648505D01*
X132089501Y-104672359D01*
X132089500Y-104672379D01*
X132089500Y-105127617D01*
X132089501Y-105127626D01*
X132092270Y-105151499D01*
X132135384Y-105249142D01*
X132210857Y-105324615D01*
X132210858Y-105324615D01*
X132210859Y-105324616D01*
X132226613Y-105331572D01*
X132280067Y-105355175D01*
X132305966Y-105382299D01*
X132305100Y-105419792D01*
X132280067Y-105444825D01*
X132210857Y-105475384D01*
X132135384Y-105550857D01*
X132092270Y-105648499D01*
X132092268Y-105648505D01*
X132089501Y-105672359D01*
X132089500Y-105672379D01*
X132089500Y-106127617D01*
X132089501Y-106127626D01*
X132092270Y-106151499D01*
X132135384Y-106249142D01*
X132210857Y-106324615D01*
X132210858Y-106324615D01*
X132210859Y-106324616D01*
X132236709Y-106336030D01*
X132308499Y-106367729D01*
X132308505Y-106367731D01*
X132332359Y-106370498D01*
X132332360Y-106370498D01*
X132332377Y-106370500D01*
X132605942Y-106370499D01*
X132640590Y-106384851D01*
X133244840Y-106989100D01*
X133244843Y-106989104D01*
X133318100Y-107062362D01*
X133318101Y-107062362D01*
X133318103Y-107062364D01*
X133410172Y-107100500D01*
X135475500Y-107100500D01*
X135510148Y-107114852D01*
X135524500Y-107149500D01*
X135524500Y-107938083D01*
X135510148Y-107972731D01*
X135497746Y-107981742D01*
X135476779Y-107992425D01*
X135476772Y-107992430D01*
X135392668Y-108076534D01*
X135392663Y-108076541D01*
X135338668Y-108182515D01*
X135338667Y-108182516D01*
X135338667Y-108182518D01*
X135320060Y-108300000D01*
X135338667Y-108417482D01*
X135338667Y-108417483D01*
X135338668Y-108417484D01*
X135392663Y-108523458D01*
X135392668Y-108523465D01*
X135460055Y-108590852D01*
X135474407Y-108625500D01*
X135460055Y-108660148D01*
X135425407Y-108674500D01*
X135230252Y-108674500D01*
X135171769Y-108686133D01*
X135105447Y-108730447D01*
X135069853Y-108783719D01*
X135061133Y-108796769D01*
X135049500Y-108855252D01*
X135049500Y-109094748D01*
X135061133Y-109153231D01*
X135075345Y-109174500D01*
X135105447Y-109219552D01*
X135140776Y-109243158D01*
X135161612Y-109274341D01*
X135154295Y-109311123D01*
X135123112Y-109331959D01*
X135121245Y-109332292D01*
X135082518Y-109338426D01*
X135082516Y-109338426D01*
X135082514Y-109338427D01*
X134976541Y-109392422D01*
X134976534Y-109392427D01*
X134892427Y-109476534D01*
X134892422Y-109476541D01*
X134853158Y-109553603D01*
X134824641Y-109577960D01*
X134787254Y-109575017D01*
X134762897Y-109546500D01*
X134760499Y-109531358D01*
X134760499Y-109496632D01*
X134760499Y-109496629D01*
X134760499Y-109496628D01*
X134757682Y-109472338D01*
X134713813Y-109372984D01*
X134713812Y-109372983D01*
X134713812Y-109372982D01*
X134637017Y-109296187D01*
X134637018Y-109296187D01*
X134537664Y-109252318D01*
X134537658Y-109252316D01*
X134513390Y-109249501D01*
X134513375Y-109249500D01*
X134513373Y-109249500D01*
X134513370Y-109249500D01*
X134086632Y-109249500D01*
X134086625Y-109249501D01*
X134062336Y-109252318D01*
X133962982Y-109296187D01*
X133886187Y-109372982D01*
X133842318Y-109472335D01*
X133842316Y-109472341D01*
X133839501Y-109496609D01*
X133839500Y-109496629D01*
X133839500Y-109708118D01*
X133825148Y-109742766D01*
X133812745Y-109751778D01*
X133755627Y-109780880D01*
X133718239Y-109783822D01*
X133689722Y-109759465D01*
X133686780Y-109722077D01*
X133692638Y-109710001D01*
X133713867Y-109678231D01*
X133725500Y-109619748D01*
X133725500Y-109480252D01*
X133713867Y-109421769D01*
X133684100Y-109377221D01*
X133676784Y-109340441D01*
X133684099Y-109322780D01*
X133713867Y-109278231D01*
X133725500Y-109219748D01*
X133725500Y-109080252D01*
X133713867Y-109021769D01*
X133684100Y-108977221D01*
X133676784Y-108940441D01*
X133684099Y-108922780D01*
X133713867Y-108878231D01*
X133725500Y-108819748D01*
X133725500Y-108680252D01*
X133713867Y-108621769D01*
X133684100Y-108577221D01*
X133676784Y-108540441D01*
X133684099Y-108522780D01*
X133713867Y-108478231D01*
X133725500Y-108419748D01*
X133725500Y-108280252D01*
X133713867Y-108221769D01*
X133684100Y-108177221D01*
X133676784Y-108140441D01*
X133684099Y-108122780D01*
X133713867Y-108078231D01*
X133725500Y-108019748D01*
X133725500Y-107880252D01*
X133713867Y-107821769D01*
X133683642Y-107776535D01*
X133669552Y-107755447D01*
X133624732Y-107725500D01*
X133603231Y-107711133D01*
X133544748Y-107699500D01*
X132730252Y-107699500D01*
X132680969Y-107709303D01*
X132671769Y-107711133D01*
X132605447Y-107755447D01*
X132570658Y-107807514D01*
X132561133Y-107821769D01*
X132549500Y-107880252D01*
X132549500Y-108019748D01*
X132561133Y-108078231D01*
X132575345Y-108099500D01*
X132590898Y-108122777D01*
X132598214Y-108159559D01*
X132590897Y-108177223D01*
X132561133Y-108221769D01*
X132549500Y-108280252D01*
X132549500Y-108419748D01*
X132561133Y-108478231D01*
X132569587Y-108490883D01*
X132590898Y-108522777D01*
X132598214Y-108559559D01*
X132590898Y-108577223D01*
X132584123Y-108587362D01*
X132561133Y-108621769D01*
X132549500Y-108680252D01*
X132549500Y-108819748D01*
X132561133Y-108878231D01*
X132579140Y-108905180D01*
X132590898Y-108922777D01*
X132598214Y-108959559D01*
X132590897Y-108977223D01*
X132561133Y-109021769D01*
X132549500Y-109080252D01*
X132549500Y-109219748D01*
X132561133Y-109278231D01*
X132575345Y-109299500D01*
X132590898Y-109322777D01*
X132598214Y-109359559D01*
X132590898Y-109377223D01*
X132586555Y-109383723D01*
X132561133Y-109421769D01*
X132549500Y-109480252D01*
X132549500Y-109619748D01*
X132561133Y-109678231D01*
X132578882Y-109704795D01*
X132605447Y-109744552D01*
X132632012Y-109762301D01*
X132671769Y-109788867D01*
X132730252Y-109800500D01*
X132730255Y-109800500D01*
X133544747Y-109800500D01*
X133544748Y-109800500D01*
X133545465Y-109800357D01*
X133598628Y-109789783D01*
X133635410Y-109797099D01*
X133656245Y-109828282D01*
X133648929Y-109865064D01*
X133642836Y-109872488D01*
X133628331Y-109886993D01*
X133628325Y-109887001D01*
X133574330Y-109992975D01*
X133574329Y-109992976D01*
X133574329Y-109992978D01*
X133564005Y-110058165D01*
X133544409Y-110090142D01*
X133515608Y-110099500D01*
X132730252Y-110099500D01*
X132674956Y-110110499D01*
X132671769Y-110111133D01*
X132605447Y-110155447D01*
X132564430Y-110216835D01*
X132561133Y-110221769D01*
X132549500Y-110280252D01*
X132549500Y-110419748D01*
X132561133Y-110478231D01*
X132580738Y-110507572D01*
X132590898Y-110522777D01*
X132598214Y-110559559D01*
X132590898Y-110577223D01*
X132575345Y-110600500D01*
X132561133Y-110621769D01*
X132549500Y-110680252D01*
X132549500Y-110819748D01*
X132561133Y-110878231D01*
X132578614Y-110904392D01*
X132590898Y-110922777D01*
X132598214Y-110959559D01*
X132590898Y-110977223D01*
X132577431Y-110997377D01*
X132561133Y-111021769D01*
X132549500Y-111080252D01*
X132549500Y-111219748D01*
X132561133Y-111278231D01*
X132577283Y-111302401D01*
X132605447Y-111344552D01*
X132625725Y-111358101D01*
X132671769Y-111388867D01*
X132730252Y-111400500D01*
X133087672Y-111400500D01*
X133476593Y-111400500D01*
X133511241Y-111414852D01*
X133635148Y-111538758D01*
X133649500Y-111573406D01*
X133649500Y-111660629D01*
X133635148Y-111695277D01*
X133600500Y-111709629D01*
X133590942Y-111708688D01*
X133563848Y-111703299D01*
X133544748Y-111699500D01*
X132730252Y-111699500D01*
X132671769Y-111711133D01*
X132605447Y-111755447D01*
X132568204Y-111811187D01*
X132561133Y-111821769D01*
X132549500Y-111880252D01*
X132549500Y-112019748D01*
X132561133Y-112078231D01*
X132574824Y-112098721D01*
X132590898Y-112122777D01*
X132598214Y-112159559D01*
X132590898Y-112177223D01*
X132575345Y-112200500D01*
X132561133Y-112221769D01*
X132549500Y-112280252D01*
X132549500Y-112419748D01*
X132561133Y-112478231D01*
X132563345Y-112481541D01*
X132590898Y-112522777D01*
X132598214Y-112559559D01*
X132590898Y-112577223D01*
X132574585Y-112601637D01*
X132561133Y-112621769D01*
X132549500Y-112680252D01*
X132549500Y-112819748D01*
X132561133Y-112878231D01*
X132576077Y-112900596D01*
X132590898Y-112922777D01*
X132598214Y-112959559D01*
X132590897Y-112977223D01*
X132561133Y-113021769D01*
X132549500Y-113080252D01*
X132549500Y-113219748D01*
X132561133Y-113278231D01*
X132578882Y-113304795D01*
X132605447Y-113344552D01*
X132625499Y-113357950D01*
X132671769Y-113388867D01*
X132730252Y-113400500D01*
X132730255Y-113400500D01*
X133544747Y-113400500D01*
X133544748Y-113400500D01*
X133549368Y-113399581D01*
X133590941Y-113391312D01*
X133627723Y-113398628D01*
X133648558Y-113429811D01*
X133649500Y-113439370D01*
X133649500Y-113629151D01*
X133635148Y-113663799D01*
X133600500Y-113678151D01*
X133581749Y-113674421D01*
X133521586Y-113649501D01*
X133521584Y-113649500D01*
X133521583Y-113649500D01*
X133521581Y-113649500D01*
X133400834Y-113649500D01*
X133366186Y-113635148D01*
X133323465Y-113592427D01*
X133323458Y-113592422D01*
X133217484Y-113538427D01*
X133217483Y-113538426D01*
X133217482Y-113538426D01*
X133100000Y-113519819D01*
X132982518Y-113538426D01*
X132982516Y-113538426D01*
X132982515Y-113538427D01*
X132876541Y-113592422D01*
X132876534Y-113592427D01*
X132792427Y-113676534D01*
X132792422Y-113676541D01*
X132738427Y-113782515D01*
X132738426Y-113782516D01*
X132738426Y-113782518D01*
X132728648Y-113844256D01*
X132719819Y-113900000D01*
X132738426Y-114017483D01*
X132748274Y-114036811D01*
X132760655Y-114061109D01*
X132763598Y-114098496D01*
X132739242Y-114127013D01*
X132724662Y-114131751D01*
X132682517Y-114138426D01*
X132621745Y-114169391D01*
X132584358Y-114172333D01*
X132555840Y-114147976D01*
X132550500Y-114125731D01*
X132550500Y-113580255D01*
X132550500Y-113580252D01*
X132538867Y-113521769D01*
X132502994Y-113468082D01*
X132494552Y-113455447D01*
X132448236Y-113424500D01*
X132428231Y-113411133D01*
X132369748Y-113399500D01*
X132230252Y-113399500D01*
X132178179Y-113409858D01*
X132171769Y-113411133D01*
X132127223Y-113440898D01*
X132090441Y-113448214D01*
X132072777Y-113440898D01*
X132051775Y-113426865D01*
X132028231Y-113411133D01*
X131969748Y-113399500D01*
X131830252Y-113399500D01*
X131778179Y-113409858D01*
X131771769Y-113411133D01*
X131727223Y-113440898D01*
X131690441Y-113448214D01*
X131672777Y-113440898D01*
X131651775Y-113426865D01*
X131628231Y-113411133D01*
X131569748Y-113399500D01*
X131430252Y-113399500D01*
X131378179Y-113409858D01*
X131371769Y-113411133D01*
X131327223Y-113440898D01*
X131290441Y-113448214D01*
X131272777Y-113440898D01*
X131251775Y-113426865D01*
X131228231Y-113411133D01*
X131169748Y-113399500D01*
X131030252Y-113399500D01*
X130978179Y-113409858D01*
X130971769Y-113411133D01*
X130927223Y-113440898D01*
X130890441Y-113448214D01*
X130872777Y-113440898D01*
X130851775Y-113426865D01*
X130828231Y-113411133D01*
X130769748Y-113399500D01*
X130630252Y-113399500D01*
X130578179Y-113409858D01*
X130571769Y-113411133D01*
X130527223Y-113440898D01*
X130490441Y-113448214D01*
X130472777Y-113440898D01*
X130451775Y-113426865D01*
X130428231Y-113411133D01*
X130369748Y-113399500D01*
X130230252Y-113399500D01*
X130178179Y-113409858D01*
X130171769Y-113411133D01*
X130127223Y-113440898D01*
X130090441Y-113448214D01*
X130072777Y-113440898D01*
X130051775Y-113426865D01*
X130028231Y-113411133D01*
X129969748Y-113399500D01*
X129830252Y-113399500D01*
X129778179Y-113409858D01*
X129771769Y-113411133D01*
X129727223Y-113440898D01*
X129690441Y-113448214D01*
X129672777Y-113440898D01*
X129651775Y-113426865D01*
X129628231Y-113411133D01*
X129569748Y-113399500D01*
X129430252Y-113399500D01*
X129378179Y-113409858D01*
X129371769Y-113411133D01*
X129327223Y-113440898D01*
X129290441Y-113448214D01*
X129272777Y-113440898D01*
X129251775Y-113426865D01*
X129228231Y-113411133D01*
X129169748Y-113399500D01*
X129030252Y-113399500D01*
X128978179Y-113409858D01*
X128971769Y-113411133D01*
X128927223Y-113440898D01*
X128890441Y-113448214D01*
X128872777Y-113440898D01*
X128851775Y-113426865D01*
X128828231Y-113411133D01*
X128769748Y-113399500D01*
X128630252Y-113399500D01*
X128578179Y-113409858D01*
X128571769Y-113411133D01*
X128527223Y-113440898D01*
X128490441Y-113448214D01*
X128472777Y-113440898D01*
X128451775Y-113426865D01*
X128428231Y-113411133D01*
X128369748Y-113399500D01*
X128230252Y-113399500D01*
X128178179Y-113409858D01*
X128171769Y-113411133D01*
X128127223Y-113440898D01*
X128090441Y-113448214D01*
X128072777Y-113440898D01*
X128051775Y-113426865D01*
X128028231Y-113411133D01*
X127969748Y-113399500D01*
X127830252Y-113399500D01*
X127778179Y-113409858D01*
X127771769Y-113411133D01*
X127727223Y-113440898D01*
X127690441Y-113448214D01*
X127672777Y-113440898D01*
X127651775Y-113426865D01*
X127628231Y-113411133D01*
X127569748Y-113399500D01*
X127447149Y-113399500D01*
X127412501Y-113385148D01*
X127398149Y-113350500D01*
X127412501Y-113315852D01*
X127420489Y-113310047D01*
X127420341Y-113309843D01*
X127423460Y-113307575D01*
X127423465Y-113307573D01*
X127507573Y-113223465D01*
X127514231Y-113210399D01*
X127531485Y-113176535D01*
X127561574Y-113117482D01*
X127580181Y-113000000D01*
X127561574Y-112882518D01*
X127527633Y-112815905D01*
X127507577Y-112776541D01*
X127507572Y-112776534D01*
X127423465Y-112692427D01*
X127423458Y-112692422D01*
X127317484Y-112638427D01*
X127317483Y-112638426D01*
X127317482Y-112638426D01*
X127200000Y-112619819D01*
X127199999Y-112619819D01*
X127196145Y-112619819D01*
X127196145Y-112617991D01*
X127165790Y-112610683D01*
X127159969Y-112605708D01*
X127091899Y-112537637D01*
X127078582Y-112532121D01*
X127051922Y-112521078D01*
X126999829Y-112499500D01*
X126999828Y-112499500D01*
X126894343Y-112499500D01*
X126859695Y-112485148D01*
X126845343Y-112450500D01*
X126846284Y-112440941D01*
X126850500Y-112419748D01*
X126850500Y-112299834D01*
X126864852Y-112265186D01*
X126899500Y-112250834D01*
X126934148Y-112265186D01*
X126976534Y-112307572D01*
X126976541Y-112307577D01*
X127047190Y-112343573D01*
X127082518Y-112361574D01*
X127200000Y-112380181D01*
X127317482Y-112361574D01*
X127390988Y-112324120D01*
X127423458Y-112307577D01*
X127423460Y-112307575D01*
X127423465Y-112307573D01*
X127507573Y-112223465D01*
X127508438Y-112221769D01*
X127525982Y-112187335D01*
X127561574Y-112117482D01*
X127580181Y-112000000D01*
X127561574Y-111882518D01*
X127532825Y-111826094D01*
X127507577Y-111776541D01*
X127507572Y-111776534D01*
X127423465Y-111692427D01*
X127423458Y-111692422D01*
X127317484Y-111638427D01*
X127317483Y-111638426D01*
X127317482Y-111638426D01*
X127200000Y-111619819D01*
X127082517Y-111638426D01*
X126973133Y-111694160D01*
X126950888Y-111699500D01*
X126894343Y-111699500D01*
X126859695Y-111685148D01*
X126845343Y-111650500D01*
X126846284Y-111640941D01*
X126846567Y-111639520D01*
X126850500Y-111619748D01*
X126850500Y-111480252D01*
X126846284Y-111459057D01*
X126853601Y-111422277D01*
X126884784Y-111401441D01*
X126894343Y-111400500D01*
X127099826Y-111400500D01*
X127099828Y-111400500D01*
X127150255Y-111379611D01*
X127176667Y-111376485D01*
X127200000Y-111380181D01*
X127317482Y-111361574D01*
X127390988Y-111324120D01*
X127423458Y-111307577D01*
X127423460Y-111307575D01*
X127423465Y-111307573D01*
X127507573Y-111223465D01*
X127508708Y-111221239D01*
X127539282Y-111161232D01*
X127561574Y-111117482D01*
X127580181Y-111000000D01*
X127561574Y-110882518D01*
X127539835Y-110839852D01*
X127507577Y-110776541D01*
X127507572Y-110776534D01*
X127423465Y-110692427D01*
X127423458Y-110692422D01*
X127317484Y-110638427D01*
X127317483Y-110638426D01*
X127317482Y-110638426D01*
X127200000Y-110619819D01*
X127082518Y-110638426D01*
X127082516Y-110638426D01*
X127082515Y-110638427D01*
X126976541Y-110692422D01*
X126976534Y-110692427D01*
X126892427Y-110776534D01*
X126892422Y-110776541D01*
X126843405Y-110872745D01*
X126814888Y-110897102D01*
X126799746Y-110899500D01*
X126669748Y-110899500D01*
X125855252Y-110899500D01*
X125797418Y-110911004D01*
X125796769Y-110911133D01*
X125730447Y-110955447D01*
X125684257Y-111024576D01*
X125653074Y-111045412D01*
X125621271Y-111041013D01*
X125616863Y-111038767D01*
X125499381Y-111020160D01*
X125381899Y-111038767D01*
X125381897Y-111038767D01*
X125381896Y-111038768D01*
X125275922Y-111092763D01*
X125275915Y-111092768D01*
X125191808Y-111176875D01*
X125191803Y-111176882D01*
X125137808Y-111282856D01*
X125137807Y-111282857D01*
X125137807Y-111282859D01*
X125119200Y-111400341D01*
X124734076Y-111400341D01*
X125220004Y-110914412D01*
X125220007Y-110914411D01*
X125226896Y-110907522D01*
X125226897Y-110907522D01*
X125297364Y-110837055D01*
X125323139Y-110774828D01*
X125331139Y-110755514D01*
X125356615Y-110729443D01*
X125392016Y-110713813D01*
X125468813Y-110637016D01*
X125472039Y-110629708D01*
X125499161Y-110603810D01*
X125516864Y-110600500D01*
X126669745Y-110600500D01*
X126669748Y-110600500D01*
X126728231Y-110588867D01*
X126794552Y-110544552D01*
X126838867Y-110478231D01*
X126850500Y-110419748D01*
X126850500Y-110280252D01*
X126838867Y-110221769D01*
X126809100Y-110177221D01*
X126801784Y-110140441D01*
X126809099Y-110122780D01*
X126838867Y-110078231D01*
X126850500Y-110019748D01*
X126850500Y-109880252D01*
X126846284Y-109859057D01*
X126853601Y-109822277D01*
X126884784Y-109801441D01*
X126894343Y-109800500D01*
X127171578Y-109800500D01*
X127171580Y-109800500D01*
X127263649Y-109762364D01*
X127263651Y-109762362D01*
X127263652Y-109762362D01*
X127787362Y-109238652D01*
X127787362Y-109238651D01*
X127787364Y-109238649D01*
X127825500Y-109146580D01*
X127825500Y-109046925D01*
X127825500Y-108758785D01*
X127825501Y-108758776D01*
X127825501Y-108653422D01*
X127825500Y-108653418D01*
X127818706Y-108637017D01*
X127796428Y-108583233D01*
X127787364Y-108561351D01*
X127787363Y-108561350D01*
X127787363Y-108561349D01*
X127787362Y-108561348D01*
X127714107Y-108488094D01*
X127714100Y-108488088D01*
X127482814Y-108256801D01*
X127469065Y-108229818D01*
X127461574Y-108182518D01*
X127432267Y-108125000D01*
X127407577Y-108076541D01*
X127407572Y-108076534D01*
X127323465Y-107992427D01*
X127323458Y-107992422D01*
X127217484Y-107938427D01*
X127217483Y-107938426D01*
X127217482Y-107938426D01*
X127100000Y-107919819D01*
X126982517Y-107938426D01*
X126921745Y-107969391D01*
X126884358Y-107972333D01*
X126855840Y-107947976D01*
X126850500Y-107925731D01*
X126850500Y-107880255D01*
X126850500Y-107880252D01*
X126838867Y-107821769D01*
X126808642Y-107776535D01*
X126794552Y-107755447D01*
X126749732Y-107725500D01*
X126728231Y-107711133D01*
X126669748Y-107699500D01*
X126669745Y-107699500D01*
X125854056Y-107699500D01*
X125819408Y-107685148D01*
X125524851Y-107390591D01*
X125510499Y-107355943D01*
X125510499Y-107086632D01*
X125510499Y-107086629D01*
X125510499Y-107086628D01*
X125507682Y-107062338D01*
X125463813Y-106962984D01*
X125463812Y-106962983D01*
X125463812Y-106962982D01*
X125387017Y-106886187D01*
X125387018Y-106886187D01*
X125287664Y-106842318D01*
X125287658Y-106842316D01*
X125263390Y-106839501D01*
X125263375Y-106839500D01*
X125263373Y-106839500D01*
X125263370Y-106839500D01*
X124896632Y-106839500D01*
X124896625Y-106839501D01*
X124872336Y-106842318D01*
X124772982Y-106886187D01*
X124696187Y-106962982D01*
X124652318Y-107062335D01*
X124652316Y-107062341D01*
X124649501Y-107086609D01*
X124649500Y-107086629D01*
X124649500Y-107513367D01*
X124649501Y-107513374D01*
X124652318Y-107537663D01*
X124696187Y-107637017D01*
X124772983Y-107713813D01*
X124800291Y-107725870D01*
X124826191Y-107752993D01*
X124829500Y-107770695D01*
X124829500Y-107829303D01*
X124815148Y-107863951D01*
X124800294Y-107874127D01*
X124772982Y-107886187D01*
X124696187Y-107962982D01*
X124652318Y-108062335D01*
X124652316Y-108062341D01*
X124649501Y-108086609D01*
X124649500Y-108086629D01*
X124649500Y-108513367D01*
X124649501Y-108513374D01*
X124652318Y-108537663D01*
X124696187Y-108637017D01*
X124736033Y-108676862D01*
X124772984Y-108713813D01*
X124805291Y-108728077D01*
X124831191Y-108755200D01*
X124834500Y-108772902D01*
X124834500Y-108827096D01*
X124820148Y-108861744D01*
X124805293Y-108871921D01*
X124772981Y-108886188D01*
X124696187Y-108962982D01*
X124652318Y-109062335D01*
X124652316Y-109062341D01*
X124649501Y-109086609D01*
X124649500Y-109086629D01*
X124649500Y-109513367D01*
X124649501Y-109513374D01*
X124652318Y-109537663D01*
X124696187Y-109637017D01*
X124737401Y-109678230D01*
X124772984Y-109713813D01*
X124805291Y-109728077D01*
X124831191Y-109755200D01*
X124834500Y-109772902D01*
X124834500Y-109829303D01*
X124820148Y-109863951D01*
X124805294Y-109874127D01*
X124777982Y-109886187D01*
X124701187Y-109962982D01*
X124657318Y-110062335D01*
X124657316Y-110062341D01*
X124654501Y-110086609D01*
X124654500Y-110086629D01*
X124654500Y-110513367D01*
X124654501Y-110513374D01*
X124657318Y-110537663D01*
X124701187Y-110637017D01*
X124710385Y-110646215D01*
X124724737Y-110680863D01*
X124710385Y-110715511D01*
X123328249Y-112097648D01*
X123293601Y-112112000D01*
X123249499Y-112112000D01*
X123214851Y-112097648D01*
X123200499Y-112063000D01*
X123200499Y-111805141D01*
X123200498Y-111805135D01*
X123197585Y-111780009D01*
X123152206Y-111677235D01*
X123152205Y-111677234D01*
X123152205Y-111677233D01*
X123072766Y-111597794D01*
X123072767Y-111597794D01*
X122969993Y-111552415D01*
X122957428Y-111550957D01*
X122944865Y-111549500D01*
X122944863Y-111549500D01*
X122555141Y-111549500D01*
X122555131Y-111549501D01*
X122530007Y-111552415D01*
X122427233Y-111597794D01*
X122347794Y-111677233D01*
X122302415Y-111780006D01*
X122299500Y-111805134D01*
X120613520Y-111805134D01*
X120601744Y-111764602D01*
X120596330Y-111755448D01*
X120550303Y-111677619D01*
X120518081Y-111623135D01*
X120401865Y-111506919D01*
X120398926Y-111505181D01*
X120260398Y-111423256D01*
X120260400Y-111423256D01*
X120102568Y-111377401D01*
X120065696Y-111374500D01*
X120065694Y-111374500D01*
X112934306Y-111374500D01*
X112934303Y-111374500D01*
X112897432Y-111377401D01*
X112897430Y-111377401D01*
X112739600Y-111423256D01*
X112598137Y-111506917D01*
X112598132Y-111506921D01*
X112481921Y-111623132D01*
X112481917Y-111623137D01*
X112398256Y-111764600D01*
X112352401Y-111922430D01*
X112352401Y-111922432D01*
X112349500Y-111959303D01*
X111000000Y-111959303D01*
X111000000Y-109759303D01*
X113349500Y-109759303D01*
X113349500Y-110390696D01*
X113352401Y-110427567D01*
X113352401Y-110427569D01*
X113398256Y-110585399D01*
X113480520Y-110724500D01*
X113481919Y-110726865D01*
X113598135Y-110843081D01*
X113739600Y-110926743D01*
X113739601Y-110926743D01*
X113739602Y-110926744D01*
X113897431Y-110972598D01*
X113934306Y-110975500D01*
X113934317Y-110975500D01*
X120065683Y-110975500D01*
X120065694Y-110975500D01*
X120102569Y-110972598D01*
X120260398Y-110926744D01*
X120401865Y-110843081D01*
X120518081Y-110726865D01*
X120601744Y-110585398D01*
X120647598Y-110427569D01*
X120650500Y-110390694D01*
X120650500Y-109759306D01*
X120647598Y-109722431D01*
X120644752Y-109712636D01*
X120625808Y-109647430D01*
X120601744Y-109564602D01*
X120600989Y-109563326D01*
X120557388Y-109489600D01*
X120518081Y-109423135D01*
X120401865Y-109306919D01*
X120362637Y-109283720D01*
X120260398Y-109223256D01*
X120260400Y-109223256D01*
X120102568Y-109177401D01*
X120065696Y-109174500D01*
X120065694Y-109174500D01*
X113934306Y-109174500D01*
X113934303Y-109174500D01*
X113897432Y-109177401D01*
X113897430Y-109177401D01*
X113739600Y-109223256D01*
X113598137Y-109306917D01*
X113598132Y-109306921D01*
X113481921Y-109423132D01*
X113481917Y-109423137D01*
X113398256Y-109564600D01*
X113352401Y-109722430D01*
X113352401Y-109722432D01*
X113349500Y-109759303D01*
X111000000Y-109759303D01*
X111000000Y-107709303D01*
X113349500Y-107709303D01*
X113349500Y-108340696D01*
X113352401Y-108377567D01*
X113352401Y-108377569D01*
X113398256Y-108535399D01*
X113480520Y-108674500D01*
X113481919Y-108676865D01*
X113598135Y-108793081D01*
X113739600Y-108876743D01*
X113739601Y-108876743D01*
X113739602Y-108876744D01*
X113897431Y-108922598D01*
X113934306Y-108925500D01*
X113934317Y-108925500D01*
X120065683Y-108925500D01*
X120065694Y-108925500D01*
X120102569Y-108922598D01*
X120260398Y-108876744D01*
X120401865Y-108793081D01*
X120518081Y-108676865D01*
X120601744Y-108535398D01*
X120647598Y-108377569D01*
X120650500Y-108340694D01*
X120650500Y-107709306D01*
X120647598Y-107672431D01*
X120645810Y-107666278D01*
X120623798Y-107590511D01*
X120601744Y-107514602D01*
X120583153Y-107483167D01*
X120518082Y-107373137D01*
X120518081Y-107373135D01*
X120401865Y-107256919D01*
X120322833Y-107210180D01*
X120260398Y-107173256D01*
X120260400Y-107173256D01*
X120102568Y-107127401D01*
X120065696Y-107124500D01*
X120065694Y-107124500D01*
X113934306Y-107124500D01*
X113934303Y-107124500D01*
X113897432Y-107127401D01*
X113897430Y-107127401D01*
X113739600Y-107173256D01*
X113598137Y-107256917D01*
X113598132Y-107256921D01*
X113481921Y-107373132D01*
X113481917Y-107373137D01*
X113398256Y-107514600D01*
X113352401Y-107672430D01*
X113352401Y-107672432D01*
X113349500Y-107709303D01*
X111000000Y-107709303D01*
X111000000Y-104000587D01*
X111000015Y-103999387D01*
X111000853Y-103965176D01*
X111002303Y-103905956D01*
X111003229Y-103897612D01*
X111039803Y-103713739D01*
X111042585Y-103704566D01*
X111114101Y-103531913D01*
X111118621Y-103523456D01*
X111222443Y-103368076D01*
X111228527Y-103360663D01*
X111360663Y-103228527D01*
X111368076Y-103222443D01*
X111523456Y-103118621D01*
X111531913Y-103114101D01*
X111704566Y-103042585D01*
X111713739Y-103039803D01*
X111897612Y-103003229D01*
X111905956Y-103002303D01*
X111999388Y-103000015D01*
X112000588Y-103000000D01*
X121500000Y-103000000D01*
X121502303Y-102905956D01*
X121503229Y-102897612D01*
X121539803Y-102713739D01*
X121542585Y-102704566D01*
X121614101Y-102531913D01*
X121618621Y-102523456D01*
X121722443Y-102368076D01*
X121728527Y-102360663D01*
X121860663Y-102228527D01*
X121868076Y-102222443D01*
X122023456Y-102118621D01*
X122031913Y-102114101D01*
X122204566Y-102042585D01*
X122213739Y-102039803D01*
X122397612Y-102003229D01*
X122405956Y-102002303D01*
X122499388Y-102000015D01*
X122500588Y-102000000D01*
X162499412Y-102000000D01*
X162500612Y-102000015D01*
G37*
%TD.AperFunction*%
%TD*%
M02*
